<svg xmlns="http://www.w3.org/2000/svg" width="69.232" height="75.034" viewBox="0 0 69.232 75.034">
  <g id="Layer_2" transform="translate(-12.91 -3.265)">
    <g id="Grupo_83853" data-name="Grupo 83853" transform="translate(12.91 3.265)">
      <path id="Trazado_114458" data-name="Trazado 114458" d="M119.127,210.641h-13.4l.8-7.469.532-5.012H117.8l.532,5.012Z" transform="translate(-77.814 -139.541)" fill="#efefef"/>
      <path id="Trazado_114459" data-name="Trazado 114459" d="M120.183,203.172h-11.8l.532-5.012h10.736Z" transform="translate(-79.667 -139.541)" fill="#afafaf"/>
      <path id="Trazado_114460" data-name="Trazado 114460" d="M83.138,50.613V92.685a3.007,3.007,0,0,1-3.008,3.008H18.418a3.007,3.007,0,0,1-3.008-3.008V50.613A3.007,3.007,0,0,1,18.418,47.6H80.13A3.007,3.007,0,0,1,83.138,50.613Z" transform="translate(-14.658 -34.269)" fill="#71c1e8"/>
      <path id="Trazado_114461" data-name="Trazado 114461" d="M95.581,65.82l-4.746,8.22a3.1,3.1,0,0,1-4.226,1.131l-1.188-.686a21.908,21.908,0,0,1-5.348,3.161v1.528a3.1,3.1,0,0,1-3.092,3.095H66.694A3.1,3.1,0,0,1,63.6,79.174V77.646a21.908,21.908,0,0,1-5.348-3.161l-1.188.686a3.1,3.1,0,0,1-4.226-1.131l-4.746-8.22a3.091,3.091,0,0,1,1.134-4.226l1.185-.683a21.825,21.825,0,0,1,0-6.638l-1.185-.683a3.1,3.1,0,0,1-1.134-4.229L49.108,47.6H94.567l1.014,1.757a3.1,3.1,0,0,1-1.134,4.229l-1.185.683a21.826,21.826,0,0,1,0,6.638l1.185.683A3.091,3.091,0,0,1,95.581,65.82Z" transform="translate(-37.222 -34.269)" fill="#4ba5c8"/>
      <path id="Trazado_114462" data-name="Trazado 114462" d="M88.242,61.919V93.7a1.5,1.5,0,0,1-1.5,1.5H29.724a1.5,1.5,0,0,1-1.5-1.5V61.919a1.5,1.5,0,0,1,1.5-1.5H86.738a1.5,1.5,0,0,1,1.5,1.5Z" transform="translate(-23.615 -43.226)" fill="#c4baf5"/>
      <path id="Trazado_114463" data-name="Trazado 114463" d="M95.581,74.777,90.835,83a3.1,3.1,0,0,1-4.226,1.131l-1.188-.686A21.908,21.908,0,0,1,80.073,86.6v1.528a3.1,3.1,0,0,1-3.092,3.095H66.694A3.1,3.1,0,0,1,63.6,88.131V86.6a21.908,21.908,0,0,1-5.348-3.161l-1.188.686A3.1,3.1,0,0,1,52.841,83l-4.746-8.22a3.091,3.091,0,0,1,1.134-4.226l1.185-.683a21.825,21.825,0,0,1,0-6.638l-1.185-.683a3.07,3.07,0,0,1-1.5-2.132H95.945a3.07,3.07,0,0,1-1.5,2.132l-1.185.683a21.825,21.825,0,0,1,0,6.638l1.185.683a3.091,3.091,0,0,1,1.134,4.226Z" transform="translate(-37.222 -43.226)" fill="#a093e1"/>
      <path id="Trazado_114464" data-name="Trazado 114464" d="M107.275,238.562H83.55a2.155,2.155,0,0,1-2.155-2.155v-.71a2.155,2.155,0,0,1,2.155-2.155h23.725a2.155,2.155,0,0,1,2.155,2.155v.71A2.155,2.155,0,0,1,107.275,238.562Z" transform="translate(-60.797 -164.281)" fill="#71c1e8"/>
      <path id="Trazado_114465" data-name="Trazado 114465" d="M55.177,34.162l2.481-1.432a19.727,19.727,0,0,1,0-8.787L55.177,22.51a.988.988,0,0,1-.362-1.35l4.745-8.218a.989.989,0,0,1,1.35-.362L63.4,14.015A19.559,19.559,0,0,1,70.6,9.745V6.754a.989.989,0,0,1,.989-.989H81.878a.989.989,0,0,1,.989.989V9.745a19.559,19.559,0,0,1,7.207,4.27L92.56,12.58a.989.989,0,0,1,1.35.362l4.745,8.218a.988.988,0,0,1-.362,1.35l-2.481,1.432a19.726,19.726,0,0,1,0,8.787l2.481,1.432a.989.989,0,0,1,.362,1.35L93.91,43.731a.989.989,0,0,1-1.35.362l-2.486-1.435a19.559,19.559,0,0,1-7.207,4.27v2.991a.989.989,0,0,1-.989.989H71.593a.989.989,0,0,1-.989-.989V46.928a19.559,19.559,0,0,1-7.207-4.27l-2.486,1.435a.989.989,0,0,1-1.35-.362l-4.745-8.218a.988.988,0,0,1,.361-1.351Z" transform="translate(-42.119 -5.013)" fill="#583ae2"/>
      <circle id="Elipse_4806" data-name="Elipse 4806" cx="14.926" cy="14.926" r="14.926" transform="translate(19.69 8.396)" fill="#efefef"/>
      <path id="Trazado_114466" data-name="Trazado 114466" d="M107.007,40.6A9.092,9.092,0,0,0,98,49.028a8.964,8.964,0,0,0,3.168,7.492,2.38,2.38,0,0,1,.8,1.832V61.18a3.613,3.613,0,0,0,3.609,3.609h2.86a3.613,3.613,0,0,0,3.609-3.609V58.32a2.522,2.522,0,0,1,.9-1.882A9.029,9.029,0,0,0,107.007,40.6Z" transform="translate(-72.391 -29.374)" fill="#afafaf"/>
      <g id="Grupo_83849" data-name="Grupo 83849" transform="translate(27.692 13.336)">
        <g id="Grupo_83848" data-name="Grupo 83848">
          <g id="Grupo_83847" data-name="Grupo 83847">
            <path id="Trazado_114467" data-name="Trazado 114467" d="M118.828,54.53a6.924,6.924,0,1,0-11.4,5.279,4.5,4.5,0,0,1,1.545,3.437v.146h5.867v-.178a4.616,4.616,0,0,1,1.618-3.468,6.906,6.906,0,0,0,2.372-5.217Z" transform="translate(-104.98 -47.605)" fill="#f0c020"/>
            <path id="Trazado_114468" data-name="Trazado 114468" d="M124.114,100.094h-5.867v2.682a1.5,1.5,0,0,0,1.5,1.5h2.859a1.5,1.5,0,0,0,1.5-1.5Z" transform="translate(-114.257 -84.307)" fill="#878787"/>
          </g>
        </g>
      </g>
      <g id="Grupo_83850" data-name="Grupo 83850" transform="translate(7.171 19.255)">
        <path id="Trazado_114469" data-name="Trazado 114469" d="M37.5,97.94a.752.752,0,0,1-.752-.752V71.946a.752.752,0,1,1,1.5,0V97.189A.752.752,0,0,1,37.5,97.94Zm0-28.25a.752.752,0,0,1-.752-.752v-.9a.752.752,0,0,1,1.5,0v.9A.752.752,0,0,1,37.5,69.69Z" transform="translate(-36.751 -67.284)" fill="#a093e1"/>
      </g>
      <g id="Grupo_83851" data-name="Grupo 83851" transform="translate(60.558 19.255)">
        <path id="Trazado_114470" data-name="Trazado 114470" d="M215,97.94a.752.752,0,0,1-.752-.752v-.9a.752.752,0,1,1,1.5,0v.9A.752.752,0,0,1,215,97.94Zm0-3.91a.752.752,0,0,1-.752-.752V68.036a.752.752,0,1,1,1.5,0V93.279A.752.752,0,0,1,215,94.03Z" transform="translate(-214.25 -67.284)" fill="#a093e1"/>
      </g>
      <g id="Grupo_83852" data-name="Grupo 83852" transform="translate(0 0)">
        <path id="Trazado_114471" data-name="Trazado 114471" d="M219.785,187.36a.752.752,0,0,1,0,1.5h-1.226a.752.752,0,0,1,0-1.5Z" transform="translate(-156.179 -131.989)"/>
        <path id="Trazado_114472" data-name="Trazado 114472" d="M200.858,187.36a.752.752,0,0,1,0,1.5h-1.226a.752.752,0,1,1,0-1.5Z" transform="translate(-142.945 -131.989)"/>
        <circle id="Elipse_4807" data-name="Elipse 4807" cx="0.752" cy="0.752" r="0.752" transform="translate(41.651 73.53)"/>
        <path id="Trazado_114473" data-name="Trazado 114473" d="M106.468,61.5a3.73,3.73,0,0,0-1.28-2.864,7.623,7.623,0,0,1-2.694-6.371,7.676,7.676,0,1,1,12.705,6.3,3.872,3.872,0,0,0-1.36,2.9v2.86a2.258,2.258,0,0,1-2.256,2.256h-2.86a2.258,2.258,0,0,1-2.256-2.256V61.5Zm5.867.9h-4.364v1.93a.753.753,0,0,0,.752.752h2.86a.753.753,0,0,0,.752-.752Zm-4.4-1.5h4.429a5.42,5.42,0,0,1,1.843-3.461,6.173,6.173,0,1,0-8.05.056,5.187,5.187,0,0,1,1.778,3.405Z" transform="translate(-75.538 -32.521)"/>
        <path id="Trazado_114474" data-name="Trazado 114474" d="M120,68.036a.752.752,0,0,1,.752-.752h1.654a.752.752,0,0,1,.752.752v4.186h.9a.752.752,0,1,1,0,1.5h-1.654a.752.752,0,0,1-.752-.752V68.788h-.9A.752.752,0,0,1,120,68.036Z" transform="translate(-87.79 -48.029)"/>
        <path id="Trazado_114475" data-name="Trazado 114475" d="M125.5,57.491v-.506a.752.752,0,0,1,1.5,0v.506a.752.752,0,0,1-1.5,0Z" transform="translate(-91.636 -40.302)"/>
        <path id="Trazado_114476" data-name="Trazado 114476" d="M75.885,44.992c-.009-.22-.015-.433-.015-.638A15.679,15.679,0,0,1,91.549,28.675l0,0A15.678,15.678,0,1,1,77.386,51.082a.749.749,0,0,1,.355-1,.768.768,0,0,1,1,.355A14.176,14.176,0,1,0,91.549,30.181l-.014,0A14.173,14.173,0,0,0,77.374,44.354c0,.2.006.391.012.577a.75.75,0,0,1-.722.779c-.263.086-.761-.235-.779-.719Z" transform="translate(-56.933 -21.032)"/>
        <path id="Trazado_114477" data-name="Trazado 114477" d="M78.236,91.686a.751.751,0,0,1-.358-1.459.761.761,0,0,1,.908.547l0,0A.751.751,0,0,1,78.236,91.686Z" transform="translate(-57.937 -64.057)"/>
        <circle id="Elipse_4808" data-name="Elipse 4808" cx="0.752" cy="0.752" r="0.752" transform="translate(67.728 30.595)"/>
        <path id="Trazado_114478" data-name="Trazado 114478" d="M82.142,31.6a.752.752,0,1,1-1.5,0V19.609a2.258,2.258,0,0,0-2.256-2.256H69.125l.971,1.683a1.734,1.734,0,0,1,.22.667h5.819a2.163,2.163,0,0,1,2.154,2.16v31.97a2.163,2.163,0,0,1-2.161,2.161H18.923a2.163,2.163,0,0,1-2.161-2.161V21.863a2.163,2.163,0,0,1,2.153-2.16h5.82a1.74,1.74,0,0,1,.22-.667l.971-1.683H16.67a2.258,2.258,0,0,0-2.256,2.256V61.681a2.258,2.258,0,0,0,2.256,2.256H78.382a2.258,2.258,0,0,0,2.256-2.256V37.619a.752.752,0,0,1,1.5,0V61.681a3.764,3.764,0,0,1-3.76,3.76H54.03l.675,6.333h4.82A2.774,2.774,0,0,1,62.3,74.545v.983a2.774,2.774,0,0,1-2.761,2.77H58.321a.752.752,0,1,1,0-1.5h1.2a1.269,1.269,0,0,0,1.267-1.267v-.983a1.269,1.269,0,0,0-1.267-1.267h-24a1.268,1.268,0,0,0-1.267,1.267v.983a1.268,1.268,0,0,0,1.267,1.267H52.3a.752.752,0,0,1,0,1.5H35.517a2.774,2.774,0,0,1-2.76-2.77v-.983a2.774,2.774,0,0,1,2.771-2.771h4.82l.675-6.333H16.67a3.764,3.764,0,0,1-3.76-3.76V19.609a3.764,3.764,0,0,1,3.76-3.76H26.795L29.7,10.817a1.742,1.742,0,0,1,2.377-.637l2.012,1.161a20.479,20.479,0,0,1,6.554-3.88V5.005a1.742,1.742,0,0,1,1.74-1.74H52.669a1.742,1.742,0,0,1,1.74,1.74V7.461a20.493,20.493,0,0,1,6.554,3.88l2.011-1.161a1.74,1.74,0,0,1,2.377.637l2.905,5.032H78.382a3.764,3.764,0,0,1,3.76,3.76v12ZM52.517,65.441H42.535l-.675,6.333H53.192ZM26.258,19.788a.237.237,0,0,0,.087.323l2.481,1.432a.752.752,0,0,1,.357.82,18.98,18.98,0,0,0,0,8.451.752.752,0,0,1-.357.82l-2.481,1.432a.236.236,0,0,0-.087.323L31,41.607a.237.237,0,0,0,.323.087l2.486-1.435a.751.751,0,0,1,.888.1,18.94,18.94,0,0,0,6.93,4.106.752.752,0,0,1,.516.714v2.991a.237.237,0,0,0,.236.236H52.669a.237.237,0,0,0,.236-.236V45.18a.752.752,0,0,1,.516-.714,18.942,18.942,0,0,0,6.93-4.106.751.751,0,0,1,.888-.1l2.486,1.435a.236.236,0,0,0,.323-.086l4.745-8.219a.237.237,0,0,0-.086-.323l-2.481-1.432a.752.752,0,0,1-.357-.819,18.983,18.983,0,0,0,0-8.452.751.751,0,0,1,.357-.819l2.48-1.432a.237.237,0,0,0,.087-.323l-4.745-8.218a.237.237,0,0,0-.323-.087L61.24,12.918a.752.752,0,0,1-.888-.1,18.94,18.94,0,0,0-6.93-4.106A.752.752,0,0,1,52.9,8V5.005a.237.237,0,0,0-.236-.236H42.383a.237.237,0,0,0-.236.236V8a.752.752,0,0,1-.516.714,18.945,18.945,0,0,0-6.93,4.106.752.752,0,0,1-.888.1l-2.486-1.435a.237.237,0,0,0-.323.087Zm50.528,2.075a.658.658,0,0,0-.657-.657H69.745a1.73,1.73,0,0,1-.287.207l-2.006,1.159a20.5,20.5,0,0,1,0,8.033l2.006,1.159A1.739,1.739,0,0,1,70.1,34.14l-4.745,8.218A1.739,1.739,0,0,1,62.974,43l-2.011-1.161a20.489,20.489,0,0,1-6.554,3.881V48.17a1.742,1.742,0,0,1-1.74,1.74H42.383a1.742,1.742,0,0,1-1.74-1.74V45.715a20.488,20.488,0,0,1-6.554-3.881L32.077,43a1.742,1.742,0,0,1-2.378-.637L24.955,34.14a1.739,1.739,0,0,1,.637-2.377L27.6,30.6a20.5,20.5,0,0,1,0-8.033l-2.006-1.159a1.777,1.777,0,0,1-.286-.207H18.923a.658.658,0,0,0-.657.657v31.97a.658.658,0,0,0,.657.657H76.129a.658.658,0,0,0,.657-.657Z" transform="translate(-12.91 -3.265)"/>
      </g>
    </g>
  </g>
</svg>
