<svg xmlns="http://www.w3.org/2000/svg" width="105" height="105" viewBox="0 0 105 105">
  <g id="Grupo_949561" data-name="Grupo 949561" transform="translate(6684 10079)">
    <circle id="Elipse_4818" data-name="Elipse 4818" cx="52.5" cy="52.5" r="52.5" transform="translate(-6684 -10079)" fill="#583ae2"/>
    <g id="mochila" transform="translate(-6680.474 -10056)">
      <path id="Trazado_114608" data-name="Trazado 114608" d="M380.871,413.251c5.1,0,7.542-2.651,8.688-4.875a11.441,11.441,0,0,0,1.218-4.767l-2.607,0v0a8.884,8.884,0,0,1-.967,3.649c-1.192,2.248-3.323,3.388-6.332,3.388v2.607Z" transform="translate(-316.764 -356.309)" fill="#3535aa"/>
      <path id="Trazado_114609" data-name="Trazado 114609" d="M352.283,116.289l4.393-4.815c.475.433,10.89,10.21,10.86,32.248a2.477,2.477,0,0,1-.627,1.642l-1.937,2.176a1.043,1.043,0,0,1-1.626-.085l-1.817-2.532a2.739,2.739,0,0,1-.513-1.581,47.8,47.8,0,0,0-3.877-19.525A25.694,25.694,0,0,0,352.283,116.289Z" transform="translate(-291.527 -98.411)" fill="#1c954d"/>
      <path id="Trazado_114610" data-name="Trazado 114610" d="M356.547,111.474c.367.335,6.665,6.248,9.5,19.08a24.992,24.992,0,0,1-5.155,12.853c0-.021,0-.042,0-.064a47.8,47.8,0,0,0-3.877-19.525,25.57,25.57,0,0,0-4.873-7.544Z" transform="translate(-291.398 -98.411)" fill="#0d7c3a"/>
      <path id="Trazado_114611" data-name="Trazado 114611" d="M56.5,413.251c-5.1,0-7.542-2.651-8.688-4.875a11.441,11.441,0,0,1-1.218-4.767l2.607,0v0a8.884,8.884,0,0,0,.967,3.649c1.192,2.248,3.323,3.388,6.332,3.388v2.607Z" transform="translate(-21.658 -356.309)" fill="#3535aa"/>
      <path id="Trazado_114612" data-name="Trazado 114612" d="M44.81,116.289l-4.393-4.815c-.475.433-10.89,10.21-10.86,32.248a2.477,2.477,0,0,0,.627,1.642l1.937,2.176a1.043,1.043,0,0,0,1.626-.085l1.817-2.532a2.739,2.739,0,0,0,.513-1.581,47.8,47.8,0,0,1,3.877-19.525A25.693,25.693,0,0,1,44.81,116.289Z" transform="translate(-6.62 -98.411)" fill="#1c954d"/>
      <path id="Trazado_114613" data-name="Trazado 114613" d="M50.683,111.474c-.367.335-6.665,6.248-9.5,19.08a24.992,24.992,0,0,0,5.155,12.853c0-.021,0-.042,0-.064a47.8,47.8,0,0,1,3.877-19.525,25.689,25.689,0,0,1,4.856-7.529Z" transform="translate(-16.885 -98.411)" fill="#0d7c3a"/>
      <path id="Trazado_114614" data-name="Trazado 114614" d="M199.013,22.092V14.636a3.226,3.226,0,1,1,6.452,0v7.456h3.911V14.636A7.157,7.157,0,0,0,202.238,7.5h0a7.157,7.157,0,0,0-7.136,7.136v7.456Z" transform="translate(-152.765 -6.621)" fill="#1c954d"/>
      <g id="Grupo_83905" data-name="Grupo 83905" transform="translate(42.337 4.789)">
        <path id="Trazado_114615" data-name="Trazado 114615" d="M259.227,44.1v7.456h3.911V46.305s-.8-5.435-7.136-5.435A3.23,3.23,0,0,1,259.227,44.1Z" transform="translate(-248.864 -40.87)" fill="#0d7c3a"/>
        <path id="Trazado_114616" data-name="Trazado 114616" d="M199.013,51.551V44.1a3.229,3.229,0,0,1,3.226-3.226c-6.341,0-7.136,5.435-7.136,5.435v5.246Z" transform="translate(-195.102 -40.87)" fill="#0d7c3a"/>
      </g>
      <path id="Trazado_114617" data-name="Trazado 114617" d="M133.918,175.669h-26.85a4.562,4.562,0,0,1-4.562-4.562V132.019H138.48v39.087A4.562,4.562,0,0,1,133.918,175.669Z" transform="translate(-71.019 -116.548)" fill="#1c954d"/>
      <g id="Grupo_83906" data-name="Grupo 83906" transform="translate(31.486 15.471)">
        <path id="Trazado_114618" data-name="Trazado 114618" d="M112.085,171.106V132.019H102.5v39.087a4.562,4.562,0,0,0,4.562,4.562h9.58A4.562,4.562,0,0,1,112.085,171.106Z" transform="translate(-102.505 -132.019)" fill="#0d7c3a"/>
        <path id="Trazado_114619" data-name="Trazado 114619" d="M102.5,159.629a8.16,8.16,0,0,0,4.693,1.48h26.59a8.16,8.16,0,0,0,4.693-1.48v-27.61H102.5v27.61Z" transform="translate(-102.505 -132.019)" fill="#0d7c3a"/>
      </g>
      <path id="Trazado_114620" data-name="Trazado 114620" d="M102.5,132.019v27.61a8.16,8.16,0,0,0,4.693,1.48h4.888V132.019Z" transform="translate(-71.019 -116.548)" fill="#05602a"/>
      <path id="Trazado_114621" data-name="Trazado 114621" d="M105.218,427.556a6.206,6.206,0,0,0-2.713.62v3.835a4.562,4.562,0,0,0,4.562,4.562h3.725a6.231,6.231,0,0,0-5.575-9.017Z" transform="translate(-71.019 -377.452)" fill="#9a4c00"/>
      <path id="Trazado_114622" data-name="Trazado 114622" d="M339.4,427.556a6.206,6.206,0,0,1,2.713.62v3.835a4.562,4.562,0,0,1-4.562,4.562h-3.725a6.231,6.231,0,0,1,5.575-9.017Z" transform="translate(-274.653 -377.452)" fill="#aa6100"/>
      <path id="Trazado_114623" data-name="Trazado 114623" d="M133.787,118.072H107.2a4.706,4.706,0,0,1-4.693-4.693V91.945a4.706,4.706,0,0,1,4.693-4.693h26.59a4.706,4.706,0,0,1,4.693,4.693v21.435A4.706,4.706,0,0,1,133.787,118.072Z" transform="translate(-71.019 -77.027)" fill="#25c766"/>
      <path id="Trazado_114624" data-name="Trazado 114624" d="M111.548,113.379V91.945a4.706,4.706,0,0,1,4.693-4.693H107.2a4.706,4.706,0,0,0-4.693,4.693v21.435a4.706,4.706,0,0,0,4.693,4.693h9.043A4.706,4.706,0,0,1,111.548,113.379Z" transform="translate(-71.019 -77.027)" fill="#1c954d"/>
      <path id="Trazado_114625" data-name="Trazado 114625" d="M165.11,240.417h0a2.549,2.549,0,0,1-2.542-2.542V221.292a2.549,2.549,0,0,1,2.542-2.542h0a2.549,2.549,0,0,1,2.542,2.542v16.583A2.549,2.549,0,0,1,165.11,240.417Z" transform="translate(-124.044 -193.115)" fill="#ee8700"/>
      <path id="Trazado_114626" data-name="Trazado 114626" d="M165.11,237.877V221.294a2.547,2.547,0,0,1,1.271-2.2,2.519,2.519,0,0,0-1.271-.344h0a2.549,2.549,0,0,0-2.542,2.542v16.583a2.549,2.549,0,0,0,2.542,2.542h0a2.52,2.52,0,0,0,1.271-.344A2.547,2.547,0,0,1,165.11,237.877Z" transform="translate(-124.044 -193.117)" fill="#cc7400"/>
      <path id="Trazado_114627" data-name="Trazado 114627" d="M307.592,240.417h0a2.549,2.549,0,0,1-2.542-2.542V221.292a2.549,2.549,0,0,1,2.542-2.542h0a2.549,2.549,0,0,1,2.542,2.542v16.583A2.549,2.549,0,0,1,307.592,240.417Z" transform="translate(-249.829 -193.115)" fill="#ee8700"/>
      <path id="Trazado_114628" data-name="Trazado 114628" d="M307.593,237.877V221.294a2.547,2.547,0,0,1,1.271-2.2,2.519,2.519,0,0,0-1.271-.344h0a2.549,2.549,0,0,0-2.542,2.542v16.583a2.549,2.549,0,0,0,2.542,2.542h0a2.52,2.52,0,0,0,1.271-.344A2.547,2.547,0,0,1,307.593,237.877Z" transform="translate(-249.83 -193.117)" fill="#cc7400"/>
      <circle id="Elipse_4811" data-name="Elipse 4811" cx="3.565" cy="3.565" r="3.565" transform="translate(45.908 16.708)" fill="#fff"/>
      <path id="Trazado_114629" data-name="Trazado 114629" d="M229.14,146.143a3.563,3.563,0,0,1,1.783-3.087,3.565,3.565,0,1,0,0,6.174A3.563,3.563,0,0,1,229.14,146.143Z" transform="translate(-179.666 -125.869)" fill="#d1e7f8"/>
      <path id="Trazado_114630" data-name="Trazado 114630" d="M219.462,141.559a.879.879,0,0,0,.529-1.125,2.683,2.683,0,1,1,1.856,1.691.879.879,0,0,0-.439,1.7,4.442,4.442,0,1,0-3.071-2.8A.879.879,0,0,0,219.462,141.559Z" transform="translate(-173.045 -119.249)"/>
      <path id="Trazado_114631" data-name="Trazado 114631" d="M76.888,45.313c0-.5,0-1-.014-1.5A.879.879,0,0,0,76,42.95h-.018a.879.879,0,0,0-.861.9c.01.486.014.979.014,1.463a1.6,1.6,0,0,1-.4,1.059S72.694,48.6,72.658,48.6,70.716,46,70.716,46a1.85,1.85,0,0,1-.348-1.073A56.665,56.665,0,0,0,68.34,30.3V18.564c2.565,4.122,5.771,11.179,6.59,21.5a.936.936,0,0,0,.946.807.864.864,0,0,0,.807-.946c-1.015-12.784-5.6-20.777-8.343-24.5,0,0,.762-6.082-5.572-6.082h-5.28V8.015a8.015,8.015,0,1,0-16.03,0V9.346h-5.28c-6.041,0-5.572,6.082-5.572,6.082-3.276,4.445-8.569,14.08-8.548,29.885a3.352,3.352,0,0,0,.85,2.226l1.322,1.485a12.224,12.224,0,0,0,1.141,3.446A9.49,9.49,0,0,0,31.4,57.38,5.443,5.443,0,0,0,36.048,60H62.9a5.443,5.443,0,0,0,4.651-2.62,9.489,9.489,0,0,0,6.026-4.91,12.255,12.255,0,0,0,1.141-3.446l1.322-1.485A3.352,3.352,0,0,0,76.888,45.313Zm-7.6,1.712,1.08,1.505a7.656,7.656,0,0,1-.705,2,5.252,5.252,0,0,1-1.323,1.643V39.641q.253,2.583.27,5.3A3.6,3.6,0,0,0,69.288,47.025ZM43.216,8.015a6.257,6.257,0,0,1,12.515,0V9.346H53.578V8.015a4.1,4.1,0,1,0-8.209,0V9.346H43.216Zm8.6,1.331H47.126V8.015a2.347,2.347,0,1,1,4.694,0V9.346ZM32.365,14.917A3.818,3.818,0,0,1,36.178,11.1h26.59a3.818,3.818,0,0,1,3.814,3.814V36.352a3.818,3.818,0,0,1-3.814,3.814H61.184V28.176a3.421,3.421,0,1,0-6.841,0V40.166H44.487V28.176a3.421,3.421,0,1,0-6.841,0V40.166H36.178a3.818,3.818,0,0,1-3.814-3.814V14.917h0ZM59.426,37.482H56.1V28.176a1.663,1.663,0,1,1,3.326,0v9.305Zm0,1.758v3.326H56.1V39.239ZM56.1,44.323h3.326v.437a1.663,1.663,0,1,1-3.326,0v-.437ZM42.729,37.482H39.4V28.176a1.663,1.663,0,1,1,3.326,0v9.305Zm0,1.758v3.326H39.4V39.239ZM39.4,44.323h3.326v.437a1.663,1.663,0,1,1-3.326,0v-.437Zm-8.8,7.855a5.252,5.252,0,0,1-1.323-1.643,7.657,7.657,0,0,1-.705-2l1.08-1.505a3.6,3.6,0,0,0,.677-2.088q.015-2.713.27-5.3Zm0-33.618v11.72a53.087,53.087,0,0,0-2.028,14.648A1.849,1.849,0,0,1,28.231,46s-1.906,2.6-1.942,2.6-2.068-2.231-2.068-2.231a1.6,1.6,0,0,1-.4-1.059C23.8,32.147,27.555,23.449,30.607,18.559ZM26.933,51.664a9.622,9.622,0,0,1-.553-1.308h0a1.92,1.92,0,0,0,.818-.23,8.722,8.722,0,0,0,.533,1.232,6.843,6.843,0,0,0,2.876,2.916,4.142,4.142,0,0,0,.045.974A7.631,7.631,0,0,1,26.933,51.664Zm5.432,2.894V51.306a5.312,5.312,0,0,1,1.834-.323,5.445,5.445,0,0,1,5.335,4.907.9.9,0,0,0,.948.8.879.879,0,0,0,.8-.948,7.11,7.11,0,0,0-8.92-6.28V40.408a5.55,5.55,0,0,0,3.814,1.515h1.467v2.836a3.421,3.421,0,0,0,6.841,0V41.923h9.856v2.836a3.421,3.421,0,0,0,6.841,0V41.923h1.584a5.55,5.55,0,0,0,3.814-1.515v9.057A7.109,7.109,0,0,0,57.9,58.242H36.048A3.688,3.688,0,0,1,32.365,54.558ZM62.9,58.242H59.748a5.294,5.294,0,0,1-.352-1.906,5.354,5.354,0,0,1,7.187-5.03v3.252A3.688,3.688,0,0,1,62.9,58.242Zm5.4-2.994c.029-.226.045-.974.045-.974a6.843,6.843,0,0,0,2.876-2.916,8.73,8.73,0,0,0,.533-1.233,1.92,1.92,0,0,0,.818.23h0a9.635,9.635,0,0,1-.553,1.308A7.631,7.631,0,0,1,68.295,55.248Z"/>
    </g>
  </g>
</svg>
