<svg xmlns="http://www.w3.org/2000/svg" width="105" height="105" viewBox="0 0 105 105">
  <g id="Grupo_949562" data-name="Grupo 949562" transform="translate(6684 9958)">
    <circle id="Elipse_4819" data-name="Elipse 4819" cx="52.5" cy="52.5" r="52.5" transform="translate(-6684 -9958)" fill="#583ae2"/>
    <g id="bulding" transform="translate(-6662.688 -9935.345)">
      <path id="Trazado_114479" data-name="Trazado 114479" d="M4,2H31.759V55.6H4Z" transform="translate(-0.128 -0.044)" fill="#b3bec4"/>
      <path id="Trazado_114480" data-name="Trazado 114480" d="M19.315,30.864a2.872,2.872,0,0,0,2.872-2.872V2.148H4V30.864Z" transform="translate(-0.128 -0.05)" fill="#c2cbd0"/>
      <path id="Trazado_114481" data-name="Trazado 114481" d="M21,20h7.658v9.572H21Z" transform="translate(-0.856 -0.815)" fill="#f5f5f5"/>
      <path id="Trazado_114482" data-name="Trazado 114482" d="M21,34h7.658v9.572H21Z" transform="translate(-0.856 -1.414)" fill="#f5f5f5"/>
      <path id="Trazado_114483" data-name="Trazado 114483" d="M14,48H24.529v9.572H14Z" transform="translate(-0.557 -2.013)" fill="#e0e0e0"/>
      <path id="Trazado_114484" data-name="Trazado 114484" d="M25,28H47.973V56.716H25Z" transform="translate(-1.027 -1.157)" fill="#b3bec4"/>
      <path id="Trazado_114485" data-name="Trazado 114485" d="M25,28V48.1H39.358a1.914,1.914,0,0,0,1.914-1.914V28Z" transform="translate(-1.027 -1.157)" fill="#c2cbd0"/>
      <path id="Trazado_114486" data-name="Trazado 114486" d="M2,58H59.432v3.829H2Z" transform="translate(-0.043 -2.441)" fill="#94a4ad"/>
      <g id="Grupo_83854" data-name="Grupo 83854" transform="translate(8.658 5.785)">
        <path id="Trazado_114487" data-name="Trazado 114487" d="M9,6h7.658v9.572H9Z" transform="translate(-9 -6)" fill="#f5f5f5"/>
        <path id="Trazado_114488" data-name="Trazado 114488" d="M21,6h7.658v9.572H21Z" transform="translate(-9.514 -6)" fill="#f5f5f5"/>
        <path id="Trazado_114489" data-name="Trazado 114489" d="M9,20h7.658v9.572H9Z" transform="translate(-9 -6.599)" fill="#f5f5f5"/>
        <path id="Trazado_114490" data-name="Trazado 114490" d="M9,34h7.658v9.572H9Z" transform="translate(-9 -7.199)" fill="#f5f5f5"/>
        <path id="Trazado_114491" data-name="Trazado 114491" d="M29,32h5.743v5.743H29Z" transform="translate(-9.856 -7.113)" fill="#f5f5f5"/>
        <path id="Trazado_114492" data-name="Trazado 114492" d="M39,32h5.743v5.743H39Z" transform="translate(-10.284 -7.113)" fill="#f5f5f5"/>
        <path id="Trazado_114493" data-name="Trazado 114493" d="M29,42h5.743v5.743H29Z" transform="translate(-9.856 -7.541)" fill="#f5f5f5"/>
        <path id="Trazado_114494" data-name="Trazado 114494" d="M39,42h5.743v5.743H39Z" transform="translate(-10.284 -7.541)" fill="#f5f5f5"/>
      </g>
      <path id="Trazado_114495" data-name="Trazado 114495" d="M34,57.743V54.872a2.872,2.872,0,0,1,5.743,0v2.872Z" transform="translate(-1.413 -2.184)" fill="#e0e0e0"/>
      <ellipse id="Elipse_4809" data-name="Elipse 4809" cx="3.5" cy="4.5" rx="3.5" ry="4.5" transform="translate(51 42.345)" fill="#67ac5c"/>
      <path id="Trazado_114496" data-name="Trazado 114496" d="M50.529,23.059a10.469,10.469,0,0,1-6.049-1.92L40,23.059l1.92-4.48a10.523,10.523,0,1,1,8.609,4.48Z" transform="translate(-1.67 -0.045)" fill="#e0e0e0"/>
      <path id="Trazado_114497" data-name="Trazado 114497" d="M50.529,2a10.516,10.516,0,0,0-9.37,15.315H53.4a2.872,2.872,0,0,0,2.872-2.872V3.711A10.476,10.476,0,0,0,50.529,2Z" transform="translate(-1.67 -0.044)" fill="#f5f5f5"/>
      <path id="Trazado_114498" data-name="Trazado 114498" d="M54.938,12.66A4.411,4.411,0,0,0,51.33,6.025C51.151,6.009,50.97,6,50.787,6s-.364.009-.543.025a4.411,4.411,0,0,0-3.608,6.635l4.15,6.741Z" transform="translate(-1.928 -0.215)" fill="#d4483f"/>
      <circle id="Elipse_4810" data-name="Elipse 4810" cx="2" cy="2" r="2" transform="translate(47 8.345)" fill="#f5f5f5"/>
      <path id="Trazado_114499" data-name="Trazado 114499" d="M56.829,44C54.714,44,53,46.143,53,48.786a5.812,5.812,0,0,0,.281,1.785,1.89,1.89,0,0,0,.676.129h2.872a1.914,1.914,0,0,0,1.914-1.914V44.664A3.239,3.239,0,0,0,56.829,44Z" transform="translate(-2.226 -1.842)" fill="#85bd7d"/>
      <path id="Trazado_114500" data-name="Trazado 114500" d="M59.389,54.6H55.56v-2.03c2.181-.534,3.829-2.853,3.829-5.627,0-3.167-2.147-5.743-4.786-5.743s-4.786,2.576-4.786,5.743c0,2.776,1.647,5.093,3.829,5.627V54.6H47.9V26.844a.957.957,0,0,0-.957-.957H32.587V1.957A.957.957,0,0,0,31.63,1H3.872a.957.957,0,0,0-.957.957V54.6H1.957A.957.957,0,0,0,1,55.56v3.829a.957.957,0,0,0,.957.957H59.389a.957.957,0,0,0,.957-.957V55.56A.957.957,0,0,0,59.389,54.6Zm-7.658-7.658c0-2.112,1.288-3.829,2.872-3.829s2.872,1.717,2.872,3.829-1.288,3.829-2.872,3.829S51.731,49.057,51.731,46.945ZM45.988,54.6h-6.7V52.688a3.829,3.829,0,0,0-7.658,0V54.6h-6.7V27.8H45.988Zm-8.615,0H33.545V52.688a1.914,1.914,0,1,1,3.829,0ZM26.844,25.887H23.973a.957.957,0,0,0-.957.957V27.8H21.1V20.144h5.743ZM23.015,41.2H21.1V33.545h1.914Zm0,13.4H14.4V46.945h8.615ZM4.829,2.914H30.673V25.887H28.759v-6.7a.957.957,0,0,0-.957-.957H20.144a.957.957,0,0,0-.957.957v9.572a.957.957,0,0,0,.957.957h2.872V31.63H20.144a.957.957,0,0,0-.957.957v9.572a.957.957,0,0,0,.957.957h2.872v1.914H13.443a.957.957,0,0,0-.957.957V54.6H4.829Zm53.6,55.517H2.914V56.517H58.432Z" transform="translate(0 -0.001)"/>
      <path id="Trazado_114501" data-name="Trazado 114501" d="M8.957,16.486h7.658a.957.957,0,0,0,.957-.957V5.957A.957.957,0,0,0,16.615,5H8.957A.957.957,0,0,0,8,5.957v9.572A.957.957,0,0,0,8.957,16.486Zm.957-9.572h5.743v7.658H9.914Z" transform="translate(-0.3 -0.172)"/>
      <path id="Trazado_114502" data-name="Trazado 114502" d="M20.957,16.486h7.658a.957.957,0,0,0,.957-.957V5.957A.957.957,0,0,0,28.615,5H20.957A.957.957,0,0,0,20,5.957v9.572A.957.957,0,0,0,20.957,16.486Zm.957-9.572h5.743v7.658H21.914Z" transform="translate(-0.813 -0.172)"/>
      <path id="Trazado_114503" data-name="Trazado 114503" d="M8.957,30.486h7.658a.957.957,0,0,0,.957-.957V19.957A.957.957,0,0,0,16.615,19H8.957A.957.957,0,0,0,8,19.957v9.572A.957.957,0,0,0,8.957,30.486Zm.957-9.572h5.743v7.658H9.914Z" transform="translate(-0.3 -0.772)"/>
      <path id="Trazado_114504" data-name="Trazado 114504" d="M16.615,44.486a.957.957,0,0,0,.957-.957V33.957A.957.957,0,0,0,16.615,33H8.957A.957.957,0,0,0,8,33.957v9.572a.957.957,0,0,0,.957.957Zm-6.7-9.572h5.743v7.658H9.914Z" transform="translate(-0.3 -1.371)"/>
      <path id="Trazado_114505" data-name="Trazado 114505" d="M28.957,38.658H34.7a.957.957,0,0,0,.957-.957V31.957A.957.957,0,0,0,34.7,31H28.957a.957.957,0,0,0-.957.957V37.7A.957.957,0,0,0,28.957,38.658Zm.957-5.743h3.829v3.829H29.914Z" transform="translate(-1.156 -1.285)"/>
      <path id="Trazado_114506" data-name="Trazado 114506" d="M38.957,38.658H44.7a.957.957,0,0,0,.957-.957V31.957A.957.957,0,0,0,44.7,31H38.957a.957.957,0,0,0-.957.957V37.7A.957.957,0,0,0,38.957,38.658Zm.957-5.743h3.829v3.829H39.914Z" transform="translate(-1.584 -1.285)"/>
      <path id="Trazado_114507" data-name="Trazado 114507" d="M28.957,48.658H34.7a.957.957,0,0,0,.957-.957V41.957A.957.957,0,0,0,34.7,41H28.957a.957.957,0,0,0-.957.957V47.7A.957.957,0,0,0,28.957,48.658Zm.957-5.743h3.829v3.829H29.914Z" transform="translate(-1.156 -1.714)"/>
      <path id="Trazado_114508" data-name="Trazado 114508" d="M38.957,48.658H44.7a.957.957,0,0,0,.957-.957V41.957A.957.957,0,0,0,44.7,41H38.957a.957.957,0,0,0-.957.957V47.7A.957.957,0,0,0,38.957,48.658Zm.957-5.743h3.829v3.829H39.914Z" transform="translate(-1.584 -1.714)"/>
      <path id="Trazado_114509" data-name="Trazado 114509" d="M39.078,22.637a.957.957,0,0,0,.88,1.334.947.947,0,0,0,.377-.078l4-1.715a11.5,11.5,0,1,0-3.542-3.542ZM50.486,2.913a9.572,9.572,0,1,1-5.5,17.4.957.957,0,0,0-.928-.1l-2.284.979.977-2.28a.957.957,0,0,0-.1-.928A9.561,9.561,0,0,1,50.486,2.913Z" transform="translate(-1.627 0)"/>
      <path id="Trazado_114510" data-name="Trazado 114510" d="M49.928,19.859a.957.957,0,0,0,1.627,0l4.15-6.741a5.169,5.169,0,0,0,.223-5.056A5.6,5.6,0,0,0,51.37,5.027a7.066,7.066,0,0,0-1.257,0,5.6,5.6,0,0,0-4.555,3.036,5.169,5.169,0,0,0,.219,5.055ZM47.27,8.924a3.7,3.7,0,0,1,3.016-1.986,4.257,4.257,0,0,1,.458-.024c.154,0,.307.008.455.02a3.7,3.7,0,0,1,3.019,1.99,3.227,3.227,0,0,1-.138,3.2l-3.336,5.413-3.336-5.417a3.227,3.227,0,0,1-.138-3.191Z" transform="translate(-1.884 -0.172)"/>
      <path id="Trazado_114511" data-name="Trazado 114511" d="M50.872,13.743A2.872,2.872,0,1,0,48,10.872a2.872,2.872,0,0,0,2.872,2.872Zm0-3.829a.957.957,0,1,1-.957.957A.957.957,0,0,1,50.872,9.914Z" transform="translate(-2.012 -0.301)"/>
    </g>
  </g>
</svg>
