<svg xmlns="http://www.w3.org/2000/svg" width="105" height="105" viewBox="0 0 105 105">
  <g id="Grupo_949565" data-name="Grupo 949565" transform="translate(6684 9834)">
    <circle id="Elipse_4820" data-name="Elipse 4820" cx="52.5" cy="52.5" r="52.5" transform="translate(-6684 -9834)" fill="#583ae2"/>
    <g id="microchip" transform="translate(-6661.001 -9811)">
      <path id="Trazado_114589" data-name="Trazado 114589" d="M130.6,136.909h6.314V100.453H100.453v36.456h26.732" transform="translate(-88.68 -88.681)" fill="#2ff980"/>
      <path id="Trazado_114590" data-name="Trazado 114590" d="M104.464,108.025H66.287a3.565,3.565,0,0,1-3.561-3.561V66.288a3.565,3.565,0,0,1,3.561-3.561h38.177a3.565,3.565,0,0,1,3.561,3.561v38.177A3.565,3.565,0,0,1,104.464,108.025ZM97.29,103.6H103.6V67.148H67.147V103.6H93.879" transform="translate(-55.374 -55.376)" fill="#ffb92e"/>
      <path id="Trazado_114591" data-name="Trazado 114591" d="M73.39,104.832V66.655a3.565,3.565,0,0,1,3.561-3.561H74.392a3.565,3.565,0,0,0-3.561,3.561v38.177a3.565,3.565,0,0,0,3.561,3.561h2.559A3.565,3.565,0,0,1,73.39,104.832Z" transform="translate(-62.53 -55.7)" fill="#ef9a1d"/>
      <path id="Trazado_114592" data-name="Trazado 114592" d="M111.118,135.76V102.336a1.516,1.516,0,0,1,1.516-1.516h-2.559a1.516,1.516,0,0,0-1.516,1.516V135.76a1.516,1.516,0,0,0,1.516,1.516h2.559A1.516,1.516,0,0,1,111.118,135.76Z" transform="translate(-95.836 -89.005)" fill="#25c766"/>
      <g id="Grupo_83903" data-name="Grupo 83903" transform="translate(21.768 7.351)" opacity="0.15">
        <path id="Trazado_114593" data-name="Trazado 114593" d="M216.629,103.779V66.288a3.565,3.565,0,0,0-3.561-3.561h-1.049v.043h-5.371v-.043h-1.895v.043h-5.371v-.043h-1.895v.043h-5.371v-.043h-1.895v.043h-1.486a28.425,28.425,0,0,0,25.427,41.116Q215.41,103.886,216.629,103.779Z" transform="translate(-185.747 -62.727)" fill="#1c954d"/>
      </g>
      <path id="Trazado_114594" data-name="Trazado 114594" d="M285.15,294.757a1.516,1.516,0,0,0,1.516,1.516h5.065a1.516,1.516,0,0,0,1.516-1.516v-5.065a1.516,1.516,0,0,0-1.516-1.516h-5.065a1.516,1.516,0,0,0-1.516,1.516Z" transform="translate(-251.733 -254.405)" fill="#b6fdd3"/>
      <path id="Trazado_114595" data-name="Trazado 114595" d="M295.909,294.757v-5.065a1.516,1.516,0,0,1,1.516-1.516h-2.559a1.516,1.516,0,0,0-1.516,1.516v5.065a1.516,1.516,0,0,0,1.516,1.516h2.559A1.516,1.516,0,0,1,295.909,294.757Z" transform="translate(-258.972 -254.405)" fill="#25c766"/>
      <g id="Grupo_83904" data-name="Grupo 83904" transform="translate(0.001)">
        <path id="Trazado_114596" data-name="Trazado 114596" d="M129.773,92.369H93.316a.947.947,0,0,0-.947.947v36.456a.947.947,0,0,0,.947.947h26.732a.947.947,0,1,0,0-1.895H94.264V94.264h34.561v34.562h-5.366a.947.947,0,0,0,0,1.895h6.314a.947.947,0,0,0,.947-.947V93.316A.947.947,0,0,0,129.773,92.369Z" transform="translate(-81.545 -81.544)" fill="#231f20"/>
        <path id="Trazado_114597" data-name="Trazado 114597" d="M59.053,20.049a.947.947,0,1,0,0-1.895H53.6V12.784h5.456a.947.947,0,0,0,0-1.895H53.6A4.512,4.512,0,0,0,49.112,6.4V.947a.947.947,0,0,0-1.895,0V6.4H41.847V.947a.947.947,0,1,0-1.895,0V6.4H34.581V.947a.947.947,0,1,0-1.895,0V6.4H27.316V.947a.947.947,0,0,0-1.895,0V6.4H20.05V.947a.947.947,0,1,0-1.895,0V6.4H12.785V.947a.947.947,0,0,0-1.895,0V6.4A4.512,4.512,0,0,0,6.4,10.889H.948a.947.947,0,0,0,0,1.895H6.4v5.371H.948a.947.947,0,1,0,0,1.895H6.4V25.42H.948a.947.947,0,0,0,0,1.895H6.4v5.371H.948a.947.947,0,1,0,0,1.895H6.4v5.371H.948a.947.947,0,1,0,0,1.895H6.4v5.371H.948a.947.947,0,1,0,0,1.895H6.4A4.512,4.512,0,0,0,10.89,53.6v5.456a.947.947,0,1,0,1.895,0V53.6h5.371v5.456a.947.947,0,0,0,1.895,0V53.6h5.371v5.456a.947.947,0,0,0,1.895,0V53.6h5.371v5.456a.947.947,0,0,0,1.895,0V53.6h5.371v5.456a.947.947,0,1,0,1.895,0V53.6h5.371v5.456a.947.947,0,0,0,1.895,0V53.6A4.512,4.512,0,0,0,53.6,49.111h5.457a.947.947,0,1,0,0-1.895H53.6V41.845h5.456a.947.947,0,1,0,0-1.895H53.6V34.58h5.456a.947.947,0,0,0,0-1.895H53.6V27.315h5.456a.947.947,0,0,0,0-1.895H53.6V20.049h5.456ZM51.7,49.089A2.616,2.616,0,0,1,49.09,51.7H10.912A2.616,2.616,0,0,1,8.3,49.089V10.911A2.616,2.616,0,0,1,10.912,8.3H49.089A2.616,2.616,0,0,1,51.7,10.911V49.089h0Z" transform="translate(-0.001 0)" fill="#231f20"/>
        <path id="Trazado_114598" data-name="Trazado 114598" d="M343,148.544a.947.947,0,0,0,0-1.895h-.545a.947.947,0,1,0,0,1.895Z" transform="translate(-301.483 -129.464)" fill="#231f20"/>
        <path id="Trazado_114599" data-name="Trazado 114599" d="M169.88,146.649H150.621a.947.947,0,0,0,0,1.895H169.88a.947.947,0,1,0,0-1.895Z" transform="translate(-132.134 -129.464)" fill="#231f20"/>
        <path id="Trazado_114600" data-name="Trazado 114600" d="M343,232.161h-.545a.947.947,0,0,0,0,1.895H343a.947.947,0,0,0,0-1.895Z" transform="translate(-301.483 -204.955)" fill="#231f20"/>
        <path id="Trazado_114601" data-name="Trazado 114601" d="M170.827,233.108a.947.947,0,0,0-.947-.947H150.621a.947.947,0,0,0,0,1.895H169.88A.947.947,0,0,0,170.827,233.108Z" transform="translate(-132.134 -204.955)" fill="#231f20"/>
        <path id="Trazado_114602" data-name="Trazado 114602" d="M150.621,191.3h.545a.947.947,0,1,0,0-1.895h-.545a.947.947,0,0,0,0,1.895Z" transform="translate(-132.134 -167.21)" fill="#231f20"/>
        <path id="Trazado_114603" data-name="Trazado 114603" d="M181.815,190.353a.947.947,0,0,0,.947.947h19.259a.947.947,0,0,0,0-1.895H182.762A.947.947,0,0,0,181.815,190.353Z" transform="translate(-160.509 -167.21)" fill="#231f20"/>
        <path id="Trazado_114604" data-name="Trazado 114604" d="M150.621,314.637a.947.947,0,0,0,0,1.895h.615a.947.947,0,1,0,0-1.895Z" transform="translate(-132.134 -277.765)" fill="#231f20"/>
        <path id="Trazado_114605" data-name="Trazado 114605" d="M189.478,314.637a.947.947,0,1,0,0,1.895h.615a.947.947,0,0,0,0-1.895Z" transform="translate(-166.438 -277.765)" fill="#231f20"/>
        <path id="Trazado_114606" data-name="Trazado 114606" d="M228.336,314.637a.947.947,0,0,0,0,1.895h.615a.947.947,0,0,0,0-1.895Z" transform="translate(-200.742 -277.765)" fill="#231f20"/>
        <path id="Trazado_114607" data-name="Trazado 114607" d="M279.529,290.083h5.065a2.466,2.466,0,0,0,2.463-2.463v-5.065a2.466,2.466,0,0,0-2.463-2.463h-5.065a2.466,2.466,0,0,0-2.463,2.463v5.065A2.466,2.466,0,0,0,279.529,290.083Zm-.568-7.528a.569.569,0,0,1,.568-.568h5.065a.569.569,0,0,1,.568.568v5.065a.569.569,0,0,1-.568.568h-5.065a.569.569,0,0,1-.568-.568Z" transform="translate(-244.597 -247.269)" fill="#231f20"/>
      </g>
    </g>
  </g>
</svg>
