<svg xmlns="http://www.w3.org/2000/svg" width="105" height="105" viewBox="0 0 105 105">
  <g id="Grupo_949564" data-name="Grupo 949564" transform="translate(6683 9712)">
    <circle id="Elipse_4821" data-name="Elipse 4821" cx="52.5" cy="52.5" r="52.5" transform="translate(-6683 -9712)" fill="#583ae2"/>
    <g id="servidor-en-la-nube" transform="translate(-6659.346 -9687.846)">
      <path id="Trazado_114632" data-name="Trazado 114632" d="M52.177,20.908c0-.02,0-.04,0-.061a13.35,13.35,0,0,0-25.87-4.632,5.346,5.346,0,0,0-8.016,4.632c0,.008,0,.017,0,.025A11.543,11.543,0,0,0,7.5,32.39h0A11.543,11.543,0,0,0,19.043,43.933H50.989A11.543,11.543,0,0,0,62.532,32.39h0A11.544,11.544,0,0,0,52.177,20.908Z" transform="translate(-6.67 -6.669)" fill="#d1e7f8"/>
      <path id="Trazado_114633" data-name="Trazado 114633" d="M7.5,396.821H62.531v9.762l-2.161,2.161H9.661L7.5,406.583Z" transform="translate(-6.67 -352.882)" fill="#787680"/>
      <g id="Grupo_83907" data-name="Grupo 83907" transform="translate(7.26 47.424)">
        <circle id="Elipse_4812" data-name="Elipse 4812" cx="2.477" cy="2.477" r="2.477" transform="translate(7.61)" fill="#57565c"/>
        <circle id="Elipse_4813" data-name="Elipse 4813" cx="2.477" cy="2.477" r="2.477" transform="translate(15.222)" fill="#57565c"/>
        <circle id="Elipse_4814" data-name="Elipse 4814" cx="2.477" cy="2.477" r="2.477" fill="#57565c"/>
      </g>
      <circle id="Elipse_4815" data-name="Elipse 4815" cx="2.477" cy="2.477" r="2.477" transform="translate(12.655 47.424)" fill="#ffe477"/>
      <circle id="Elipse_4816" data-name="Elipse 4816" cx="2.477" cy="2.477" r="2.477" transform="translate(20.267 47.424)" fill="#91dc5a"/>
      <circle id="Elipse_4817" data-name="Elipse 4817" cx="2.477" cy="2.477" r="2.477" transform="translate(5.045 47.424)" fill="#ff7956"/>
      <rect id="Rectángulo_34122" data-name="Rectángulo 34122" width="4.762" height="6.675" transform="translate(25.966 37.264)" fill="#57a4ff"/>
      <g id="Grupo_83908" data-name="Grupo 83908" transform="translate(0.83 0.83)">
        <path id="Trazado_114634" data-name="Trazado 114634" d="M180.279,15.5a5.32,5.32,0,0,1,2.669.715A13.363,13.363,0,0,1,193.809,7.6a13.367,13.367,0,0,0-13.9,7.912C180.031,15.5,180.155,15.5,180.279,15.5Z" transform="translate(-160.819 -7.499)" fill="#b3d8f4"/>
        <path id="Trazado_114635" data-name="Trazado 114635" d="M10.822,96.652h0A11.543,11.543,0,0,1,21.614,85.134c0-.008,0-.017,0-.025A5.349,5.349,0,0,1,25.3,80.026a5.348,5.348,0,0,0-7.006,5.083c0,.008,0,.017,0,.025A11.543,11.543,0,0,0,7.5,96.652h0a11.543,11.543,0,0,0,11.543,11.543h3.322A11.543,11.543,0,0,1,10.822,96.652Z" transform="translate(-7.5 -71.761)" fill="#b3d8f4"/>
      </g>
      <path id="Trazado_114636" data-name="Trazado 114636" d="M10.822,406.583v-9.762H7.5v9.762l2.161,2.161h3.322Z" transform="translate(-6.67 -352.882)" fill="#57565c"/>
      <path id="Trazado_114637" data-name="Trazado 114637" d="M116.511,430.771a2.476,2.476,0,0,1,1.369-2.216,2.477,2.477,0,1,0,0,4.431A2.476,2.476,0,0,1,116.511,430.771Z" transform="translate(-101.64 -380.87)" fill="#ffb655"/>
      <path id="Trazado_114638" data-name="Trazado 114638" d="M185.244,430.771a2.476,2.476,0,0,1,1.369-2.216,2.477,2.477,0,1,0,0,4.431A2.476,2.476,0,0,1,185.244,430.771Z" transform="translate(-162.763 -380.87)" fill="#64c37d"/>
      <path id="Trazado_114639" data-name="Trazado 114639" d="M47.778,430.771a2.476,2.476,0,0,1,1.369-2.216,2.477,2.477,0,1,0,0,4.431A2.476,2.476,0,0,1,47.778,430.771Z" transform="translate(-40.518 -380.87)" fill="#ff3f62"/>
      <rect id="Rectángulo_34123" data-name="Rectángulo 34123" width="2.215" height="6.675" transform="translate(25.966 37.264)" fill="#006df0"/>
      <rect id="Rectángulo_34124" data-name="Rectángulo 34124" width="1.661" height="1.661" transform="translate(26.113 33.666)"/>
      <rect id="Rectángulo_34125" data-name="Rectángulo 34125" width="1.661" height="1.661" transform="translate(28.881 33.666)"/>
      <rect id="Rectángulo_34126" data-name="Rectángulo 34126" width="1.661" height="1.661" transform="translate(23.345 33.666)"/>
      <rect id="Rectángulo_34127" data-name="Rectángulo 34127" width="1.661" height="1.661" transform="translate(31.649 33.666)"/>
      <rect id="Rectángulo_34128" data-name="Rectángulo 34128" width="6.111" height="1.661" transform="translate(46.247 52.263)"/>
      <path id="Trazado_114640" data-name="Trazado 114640" d="M12.373,38.095H44.319a12.374,12.374,0,0,0,2-24.585A14.181,14.181,0,0,0,19.2,8.419a6.177,6.177,0,0,0-8.365,5.025,12.373,12.373,0,0,0,1.538,24.651Zm-.719-23.061h4.77V13.373h-3.9a4.514,4.514,0,0,1,6.7-3.108l.852.492.342-.923a12.52,12.52,0,0,1,24.261,4.344l0,.81.748.077a10.713,10.713,0,0,1-1.1,21.368H12.373a10.712,10.712,0,0,1-.719-21.4Z"/>
      <g id="Grupo_83909" data-name="Grupo 83909" transform="translate(44.319 25.721)">
        <path id="Trazado_114641" data-name="Trazado 114641" d="M472.53,232.3h-1.661a7.985,7.985,0,0,1-.141,1.495l1.631.312A9.646,9.646,0,0,0,472.53,232.3Z" transform="translate(-462.925 -232.295)" fill="#fff"/>
        <path id="Trazado_114642" data-name="Trazado 114642" d="M465.229,255.066l-1.579-.516a7.927,7.927,0,0,1-.6,1.375l1.452.805A9.6,9.6,0,0,0,465.229,255.066Z" transform="translate(-456.097 -252.086)" fill="#fff"/>
        <path id="Trazado_114643" data-name="Trazado 114643" d="M408.008,275.574l-1.34-.981a7.981,7.981,0,0,1-6.413,3.261v1.661A9.647,9.647,0,0,0,408.008,275.574Z" transform="translate(-400.255 -269.909)" fill="#fff"/>
      </g>
      <path id="Trazado_114644" data-name="Trazado 114644" d="M0,400.258,2.647,402.9h51.4l2.647-2.647V389.321H0Zm1.661-9.276H55.031v8.588l-1.674,1.674H3.335L1.661,399.57Z" transform="translate(0 -346.213)"/>
      <g id="Grupo_83910" data-name="Grupo 83910" transform="translate(39.142 45.877)">
        <rect id="Rectángulo_34129" data-name="Rectángulo 34129" width="8.415" height="1.661" fill="#fff"/>
        <rect id="Rectángulo_34130" data-name="Rectángulo 34130" width="1.661" height="1.661" transform="translate(9.523)" fill="#fff"/>
        <rect id="Rectángulo_34131" data-name="Rectángulo 34131" width="1.661" height="1.661" transform="translate(12.291)" fill="#fff"/>
      </g>
      <path id="Trazado_114645" data-name="Trazado 114645" d="M110.1,427.408A3.307,3.307,0,1,0,106.8,424.1,3.311,3.311,0,0,0,110.1,427.408Zm0-4.953a1.646,1.646,0,1,1-1.646,1.646A1.648,1.648,0,0,1,110.1,422.455Z" transform="translate(-94.971 -374.201)"/>
      <path id="Trazado_114646" data-name="Trazado 114646" d="M178.836,427.408a3.307,3.307,0,1,0-3.307-3.307A3.311,3.311,0,0,0,178.836,427.408Zm0-4.953a1.646,1.646,0,1,1-1.646,1.646A1.648,1.648,0,0,1,178.836,422.455Z" transform="translate(-156.093 -374.201)"/>
      <path id="Trazado_114647" data-name="Trazado 114647" d="M41.37,427.408a3.307,3.307,0,1,0-3.307-3.307A3.311,3.311,0,0,0,41.37,427.408Zm0-4.953a1.646,1.646,0,1,1-1.646,1.646A1.648,1.648,0,0,1,41.37,422.455Z" transform="translate(-33.848 -374.201)"/>
      <rect id="Rectángulo_34132" data-name="Rectángulo 34132" width="1.661" height="1.661" transform="translate(28.693 49.07)"/>
      <rect id="Rectángulo_34133" data-name="Rectángulo 34133" width="1.661" height="1.661" transform="translate(34.229 49.07)"/>
      <rect id="Rectángulo_34134" data-name="Rectángulo 34134" width="1.661" height="1.661" transform="translate(31.461 49.07)"/>
      <rect id="Rectángulo_34135" data-name="Rectángulo 34135" width="1.661" height="3.353" transform="translate(25.135 38.925)"/>
      <rect id="Rectángulo_34136" data-name="Rectángulo 34136" width="1.661" height="3.353" transform="translate(29.896 38.925)"/>
      <g id="Grupo_83911" data-name="Grupo 83911" transform="translate(32.16 2.768)">
        <path id="Trazado_114648" data-name="Trazado 114648" d="M339.3,48.681l1.661,0a11.461,11.461,0,0,0-5.709-9.869l-.832,1.437A9.8,9.8,0,0,1,339.3,48.681Z" transform="translate(-329.548 -37.281)" fill="#fff"/>
        <path id="Trazado_114649" data-name="Trazado 114649" d="M292.226,25.139A11.5,11.5,0,0,0,290.443,25v1.661a9.819,9.819,0,0,1,1.524.119Z" transform="translate(-290.443 -25)" fill="#fff"/>
        <path id="Trazado_114650" data-name="Trazado 114650" d="M315.328,29.094a11.353,11.353,0,0,0-1.688-.6l-.43,1.6a9.694,9.694,0,0,1,1.44.511Z" transform="translate(-310.689 -28.108)" fill="#fff"/>
      </g>
      <path id="Trazado_114651" data-name="Trazado 114651" d="M34.605,241.9v-1.661a7.953,7.953,0,0,1-7.944-7.944H25A9.616,9.616,0,0,0,34.605,241.9Z" transform="translate(-22.232 -206.574)"/>
      <rect id="Rectángulo_34137" data-name="Rectángulo 34137" width="1.661" height="1.661" transform="translate(1.661 35.235)"/>
      <rect id="Rectángulo_34138" data-name="Rectángulo 34138" width="1.661" height="1.661" transform="translate(1.661 40.771)"/>
      <rect id="Rectángulo_34139" data-name="Rectángulo 34139" width="1.661" height="1.661" transform="translate(1.661 38.003)"/>
      <rect id="Rectángulo_34140" data-name="Rectángulo 34140" width="1.661" height="1.661" transform="translate(53.369 35.235)"/>
      <rect id="Rectángulo_34141" data-name="Rectángulo 34141" width="1.661" height="1.661" transform="translate(53.369 38.003)"/>
      <rect id="Rectángulo_34142" data-name="Rectángulo 34142" width="1.661" height="1.661" transform="translate(53.369 40.771)"/>
      <rect id="Rectángulo_34143" data-name="Rectángulo 34143" width="1.661" height="2.842" transform="translate(27.516 39.197)"/>
    </g>
  </g>
</svg>
