<svg xmlns="http://www.w3.org/2000/svg" width="105" height="105" viewBox="0 0 105 105">
  <g id="Grupo_949566" data-name="Grupo 949566" transform="translate(6683 9584)">
    <circle id="Elipse_4822" data-name="Elipse 4822" cx="52.5" cy="52.5" r="52.5" transform="translate(-6683 -9584)" fill="#583ae2"/>
    <g id="humano_2_" data-name="humano(2)" transform="translate(-6662 -9563)">
      <g id="Grupo_83901" data-name="Grupo 83901" transform="translate(1.984 1.984)">
        <g id="Grupo_83857" data-name="Grupo 83857" transform="translate(7.969 5.903)">
          <path id="Trazado_114543" data-name="Trazado 114543" d="M19.742,11.935H10.1a4.921,4.921,0,0,1,9.642,0Z" transform="translate(-10.1 -8)" fill="#656d78"/>
        </g>
        <g id="Grupo_83858" data-name="Grupo 83858" transform="translate(24.695)">
          <path id="Trazado_114544" data-name="Trazado 114544" d="M36.742,5.935H27.1a4.921,4.921,0,0,1,9.642,0Z" transform="translate(-27.1 -2)" fill="#b27946"/>
        </g>
        <g id="Grupo_83859" data-name="Grupo 83859" transform="translate(41.421 5.903)">
          <path id="Trazado_114545" data-name="Trazado 114545" d="M50.318,8.2a4.926,4.926,0,0,1,3.424,3.739H44.1A4.92,4.92,0,0,1,48.921,8,5.045,5.045,0,0,1,50.318,8.2Z" transform="translate(-44.1 -8)" fill="#e6e9ed"/>
        </g>
        <g id="Grupo_83860" data-name="Grupo 83860" transform="translate(47.639 3.935)">
          <path id="Trazado_114546" data-name="Trazado 114546" d="M57.878,9.935a3.934,3.934,0,0,1-3.935,3.935h-.1a4.969,4.969,0,0,0,0-1.968A4.926,4.926,0,0,0,50.42,8.165a3.94,3.94,0,0,1,7.458,1.771Z" transform="translate(-50.42 -6)" fill="#e6e9ed"/>
        </g>
        <g id="Grupo_83861" data-name="Grupo 83861" transform="translate(6.002 15.84)">
          <path id="Trazado_114547" data-name="Trazado 114547" d="M11.937,18.985a2.948,2.948,0,0,0,2.952,2.952H8.1A4.916,4.916,0,0,1,11.937,18.1Z" transform="translate(-8.1 -18.1)" fill="#b4dd7f"/>
        </g>
        <g id="Grupo_83862" data-name="Grupo 83862" transform="translate(12.79 15.84)">
          <path id="Trazado_114548" data-name="Trazado 114548" d="M21.858,22.4a10.447,10.447,0,0,0-.767,2.47,5.928,5.928,0,0,0-5.106-2.932H15a2.956,2.956,0,0,0,2.952-2.952V18.1a4.925,4.925,0,0,1,3.906,4.3Z" transform="translate(-15 -18.1)" fill="#b4dd7f"/>
        </g>
        <g id="Grupo_83863" data-name="Grupo 83863" transform="translate(46.242 15.84)">
          <path id="Trazado_114549" data-name="Trazado 114549" d="M55.887,22.921v.945a6.6,6.6,0,0,0-4.673-1.928H49a2.956,2.956,0,0,0,2.952-2.952V18.1A4.92,4.92,0,0,1,55.887,22.921Z" transform="translate(-49 -18.1)" fill="#b4dd7f"/>
        </g>
        <g id="Grupo_83864" data-name="Grupo 83864" transform="translate(39.384 15.84)">
          <path id="Trazado_114550" data-name="Trazado 114550" d="M48.888,21.937h-.246a6.622,6.622,0,0,0-5.765,3.355h-.01A10.648,10.648,0,0,0,42.03,22.4a4.925,4.925,0,0,1,3.906-4.3v.885a2.948,2.948,0,0,0,2.952,2.952Z" transform="translate(-42.03 -18.1)" fill="#b4dd7f"/>
        </g>
        <g id="Grupo_83865" data-name="Grupo 83865" transform="translate(22.629 9.937)">
          <path id="Trazado_114551" data-name="Trazado 114551" d="M28.935,12.985a2.948,2.948,0,0,0,2.952,2.952A10.773,10.773,0,0,0,25,18.407V16.921A4.92,4.92,0,0,1,28.935,12.1Z" transform="translate(-25 -12.1)" fill="#ff826e"/>
        </g>
        <g id="Grupo_83866" data-name="Grupo 83866" transform="translate(29.516 9.937)">
          <path id="Trazado_114552" data-name="Trazado 114552" d="M38.887,16.921v1.486A10.773,10.773,0,0,0,32,15.937a2.956,2.956,0,0,0,2.952-2.952V12.1a4.9,4.9,0,0,1,3.935,4.821Z" transform="translate(-32 -12.1)" fill="#ff826e"/>
        </g>
        <g id="Grupo_83867" data-name="Grupo 83867" transform="translate(0 39.089)">
          <path id="Trazado_114553" data-name="Trazado 114553" d="M9.212,45.272l2.3,4.27,2.292,4.26v7.871H2V48.332A6.761,6.761,0,0,1,4.706,42.92a6.656,6.656,0,0,1,2.6-1.19Z" transform="translate(-2 -41.73)" fill="#ff826e"/>
        </g>
        <g id="Grupo_83868" data-name="Grupo 83868" transform="translate(11.806 47.511)">
          <path id="Trazado_114554" data-name="Trazado 114554" d="M17.935,53.94v7.871H14V53.94l1.968-3.65v2.666a.987.987,0,0,0,.984.984Z" transform="translate(-14 -50.29)" fill="#ff826e"/>
        </g>
        <g id="Grupo_83869" data-name="Grupo 83869" transform="translate(9.514 44.274)">
          <path id="Trazado_114555" data-name="Trazado 114555" d="M12.979,47h3.276a10.254,10.254,0,0,0-.325,2.538v.7l-1.968,3.65-2.292-4.26Z" transform="translate(-11.67 -47)" fill="#e6e9ed"/>
        </g>
        <g id="Grupo_83870" data-name="Grupo 83870" transform="translate(9.839 40.339)">
          <path id="Trazado_114556" data-name="Trazado 114556" d="M13.968,43l3.247,1.623a9.52,9.52,0,0,0-.945,2.312H12.984L12,43.984Z" transform="translate(-12 -43)" fill="#ccd1d9"/>
        </g>
        <g id="Grupo_83871" data-name="Grupo 83871" transform="translate(7.212 41.323)">
          <path id="Trazado_114557" data-name="Trazado 114557" d="M12.941,46.952l-1.309,2.627-2.3-4.27L11.957,44Z" transform="translate(-9.33 -44)" fill="#fcd770"/>
        </g>
        <g id="Grupo_83872" data-name="Grupo 83872" transform="translate(11.806 38.371)">
          <path id="Trazado_114558" data-name="Trazado 114558" d="M16.952,41l2.932.59a9.636,9.636,0,0,0-2.637,3L14,42.968Z" transform="translate(-14 -41)" fill="#ffc729"/>
        </g>
        <g id="Grupo_83873" data-name="Grupo 83873" transform="translate(5.303 38.371)">
          <path id="Trazado_114559" data-name="Trazado 114559" d="M13.893,42.968l-1.968.984L9.3,45.26,7.39,41.718a.725.725,0,0,1,.138-.039L10.942,41Z" transform="translate(-7.39 -41)" fill="#ffc729"/>
        </g>
        <g id="Grupo_83874" data-name="Grupo 83874" transform="translate(3.935 19.677)">
          <path id="Trazado_114560" data-name="Trazado 114560" d="M20.758,32.37a7.378,7.378,0,0,1-1.368,1.751l-.7.669a4.636,4.636,0,0,0,.1-.984v-1.85a3.944,3.944,0,0,0-2.981-3.817l-.649-.157-.01-.01A3.361,3.361,0,0,1,12.917,29.3l-2.273.325a1.977,1.977,0,0,0-1.692,1.948v2.233a4.636,4.636,0,0,0,.1.984l-.7-.669A7.515,7.515,0,0,1,6,28.641V23.968A1.974,1.974,0,0,1,7.968,22h7.871a5.928,5.928,0,0,1,5.106,2.932,10.233,10.233,0,0,0-.187,1.987Z" transform="translate(-6 -22)" fill="#b27946"/>
        </g>
        <g id="Grupo_83875" data-name="Grupo 83875" transform="translate(40.221 19.677)">
          <path id="Trazado_114561" data-name="Trazado 114561" d="M54.8,31.573a1.977,1.977,0,0,0-1.692-1.948L50.84,29.3a3.361,3.361,0,0,1-2.233-1.328l-.01.01-.649.157a3.944,3.944,0,0,0-2.981,3.817v1.85a4.636,4.636,0,0,0,.1.984l-.7-.669A7.378,7.378,0,0,1,43,32.37V26.919a10.274,10.274,0,0,0-.118-1.564h.01A6.622,6.622,0,0,1,48.655,22h2.46a6.651,6.651,0,0,1,6.641,6.641,7.515,7.515,0,0,1-2.351,5.48l-.7.669a4.636,4.636,0,0,0,.1-.984Z" transform="translate(-42.88 -22)" fill="#b27946"/>
        </g>
        <g id="Grupo_83876" data-name="Grupo 83876" transform="translate(47.226 39.089)">
          <path id="Trazado_114562" data-name="Trazado 114562" d="M57.871,61.673H50V53.8l2.292-4.26,2.3-4.27L56.5,41.73A6.744,6.744,0,0,1,61.088,45.3a6.8,6.8,0,0,1,.718,3.03V61.673Z" transform="translate(-50 -41.73)" fill="#e6e9ed"/>
        </g>
        <g id="Grupo_83877" data-name="Grupo 83877" transform="translate(43.29 47.511)">
          <path id="Trazado_114563" data-name="Trazado 114563" d="M49.935,53.94v7.871H46V53.94h.984a.987.987,0,0,0,.984-.984V50.29Z" transform="translate(-46 -50.29)" fill="#e6e9ed"/>
        </g>
        <g id="Grupo_83878" data-name="Grupo 83878" transform="translate(44.933 44.274)">
          <path id="Trazado_114564" data-name="Trazado 114564" d="M50.946,47l1.309,2.627-2.292,4.26-1.968-3.65v-.7A10.254,10.254,0,0,0,47.67,47Z" transform="translate(-47.67 -47)" fill="#fcd770"/>
        </g>
        <g id="Grupo_83879" data-name="Grupo 83879" transform="translate(43.979 40.339)">
          <path id="Trazado_114565" data-name="Trazado 114565" d="M51.915,43.984l-.984,2.952H47.645a9.52,9.52,0,0,0-.945-2.312L49.947,43Z" transform="translate(-46.7 -43)" fill="#ffc729"/>
        </g>
        <g id="Grupo_83880" data-name="Grupo 83880" transform="translate(48.21 41.323)">
          <path id="Trazado_114566" data-name="Trazado 114566" d="M54.611,45.309l-2.3,4.27L51,46.952,51.984,44Z" transform="translate(-51 -44)" fill="#ff826e"/>
        </g>
        <g id="Grupo_83881" data-name="Grupo 83881" transform="translate(47.226 38.371)">
          <path id="Trazado_114567" data-name="Trazado 114567" d="M56.5,41.718,54.595,45.26l-2.627-1.309L50,42.968,52.952,41l3.414.679a.725.725,0,0,1,.138.039Z" transform="translate(-50 -41)" fill="#fc6e51"/>
        </g>
        <g id="Grupo_83882" data-name="Grupo 83882" transform="translate(41.342 38.371)">
          <path id="Trazado_114568" data-name="Trazado 114568" d="M49.9,42.968l-3.247,1.623a9.636,9.636,0,0,0-2.637-3L46.952,41Z" transform="translate(-44.02 -41)" fill="#fc6e51"/>
        </g>
        <g id="Grupo_83883" data-name="Grupo 83883" transform="translate(15.742 51.161)">
          <path id="Trazado_114569" data-name="Trazado 114569" d="M23.9,58.919v2.952H18V54h4.142a11.807,11.807,0,0,0,.59,1.987Z" transform="translate(-18 -54)" fill="#f0d0b4"/>
        </g>
        <g id="Grupo_83884" data-name="Grupo 83884" transform="translate(37.387 51.161)">
          <path id="Trazado_114570" data-name="Trazado 114570" d="M45.9,54v7.871H40V58.919l1.171-2.932A11.807,11.807,0,0,0,41.761,54Z" transform="translate(-40 -54)" fill="#f0d0b4"/>
        </g>
        <g id="Grupo_83885" data-name="Grupo 83885" transform="translate(13.774 36.964)">
          <path id="Trazado_114571" data-name="Trazado 114571" d="M22.11,53.767H16.984A.987.987,0,0,1,16,52.783V49.419a10.255,10.255,0,0,1,.325-2.538h.01a9.519,9.519,0,0,1,.945-2.312,9.636,9.636,0,0,1,2.637-3,6.88,6.88,0,0,1,1.013-.659,9.889,9.889,0,0,1,3.414-1.21l.817-.128,2.873,5.342L31.742,51.8v9.839H23.871V58.687L22.7,55.755a11.807,11.807,0,0,1-.59-1.987Z" transform="translate(-16 -39.57)" fill="#b4dd7f"/>
        </g>
        <g id="Grupo_83886" data-name="Grupo 83886" transform="translate(29.516 36.964)">
          <path id="Trazado_114572" data-name="Trazado 114572" d="M41.632,53.767a11.807,11.807,0,0,1-.59,1.987l-1.171,2.932v2.952H32V51.8l3.709-6.887,2.873-5.342.817.128a9.89,9.89,0,0,1,3.414,1.21,6.88,6.88,0,0,1,1.013.659,9.636,9.636,0,0,1,2.637,3,9.52,9.52,0,0,1,.945,2.312h.01a10.254,10.254,0,0,1,.325,2.538v3.365a.987.987,0,0,1-.984.984H41.632Z" transform="translate(-32 -39.57)" fill="#b4dd7f"/>
        </g>
        <g id="Grupo_83887" data-name="Grupo 83887" transform="translate(25.807 42.306)">
          <path id="Trazado_114573" data-name="Trazado 114573" d="M35.648,45l-3.709,6.887L28.23,45Z" transform="translate(-28.23 -45)" fill="#ffeaa7"/>
        </g>
        <g id="Grupo_83888" data-name="Grupo 83888" transform="translate(18.694 13.774)">
          <path id="Trazado_114574" data-name="Trazado 114574" d="M31.823,21.9a8.591,8.591,0,0,1-5.451,3.65l-1.436.285v3.935a6.891,6.891,0,0,0,3.935,6.218V36.1a2.943,2.943,0,0,1-2.5,2.912l-1.131.177-.817.128a9.889,9.889,0,0,0-3.414,1.21l-.01-.01v-13.7a10.233,10.233,0,0,1,.187-1.987,10.447,10.447,0,0,1,.767-2.47,10.834,10.834,0,0,1,16.755-3.9,10.24,10.24,0,0,1,.767.7,10.819,10.819,0,0,1,2.214,3.2,10.648,10.648,0,0,1,.836,2.893,10.273,10.273,0,0,1,.118,1.564v13.7l-.01.01a9.889,9.889,0,0,0-3.414-1.21L38.4,39.19l-1.131-.177a2.943,2.943,0,0,1-2.5-2.912v-.03a6.688,6.688,0,0,0,3.935-6.09V25.839l-1.436-.285a8.624,8.624,0,0,1-5.451-3.65Z" transform="translate(-21 -16)" fill="#656d78"/>
        </g>
        <g id="Grupo_83889" data-name="Grupo 83889" transform="translate(9.839 15.742)">
          <path id="Trazado_114575" data-name="Trazado 114575" d="M17.9,18.1v.885a2.952,2.952,0,1,1-5.9,0V18.1a4.636,4.636,0,0,1,.984-.1h3.935a4.636,4.636,0,0,1,.984.1Z" transform="translate(-12 -18)" fill="#f0d0b4"/>
        </g>
        <g id="Grupo_83890" data-name="Grupo 83890" transform="translate(7.871 9.839)">
          <path id="Trazado_114576" data-name="Trazado 114576" d="M19.74,12a4.636,4.636,0,0,1,.1.984,4.919,4.919,0,1,1-9.839,0A4.636,4.636,0,0,1,10.1,12Z" transform="translate(-10 -12)" fill="#f0d0b4"/>
        </g>
        <g id="Grupo_83891" data-name="Grupo 83891" transform="translate(26.565 9.839)">
          <path id="Trazado_114577" data-name="Trazado 114577" d="M34.9,12.1v.885a2.952,2.952,0,0,1-5.9,0V12.1a4.636,4.636,0,0,1,.984-.1h3.935A4.636,4.636,0,0,1,34.9,12.1Z" transform="translate(-29 -12)" fill="#f0d0b4"/>
        </g>
        <g id="Grupo_83892" data-name="Grupo 83892" transform="translate(24.597 3.935)">
          <path id="Trazado_114578" data-name="Trazado 114578" d="M36.74,6a4.636,4.636,0,0,1,.1.984,4.919,4.919,0,0,1-9.839,0A4.636,4.636,0,0,1,27.1,6Z" transform="translate(-27 -6)" fill="#f0d0b4"/>
        </g>
        <g id="Grupo_83893" data-name="Grupo 83893" transform="translate(43.29 15.742)">
          <path id="Trazado_114579" data-name="Trazado 114579" d="M51.9,18.1v.885a2.952,2.952,0,0,1-5.9,0V18.1a4.636,4.636,0,0,1,.984-.1h3.935a4.636,4.636,0,0,1,.984.1Z" transform="translate(-46 -18)" fill="#f0d0b4"/>
        </g>
        <g id="Grupo_83894" data-name="Grupo 83894" transform="translate(41.323 9.839)">
          <path id="Trazado_114580" data-name="Trazado 114580" d="M53.74,13.968A4.92,4.92,0,0,1,44,12.984,4.636,4.636,0,0,1,44.1,12H53.74a4.969,4.969,0,0,1,0,1.968Z" transform="translate(-44 -12)" fill="#f0d0b4"/>
        </g>
        <g id="Grupo_83895" data-name="Grupo 83895" transform="translate(44.274 35.823)">
          <path id="Trazado_114581" data-name="Trazado 114581" d="M49.952,38.99a4.826,4.826,0,0,0,2.312-.58l.64,2.548-2.952,1.968L47,40.958l.64-2.548Z" transform="translate(-47 -38.41)" fill="#f0d0b4"/>
        </g>
        <g id="Grupo_83896" data-name="Grupo 83896" transform="translate(42.306 25.65)">
          <path id="Trazado_114582" data-name="Trazado 114582" d="M48.64,28.07A3.361,3.361,0,0,0,50.874,29.4l2.273.325a1.977,1.977,0,0,1,1.692,1.948V33.9a4.636,4.636,0,0,1-.1.984,4.9,4.9,0,0,1-2.509,3.355,4.826,4.826,0,0,1-2.312.58l-2.312-.58a4.779,4.779,0,0,1-1.171-.856,4.964,4.964,0,0,1-1.338-2.5A4.636,4.636,0,0,1,45,33.9v-1.85a3.944,3.944,0,0,1,2.981-3.817l.649-.157Z" transform="translate(-45 -28.07)" fill="#f0d0b4"/>
        </g>
        <g id="Grupo_83897" data-name="Grupo 83897" transform="translate(8.855 35.823)">
          <path id="Trazado_114583" data-name="Trazado 114583" d="M16.9,40.958l-2.952,1.968L11,40.958l.64-2.548a4.826,4.826,0,0,0,2.312.58l2.312-.58Z" transform="translate(-11 -38.41)" fill="#f0d0b4"/>
        </g>
        <g id="Grupo_83898" data-name="Grupo 83898" transform="translate(6.887 25.65)">
          <path id="Trazado_114584" data-name="Trazado 114584" d="M15.858,28.237a3.944,3.944,0,0,1,2.981,3.817V33.9a4.636,4.636,0,0,1-.1.984,4.964,4.964,0,0,1-1.338,2.5,4.779,4.779,0,0,1-1.171.856l-2.312.58a4.826,4.826,0,0,1-2.312-.58A4.9,4.9,0,0,1,9.1,34.888,4.636,4.636,0,0,1,9,33.9V31.671a1.977,1.977,0,0,1,1.692-1.948l2.273-.325A3.361,3.361,0,0,0,15.2,28.07l.01.01Z" transform="translate(-9 -28.07)" fill="#f0d0b4"/>
        </g>
        <g id="Grupo_83899" data-name="Grupo 83899" transform="translate(22.934 33.766)">
          <path id="Trazado_114585" data-name="Trazado 114585" d="M38.474,39.518,35.6,44.86H28.183L25.31,39.518l1.131-.177a2.943,2.943,0,0,0,2.5-2.912V36.32a6.863,6.863,0,0,0,2.981.669H32.1a6.578,6.578,0,0,0,2.745-.59v.03a2.943,2.943,0,0,0,2.5,2.912Z" transform="translate(-25.31 -36.32)" fill="#f0d0b4"/>
        </g>
        <g id="Grupo_83900" data-name="Grupo 83900" transform="translate(22.629 19.677)">
          <path id="Trazado_114586" data-name="Trazado 114586" d="M38.774,25.935v4.142a6.688,6.688,0,0,1-3.935,6.09,6.578,6.578,0,0,1-2.745.59h-.177A6.9,6.9,0,0,1,25,29.871V25.935l1.436-.285A8.591,8.591,0,0,0,31.887,22a8.624,8.624,0,0,0,5.451,3.65Z" transform="translate(-25 -22)" fill="#f0d0b4"/>
        </g>
      </g>
      <g id="Grupo_83902" data-name="Grupo 83902" transform="translate(1 1)">
        <path id="Trazado_114587" data-name="Trazado 114587" d="M58.9,41.473a7.814,7.814,0,0,0-3.132-1.4l-2.8-.561-.314-1.257a5.914,5.914,0,0,0,2.261-3.283l.5-.476A8.547,8.547,0,0,0,58.065,28.3a7.587,7.587,0,0,0-1.968-5.1v-.564a5.906,5.906,0,0,0-3.851-5.527,5.913,5.913,0,0,0,1.563-2.41,4.909,4.909,0,1,0-4.655-7.723A5.892,5.892,0,0,0,44.2,17.116a5.868,5.868,0,0,0-3.084,2.644,11.915,11.915,0,0,0-1.748-1.954V16.742a5.906,5.906,0,0,0-3.851-5.527,5.9,5.9,0,1,0-8.04,0,5.906,5.906,0,0,0-3.851,5.527v1.064a11.908,11.908,0,0,0-1.748,1.953A5.874,5.874,0,0,0,18.8,17.115a5.9,5.9,0,1,0-8.041,0,5.916,5.916,0,0,0-3.522,3.639,2.953,2.953,0,0,0-2.3,2.873V28.3a8.551,8.551,0,0,0,2.653,6.19l.5.477a5.917,5.917,0,0,0,2.261,3.283l-.314,1.257-2.8.561A7.753,7.753,0,0,0,1,47.674V62H62V47.674a7.793,7.793,0,0,0-3.1-6.2Zm-39.408-6.5.2-.193v4.939c-.089.057-.18.11-.267.17l-1.882-.376-.314-1.257a5.917,5.917,0,0,0,2.261-3.283ZM16.949,41.4l.62.124a10.565,10.565,0,0,0-.9,1.138l-.921-.46Zm-3.433,3.874-.49-1.469.764-.383,1.92.959q-.193.437-.348.891H13.516Zm-2.268-.58.5,1.489-.281.563-.916-1.7Zm2.166,2.548h1.479a11.081,11.081,0,0,0-.119,1.554v.447l-.984,1.827-1.187-2.2Zm1.36,6.151.2-.378a1.964,1.964,0,0,0,1.764,1.114v5.9H14.774Zm3.935.736H21.1a12.191,12.191,0,0,0,.444,1.365l1.1,2.76v1.779H18.71Zm4.659.634a10.113,10.113,0,0,1-.206-6.949l.415-1.245-1.865-.623L21.3,47.191a12.086,12.086,0,0,0-.619,3.818q0,.58.055,1.152H16.742V48.8a8.809,8.809,0,0,1,7.509-8.753l.126-.02,6.139,11.4v8.607h-5.9V57.876ZM31.5,23.269a9.476,9.476,0,0,0,5.253,3l.65.13v3.334a5.7,5.7,0,0,1-5.7,5.7h-.173A5.927,5.927,0,0,1,25.6,29.53V26.4l.65-.13a9.476,9.476,0,0,0,5.253-3ZM29.327,37.085a7.934,7.934,0,0,0,2.207.318h.173a7.654,7.654,0,0,0,1.981-.269,3.9,3.9,0,0,0,2.883,2.552l-1.949,3.62H28.379l-1.949-3.62a3.89,3.89,0,0,0,2.9-2.6ZM31.5,49.1l-2.061-3.828h4.122Zm.984,2.324,6.14-11.4.126.02A8.807,8.807,0,0,1,46.258,48.8v3.366h-3.99q.053-.573.054-1.152a12.059,12.059,0,0,0-.62-3.818l-.415-1.245-1.865.623.414,1.244a10.107,10.107,0,0,1-.2,6.95l-1.245,3.113v2.157h-5.9ZM43.306,34.779l.2.192a5.917,5.917,0,0,0,2.261,3.283l-.314,1.257-1.882.376c-.087-.06-.178-.113-.267-.17Zm6.178,10.495H47.638q-.155-.456-.348-.891l1.92-.96.764.383Zm-3.152-2.613a10.815,10.815,0,0,0-.9-1.138l.62-.124,1.2.8ZM40.355,58.253l1.1-2.76a11.929,11.929,0,0,0,.444-1.365H44.29v5.9H40.355Zm5.9-4.124a1.964,1.964,0,0,0,1.764-1.114l.2.378v6.639H46.258Zm2.952-3.06-.984-1.827V48.8a10.934,10.934,0,0,0-.12-1.554h1.479l.812,1.623Zm2.328-4.323-.281-.563.5-1.489.7.351Zm2.68-4.976-.83,1.542L51.167,42.2l1.2-.8Zm-3.179-1.849L49.21,41.14l-1.829-1.22.2-.784a5.79,5.79,0,0,0,3.266,0Zm2.106-6.453a3.935,3.935,0,0,1-7.871,0V31.621a2.947,2.947,0,0,1,2.236-2.863l.081-.021a4.362,4.362,0,0,0,2.433,1.2l2.276.326a.987.987,0,0,1,.845.973Zm2.614-3.081a6.577,6.577,0,0,1-.646,1.37v-.518a2.965,2.965,0,0,0-2.533-2.921L50.3,27.992A2.43,2.43,0,0,1,48.226,25.6H46.258a4.346,4.346,0,0,0,.238,1.419,4.912,4.912,0,0,0-3.19,4.605v-5.04a11.786,11.786,0,0,0-.08-1.324,5.67,5.67,0,0,1,4.755-2.611h2.456A5.666,5.666,0,0,1,56.1,28.3a6.558,6.558,0,0,1-.337,2.082ZM50.194,18.71a1.968,1.968,0,1,1-3.935,0Zm3.758,2.833a7.562,7.562,0,0,0-2.389-.772,3.891,3.891,0,0,0,.545-1.542A3.926,3.926,0,0,1,53.952,21.542Zm-5.726-4.8a3.939,3.939,0,0,1-3.935-3.935h7.871A3.939,3.939,0,0,1,48.226,16.742ZM53.145,6.9a2.937,2.937,0,0,1,.974,5.713A5.9,5.9,0,0,0,51.15,7.685,2.936,2.936,0,0,1,53.145,6.9ZM48.226,8.871a3.923,3.923,0,0,1,3.388,1.968H44.838A3.92,3.92,0,0,1,48.226,8.871ZM44.341,19.217a3.9,3.9,0,0,0,.871,1.993,7.681,7.681,0,0,0-2.528,1.618c-.092-.275-.187-.549-.3-.815a3.908,3.908,0,0,1,1.956-2.8Zm-6.979-2.87A11.734,11.734,0,0,0,34.6,15.2a3.889,3.889,0,0,0,.782-1.876A3.916,3.916,0,0,1,37.363,16.347Zm-7.831-3.541h3.935a1.968,1.968,0,0,1-3.935,0ZM31.5,10.839A3.939,3.939,0,0,1,27.565,6.9h7.871A3.939,3.939,0,0,1,31.5,10.839Zm0-7.871a3.923,3.923,0,0,1,3.388,1.968H28.113A3.92,3.92,0,0,1,31.5,2.968ZM27.617,13.325A3.889,3.889,0,0,0,28.4,15.2a11.734,11.734,0,0,0-2.763,1.146A3.919,3.919,0,0,1,27.617,13.325ZM31.5,16.742a9.85,9.85,0,0,1,9.839,9.839V38.719a10.966,10.966,0,0,0-2.289-.62L37.1,37.8a1.952,1.952,0,0,1-1.591-1.419,7.664,7.664,0,0,0,3.857-6.643V24.79l-2.232-.447a7.514,7.514,0,0,1-4.655-3V18.71H30.515v2.629a7.519,7.519,0,0,1-4.655,3l-2.231.447v4.74a7.862,7.862,0,0,0,3.881,6.764A1.952,1.952,0,0,1,25.9,37.8l-1.945.3a10.966,10.966,0,0,0-2.289.62V26.581A9.85,9.85,0,0,1,31.5,16.742ZM20.613,22.015c-.07.165-.123.337-.186.506a6.922,6.922,0,0,0-2.5-1.476,3.891,3.891,0,0,0,.734-1.828,3.9,3.9,0,0,1,1.956,2.8Zm-7.807-3.3h3.935a1.968,1.968,0,1,1-3.935,0Zm1.968-1.968a3.939,3.939,0,0,1-3.935-3.935H18.71A3.939,3.939,0,0,1,14.774,16.742Zm0-7.871a3.923,3.923,0,0,1,3.388,1.968H11.387A3.92,3.92,0,0,1,14.774,8.871ZM10.89,19.213a3.887,3.887,0,0,0,.5,1.464H9.405A3.948,3.948,0,0,1,10.89,19.213ZM7.241,30.385A6.547,6.547,0,0,1,6.9,28.3V23.629a.985.985,0,0,1,.984-.984h7.871a4.936,4.936,0,0,1,4.079,2.188,11.894,11.894,0,0,0-.144,1.747v5.04a4.911,4.911,0,0,0-3.19-4.605,4.346,4.346,0,0,0,.238-1.419H14.774a2.432,2.432,0,0,1-2.077,2.4l-2.276.326a2.964,2.964,0,0,0-2.534,2.92v.518a6.585,6.585,0,0,1-.646-1.371Zm2.614.853a.989.989,0,0,1,.844-.974l2.276-.326a4.372,4.372,0,0,0,2.433-1.2l.082.021a2.949,2.949,0,0,1,2.236,2.864v1.847a3.935,3.935,0,0,1-7.871,0Zm3.935,8.133a5.856,5.856,0,0,0,1.633-.235l.2.784L13.79,41.14l-1.829-1.22.2-.784A5.856,5.856,0,0,0,13.79,39.371ZM10.632,41.4l1.2.8L9.614,43.311,8.782,41.77ZM2.968,47.674A5.742,5.742,0,0,1,6.8,42.238l6.007,11.156v6.638H6.9V49.21H4.935V60.032H2.968ZM60.032,60.032H58.065V49.21H56.1V60.032h-5.9V53.394L56.2,42.239a5.738,5.738,0,0,1,3.832,5.435Z" transform="translate(-1 -1)"/>
        <path id="Trazado_114588" data-name="Trazado 114588" d="M31.937,33.944a4.144,4.144,0,0,0,3.728-2.3l.1-.208-1.76-.881-.1.209a2.2,2.2,0,0,1-3.935,0l-.1-.208-1.76.881.1.207A4.144,4.144,0,0,0,31.937,33.944Z" transform="translate(-1.437 -1.477)"/>
      </g>
    </g>
  </g>
</svg>
