<svg xmlns="http://www.w3.org/2000/svg" width="105" height="105" viewBox="0 0 105 105">
  <g id="Grupo_949567" data-name="Grupo 949567" transform="translate(6683 9454)">
    <circle id="Elipse_4823" data-name="Elipse 4823" cx="52.5" cy="52.5" r="52.5" transform="translate(-6683 -9454)" fill="#583ae2"/>
    <g id="coding" transform="translate(-6662.724 -9434)">
      <path id="Trazado_114512" data-name="Trazado 114512" d="M53.379,12.276,45.1,4H12V61.931H53.379Z" transform="translate(0.034 0.034)" fill="#a9dbf5" fill-rule="evenodd"/>
      <path id="Trazado_114513" data-name="Trazado 114513" d="M12,12H36.828V28.552H12Z" transform="translate(0.034 0.31)" fill="#ffc328"/>
      <g id="Grupo_83855" data-name="Grupo 83855" transform="translate(11 3)">
        <path id="Trazado_114514" data-name="Trazado 114514" d="M13.069,13.345H35.828V27.828H13.069Zm0-2.069H36.862A1.034,1.034,0,0,1,37.9,12.31V28.862A1.034,1.034,0,0,1,36.862,29.9H13.069V60.931h39.31V12.739l-7.67-7.67H13.069ZM54.448,12.31a1.034,1.034,0,0,0-.3-.731L45.869,3.3a1.034,1.034,0,0,0-.731-.3h-33.1A1.034,1.034,0,0,0,11,4.034V61.966A1.034,1.034,0,0,0,12.034,63H53.414a1.034,1.034,0,0,0,1.034-1.034Z" transform="translate(-11 -3)" fill-rule="evenodd"/>
        <path id="Trazado_114515" data-name="Trazado 114515" d="M19.441,15.3,15.3,19.441a1.034,1.034,0,0,0,0,1.463l4.138,4.138A1.034,1.034,0,1,0,20.9,23.579L17.5,20.172,20.9,16.766A1.034,1.034,0,1,0,19.441,15.3Z" transform="translate(-10.862 -2.586)" fill-rule="evenodd"/>
        <path id="Trazado_114516" data-name="Trazado 114516" d="M27.3,16.766l3.407,3.407L27.3,23.579a1.034,1.034,0,1,0,1.463,1.463L32.9,20.9a1.034,1.034,0,0,0,0-1.463L28.766,15.3A1.034,1.034,0,1,0,27.3,16.766Z" transform="translate(-10.448 -2.586)" fill-rule="evenodd"/>
        <path id="Trazado_114517" data-name="Trazado 114517" d="M24.464,14.492,21.692,25.434a1.035,1.035,0,1,0,2.006.508L26.47,15a1.035,1.035,0,0,0-2.006-.508Z" transform="translate(-10.632 -2.631)" fill-rule="evenodd"/>
        <path id="Trazado_114518" data-name="Trazado 114518" d="M24.034,36.069H48.862a1.034,1.034,0,0,0,0-2.069H24.034a1.034,1.034,0,1,0,0,2.069Z" transform="translate(-10.586 -1.931)" fill="#002537" fill-rule="evenodd"/>
        <path id="Trazado_114519" data-name="Trazado 114519" d="M16.034,36.069h4.138a1.034,1.034,0,0,0,0-2.069H16.034a1.034,1.034,0,1,0,0,2.069Z" transform="translate(-10.862 -1.931)" fill="#002537" fill-rule="evenodd"/>
        <path id="Trazado_114520" data-name="Trazado 114520" d="M24.034,40.069H48.862a1.034,1.034,0,0,0,0-2.069H24.034a1.034,1.034,0,1,0,0,2.069Z" transform="translate(-10.586 -1.793)" fill="#002537" fill-rule="evenodd"/>
        <path id="Trazado_114521" data-name="Trazado 114521" d="M16.034,40.069h4.138a1.034,1.034,0,0,0,0-2.069H16.034a1.034,1.034,0,1,0,0,2.069Z" transform="translate(-10.862 -1.793)" fill="#002537" fill-rule="evenodd"/>
        <path id="Trazado_114522" data-name="Trazado 114522" d="M24.034,52.069H48.862a1.034,1.034,0,0,0,0-2.069H24.034a1.034,1.034,0,1,0,0,2.069Z" transform="translate(-10.586 -1.379)" fill="#002537" fill-rule="evenodd"/>
        <path id="Trazado_114523" data-name="Trazado 114523" d="M16.034,52.069h4.138a1.034,1.034,0,0,0,0-2.069H16.034a1.034,1.034,0,1,0,0,2.069Z" transform="translate(-10.862 -1.379)" fill="#002537" fill-rule="evenodd"/>
        <path id="Trazado_114524" data-name="Trazado 114524" d="M24.034,44.069H48.862a1.034,1.034,0,0,0,0-2.069H24.034a1.034,1.034,0,1,0,0,2.069Z" transform="translate(-10.586 -1.655)" fill="#002537" fill-rule="evenodd"/>
        <path id="Trazado_114525" data-name="Trazado 114525" d="M16.034,44.069h4.138a1.034,1.034,0,0,0,0-2.069H16.034a1.034,1.034,0,1,0,0,2.069Z" transform="translate(-10.862 -1.655)" fill="#002537" fill-rule="evenodd"/>
        <path id="Trazado_114526" data-name="Trazado 114526" d="M24.034,48.069H48.862a1.034,1.034,0,0,0,0-2.069H24.034a1.034,1.034,0,1,0,0,2.069Z" transform="translate(-10.586 -1.517)" fill="#002537" fill-rule="evenodd"/>
        <path id="Trazado_114527" data-name="Trazado 114527" d="M16.034,48.069h4.138a1.034,1.034,0,0,0,0-2.069H16.034a1.034,1.034,0,1,0,0,2.069Z" transform="translate(-10.862 -1.517)" fill="#002537" fill-rule="evenodd"/>
      </g>
    </g>
  </g>
</svg>
