<svg xmlns="http://www.w3.org/2000/svg" width="105" height="105" viewBox="0 0 105 105">
  <g id="Grupo_949568" data-name="Grupo 949568" transform="translate(6682 9324)">
    <circle id="Elipse_4824" data-name="Elipse 4824" cx="52.5" cy="52.5" r="52.5" transform="translate(-6682 -9324)" fill="#583ae2"/>
    <g id="dato" transform="translate(-6658.666 -9300.719)">
      <path id="Trazado_114528" data-name="Trazado 114528" d="M25.5,85.442c9.662,0,17.5-3.046,17.5-6.8V64.059c0,3.758-7.833,6.8-17.5,6.8S8,67.817,8,64.059V78.638C8,82.4,15.833,85.442,25.5,85.442Zm0,0" transform="translate(-7.028 -56.224)" fill="#9bc9ff"/>
      <path id="Trazado_114529" data-name="Trazado 114529" d="M25.5,190.863c-9.662,0-17.5-3.046-17.5-6.8v13.607c0,3.758,7.833,6.8,17.5,6.8s17.5-3.046,17.5-6.8V184.059C42.991,187.817,35.157,190.863,25.5,190.863Zm0,0" transform="translate(-7.028 -161.645)" fill="#57a4ff"/>
      <path id="Trazado_114530" data-name="Trazado 114530" d="M25.5,302.863c-9.662,0-17.5-3.046-17.5-6.8v14.579c0,3.758,7.833,6.8,17.5,6.8s17.5-3.046,17.5-6.8V296.059C42.991,299.817,35.157,302.863,25.5,302.863Zm0,0" transform="translate(-7.028 -260.037)" fill="#2488ff"/>
      <path id="Trazado_114531" data-name="Trazado 114531" d="M42.991,14.862c0-3.757-7.833-6.8-17.5-6.8S8,11.1,8,14.862s7.833,6.8,17.5,6.8S42.991,18.62,42.991,14.862Zm0,0" transform="translate(-7.028 -7.028)" fill="#bddbff"/>
      <path id="Trazado_114532" data-name="Trazado 114532" d="M42.99,57.031c0,3.762-7.834,6.8-17.5,6.8S8,60.792,8,57.031a2.612,2.612,0,0,1,.185-.972c1.2,3.3,8.5,5.832,17.311,5.832s16.115-2.537,17.311-5.832a2.612,2.612,0,0,1,.185.972Zm0,0" transform="translate(-7.028 -49.196)" fill="#57a4ff"/>
      <g id="Grupo_83856" data-name="Grupo 83856" transform="translate(51.514 2.003)">
        <path id="Trazado_114533" data-name="Trazado 114533" d="M429.832,218.975a2.916,2.916,0,1,1-2.916-2.916A2.916,2.916,0,0,1,429.832,218.975Zm0,0" transform="translate(-424 -191.76)" fill="#b2fa09"/>
        <path id="Trazado_114534" data-name="Trazado 114534" d="M429.832,426.975a2.916,2.916,0,1,1-2.916-2.916A2.916,2.916,0,0,1,429.832,426.975Zm0,0" transform="translate(-424 -374.489)" fill="#b2fa09"/>
        <path id="Trazado_114535" data-name="Trazado 114535" d="M429.832,18.974a2.916,2.916,0,1,1-2.916-2.916A2.916,2.916,0,0,1,429.832,18.974Zm0,0" transform="translate(-424 -16.059)" fill="#b2fa09"/>
      </g>
      <path id="Trazado_114536" data-name="Trazado 114536" d="M42.991,168.059V170c0,3.762-7.834,6.8-17.5,6.8S8,173.765,8,170v-1.944c0,3.762,7.834,6.8,17.5,6.8S42.991,171.821,42.991,168.059Zm0,0" transform="translate(-7.028 -147.589)" fill="#2488ff"/>
      <path id="Trazado_114537" data-name="Trazado 114537" d="M42.991,280.059V282c0,3.762-7.834,6.8-17.5,6.8S8,285.764,8,282v-1.944c0,3.762,7.834,6.8,17.5,6.8S42.991,283.821,42.991,280.059Zm0,0" transform="translate(-7.028 -245.981)" fill="#006df0"/>
      <path id="Trazado_114538" data-name="Trazado 114538" d="M42.991,400.059V402c0,3.762-7.834,6.8-17.5,6.8S8,405.764,8,402v-1.944c0,3.762,7.834,6.8,17.5,6.8S42.991,403.821,42.991,400.059Zm0,0" transform="translate(-7.028 -351.402)" fill="#006df0"/>
      <path id="Trazado_114539" data-name="Trazado 114539" d="M36.934,30.19H50.68a3.888,3.888,0,1,0,0-1.944H36.934v-9.72h4.86A2.916,2.916,0,0,0,44.71,15.61V6.863a.972.972,0,0,1,.972-.972h5a3.888,3.888,0,1,0,0-1.944h-5a2.916,2.916,0,0,0-2.916,2.916V15.61a.972.972,0,0,1-.972.972h-4.86V7.835C36.934,3.4,29,.059,18.467.059S0,3.4,0,7.835V50.6c0,4.433,7.939,7.776,18.467,7.776S36.934,55.034,36.934,50.6v-4.86h4.86a.972.972,0,0,1,.972.972v5.832a2.916,2.916,0,0,0,2.916,2.916h5a3.888,3.888,0,1,0,0-1.944h-5a.972.972,0,0,1-.972-.972V46.713A2.916,2.916,0,0,0,41.794,43.8h-4.86Zm17.5-2.916a1.944,1.944,0,1,1-1.944,1.944,1.944,1.944,0,0,1,1.944-1.944Zm0-24.3a1.944,1.944,0,1,1-1.944,1.944A1.944,1.944,0,0,1,54.43,2.975Zm0,49.57a1.944,1.944,0,1,1-1.944,1.944A1.944,1.944,0,0,1,54.43,52.545ZM18.467,2c9.738,0,16.523,3.073,16.523,5.832s-6.785,5.832-16.523,5.832S1.944,10.593,1.944,7.835,8.729,2,18.467,2Zm-16.523,9.4c2.971,2.537,9.1,4.2,16.523,4.2s13.552-1.668,16.523-4.2V22.414c0,2.759-6.785,5.832-16.523,5.832S1.944,25.173,1.944,22.414ZM18.467,56.433c-9.738,0-16.523-3.073-16.523-5.832V39.593c2.971,2.537,9.1,4.2,16.523,4.2s13.552-1.668,16.523-4.2V50.6C34.991,53.36,28.205,56.433,18.467,56.433Zm0-14.579c-9.738,0-16.523-3.073-16.523-5.832V25.985c2.971,2.537,9.1,4.2,16.523,4.2s13.552-1.668,16.523-4.2V36.021C34.991,38.78,28.205,41.853,18.467,41.853Zm0,0"/>
      <path id="Trazado_114540" data-name="Trazado 114540" d="M440,32.059h1.944V34H440Zm0,0" transform="translate(-386.542 -28.112)"/>
      <path id="Trazado_114541" data-name="Trazado 114541" d="M440,232.059h1.944V234H440Zm0,0" transform="translate(-386.542 -203.813)"/>
      <path id="Trazado_114542" data-name="Trazado 114542" d="M440,440.059h1.944V442H440Zm0,0" transform="translate(-386.542 -386.542)"/>
    </g>
  </g>
</svg>
