<svg xmlns="http://www.w3.org/2000/svg" width="67" height="72" viewBox="0 0 67 72">
  <g id="Grupo_81331" data-name="Grupo 81331" transform="translate(-828 -8248)">
    <rect id="Rectángulo_34186" data-name="Rectángulo 34186" width="67" height="72" rx="5" transform="translate(828 8248)" fill="#fff"/>
    <g id="Grupo_948223" data-name="Grupo 948223" transform="translate(164.219 -4166.281)">
      <g id="objetivo_3_" data-name="objetivo(3)" transform="translate(668.263 12420.264)">
        <path id="Trazado_633101" data-name="Trazado 633101" d="M66.639,90.61a24.018,24.018,0,1,1,20.28-11.224,1.263,1.263,0,0,1-2.137-1.345,21.5,21.5,0,1,0-6.74,6.74,1.26,1.26,0,1,1,1.343,2.132,23.873,23.873,0,0,1-12.745,3.7Zm0,0" transform="translate(-37.621 -37.621)"/>
        <path id="Trazado_633102" data-name="Trazado 633102" d="M235.929,12.617a1.262,1.262,0,0,1-1.261-1.262V1.262a1.262,1.262,0,1,1,2.523,0V11.355A1.262,1.262,0,0,1,235.929,12.617Zm0,0" transform="translate(-206.912 0)"/>
        <path id="Trazado_633103" data-name="Trazado 633103" d="M11.355,237.191H1.262a1.262,1.262,0,1,1,0-2.523H11.355a1.262,1.262,0,1,1,0,2.523Zm0,0" transform="translate(0 -206.912)"/>
        <path id="Trazado_633104" data-name="Trazado 633104" d="M235.929,396.617a1.262,1.262,0,0,1-1.261-1.262V385.262a1.262,1.262,0,1,1,2.523,0v10.093A1.262,1.262,0,0,1,235.929,396.617Zm0,0" transform="translate(-206.912 -338.581)"/>
        <path id="Trazado_633105" data-name="Trazado 633105" d="M395.355,237.191H385.262a1.262,1.262,0,1,1,0-2.523h10.093a1.262,1.262,0,1,1,0,2.523Zm0,0" transform="translate(-338.581 -206.912)"/>
      </g>
      <g id="escudo-seguro" transform="translate(687.163 12437.417)">
        <g id="Grupo_948223-2" data-name="Grupo 948223" transform="translate(0.499 0.499)">
          <path id="Trazado_633106" data-name="Trazado 633106" d="M63.416,19.851,57.263,26a1.124,1.124,0,0,1-1.589,0l-2.947-2.947a1.124,1.124,0,0,1,1.589-1.59l2.153,2.153,5.358-5.358a1.124,1.124,0,1,1,1.59,1.59Zm-5.345-9.083a39.021,39.021,0,0,1-9.619,4.08v5.1c0,9.568,8.275,13.551,9.619,13.551s9.619-3.982,9.619-13.551v-5.1A40.239,40.239,0,0,1,58.071,10.768Z" transform="translate(-48.452 -10.768)" fill="#25c766"/>
          <path id="Trazado_633107" data-name="Trazado 633107" d="M138.441,173.437l6.153-6.153A1.124,1.124,0,1,0,143,165.7l-5.358,5.358-2.153-2.153a1.124,1.124,0,0,0-1.589,1.59l2.947,2.947A1.124,1.124,0,0,0,138.441,173.437Z" transform="translate(-129.63 -158.201)" fill="#e0feec"/>
        </g>
        <g id="Grupo_948224" data-name="Grupo 948224" transform="translate(0 0)">
          <path id="Trazado_633108" data-name="Trazado 633108" d="M57.55,4.1a39.471,39.471,0,0,1-9.5-4.028.5.5,0,0,0-.507,0,38.39,38.39,0,0,1-9.5,4.028.5.5,0,0,0-.367.481v5.1A14.672,14.672,0,0,0,42.136,20.4c2.188,2.144,4.737,3.33,5.663,3.33s3.474-1.186,5.663-3.33a14.672,14.672,0,0,0,4.455-10.72v-5.1A.5.5,0,0,0,57.55,4.1Zm-.631,5.581a13.693,13.693,0,0,1-4.156,10.007A11,11,0,0,1,47.8,22.73a11,11,0,0,1-4.964-3.045A13.694,13.694,0,0,1,38.679,9.679V4.957a39.31,39.31,0,0,0,9.12-3.88,40.554,40.554,0,0,0,9.119,3.88Z" transform="translate(-37.681 0)" fill="#000003"/>
          <path id="Trazado_633109" data-name="Trazado 633109" d="M84.044,99.259a.5.5,0,0,0-.647-.281c-.892.351-1.807.675-2.72.961a.5.5,0,0,0-.35.476v1.928a.5.5,0,1,0,1,0V100.78c.819-.265,1.638-.558,2.438-.873A.5.5,0,0,0,84.044,99.259Z" transform="translate(-78.351 -94.358)" fill="#000003"/>
          <path id="Trazado_633110" data-name="Trazado 633110" d="M170.7,87.206a.5.5,0,0,0,.2-.042l.009,0a.5.5,0,0,0-.4-.913l-.008,0a.5.5,0,0,0,.2.956Z" transform="translate(-164.061 -82.21)" fill="#000003"/>
          <path id="Trazado_633111" data-name="Trazado 633111" d="M307.084,345.609a.5.5,0,0,0-.691.145,12.149,12.149,0,0,1-1.434,1.792,12.751,12.751,0,0,1-1.432,1.274.5.5,0,1,0,.605.794,13.757,13.757,0,0,0,1.544-1.374,13.133,13.133,0,0,0,1.552-1.939A.5.5,0,0,0,307.084,345.609Z" transform="translate(-291.019 -329.515)" fill="#000003"/>
          <path id="Trazado_633112" data-name="Trazado 633112" d="M276.841,432.034l-.029.017a.5.5,0,1,0,.5.864l.033-.019a.5.5,0,1,0-.5-.861Z" transform="translate(-265.493 -411.947)" fill="#000003"/>
          <path id="Trazado_633113" data-name="Trazado 633113" d="M125.591,158.28a1.623,1.623,0,0,0-2.3,2.3l2.947,2.947a1.624,1.624,0,0,0,2.3,0l6.153-6.153a1.623,1.623,0,0,0-2.3-2.3l-5,5Zm7.511-2.5a.625.625,0,1,1,.884.884l-6.153,6.153a.625.625,0,0,1-.884,0L124,159.869a.625.625,0,0,1,.884-.884l2.152,2.153a.5.5,0,0,0,.706,0Z" transform="translate(-118.875 -147.434)" fill="#000003"/>
        </g>
      </g>
    </g>
  </g>
</svg>
