<svg xmlns="http://www.w3.org/2000/svg" xmlns:xlink="http://www.w3.org/1999/xlink" width="190" height="164" viewBox="0 0 190 164">
  <defs>
    <clipPath id="clip-path">
      <rect id="Rect치ngulo_34109" data-name="Rect치ngulo 34109" width="190" height="164" transform="translate(180 1158)" fill="#fff" stroke="#707070" stroke-width="1"/>
    </clipPath>
    <clipPath id="clip-path-2">
      <rect id="Rect치ngulo_34000" data-name="Rect치ngulo 34000" width="117" height="117" transform="translate(583.655 3429.655)" fill="#fff" stroke="#707070" stroke-width="1"/>
    </clipPath>
  </defs>
  <g id="Enmascarar_grupo_73" data-name="Enmascarar grupo 73" transform="translate(-180 -1158)" clip-path="url(#clip-path)">
    <g id="Grupo_83784" data-name="Grupo 83784">
      <path id="hacker-working-in-the-darkness" d="M0,0H74.525a79.915,79.915,0,0,0,75.167,52.785,80.61,80.61,0,0,0,10.445-.68v72.539q-5.177.351-10.445.356A152.145,152.145,0,0,1,0,0Z" transform="translate(305 1158) rotate(90)" fill="#583ae2" style="mix-blend-mode: multiply;isolation: isolate"/>
      <g id="Enmascarar_grupo_72" data-name="Enmascarar grupo 72" transform="translate(-347.655 -2243.655)" clip-path="url(#clip-path-2)">
        <g id="Filled_outline" data-name="Filled outline" transform="translate(584 3430)">
          <path id="Trazado_114271" data-name="Trazado 114271" d="M18.774,9H96.509a7.774,7.774,0,0,1,7.774,7.774V77.019a5.83,5.83,0,0,1-5.83,5.83H16.83A5.83,5.83,0,0,1,11,77.019V16.774A7.774,7.774,0,0,1,18.774,9Z" transform="translate(6.491 4.604)" fill="#4db7e5"/>
          <path id="Trazado_114272" data-name="Trazado 114272" d="M55.943,9H54V82.849h3.887V9.245A7.789,7.789,0,0,0,55.943,9Z" transform="translate(47.056 4.604)" fill="#48add9"/>
          <path id="Trazado_114273" data-name="Trazado 114273" d="M82.075,3h-58.3A7.774,7.774,0,0,0,16,10.774V92.4H89.849V10.774A7.774,7.774,0,0,0,82.075,3Z" transform="translate(11.207 -1.057)" fill="#348fd9"/>
          <path id="Trazado_114274" data-name="Trazado 114274" d="M88.434,12.5,17.5,83.434H88.434Z" transform="translate(12.623 7.906)" fill="#3086cd"/>
          <path id="Trazado_114275" data-name="Trazado 114275" d="M72.528,40.264q0,.98-.073,1.943A25.232,25.232,0,0,1,50.782,65.283c-.52.075-1.045.131-1.574.172q-.962.073-1.943.073t-1.943-.073c-.53-.041-1.054-.1-1.574-.172a24.942,24.942,0,0,1-5.884-1.562,25.262,25.262,0,0,1-15.79-21.513Q22,41.245,22,40.264t.073-1.943a25.234,25.234,0,0,1,21.4-23.036q.915-.138,1.849-.211Q46.283,15,47.264,15t1.943.073c.53.041,1.054.1,1.574.172A24.93,24.93,0,0,1,56.66,16.8,25.35,25.35,0,0,1,69.681,28.6a25.062,25.062,0,0,1,2.774,9.717Q72.528,39.283,72.528,40.264Z" transform="translate(16.868 10.264)" fill="#4db7e5"/>
          <path id="Trazado_114276" data-name="Trazado 114276" d="M72.455,42.207q.073-.962.073-1.943t-.073-1.943H62.775A49.43,49.43,0,0,0,61.444,28.6h8.238a25.115,25.115,0,0,0-2.5-3.887h-6.86A39.966,39.966,0,0,0,56.66,16.8a24.93,24.93,0,0,0-5.879-1.56l1.356,1.749a34.043,34.043,0,0,1,4.054,7.723H49.207V15.073Q48.246,15,47.264,15t-1.943.073v9.644H38.337a33.917,33.917,0,0,1,4.076-7.752c.024-.032.044-.066.066-.1l.994-1.584a25.019,25.019,0,0,0-5.6,1.521,39.84,39.84,0,0,0-3.658,7.912h-6.86a25.116,25.116,0,0,0-2.5,3.887h8.238a49.38,49.38,0,0,0-1.331,9.717H22.073Q22,39.283,22,40.264t.073,1.943h9.683a48.7,48.7,0,0,0,1.856,11.66H25.969a25.363,25.363,0,0,0,3.066,3.887h5.893a37.809,37.809,0,0,0,2.935,5.966,24.942,24.942,0,0,0,5.884,1.562l-1.356-1.751a32.182,32.182,0,0,1-3.258-5.777h6.187v7.7q.962.073,1.943.073t1.943-.073v-7.7h6.187a32.055,32.055,0,0,1-3.258,5.777l-1.356,1.751a24.942,24.942,0,0,0,5.884-1.562A37.6,37.6,0,0,0,59.6,57.755h5.893a25.363,25.363,0,0,0,3.066-3.887H60.916a48.777,48.777,0,0,0,1.856-11.66ZM45.321,53.868H37.676a44.431,44.431,0,0,1-2.031-11.66h9.676Zm0-15.547H35.643a45.16,45.16,0,0,1,1.45-9.717h8.228ZM56.852,53.868H49.207V42.207h9.676a44.519,44.519,0,0,1-2.031,11.66ZM49.207,38.321V28.6h8.228a45.229,45.229,0,0,1,1.45,9.717Z" transform="translate(16.868 10.264)" fill="#60d1e0"/>
          <path id="Trazado_114277" data-name="Trazado 114277" d="M72.327,46.943a6.635,6.635,0,0,1-4.692,1.943H51.755a6.636,6.636,0,0,1-4.692-1.943A6.635,6.635,0,0,0,42.371,45H9v5.83a5.83,5.83,0,0,0,5.83,5.83h89.4a5.83,5.83,0,0,0,5.83-5.83V45H77.019a6.636,6.636,0,0,0-4.692,1.943Z" transform="translate(4.604 38.566)" fill="#e0e0de"/>
          <path id="Trazado_114278" data-name="Trazado 114278" d="M59.83,45v5.83A5.83,5.83,0,0,1,54,56.66h7.774a5.83,5.83,0,0,0,5.83-5.83V45Z" transform="translate(47.056 38.566)" fill="#d6d6d4"/>
          <path id="Trazado_114279" data-name="Trazado 114279" d="M57.415,48.373V72.665a4.319,4.319,0,0,1-.6,2.2,4.365,4.365,0,0,1-3.775,2.169H7.373A4.365,4.365,0,0,1,3.6,74.868a4.319,4.319,0,0,1-.6-2.2V48.373a4.319,4.319,0,0,1,.6-2.2A4.365,4.365,0,0,1,7.373,44h45.67a4.365,4.365,0,0,1,3.775,2.169,4.319,4.319,0,0,1,.6,2.2Z" transform="translate(-1.057 37.622)" fill="#ffb531"/>
          <path id="Trazado_114280" data-name="Trazado 114280" d="M56.527,46.169c-6.017,3.35-15.7,5.524-26.61,5.524S9.325,49.519,3.308,46.169A4.365,4.365,0,0,1,7.083,44h45.67A4.365,4.365,0,0,1,56.527,46.169Z" transform="translate(-0.767 37.622)" fill="#ffcb73"/>
          <path id="Trazado_114281" data-name="Trazado 114281" d="M56.527,62.565a4.365,4.365,0,0,1-3.775,2.169H7.083a4.365,4.365,0,0,1-3.775-2.169c6.017-3.35,15.7-5.524,26.61-5.524S50.51,59.215,56.527,62.565Z" transform="translate(-0.767 49.925)" fill="#ffa912"/>
          <path id="Trazado_114282" data-name="Trazado 114282" d="M27.377,27A21.377,21.377,0,0,0,6,48.377v11.66h7.774V48.377a13.6,13.6,0,0,1,27.207,0v11.66h7.774V48.377A21.377,21.377,0,0,0,27.377,27Z" transform="translate(1.774 21.585)" fill="#e0e0de"/>
          <path id="Trazado_114283" data-name="Trazado 114283" d="M25.661,54.842a5.83,5.83,0,1,0-7.774,5.472v4.245h3.887V60.315A5.82,5.82,0,0,0,25.661,54.842Z" transform="translate(9.32 42.327)" fill="#95573a"/>
          <path id="Trazado_114284" data-name="Trazado 114284" d="M109.113,83.622H107.17V23.377a9.728,9.728,0,0,0-9.717-9.717V11.717A9.728,9.728,0,0,0,87.736,2h-58.3a9.728,9.728,0,0,0-9.717,9.717V13.66A9.728,9.728,0,0,0,10,23.377V46.7h3.887V23.377a5.837,5.837,0,0,1,5.83-5.83V44.755H23.6V11.717a5.837,5.837,0,0,1,5.83-5.83h58.3a5.837,5.837,0,0,1,5.83,5.83V77.792h3.887V17.547a5.837,5.837,0,0,1,5.83,5.83V83.622H76.075a8.512,8.512,0,0,0-6.058,2.513,4.674,4.674,0,0,1-3.329,1.374H56.641V91.4H66.689a8.536,8.536,0,0,0,6.077-2.513,4.651,4.651,0,0,1,3.309-1.374H107.17V91.4a3.891,3.891,0,0,1-3.887,3.887H56.641V99.17h46.641a7.782,7.782,0,0,0,7.774-7.774v-5.83A1.943,1.943,0,0,0,109.113,83.622Z" transform="translate(5.547 -2)"/>
          <path id="Trazado_114285" data-name="Trazado 114285" d="M15,34h3.887V47.6H15Z" transform="translate(10.264 28.189)"/>
          <path id="Trazado_114286" data-name="Trazado 114286" d="M20,6h3.887V9.887H20Z" transform="translate(14.98 1.774)"/>
          <path id="Trazado_114287" data-name="Trazado 114287" d="M24,6h3.887V9.887H24Z" transform="translate(18.754 1.774)"/>
          <path id="Trazado_114288" data-name="Trazado 114288" d="M28,6h3.887V9.887H28Z" transform="translate(22.528 1.774)"/>
          <path id="Trazado_114289" data-name="Trazado 114289" d="M20,10H78.3v3.887H20Z" transform="translate(14.981 5.547)"/>
          <path id="Trazado_114290" data-name="Trazado 114290" d="M41.906,63.754c-.411-.106-.826-.226-1.232-.356l-1.188,3.7c.478.154.966.295,1.439.417A27.2,27.2,0,1,0,24.939,26.552a26.866,26.866,0,0,0-3.564,8.378l3.782.895a22.969,22.969,0,0,1,2.506-6.277h6.011a49.649,49.649,0,0,0-1.368,11.66c0,1.346.054,2.705.161,4.042l3.874-.31c-.047-.592-.083-1.19-.108-1.788H45.91v11.66H40.08V58.7h5.83v5.743a23.271,23.271,0,0,1-4-.687ZM63.26,58.7a23.413,23.413,0,0,1-4.423,3.072c.489-.994.943-2.016,1.352-3.072Zm3.526-3.887H61.5a48.875,48.875,0,0,0,1.858-11.66H71.1a22.91,22.91,0,0,1-4.31,11.66ZM42.609,18.487a23.214,23.214,0,0,1,3.3-.514V25.66H38.932a34.366,34.366,0,0,1,3.677-7.173Zm7.188-.513a23.257,23.257,0,0,1,3.3.514,34.361,34.361,0,0,1,3.677,7.173H49.8Zm8.226,11.573a45.2,45.2,0,0,1,1.45,9.717H49.8V29.547Zm13.069,9.717H63.365a49.312,49.312,0,0,0-1.331-9.717h6.009a23.1,23.1,0,0,1,3.048,9.717Zm-5.865-13.6H60.906a41.758,41.758,0,0,0-2.086-5.044,23.1,23.1,0,0,1,6.406,5.044ZM36.888,20.616A41.757,41.757,0,0,0,34.8,25.66H30.481a23.1,23.1,0,0,1,6.407-5.044Zm-.654,18.647a45.184,45.184,0,0,1,1.45-9.717H45.91v9.717ZM49.8,43.151h9.676a44.515,44.515,0,0,1-2.034,11.66H49.8ZM55.98,58.7A32.408,32.408,0,0,1,53.1,63.926a23.181,23.181,0,0,1-3.306.515V58.7Z" transform="translate(16.278 9.321)"/>
          <path id="Trazado_114291" data-name="Trazado 114291" d="M54.472,59.076V49.321a23.321,23.321,0,1,0-46.641,0v9.756A6.544,6.544,0,0,0,2,65.572V89.427a6.542,6.542,0,0,0,6.535,6.535H53.767A6.542,6.542,0,0,0,60.3,89.427V65.572a6.544,6.544,0,0,0-5.83-6.5ZM31.151,29.887A19.456,19.456,0,0,1,50.585,49.321v9.717H46.7V49.321a15.547,15.547,0,1,0-31.094,0v9.717H11.717V49.321A19.456,19.456,0,0,1,31.151,29.887Zm11.66,29.151H19.491V49.321a11.66,11.66,0,1,1,23.321,0Zm13.6,30.39a2.651,2.651,0,0,1-2.648,2.648H8.535a2.651,2.651,0,0,1-2.648-2.648V65.572a2.651,2.651,0,0,1,2.648-2.648H53.767a2.651,2.651,0,0,1,2.648,2.648Z" transform="translate(-2 20.641)"/>
          <path id="Trazado_114292" data-name="Trazado 114292" d="M19.829,49a5.83,5.83,0,0,0-1.943,11.326v4.221h3.887V60.326A5.83,5.83,0,0,0,19.829,49Zm0,7.774a1.943,1.943,0,1,1,1.943-1.943A1.943,1.943,0,0,1,19.829,56.774Z" transform="translate(9.322 42.339)"/>
        </g>
      </g>
    </g>
  </g>
</svg>
