<svg xmlns="http://www.w3.org/2000/svg" width="179" height="179" viewBox="0 0 179 179">
  <g id="Grupo_948528" data-name="Grupo 948528" transform="translate(-711 -17352)">
    <circle id="Elipse_5406" data-name="Elipse 5406" cx="89.5" cy="89.5" r="89.5" transform="translate(711 17352)" fill="#fff"/>
    <g id="Grupo_948514" data-name="Grupo 948514" transform="translate(358)">
      <rect id="Rect치ngulo_34831" data-name="Rect치ngulo 34831" width="105" height="110" transform="translate(390 17388)" fill="none"/>
      <g id="transferencia-de-datos" transform="translate(392.729 17393.229)">
        <path id="Trazado_633784" data-name="Trazado 633784" d="M47.94,47.453H6V4.318A3.328,3.328,0,0,1,9.318,1H59.089a3.328,3.328,0,0,1,3.318,3.318V36.387Z" transform="translate(3.954 0.659)" fill="#2d5e6d"/>
        <path id="Trazado_633785" data-name="Trazado 633785" d="M52.43,35v8.3H2.659A1.659,1.659,0,0,1,1,41.636V36.659L2.659,35Z" transform="translate(0.659 23.066)" fill="#a3bdce"/>
        <path id="Trazado_633786" data-name="Trazado 633786" d="M52.43,28V41.272H1L9.3,28Z" transform="translate(0.659 18.453)" fill="#c4ddf0"/>
        <path id="Trazado_633787" data-name="Trazado 633787" d="M41.545,38.636l-2.4-4.8A3.318,3.318,0,0,0,36.176,32H20.369A3.318,3.318,0,0,0,17.4,33.835l-2.4,4.8Z" transform="translate(9.885 21.089)" fill="#e4f1ff"/>
        <path id="Trazado_633788" data-name="Trazado 633788" d="M77.453,27V71.718c0,4.624-10.4,8.371-23.226,8.371S31,76.341,31,71.718V27Z" transform="translate(20.43 17.794)" fill="#3e748a"/>
        <rect id="Rect치ngulo_34832" data-name="Rect치ngulo 34832" width="43" height="31" rx="1" transform="translate(16.542 8.542)" fill="#76b6dd"/>
        <ellipse id="Elipse_5408" data-name="Elipse 5408" cx="23" cy="8.5" rx="23" ry="8.5" transform="translate(51.542 36.542)" fill="#4b88a9"/>
        <path id="Trazado_633789" data-name="Trazado 633789" d="M77.453,36.007c0,4.574-10.4,8.284-23.226,8.284S31,40.581,31,36.007V50.938c0,4.577,10.4,8.284,23.226,8.284s23.226-3.706,23.226-8.277Z" transform="translate(20.43 23.73)" fill="#4b88a9"/>
        <path id="Trazado_633790" data-name="Trazado 633790" d="M74.656,34.84a62.973,62.973,0,0,0-6.623.35L68.02,4.977A4.977,4.977,0,0,0,63.043,0H13.272A4.977,4.977,0,0,0,8.3,4.977v41L.252,58.846A1.659,1.659,0,0,0,0,59.725V64.7A3.318,3.318,0,0,0,3.318,68.02H44.794a1.659,1.659,0,0,0,0-3.318H3.318V61.384l46.453.012V89.511c0,6.515,12.823,10.031,24.885,10.031s24.885-3.515,24.885-10.031V44.794h0C99.542,38.324,86.719,34.84,74.656,34.84Zm21.567,9.954c0,2.708-8.4,6.636-21.567,6.636S53.089,47.5,53.089,44.794s8.4-6.636,21.567-6.636S96.224,42.09,96.224,44.794ZM10.873,48.112h38.9v4.977a4.944,4.944,0,0,0-3.71-1.659H30.254A4.952,4.952,0,0,0,25.8,54.181l-1.946,3.885H4.645Zm17.9,7.554a1.647,1.647,0,0,1,1.483-.917H46.061a1.647,1.647,0,0,1,1.483.917l1.206,2.411-21.184-.01ZM55.8,38.158H18.249V9.954H58.066V37.272C57.268,37.544,56.507,37.839,55.8,38.158ZM11.613,4.977a1.659,1.659,0,0,1,1.659-1.659H63.043A1.659,1.659,0,0,1,64.7,4.977V35.651c-1.138.189-2.253.4-3.318.664V9.954a3.318,3.318,0,0,0-3.318-3.318H18.249a3.318,3.318,0,0,0-3.318,3.318v28.2a3.318,3.318,0,0,0,3.318,3.318H51.035a5.2,5.2,0,0,0-1.264,3.318H11.613ZM74.656,96.224c-13.166,0-21.567-3.982-21.567-6.712v-9.69c4.591,3.131,13.257,4.79,21.567,4.79s16.977-1.659,21.567-4.79v9.69C96.224,92.242,87.823,96.224,74.656,96.224Zm0-14.931c-13.166,0-21.567-3.919-21.567-6.618V64.886c4.591,3.134,13.257,4.793,21.567,4.793s16.977-1.659,21.567-4.793v9.788C96.224,77.374,87.823,81.293,74.656,81.293Zm0-14.931c-13.166,0-21.567-3.924-21.567-6.625V49.949c4.591,3.144,13.257,4.8,21.567,4.8s16.977-1.659,21.567-4.8v9.788C96.224,62.438,87.823,66.361,74.656,66.361Z" transform="translate(0)" fill="#373737"/>
        <path id="Trazado_633791" data-name="Trazado 633791" d="M42.2,11.318H19.664l.486-.486A1.659,1.659,0,1,0,17.8,8.486L14.486,11.8a1.659,1.659,0,0,0,0,2.346L17.8,17.468a1.659,1.659,0,1,0,2.346-2.346l-.486-.486H42.2a1.659,1.659,0,1,0,0-3.318Z" transform="translate(9.227 5.272)" fill="#373737"/>
        <path id="Trazado_633792" data-name="Trazado 633792" d="M40.058,15.486a1.659,1.659,0,1,0-2.346,2.346l.486.486H15.659a1.659,1.659,0,1,0,0,3.318H38.2l-.486.486a1.659,1.659,0,1,0,2.346,2.346l3.318-3.318a1.659,1.659,0,0,0,0-2.346Z" transform="translate(9.226 9.886)" fill="#373737"/>
      </g>
    </g>
  </g>
</svg>
