<svg xmlns="http://www.w3.org/2000/svg" width="141.077" height="140.912" viewBox="0 0 141.077 140.912">
  <g id="Grupo_950105" data-name="Grupo 950105" transform="translate(8592.879 7230.74)">
    <path id="Trazado_245634" data-name="Trazado 245634" d="M261.27,4760.1a71.451,71.451,0,1,0-71.452,71.452A71.179,71.179,0,0,0,261.27,4760.1Z" transform="translate(-8713.071 -11921.383)" fill="#462eb4"/>
    <g id="Grupo_84112" data-name="Grupo 84112" transform="translate(-8576.206 -7214.085)">
      <path id="Trazado_245636" data-name="Trazado 245636" d="M241.88,4757.627a54.561,54.561,0,1,0-54.56,54.559A54.351,54.351,0,0,0,241.88,4757.627Z" transform="translate(-134.152 -4704.586)" fill="#e6e1fb"/>
    </g>
    <g id="identificar" transform="translate(-8555.567 -7193.724)">
      <g id="Grupo_84114" data-name="Grupo 84114" transform="translate(33.614 33.614)">
        <path id="Trazado_245637" data-name="Trazado 245637" d="M271.212,263.761l-7.451,7.451a1.317,1.317,0,0,1-1.863,0l-4.1-4.1,9.314-9.314,4.1,4.1A1.317,1.317,0,0,1,271.212,263.761Z" transform="translate(-257.8 -257.8)" fill="#0067c5"/>
      </g>
      <g id="Grupo_84115" data-name="Grupo 84115" transform="translate(42.17 42.17)">
        <path id="Trazado_245638" data-name="Trazado 245638" d="M347.025,337.711v9.314h-9.314L323.8,333.113a1.317,1.317,0,0,1,0-1.863l7.451-7.451a1.317,1.317,0,0,1,1.863,0Z" transform="translate(-323.413 -323.413)" fill="#0573ce"/>
      </g>
      <g id="Grupo_84116" data-name="Grupo 84116" transform="translate(48.33 42.17)">
        <path id="Trazado_245639" data-name="Trazado 245639" d="M388.11,342.927v-5.216L374.2,323.8a1.317,1.317,0,0,0-1.863,0l-1.676,1.676Z" transform="translate(-370.658 -323.413)" fill="#0067c5"/>
      </g>
      <g id="Grupo_84117" data-name="Grupo 84117" transform="translate(40.311 40.321)">
        <path id="Trazado_245640" data-name="Trazado 245640" d="M0,0H8.43V4.215H0Z" transform="translate(0 5.96) rotate(-45)" fill="#5a5a5a"/>
      </g>
      <g id="Grupo_84124" data-name="Grupo 84124" transform="translate(0.978 0.978)">
        <g id="Grupo_84118" data-name="Grupo 84118">
          <circle id="Elipse_4847" data-name="Elipse 4847" cx="22.391" cy="22.391" r="22.391" fill="#528fd8"/>
        </g>
        <g id="Grupo_84119" data-name="Grupo 84119" transform="translate(4.629 4.63)">
          <path id="Trazado_245641" data-name="Trazado 245641" d="M74.4,43.006a22.391,22.391,0,0,1-31.4,31.4,22.391,22.391,0,1,0,31.4-31.4Z" transform="translate(-43.005 -43.006)" fill="#0573ce"/>
        </g>
        <g id="Grupo_84120" data-name="Grupo 84120" transform="translate(4.478 4.478)">
          <circle id="Elipse_4848" data-name="Elipse 4848" cx="17.913" cy="17.913" r="17.913" fill="#f2fbff"/>
        </g>
        <g id="Grupo_84123" data-name="Grupo 84123" transform="translate(10.309 9.747)">
          <g id="Grupo_84121" data-name="Grupo 84121">
            <path id="Trazado_245642" data-name="Trazado 245642" d="M86.876,99.47l9.972-16.215a2.107,2.107,0,0,1,3.59,0L110.41,99.47a2.107,2.107,0,0,1-1.8,3.211H88.671A2.108,2.108,0,0,1,86.876,99.47Z" transform="translate(-86.56 -82.252)" fill="#ffe177"/>
          </g>
          <g id="Grupo_84122" data-name="Grupo 84122" transform="translate(9.022 5.104)">
            <path id="Trazado_245643" data-name="Trazado 245643" d="M163.133,121.395a39.327,39.327,0,0,1-2,6.187,37.781,37.781,0,0,1-5.374,9.139h13.033a2.107,2.107,0,0,0,1.8-3.211Z" transform="translate(-155.756 -121.395)" fill="#ffd15b"/>
          </g>
        </g>
      </g>
      <g id="Grupo_84125" data-name="Grupo 84125" transform="translate(0 0)">
        <path id="Trazado_245644" data-name="Trazado 245644" d="M36.358,59.311a.978.978,0,0,0-.519,1.282,18.847,18.847,0,1,0-1.293-4.627.978.978,0,0,0,1.935-.281A16.941,16.941,0,1,1,37.64,59.83a.978.978,0,0,0-1.282-.519Z" transform="translate(-29.871 -29.871)"/>
        <path id="Trazado_245645" data-name="Trazado 245645" d="M82.132,97.137h19.944a3.085,3.085,0,0,0,2.628-4.7L94.732,76.221a3.085,3.085,0,0,0-5.256,0L79.5,92.436a3.085,3.085,0,0,0,2.628,4.7ZM81.17,93.46l9.972-16.215a1.13,1.13,0,0,1,1.924,0l9.972,16.215a1.13,1.13,0,0,1-.962,1.721H82.132a1.13,1.13,0,0,1-.962-1.721Z" transform="translate(-68.734 -65.005)"/>
        <path id="Trazado_245646" data-name="Trazado 245646" d="M172.639,200.742a.988.988,0,1,0-.988-.988A.988.988,0,0,0,172.639,200.742Z" transform="translate(-149.27 -172.849)"/>
        <path id="Trazado_245647" data-name="Trazado 245647" d="M172.818,127.775a.978.978,0,0,0,.978-.978V120.4a.978.978,0,0,0-1.956,0V126.8A.978.978,0,0,0,172.818,127.775Z" transform="translate(-149.434 -103.854)"/>
        <path id="Trazado_245648" data-name="Trazado 245648" d="M441.474,368.662l-8.576-8.576a.978.978,0,0,0-1.383,1.383l8.576,8.576a.978.978,0,1,0,1.383-1.383Z" transform="translate(-375.002 -312.886)"/>
        <path id="Trazado_245649" data-name="Trazado 245649" d="M43.247,51.177a.339.339,0,0,1,0-.479L50.7,43.247a.34.34,0,0,1,.479,0l2.111,2.111a.978.978,0,0,0,1.383-1.383L52.56,41.864a2.3,2.3,0,0,0-3.245,0l-.054.054-1.6-1.6.054-.054a2.3,2.3,0,0,0,0-3.245l-3.367-3.367a23.357,23.357,0,0,0-5.1-27.424.978.978,0,1,0-1.33,1.434,21.351,21.351,0,1,1-3.48-2.625.978.978,0,0,0,1.013-1.673,23.374,23.374,0,1,0-1.8,40.985l3.367,3.367a2.3,2.3,0,0,0,3.245,0l.054-.054,1.6,1.6-.054.054a2.3,2.3,0,0,0,0,3.245L55.776,66.473a.978.978,0,0,0,1.383-1.383Zm-4.6-4.744a.337.337,0,0,1-.239-.1l-2.962-2.962a23.55,23.55,0,0,0,7.931-7.931L46.335,38.4a.339.339,0,0,1,0,.479l-7.452,7.452A.337.337,0,0,1,38.644,46.434Zm3.059-.153L46.281,41.7l1.6,1.6L43.3,47.878Z" transform="translate(0 0)"/>
      </g>
    </g>
  </g>
</svg>
