<svg xmlns="http://www.w3.org/2000/svg" width="818.05" height="1227.219" viewBox="0 0 818.05 1227.219">
  <g id="Grupo_949570" data-name="Grupo 949570" transform="translate(-390.029 -2557.5)">
    <line id="Línea_148" data-name="Línea 148" x2="246.112" transform="translate(580 2651.762)" fill="none" stroke="#000" stroke-linecap="round" stroke-linejoin="round" stroke-width="1" stroke-dasharray="0 4"/>
    <line id="Línea_149" data-name="Línea 149" x2="246.112" transform="translate(580 2815.405)" fill="none" stroke="#000" stroke-linecap="round" stroke-linejoin="round" stroke-width="1" stroke-dasharray="0 4"/>
    <line id="Línea_150" data-name="Línea 150" x2="246.112" transform="translate(580 2982.786)" fill="none" stroke="#000" stroke-linecap="round" stroke-linejoin="round" stroke-width="1" stroke-dasharray="0 4"/>
    <line id="Línea_151" data-name="Línea 151" x2="246.112" transform="translate(580 3157.023)" fill="none" stroke="#000" stroke-linecap="round" stroke-linejoin="round" stroke-width="1" stroke-dasharray="0 4"/>
    <g id="Grupo_83974" data-name="Grupo 83974" transform="translate(548.396 2577.603)">
      <rect id="Rectángulo_34428" data-name="Rectángulo 34428" width="11.015" height="1198.562" transform="translate(0)" fill="#bdbfc1"/>
    </g>
    <g id="Grupo_83975" data-name="Grupo 83975" transform="translate(529.277 3132.949)">
      <path id="Trazado_114737" data-name="Trazado 114737" d="M381.467,1219.339a19.718,19.718,0,1,0,19.718-19.717A19.718,19.718,0,0,0,381.467,1219.339Z" transform="translate(-377.112 -1195.265)" fill="#45bbcc"/>
      <path id="Trazado_114738" data-name="Trazado 114738" d="M400.935,1243.163a24.074,24.074,0,1,1,24.072-24.074A24.1,24.1,0,0,1,400.935,1243.163Zm0-39.435a15.362,15.362,0,1,0,15.36,15.361A15.379,15.379,0,0,0,400.935,1203.727Z" transform="translate(-376.862 -1195.015)" fill="#fff"/>
    </g>
    <g id="Grupo_83976" data-name="Grupo 83976" transform="translate(529.277 2964.527)">
      <path id="Trazado_114739" data-name="Trazado 114739" d="M381.467,1041.251a19.718,19.718,0,1,0,19.718-19.717A19.718,19.718,0,0,0,381.467,1041.251Z" transform="translate(-377.112 -1017.177)" fill="#45bbcc"/>
      <path id="Trazado_114740" data-name="Trazado 114740" d="M400.935,1065.075A24.074,24.074,0,1,1,425.008,1041,24.1,24.1,0,0,1,400.935,1065.075Zm0-39.436A15.362,15.362,0,1,0,416.3,1041,15.38,15.38,0,0,0,400.935,1025.639Z" transform="translate(-376.862 -1016.927)" fill="#fff"/>
    </g>
    <g id="Grupo_83977" data-name="Grupo 83977" transform="translate(529.277 2796.106)">
      <path id="Trazado_114741" data-name="Trazado 114741" d="M381.467,863.164a19.718,19.718,0,1,0,19.718-19.718A19.718,19.718,0,0,0,381.467,863.164Z" transform="translate(-377.112 -839.09)" fill="#45bbcc"/>
      <path id="Trazado_114742" data-name="Trazado 114742" d="M400.935,886.988a24.074,24.074,0,1,1,24.072-24.073A24.1,24.1,0,0,1,400.935,886.988Zm0-39.436a15.362,15.362,0,1,0,15.36,15.362A15.379,15.379,0,0,0,400.935,847.552Z" transform="translate(-376.862 -838.84)" fill="#fff"/>
    </g>
    <g id="Grupo_83978" data-name="Grupo 83978" transform="translate(529.277 2627.686)">
      <path id="Trazado_114743" data-name="Trazado 114743" d="M381.467,685.076a19.718,19.718,0,1,0,19.718-19.717A19.718,19.718,0,0,0,381.467,685.076Z" transform="translate(-377.112 -661.003)" fill="#45bbcc"/>
      <path id="Trazado_114744" data-name="Trazado 114744" d="M400.935,708.9a24.073,24.073,0,1,1,24.072-24.073A24.1,24.1,0,0,1,400.935,708.9Zm0-39.435a15.361,15.361,0,1,0,15.36,15.362A15.379,15.379,0,0,0,400.935,669.465Z" transform="translate(-376.862 -660.753)" fill="#fff"/>
    </g>
    <path id="Trazado_114745" data-name="Trazado 114745" d="M389.949,605.816a11.7,11.7,0,1,0,11.7-11.7A11.7,11.7,0,0,0,389.949,605.816Z" transform="translate(151.705 1970.551)" fill="#bdbfc1"/>
    <path id="Trazado_114746" data-name="Trazado 114746" d="M389.949,1676.457a11.7,11.7,0,1,0,11.7-11.7A11.7,11.7,0,0,0,389.949,1676.457Z" transform="translate(151.705 2096.566)" fill="#bdbfc1"/>
    <g id="Grupo_83979" data-name="Grupo 83979" transform="translate(390.029 3091.849)">
      <ellipse id="Elipse_4826" data-name="Elipse 4826" cx="55.676" cy="55.676" rx="55.676" ry="55.676" transform="translate(0 109.356) rotate(-79.134)" fill="#fff"/>
      <path id="Trazado_114747" data-name="Trazado 114747" d="M295.028,1278.083a61.121,61.121,0,1,1,61.122-61.121A61.19,61.19,0,0,1,295.028,1278.083Zm0-111.353a50.232,50.232,0,1,0,50.232,50.232A50.289,50.289,0,0,0,295.028,1166.73Z" transform="translate(-229.854 -1151.788)" fill="#45bbcc"/>
    </g>
    <g id="Grupo_83980" data-name="Grupo 83980" transform="translate(394.081 2927.48)">
      <ellipse id="Elipse_4827" data-name="Elipse 4827" cx="55.677" cy="55.677" rx="55.677" ry="55.677" transform="translate(5.445 5.446)" fill="#fff"/>
      <path id="Trazado_114748" data-name="Trazado 114748" d="M295.028,1100a61.122,61.122,0,1,1,61.122-61.122A61.191,61.191,0,0,1,295.028,1100Zm0-111.355a50.232,50.232,0,1,0,50.232,50.233A50.289,50.289,0,0,0,295.028,988.643Z" transform="translate(-233.906 -977.753)" fill="#45bbcc"/>
    </g>
    <ellipse id="Elipse_4828" data-name="Elipse 4828" cx="55.677" cy="55.677" rx="55.677" ry="55.677" transform="translate(399.526 2875.859) rotate(-90)" fill="#fff"/>
    <path id="Trazado_114749" data-name="Trazado 114749" d="M295.028,921.91a61.122,61.122,0,1,1,61.122-61.122A61.191,61.191,0,0,1,295.028,921.91Zm0-111.354a50.232,50.232,0,1,0,50.232,50.232A50.288,50.288,0,0,0,295.028,810.556Z" transform="translate(160.175 1959.395)" fill="#45bbcc"/>
    <ellipse id="Elipse_4829" data-name="Elipse 4829" cx="55.677" cy="55.677" rx="55.677" ry="55.677" transform="translate(399.526 2707.438) rotate(-90)" fill="#fff"/>
    <path id="Trazado_114750" data-name="Trazado 114750" d="M295.028,743.822A61.121,61.121,0,1,1,356.15,682.7,61.191,61.191,0,0,1,295.028,743.822Zm0-111.353A50.232,50.232,0,1,0,345.26,682.7,50.289,50.289,0,0,0,295.028,632.469Z" transform="translate(160.175 1969.061)" fill="#45bbcc"/>
    <path id="Trazado_114751" data-name="Trazado 114751" d="M719.885,593.976v45.819l-19.6,26.055,19.6,19.6v46.816h346.3V593.976Z" transform="translate(134.86 1970.559)" fill="#45bbcc"/>
    <path id="Trazado_114752" data-name="Trazado 114752" d="M726.794,587.067v45.818l-19.6,26.055,19.6,19.6v46.816h346.3V587.067Z" transform="translate(134.485 1970.934)" fill="none" stroke="#000" stroke-miterlimit="10" stroke-width="1"/>
    <path id="Trazado_114753" data-name="Trazado 114753" d="M719.885,778.215v45.818l-19.6,26.055,19.6,19.6v46.816h346.3V778.215Z" transform="translate(134.86 1960.559)" fill="#45bbcc"/>
    <path id="Trazado_114754" data-name="Trazado 114754" d="M726.794,771.306v45.818l-19.6,26.055,19.6,19.6V909.6h346.3V771.306Z" transform="translate(134.485 1960.933)" fill="none" stroke="#000" stroke-miterlimit="10" stroke-width="1"/>
    <path id="Trazado_114755" data-name="Trazado 114755" d="M719.885,962.454v45.818l-19.6,26.055,19.6,19.6v46.816h346.3V962.454Z" transform="translate(134.86 1950.558)" fill="#45bbcc"/>
    <path id="Trazado_114756" data-name="Trazado 114756" d="M726.794,955.545v45.818l-19.6,26.055,19.6,19.6v46.816h346.3V955.545Z" transform="translate(134.485 1950.932)" fill="none" stroke="#000" stroke-miterlimit="10" stroke-width="1"/>
    <path id="Trazado_114757" data-name="Trazado 114757" d="M719.885,1146.693v45.818l-19.6,26.055,19.6,19.6v46.816h346.3V1146.693Z" transform="translate(134.86 1940.557)" fill="#45bbcc"/>
    <path id="Trazado_114758" data-name="Trazado 114758" d="M726.794,1139.784V1185.6l-19.6,26.055,19.6,19.6v46.816h346.3V1139.784Z" transform="translate(134.485 1940.932)" fill="none" stroke="#000" stroke-miterlimit="10" stroke-width="1"/>
    <line id="Línea_152" data-name="Línea 152" x2="246.112" transform="translate(580 3331.261)" fill="none" stroke="#000" stroke-linecap="round" stroke-linejoin="round" stroke-width="1" stroke-dasharray="0 4"/>
    <g id="Grupo_83983" data-name="Grupo 83983" transform="translate(529.277 3307.188)">
      <path id="Trazado_114759" data-name="Trazado 114759" d="M381.467,1403.578a19.718,19.718,0,1,0,19.718-19.718A19.718,19.718,0,0,0,381.467,1403.578Z" transform="translate(-377.112 -1379.504)" fill="#45bbcc"/>
      <path id="Trazado_114760" data-name="Trazado 114760" d="M400.935,1427.4a24.074,24.074,0,1,1,24.072-24.074A24.1,24.1,0,0,1,400.935,1427.4Zm0-39.436a15.362,15.362,0,1,0,15.36,15.361A15.379,15.379,0,0,0,400.935,1387.966Z" transform="translate(-376.862 -1379.254)" fill="#fff"/>
    </g>
    <g id="Grupo_83984" data-name="Grupo 83984" transform="translate(390.029 3266.087)">
      <ellipse id="Elipse_4830" data-name="Elipse 4830" cx="55.676" cy="55.676" rx="55.676" ry="55.676" transform="matrix(0.189, -0.982, 0.982, 0.189, 0, 109.357)" fill="#fff"/>
      <path id="Trazado_114761" data-name="Trazado 114761" d="M295.028,1462.323A61.122,61.122,0,1,1,356.15,1401.2,61.191,61.191,0,0,1,295.028,1462.323Zm0-111.354A50.232,50.232,0,1,0,345.26,1401.2,50.289,50.289,0,0,0,295.028,1350.969Z" transform="translate(-229.854 -1336.027)" fill="#45bbcc"/>
    </g>
    <path id="Trazado_114762" data-name="Trazado 114762" d="M719.885,1330.932v45.818l-19.6,26.055,19.6,19.6v46.816h346.3V1330.932Z" transform="translate(134.86 1930.556)" fill="#45bbcc"/>
    <path id="Trazado_114763" data-name="Trazado 114763" d="M726.794,1324.023v45.818l-19.6,26.055,19.6,19.6v46.816h346.3V1324.023Z" transform="translate(134.485 1930.932)" fill="none" stroke="#000" stroke-miterlimit="10" stroke-width="1"/>
    <line id="Línea_153" data-name="Línea 153" x2="246.112" transform="translate(580 3512.035)" fill="none" stroke="#000" stroke-linecap="round" stroke-linejoin="round" stroke-width="1" stroke-dasharray="0 4"/>
    <line id="Línea_154" data-name="Línea 154" x2="246.112" transform="translate(580 3692.809)" fill="none" stroke="#000" stroke-linecap="round" stroke-linejoin="round" stroke-width="1" stroke-dasharray="0 4"/>
    <g id="Grupo_83985" data-name="Grupo 83985" transform="translate(529.277 3487.961)">
      <path id="Trazado_114764" data-name="Trazado 114764" d="M381.467,1594.726a19.718,19.718,0,1,0,19.718-19.718A19.718,19.718,0,0,0,381.467,1594.726Z" transform="translate(-377.112 -1570.652)" fill="#45bbcc"/>
      <path id="Trazado_114765" data-name="Trazado 114765" d="M400.935,1618.55a24.074,24.074,0,1,1,24.072-24.074A24.1,24.1,0,0,1,400.935,1618.55Zm0-39.436a15.362,15.362,0,1,0,15.36,15.361A15.379,15.379,0,0,0,400.935,1579.114Z" transform="translate(-376.862 -1570.402)" fill="#fff"/>
    </g>
    <g id="Grupo_83990" data-name="Grupo 83990" transform="translate(529.277 3656.383)">
      <path id="Trazado_114764-2" data-name="Trazado 114764" d="M381.467,1594.726a19.718,19.718,0,1,0,19.718-19.718A19.718,19.718,0,0,0,381.467,1594.726Z" transform="translate(-377.112 -1570.652)" fill="#45bbcc"/>
      <path id="Trazado_114765-2" data-name="Trazado 114765" d="M400.935,1618.55a24.074,24.074,0,1,1,24.072-24.074A24.1,24.1,0,0,1,400.935,1618.55Zm0-39.436a15.362,15.362,0,1,0,15.36,15.361A15.379,15.379,0,0,0,400.935,1579.114Z" transform="translate(-376.862 -1570.402)" fill="#fff"/>
    </g>
    <g id="Grupo_83986" data-name="Grupo 83986" transform="translate(390.029 3446.86)">
      <ellipse id="Elipse_4831" data-name="Elipse 4831" cx="55.676" cy="55.676" rx="55.676" ry="55.676" transform="translate(0 109.357) rotate(-79.134)" fill="#fff"/>
      <path id="Trazado_114766" data-name="Trazado 114766" d="M295.028,1653.47a61.121,61.121,0,1,1,61.122-61.121A61.19,61.19,0,0,1,295.028,1653.47Zm0-111.353a50.232,50.232,0,1,0,50.232,50.232A50.289,50.289,0,0,0,295.028,1542.117Z" transform="translate(-229.854 -1527.175)" fill="#45bbcc"/>
    </g>
    <g id="Grupo_83989" data-name="Grupo 83989" transform="translate(390.029 3615.242)">
      <ellipse id="Elipse_4831-2" data-name="Elipse 4831" cx="55.676" cy="55.676" rx="55.676" ry="55.676" transform="translate(0 109.357) rotate(-79.134)" fill="#fff"/>
      <path id="Trazado_114766-2" data-name="Trazado 114766" d="M295.028,1653.47a61.121,61.121,0,1,1,61.122-61.121A61.19,61.19,0,0,1,295.028,1653.47Zm0-111.353a50.232,50.232,0,1,0,50.232,50.232A50.289,50.289,0,0,0,295.028,1542.117Z" transform="translate(-229.854 -1527.175)" fill="#45bbcc"/>
    </g>
    <path id="Trazado_114767" data-name="Trazado 114767" d="M719.885,1522.08V1567.9l-19.6,26.055,19.6,19.6v46.816h346.3V1522.08Z" transform="translate(134.86 1920.181)" fill="#45bbcc"/>
    <path id="Trazado_114769" data-name="Trazado 114769" d="M719.885,1522.08V1567.9l-19.6,26.055,19.6,19.6v46.816h346.3V1522.08Z" transform="translate(134.86 2100.955)" fill="#45bbcc"/>
    <path id="Trazado_114768" data-name="Trazado 114768" d="M726.794,1515.171v45.818l-19.6,26.055,19.6,19.6v46.816h346.3V1515.171Z" transform="translate(134.485 1920.557)" fill="none" stroke="#000" stroke-miterlimit="10" stroke-width="1"/>
    <path id="Trazado_114770" data-name="Trazado 114770" d="M726.794,1515.171v45.818l-19.6,26.055,19.6,19.6v46.816h346.3V1515.171Z" transform="translate(134.485 2101.33)" fill="none" stroke="#000" stroke-miterlimit="10" stroke-width="1"/>
    <text id="Planeación" transform="translate(592 2617)" fill="#12263f" font-size="16" font-family="SegoeUI-Bold, Segoe UI" font-weight="700"><tspan x="0" y="17">Planeación</tspan></text>
    <text id="Descubrimiento" transform="translate(592 2780)" fill="#12263f" font-size="16" font-family="SegoeUI-Bold, Segoe UI" font-weight="700"><tspan x="0" y="17">Descubrimiento</tspan></text>
    <text id="Análisis_y_evaluación_del_riesgo" data-name="Análisis y evaluación del riesgo" transform="translate(592 2954)" fill="#12263f" font-size="16" font-family="SegoeUI-Bold, Segoe UI" font-weight="700"><tspan x="0" y="17">Análisis y evaluación del </tspan><tspan x="0" y="41">riesgo</tspan></text>
    <text id="Definición_de_planes_de_acción" data-name="Definición de planes de acción" transform="translate(592 3129)" fill="#12263f" font-size="16" font-family="SegoeUI-Bold, Segoe UI" font-weight="700"><tspan x="0" y="17">Definición de planes de </tspan><tspan x="0" y="41">acción</tspan></text>
    <text id="Ejecución_de_plan_de_acción" data-name="Ejecución de plan de acción" transform="translate(592 3303)" fill="#12263f" font-size="16" font-family="SegoeUI-Bold, Segoe UI" font-weight="700"><tspan x="0" y="17">Ejecución de plan de acción</tspan></text>
    <text id="Verificación_de_la_efectividad" data-name="Verificación de la efectividad" transform="translate(592 3484)" fill="#12263f" font-size="16" font-family="SegoeUI-Bold, Segoe UI" font-weight="700"><tspan x="0" y="17">Verificación de la efectividad</tspan></text>
    <text id="Lecciones_aprendidas" data-name="Lecciones aprendidas" transform="translate(592 3664.774)" fill="#12263f" font-size="16" font-family="SegoeUI-Bold, Segoe UI" font-weight="700"><tspan x="0" y="17">Lecciones aprendidas</tspan></text>
    <text id="Definición_de_activos_Planeación_de_la_evaluación" data-name="Definición de activos
Planeación de la evaluación" transform="translate(918 2603)" fill="#12263f" font-size="16" font-family="SegoeUI, Segoe UI"><tspan x="0" y="17">Definición de activos</tspan><tspan x="0" y="41">Planeación de la evaluación</tspan></text>
    <text id="Recopilación_de_información_Mapeo_de_elementos" data-name="Recopilación de información
Mapeo de elementos" transform="translate(918 2782)" fill="#12263f" font-size="16" font-family="SegoeUI, Segoe UI"><tspan x="0" y="17">Recopilación de información</tspan><tspan x="0" y="41">Mapeo de elementos</tspan></text>
    <text id="Identificación_de_brechas_Determinar_impacto" data-name="Identificación de brechas
Determinar impacto" transform="translate(918 2954)" fill="#12263f" font-size="16" font-family="SegoeUI, Segoe UI"><tspan x="0" y="17">Identificación de brechas</tspan><tspan x="0" y="41">Determinar impacto</tspan></text>
    <text id="Diseño_plan_de_mitigación_Determina_controles" data-name="Diseño plan de mitigación
Determina controles" transform="translate(918 3133)" fill="#12263f" font-size="16" font-family="SegoeUI, Segoe UI"><tspan x="0" y="17">Diseño plan de mitigación</tspan><tspan x="0" y="41">Determina controles</tspan></text>
    <text id="Implementa_controles_y_acciones" data-name="Implementa controles y acciones" transform="translate(918 3312)" fill="#12263f" font-size="16" font-family="SegoeUI, Segoe UI"><tspan x="0" y="17">Implementa controles y acciones</tspan></text>
    <text id="Verifica_planes_y_acciones" data-name="Verifica planes y acciones" transform="translate(918 3486)" fill="#12263f" font-size="16" font-family="SegoeUI, Segoe UI"><tspan x="0" y="17">Verifica planes y acciones</tspan></text>
    <text id="Revaluar_y_mejorar_el_proceso_de_gestión_de_vulnerabilidades" data-name="Revaluar y mejorar el proceso de gestión de vulnerabilidades" transform="translate(918 3666.774)" fill="#12263f" font-size="16" font-family="SegoeUI, Segoe UI"><tspan x="0" y="17">Revaluar y mejorar el proceso de </tspan><tspan x="0" y="41">gestión de vulnerabilidades</tspan></text>
    <path id="Icon_awesome-check-circle" data-name="Icon awesome-check-circle" d="M10.6,5.583A5.021,5.021,0,1,1,5.583.563,5.021,5.021,0,0,1,10.6,5.583ZM5,8.242,8.728,4.517a.324.324,0,0,0,0-.458L8.27,3.6a.324.324,0,0,0-.458,0L4.774,6.639,3.355,5.22a.324.324,0,0,0-.458,0l-.458.458a.324.324,0,0,0,0,.458L4.545,8.242A.324.324,0,0,0,5,8.242Z" transform="translate(904.396 2608.416)" fill="#342287"/>
    <path id="Icon_awesome-check-circle-2" data-name="Icon awesome-check-circle" d="M10.6,5.583A5.021,5.021,0,1,1,5.583.563,5.021,5.021,0,0,1,10.6,5.583ZM5,8.242,8.728,4.517a.324.324,0,0,0,0-.458L8.27,3.6a.324.324,0,0,0-.458,0L4.774,6.639,3.355,5.22a.324.324,0,0,0-.458,0l-.458.458a.324.324,0,0,0,0,.458L4.545,8.242A.324.324,0,0,0,5,8.242Z" transform="translate(904.396 2787.417)" fill="#342287"/>
    <path id="Icon_awesome-check-circle-3" data-name="Icon awesome-check-circle" d="M10.6,5.583A5.021,5.021,0,1,1,5.583.563,5.021,5.021,0,0,1,10.6,5.583ZM5,8.242,8.728,4.517a.324.324,0,0,0,0-.458L8.27,3.6a.324.324,0,0,0-.458,0L4.774,6.639,3.355,5.22a.324.324,0,0,0-.458,0l-.458.458a.324.324,0,0,0,0,.458L4.545,8.242A.324.324,0,0,0,5,8.242Z" transform="translate(904.396 2960.416)" fill="#342287"/>
    <path id="Icon_awesome-check-circle-4" data-name="Icon awesome-check-circle" d="M10.6,5.583A5.021,5.021,0,1,1,5.583.563,5.021,5.021,0,0,1,10.6,5.583ZM5,8.242,8.728,4.517a.324.324,0,0,0,0-.458L8.27,3.6a.324.324,0,0,0-.458,0L4.774,6.639,3.355,5.22a.324.324,0,0,0-.458,0l-.458.458a.324.324,0,0,0,0,.458L4.545,8.242A.324.324,0,0,0,5,8.242Z" transform="translate(904.396 3138.313)" fill="#342287"/>
    <path id="Icon_awesome-check-circle-5" data-name="Icon awesome-check-circle" d="M10.6,5.583A5.021,5.021,0,1,1,5.583.563,5.021,5.021,0,0,1,10.6,5.583ZM5,8.242,8.728,4.517a.324.324,0,0,0,0-.458L8.27,3.6a.324.324,0,0,0-.458,0L4.774,6.639,3.355,5.22a.324.324,0,0,0-.458,0l-.458.458a.324.324,0,0,0,0,.458L4.545,8.242A.324.324,0,0,0,5,8.242Z" transform="translate(904.396 2633.416)" fill="#342287"/>
    <path id="Icon_awesome-check-circle-6" data-name="Icon awesome-check-circle" d="M10.6,5.583A5.021,5.021,0,1,1,5.583.563,5.021,5.021,0,0,1,10.6,5.583ZM5,8.242,8.728,4.517a.324.324,0,0,0,0-.458L8.27,3.6a.324.324,0,0,0-.458,0L4.774,6.639,3.355,5.22a.324.324,0,0,0-.458,0l-.458.458a.324.324,0,0,0,0,.458L4.545,8.242A.324.324,0,0,0,5,8.242Z" transform="translate(904.396 2812.417)" fill="#342287"/>
    <path id="Icon_awesome-check-circle-7" data-name="Icon awesome-check-circle" d="M10.6,5.583A5.021,5.021,0,1,1,5.583.563,5.021,5.021,0,0,1,10.6,5.583ZM5,8.242,8.728,4.517a.324.324,0,0,0,0-.458L8.27,3.6a.324.324,0,0,0-.458,0L4.774,6.639,3.355,5.22a.324.324,0,0,0-.458,0l-.458.458a.324.324,0,0,0,0,.458L4.545,8.242A.324.324,0,0,0,5,8.242Z" transform="translate(904.396 2985.416)" fill="#342287"/>
    <path id="Icon_awesome-check-circle-8" data-name="Icon awesome-check-circle" d="M10.6,5.583A5.021,5.021,0,1,1,5.583.563,5.021,5.021,0,0,1,10.6,5.583ZM5,8.242,8.728,4.517a.324.324,0,0,0,0-.458L8.27,3.6a.324.324,0,0,0-.458,0L4.774,6.639,3.355,5.22a.324.324,0,0,0-.458,0l-.458.458a.324.324,0,0,0,0,.458L4.545,8.242A.324.324,0,0,0,5,8.242Z" transform="translate(904.396 3163.313)" fill="#342287"/>
    <path id="Icon_awesome-check-circle-9" data-name="Icon awesome-check-circle" d="M10.6,5.583A5.021,5.021,0,1,1,5.583.563,5.021,5.021,0,0,1,10.6,5.583ZM5,8.242,8.728,4.517a.324.324,0,0,0,0-.458L8.27,3.6a.324.324,0,0,0-.458,0L4.774,6.639,3.355,5.22a.324.324,0,0,0-.458,0l-.458.458a.324.324,0,0,0,0,.458L4.545,8.242A.324.324,0,0,0,5,8.242Z" transform="translate(904.396 3318.416)" fill="#342287"/>
    <path id="Icon_awesome-check-circle-10" data-name="Icon awesome-check-circle" d="M10.6,5.583A5.021,5.021,0,1,1,5.583.563,5.021,5.021,0,0,1,10.6,5.583ZM5,8.242,8.728,4.517a.324.324,0,0,0,0-.458L8.27,3.6a.324.324,0,0,0-.458,0L4.774,6.639,3.355,5.22a.324.324,0,0,0-.458,0l-.458.458a.324.324,0,0,0,0,.458L4.545,8.242A.324.324,0,0,0,5,8.242Z" transform="translate(904.396 3492.917)" fill="#342287"/>
    <path id="Icon_awesome-check-circle-11" data-name="Icon awesome-check-circle" d="M10.6,5.583A5.021,5.021,0,1,1,5.583.563,5.021,5.021,0,0,1,10.6,5.583ZM5,8.242,8.728,4.517a.324.324,0,0,0,0-.458L8.27,3.6a.324.324,0,0,0-.458,0L4.774,6.639,3.355,5.22a.324.324,0,0,0-.458,0l-.458.458a.324.324,0,0,0,0,.458L4.545,8.242A.324.324,0,0,0,5,8.242Z" transform="translate(904.396 3673.69)" fill="#342287"/>
    <g id="Grupo_84004" data-name="Grupo 84004">
      <g id="mapa-mental" transform="translate(426.081 2622.637)">
        <g id="Grupo_84002" data-name="Grupo 84002" transform="translate(1.138 1.257)">
          <path id="Trazado_245440" data-name="Trazado 245440" d="M10,130H65.968v42.317H10Z" transform="translate(-10 -116.468)" fill="#faf7f5"/>
          <path id="Trazado_245441" data-name="Trazado 245441" d="M0,0H13.681V13.681H0Z" transform="matrix(0.17, -0.985, 0.985, 0.17, 28.357, 48.967)" fill="#dfedff"/>
          <path id="Trazado_245442" data-name="Trazado 245442" d="M61,342H74.651v13.651H61Z" transform="translate(-55.198 -304.352)" fill="#a0c8ff"/>
          <path id="Trazado_245443" data-name="Trazado 245443" d="M0,0H13.681V13.681H0Z" transform="matrix(0.17, -0.985, 0.985, 0.17, 11.534, 31.562)" fill="#ffe6b4"/>
          <path id="Trazado_245444" data-name="Trazado 245444" d="M10,90H65.968v4.55H10Z" transform="translate(-10 -81.019)" fill="#9de3d1"/>
          <path id="Trazado_245445" data-name="Trazado 245445" d="M331,170h13.651v13.651H331Z" transform="translate(-294.484 -151.918)" fill="#ff9c9b"/>
          <g id="Grupo_84001" data-name="Grupo 84001" transform="translate(25.265 0)">
            <circle id="Elipse_4832" data-name="Elipse 4832" cx="2.515" cy="2.515" r="2.515" transform="translate(0)" fill="#a0c8ff"/>
            <ellipse id="Elipse_4833" data-name="Elipse 4833" cx="1.886" cy="2.515" rx="1.886" ry="2.515" transform="translate(16.344 17.602)" fill="#a0c8ff"/>
          </g>
        </g>
        <g id="Grupo_84003" data-name="Grupo 84003" transform="translate(0)">
          <ellipse id="Elipse_4834" data-name="Elipse 4834" cx="0.629" cy="1.257" rx="0.629" ry="1.257" transform="translate(56.577 41.49)"/>
          <path id="Trazado_245446" data-name="Trazado 245446" d="M57.106,9.1H40.876l-8.4-6.3a3.412,3.412,0,0,0-6.714,0l-8.4,6.3H1.138A1.138,1.138,0,0,0,0,10.238V57.106a1.138,1.138,0,0,0,1.138,1.138H57.106a1.138,1.138,0,0,0,1.138-1.138V47.891a1.138,1.138,0,0,0-2.275,0v8.077H2.275V15.926H55.968V37.653a1.138,1.138,0,1,0,2.275,0V10.238A1.138,1.138,0,0,0,57.106,9.1ZM29.122,2.275a1.138,1.138,0,1,1-1.138,1.138A1.139,1.139,0,0,1,29.122,2.275Zm-2.859,3a3.408,3.408,0,0,0,5.718,0l5.1,3.828H21.159ZM2.275,13.651V11.376H55.968v2.275Z" transform="translate(0)"/>
          <path id="Trazado_245447" data-name="Trazado 245447" d="M92.138,414.275h4.55a1.138,1.138,0,1,0,0-2.275h-4.55a1.138,1.138,0,1,0,0,2.275Z" transform="translate(-80.648 -365.132)"/>
          <path id="Trazado_245448" data-name="Trazado 245448" d="M92.138,374.275h4.55a1.138,1.138,0,1,0,0-2.275h-4.55a1.138,1.138,0,1,0,0,2.275Z" transform="translate(-80.648 -329.683)"/>
          <path id="Trazado_245449" data-name="Trazado 245449" d="M302.7,399.442l-4.2-.727a1.138,1.138,0,0,0-.388,2.242l4.2.727a1.161,1.161,0,0,0,1.315-.927A1.137,1.137,0,0,0,302.7,399.442Z" transform="translate(-263.363 -353.344)"/>
          <path id="Trazado_245450" data-name="Trazado 245450" d="M305.22,359.874a1.138,1.138,0,1,0-.388,2.242l4.2.727a1.138,1.138,0,1,0,.388-2.242Z" transform="translate(-269.319 -318.921)"/>
          <path id="Trazado_245451" data-name="Trazado 245451" d="M153.954,246.309l-4.424-.766a1.138,1.138,0,1,0-.388,2.242l4.424.766a1.138,1.138,0,0,0,.388-2.242Z" transform="translate(-131.339 -217.596)"/>
          <path id="Trazado_245452" data-name="Trazado 245452" d="M160.674,207.47l-4.424-.766a1.138,1.138,0,0,0-.388,2.242l4.424.766a1.138,1.138,0,1,0,.388-2.242Z" transform="translate(-137.295 -183.175)"/>
          <path id="Trazado_245453" data-name="Trazado 245453" d="M90.516,175.923H96.5a1.138,1.138,0,0,0,1.138-1.138V161.135A1.138,1.138,0,0,0,96.5,160H82.852a1.138,1.138,0,0,0-1.138,1.138v6.28a13.88,13.88,0,0,1-7.758,1.214l.859-4.97a1.138,1.138,0,0,0-.927-1.315l-13.481-2.331a1.137,1.137,0,0,0-1.315.927l-2.331,13.481a1.138,1.138,0,0,0,.927,1.315l13.481,2.331a1.161,1.161,0,0,0,1.315-.927l1.084-6.269a15.345,15.345,0,0,0,8.146-.992v4.906a1.138,1.138,0,0,0,1.138,1.138h5.175a5.294,5.294,0,0,1-3.487,2.757l-7.3-1.261a1.138,1.138,0,0,0-1.315.927l-1.015,5.873c-1.452,2.243-5.619,2.449-7.987,2.282v-5.8a1.138,1.138,0,0,0-1.138-1.138H52.138A1.138,1.138,0,0,0,51,180.7v13.651a1.138,1.138,0,0,0,1.138,1.138H65.788a1.138,1.138,0,0,0,1.138-1.138v-5.576a15.14,15.14,0,0,0,7.4-1.158l-.728,4.209a1.138,1.138,0,0,0,.927,1.315l13.481,2.331a1.161,1.161,0,0,0,1.315-.927l2.331-13.481a1.138,1.138,0,0,0-.927-1.315l-2.517-.435A8.369,8.369,0,0,0,90.516,175.923Zm-20.079-.291L59.2,173.689l1.943-11.24,11.24,1.943ZM90.815,163.41a1.138,1.138,0,1,1-1.138-1.138A1.139,1.139,0,0,1,90.815,163.41Zm-6.825-1.138H86.46a3.469,3.469,0,0,0-.1,1.921,19.655,19.655,0,0,1-2.367,1.914Zm0,6.506a20.732,20.732,0,0,0,3.625-2.652,3.411,3.411,0,0,0,5.28-3.854h2.471v11.376H83.989ZM64.651,193.214H53.275V181.838H64.651Zm22.622-.177-11.24-1.943,1.943-11.24,6.389,1.1.016,0,4.835.836Z" transform="translate(-45.198 -141.796)"/>
        </g>
      </g>
      <rect id="Rectángulo_34429" data-name="Rectángulo 34429" width="68" height="68" transform="translate(421 2618)" fill="none"/>
    </g>
    <g id="Grupo_84005" data-name="Grupo 84005" transform="translate(0 166)">
      <rect id="Rectángulo_34429-2" data-name="Rectángulo 34429" width="68" height="68" transform="translate(421 2618)" fill="none"/>
      <g id="descubrir" transform="translate(426.565 2623.252)">
        <g id="Filled_14_" transform="translate(0.835 0.835)">
          <path id="Trazado_245454" data-name="Trazado 245454" d="M0,0H4.452V4.452H0Z" transform="translate(28.708 31.862) rotate(-45)" fill="#c8d1da"/>
          <circle id="Elipse_4835" data-name="Elipse 4835" cx="17.807" cy="17.807" r="17.807" fill="#757575"/>
          <circle id="Elipse_4836" data-name="Elipse 4836" cx="14.468" cy="14.468" r="14.468" transform="translate(3.339 3.339)" fill="#c8d1da"/>
          <path id="Trazado_245455" data-name="Trazado 245455" d="M51.968,165.3A14.488,14.488,0,0,1,37.6,152.5a14.468,14.468,0,1,0,28.742,0A14.488,14.488,0,0,1,51.968,165.3Z" transform="translate(-34.161 -136.363)" fill="#92a2b5"/>
          <path id="Trazado_245456" data-name="Trazado 245456" d="M107.5,156.4l8.9-4.452-4.452-4.452Z" transform="translate(-96.371 -131.919)" fill="#bdedd4"/>
          <path id="Trazado_245457" data-name="Trazado 245457" d="M147.5,111.952l4.452,4.452,4.452-8.9Z" transform="translate(-131.919 -96.371)" fill="#fcf5be"/>
          <path id="Trazado_245458" data-name="Trazado 245458" d="M303.261,303.261a4.452,4.452,0,0,1-6.3,0l-17.313-17.313,6.3-6.3,17.313,17.313a4.452,4.452,0,0,1,0,6.3Z" transform="translate(-249.364 -249.364)" fill="#ed9c87"/>
          <path id="Trazado_245459" data-name="Trazado 245459" d="M304.476,332.01a4.452,4.452,0,0,1-6.3,0l-16.251-16.251-2.277,2.277,17.313,17.313a4.451,4.451,0,0,0,7.59-3.422C304.529,331.955,304.5,331.983,304.476,332.01Z" transform="translate(-249.364 -281.452)" fill="#e46a4a"/>
        </g>
        <g id="Grupo_84014" data-name="Grupo 84014" transform="translate(6.678 6.678)">
          <path id="Trazado_245460" data-name="Trazado 245460" d="M160,60h1.669v1.669H160Z" transform="translate(-148.871 -60)" fill="#fff"/>
          <path id="Trazado_245461" data-name="Trazado 245461" d="M160,260h1.669v1.669H160Z" transform="translate(-148.871 -237.742)" fill="#fff"/>
          <path id="Trazado_245462" data-name="Trazado 245462" d="M60,160h1.669v1.669H60Z" transform="translate(-60 -148.871)" fill="#fff"/>
          <path id="Trazado_245463" data-name="Trazado 245463" d="M260,160h1.669v1.669H260Z" transform="translate(-237.742 -148.871)" fill="#fff"/>
          <path id="Trazado_245464" data-name="Trazado 245464" d="M0,0H1.669V1.669H0Z" transform="translate(44.344 45.539) rotate(-45)" fill="#fff"/>
          <path id="Trazado_245465" data-name="Trazado 245465" d="M0,0H1.669V1.669H0Z" transform="translate(41.984 43.178) rotate(-45)" fill="#fff"/>
        </g>
        <g id="Outline_14_" transform="translate(0 0)">
          <path id="Trazado_245466" data-name="Trazado 245466" d="M77.243,1.669a17.06,17.06,0,0,1,16.29,12.192l1.6-.469a18.78,18.78,0,0,0-6.619-9.6,18.646,18.646,0,0,0-22.576.022l1.013,1.327a16.816,16.816,0,0,1,10.29-3.474Z" transform="translate(-58.601 0)"/>
          <path id="Trazado_245467" data-name="Trazado 245467" d="M1.669,58.086A17.024,17.024,0,0,1,7.134,45.611L6,44.384A18.645,18.645,0,0,0,10.368,74.8l.742-1.5a16.884,16.884,0,0,1-9.44-15.214Z" transform="translate(0 -39.444)"/>
          <path id="Trazado_245468" data-name="Trazado 245468" d="M45.3,30a15.3,15.3,0,1,0,15.3,15.3A15.32,15.32,0,0,0,45.3,30Zm0,28.936A13.633,13.633,0,1,1,58.936,45.3,13.649,13.649,0,0,1,45.3,58.936Z" transform="translate(-26.661 -26.661)"/>
          <path id="Trazado_245469" data-name="Trazado 245469" d="M90.729,107.818l11.392-5.7,5.7-11.392-11.392,5.7Zm13.355-13.355-2.814,5.628-2.814-2.814Zm-3.994,6.808-5.628,2.814,2.814-5.628Z" transform="translate(-80.632 -80.633)"/>
          <path id="Trazado_245470" data-name="Trazado 245470" d="M150.892,168.342l-8.487-8.487-1.18,1.18,8.487,8.487a3.617,3.617,0,1,1-5.115,5.115l-14.362-14.362,5.115-5.115,4.695,4.695,1.18-1.18-8.236-8.236-1.574,1.574-2.042-2.042a18.539,18.539,0,0,0,3.48-10.833,18.789,18.789,0,0,0-.338-3.552l-1.639.316a16.988,16.988,0,0,1-16.664,20.207,16.9,16.9,0,0,1-6.076-1.12l-.6,1.559a18.644,18.644,0,0,0,17.507-2.25l2.042,2.042-1.574,1.574,17.9,17.9a5.286,5.286,0,0,0,7.476-7.476ZM126.366,153.26a18.818,18.818,0,0,0,1.967-1.967l1.9,1.9-1.967,1.967Zm1.507,4.655,5.115-5.115,1.18,1.18-5.115,5.115Z" transform="translate(-95.57 -120.496)"/>
          <path id="Trazado_245471" data-name="Trazado 245471" d="M52,341h1.669v1.669H52Z" transform="translate(-46.213 -303.049)"/>
          <path id="Trazado_245472" data-name="Trazado 245472" d="M52,391h1.669v1.669H52Z" transform="translate(-46.213 -347.485)"/>
          <path id="Trazado_245473" data-name="Trazado 245473" d="M77,366h1.669v1.669H77Z" transform="translate(-68.431 -325.267)"/>
          <path id="Trazado_245474" data-name="Trazado 245474" d="M27,366h1.669v1.669H27Z" transform="translate(-23.995 -325.267)"/>
          <path id="Trazado_245475" data-name="Trazado 245475" d="M202,371h1.669v1.669H202Z" transform="translate(-179.519 -329.711)"/>
          <path id="Trazado_245476" data-name="Trazado 245476" d="M202,421h1.669v1.669H202Z" transform="translate(-179.519 -374.146)"/>
          <path id="Trazado_245477" data-name="Trazado 245477" d="M227,396h1.669v1.669H227Z" transform="translate(-201.737 -351.928)"/>
          <path id="Trazado_245478" data-name="Trazado 245478" d="M177,396h1.669v1.669H177Z" transform="translate(-157.301 -351.928)"/>
          <path id="Trazado_245479" data-name="Trazado 245479" d="M341,52h1.669v1.669H341Z" transform="translate(-303.049 -46.213)"/>
          <path id="Trazado_245480" data-name="Trazado 245480" d="M391,52h1.669v1.669H391Z" transform="translate(-347.485 -46.213)"/>
          <path id="Trazado_245481" data-name="Trazado 245481" d="M366,77h1.669v1.669H366Z" transform="translate(-325.267 -68.431)"/>
          <path id="Trazado_245482" data-name="Trazado 245482" d="M366,27h1.669v1.669H366Z" transform="translate(-325.267 -23.995)"/>
          <path id="Trazado_245483" data-name="Trazado 245483" d="M371,202h1.669v1.669H371Z" transform="translate(-329.711 -179.519)"/>
          <path id="Trazado_245484" data-name="Trazado 245484" d="M421,202h1.669v1.669H421Z" transform="translate(-374.146 -179.519)"/>
          <path id="Trazado_245485" data-name="Trazado 245485" d="M396,227h1.669v1.669H396Z" transform="translate(-351.928 -201.737)"/>
          <path id="Trazado_245486" data-name="Trazado 245486" d="M396,177h1.669v1.669H396Z" transform="translate(-351.928 -157.301)"/>
        </g>
      </g>
    </g>
    <g id="Grupo_84006" data-name="Grupo 84006" transform="translate(0 336)">
      <rect id="Rectángulo_34429-3" data-name="Rectángulo 34429" width="68" height="68" transform="translate(421 2618)" fill="none"/>
      <g id="evaluacion_1_" data-name="evaluacion(1)" transform="translate(429.739 2622.729)">
        <path id="Trazado_245487" data-name="Trazado 245487" d="M39.836,27.36V9.884A3.884,3.884,0,0,0,35.952,6H4.884A3.884,3.884,0,0,0,1,9.884V50.661a3.884,3.884,0,0,0,3.884,3.884h17.69Z" transform="translate(-0.029 -0.175)" fill="#936155"/>
        <path id="Trazado_245488" data-name="Trazado 245488" d="M36.069,31.36V10.971A.971.971,0,0,0,35.1,10H5.971A.971.971,0,0,0,5,10.971V49.807a.971.971,0,0,0,.971.971H24.418Z" transform="translate(-0.146 -0.291)" fill="#fff"/>
        <path id="Trazado_245489" data-name="Trazado 245489" d="M27.534,5.854V9.738a.971.971,0,0,1-.971.971H12.971A.971.971,0,0,1,12,9.738V5.854a.971.971,0,0,1,.971-.971H15.01a4.854,4.854,0,0,1,9.515,0h2.039a.971.971,0,0,1,.971.971Z" transform="translate(-0.349 -0.029)" fill="#d4edf8"/>
        <path id="Trazado_245490" data-name="Trazado 245490" d="M53.782,58.1H27.175a4.233,4.233,0,0,1-3.53-6.474l13.3-21.635a4.129,4.129,0,0,1,7.062,0l13.3,21.635A4.233,4.233,0,0,1,53.782,58.1Z" transform="translate(-0.67 -0.815)" fill="#f2be3a"/>
        <rect id="Rectángulo_34430" data-name="Rectángulo 34430" width="3.884" height="12.622" rx="1.942" transform="translate(37.865 33.01)" fill="#fff"/>
        <circle id="Elipse_4837" data-name="Elipse 4837" cx="1.942" cy="1.942" r="1.942" transform="translate(37.865 49.515)" fill="#fff"/>
        <g id="Grupo_84015" data-name="Grupo 84015" transform="translate(0 -0.006)">
          <path id="Trazado_245491" data-name="Trazado 245491" d="M48.316,35.415a.971.971,0,1,0-1.651,1.016l9.154,14.887a3.271,3.271,0,0,1,.07,3.351,3.149,3.149,0,0,1-2.776,1.644H26.505a3.147,3.147,0,0,1-2.772-1.643,3.273,3.273,0,0,1,.069-3.353L37.1,29.682a3.159,3.159,0,0,1,5.408,0l1.761,2.865a.971.971,0,1,0,1.651-1.016L44.16,28.664a5.091,5.091,0,0,0-3.383-2.347V9.709a4.86,4.86,0,0,0-4.854-4.854H27.886a1.935,1.935,0,0,0-1.672-.971h-1.3a5.825,5.825,0,0,0-10.989,0h-1.3a1.935,1.935,0,0,0-1.672.971h-6.1A4.86,4.86,0,0,0,0,9.709V50.486a4.86,4.86,0,0,0,4.854,4.854H21.9c.045.091.081.185.131.275a5.065,5.065,0,0,0,4.472,2.638H53.118a5.066,5.066,0,0,0,4.466-2.639,5.189,5.189,0,0,0-.112-5.314ZM38.836,9.709V26.317a5.031,5.031,0,0,0-1.942.818V10.68a1.942,1.942,0,0,0-1.942-1.942h-6.8V6.8h7.767a2.913,2.913,0,0,1,2.913,2.913ZM12.622,5.825H14.66a.971.971,0,0,0,.952-.777,3.884,3.884,0,0,1,7.61,0,.971.971,0,0,0,.952.777h2.039V9.709H12.622Zm13.593,5.825a1.935,1.935,0,0,0,1.672-.971h7.066V29.473L22.622,49.515H5.825V10.68H10.95a1.935,1.935,0,0,0,1.672.971ZM4.854,53.4a2.913,2.913,0,0,1-2.913-2.913V9.709A2.913,2.913,0,0,1,4.854,6.8H10.68V8.738H5.825A1.942,1.942,0,0,0,3.884,10.68V49.515a1.942,1.942,0,0,0,1.942,1.942h15.79a5.146,5.146,0,0,0-.238,1.942Z" transform="translate(0 0.006)"/>
          <path id="Trazado_245492" data-name="Trazado 245492" d="M43.825,35.913a2.913,2.913,0,0,0-5.825,0v8.738a2.913,2.913,0,0,0,5.825,0Zm-1.942,8.738a.971.971,0,1,1-1.942,0V35.913a.971.971,0,1,1,1.942,0Z" transform="translate(-1.106 -0.955)"/>
          <path id="Trazado_245493" data-name="Trazado 245493" d="M40.913,50a2.913,2.913,0,1,0,2.913,2.913A2.913,2.913,0,0,0,40.913,50Zm0,3.884a.971.971,0,1,1,.971-.971A.971.971,0,0,1,40.913,53.884Z" transform="translate(-1.106 -1.449)"/>
          <path id="Trazado_245494" data-name="Trazado 245494" d="M19.971,18.942H32.593a.971.971,0,0,0,0-1.942H19.971a.971.971,0,0,0,0,1.942Z" transform="translate(-0.553 -0.489)"/>
          <path id="Trazado_245495" data-name="Trazado 245495" d="M19.971,22.942H25.8A.971.971,0,0,0,25.8,21H19.971a.971.971,0,0,0,0,1.942Z" transform="translate(-0.553 -0.605)"/>
          <path id="Trazado_245496" data-name="Trazado 245496" d="M19.971,29.942H32.593a.971.971,0,0,0,0-1.942H19.971a.971.971,0,0,0,0,1.942Z" transform="translate(-0.553 -0.809)"/>
          <path id="Trazado_245497" data-name="Trazado 245497" d="M19.971,33.942H25.8A.971.971,0,0,0,25.8,32H19.971a.971.971,0,0,0,0,1.942Z" transform="translate(-0.553 -0.925)"/>
          <path id="Trazado_245498" data-name="Trazado 245498" d="M19.971,40.942h6.8a.971.971,0,0,0,0-1.942h-6.8a.971.971,0,0,0,0,1.942Z" transform="translate(-0.553 -1.129)"/>
          <path id="Trazado_245499" data-name="Trazado 245499" d="M19.971,44.942h3.884a.971.971,0,0,0,0-1.942H19.971a.971.971,0,0,0,0,1.942Z" transform="translate(-0.553 -1.246)"/>
          <path id="Trazado_245500" data-name="Trazado 245500" d="M9.284,21.11a.971.971,0,0,0,0,1.373l1.942,1.942a.971.971,0,0,0,.686.284.931.931,0,0,0,.155-.013.971.971,0,0,0,.714-.524L16.665,16.4a.971.971,0,1,0-1.738-.868L11.647,22.1l-.989-.989a.971.971,0,0,0-1.373,0Z" transform="translate(-0.262 -0.431)"/>
          <path id="Trazado_245501" data-name="Trazado 245501" d="M16.23,26.1a.971.971,0,0,0-1.3.435L11.647,33.1l-.989-.989a.971.971,0,1,0-1.373,1.373l1.942,1.942a.971.971,0,0,0,.686.284.931.931,0,0,0,.155-.013.971.971,0,0,0,.714-.524L16.665,27.4A.971.971,0,0,0,16.23,26.1Z" transform="translate(-0.262 -0.751)"/>
          <path id="Trazado_245502" data-name="Trazado 245502" d="M16.23,37.1a.971.971,0,0,0-1.3.435l-3.281,6.562-.989-.989a.971.971,0,1,0-1.373,1.373l1.942,1.942a.971.971,0,0,0,.686.289.931.931,0,0,0,.155-.013.971.971,0,0,0,.714-.524L16.665,38.4A.971.971,0,0,0,16.23,37.1Z" transform="translate(-0.262 -1.071)"/>
        </g>
      </g>
    </g>
    <g id="Grupo_84007" data-name="Grupo 84007" transform="translate(0 505)">
      <rect id="Rectángulo_34429-4" data-name="Rectángulo 34429" width="68" height="68" transform="translate(421 2618)" fill="none"/>
      <g id="plan-de-accion_1_" data-name="plan-de-accion(1)" transform="translate(382.117 2622.747)">
        <path id="Trazado_245503" data-name="Trazado 245503" d="M73.441,35.969h41.588V64.262H73.441Z" transform="translate(-21.149 -31.872)" fill="#f9f6f9"/>
        <path id="Trazado_245504" data-name="Trazado 245504" d="M73.441,267.124h41.588v1.963H73.441Z" transform="translate(-21.149 -236.698)" fill="#dddaec"/>
        <path id="Trazado_245505" data-name="Trazado 245505" d="M73.441,35.969h41.588v1.963H73.441Z" transform="translate(-21.149 -31.872)" fill="#dddaec"/>
        <path id="Trazado_245506" data-name="Trazado 245506" d="M102.1,7.5H57.362a.289.289,0,0,0-.289.289v2.665a.289.289,0,0,0,.289.289H102.1a.289.289,0,0,0,.289-.289V7.789A.289.289,0,0,0,102.1,7.5Z" transform="translate(-6.646 -6.646)" fill="#365e7d"/>
        <path id="Trazado_245507" data-name="Trazado 245507" d="M102.1,284.359H57.362a.289.289,0,0,0-.289.289v2.665a.289.289,0,0,0,.289.289H102.1a.289.289,0,0,0,.289-.289v-2.665A.289.289,0,0,0,102.1,284.359Z" transform="translate(-6.646 -251.969)" fill="#365e7d"/>
        <path id="Trazado_245508" data-name="Trazado 245508" d="M434.657,7.5h-2.279a.289.289,0,0,1,.289.289v2.665a.289.289,0,0,1-.289.289h2.279a.289.289,0,0,0,.289-.289V7.789A.289.289,0,0,0,434.657,7.5Z" transform="translate(-339.202 -6.646)" fill="#2b4d66"/>
        <path id="Trazado_245509" data-name="Trazado 245509" d="M434.657,284.359h-2.279a.289.289,0,0,1,.289.289v2.665a.289.289,0,0,1-.289.289h2.279a.289.289,0,0,0,.289-.289v-2.665A.289.289,0,0,0,434.657,284.359Z" transform="translate(-339.202 -251.969)" fill="#2b4d66"/>
        <path id="Trazado_245510" data-name="Trazado 245510" d="M181.26,316.524H162.628a1.489,1.489,0,0,1-1.489-1.489v-2.208h21.61v2.208A1.489,1.489,0,0,1,181.26,316.524Z" transform="translate(-98.858 -277.195)" fill="#4a80aa"/>
        <path id="Trazado_245511" data-name="Trazado 245511" d="M315.949,312.827v2.208a1.489,1.489,0,0,1-1.489,1.489h2.657a1.489,1.489,0,0,0,1.489-1.489v-2.208Z" transform="translate(-234.715 -277.195)" fill="#407093"/>
        <g id="Grupo_84016" data-name="Grupo 84016" transform="translate(58.971 39.329)">
          <path id="Trazado_245512" data-name="Trazado 245512" d="M134.98,363.418h-2.041a.853.853,0,0,1-.8-1.154l6.4-16.982H142.4l-6.626,17.583a.853.853,0,0,1-.8.552Z" transform="translate(-132.085 -345.283)" fill="#365e7d"/>
          <path id="Trazado_245513" data-name="Trazado 245513" d="M296.75,363.418h2.041a.853.853,0,0,0,.8-1.154l-6.4-16.982h-3.863l6.626,17.583A.853.853,0,0,0,296.75,363.418Z" transform="translate(-271.416 -345.283)" fill="#365e7d"/>
          <path id="Trazado_245514" data-name="Trazado 245514" d="M241.82,360.98h-2a.827.827,0,0,1-.827-.827v-14.87h3.658v14.87A.827.827,0,0,1,241.82,360.98Z" transform="translate(-226.812 -345.283)" fill="#365e7d"/>
        </g>
        <path id="Trazado_245515" data-name="Trazado 245515" d="M182.641,347.131H186.5l.7-1.848h-3.863Z" transform="translate(-117.911 -305.954)" fill="#2b4d66"/>
        <path id="Trazado_245516" data-name="Trazado 245516" d="M293.189,345.283h-3.863l.7,1.848h3.863Z" transform="translate(-212.444 -305.954)" fill="#2b4d66"/>
        <path id="Trazado_245517" data-name="Trazado 245517" d="M238.989,345.283h3.658v1.848h-3.658Z" transform="translate(-167.841 -305.954)" fill="#2b4d66"/>
        <g id="Grupo_84020" data-name="Grupo 84020" transform="translate(66.829 7.27)">
          <g id="Grupo_84017" data-name="Grupo 84017" transform="translate(0)">
            <path id="Trazado_245518" data-name="Trazado 245518" d="M212.679,69.29H201.973a.9.9,0,0,1-.9-.9V64.729a.9.9,0,0,1,.9-.9h10.706a.9.9,0,0,1,.9.9v3.657A.9.9,0,0,1,212.679,69.29Z" transform="translate(-201.069 -63.825)" fill="#dd636e"/>
            <path id="Trazado_245519" data-name="Trazado 245519" d="M282.311,63.825h-2.584a.913.913,0,0,1,.97.842v3.78a.913.913,0,0,1-.97.842h2.584a.913.913,0,0,0,.97-.842v-3.78A.913.913,0,0,0,282.311,63.825Z" transform="translate(-270.768 -63.825)" fill="#da4a54"/>
          </g>
          <g id="Grupo_84018" data-name="Grupo 84018" transform="translate(0 8.241)">
            <path id="Trazado_245520" data-name="Trazado 245520" d="M212.679,141.64H201.973a.9.9,0,0,1-.9-.9v-3.657a.9.9,0,0,1,.9-.9h10.706a.9.9,0,0,1,.9.9v3.657A.9.9,0,0,1,212.679,141.64Z" transform="translate(-201.069 -136.175)" fill="#dd636e"/>
            <path id="Trazado_245521" data-name="Trazado 245521" d="M282.311,136.176h-2.584a.913.913,0,0,1,.97.842v3.78a.913.913,0,0,1-.97.842h2.584a.913.913,0,0,0,.97-.842v-3.78A.913.913,0,0,0,282.311,136.176Z" transform="translate(-270.768 -136.176)" fill="#da4a54"/>
          </g>
          <g id="Grupo_84019" data-name="Grupo 84019" transform="translate(0 16.482)">
            <path id="Trazado_245522" data-name="Trazado 245522" d="M212.679,213.99H201.973a.9.9,0,0,1-.9-.9v-3.657a.9.9,0,0,1,.9-.9h10.706a.9.9,0,0,1,.9.9v3.657A.9.9,0,0,1,212.679,213.99Z" transform="translate(-201.069 -208.525)" fill="#dd636e"/>
            <path id="Trazado_245523" data-name="Trazado 245523" d="M282.311,208.526h-2.584a.913.913,0,0,1,.97.842v3.78a.913.913,0,0,1-.97.842h2.584a.913.913,0,0,0,.97-.842v-3.78A.913.913,0,0,0,282.311,208.526Z" transform="translate(-270.768 -208.526)" fill="#da4a54"/>
          </g>
        </g>
        <g id="Grupo_84021" data-name="Grupo 84021" transform="translate(49.573 0)">
          <path id="Trazado_245524" data-name="Trazado 245524" d="M93.88,25.861a.854.854,0,0,0,.854-.854V4.951h.721A1.145,1.145,0,0,0,96.6,3.808V1.143A1.145,1.145,0,0,0,95.455,0H59.563a.854.854,0,1,0,0,1.709H94.89V3.243H51.282V1.709h4.866a.854.854,0,1,0,0-1.709H50.716a1.145,1.145,0,0,0-1.143,1.143V3.808a1.145,1.145,0,0,0,1.143,1.143h.721V31.535h-.721a1.145,1.145,0,0,0-1.143,1.143v2.665a1.145,1.145,0,0,0,1.143,1.143h10.71V37.84a2.346,2.346,0,0,0,2.344,2.344h.422l-2.785,7.39a.854.854,0,1,0,1.6.6l3.012-7.993h2.038L61.866,56.61l-2.039,0,1.892-5.021a.854.854,0,1,0-1.6-.6L58.228,56.01a1.707,1.707,0,0,0,1.6,2.309h2.041a1.715,1.715,0,0,0,1.6-1.105l6.418-17.03h.413V54.2a1.683,1.683,0,0,0,1.682,1.682h2A1.683,1.683,0,0,0,75.661,54.2V40.183h.63l6.418,17.03a1.715,1.715,0,0,0,1.6,1.105h2.041a1.707,1.707,0,0,0,1.6-2.309L81.98,40.183H82.4a2.346,2.346,0,0,0,2.344-2.344V36.487h10.71A1.145,1.145,0,0,0,96.6,35.343V32.679a1.145,1.145,0,0,0-1.143-1.143h-.721V28.423a.854.854,0,1,0-1.709,0v3.112H53.146V4.951h39.88V25.007a.854.854,0,0,0,.854.854ZM73.952,54.172H72V40.183h1.95ZM86.347,56.61h-2.04l-6.19-16.427h2.038Zm-3.31-18.77a.636.636,0,0,1-.635.635H63.77a.636.636,0,0,1-.635-.635V36.487h19.9Zm11.853-4.6v1.534H51.282V33.244Z" transform="translate(-49.573 0)"/>
          <path id="Trazado_245525" data-name="Trazado 245525" d="M207.791,58.083a1.76,1.76,0,0,0-1.758-1.758H195.327a1.76,1.76,0,0,0-1.758,1.758V61.74a1.76,1.76,0,0,0,1.758,1.758h10.706a1.76,1.76,0,0,0,1.758-1.758Zm-1.709,3.657a.05.05,0,0,1-.05.05H195.327a.05.05,0,0,1-.05-.05V58.083a.05.05,0,0,1,.05-.05h10.706a.05.05,0,0,1,.05.05Z" transform="translate(-177.167 -49.909)"/>
          <path id="Trazado_245526" data-name="Trazado 245526" d="M207.791,130.433a1.76,1.76,0,0,0-1.758-1.758H195.327a1.76,1.76,0,0,0-1.758,1.758v3.657a1.76,1.76,0,0,0,1.758,1.758h10.706a1.76,1.76,0,0,0,1.758-1.758Zm-1.709,3.657a.05.05,0,0,1-.05.05H195.327a.05.05,0,0,1-.05-.05v-3.657a.05.05,0,0,1,.05-.05h10.706a.05.05,0,0,1,.05.05Z" transform="translate(-177.167 -114.018)"/>
          <path id="Trazado_245527" data-name="Trazado 245527" d="M206.034,201.026H195.328a1.76,1.76,0,0,0-1.758,1.758v3.657a1.76,1.76,0,0,0,1.758,1.758h10.706a1.76,1.76,0,0,0,1.758-1.758v-3.657A1.76,1.76,0,0,0,206.034,201.026Zm.049,5.415a.05.05,0,0,1-.05.05H195.328a.05.05,0,0,1-.05-.05v-3.657a.05.05,0,0,1,.05-.05h10.706a.05.05,0,0,1,.05.05Z" transform="translate(-177.168 -178.128)"/>
          <path id="Trazado_245528" data-name="Trazado 245528" d="M128.132,99.847a.855.855,0,0,0,1.2-.113l1.275-1.54a.854.854,0,0,0,0-1.09l-1.275-1.54a.854.854,0,1,0-1.316,1.09l.116.14h-2.679V82.022h3.858a.854.854,0,0,0,0-1.709h-3.979a1.589,1.589,0,0,0-1.587,1.587V96.916a1.589,1.589,0,0,0,1.587,1.587h2.8l-.116.14A.855.855,0,0,0,128.132,99.847Z" transform="translate(-115.299 -71.165)"/>
          <path id="Trazado_245529" data-name="Trazado 245529" d="M327.774,88.334a.854.854,0,1,0,0,1.709h3.979a1.589,1.589,0,0,0,1.587-1.587V73.439a1.589,1.589,0,0,0-1.587-1.587h-2.8l.116-.14a.854.854,0,0,0-1.316-1.09l-1.275,1.54a.854.854,0,0,0,0,1.09l1.275,1.54a.854.854,0,0,0,1.316-1.09l-.116-.14h2.679V88.334Z" transform="translate(-294.764 -62.303)"/>
        </g>
      </g>
    </g>
    <g id="Grupo_84009" data-name="Grupo 84009" transform="translate(0 679)">
      <rect id="Rectángulo_34429-5" data-name="Rectángulo 34429" width="68" height="68" transform="translate(421 2618)" fill="none"/>
      <g id="ejecutivo" transform="translate(423 2620)">
        <circle id="Elipse_4839" data-name="Elipse 4839" cx="8" cy="8" r="8" transform="translate(3 31)" fill="#adc4e6"/>
        <circle id="Elipse_4840" data-name="Elipse 4840" cx="3" cy="3" r="3" transform="translate(8 35)" fill="#ffdbac"/>
        <path id="Trazado_245546" data-name="Trazado 245546" d="M14.54,42.17A5.72,5.72,0,0,0,11,41c-2.76,0-5,1.79-5,4v.24a7.982,7.982,0,0,0,10,0V45A3.667,3.667,0,0,0,14.54,42.17Z" fill="#cfcfcf"/>
        <circle id="Elipse_4841" data-name="Elipse 4841" cx="8" cy="8" r="8" transform="translate(45 31)" fill="#cfcfcf"/>
        <circle id="Elipse_4842" data-name="Elipse 4842" cx="8" cy="8" r="8" transform="translate(3 3)" fill="#adc4e6"/>
        <circle id="Elipse_4843" data-name="Elipse 4843" cx="8" cy="8" r="8" transform="translate(45 3)" fill="#ffe38f"/>
        <path id="Trazado_245547" data-name="Trazado 245547" d="M38.969,25.706,41,25.68l-.046-3.591-2.031.026a7.133,7.133,0,0,0-.788-1.837l1.417-1.454L36.98,16.317l-1.417,1.454a7.154,7.154,0,0,0-1.857-.741L33.68,15l-3.591.046.026,2.031a7.133,7.133,0,0,0-1.837.788l-1.454-1.417L24.317,19.02l1.454,1.417a7.154,7.154,0,0,0-.741,1.857L23,22.32l.046,3.591,2.031-.026a7.133,7.133,0,0,0,.788,1.837l-1.417,1.454,2.572,2.507,1.417-1.454a7.154,7.154,0,0,0,1.857.741L30.32,33l3.591-.046-.026-2.031a7.133,7.133,0,0,0,1.837-.788l1.454,1.417,2.507-2.572-1.454-1.417a7.124,7.124,0,0,0,.74-1.857ZM32.017,26.96a3.007,3.007,0,1,1,2.968-3.046A3.007,3.007,0,0,1,32.017,26.96Z" fill="#526273"/>
        <path id="Trazado_245548" data-name="Trazado 245548" d="M35,47H29a4,4,0,0,0-4,4V61H39V51A4,4,0,0,0,35,47Z" fill="#cfcfcf"/>
        <path id="Trazado_245549" data-name="Trazado 245549" d="M25,61H39V51.35A14.992,14.992,0,0,1,25,61Z" fill="#bfbfbf"/>
        <path id="Trazado_245550" data-name="Trazado 245550" d="M32,47l-2,7,2,3,2-3Z" fill="#759acc"/>
        <path id="Trazado_245551" data-name="Trazado 245551" d="M37,42a3.178,3.178,0,0,1-.05.62,4.987,4.987,0,0,1-9.9,0A3.178,3.178,0,0,1,27,42a5,5,0,0,1,10,0Z" fill="#ffdbac"/>
        <path id="Trazado_245552" data-name="Trazado 245552" d="M32,37a5,5,0,0,0-5,5,3.178,3.178,0,0,0,.05.62,5.986,5.986,0,0,1,9.9,0A3.178,3.178,0,0,0,37,42,5,5,0,0,0,32,37Z" fill="#526273"/>
        <path id="Trazado_245553" data-name="Trazado 245553" d="M31.977,27.96h.053a4.069,4.069,0,1,0-.053,0Zm-1.436-5.408a2,2,0,0,1,1.412-.606h.027a2.008,2.008,0,0,1,.025,4.015,1.958,1.958,0,0,1-1.427-.569,2.01,2.01,0,0,1-.037-2.84Z"/>
        <path id="Trazado_245554" data-name="Trazado 245554" d="M22.987,21.32A1,1,0,0,0,22,22.333l.046,3.59a1.006,1.006,0,0,0,1.013.987l1.3-.017c.084.223.179.442.282.657l-.9.927a1,1,0,0,0,.018,1.415L26.322,32.4a1.107,1.107,0,0,0,.71.284,1,1,0,0,0,.7-.3l.9-.927q.325.147.664.265l.017,1.3a1,1,0,0,0,1,.987h.013l3.59-.046a1,1,0,0,0,.987-1.013l-.017-1.3c.223-.084.442-.179.657-.282l.927.9a1.063,1.063,0,0,0,.711.284,1,1,0,0,0,.7-.3L40.4,29.678a1,1,0,0,0-.018-1.414l-.927-.9q.147-.325.265-.664l1.295-.017A1,1,0,0,0,42,25.667l-.046-3.591a.993.993,0,0,0-1.013-.987l-1.295.017c-.084-.223-.179-.442-.282-.657l.9-.927a1,1,0,0,0-.018-1.415L37.679,15.6a1.047,1.047,0,0,0-.71-.284,1,1,0,0,0-.7.3l-.9.927q-.325-.147-.664-.265l-.017-1.3a1,1,0,0,0-.3-.7A.964.964,0,0,0,33.668,14l-3.591.046a1,1,0,0,0-.987,1.013l.017,1.3c-.223.084-.442.179-.657.282l-.927-.9a1,1,0,0,0-1.415.018L23.6,18.32a1,1,0,0,0,.018,1.414l.927.9q-.147.325-.265.664Zm2.057,1.973A1,1,0,0,0,26,22.53a6.146,6.146,0,0,1,.638-1.6,1,1,0,0,0-.17-1.214L25.732,19l1.11-1.14.738.72a1,1,0,0,0,1.218.138,6.136,6.136,0,0,1,1.58-.678,1,1,0,0,0,.738-.978L31.1,16.031l1.591-.021.013,1.031A1,1,0,0,0,33.47,18a6.146,6.146,0,0,1,1.6.638,1,1,0,0,0,1.214-.17L37,17.729l1.14,1.11-.72.738a1,1,0,0,0-.138,1.218,6.136,6.136,0,0,1,.678,1.58,1,1,0,0,0,.965.738h.013l1.031-.013.021,1.591-1.031.013a1,1,0,0,0-.958.763,6.146,6.146,0,0,1-.638,1.6,1,1,0,0,0,.17,1.214l.738.719-1.11,1.14-.738-.72a1,1,0,0,0-1.218-.138,6.136,6.136,0,0,1-1.58.678,1,1,0,0,0-.738.978l.013,1.031-1.591.021L31.3,30.956A1,1,0,0,0,30.533,30a6.146,6.146,0,0,1-1.6-.638,1,1,0,0,0-1.214.17L27,30.268l-1.14-1.11.72-.738a1,1,0,0,0,.138-1.218,6.136,6.136,0,0,1-.678-1.58.968.968,0,0,0-.978-.738l-1.031.013-.021-1.591Z"/>
        <path id="Trazado_245555" data-name="Trazado 245555" d="M11,20a9,9,0,1,0-9-9A9.011,9.011,0,0,0,11,20ZM11,4a7,7,0,1,1-7,7A7.008,7.008,0,0,1,11,4Z"/>
        <path id="Trazado_245556" data-name="Trazado 245556" d="M62,11a9,9,0,1,0-9,9A9.011,9.011,0,0,0,62,11Zm-9,7a7,7,0,1,1,7-7A7.008,7.008,0,0,1,53,18Z"/>
        <path id="Trazado_245557" data-name="Trazado 245557" d="M11,13a.932.932,0,0,0,.2-.02l5-1L15.8,10.019,12,10.78V6H10v6a1,1,0,0,0,1,1Z"/>
        <path id="Trazado_245558" data-name="Trazado 245558" d="M11,48a9,9,0,1,0-9-9A9.011,9.011,0,0,0,11,48Zm0-2a6.964,6.964,0,0,1-3.968-1.239C7.2,43.22,8.9,42,11,42a4.7,4.7,0,0,1,2.91.947,2.733,2.733,0,0,1,1.059,1.813A6.961,6.961,0,0,1,11,46ZM9,38a2,2,0,1,1,2,2A2,2,0,0,1,9,38Zm2-6a6.986,6.986,0,0,1,5.592,11.192,5.083,5.083,0,0,0-1.432-1.807,6.173,6.173,0,0,0-1.2-.719,4,4,0,1,0-5.925-.007A5.419,5.419,0,0,0,5.41,43.2,6.987,6.987,0,0,1,11,32Z"/>
        <path id="Trazado_245559" data-name="Trazado 245559" d="M53,48a9,9,0,1,0-9-9A9.011,9.011,0,0,0,53,48Zm0-16a7,7,0,1,1-7,7A7.008,7.008,0,0,1,53,32Z"/>
        <path id="Trazado_245560" data-name="Trazado 245560" d="M48,40h2v2H48Z"/>
        <path id="Trazado_245561" data-name="Trazado 245561" d="M52,38h2v4H52Z"/>
        <path id="Trazado_245562" data-name="Trazado 245562" d="M56,36h2v6H56Z"/>
        <path id="Trazado_245563" data-name="Trazado 245563" d="M53,8a1,1,0,0,1,1,1h2a3,3,0,0,0-2-2.816V5H52V6.184A2.993,2.993,0,0,0,53,12a1,1,0,1,1-1,1H50a3,3,0,0,0,2,2.816V17h2V15.816A2.993,2.993,0,0,0,53,10a1,1,0,0,1,0-2Z"/>
        <path id="Trazado_245564" data-name="Trazado 245564" d="M31,10h2v2H31Z"/>
        <path id="Trazado_245565" data-name="Trazado 245565" d="M35,10h2v2H35Z"/>
        <path id="Trazado_245566" data-name="Trazado 245566" d="M23,10h2v2H23Z"/>
        <path id="Trazado_245567" data-name="Trazado 245567" d="M27,10h2v2H27Z"/>
        <path id="Trazado_245568" data-name="Trazado 245568" d="M39,10h2v2H39Z"/>
        <path id="Trazado_245569" data-name="Trazado 245569" d="M10,22h2v2H10Z"/>
        <path id="Trazado_245570" data-name="Trazado 245570" d="M10,26h2v2H10Z"/>
        <path id="Trazado_245571" data-name="Trazado 245571" d="M52,22h2v2H52Z"/>
        <path id="Trazado_245572" data-name="Trazado 245572" d="M52,26h2v2H52Z"/>
        <path id="Trazado_245573" data-name="Trazado 245573" d="M10,50h2v2H10Z"/>
        <path id="Trazado_245574" data-name="Trazado 245574" d="M10,54h2v2H10Z"/>
        <path id="Trazado_245575" data-name="Trazado 245575" d="M14,54h2v2H14Z"/>
        <path id="Trazado_245576" data-name="Trazado 245576" d="M18,54h2v2H18Z"/>
        <path id="Trazado_245577" data-name="Trazado 245577" d="M52,50h2v2H52Z"/>
        <path id="Trazado_245578" data-name="Trazado 245578" d="M52,54h2v2H52Z"/>
        <path id="Trazado_245579" data-name="Trazado 245579" d="M48,54h2v2H48Z"/>
        <path id="Trazado_245580" data-name="Trazado 245580" d="M44,54h2v2H44Z"/>
        <path id="Trazado_245581" data-name="Trazado 245581" d="M24,51V61a1,1,0,0,0,1,1H39a1,1,0,0,0,1-1V51a4.994,4.994,0,0,0-3.721-4.813,5.758,5.758,0,0,0,1.652-3.37A4.184,4.184,0,0,0,38,42a6,6,0,0,0-12,0,3.79,3.79,0,0,0,.057.737,5.9,5.9,0,0,0,1.673,3.447A5,5,0,0,0,24,51Zm8-13a3.993,3.993,0,0,1,3.375,1.874,6.953,6.953,0,0,0-6.75,0A3.993,3.993,0,0,1,32,38Zm0,3a4.967,4.967,0,0,1,3.88,1.867,3.967,3.967,0,0,1-7.757,0A4.965,4.965,0,0,1,32,41Zm.912,12.83L32,55.2l-.912-1.367L32,50.64ZM26,51a3,3,0,0,1,3-3h1.674l-1.636,5.725a1,1,0,0,0,.129.83l2,3a1,1,0,0,0,1.665,0l2-3a1,1,0,0,0,.129-.83L33.326,48H35a3,3,0,0,1,3,3v9H26Z"/>
      </g>
    </g>
    <g id="Grupo_84010" data-name="Grupo 84010" transform="translate(0 1023)">
      <rect id="Rectángulo_34429-6" data-name="Rectángulo 34429" width="68" height="68" transform="translate(421 2618)" fill="none"/>
      <g id="aprendizaje" transform="translate(425.142 2622.142)">
        <g id="Grupo_84040" data-name="Grupo 84040" transform="translate(1.931 1.931)">
          <g id="Grupo_84024" data-name="Grupo 84024" transform="translate(9.309 19.549)">
            <path id="Trazado_245582" data-name="Trazado 245582" d="M51.1,23v5.362a4.883,4.883,0,0,1-2.69,4.366,4.936,4.936,0,0,1-2.188.512H37.135l-2.793,4.655-4.655-1.862-4.655,1.862-2.569-4.143-3.761.754A8.336,8.336,0,0,0,12,42.68V54.651a4.656,4.656,0,0,0,4.655,4.655h4.655V41.618a.934.934,0,0,1,.931-.931H46.611A11.936,11.936,0,0,0,58.546,28.753V23Z" transform="translate(-12 -23)" fill="#b4dd7f"/>
          </g>
          <g id="Grupo_84025" data-name="Grupo 84025" transform="translate(19.773 29.789)">
            <path id="Trazado_245583" data-name="Trazado 245583" d="M30.464,36.793l-4.655,1.862L23.24,34.512,25.809,34Z" transform="translate(-23.24 -34)" fill="#a0d468"/>
          </g>
          <g id="Grupo_84026" data-name="Grupo 84026" transform="translate(26.997 29.789)">
            <path id="Trazado_245584" data-name="Trazado 245584" d="M38.447,34l-2.793,4.655L31,36.793,35.655,34Z" transform="translate(-31 -34)" fill="#a0d468"/>
          </g>
          <g id="Grupo_84027" data-name="Grupo 84027" transform="translate(18.618 52.131)">
            <path id="Trazado_245585" data-name="Trazado 245585" d="M44.342,58v2.793a.934.934,0,0,1-.931.931H22V58Z" transform="translate(-22 -58)" fill="#aab2bd"/>
          </g>
          <g id="Grupo_84028" data-name="Grupo 84028" transform="translate(18.618 37.237)">
            <path id="Trazado_245586" data-name="Trazado 245586" d="M44.342,42V56.895H22V42.931A.934.934,0,0,1,22.931,42H44.342Z" transform="translate(-22 -42)" fill="#ccd1d9"/>
          </g>
          <g id="Grupo_84029" data-name="Grupo 84029" transform="translate(27.927 42.822)">
            <circle id="Elipse_4844" data-name="Elipse 4844" cx="2" cy="2" r="2" transform="translate(0 0.105)" fill="#ff826e"/>
          </g>
          <g id="Grupo_84030" data-name="Grupo 84030" transform="translate(46.546 6.516)">
            <path id="Trazado_245587" data-name="Trazado 245587" d="M53.862,14.585l.438-2.634a3.529,3.529,0,0,1,7.01.577v9.5H53.862l-.773-.773A3.727,3.727,0,0,1,52,18.626V16.447a1.867,1.867,0,0,1,1.862-1.862Z" transform="translate(-52 -9)" fill="#f0d0b4"/>
          </g>
          <g id="Grupo_84031" data-name="Grupo 84031" transform="translate(13.964)">
            <path id="Trazado_245588" data-name="Trazado 245588" d="M34.064,10.369A19.276,19.276,0,0,1,27.51,8.991l-.363-.14A4.684,4.684,0,0,0,20.724,13.2v2.765h-.931a2.769,2.769,0,0,0-1.908.754L17.3,14.363a10.077,10.077,0,0,1-.3-2.42A9.948,9.948,0,0,1,26.942,2h11a5.119,5.119,0,0,1,1.4,10.045,4.962,4.962,0,0,1-1.4.2h-.94A3.235,3.235,0,0,1,34.064,10.369Z" transform="translate(-17 -2)" fill="#656d78"/>
          </g>
          <g id="Grupo_84032" data-name="Grupo 84032" transform="translate(35.877 13.964)">
            <path id="Trazado_245589" data-name="Trazado 245589" d="M41.9,17a2.793,2.793,0,0,1,0,5.585H40.54a9.224,9.224,0,0,0,.428-2.793V17Z" transform="translate(-40.54 -17)" fill="#f0d0b4"/>
          </g>
          <g id="Grupo_84033" data-name="Grupo 84033" transform="translate(13.964 13.964)">
            <path id="Trazado_245590" data-name="Trazado 245590" d="M21.152,22.585H19.793a2.793,2.793,0,0,1,0-5.585h.931v2.793a9.224,9.224,0,0,0,.428,2.793Z" transform="translate(-17 -17)" fill="#f0d0b4"/>
          </g>
          <g id="Grupo_84034" data-name="Grupo 84034" transform="translate(22.342 25.274)">
            <path id="Trazado_245591" data-name="Trazado 245591" d="M34.406,29.15l.9,4.515-4.655,2.793L26,33.665l.9-4.515a9.289,9.289,0,0,0,7.5,0Z" transform="translate(-26 -29.15)" fill="#f0d0b4"/>
          </g>
          <g id="Grupo_84035" data-name="Grupo 84035" transform="translate(17.687 6.516)">
            <path id="Trazado_245592" data-name="Trazado 245592" d="M39.618,16.447V19.24A9.309,9.309,0,1,1,21,19.24V13.683a4.684,4.684,0,0,1,6.423-4.347l.363.14a19.276,19.276,0,0,0,6.554,1.378,3.235,3.235,0,0,0,2.942,1.871h.94a4.962,4.962,0,0,0,1.4-.2Z" transform="translate(-21 -9)" fill="#f0d0b4"/>
          </g>
          <g id="Grupo_84036" data-name="Grupo 84036" transform="translate(23.273 18.618)">
            <path id="Trazado_245593" data-name="Trazado 245593" d="M27,22h7.447A3.724,3.724,0,1,1,27,22Z" transform="translate(-27 -22)" fill="#ff826e"/>
          </g>
          <g id="Grupo_84037" data-name="Grupo 84037" transform="translate(2.83 27.201)">
            <path id="Trazado_245594" data-name="Trazado 245594" d="M10.551,31.22l-.745,3.705a.929.929,0,0,1-.912.745H6.7a.929.929,0,0,1-.912-.745L5.04,31.22a5.591,5.591,0,0,0,5.511,0Z" transform="translate(-5.04 -31.22)" fill="#aab2bd"/>
          </g>
          <g id="Grupo_84038" data-name="Grupo 84038" transform="translate(0 16.756)">
            <path id="Trazado_245595" data-name="Trazado 245595" d="M7.585,31.171a5.506,5.506,0,0,1-2.756-.726,5.585,5.585,0,1,1,5.511,0A5.506,5.506,0,0,1,7.585,31.171Z" transform="translate(-2 -20)" fill="#ffeaa7"/>
          </g>
          <g id="Grupo_84039" data-name="Grupo 84039" transform="translate(3.724 20.48)">
            <ellipse id="Elipse_4845" data-name="Elipse 4845" cx="2" cy="1.5" rx="2" ry="1.5" transform="translate(0.204 0.447)" fill="#fcd770"/>
          </g>
        </g>
        <g id="Grupo_84041" data-name="Grupo 84041" transform="translate(1 1)">
          <path id="Trazado_245596" data-name="Trazado 245596" d="M26.793,17.862a.932.932,0,0,1,.931.931h1.862a2.793,2.793,0,1,0-5.585,0h1.862A.932.932,0,0,1,26.793,17.862Z" transform="translate(-2.589 -2.036)"/>
          <path id="Trazado_245597" data-name="Trazado 245597" d="M34.793,17.862a.932.932,0,0,1,.931.931h1.862a2.793,2.793,0,1,0-5.585,0h1.862A.932.932,0,0,1,34.793,17.862Z" transform="translate(-3.142 -2.036)"/>
          <path id="Trazado_245598" data-name="Trazado 245598" d="M35.309,21.931V21H26v.931a4.655,4.655,0,0,0,9.309,0Zm-7.288.931h5.266a2.793,2.793,0,0,1-5.266,0Z" transform="translate(-2.727 -2.382)"/>
          <path id="Trazado_245599" data-name="Trazado 245599" d="M54.949,7.516a4.446,4.446,0,0,0-4.4,3.726l-.332,1.993a2.788,2.788,0,0,0-1.981,2.659v2.181A4.625,4.625,0,0,0,49.6,21.368l.5.5v4.979a3.945,3.945,0,0,1-3.943,3.944H35.036l-.613-3.065a10.3,10.3,0,0,0,4.724-5.314h.711a3.724,3.724,0,1,0,0-7.447V12.635A6.05,6.05,0,0,0,37.531,1h-11A10.878,10.878,0,0,0,15.979,14.517l.474,1.894a3.687,3.687,0,0,0-.8,2.276,3.727,3.727,0,0,0,3.724,3.724h.711a10.291,10.291,0,0,0,4.724,5.314l-.641,3.2-5.723,1.144A9.265,9.265,0,0,0,11,41.162v11.97a5.591,5.591,0,0,0,5.585,5.585H42.651a1.864,1.864,0,0,0,1.862-1.862V40.1h2.034A12.862,12.862,0,0,0,59.408,27.238V11.976a4.463,4.463,0,0,0-4.459-4.459ZM50.1,15.895a.932.932,0,0,1,.931-.931h1.862a.931.931,0,0,1,0,1.862H51.96v1.862h.931a2.793,2.793,0,0,0,0-5.585h-.763l.259-1.554a2.6,2.6,0,0,1,5.159.427v8.574H51.415l-.5-.5a2.774,2.774,0,0,1-.818-1.975ZM35.422,32.651l-1.539,2.565-2.176-.87,2.823-1.694Zm6.3-13.964a1.864,1.864,0,0,1-1.862,1.862h-.178a10.23,10.23,0,0,0,.178-1.862V16.826A1.864,1.864,0,0,1,41.72,18.687ZM19.378,20.549a1.862,1.862,0,0,1,0-3.724v1.862a10.23,10.23,0,0,0,.178,1.862Zm0-7.418v1.833a3.688,3.688,0,0,0-1.305.249l-.288-1.148a9.017,9.017,0,0,1,8.747-11.2h11a4.189,4.189,0,1,1,0,8.378h-.943a2.315,2.315,0,0,1-.733-4.51l.573-.191-.588-1.767-.573.192a4.168,4.168,0,0,0-2.856,3.961c0,.12.025.234.035.351a18.35,18.35,0,0,1-5.007-1.213l-.361-.145a5.615,5.615,0,0,0-7.7,5.213Zm1.862,5.557V13.131a3.754,3.754,0,0,1,5.145-3.485l.361.145a20.227,20.227,0,0,0,6.341,1.4,4.17,4.17,0,0,0,3.5,1.913h.943c.157,0,.311-.012.465-.023v5.609a8.378,8.378,0,0,1-16.756,0Zm8.378,10.24a10.215,10.215,0,0,0,3.053-.465l.559,2.8-3.613,2.168-3.613-2.168.559-2.8A10.215,10.215,0,0,0,29.618,28.927ZM24.793,32.7l2.737,1.642-2.188.875-1.451-2.337ZM22.171,56.855V54.993h20.48v1.862Zm20.48-3.724H22.171V40.1h20.48Zm12.174-18.65a11,11,0,0,1-8.278,3.755H22.171A1.864,1.864,0,0,0,20.309,40.1V51.269H16.585v1.862h3.724v3.724H16.585a3.727,3.727,0,0,1-3.724-3.724V41.162A7.4,7.4,0,0,1,18.815,33.9l3.126-.626,2.644,4.255,4.951-1.98.083.049.083-.049,4.963,1.985,2.929-4.883h8.563a5.849,5.849,0,0,0,2.6-.613,5.773,5.773,0,0,0,3.209-5.193V22.411h5.585v4.827a11,11,0,0,1-2.721,7.243Z" transform="translate(-1.691 -1)"/>
          <path id="Trazado_245600" data-name="Trazado 245600" d="M33.793,52.585A2.793,2.793,0,1,0,31,49.793,2.8,2.8,0,0,0,33.793,52.585Zm0-3.724a.931.931,0,1,1-.931.931A.932.932,0,0,1,33.793,48.862Z" transform="translate(-3.073 -4.178)"/>
          <path id="Trazado_245601" data-name="Trazado 245601" d="M11.1,30.952a6.516,6.516,0,1,0-7.172,0l.662,3.308a1.866,1.866,0,0,0,1.826,1.5h2.2a1.866,1.866,0,0,0,1.826-1.5Zm-8.24-5.436a4.655,4.655,0,1,1,5.585,4.561V28.138a2.793,2.793,0,1,0-1.862,0v1.939A4.663,4.663,0,0,1,2.862,25.516Zm3.724,0a.931.931,0,1,1,.931.931A.932.932,0,0,1,6.585,25.516Zm-.168,8.378-.41-2.045a6.292,6.292,0,0,0,3.016,0l-.41,2.045Z" transform="translate(-1 -2.244)"/>
          <path id="Trazado_245602" data-name="Trazado 245602" d="M7,13H8.862v3.724H7Z" transform="translate(-1.415 -1.829)"/>
          <path id="Trazado_245603" data-name="Trazado 245603" d="M0,0H1.862V3.725H0Z" transform="translate(1.03 12.448) rotate(-22.514)"/>
          <path id="Trazado_245604" data-name="Trazado 245604" d="M0,0H3.725V1.862H0Z" transform="translate(8.866 15.177) rotate(-67.486)"/>
        </g>
      </g>
    </g>
    <g id="Grupo_84022" data-name="Grupo 84022" transform="translate(0 860)">
      <rect id="Rectángulo_34429-7" data-name="Rectángulo 34429" width="68" height="68" transform="translate(421 2618)" fill="none"/>
      <g id="verificado_1_" data-name="verificado(1)" transform="translate(417.354 2622.582)">
        <g id="Grupo_84022-2" data-name="Grupo 84022" transform="translate(9.901 0.875)">
          <path id="Trazado_245530" data-name="Trazado 245530" d="M120.8,7.5v3.051l-8.664.587-9.2-.587V7.5Z" transform="translate(-92.848 -7.5)" fill="#7ca1b1"/>
          <path id="Trazado_245531" data-name="Trazado 245531" d="M222.2,7.5v3.05l-3.735.233V8.228a.729.729,0,0,0-.729-.728H222.2Z" transform="translate(-194.254 -7.5)" fill="#678d98"/>
          <path id="Trazado_245532" data-name="Trazado 245532" d="M54.553,37.173V84.138a3.532,3.532,0,0,1-3.533,3.533H20.057a3.533,3.533,0,0,1-3.534-3.533V37.173a3.533,3.533,0,0,1,3.534-3.533h1.864l13.618.9,13.3-.9H51.02a3.532,3.532,0,0,1,3.533,3.533Z" transform="translate(-16.523 -30.589)" fill="#5986cb"/>
          <path id="Trazado_245533" data-name="Trazado 245533" d="M299.159,37.169V84.134a3.532,3.532,0,0,1-3.533,3.533h-2.179a3.532,3.532,0,0,0,3.533-3.533V37.169c0-3.656-3.128-3.533-3.128-3.533h1.774A3.532,3.532,0,0,1,299.159,37.169Z" transform="translate(-261.128 -30.586)" fill="#4278c3"/>
          <path id="Trazado_245534" data-name="Trazado 245534" d="M77.771,35.414V79.969A1.774,1.774,0,0,1,76,81.743H48.581a1.773,1.773,0,0,1-1.774-1.774V35.414a1.774,1.774,0,0,1,1.774-1.774H76A1.775,1.775,0,0,1,77.771,35.414Z" transform="translate(-43.273 -30.589)" fill="#c8effe"/>
          <path id="Trazado_245535" data-name="Trazado 245535" d="M275,35.414V79.969a1.774,1.774,0,0,1-1.774,1.774H270.1a1.773,1.773,0,0,0,1.774-1.774V35.414A1.774,1.774,0,0,0,270.1,33.64h3.13A1.775,1.775,0,0,1,275,35.414Z" transform="translate(-240.503 -30.589)" fill="#99e6fc"/>
          <path id="Trazado_245536" data-name="Trazado 245536" d="M85.9,108.658h22.371v3.5H85.9Z" transform="translate(-77.807 -96.852)" fill="#7ca1b1"/>
          <path id="Trazado_245537" data-name="Trazado 245537" d="M234.728,152.209l-22.984-6.159a1.22,1.22,0,0,0-1.495.863l-8.906,33.239a1.22,1.22,0,0,0,.863,1.495L225.19,187.8a1.22,1.22,0,0,0,1.495-.863l8.906-33.239A1.22,1.22,0,0,0,234.728,152.209Z" transform="translate(-179.736 -129.843)" fill="#99e6fc"/>
          <path id="Trazado_245538" data-name="Trazado 245538" d="M210.918,110.972l-8.906,33.239a1.221,1.221,0,0,1-1.494.864l-22.985-6.159a1.222,1.222,0,0,1-.863-1.5l8.906-33.239a1.221,1.221,0,0,1,1.5-.863l22.985,6.159A1.22,1.22,0,0,1,210.918,110.972Z" transform="translate(-157.942 -92.098)" fill="#eaf6ff"/>
          <path id="Trazado_245539" data-name="Trazado 245539" d="M363.85,150.458,354.944,183.7a1.221,1.221,0,0,1-1.494.864l-3.683-.987a1.222,1.222,0,0,0,1.5-.864l8.906-33.238a1.219,1.219,0,0,0-.852-1.492l3.672.984A1.218,1.218,0,0,1,363.85,150.458Z" transform="translate(-310.875 -131.585)" fill="#c8effe"/>
          <circle id="Elipse_4838" data-name="Elipse 4838" cx="8.603" cy="8.603" r="8.603" transform="translate(25.745 29.106)" fill="#46cc8d"/>
          <path id="Trazado_245540" data-name="Trazado 245540" d="M0,0H17.206V6.9H0Z" transform="translate(31.182 16.29) rotate(15.009)" fill="#5986cb"/>
        </g>
        <g id="Grupo_84023" data-name="Grupo 84023" transform="translate(9.026 0)">
          <path id="Trazado_245541" data-name="Trazado 245541" d="M79.277,182.4h4.881a.875.875,0,1,0,0-1.751H79.277a.875.875,0,1,0,0,1.751Z" transform="translate(-70.305 -159.565)"/>
          <path id="Trazado_245542" data-name="Trazado 245542" d="M84.158,378.611H79.277a.875.875,0,1,0,0,1.751h4.881a.875.875,0,1,0,0-1.751Z" transform="translate(-70.305 -334.424)"/>
          <path id="Trazado_245543" data-name="Trazado 245543" d="M66.392,23.372a2.082,2.082,0,0,0-1.272-.976l-1.909-.512.511-1.909a2.122,2.122,0,0,0-1.481-2.567l-13.434-3.6V7.459A4.413,4.413,0,0,0,44.4,3.051H38.723V.875A.875.875,0,0,0,37.847,0H19.985a.875.875,0,0,0-.875.875V3.051H13.434A4.413,4.413,0,0,0,9.026,7.459V45.477a.875.875,0,1,0,1.751,0V7.459a2.662,2.662,0,0,1,1.9-2.548,2.642,2.642,0,0,0-.12.789V50.256a2.652,2.652,0,0,0,2.649,2.649H31.135a2.081,2.081,0,0,0,1.009.619l12.94,3.467a2.668,2.668,0,0,1-.686.09H13.434a2.661,2.661,0,0,1-2.658-2.658V49.6a.875.875,0,1,0-1.751,0v4.823a4.413,4.413,0,0,0,4.408,4.408H44.4a4.386,4.386,0,0,0,3.034-1.212l7.7,2.062A2.095,2.095,0,0,0,57.695,58.2L66.6,24.962a2.081,2.081,0,0,0-.209-1.59ZM62,19.259a.344.344,0,0,1,.034.262L53.124,52.761a.345.345,0,0,1-.422.245L29.718,46.846a.346.346,0,0,1-.244-.423L38.38,13.185a.362.362,0,0,1,.423-.244L61.787,19.1a.342.342,0,0,1,.209.16ZM36,15.307H18.873V13.556H36.468ZM20.86,1.751H36.972v1.3H20.86ZM23.219,4.8H34.613v.765A2.015,2.015,0,0,1,32.6,7.579H25.232a2.015,2.015,0,0,1-2.013-2.013ZM14.31,50.256V5.7a.9.9,0,0,1,.9-.9h6.26v.765a3.767,3.767,0,0,0,3.763,3.763H32.6a3.767,3.767,0,0,0,3.763-3.763V4.8h6.26a.9.9,0,0,1,.9.9V9.259a.875.875,0,1,0,1.751,0V5.7a2.638,2.638,0,0,0-.12-.789,2.662,2.662,0,0,1,1.9,2.548v5.88l-7.8-2.09a2.113,2.113,0,0,0-2.037.556H18a.875.875,0,0,0-.875.875v3.5a.875.875,0,0,0,.875.875H35.529l-2.626,9.8H18a.875.875,0,1,0,0,1.751H32.434l-1.079,4.025H18a.875.875,0,1,0,0,1.751H30.886l-1.079,4.025H18a.875.875,0,1,0,0,1.751H29.339L27.782,45.97a2.1,2.1,0,0,0,1.482,2.567l1.909.512-.511,1.908c-.018.066-.031.132-.042.2H15.208a.9.9,0,0,1-.9-.9Zm50.6-25.747L56,57.747a.345.345,0,0,1-.422.244L32.6,51.833a.345.345,0,0,1-.244-.422l.511-1.908L52.249,54.7a2.094,2.094,0,0,0,2.566-1.482l7.942-29.639,1.909.512a.349.349,0,0,1,.244.422Z" transform="translate(-9.026 0)"/>
          <path id="Trazado_245544" data-name="Trazado 245544" d="M248.11,255.516a.887.887,0,0,0-1.241-.411l-7.73,4.463-2.392-4.142a.875.875,0,0,0-1.516.875l2.829,4.9a.894.894,0,0,0,1.2.32l7.546-4.357a7.726,7.726,0,1,1-2.474-4.036.875.875,0,1,0,1.142-1.327,9.484,9.484,0,1,0,2.639,3.715Z" transform="translate(-204.071 -220.409)"/>
          <path id="Trazado_245545" data-name="Trazado 245545" d="M261.019,147.494a.876.876,0,0,0,.531.408l16.619,4.453a.893.893,0,0,0,1.072-.619l1.787-6.667A.884.884,0,0,0,280.41,144l-16.619-4.453a.876.876,0,0,0-1.072.619l-1.787,6.667A.875.875,0,0,0,261.019,147.494Zm3.163-6.033,14.928,4-1.333,4.976-14.928-4Z" transform="translate(-231.506 -123.232)"/>
        </g>
      </g>
    </g>
  </g>
</svg>
