<svg xmlns="http://www.w3.org/2000/svg" width="1240" height="308.991" viewBox="0 0 1240 308.991">
  <g id="Grupo_950130" data-name="Grupo 950130" transform="translate(-180 -10672)">
    <g id="Grupo_948189" data-name="Grupo 948189" transform="translate(0 -366)">
      <g id="Grupo_948142" data-name="Grupo 948142" transform="translate(139.6 8317.046)">
        <path id="Trazado_632949" data-name="Trazado 632949" d="M317.366,2974.046a52.448,52.448,0,0,1-52.45,52.45H114.546V2921.587H264.917a52.452,52.452,0,0,1,52.45,52.459Z" transform="translate(-0.215 -0.581)" fill="#bee7ed" opacity="0.4"/>
        <path id="Trazado_632950" data-name="Trazado 632950" d="M77.707,2773.413c0,28.96,25.338,52.45,56.621,52.45H296.658V2720.954H134.328a58.709,58.709,0,0,0-40.042,15.367A50.368,50.368,0,0,0,77.707,2773.413Z" transform="translate(-16.238)" fill="#bee7ed" opacity="0.4"/>
        <path id="Trazado_632951" data-name="Trazado 632951" d="M643.226,2974.046a52.447,52.447,0,0,1-52.449,52.45H440.406V2921.587H590.777a52.451,52.451,0,0,1,52.449,52.459Z" transform="translate(-1.158 -0.581)" fill="#bee7ed" opacity="0.4"/>
        <path id="Trazado_632952" data-name="Trazado 632952" d="M334.429,2835.615a71.269,71.269,0,1,0-113.241,0l-82.956,82.956,13.35,13.35,96.467-96.468a52.389,52.389,0,1,1,59.519,0l92.837,92.839,13.349-13.35Z" transform="translate(-0.283 0)" fill="#3795a3"/>
        <circle id="Elipse_5334" data-name="Elipse 5334" cx="53.003" cy="53.003" r="53.003" transform="translate(223.91 2738.728)" fill="#bee7ed"/>
        <circle id="Elipse_5335" data-name="Elipse 5335" cx="43.422" cy="43.422" r="43.422" transform="translate(234.104 2748.922)" fill="#fff"/>
        <path id="Trazado_632953" data-name="Trazado 632953" d="M400.43,2776.346c0,28.96,24.957,52.45,55.771,52.45H616.093V2723.887H456.2a57.343,57.343,0,0,0-39.44,15.367A50.707,50.707,0,0,0,400.43,2776.346Z" transform="translate(-13.885 -0.009)" fill="#bee7ed" opacity="0.4"/>
        <path id="Trazado_632954" data-name="Trazado 632954" d="M657.152,2838.549a71.269,71.269,0,1,0-113.241,0L460.955,2921.5l13.35,13.35,96.467-96.468a52.39,52.39,0,1,1,59.519,0l92.837,92.838,13.35-13.35Z" transform="translate(-1.217 -0.009)" fill="#3795a3"/>
        <circle id="Elipse_5336" data-name="Elipse 5336" cx="53.003" cy="53.003" r="53.003" transform="translate(545.699 2741.652)" fill="#bee7ed"/>
        <circle id="Elipse_5337" data-name="Elipse 5337" cx="43.422" cy="43.422" r="43.422" transform="translate(555.893 2751.846)" fill="#fff"/>
        <path id="Trazado_632955" data-name="Trazado 632955" d="M720.156,2776.346A52.447,52.447,0,0,0,772.6,2828.8H922.976V2723.887H772.6a52.451,52.451,0,0,0-52.449,52.459Z" transform="translate(-1.968 -0.009)" fill="#bee7ed" opacity="0.4"/>
        <path id="Trazado_632956" data-name="Trazado 632956" d="M976.878,2838.549a71.269,71.269,0,1,0-113.242,0L780.681,2921.5l13.349,13.35,96.468-96.468a52.389,52.389,0,1,1,59.518,0l92.838,92.838,13.35-13.35Z" transform="translate(-2.143 -0.009)" fill="#3795a3"/>
        <circle id="Elipse_5338" data-name="Elipse 5338" cx="53.003" cy="53.003" r="53.003" transform="translate(864.499 2741.652)" fill="#bee7ed"/>
        <circle id="Elipse_5339" data-name="Elipse 5339" cx="43.422" cy="43.422" r="43.422" transform="translate(874.693 2751.846)" fill="#fff"/>
        <circle id="Elipse_5340" data-name="Elipse 5340" cx="52.867" cy="52.867" r="52.867" transform="translate(40.4 2955.181) rotate(-45)" fill="#bee7ed"/>
        <circle id="Elipse_5341" data-name="Elipse 5341" cx="43.422" cy="43.422" r="43.422" transform="translate(71.743 2911.282)" fill="#fff"/>
        <g id="Grupo_948140" data-name="Grupo 948140" transform="translate(43.897 2866.836)">
          <path id="Trazado_632957" data-name="Trazado 632957" d="M203.043,2880.609l-13.35-13.349-44.758,44.758a52.382,52.382,0,1,1-29.76-9.28h0v-18.879a71.286,71.286,0,1,0,56.621,28Z" transform="translate(-43.907 -2867.26)" fill="#45bbcc"/>
        </g>
        <circle id="Elipse_5342" data-name="Elipse 5342" cx="52.39" cy="52.39" r="52.39" transform="translate(365.796 2954.704) rotate(-45)" fill="#bee7ed"/>
        <path id="Trazado_632958" data-name="Trazado 632958" d="M528.129,2881.138l-13.35-13.349-44.229,44.229a52.389,52.389,0,1,1-59.52,0l-44.911-44.91-13.349,13.349,31.4,31.4a71.269,71.269,0,1,0,113.242,0Z" transform="translate(-0.904 -0.423)" fill="#45bbcc"/>
        <circle id="Elipse_5343" data-name="Elipse 5343" cx="43.422" cy="43.422" r="43.422" transform="translate(396.464 2911.282)" fill="#fff"/>
        <path id="Trazado_632959" data-name="Trazado 632959" d="M963,2974.046a52.447,52.447,0,0,1-52.449,52.45H760.176V2921.587H910.548A52.451,52.451,0,0,1,963,2974.046Z" transform="translate(-2.083 -0.581)" fill="#bee7ed" opacity="0.4"/>
        <circle id="Elipse_5344" data-name="Elipse 5344" cx="52.39" cy="52.39" r="52.39" transform="translate(684.64 2954.704) rotate(-45)" fill="#bee7ed"/>
        <path id="Trazado_632960" data-name="Trazado 632960" d="M847.9,2881.138l-13.35-13.349-44.229,44.229a52.389,52.389,0,1,1-59.52,0l-44.911-44.91-13.349,13.349,31.4,31.4a71.268,71.268,0,1,0,113.242,0Z" transform="translate(-1.83 -0.423)" fill="#45bbcc"/>
        <circle id="Elipse_5345" data-name="Elipse 5345" cx="43.422" cy="43.422" r="43.422" transform="translate(715.308 2911.282)" fill="#fff"/>
        <path id="Trazado_632961" data-name="Trazado 632961" d="M1283.411,2973.943a52.448,52.448,0,0,0-52.45-52.45h-150.37V3026.4h150.37a52.451,52.451,0,0,0,52.45-52.459Z" transform="translate(-3.011 -0.58)" fill="#bee7ed" opacity="0.4"/>
        <circle id="Elipse_5346" data-name="Elipse 5346" cx="52.867" cy="52.867" r="52.867" transform="translate(1002.815 2954.379) rotate(-45)" fill="#bee7ed"/>
        <circle id="Elipse_5347" data-name="Elipse 5347" cx="43.422" cy="43.422" r="43.422" transform="translate(1034.158 2911.434)" fill="#fff"/>
        <g id="Grupo_948141" data-name="Grupo 948141" transform="translate(989.712 2866.685)">
          <path id="Trazado_632962" data-name="Trazado 632962" d="M992.468,2880.458l13.35-13.349,44.758,44.758a52.382,52.382,0,1,0,29.76-9.28h0v-18.879a71.284,71.284,0,1,1-56.621,28Z" transform="translate(-992.468 -2867.108)" fill="#45bbcc"/>
        </g>
      </g>
      <g id="Grupo_948143" data-name="Grupo 948143" transform="translate(-614.537 3113.705)">
        <g id="Grupo_82733" data-name="Grupo 82733" transform="translate(846.738 8078.79)">
          <g id="Grupo_82732" data-name="Grupo 82732" transform="translate(0 0)">
            <circle id="Elipse_5320" data-name="Elipse 5320" cx="21.549" cy="21.549" r="21.549" transform="translate(1.85 44.949) rotate(-90)" fill="#45bbcc"/>
            <g id="Grupo_82731" data-name="Grupo 82731">
              <path id="Trazado_120382" data-name="Trazado 120382" d="M300.506,134.4a23.4,23.4,0,1,1,23.4-23.4A23.426,23.426,0,0,1,300.506,134.4Zm0-43.1A19.7,19.7,0,1,0,320.2,111,19.721,19.721,0,0,0,300.506,91.3Z" transform="translate(-277.106 -87.598)" fill="#29707a"/>
            </g>
          </g>
        </g>
        <path id="Trazado_635171" data-name="Trazado 635171" d="M-.84-5.811A6.789,6.789,0,0,1-2.134-1.367,4.471,4.471,0,0,1-5.781.2,4.5,4.5,0,0,1-9.453-1.377a6.779,6.779,0,0,1-1.3-4.434v-2.6a6.789,6.789,0,0,1,1.294-4.443A4.483,4.483,0,0,1-5.8-14.414a4.484,4.484,0,0,1,3.662,1.572A6.8,6.8,0,0,1-.84-8.4ZM-4.131-8.828a5.071,5.071,0,0,0-.4-2.29,1.338,1.338,0,0,0-1.27-.757,1.307,1.307,0,0,0-1.235.7,4.777,4.777,0,0,0-.415,2.129V-5.41a5.109,5.109,0,0,0,.4,2.329,1.343,1.343,0,0,0,1.27.737,1.325,1.325,0,0,0,1.24-.718,4.878,4.878,0,0,0,.41-2.251ZM8.164,0h-3.3V-10.508l-3.242.947v-2.5l6.24-2.158h.3Z" transform="translate(870.537 8110.295)" fill="#fff"/>
      </g>
      <g id="Grupo_948145" data-name="Grupo 948145" transform="translate(-292.537 3113.705)">
        <g id="Grupo_82733-2" data-name="Grupo 82733" transform="translate(846.738 8078.79)">
          <g id="Grupo_82732-2" data-name="Grupo 82732" transform="translate(0 0)">
            <circle id="Elipse_5320-2" data-name="Elipse 5320" cx="21.549" cy="21.549" r="21.549" transform="translate(1.85 44.949) rotate(-90)" fill="#45bbcc"/>
            <g id="Grupo_82731-2" data-name="Grupo 82731">
              <path id="Trazado_120382-2" data-name="Trazado 120382" d="M300.506,134.4a23.4,23.4,0,1,1,23.4-23.4A23.426,23.426,0,0,1,300.506,134.4Zm0-43.1A19.7,19.7,0,1,0,320.2,111,19.721,19.721,0,0,0,300.506,91.3Z" transform="translate(-277.106 -87.598)" fill="#29707a"/>
            </g>
          </g>
        </g>
        <path id="Trazado_635170" data-name="Trazado 635170" d="M-.84-5.811A6.789,6.789,0,0,1-2.134-1.367,4.471,4.471,0,0,1-5.781.2,4.5,4.5,0,0,1-9.453-1.377a6.779,6.779,0,0,1-1.3-4.434v-2.6a6.789,6.789,0,0,1,1.294-4.443A4.483,4.483,0,0,1-5.8-14.414a4.484,4.484,0,0,1,3.662,1.572A6.8,6.8,0,0,1-.84-8.4ZM-4.131-8.828a5.071,5.071,0,0,0-.4-2.29,1.338,1.338,0,0,0-1.27-.757,1.307,1.307,0,0,0-1.235.7,4.777,4.777,0,0,0-.415,2.129V-5.41a5.109,5.109,0,0,0,.4,2.329,1.343,1.343,0,0,0,1.27.737,1.325,1.325,0,0,0,1.24-.718,4.878,4.878,0,0,0,.41-2.251Zm8.008.342H5.43a1.614,1.614,0,0,0,1.846-1.807,1.562,1.562,0,0,0-.439-1.147,1.666,1.666,0,0,0-1.24-.444,1.784,1.784,0,0,0-1.138.381,1.162,1.162,0,0,0-.483.947H.684a3.369,3.369,0,0,1,.625-2,4.127,4.127,0,0,1,1.733-1.372,5.926,5.926,0,0,1,2.437-.493,5.823,5.823,0,0,1,3.73,1.084,3.6,3.6,0,0,1,1.357,2.979A3,3,0,0,1,10-8.628,4,4,0,0,1,8.369-7.3,3.823,3.823,0,0,1,10.146-6.06a3.279,3.279,0,0,1,.645,2.065A3.669,3.669,0,0,1,9.326-.947,6.08,6.08,0,0,1,5.479.2,6.306,6.306,0,0,1,2.886-.337,4.062,4.062,0,0,1,1.074-1.812,3.834,3.834,0,0,1,.459-3.955H3.77A1.482,1.482,0,0,0,4.3-2.822a1.862,1.862,0,0,0,1.3.479,1.95,1.95,0,0,0,1.387-.483A1.616,1.616,0,0,0,7.5-4.062a1.889,1.889,0,0,0-.537-1.523,2.245,2.245,0,0,0-1.484-.449h-1.6Z" transform="translate(870.537 8110.295)" fill="#fff"/>
      </g>
      <g id="Grupo_948148" data-name="Grupo 948148" transform="translate(28.463 3113.705)">
        <g id="Grupo_82733-3" data-name="Grupo 82733" transform="translate(846.738 8078.79)">
          <g id="Grupo_82732-3" data-name="Grupo 82732" transform="translate(0 0)">
            <circle id="Elipse_5320-3" data-name="Elipse 5320" cx="21.549" cy="21.549" r="21.549" transform="translate(1.85 44.949) rotate(-90)" fill="#45bbcc"/>
            <g id="Grupo_82731-3" data-name="Grupo 82731">
              <path id="Trazado_120382-3" data-name="Trazado 120382" d="M300.506,134.4a23.4,23.4,0,1,1,23.4-23.4A23.426,23.426,0,0,1,300.506,134.4Zm0-43.1A19.7,19.7,0,1,0,320.2,111,19.721,19.721,0,0,0,300.506,91.3Z" transform="translate(-277.106 -87.598)" fill="#29707a"/>
            </g>
          </g>
        </g>
        <path id="Trazado_635172" data-name="Trazado 635172" d="M-.84-5.811A6.789,6.789,0,0,1-2.134-1.367,4.471,4.471,0,0,1-5.781.2,4.5,4.5,0,0,1-9.453-1.377a6.779,6.779,0,0,1-1.3-4.434v-2.6a6.789,6.789,0,0,1,1.294-4.443A4.483,4.483,0,0,1-5.8-14.414a4.484,4.484,0,0,1,3.662,1.572A6.8,6.8,0,0,1-.84-8.4ZM-4.131-8.828a5.071,5.071,0,0,0-.4-2.29,1.338,1.338,0,0,0-1.27-.757,1.307,1.307,0,0,0-1.235.7,4.777,4.777,0,0,0-.415,2.129V-5.41a5.109,5.109,0,0,0,.4,2.329,1.343,1.343,0,0,0,1.27.737,1.325,1.325,0,0,0,1.24-.718,4.878,4.878,0,0,0,.41-2.251Zm5.2,1.875.869-7.266h8.311v2.559H4.609L4.287-8.838A3.892,3.892,0,0,1,5.21-9.2a4.228,4.228,0,0,1,1.118-.156A4.171,4.171,0,0,1,9.585-8.1,5.055,5.055,0,0,1,10.723-4.58a5.046,5.046,0,0,1-.61,2.476A4.2,4.2,0,0,1,8.4-.4,5.411,5.411,0,0,1,5.791.2a5.818,5.818,0,0,1-2.51-.552A4.5,4.5,0,0,1,1.445-1.87,3.68,3.68,0,0,1,.791-4.043h3.3a1.873,1.873,0,0,0,.5,1.24,1.579,1.579,0,0,0,1.182.459q1.66,0,1.66-2.461Q7.432-7.08,5.4-7.08a2.025,2.025,0,0,0-1.719.742Z" transform="translate(870.537 8110.295)" fill="#fff"/>
      </g>
      <g id="Grupo_948149" data-name="Grupo 948149" transform="translate(346.463 3113.705)">
        <g id="Grupo_82733-4" data-name="Grupo 82733" transform="translate(846.738 8078.79)">
          <g id="Grupo_82732-4" data-name="Grupo 82732" transform="translate(0 0)">
            <circle id="Elipse_5320-4" data-name="Elipse 5320" cx="21.549" cy="21.549" r="21.549" transform="translate(1.85 44.949) rotate(-90)" fill="#45bbcc"/>
            <g id="Grupo_82731-4" data-name="Grupo 82731">
              <path id="Trazado_120382-4" data-name="Trazado 120382" d="M300.506,134.4a23.4,23.4,0,1,1,23.4-23.4A23.426,23.426,0,0,1,300.506,134.4Zm0-43.1A19.7,19.7,0,1,0,320.2,111,19.721,19.721,0,0,0,300.506,91.3Z" transform="translate(-277.106 -87.598)" fill="#29707a"/>
            </g>
          </g>
        </g>
        <path id="Trazado_635174" data-name="Trazado 635174" d="M-.84-5.811A6.789,6.789,0,0,1-2.134-1.367,4.471,4.471,0,0,1-5.781.2,4.5,4.5,0,0,1-9.453-1.377a6.779,6.779,0,0,1-1.3-4.434v-2.6a6.789,6.789,0,0,1,1.294-4.443A4.483,4.483,0,0,1-5.8-14.414a4.484,4.484,0,0,1,3.662,1.572A6.8,6.8,0,0,1-.84-8.4ZM-4.131-8.828a5.071,5.071,0,0,0-.4-2.29,1.338,1.338,0,0,0-1.27-.757,1.307,1.307,0,0,0-1.235.7,4.777,4.777,0,0,0-.415,2.129V-5.41a5.109,5.109,0,0,0,.4,2.329,1.343,1.343,0,0,0,1.27.737,1.325,1.325,0,0,0,1.24-.718,4.878,4.878,0,0,0,.41-2.251Zm14.883-3.633L5.439,0H1.963L7.285-11.68H.508v-2.539H10.752Z" transform="translate(870.537 8110.295)" fill="#fff"/>
      </g>
      <g id="Grupo_948144" data-name="Grupo 948144" transform="translate(-451.537 3054.705)">
        <g id="Grupo_82733-5" data-name="Grupo 82733" transform="translate(846.738 8078.79)">
          <g id="Grupo_82732-5" data-name="Grupo 82732" transform="translate(0 0)">
            <circle id="Elipse_5320-5" data-name="Elipse 5320" cx="21.549" cy="21.549" r="21.549" transform="translate(1.85 44.949) rotate(-90)" fill="#45bbcc"/>
            <g id="Grupo_82731-5" data-name="Grupo 82731">
              <path id="Trazado_120382-5" data-name="Trazado 120382" d="M300.506,134.4a23.4,23.4,0,1,1,23.4-23.4A23.426,23.426,0,0,1,300.506,134.4Zm0-43.1A19.7,19.7,0,1,0,320.2,111,19.721,19.721,0,0,0,300.506,91.3Z" transform="translate(-277.106 -87.598)" fill="#29707a"/>
            </g>
          </g>
        </g>
        <path id="Trazado_635168" data-name="Trazado 635168" d="M-.84-5.811A6.789,6.789,0,0,1-2.134-1.367,4.471,4.471,0,0,1-5.781.2,4.5,4.5,0,0,1-9.453-1.377a6.779,6.779,0,0,1-1.3-4.434v-2.6a6.789,6.789,0,0,1,1.294-4.443A4.483,4.483,0,0,1-5.8-14.414a4.484,4.484,0,0,1,3.662,1.572A6.8,6.8,0,0,1-.84-8.4ZM-4.131-8.828a5.071,5.071,0,0,0-.4-2.29,1.338,1.338,0,0,0-1.27-.757,1.307,1.307,0,0,0-1.235.7,4.777,4.777,0,0,0-.415,2.129V-5.41a5.109,5.109,0,0,0,.4,2.329,1.343,1.343,0,0,0,1.27.737,1.325,1.325,0,0,0,1.24-.718,4.878,4.878,0,0,0,.41-2.251ZM10.791,0H.869V-2.148l4.57-4.8Q7.129-8.877,7.129-10.01a2.126,2.126,0,0,0-.4-1.4,1.43,1.43,0,0,0-1.162-.479,1.447,1.447,0,0,0-1.221.64,2.629,2.629,0,0,0-.469,1.6H.576a4.67,4.67,0,0,1,.654-2.417A4.588,4.588,0,0,1,3.047-13.8a5.4,5.4,0,0,1,2.6-.625,5.308,5.308,0,0,1,3.55,1.064A3.8,3.8,0,0,1,10.439-10.3a4.439,4.439,0,0,1-.312,1.636A7.173,7.173,0,0,1,9.155-7,24.476,24.476,0,0,1,7.031-4.658L5.2-2.539h5.6Z" transform="translate(870.537 8110.295)" fill="#fff"/>
      </g>
      <g id="Grupo_948146" data-name="Grupo 948146" transform="translate(-132.537 3054.705)">
        <g id="Grupo_82733-6" data-name="Grupo 82733" transform="translate(846.738 8078.79)">
          <g id="Grupo_82732-6" data-name="Grupo 82732" transform="translate(0 0)">
            <circle id="Elipse_5320-6" data-name="Elipse 5320" cx="21.549" cy="21.549" r="21.549" transform="translate(1.85 44.949) rotate(-90)" fill="#45bbcc"/>
            <g id="Grupo_82731-6" data-name="Grupo 82731">
              <path id="Trazado_120382-6" data-name="Trazado 120382" d="M300.506,134.4a23.4,23.4,0,1,1,23.4-23.4A23.426,23.426,0,0,1,300.506,134.4Zm0-43.1A19.7,19.7,0,1,0,320.2,111,19.721,19.721,0,0,0,300.506,91.3Z" transform="translate(-277.106 -87.598)" fill="#29707a"/>
            </g>
          </g>
        </g>
        <path id="Trazado_635169" data-name="Trazado 635169" d="M-.84-5.811A6.789,6.789,0,0,1-2.134-1.367,4.471,4.471,0,0,1-5.781.2,4.5,4.5,0,0,1-9.453-1.377a6.779,6.779,0,0,1-1.3-4.434v-2.6a6.789,6.789,0,0,1,1.294-4.443A4.483,4.483,0,0,1-5.8-14.414a4.484,4.484,0,0,1,3.662,1.572A6.8,6.8,0,0,1-.84-8.4ZM-4.131-8.828a5.071,5.071,0,0,0-.4-2.29,1.338,1.338,0,0,0-1.27-.757,1.307,1.307,0,0,0-1.235.7,4.777,4.777,0,0,0-.415,2.129V-5.41a5.109,5.109,0,0,0,.4,2.329,1.343,1.343,0,0,0,1.27.737,1.325,1.325,0,0,0,1.24-.718,4.878,4.878,0,0,0,.41-2.251ZM9.561-5.557h1.445v2.539H9.561V0H6.27V-3.018H.771l-.2-2.012,5.693-9.16v-.029H9.561Zm-5.85,0H6.27V-9.932L6.064-9.6Z" transform="translate(870.537 8110.295)" fill="#fff"/>
      </g>
      <g id="Grupo_948147" data-name="Grupo 948147" transform="translate(188.463 3054.705)">
        <g id="Grupo_82733-7" data-name="Grupo 82733" transform="translate(846.738 8078.79)">
          <g id="Grupo_82732-7" data-name="Grupo 82732" transform="translate(0 0)">
            <circle id="Elipse_5320-7" data-name="Elipse 5320" cx="21.549" cy="21.549" r="21.549" transform="translate(1.85 44.949) rotate(-90)" fill="#45bbcc"/>
            <g id="Grupo_82731-7" data-name="Grupo 82731">
              <path id="Trazado_120382-7" data-name="Trazado 120382" d="M300.506,134.4a23.4,23.4,0,1,1,23.4-23.4A23.426,23.426,0,0,1,300.506,134.4Zm0-43.1A19.7,19.7,0,1,0,320.2,111,19.721,19.721,0,0,0,300.506,91.3Z" transform="translate(-277.106 -87.598)" fill="#29707a"/>
            </g>
          </g>
        </g>
        <path id="Trazado_635173" data-name="Trazado 635173" d="M-.84-5.811A6.789,6.789,0,0,1-2.134-1.367,4.471,4.471,0,0,1-5.781.2,4.5,4.5,0,0,1-9.453-1.377a6.779,6.779,0,0,1-1.3-4.434v-2.6a6.789,6.789,0,0,1,1.294-4.443A4.483,4.483,0,0,1-5.8-14.414a4.484,4.484,0,0,1,3.662,1.572A6.8,6.8,0,0,1-.84-8.4ZM-4.131-8.828a5.071,5.071,0,0,0-.4-2.29,1.338,1.338,0,0,0-1.27-.757,1.307,1.307,0,0,0-1.235.7,4.777,4.777,0,0,0-.415,2.129V-5.41a5.109,5.109,0,0,0,.4,2.329,1.343,1.343,0,0,0,1.27.737,1.325,1.325,0,0,0,1.24-.718,4.878,4.878,0,0,0,.41-2.251Zm12.949-5.6v2.588H8.672a4.941,4.941,0,0,0-3.032.884A3.732,3.732,0,0,0,4.18-8.5,3.848,3.848,0,0,1,6.992-9.59,3.59,3.59,0,0,1,9.932-8.242a5.436,5.436,0,0,1,1.094,3.535,4.977,4.977,0,0,1-.64,2.49A4.564,4.564,0,0,1,8.6-.444,5.135,5.135,0,0,1,6.055.2,5.307,5.307,0,0,1,3.35-.493,4.733,4.733,0,0,1,1.494-2.461,6.48,6.48,0,0,1,.811-5.41V-6.729a8.208,8.208,0,0,1,.942-3.95,6.832,6.832,0,0,1,2.69-2.749,7.692,7.692,0,0,1,3.877-1ZM5.85-7.07a1.883,1.883,0,0,0-1.094.3,1.922,1.922,0,0,0-.654.742v.986q0,2.7,1.865,2.7a1.513,1.513,0,0,0,1.255-.674,2.746,2.746,0,0,0,.5-1.689,2.7,2.7,0,0,0-.513-1.7A1.64,1.64,0,0,0,5.85-7.07Z" transform="translate(870.537 8110.295)" fill="#fff"/>
      </g>
      <path id="Trazado_635163" data-name="Trazado 635163" d="M5.852,17H3.328V5.8H5.852Zm10.031,0H13.422V12.555q0-1.859-1.328-1.859a1.318,1.318,0,0,0-1.055.492,1.875,1.875,0,0,0-.414,1.25V17H8.156V9h2.469v1.266h.031A2.829,2.829,0,0,1,13.227,8.8q2.656,0,2.656,3.3Zm6.789-.094a3.649,3.649,0,0,1-1.648.289q-2.609,0-2.609-2.711V10.82h-1.3V9h1.3V7.273l2.461-.7V9h1.8v1.82h-1.8v3.234q0,1.25.992,1.25a1.673,1.673,0,0,0,.8-.227Zm8.516-3.2H25.969q.125,1.742,2.2,1.742a4.286,4.286,0,0,0,2.32-.625V16.6A6.1,6.1,0,0,1,27.6,17.2a4.058,4.058,0,0,1-3.008-1.074,4.058,4.058,0,0,1-1.07-3A4.281,4.281,0,0,1,24.68,9.969,3.852,3.852,0,0,1,27.523,8.8,3.5,3.5,0,0,1,30.23,9.844a4,4,0,0,1,.957,2.82ZM28.9,12.188q0-1.719-1.391-1.719a1.328,1.328,0,0,0-1.027.492,2.234,2.234,0,0,0-.527,1.227Zm8.977-.961a2.142,2.142,0,0,0-1.039-.242,1.5,1.5,0,0,0-1.258.59,2.573,2.573,0,0,0-.453,1.605V17H32.656V9h2.469v1.484h.031a2.136,2.136,0,0,1,2.109-1.625,1.59,1.59,0,0,1,.609.094ZM45.68,17H43.344V15.852h-.031A2.607,2.607,0,0,1,40.93,17.2a2.492,2.492,0,0,1-1.832-.66,2.366,2.366,0,0,1-.668-1.762q0-2.328,2.758-2.687l2.172-.289q0-1.312-1.422-1.312a4.853,4.853,0,0,0-2.719.852V9.477a6.116,6.116,0,0,1,1.41-.469,7.413,7.413,0,0,1,1.629-.2q3.422,0,3.422,3.414Zm-2.32-3.25v-.539l-1.453.188q-1.2.156-1.2,1.086a.9.9,0,0,0,.293.691,1.126,1.126,0,0,0,.793.27,1.462,1.462,0,0,0,1.133-.48A1.735,1.735,0,0,0,43.359,13.75ZM53.7,16.711a4.881,4.881,0,0,1-2.414.484A4.083,4.083,0,0,1,48.3,16.078,3.859,3.859,0,0,1,47.156,13.2,4.251,4.251,0,0,1,48.379,9.98,4.518,4.518,0,0,1,51.648,8.8,4.2,4.2,0,0,1,53.7,9.18v2.094a2.814,2.814,0,0,0-1.727-.578,2.275,2.275,0,0,0-1.684.621,2.317,2.317,0,0,0-.621,1.715,2.28,2.28,0,0,0,.594,1.668,2.182,2.182,0,0,0,1.633.605,3.258,3.258,0,0,0,1.8-.578Zm7.68,0a4.881,4.881,0,0,1-2.414.484,4.083,4.083,0,0,1-2.984-1.117A3.859,3.859,0,0,1,54.836,13.2,4.251,4.251,0,0,1,56.059,9.98,4.518,4.518,0,0,1,59.328,8.8a4.2,4.2,0,0,1,2.047.375v2.094a2.814,2.814,0,0,0-1.727-.578,2.275,2.275,0,0,0-1.684.621,2.317,2.317,0,0,0-.621,1.715,2.28,2.28,0,0,0,.594,1.668,2.182,2.182,0,0,0,1.633.605,3.258,3.258,0,0,0,1.8-.578Zm2.867-8.977a1.442,1.442,0,0,1-1.023-.371,1.2,1.2,0,0,1-.4-.91,1.153,1.153,0,0,1,.4-.906,1.671,1.671,0,0,1,2.051,0,1.158,1.158,0,0,1,.395.906,1.191,1.191,0,0,1-.395.922A1.466,1.466,0,0,1,64.242,7.734ZM65.461,17H62.992V9h2.469Zm5.891.2a4.3,4.3,0,0,1-3.145-1.121,4.064,4.064,0,0,1-1.145-3.043A4.065,4.065,0,0,1,68.25,9.926,4.487,4.487,0,0,1,71.461,8.8a4.249,4.249,0,0,1,3.125,1.121,3.985,3.985,0,0,1,1.133,2.965,4.23,4.23,0,0,1-1.168,3.148A4.348,4.348,0,0,1,71.352,17.2Zm.063-6.5a1.647,1.647,0,0,0-1.359.6A2.653,2.653,0,0,0,69.57,13q0,2.3,1.859,2.3,1.773,0,1.773-2.367Q73.2,10.7,71.414,10.7Zm2.648-5.484L71.617,7.734H69.836l2.031-2.523ZM85.039,17H82.578V12.555q0-1.859-1.328-1.859a1.318,1.318,0,0,0-1.055.492,1.875,1.875,0,0,0-.414,1.25V17H77.313V9h2.469v1.266h.031A2.829,2.829,0,0,1,82.383,8.8q2.656,0,2.656,3.3ZM24.184,40.07h-.031V44.68H21.684V33h2.469v1.2h.031a3.142,3.142,0,0,1,4.973-.332,4.54,4.54,0,0,1,.848,2.9,4.922,4.922,0,0,1-.988,3.211A3.222,3.222,0,0,1,26.387,41.2,2.491,2.491,0,0,1,24.184,40.07Zm-.07-3.281v.641a2.037,2.037,0,0,0,.438,1.352A1.424,1.424,0,0,0,25.7,39.3a1.514,1.514,0,0,0,1.309-.652,3.15,3.15,0,0,0,.465-1.848q0-2.109-1.641-2.109a1.541,1.541,0,0,0-1.238.574A2.29,2.29,0,0,0,24.113,36.789Zm12.711-1.562a2.142,2.142,0,0,0-1.039-.242,1.5,1.5,0,0,0-1.258.59,2.573,2.573,0,0,0-.453,1.605V41H31.605V33h2.469v1.484h.031a2.136,2.136,0,0,1,2.109-1.625,1.59,1.59,0,0,1,.609.094ZM45.1,37.7H39.879q.125,1.742,2.2,1.742a4.286,4.286,0,0,0,2.32-.625V40.6a6.1,6.1,0,0,1-2.883.594,3.724,3.724,0,0,1-4.078-4.07,4.281,4.281,0,0,1,1.156-3.156A3.852,3.852,0,0,1,41.434,32.8a3.5,3.5,0,0,1,2.707,1.039,4,4,0,0,1,.957,2.82Zm-2.289-1.516q0-1.719-1.391-1.719a1.328,1.328,0,0,0-1.027.492,2.234,2.234,0,0,0-.527,1.227ZM54.184,33l-2.977,8H48.395l-2.836-8H48.2l1.391,4.93a7.2,7.2,0,0,1,.273,1.422h.031a8.069,8.069,0,0,1,.289-1.375L51.605,33Zm2.3-1.266a1.442,1.442,0,0,1-1.023-.371,1.2,1.2,0,0,1-.4-.91,1.153,1.153,0,0,1,.4-.906,1.671,1.671,0,0,1,2.051,0,1.158,1.158,0,0,1,.395.906,1.191,1.191,0,0,1-.395.922A1.466,1.466,0,0,1,56.488,31.734ZM57.707,41H55.238V33h2.469Zm8.734,0H64.105V39.852h-.031A2.607,2.607,0,0,1,61.691,41.2a2.492,2.492,0,0,1-1.832-.66,2.366,2.366,0,0,1-.668-1.762q0-2.328,2.758-2.687l2.172-.289q0-1.312-1.422-1.312a4.853,4.853,0,0,0-2.719.852V33.477a6.116,6.116,0,0,1,1.41-.469,7.413,7.413,0,0,1,1.629-.2q3.422,0,3.422,3.414Zm-2.32-3.25v-.539l-1.453.188q-1.2.156-1.2,1.086a.9.9,0,0,0,.293.691,1.126,1.126,0,0,0,.793.27,1.462,1.462,0,0,0,1.133-.48A1.735,1.735,0,0,0,64.121,37.75Z" transform="translate(339 11263.098)" fill="#12263f"/>
      <path id="Trazado_635164" data-name="Trazado 635164" d="M25.3,17H22.8V10.3q0-1.086.094-2.4h-.062a11.8,11.8,0,0,1-.352,1.484L19.859,17H17.8L15.125,9.461A14.67,14.67,0,0,1,14.773,7.9H14.7q.1,1.656.1,2.906V17H12.531V5.8h3.7l2.289,6.641a9.35,9.35,0,0,1,.4,1.6h.047a16.127,16.127,0,0,1,.445-1.617L21.7,5.8h3.6Zm6.117.2a4.3,4.3,0,0,1-3.145-1.121,4.064,4.064,0,0,1-1.145-3.043,4.065,4.065,0,0,1,1.188-3.105A4.487,4.487,0,0,1,31.523,8.8a4.249,4.249,0,0,1,3.125,1.121,3.985,3.985,0,0,1,1.133,2.965,4.23,4.23,0,0,1-1.168,3.148A4.348,4.348,0,0,1,31.414,17.2Zm.063-6.5a1.647,1.647,0,0,0-1.359.6,2.653,2.653,0,0,0-.484,1.7q0,2.3,1.859,2.3,1.773,0,1.773-2.367Q33.266,10.7,31.477,10.7ZM45.211,17H42.742V15.9h-.031a2.768,2.768,0,0,1-2.477,1.3,3.033,3.033,0,0,1-2.414-1.059,4.382,4.382,0,0,1-.914-2.957A4.77,4.77,0,0,1,37.914,10a3.287,3.287,0,0,1,2.641-1.2,2.246,2.246,0,0,1,2.156,1.109h.031V5.156h2.469Zm-2.422-3.891v-.6a1.893,1.893,0,0,0-.453-1.3,1.6,1.6,0,0,0-2.461.129,2.993,2.993,0,0,0-.461,1.77,2.59,2.59,0,0,0,.445,1.625,1.581,1.581,0,0,0,2.457-.031A2.507,2.507,0,0,0,42.789,13.109Zm11.688.594H49.258q.125,1.742,2.2,1.742a4.286,4.286,0,0,0,2.32-.625V16.6a6.1,6.1,0,0,1-2.883.594,4.058,4.058,0,0,1-3.008-1.074,4.058,4.058,0,0,1-1.07-3,4.281,4.281,0,0,1,1.156-3.156A3.852,3.852,0,0,1,50.813,8.8,3.5,3.5,0,0,1,53.52,9.844a4,4,0,0,1,.957,2.82Zm-2.289-1.516q0-1.719-1.391-1.719a1.328,1.328,0,0,0-1.027.492,2.234,2.234,0,0,0-.527,1.227ZM58.414,17H55.945V5.156h2.469Zm8.734,0H64.813V15.852h-.031A2.607,2.607,0,0,1,62.4,17.2a2.492,2.492,0,0,1-1.832-.66,2.366,2.366,0,0,1-.668-1.762q0-2.328,2.758-2.687l2.172-.289q0-1.312-1.422-1.312a4.853,4.853,0,0,0-2.719.852V9.477a6.116,6.116,0,0,1,1.41-.469,7.413,7.413,0,0,1,1.629-.2q3.422,0,3.422,3.414Zm-2.32-3.25v-.539l-1.453.188q-1.2.156-1.2,1.086a.9.9,0,0,0,.293.691,1.126,1.126,0,0,0,.793.27,1.462,1.462,0,0,0,1.133-.48A1.735,1.735,0,0,0,64.828,13.75ZM76.93,17H74.461V15.9H74.43a2.768,2.768,0,0,1-2.477,1.3,3.033,3.033,0,0,1-2.414-1.059,4.382,4.382,0,0,1-.914-2.957A4.77,4.77,0,0,1,69.633,10a3.287,3.287,0,0,1,2.641-1.2A2.246,2.246,0,0,1,74.43,9.914h.031V5.156H76.93Zm-2.422-3.891v-.6a1.893,1.893,0,0,0-.453-1.3,1.6,1.6,0,0,0-2.461.129,2.993,2.993,0,0,0-.461,1.77,2.59,2.59,0,0,0,.445,1.625,1.581,1.581,0,0,0,2.457-.031A2.507,2.507,0,0,0,74.508,13.109ZM82.82,17.2a4.3,4.3,0,0,1-3.145-1.121,4.064,4.064,0,0,1-1.145-3.043,4.065,4.065,0,0,1,1.188-3.105A4.487,4.487,0,0,1,82.93,8.8a4.249,4.249,0,0,1,3.125,1.121,3.985,3.985,0,0,1,1.133,2.965,4.23,4.23,0,0,1-1.168,3.148A4.348,4.348,0,0,1,82.82,17.2Zm.063-6.5a1.647,1.647,0,0,0-1.359.6,2.653,2.653,0,0,0-.484,1.7q0,2.3,1.859,2.3,1.773,0,1.773-2.367Q84.672,10.7,82.883,10.7ZM10.117,41H7.648V39.9H7.617a2.768,2.768,0,0,1-2.477,1.3,3.033,3.033,0,0,1-2.414-1.059,4.382,4.382,0,0,1-.914-2.957A4.77,4.77,0,0,1,2.82,34a3.287,3.287,0,0,1,2.641-1.2,2.246,2.246,0,0,1,2.156,1.109h.031V29.156h2.469ZM7.7,37.109v-.6a1.893,1.893,0,0,0-.453-1.3,1.5,1.5,0,0,0-1.18-.516,1.487,1.487,0,0,0-1.281.645,2.993,2.993,0,0,0-.461,1.77,2.59,2.59,0,0,0,.445,1.625A1.479,1.479,0,0,0,6,39.3a1.485,1.485,0,0,0,1.223-.6A2.507,2.507,0,0,0,7.7,37.109Zm11.688.594H14.164q.125,1.742,2.2,1.742a4.286,4.286,0,0,0,2.32-.625V40.6A6.1,6.1,0,0,1,15.8,41.2a4.058,4.058,0,0,1-3.008-1.074,4.058,4.058,0,0,1-1.07-3,4.281,4.281,0,0,1,1.156-3.156A3.852,3.852,0,0,1,15.719,32.8a3.5,3.5,0,0,1,2.707,1.039,4,4,0,0,1,.957,2.82Zm-2.289-1.516q0-1.719-1.391-1.719a1.328,1.328,0,0,0-1.027.492,2.234,2.234,0,0,0-.527,1.227ZM31.922,41H29.586V39.852h-.031A2.607,2.607,0,0,1,27.172,41.2a2.492,2.492,0,0,1-1.832-.66,2.366,2.366,0,0,1-.668-1.762q0-2.328,2.758-2.687L29.6,35.8q0-1.312-1.422-1.312a4.853,4.853,0,0,0-2.719.852V33.477a6.117,6.117,0,0,1,1.41-.469,7.413,7.413,0,0,1,1.629-.2q3.422,0,3.422,3.414ZM29.6,37.75v-.539l-1.453.188q-1.2.156-1.2,1.086a.9.9,0,0,0,.293.691,1.126,1.126,0,0,0,.793.27,1.462,1.462,0,0,0,1.133-.48A1.735,1.735,0,0,0,29.6,37.75ZM46.578,41H44.117V36.438q0-1.742-1.281-1.742a1.177,1.177,0,0,0-.992.523,2.151,2.151,0,0,0-.383,1.3V41H38.992V36.391q0-1.7-1.258-1.7a1.206,1.206,0,0,0-1.012.5,2.2,2.2,0,0,0-.379,1.359V41H33.875V33h2.469v1.25h.031A3.031,3.031,0,0,1,38.961,32.8a2.3,2.3,0,0,1,2.32,1.492A2.959,2.959,0,0,1,43.969,32.8q2.609,0,2.609,3.219Zm9.141-3.3H50.5q.125,1.742,2.2,1.742a4.286,4.286,0,0,0,2.32-.625V40.6a6.1,6.1,0,0,1-2.883.594,3.724,3.724,0,0,1-4.078-4.07,4.281,4.281,0,0,1,1.156-3.156A3.852,3.852,0,0,1,52.055,32.8a3.5,3.5,0,0,1,2.707,1.039,4,4,0,0,1,.957,2.82ZM53.43,36.188q0-1.719-1.391-1.719a1.328,1.328,0,0,0-1.027.492,2.234,2.234,0,0,0-.527,1.227ZM64.914,41H62.453V36.555q0-1.859-1.328-1.859a1.318,1.318,0,0,0-1.055.492,1.875,1.875,0,0,0-.414,1.25V41H57.188V33h2.469v1.266h.031a2.829,2.829,0,0,1,2.57-1.461q2.656,0,2.656,3.3Zm8.609,0H71.188V39.852h-.031A2.607,2.607,0,0,1,68.773,41.2a2.492,2.492,0,0,1-1.832-.66,2.366,2.366,0,0,1-.668-1.762q0-2.328,2.758-2.687L71.2,35.8q0-1.312-1.422-1.312a4.853,4.853,0,0,0-2.719.852V33.477a6.117,6.117,0,0,1,1.41-.469,7.413,7.413,0,0,1,1.629-.2q3.422,0,3.422,3.414ZM71.2,37.75v-.539L69.75,37.4q-1.2.156-1.2,1.086a.9.9,0,0,0,.293.691,1.126,1.126,0,0,0,.793.27,1.462,1.462,0,0,0,1.133-.48A1.735,1.735,0,0,0,71.2,37.75ZM81.813,41h-7.18V39.977l4.016-5.156H75.031V33h6.75v1.219l-3.8,4.961h3.836ZM89.8,41H87.461V39.852H87.43A2.607,2.607,0,0,1,85.047,41.2a2.492,2.492,0,0,1-1.832-.66,2.366,2.366,0,0,1-.668-1.762q0-2.328,2.758-2.687l2.172-.289q0-1.312-1.422-1.312a4.853,4.853,0,0,0-2.719.852V33.477a6.117,6.117,0,0,1,1.41-.469,7.413,7.413,0,0,1,1.629-.2q3.422,0,3.422,3.414Zm-2.32-3.25v-.539l-1.453.188q-1.2.156-1.2,1.086a.9.9,0,0,0,.293.691,1.126,1.126,0,0,0,.793.27,1.462,1.462,0,0,0,1.133-.48A1.735,1.735,0,0,0,87.477,37.75Zm3.75,3.039v-2a5.256,5.256,0,0,0,1.215.547,4.028,4.028,0,0,0,1.145.18,2.455,2.455,0,0,0,1.035-.18A.581.581,0,0,0,95,38.789a.506.506,0,0,0-.172-.391,1.6,1.6,0,0,0-.441-.273,5.009,5.009,0,0,0-.59-.211q-.32-.094-.617-.211a5.914,5.914,0,0,1-.84-.387,2.427,2.427,0,0,1-.609-.48,1.889,1.889,0,0,1-.375-.633,2.525,2.525,0,0,1-.129-.852A2.192,2.192,0,0,1,91.52,34.2,2.393,2.393,0,0,1,92.3,33.4a3.57,3.57,0,0,1,1.117-.453,5.825,5.825,0,0,1,1.309-.145,7.261,7.261,0,0,1,1.078.082,8.046,8.046,0,0,1,1.078.238v1.906a3.9,3.9,0,0,0-1-.41,4.235,4.235,0,0,0-1.051-.137,2.328,2.328,0,0,0-.457.043,1.505,1.505,0,0,0-.379.125.7.7,0,0,0-.258.211.486.486,0,0,0-.094.293.541.541,0,0,0,.141.375,1.221,1.221,0,0,0,.367.27,3.625,3.625,0,0,0,.5.2q.277.09.551.184a7.161,7.161,0,0,1,.891.375,2.848,2.848,0,0,1,.684.477,1.872,1.872,0,0,1,.438.641,2.563,2.563,0,0,1-.156,2.09,2.471,2.471,0,0,1-.82.82,3.72,3.72,0,0,1-1.18.461,6.54,6.54,0,0,1-1.387.145A7.149,7.149,0,0,1,91.227,40.789Z" transform="translate(663 11263.098)" fill="#12263f"/>
      <path id="Trazado_635166" data-name="Trazado 635166" d="M13.441,17H6.723V5.8h6.461V7.852H9.246v2.492H12.91v2.047H9.246v2.563h4.2Zm9.281-8-2.641,3.875L22.707,17H19.863l-1.156-2.156q-.141-.258-.336-.727H18.34a5.073,5.073,0,0,1-.32.7L16.855,17H14.02l2.7-3.984L14.184,9h2.859l1.141,2.242a4.917,4.917,0,0,1,.32.75h.031a5.285,5.285,0,0,1,.336-.766L20.035,9Zm3.609,7.07H26.3V20.68H23.832V9H26.3v1.2h.031A3.142,3.142,0,0,1,31.3,9.871a4.54,4.54,0,0,1,.848,2.9,4.922,4.922,0,0,1-.988,3.211A3.222,3.222,0,0,1,28.535,17.2,2.491,2.491,0,0,1,26.332,16.07Zm-.07-3.281v.641a2.037,2.037,0,0,0,.438,1.352,1.424,1.424,0,0,0,1.148.523,1.514,1.514,0,0,0,1.309-.652,3.15,3.15,0,0,0,.465-1.848q0-2.109-1.641-2.109a1.541,1.541,0,0,0-1.238.574A2.29,2.29,0,0,0,26.262,12.789ZM36.223,17H33.754V5.156h2.469Zm5.891.2a4.3,4.3,0,0,1-3.145-1.121,4.064,4.064,0,0,1-1.145-3.043,4.065,4.065,0,0,1,1.188-3.105A4.487,4.487,0,0,1,42.223,8.8a4.249,4.249,0,0,1,3.125,1.121,3.985,3.985,0,0,1,1.133,2.965,4.23,4.23,0,0,1-1.168,3.148A4.348,4.348,0,0,1,42.113,17.2Zm.063-6.5a1.647,1.647,0,0,0-1.359.6,2.653,2.653,0,0,0-.484,1.7q0,2.3,1.859,2.3,1.773,0,1.773-2.367Q43.965,10.7,42.176,10.7Zm10.742,6.211a3.649,3.649,0,0,1-1.648.289q-2.609,0-2.609-2.711V10.82h-1.3V9h1.3V7.273l2.461-.7V9h1.8v1.82h-1.8v3.234q0,1.25.992,1.25a1.673,1.673,0,0,0,.8-.227ZM60.965,17H58.629V15.852H58.6A2.607,2.607,0,0,1,56.215,17.2a2.492,2.492,0,0,1-1.832-.66,2.366,2.366,0,0,1-.668-1.762q0-2.328,2.758-2.687l2.172-.289q0-1.312-1.422-1.312a4.853,4.853,0,0,0-2.719.852V9.477a6.116,6.116,0,0,1,1.41-.469,7.413,7.413,0,0,1,1.629-.2q3.422,0,3.422,3.414Zm-2.32-3.25v-.539l-1.453.188q-1.2.156-1.2,1.086a.9.9,0,0,0,.293.691,1.126,1.126,0,0,0,.793.27,1.462,1.462,0,0,0,1.133-.48A1.735,1.735,0,0,0,58.645,13.75ZM68.98,16.711a4.881,4.881,0,0,1-2.414.484,4.083,4.083,0,0,1-2.984-1.117A3.859,3.859,0,0,1,62.441,13.2,4.251,4.251,0,0,1,63.664,9.98,4.518,4.518,0,0,1,66.934,8.8a4.2,4.2,0,0,1,2.047.375v2.094a2.814,2.814,0,0,0-1.727-.578,2.275,2.275,0,0,0-1.684.621,2.317,2.317,0,0,0-.621,1.715,2.28,2.28,0,0,0,.594,1.668,2.182,2.182,0,0,0,1.633.605,3.258,3.258,0,0,0,1.8-.578Zm2.867-8.977a1.442,1.442,0,0,1-1.023-.371,1.2,1.2,0,0,1-.4-.91,1.153,1.153,0,0,1,.4-.906,1.671,1.671,0,0,1,2.051,0,1.158,1.158,0,0,1,.395.906,1.191,1.191,0,0,1-.395.922A1.466,1.466,0,0,1,71.848,7.734ZM73.066,17H70.6V9h2.469Zm5.891.2a4.3,4.3,0,0,1-3.145-1.121,4.064,4.064,0,0,1-1.145-3.043,4.065,4.065,0,0,1,1.188-3.105A4.487,4.487,0,0,1,79.066,8.8a4.249,4.249,0,0,1,3.125,1.121,3.985,3.985,0,0,1,1.133,2.965,4.23,4.23,0,0,1-1.168,3.148A4.348,4.348,0,0,1,78.957,17.2Zm.063-6.5a1.647,1.647,0,0,0-1.359.6,2.653,2.653,0,0,0-.484,1.7q0,2.3,1.859,2.3,1.773,0,1.773-2.367Q80.809,10.7,79.02,10.7Zm2.648-5.484L79.223,7.734H77.441l2.031-2.523ZM92.645,17H90.184V12.555q0-1.859-1.328-1.859a1.318,1.318,0,0,0-1.055.492,1.875,1.875,0,0,0-.414,1.25V17H84.918V9h2.469v1.266h.031A2.829,2.829,0,0,1,89.988,8.8q2.656,0,2.656,3.3Z" transform="translate(981 11275.348)" fill="#12263f"/>
      <path id="Trazado_635167" data-name="Trazado 635167" d="M22.383,17h-2.9l-1.742-2.883q-.2-.328-.375-.586A3.255,3.255,0,0,0,17,13.09a1.445,1.445,0,0,0-.383-.281.972.972,0,0,0-.434-.1h-.68V17H12.984V5.8h4q4.078,0,4.078,3.047a3.155,3.155,0,0,1-.18,1.082,3.006,3.006,0,0,1-.508.895,3.219,3.219,0,0,1-.793.688,4.089,4.089,0,0,1-1.035.453v.031a1.606,1.606,0,0,1,.484.254,3.469,3.469,0,0,1,.453.41,5.722,5.722,0,0,1,.418.5q.2.27.363.527ZM15.508,7.688V10.8H16.6a1.813,1.813,0,0,0,1.3-.469,1.564,1.564,0,0,0,.5-1.18q0-1.469-1.758-1.469ZM29.977,13.7H24.758q.125,1.742,2.2,1.742a4.286,4.286,0,0,0,2.32-.625V16.6a6.1,6.1,0,0,1-2.883.594,4.058,4.058,0,0,1-3.008-1.074,4.058,4.058,0,0,1-1.07-3,4.281,4.281,0,0,1,1.156-3.156A3.852,3.852,0,0,1,26.313,8.8,3.5,3.5,0,0,1,29.02,9.844a4,4,0,0,1,.957,2.82Zm-2.289-1.516q0-1.719-1.391-1.719a1.328,1.328,0,0,0-1.027.492,2.234,2.234,0,0,0-.527,1.227Zm6.258,3.883h-.031V20.68H31.445V9h2.469v1.2h.031a3.142,3.142,0,0,1,4.973-.332,4.54,4.54,0,0,1,.848,2.9,4.922,4.922,0,0,1-.988,3.211A3.222,3.222,0,0,1,36.148,17.2,2.491,2.491,0,0,1,33.945,16.07Zm-.07-3.281v.641a2.037,2.037,0,0,0,.438,1.352,1.424,1.424,0,0,0,1.148.523,1.514,1.514,0,0,0,1.309-.652,3.15,3.15,0,0,0,.465-1.848q0-2.109-1.641-2.109a1.541,1.541,0,0,0-1.238.574A2.29,2.29,0,0,0,33.875,12.789ZM45.18,17.2a4.3,4.3,0,0,1-3.145-1.121,4.064,4.064,0,0,1-1.145-3.043,4.065,4.065,0,0,1,1.188-3.105A4.487,4.487,0,0,1,45.289,8.8a4.249,4.249,0,0,1,3.125,1.121,3.985,3.985,0,0,1,1.133,2.965,4.23,4.23,0,0,1-1.168,3.148A4.348,4.348,0,0,1,45.18,17.2Zm.063-6.5a1.647,1.647,0,0,0-1.359.6A2.653,2.653,0,0,0,43.4,13q0,2.3,1.859,2.3,1.773,0,1.773-2.367Q47.031,10.7,45.242,10.7Zm11.125.531a2.142,2.142,0,0,0-1.039-.242,1.5,1.5,0,0,0-1.258.59,2.573,2.573,0,0,0-.453,1.605V17H51.148V9h2.469v1.484h.031a2.136,2.136,0,0,1,2.109-1.625,1.59,1.59,0,0,1,.609.094Zm6.445,5.68a3.649,3.649,0,0,1-1.648.289q-2.609,0-2.609-2.711V10.82h-1.3V9h1.3V7.273l2.461-.7V9h1.8v1.82h-1.8v3.234q0,1.25.992,1.25a1.673,1.673,0,0,0,.8-.227Zm2.641-9.172a1.442,1.442,0,0,1-1.023-.371,1.2,1.2,0,0,1-.4-.91,1.153,1.153,0,0,1,.4-.906,1.671,1.671,0,0,1,2.051,0,1.158,1.158,0,0,1,.395.906,1.191,1.191,0,0,1-.395.922A1.466,1.466,0,0,1,65.453,7.734ZM66.672,17H64.2V9h2.469Zm9.8,0H74.016V12.555q0-1.859-1.328-1.859a1.318,1.318,0,0,0-1.055.492,1.875,1.875,0,0,0-.414,1.25V17H68.75V9h2.469v1.266h.031A2.829,2.829,0,0,1,73.82,8.8q2.656,0,2.656,3.3Zm9.8-.914a4.526,4.526,0,0,1-1.289,3.449,5.224,5.224,0,0,1-3.734,1.223,5.919,5.919,0,0,1-2.562-.461V18.219a4.907,4.907,0,0,0,2.492.719,2.684,2.684,0,0,0,1.938-.66,2.369,2.369,0,0,0,.688-1.793v-.633h-.031A2.757,2.757,0,0,1,81.281,17.2a3,3,0,0,1-2.43-1.078,4.372,4.372,0,0,1-.9-2.891,4.87,4.87,0,0,1,1-3.227,3.265,3.265,0,0,1,2.633-1.2A2.429,2.429,0,0,1,83.773,9.93H83.8V9h2.469Zm-2.437-2.93v-.633a1.945,1.945,0,0,0-.449-1.293,1.453,1.453,0,0,0-1.168-.535,1.51,1.51,0,0,0-1.289.641,3.012,3.012,0,0,0-.469,1.8,2.543,2.543,0,0,0,.445,1.582,1.451,1.451,0,0,0,1.219.582,1.511,1.511,0,0,0,1.238-.59A2.418,2.418,0,0,0,83.836,13.156Z" transform="translate(1299.001 11275.348)" fill="#12263f"/>
      <path id="Trazado_635161" data-name="Trazado 635161" d="M20.945,17h-2.9L16.3,14.117q-.2-.328-.375-.586a3.255,3.255,0,0,0-.363-.441,1.445,1.445,0,0,0-.383-.281.972.972,0,0,0-.434-.1h-.68V17H11.547V5.8h4q4.078,0,4.078,3.047a3.155,3.155,0,0,1-.18,1.082,3.006,3.006,0,0,1-.508.895,3.219,3.219,0,0,1-.793.688,4.089,4.089,0,0,1-1.035.453v.031a1.606,1.606,0,0,1,.484.254,3.469,3.469,0,0,1,.453.41,5.722,5.722,0,0,1,.418.5q.2.27.363.527ZM14.07,7.688V10.8h1.094a1.813,1.813,0,0,0,1.3-.469,1.564,1.564,0,0,0,.5-1.18q0-1.469-1.758-1.469ZM28.539,13.7H23.32q.125,1.742,2.2,1.742a4.286,4.286,0,0,0,2.32-.625V16.6a6.1,6.1,0,0,1-2.883.594,4.058,4.058,0,0,1-3.008-1.074,4.058,4.058,0,0,1-1.07-3,4.281,4.281,0,0,1,1.156-3.156A3.852,3.852,0,0,1,24.875,8.8a3.5,3.5,0,0,1,2.707,1.039,4,4,0,0,1,.957,2.82ZM26.25,12.188q0-1.719-1.391-1.719a1.328,1.328,0,0,0-1.027.492,2.234,2.234,0,0,0-.527,1.227Zm9.82,4.523a4.881,4.881,0,0,1-2.414.484,4.083,4.083,0,0,1-2.984-1.117A3.859,3.859,0,0,1,29.531,13.2,4.251,4.251,0,0,1,30.754,9.98,4.518,4.518,0,0,1,34.023,8.8a4.2,4.2,0,0,1,2.047.375v2.094a2.814,2.814,0,0,0-1.727-.578,2.275,2.275,0,0,0-1.684.621,2.317,2.317,0,0,0-.621,1.715,2.28,2.28,0,0,0,.594,1.668,2.182,2.182,0,0,0,1.633.605,3.258,3.258,0,0,0,1.8-.578Zm5.43.484a4.3,4.3,0,0,1-3.145-1.121,4.064,4.064,0,0,1-1.145-3.043A4.065,4.065,0,0,1,38.4,9.926,4.487,4.487,0,0,1,41.609,8.8a4.249,4.249,0,0,1,3.125,1.121,3.985,3.985,0,0,1,1.133,2.965A4.23,4.23,0,0,1,44.7,16.039,4.348,4.348,0,0,1,41.5,17.2Zm.063-6.5a1.647,1.647,0,0,0-1.359.6,2.653,2.653,0,0,0-.484,1.7q0,2.3,1.859,2.3,1.773,0,1.773-2.367Q43.352,10.7,41.563,10.7Zm8.406,5.375h-.031V20.68H47.469V9h2.469v1.2h.031a3.142,3.142,0,0,1,4.973-.332,4.54,4.54,0,0,1,.848,2.9,4.922,4.922,0,0,1-.988,3.211A3.222,3.222,0,0,1,52.172,17.2,2.491,2.491,0,0,1,49.969,16.07Zm-.07-3.281v.641a2.037,2.037,0,0,0,.438,1.352,1.424,1.424,0,0,0,1.148.523,1.514,1.514,0,0,0,1.309-.652,3.15,3.15,0,0,0,.465-1.848q0-2.109-1.641-2.109a1.541,1.541,0,0,0-1.238.574A2.29,2.29,0,0,0,49.9,12.789Zm8.742-5.055a1.442,1.442,0,0,1-1.023-.371,1.2,1.2,0,0,1-.4-.91,1.153,1.153,0,0,1,.4-.906,1.671,1.671,0,0,1,2.051,0,1.158,1.158,0,0,1,.395.906,1.191,1.191,0,0,1-.395.922A1.466,1.466,0,0,1,58.641,7.734ZM59.859,17H57.391V9h2.469Zm4.547,0H61.938V5.156h2.469Zm8.734,0H70.8V15.852h-.031A2.607,2.607,0,0,1,68.391,17.2a2.492,2.492,0,0,1-1.832-.66,2.366,2.366,0,0,1-.668-1.762q0-2.328,2.758-2.687L70.82,11.8q0-1.312-1.422-1.312a4.853,4.853,0,0,0-2.719.852V9.477a6.116,6.116,0,0,1,1.41-.469,7.413,7.413,0,0,1,1.629-.2q3.422,0,3.422,3.414Zm-2.32-3.25v-.539l-1.453.188q-1.2.156-1.2,1.086a.9.9,0,0,0,.293.691,1.126,1.126,0,0,0,.793.27,1.462,1.462,0,0,0,1.133-.48A1.735,1.735,0,0,0,70.82,13.75Zm10.336,2.961a4.881,4.881,0,0,1-2.414.484,4.083,4.083,0,0,1-2.984-1.117A3.859,3.859,0,0,1,74.617,13.2,4.251,4.251,0,0,1,75.84,9.98,4.518,4.518,0,0,1,79.109,8.8a4.2,4.2,0,0,1,2.047.375v2.094A2.814,2.814,0,0,0,79.43,10.7a2.275,2.275,0,0,0-1.684.621,2.317,2.317,0,0,0-.621,1.715,2.28,2.28,0,0,0,.594,1.668,2.182,2.182,0,0,0,1.633.605,3.258,3.258,0,0,0,1.8-.578Zm2.867-8.977A1.442,1.442,0,0,1,83,7.363a1.2,1.2,0,0,1-.4-.91,1.153,1.153,0,0,1,.4-.906,1.671,1.671,0,0,1,2.051,0,1.158,1.158,0,0,1,.395.906,1.191,1.191,0,0,1-.395.922A1.466,1.466,0,0,1,84.023,7.734ZM85.242,17H82.773V9h2.469Zm5.891.2a4.3,4.3,0,0,1-3.145-1.121,4.064,4.064,0,0,1-1.145-3.043,4.065,4.065,0,0,1,1.188-3.105A4.487,4.487,0,0,1,91.242,8.8a4.249,4.249,0,0,1,3.125,1.121A3.985,3.985,0,0,1,95.5,12.891a4.23,4.23,0,0,1-1.168,3.148A4.348,4.348,0,0,1,91.133,17.2Zm.063-6.5a1.647,1.647,0,0,0-1.359.6,2.653,2.653,0,0,0-.484,1.7q0,2.3,1.859,2.3,1.773,0,1.773-2.367Q92.984,10.7,91.2,10.7Zm2.648-5.484L91.4,7.734H89.617l2.031-2.523ZM104.82,17h-2.461V12.555q0-1.859-1.328-1.859a1.318,1.318,0,0,0-1.055.492,1.875,1.875,0,0,0-.414,1.25V17H97.094V9h2.469v1.266h.031a2.829,2.829,0,0,1,2.57-1.461q2.656,0,2.656,3.3ZM9.629,41H7.16V39.9H7.129a2.768,2.768,0,0,1-2.477,1.3,3.033,3.033,0,0,1-2.414-1.059,4.382,4.382,0,0,1-.914-2.957A4.77,4.77,0,0,1,2.332,34a3.287,3.287,0,0,1,2.641-1.2,2.246,2.246,0,0,1,2.156,1.109H7.16V29.156H9.629ZM7.207,37.109v-.6a1.893,1.893,0,0,0-.453-1.3,1.5,1.5,0,0,0-1.18-.516,1.487,1.487,0,0,0-1.281.645,2.993,2.993,0,0,0-.461,1.77,2.59,2.59,0,0,0,.445,1.625,1.479,1.479,0,0,0,1.234.57,1.485,1.485,0,0,0,1.223-.6A2.507,2.507,0,0,0,7.207,37.109Zm11.688.594H13.676q.125,1.742,2.2,1.742a4.286,4.286,0,0,0,2.32-.625V40.6a6.1,6.1,0,0,1-2.883.594A4.058,4.058,0,0,1,12.3,40.121a4.058,4.058,0,0,1-1.07-3,4.281,4.281,0,0,1,1.156-3.156A3.852,3.852,0,0,1,15.23,32.8a3.5,3.5,0,0,1,2.707,1.039,4,4,0,0,1,.957,2.82Zm-2.289-1.516q0-1.719-1.391-1.719a1.328,1.328,0,0,0-1.027.492,2.234,2.234,0,0,0-.527,1.227Zm9.422-4.453A1.442,1.442,0,0,1,25,31.363a1.2,1.2,0,0,1-.4-.91,1.153,1.153,0,0,1,.4-.906,1.671,1.671,0,0,1,2.051,0,1.158,1.158,0,0,1,.395.906,1.191,1.191,0,0,1-.395.922A1.466,1.466,0,0,1,26.027,31.734ZM27.246,41H24.777V33h2.469Zm9.8,0H34.59V36.555q0-1.859-1.328-1.859a1.318,1.318,0,0,0-1.055.492,1.875,1.875,0,0,0-.414,1.25V41H29.324V33h2.469v1.266h.031a2.829,2.829,0,0,1,2.57-1.461q2.656,0,2.656,3.3Zm7.172-9.953a2.494,2.494,0,0,0-.914-.187q-1.188,0-1.187,1.289V33h1.828v1.82H42.121V41H39.66V34.82H38.316V33H39.66v-.992a2.88,2.88,0,0,1,.891-2.2,3.4,3.4,0,0,1,2.422-.836,4.253,4.253,0,0,1,1.25.156ZM48.949,41.2A4.3,4.3,0,0,1,45.8,40.074a4.064,4.064,0,0,1-1.145-3.043,4.065,4.065,0,0,1,1.188-3.105A4.487,4.487,0,0,1,49.059,32.8a4.249,4.249,0,0,1,3.125,1.121,3.985,3.985,0,0,1,1.133,2.965,4.23,4.23,0,0,1-1.168,3.148A4.348,4.348,0,0,1,48.949,41.2Zm.063-6.5a1.647,1.647,0,0,0-1.359.6,2.653,2.653,0,0,0-.484,1.7q0,2.3,1.859,2.3,1.773,0,1.773-2.367Q50.8,34.7,49.012,34.7Zm11.125.531a2.142,2.142,0,0,0-1.039-.242,1.5,1.5,0,0,0-1.258.59,2.573,2.573,0,0,0-.453,1.605V41H54.918V33h2.469v1.484h.031a2.136,2.136,0,0,1,2.109-1.625,1.59,1.59,0,0,1,.609.094ZM74.035,41H71.574V36.438q0-1.742-1.281-1.742a1.177,1.177,0,0,0-.992.523,2.151,2.151,0,0,0-.383,1.3V41H66.449V36.391q0-1.7-1.258-1.7a1.206,1.206,0,0,0-1.012.5,2.2,2.2,0,0,0-.379,1.359V41H61.332V33H63.8v1.25h.031A3.031,3.031,0,0,1,66.418,32.8a2.3,2.3,0,0,1,2.32,1.492A2.959,2.959,0,0,1,71.426,32.8q2.609,0,2.609,3.219Zm8.609,0H80.309V39.852h-.031A2.607,2.607,0,0,1,77.895,41.2a2.492,2.492,0,0,1-1.832-.66,2.366,2.366,0,0,1-.668-1.762q0-2.328,2.758-2.687l2.172-.289q0-1.312-1.422-1.312a4.853,4.853,0,0,0-2.719.852V33.477a6.117,6.117,0,0,1,1.41-.469,7.413,7.413,0,0,1,1.629-.2q3.422,0,3.422,3.414Zm-2.32-3.25v-.539l-1.453.188q-1.2.156-1.2,1.086a.9.9,0,0,0,.293.691,1.126,1.126,0,0,0,.793.27,1.462,1.462,0,0,0,1.133-.48A1.735,1.735,0,0,0,80.324,37.75ZM90.66,40.711a4.881,4.881,0,0,1-2.414.484,4.083,4.083,0,0,1-2.984-1.117A3.859,3.859,0,0,1,84.121,37.2a4.251,4.251,0,0,1,1.223-3.215,4.518,4.518,0,0,1,3.27-1.176,4.2,4.2,0,0,1,2.047.375v2.094a2.814,2.814,0,0,0-1.727-.578,2.275,2.275,0,0,0-1.684.621,2.317,2.317,0,0,0-.621,1.715,2.28,2.28,0,0,0,.594,1.668,2.182,2.182,0,0,0,1.633.605,3.258,3.258,0,0,0,1.8-.578Zm2.867-8.977a1.442,1.442,0,0,1-1.023-.371,1.2,1.2,0,0,1-.4-.91,1.153,1.153,0,0,1,.4-.906,1.671,1.671,0,0,1,2.051,0,1.158,1.158,0,0,1,.395.906,1.191,1.191,0,0,1-.395.922A1.466,1.466,0,0,1,93.527,31.734ZM94.746,41H92.277V33h2.469Zm5.891.2a4.3,4.3,0,0,1-3.145-1.121,4.064,4.064,0,0,1-1.145-3.043,4.065,4.065,0,0,1,1.188-3.105,4.487,4.487,0,0,1,3.211-1.121,4.249,4.249,0,0,1,3.125,1.121A3.985,3.985,0,0,1,105,36.891a4.23,4.23,0,0,1-1.168,3.148A4.348,4.348,0,0,1,100.637,41.2Zm.063-6.5a1.647,1.647,0,0,0-1.359.6,2.653,2.653,0,0,0-.484,1.7q0,2.3,1.859,2.3,1.773,0,1.773-2.367Q102.488,34.7,100.7,34.7Zm2.648-5.484L100.9,31.734H99.121l2.031-2.523ZM114.324,41h-2.461V36.555q0-1.859-1.328-1.859a1.318,1.318,0,0,0-1.055.492,1.875,1.875,0,0,0-.414,1.25V41H106.6V33h2.469v1.266h.031a2.829,2.829,0,0,1,2.57-1.461q2.656,0,2.656,3.3Z" transform="translate(228 11069.098)" fill="#12263f"/>
      <path id="Trazado_635162" data-name="Trazado 635162" d="M30.516,17h-2.75l-.8-2.492H22.984L22.2,17H19.461L23.539,5.8h2.992Zm-4.125-4.43L25.188,8.8A4.907,4.907,0,0,1,25,7.8h-.062a4.273,4.273,0,0,1-.2.977l-1.219,3.8ZM39.4,17H36.938V12.555q0-1.859-1.328-1.859a1.318,1.318,0,0,0-1.055.492,1.875,1.875,0,0,0-.414,1.25V17H31.672V9h2.469v1.266h.031A2.829,2.829,0,0,1,36.742,8.8q2.656,0,2.656,3.3Zm8.609,0H45.672V15.852h-.031A2.607,2.607,0,0,1,43.258,17.2a2.492,2.492,0,0,1-1.832-.66,2.366,2.366,0,0,1-.668-1.762q0-2.328,2.758-2.687l2.172-.289q0-1.312-1.422-1.312a4.853,4.853,0,0,0-2.719.852V9.477a6.116,6.116,0,0,1,1.41-.469,7.413,7.413,0,0,1,1.629-.2q3.422,0,3.422,3.414Zm-2.32-3.25v-.539l-1.453.188q-1.2.156-1.2,1.086a.9.9,0,0,0,.293.691,1.126,1.126,0,0,0,.793.27,1.462,1.462,0,0,0,1.133-.48A1.735,1.735,0,0,0,45.688,13.75Zm1.586-8.539L44.828,7.734H43.047l2.031-2.523ZM52.43,17H49.961V5.156H52.43Zm3.328-9.266a1.442,1.442,0,0,1-1.023-.371,1.2,1.2,0,0,1-.4-.91,1.153,1.153,0,0,1,.4-.906,1.671,1.671,0,0,1,2.051,0,1.158,1.158,0,0,1,.395.906,1.191,1.191,0,0,1-.395.922A1.466,1.466,0,0,1,55.758,7.734ZM56.977,17H54.508V9h2.469Zm1.555-.211v-2a5.256,5.256,0,0,0,1.215.547,4.028,4.028,0,0,0,1.145.18,2.455,2.455,0,0,0,1.035-.18.581.581,0,0,0,.379-.547.506.506,0,0,0-.172-.391,1.6,1.6,0,0,0-.441-.273,5.009,5.009,0,0,0-.59-.211q-.32-.094-.617-.211a5.914,5.914,0,0,1-.84-.387,2.427,2.427,0,0,1-.609-.48,1.889,1.889,0,0,1-.375-.633,2.525,2.525,0,0,1-.129-.852,2.192,2.192,0,0,1,.293-1.156,2.393,2.393,0,0,1,.781-.793,3.57,3.57,0,0,1,1.117-.453A5.825,5.825,0,0,1,62.031,8.8a7.261,7.261,0,0,1,1.078.082,8.047,8.047,0,0,1,1.078.238v1.906a3.9,3.9,0,0,0-1-.41,4.235,4.235,0,0,0-1.051-.137,2.328,2.328,0,0,0-.457.043,1.505,1.505,0,0,0-.379.125.7.7,0,0,0-.258.211.486.486,0,0,0-.094.293.541.541,0,0,0,.141.375,1.221,1.221,0,0,0,.367.27,3.625,3.625,0,0,0,.5.2q.277.09.551.184a7.161,7.161,0,0,1,.891.375,2.848,2.848,0,0,1,.684.477,1.872,1.872,0,0,1,.438.641,2.563,2.563,0,0,1-.156,2.09,2.471,2.471,0,0,1-.82.82,3.72,3.72,0,0,1-1.18.461,6.54,6.54,0,0,1-1.387.145A7.149,7.149,0,0,1,58.531,16.789Zm8.813-9.055a1.442,1.442,0,0,1-1.023-.371,1.2,1.2,0,0,1-.4-.91,1.153,1.153,0,0,1,.4-.906,1.671,1.671,0,0,1,2.051,0,1.158,1.158,0,0,1,.395.906,1.191,1.191,0,0,1-.395.922A1.466,1.466,0,0,1,67.344,7.734ZM68.563,17H66.094V9h2.469Zm1.555-.211v-2a5.256,5.256,0,0,0,1.215.547,4.028,4.028,0,0,0,1.145.18,2.455,2.455,0,0,0,1.035-.18.581.581,0,0,0,.379-.547.506.506,0,0,0-.172-.391,1.6,1.6,0,0,0-.441-.273,5.009,5.009,0,0,0-.59-.211q-.32-.094-.617-.211a5.913,5.913,0,0,1-.84-.387,2.427,2.427,0,0,1-.609-.48,1.889,1.889,0,0,1-.375-.633,2.525,2.525,0,0,1-.129-.852A2.192,2.192,0,0,1,70.41,10.2a2.393,2.393,0,0,1,.781-.793,3.57,3.57,0,0,1,1.117-.453A5.825,5.825,0,0,1,73.617,8.8a7.261,7.261,0,0,1,1.078.082,8.047,8.047,0,0,1,1.078.238v1.906a3.9,3.9,0,0,0-1-.41,4.235,4.235,0,0,0-1.051-.137,2.328,2.328,0,0,0-.457.043,1.505,1.505,0,0,0-.379.125.7.7,0,0,0-.258.211.486.486,0,0,0-.094.293.541.541,0,0,0,.141.375,1.221,1.221,0,0,0,.367.27,3.625,3.625,0,0,0,.5.2q.277.09.551.184a7.161,7.161,0,0,1,.891.375,2.848,2.848,0,0,1,.684.477,1.872,1.872,0,0,1,.438.641,2.563,2.563,0,0,1-.156,2.09,2.471,2.471,0,0,1-.82.82,3.72,3.72,0,0,1-1.18.461,6.54,6.54,0,0,1-1.387.145A7.149,7.149,0,0,1,70.117,16.789Zm19.8.211H87.453V15.9h-.031a2.768,2.768,0,0,1-2.477,1.3,3.033,3.033,0,0,1-2.414-1.059,4.382,4.382,0,0,1-.914-2.957A4.77,4.77,0,0,1,82.625,10a3.287,3.287,0,0,1,2.641-1.2,2.246,2.246,0,0,1,2.156,1.109h.031V5.156h2.469ZM87.5,13.109v-.6a1.893,1.893,0,0,0-.453-1.3,1.6,1.6,0,0,0-2.461.129,2.993,2.993,0,0,0-.461,1.77,2.59,2.59,0,0,0,.445,1.625,1.581,1.581,0,0,0,2.457-.031A2.507,2.507,0,0,0,87.5,13.109Zm11.688.594H93.969q.125,1.742,2.2,1.742a4.286,4.286,0,0,0,2.32-.625V16.6A6.1,6.1,0,0,1,95.6,17.2a4.058,4.058,0,0,1-3.008-1.074,4.058,4.058,0,0,1-1.07-3A4.281,4.281,0,0,1,92.68,9.969,3.852,3.852,0,0,1,95.523,8.8,3.5,3.5,0,0,1,98.23,9.844a4,4,0,0,1,.957,2.82ZM96.9,12.188q0-1.719-1.391-1.719a1.328,1.328,0,0,0-1.027.492,2.234,2.234,0,0,0-.527,1.227ZM9.73,33,6.754,41H3.941L1.105,33H3.746l1.391,4.93a7.2,7.2,0,0,1,.273,1.422h.031a8.069,8.069,0,0,1,.289-1.375L7.152,33Zm8.656,8H15.926V39.781h-.039A2.792,2.792,0,0,1,13.441,41.2q-2.781,0-2.781-3.367V33h2.461v4.609q0,1.7,1.344,1.7a1.329,1.329,0,0,0,1.063-.465,1.874,1.874,0,0,0,.4-1.262V33h2.461Zm4.547,0H20.465V29.156h2.469Zm9.8,0H30.277V36.555q0-1.859-1.328-1.859a1.318,1.318,0,0,0-1.055.492,1.875,1.875,0,0,0-.414,1.25V41H25.012V33H27.48v1.266h.031a2.829,2.829,0,0,1,2.57-1.461q2.656,0,2.656,3.3Zm9.141-3.3H36.66q.125,1.742,2.2,1.742a4.286,4.286,0,0,0,2.32-.625V40.6a6.1,6.1,0,0,1-2.883.594,3.724,3.724,0,0,1-4.078-4.07,4.281,4.281,0,0,1,1.156-3.156A3.852,3.852,0,0,1,38.215,32.8a3.5,3.5,0,0,1,2.707,1.039,4,4,0,0,1,.957,2.82ZM39.59,36.188q0-1.719-1.391-1.719a1.328,1.328,0,0,0-1.027.492,2.234,2.234,0,0,0-.527,1.227Zm8.977-.961a2.142,2.142,0,0,0-1.039-.242,1.5,1.5,0,0,0-1.258.59,2.573,2.573,0,0,0-.453,1.605V41H43.348V33h2.469v1.484h.031a2.136,2.136,0,0,1,2.109-1.625,1.59,1.59,0,0,1,.609.094ZM56.371,41H54.035V39.852H54A2.607,2.607,0,0,1,51.621,41.2a2.492,2.492,0,0,1-1.832-.66,2.366,2.366,0,0,1-.668-1.762q0-2.328,2.758-2.687l2.172-.289q0-1.312-1.422-1.312a4.853,4.853,0,0,0-2.719.852V33.477a6.116,6.116,0,0,1,1.41-.469,7.413,7.413,0,0,1,1.629-.2q3.422,0,3.422,3.414Zm-2.32-3.25v-.539L52.6,37.4q-1.2.156-1.2,1.086a.9.9,0,0,0,.293.691,1.126,1.126,0,0,0,.793.27,1.462,1.462,0,0,0,1.133-.48A1.735,1.735,0,0,0,54.051,37.75Zm6.773,2.32h-.031V41H58.324V29.156h2.469V34.2h.031a2.929,2.929,0,0,1,2.6-1.4,2.855,2.855,0,0,1,2.383,1.063,4.582,4.582,0,0,1,.836,2.906,4.962,4.962,0,0,1-.977,3.211A3.181,3.181,0,0,1,63.059,41.2,2.521,2.521,0,0,1,60.824,40.07Zm-.07-3.375v.82A1.872,1.872,0,0,0,61.2,38.8a1.449,1.449,0,0,0,1.141.508,1.514,1.514,0,0,0,1.309-.652,3.15,3.15,0,0,0,.465-1.848,2.506,2.506,0,0,0-.426-1.551,1.437,1.437,0,0,0-1.215-.559,1.569,1.569,0,0,0-1.23.555A2.107,2.107,0,0,0,60.754,36.7ZM69.5,31.734a1.442,1.442,0,0,1-1.023-.371,1.2,1.2,0,0,1-.4-.91,1.153,1.153,0,0,1,.4-.906,1.671,1.671,0,0,1,2.051,0,1.158,1.158,0,0,1,.395.906,1.191,1.191,0,0,1-.395.922A1.466,1.466,0,0,1,69.5,31.734ZM70.715,41H68.246V33h2.469Zm4.547,0H72.793V29.156h2.469Zm3.328-9.266a1.442,1.442,0,0,1-1.023-.371,1.2,1.2,0,0,1-.4-.91,1.153,1.153,0,0,1,.4-.906,1.671,1.671,0,0,1,2.051,0,1.158,1.158,0,0,1,.395.906,1.191,1.191,0,0,1-.395.922A1.466,1.466,0,0,1,78.59,31.734ZM79.809,41H77.34V33h2.469Zm9.906,0H87.246V39.9h-.031a2.768,2.768,0,0,1-2.477,1.3,3.033,3.033,0,0,1-2.414-1.059,4.382,4.382,0,0,1-.914-2.957A4.77,4.77,0,0,1,82.418,34a3.287,3.287,0,0,1,2.641-1.2,2.246,2.246,0,0,1,2.156,1.109h.031V29.156h2.469Zm-2.422-3.891v-.6a1.893,1.893,0,0,0-.453-1.3,1.6,1.6,0,0,0-2.461.129,2.993,2.993,0,0,0-.461,1.77,2.59,2.59,0,0,0,.445,1.625A1.581,1.581,0,0,0,86.82,38.7,2.507,2.507,0,0,0,87.293,37.109ZM98.449,41H96.113V39.852h-.031A2.607,2.607,0,0,1,93.7,41.2a2.492,2.492,0,0,1-1.832-.66,2.366,2.366,0,0,1-.668-1.762q0-2.328,2.758-2.687l2.172-.289q0-1.312-1.422-1.312a4.853,4.853,0,0,0-2.719.852V33.477a6.117,6.117,0,0,1,1.41-.469,7.413,7.413,0,0,1,1.629-.2q3.422,0,3.422,3.414Zm-2.32-3.25v-.539l-1.453.188q-1.2.156-1.2,1.086a.9.9,0,0,0,.293.691,1.126,1.126,0,0,0,.793.27,1.462,1.462,0,0,0,1.133-.48A1.735,1.735,0,0,0,96.129,37.75ZM108.23,41h-2.469V39.9h-.031a2.768,2.768,0,0,1-2.477,1.3,3.033,3.033,0,0,1-2.414-1.059,4.382,4.382,0,0,1-.914-2.957A4.77,4.77,0,0,1,100.934,34a3.287,3.287,0,0,1,2.641-1.2,2.246,2.246,0,0,1,2.156,1.109h.031V29.156h2.469Zm-2.422-3.891v-.6a1.893,1.893,0,0,0-.453-1.3,1.6,1.6,0,0,0-2.461.129,2.993,2.993,0,0,0-.461,1.77,2.59,2.59,0,0,0,.445,1.625,1.581,1.581,0,0,0,2.457-.031A2.507,2.507,0,0,0,105.809,37.109ZM117.5,37.7h-5.219q.125,1.742,2.2,1.742a4.286,4.286,0,0,0,2.32-.625V40.6a6.1,6.1,0,0,1-2.883.594,3.724,3.724,0,0,1-4.078-4.07,4.281,4.281,0,0,1,1.156-3.156,3.852,3.852,0,0,1,2.844-1.164,3.5,3.5,0,0,1,2.707,1.039,4,4,0,0,1,.957,2.82Zm-2.289-1.516q0-1.719-1.391-1.719a1.328,1.328,0,0,0-1.027.492,2.234,2.234,0,0,0-.527,1.227Z" transform="translate(545 11069.098)" fill="#12263f"/>
      <path id="Trazado_635165" data-name="Trazado 635165" d="M33.23,13.141V17H30.707V5.8H34.66q4.234,0,4.234,3.57A3.426,3.426,0,0,1,37.68,12.1a4.813,4.813,0,0,1-3.246,1.043Zm0-5.406v3.492h.992q2.016,0,2.016-1.766,0-1.727-2.016-1.727Zm10.4,9.461a4.3,4.3,0,0,1-3.145-1.121,4.064,4.064,0,0,1-1.145-3.043,4.065,4.065,0,0,1,1.188-3.105A4.487,4.487,0,0,1,43.738,8.8a4.249,4.249,0,0,1,3.125,1.121A3.985,3.985,0,0,1,48,12.891a4.23,4.23,0,0,1-1.168,3.148A4.348,4.348,0,0,1,43.629,17.2Zm.063-6.5a1.647,1.647,0,0,0-1.359.6,2.653,2.653,0,0,0-.484,1.7q0,2.3,1.859,2.3,1.773,0,1.773-2.367Q45.48,10.7,43.691,10.7Zm5.383,6.094v-2a5.256,5.256,0,0,0,1.215.547,4.028,4.028,0,0,0,1.145.18,2.455,2.455,0,0,0,1.035-.18.581.581,0,0,0,.379-.547.506.506,0,0,0-.172-.391,1.6,1.6,0,0,0-.441-.273,5.009,5.009,0,0,0-.59-.211q-.32-.094-.617-.211a5.914,5.914,0,0,1-.84-.387,2.427,2.427,0,0,1-.609-.48A1.889,1.889,0,0,1,49.2,12.2a2.525,2.525,0,0,1-.129-.852,2.192,2.192,0,0,1,.293-1.156,2.393,2.393,0,0,1,.781-.793,3.57,3.57,0,0,1,1.117-.453A5.825,5.825,0,0,1,52.574,8.8a7.261,7.261,0,0,1,1.078.082,8.047,8.047,0,0,1,1.078.238v1.906a3.9,3.9,0,0,0-1-.41,4.235,4.235,0,0,0-1.051-.137,2.328,2.328,0,0,0-.457.043,1.505,1.505,0,0,0-.379.125.7.7,0,0,0-.258.211.486.486,0,0,0-.094.293.541.541,0,0,0,.141.375A1.221,1.221,0,0,0,52,11.8a3.625,3.625,0,0,0,.5.2q.277.09.551.184a7.161,7.161,0,0,1,.891.375,2.848,2.848,0,0,1,.684.477,1.871,1.871,0,0,1,.438.641,2.563,2.563,0,0,1-.156,2.09,2.471,2.471,0,0,1-.82.82,3.72,3.72,0,0,1-1.18.461,6.54,6.54,0,0,1-1.387.145A7.149,7.149,0,0,1,49.074,16.789Zm12.4.117a3.649,3.649,0,0,1-1.648.289q-2.609,0-2.609-2.711V10.82h-1.3V9h1.3V7.273l2.461-.7V9h1.8v1.82h-1.8v3.234q0,1.25.992,1.25a1.673,1.673,0,0,0,.8-.227ZM66.5,13.594H62.223V11.867H66.5ZM12.441,41H5.723V29.8h6.461v2.055H8.246v2.492H11.91v2.047H8.246v2.563h4.2Zm9.281-8-2.641,3.875L21.707,41H18.863l-1.156-2.156q-.141-.258-.336-.727H17.34a5.073,5.073,0,0,1-.32.7L15.855,41H13.02l2.7-3.984L13.184,33h2.859l1.141,2.242a4.917,4.917,0,0,1,.32.75h.031a5.285,5.285,0,0,1,.336-.766L19.035,33Zm3.609,7.07H25.3V44.68H22.832V33H25.3v1.2h.031a3.142,3.142,0,0,1,4.973-.332,4.54,4.54,0,0,1,.848,2.9,4.922,4.922,0,0,1-.988,3.211A3.222,3.222,0,0,1,27.535,41.2,2.491,2.491,0,0,1,25.332,40.07Zm-.07-3.281v.641a2.037,2.037,0,0,0,.438,1.352,1.424,1.424,0,0,0,1.148.523,1.514,1.514,0,0,0,1.309-.652,3.15,3.15,0,0,0,.465-1.848q0-2.109-1.641-2.109a1.541,1.541,0,0,0-1.238.574A2.29,2.29,0,0,0,25.262,36.789ZM35.223,41H32.754V29.156h2.469Zm5.891.2a4.3,4.3,0,0,1-3.145-1.121,4.064,4.064,0,0,1-1.145-3.043,4.065,4.065,0,0,1,1.188-3.105A4.487,4.487,0,0,1,41.223,32.8a4.249,4.249,0,0,1,3.125,1.121,3.985,3.985,0,0,1,1.133,2.965,4.23,4.23,0,0,1-1.168,3.148A4.348,4.348,0,0,1,41.113,41.2Zm.063-6.5a1.647,1.647,0,0,0-1.359.6,2.653,2.653,0,0,0-.484,1.7q0,2.3,1.859,2.3,1.773,0,1.773-2.367Q42.965,34.7,41.176,34.7Zm10.742,6.211a3.649,3.649,0,0,1-1.648.289q-2.609,0-2.609-2.711V34.82h-1.3V33h1.3V31.273l2.461-.7V33h1.8v1.82h-1.8v3.234q0,1.25.992,1.25a1.673,1.673,0,0,0,.8-.227ZM59.965,41H57.629V39.852H57.6A2.607,2.607,0,0,1,55.215,41.2a2.492,2.492,0,0,1-1.832-.66,2.366,2.366,0,0,1-.668-1.762q0-2.328,2.758-2.687l2.172-.289q0-1.312-1.422-1.312a4.853,4.853,0,0,0-2.719.852V33.477a6.116,6.116,0,0,1,1.41-.469,7.413,7.413,0,0,1,1.629-.2q3.422,0,3.422,3.414Zm-2.32-3.25v-.539l-1.453.188q-1.2.156-1.2,1.086a.9.9,0,0,0,.293.691,1.126,1.126,0,0,0,.793.27,1.462,1.462,0,0,0,1.133-.48A1.735,1.735,0,0,0,57.645,37.75ZM67.98,40.711a4.881,4.881,0,0,1-2.414.484,4.083,4.083,0,0,1-2.984-1.117A3.859,3.859,0,0,1,61.441,37.2a4.251,4.251,0,0,1,1.223-3.215,4.518,4.518,0,0,1,3.27-1.176,4.2,4.2,0,0,1,2.047.375v2.094a2.814,2.814,0,0,0-1.727-.578,2.275,2.275,0,0,0-1.684.621,2.317,2.317,0,0,0-.621,1.715,2.28,2.28,0,0,0,.594,1.668,2.182,2.182,0,0,0,1.633.605,3.258,3.258,0,0,0,1.8-.578Zm2.867-8.977a1.442,1.442,0,0,1-1.023-.371,1.2,1.2,0,0,1-.4-.91,1.153,1.153,0,0,1,.4-.906,1.671,1.671,0,0,1,2.051,0,1.158,1.158,0,0,1,.395.906,1.191,1.191,0,0,1-.395.922A1.466,1.466,0,0,1,70.848,31.734ZM72.066,41H69.6V33h2.469Zm5.891.2a4.3,4.3,0,0,1-3.145-1.121,4.064,4.064,0,0,1-1.145-3.043,4.065,4.065,0,0,1,1.188-3.105A4.487,4.487,0,0,1,78.066,32.8a4.249,4.249,0,0,1,3.125,1.121,3.985,3.985,0,0,1,1.133,2.965,4.23,4.23,0,0,1-1.168,3.148A4.348,4.348,0,0,1,77.957,41.2Zm.063-6.5a1.647,1.647,0,0,0-1.359.6,2.653,2.653,0,0,0-.484,1.7q0,2.3,1.859,2.3,1.773,0,1.773-2.367Q79.809,34.7,78.02,34.7Zm2.648-5.484-2.445,2.523H76.441l2.031-2.523ZM91.645,41H89.184V36.555q0-1.859-1.328-1.859a1.318,1.318,0,0,0-1.055.492,1.875,1.875,0,0,0-.414,1.25V41H83.918V33h2.469v1.266h.031a2.829,2.829,0,0,1,2.57-1.461q2.656,0,2.656,3.3Z" transform="translate(878 11073.098)" fill="#12263f"/>
      <g id="Grupo_948150" data-name="Grupo 948150" transform="translate(-195 8626)">
        <rect id="Rectngulo_34429" data-name="Rectngulo 34429" width="58" height="58" transform="translate(421 2618)" fill="none"/>
        <g id="interaccion" transform="translate(426.84 2623.236)">
          <path id="Trazado_632963" data-name="Trazado 632963" d="M16.2,45.069H12.25A2.25,2.25,0,0,1,10,42.818V12.25A2.251,2.251,0,0,1,12.25,10H50.132a2.25,2.25,0,0,1,2.25,2.25V42.068a3,3,0,0,1-3,3Zm0,0" transform="translate(-9.062 -9.062)" fill="#fff"/>
          <path id="Trazado_632964" data-name="Trazado 632964" d="M50.132,10H12.25A2.251,2.251,0,0,0,10,12.25v4.5H52.383v-4.5A2.25,2.25,0,0,0,50.132,10Zm0,0" transform="translate(-9.062 -9.062)" fill="#45bbcc"/>
          <path id="Trazado_632965" data-name="Trazado 632965" d="M160.913,194.315a2.532,2.532,0,0,0,0,3.58l-1.424-1.424a2.532,2.532,0,0,0-3.58,3.58,2.532,2.532,0,1,0-3.58,3.58l-6.762-6.762a2.532,2.532,0,0,0-3.58,3.58l14.371,14.371-5.7-1.384a2.657,2.657,0,0,0-1.5,5.092l9.378,3.27a12.445,12.445,0,0,0,12.9-20.551l-6.934-6.934a2.532,2.532,0,0,0-3.58,0Zm0,0" transform="translate(-128.001 -175.422)" fill="#feda9b"/>
          <path id="Trazado_632966" data-name="Trazado 632966" d="M215.224,36H195.762a.938.938,0,0,0,0,1.875h19.463a.938.938,0,1,0,0-1.875Zm0,0" transform="translate(-176.556 -32.624)"/>
          <path id="Trazado_632967" data-name="Trazado 632967" d="M87.3,36a.938.938,0,1,0,.663.275A.945.945,0,0,0,87.3,36Zm0,0" transform="translate(-78.261 -32.624)"/>
          <path id="Trazado_632968" data-name="Trazado 632968" d="M50.547,36a.938.938,0,1,0,.663.275A.945.945,0,0,0,50.547,36Zm0,0" transform="translate(-44.957 -32.624)"/>
          <path id="Trazado_632969" data-name="Trazado 632969" d="M124.047,36a.938.938,0,1,0,.663.275A.943.943,0,0,0,124.047,36Zm0,0" transform="translate(-111.565 -32.624)"/>
          <path id="Trazado_632970" data-name="Trazado 632970" d="M179.1,374.271a.937.937,0,1,0,.275.663A.944.944,0,0,0,179.1,374.271Zm0,0" transform="translate(-160.856 -338.927)"/>
          <path id="Trazado_632971" data-name="Trazado 632971" d="M44.255,25.333c0-.021,0-.042,0-.064V3.188A3.191,3.191,0,0,0,41.07,0H3.188A3.192,3.192,0,0,0,0,3.188V33.756a3.192,3.192,0,0,0,3.188,3.188H13.972a.938.938,0,0,0,0-1.875H3.188a1.314,1.314,0,0,1-1.313-1.313V8.627H42.383v14.83L37.156,18.23a3.472,3.472,0,0,0-5.806,1.557,3.469,3.469,0,0,0-5.117,3.166l-.115,0a3.476,3.476,0,0,0-3.308,2.416l-4.581-4.581a3.469,3.469,0,0,0-4.906,4.906L25.332,37.7l-2.458-.6a3.6,3.6,0,0,0-2.031,6.888l9.378,3.27a13.382,13.382,0,0,0,14.035-21.93ZM1.886,6.752h-.01V3.188A1.314,1.314,0,0,1,3.188,1.876H41.071a1.314,1.314,0,0,1,1.313,1.313V6.752ZM42.763,42.763a11.571,11.571,0,0,1-11.925,2.729l-9.378-3.27a1.726,1.726,0,0,1-1.095-2.069,1.708,1.708,0,0,1,1.652-1.276,1.754,1.754,0,0,1,.414.05l5.7,1.384a.938.938,0,0,0,.884-1.574L14.649,24.366A1.594,1.594,0,1,1,16.9,22.112l6.762,6.762h0l4.864,4.864a.938.938,0,0,0,1.326-1.326l-4.864-4.864h0a1.594,1.594,0,1,1,2.254-2.254l5.118,5.117a.938.938,0,1,0,1.326-1.326l-5.117-5.118a1.594,1.594,0,1,1,2.254-2.254l1.423,1.423h0l3.74,3.74a.938.938,0,0,0,1.326-1.326l-3.74-3.741a1.594,1.594,0,1,1,2.254-2.254l6.934,6.933a11.521,11.521,0,0,1,0,16.274Zm0,0" transform="translate(0)"/>
          <path id="Trazado_632972" data-name="Trazado 632972" d="M156.613,153.382v-2.019a.938.938,0,1,0-1.875,0v2.019a.938.938,0,1,0,1.875,0Zm0,0" transform="translate(-140.228 -136.32)"/>
          <path id="Trazado_632973" data-name="Trazado 632973" d="M70.692,235.41a.938.938,0,1,0,0,1.875h2.019a.938.938,0,0,0,0-1.875Zm0,0" transform="translate(-63.213 -213.336)"/>
          <path id="Trazado_632974" data-name="Trazado 632974" d="M77.9,159.508a.938.938,0,0,0,.663-1.6l-3.5-3.5a.938.938,0,0,0-1.326,1.326l3.5,3.5A.935.935,0,0,0,77.9,159.508Zm0,0" transform="translate(-66.569 -139.676)"/>
        </g>
      </g>
      <g id="Grupo_948175" data-name="Grupo 948175" transform="translate(131 8626)">
        <rect id="Rectngulo_34429-2" data-name="Rectngulo 34429" width="58" height="58" transform="translate(421 2618)" fill="none"/>
        <g id="crisis" transform="translate(421.474 2619.598)">
          <path id="Trazado_632985" data-name="Trazado 632985" d="M24.107,7.428,4.485,41.414a4.855,4.855,0,0,0,4.2,7.283H47.934a4.855,4.855,0,0,0,4.2-7.283L32.516,7.428a4.855,4.855,0,0,0-8.409,0Z" transform="translate(0.215 0.214)" fill="#fac100"/>
          <path id="Trazado_632986" data-name="Trazado 632986" d="M41.664,40.119A31.56,31.56,0,0,1,13.3,22.412l-8.82,15.28a4.855,4.855,0,0,0,4.2,7.283H47.934a4.855,4.855,0,0,0,4.474-6.734,31.484,31.484,0,0,1-10.745,1.879Z" transform="translate(0.215 3.937)" fill="#ff9500"/>
          <path id="Trazado_632987" data-name="Trazado 632987" d="M23.557,14h1.908a1.942,1.942,0,0,1,1.942,2.076l-.954,14.311a1.946,1.946,0,0,1-3.884,0l-.954-14.311A1.942,1.942,0,0,1,23.557,14Z" transform="translate(4.015 2.138)" fill="#2d4a60"/>
          <circle id="Elipse_5350" data-name="Elipse 5350" cx="3.035" cy="3.035" r="3.035" transform="translate(25.492 37.987)" fill="#2d4a60"/>
          <path id="Trazado_632988" data-name="Trazado 632988" d="M24.535,37.776a3.035,3.035,0,0,0,2.783-1.829,31.272,31.272,0,0,1-5.478-2.573,3,3,0,0,0-.34,1.368A3.035,3.035,0,0,0,24.535,37.776Z" transform="translate(3.992 6.28)" fill="#263f52"/>
          <path id="Trazado_632989" data-name="Trazado 632989" d="M48.149,50.125H8.9a6.069,6.069,0,0,1-5.261-9.1L23.271,7.034a6.069,6.069,0,0,1,10.512,0L53.41,41.021a6.069,6.069,0,0,1-5.256,9.1ZM25.37,8.248,5.75,42.235A3.641,3.641,0,0,0,8.906,47.7H48.149A3.641,3.641,0,0,0,51.3,42.235L31.682,8.248a3.641,3.641,0,0,0-6.312,0Z" transform="translate(0)"/>
          <path id="Trazado_632990" data-name="Trazado 632990" d="M24.725,33.635a3.167,3.167,0,0,1-3.156-2.95L20.614,16.37A3.156,3.156,0,0,1,23.771,13H25.68a3.156,3.156,0,0,1,3.156,3.37l-.954,14.316A3.167,3.167,0,0,1,24.725,33.635Zm-.954-18.207a.728.728,0,0,0-.728.782L24,30.524a.728.728,0,0,0,1.457,0l.955-14.315a.728.728,0,0,0-.728-.782Z" transform="translate(3.801 1.924)"/>
          <path id="Trazado_632991" data-name="Trazado 632991" d="M24.748,39.5A4.248,4.248,0,1,1,29,35.248,4.248,4.248,0,0,1,24.748,39.5Zm0-6.069a1.821,1.821,0,1,0,1.821,1.821A1.821,1.821,0,0,0,24.748,33.428Z" transform="translate(3.778 5.773)"/>
        </g>
      </g>
      <g id="Grupo_948178" data-name="Grupo 948178" transform="translate(449 8626)">
        <rect id="Rectngulo_34429-3" data-name="Rectngulo 34429" width="58" height="58" transform="translate(421 2618)" fill="none"/>
        <g id="seguro" transform="translate(426 2623)">
          <path id="Trazado_633012" data-name="Trazado 633012" d="M23.3,26.969h.734V21.828a11,11,0,0,1,16.891-9.3V10.813h-.734V4.2a2.206,2.206,0,0,0-2.2-2.2H6.406A2.206,2.206,0,0,0,4.2,4.2V26.969H21.094v1.469H2a2.206,2.206,0,0,0,2.2,2.2H21.094v.734h1.469V27.7A.734.734,0,0,1,23.3,26.969Zm2.938-15.422v1.469H17.9a.735.735,0,0,1-.693-.489,3.672,3.672,0,1,0,0,2.447.736.736,0,0,1,.693-.489h6.131v1.469H18.391a5.141,5.141,0,1,1,0-4.406h4.172V10.078h1.469v1.469h.734V10.078h1.469Zm-13.219,2.2a.734.734,0,1,1-.734-.734A.735.735,0,0,1,13.016,13.75ZM6.406,25.5a.734.734,0,0,1-.734-.734V4.2a.734.734,0,0,1,.734-.734H37.984a.734.734,0,0,1,.734.734V9.344H37.25V4.938H7.141V24.031H22.563V25.5Z" transform="translate(-0.531 -0.531)" fill="#bee7ed"/>
          <rect id="Rectngulo_34535" data-name="Rectngulo 34535" width="3" height="1" transform="translate(24 32)" fill="#bee7ed"/>
          <path id="Trazado_633013" data-name="Trazado 633013" d="M44.875,21A5.882,5.882,0,0,0,39,26.875v5.141H50.75V26.875A5.882,5.882,0,0,0,44.875,21Z" transform="translate(-10.359 -5.578)" fill="#bee7ed"/>
          <rect id="Rectngulo_34536" data-name="Rectngulo 34536" width="3" height="1" transform="translate(24 35)" fill="#bee7ed"/>
          <path id="Trazado_633014" data-name="Trazado 633014" d="M36.2,25.547a7.344,7.344,0,0,1,14.688,0v5.141h2.2V25.547a9.547,9.547,0,0,0-19.094,0v5.141h2.2Z" transform="translate(-9.031 -4.25)" fill="#45bbcc"/>
          <path id="Trazado_633015" data-name="Trazado 633015" d="M32,38v2.2h4.406a.734.734,0,0,1,.734.734v11.75a.734.734,0,0,1-.734.734H32v2.2H54.031V38ZM45.219,49v3.687a.734.734,0,0,1-.734.734H41.547a.734.734,0,0,1-.734-.734V49a3.672,3.672,0,1,1,4.406,0Z" transform="translate(-8.5 -10.094)" fill="#3795a3"/>
          <rect id="Rectngulo_34537" data-name="Rectngulo 34537" width="3" height="2" transform="translate(24 40)" fill="#bee7ed"/>
          <rect id="Rectngulo_34538" data-name="Rectngulo 34538" width="3" height="2" transform="translate(24 37)" fill="#bee7ed"/>
          <path id="Trazado_633016" data-name="Trazado 633016" d="M46.2,46A2.206,2.206,0,0,0,44,48.2a2.18,2.18,0,0,0,1.1,1.9.735.735,0,0,1,.365.634v3.345h1.469V50.733A.734.734,0,0,1,47.3,50.1a2.18,2.18,0,0,0,1.1-1.9A2.206,2.206,0,0,0,46.2,46Z" transform="translate(-11.688 -12.219)" fill="#bee7ed"/>
          <path id="Trazado_633017" data-name="Trazado 633017" d="M3.672,30.109a2.206,2.206,0,0,1-2.2-2.2H20.563V26.438H3.672V3.672a2.206,2.206,0,0,1,2.2-2.2H37.453a2.206,2.206,0,0,1,2.2,2.2v6.609h1.469V3.672A3.676,3.676,0,0,0,37.453,0H5.875A3.676,3.676,0,0,0,2.2,3.672V26.438H.734A.734.734,0,0,0,0,27.172v.734a3.676,3.676,0,0,0,3.672,3.672H20.563V30.109Z" fill="#1f2833"/>
          <path id="Trazado_633018" data-name="Trazado 633018" d="M23.891,24.563H8.469V5.469H38.578V9.875h1.469V4.734A.734.734,0,0,0,39.313,4H7.734A.734.734,0,0,0,7,4.734V25.3a.734.734,0,0,0,.734.734H23.891Z" transform="translate(-1.859 -1.063)" fill="#1f2833"/>
          <path id="Trazado_633019" data-name="Trazado 633019" d="M54.234,30.156H53.5V25.016a11.016,11.016,0,0,0-22.031,0v5.141h-.734a.734.734,0,0,0-.734.734V49.984a.734.734,0,0,0,.734.734h23.5a.734.734,0,0,0,.734-.734V30.891A.734.734,0,0,0,54.234,30.156Zm-21.3-5.141a9.547,9.547,0,0,1,19.094,0v5.141h-2.2V25.016a7.344,7.344,0,0,0-14.687,0v5.141h-2.2Zm15.422,0v5.141H36.609V25.016a5.875,5.875,0,0,1,11.75,0ZM31.469,42.641V41.172h3.672v1.469Zm3.672,1.469v1.469H31.469V44.109ZM31.469,39.7V38.234h3.672V39.7Zm0-2.937V35.3h3.672v1.469ZM53.5,49.25H31.469v-2.2h4.406a.734.734,0,0,0,.734-.734V34.563a.734.734,0,0,0-.734-.734H31.469v-2.2H53.5Z" transform="translate(-7.969 -3.719)" fill="#1f2833"/>
          <path id="Trazado_633020" data-name="Trazado 633020" d="M45.672,44a3.662,3.662,0,0,0-2.2,6.594v3.687a.734.734,0,0,0,.734.734h2.938a.734.734,0,0,0,.734-.734V50.594A3.662,3.662,0,0,0,45.672,44Zm1.1,5.567a.735.735,0,0,0-.365.634v3.345H44.938V50.2a.734.734,0,0,0-.365-.634,2.18,2.18,0,0,1-1.1-1.9,2.2,2.2,0,0,1,4.406,0A2.18,2.18,0,0,1,46.771,49.567Z" transform="translate(-11.156 -11.688)" fill="#1f2833"/>
          <path id="Trazado_633021" data-name="Trazado 633021" d="M17.141,53.344V46.734A.734.734,0,0,0,16.406,46H12.734a.734.734,0,0,0-.734.734v6.609a.734.734,0,0,0,.734.734h3.672A.734.734,0,0,0,17.141,53.344Zm-1.469-.734h-2.2V47.469h2.2Z" transform="translate(-3.188 -12.219)" fill="#1f2833"/>
          <path id="Trazado_633022" data-name="Trazado 633022" d="M6.672,52.609H5.938V46.734A.734.734,0,0,0,5.2,46H3v1.469H4.469v5.141H3v1.469H7.406a.734.734,0,0,0,.734-.734V51.875H6.672Z" transform="translate(-0.797 -12.219)" fill="#1f2833"/>
          <path id="Trazado_633023" data-name="Trazado 633023" d="M24.672,52.609h-.734V46.734A.734.734,0,0,0,23.2,46H21v1.469h1.469v5.141H21v1.469h4.406a.734.734,0,0,0,.734-.734V51.875H24.672Z" transform="translate(-5.578 -12.219)" fill="#1f2833"/>
          <rect id="Rectngulo_34539" data-name="Rectngulo 34539" width="2" height="2" transform="translate(19 43)" fill="#1f2833"/>
          <rect id="Rectngulo_34540" data-name="Rectngulo 34540" width="2" height="2" transform="translate(16 43)" fill="#1f2833"/>
          <rect id="Rectngulo_34541" data-name="Rectngulo 34541" width="2" height="2" transform="translate(13 43)" fill="#1f2833"/>
          <rect id="Rectngulo_34542" data-name="Rectngulo 34542" width="2" height="2" transform="translate(8 43)" fill="#1f2833"/>
          <rect id="Rectngulo_34543" data-name="Rectngulo 34543" width="2" height="2" transform="translate(5 43)" fill="#1f2833"/>
          <rect id="Rectngulo_34544" data-name="Rectngulo 34544" width="2" height="2" transform="translate(2 43)" fill="#1f2833"/>
          <path id="Trazado_633024" data-name="Trazado 633024" d="M27.156,13.938h-.734V12.469H24.953v1.469H20.781a5.141,5.141,0,1,0,0,4.406h5.641V16.875H20.291a.735.735,0,0,0-.693.489,3.672,3.672,0,1,1,0-2.447.736.736,0,0,0,.693.489h8.334V12.469H27.156Z" transform="translate(-2.922 -2.922)" fill="#1f2833"/>
          <ellipse id="Elipse_5357" data-name="Elipse 5357" cx="0.5" cy="1" rx="0.5" ry="1" transform="translate(11 12)" fill="#1f2833"/>
        </g>
      </g>
      <g id="Grupo_948187" data-name="Grupo 948187" transform="translate(767 8626)">
        <rect id="Rectngulo_34429-4" data-name="Rectngulo 34429" width="58" height="58" transform="translate(421 2618)" fill="none"/>
        <g id="reporte" transform="translate(364.602 2622.935)">
          <g id="Grupo_948188" data-name="Grupo 948188" transform="translate(68.826 0.689)">
            <path id="Trazado_633038" data-name="Trazado 633038" d="M106.025,53.166H78.393a2.756,2.756,0,0,1-2.756-2.756V10.256A2.756,2.756,0,0,1,78.393,7.5H97.459l11.323,11.323V50.409a2.757,2.757,0,0,1-2.757,2.756Z" transform="translate(-75.637 -7.5)" fill="#f7f6f7"/>
            <path id="Trazado_633039" data-name="Trazado 633039" d="M379.119,130.732v31.586a2.757,2.757,0,0,1-2.757,2.756h2.757a2.757,2.757,0,0,0,2.756-2.756V130.732Z" transform="translate(-348.732 -119.409)" fill="#edebed"/>
            <path id="Trazado_633040" data-name="Trazado 633040" d="M142.922,57.691H122.886a.919.919,0,0,1-.919-.919V53.419a.919.919,0,0,1,.919-.919h20.036a.919.919,0,0,1,.919.919v3.354A.919.919,0,0,1,142.922,57.691Z" transform="translate(-117.71 -48.365)" fill="#d3ced4"/>
            <path id="Trazado_633041" data-name="Trazado 633041" d="M324.454,48.823h-8.566a2.756,2.756,0,0,1-2.756-2.756V37.5Z" transform="translate(-291.31 -34.744)" fill="#edebed"/>
            <path id="Trazado_633042" data-name="Trazado 633042" d="M324.454,18.823h-8.566a2.756,2.756,0,0,1-2.756-2.756V7.5Z" transform="translate(-291.31 -7.5)" fill="#c4bcc6"/>
            <path id="Trazado_633043" data-name="Trazado 633043" d="M127.572,166H122.61a.643.643,0,0,1-.643-.643v-4.962a.643.643,0,0,1,.643-.643h4.962a.643.643,0,0,1,.643.643v4.962A.643.643,0,0,1,127.572,166Z" transform="translate(-117.71 -145.761)" fill="#b3e59f"/>
            <path id="Trazado_633044" data-name="Trazado 633044" d="M155.723,159.75h-2.756a.643.643,0,0,1,.643.643v4.962a.643.643,0,0,1-.643.643h2.756a.643.643,0,0,0,.643-.643v-4.962A.643.643,0,0,0,155.723,159.75Z" transform="translate(-145.862 -145.761)" fill="#95d6a4"/>
            <path id="Trazado_633045" data-name="Trazado 633045" d="M127.572,279H122.61a.643.643,0,0,1-.643-.643v-4.962a.643.643,0,0,1,.643-.643h4.962a.643.643,0,0,1,.643.643v4.962A.643.643,0,0,1,127.572,279Z" transform="translate(-117.71 -248.378)" fill="#ff8086"/>
            <path id="Trazado_633046" data-name="Trazado 633046" d="M155.723,272.75h-2.756a.643.643,0,0,1,.643.643v4.962a.643.643,0,0,1-.643.643h2.756a.643.643,0,0,0,.643-.643v-4.962A.643.643,0,0,0,155.723,272.75Z" transform="translate(-145.862 -248.378)" fill="#e5646e"/>
            <path id="Trazado_633047" data-name="Trazado 633047" d="M127.572,392H122.61a.643.643,0,0,1-.643-.643v-4.962a.643.643,0,0,1,.643-.643h4.962a.643.643,0,0,1,.643.643v4.962A.643.643,0,0,1,127.572,392Z" transform="translate(-117.71 -350.996)" fill="#ffe07d"/>
            <path id="Trazado_633048" data-name="Trazado 633048" d="M155.723,385.75h-2.756a.643.643,0,0,1,.643.643v4.962a.643.643,0,0,1-.643.643h2.756a.643.643,0,0,0,.643-.643v-4.962A.643.643,0,0,0,155.723,385.75Z" transform="translate(-145.862 -350.996)" fill="#ffd064"/>
          </g>
          <path id="Trazado_633049" data-name="Trazado 633049" d="M97.35,27.128H83.466a.689.689,0,1,0,0,1.378H97.35a.689.689,0,0,0,0-1.378Zm0,10.383H83.466a.689.689,0,1,0,0,1.378H97.35a.689.689,0,0,0,0-1.378Zm0-2.756H83.466a.689.689,0,1,0,0,1.378H97.35a.689.689,0,1,0,0-1.378Zm0-10.383H83.466a.689.689,0,1,0,0,1.378H97.35a.689.689,0,1,0,0-1.378Zm4.621,2.478a.689.689,0,0,0,.689-.689V12.012a.7.7,0,0,0-.2-.487L91.135.2a.69.69,0,0,0-.487-.2H71.583a3.449,3.449,0,0,0-3.446,3.446V43.6a3.449,3.449,0,0,0,3.446,3.446H99.214A3.449,3.449,0,0,0,102.66,43.6V29.376a.689.689,0,1,0-1.378,0V43.6a2.07,2.07,0,0,1-2.067,2.067H71.583A2.07,2.07,0,0,1,69.515,43.6V3.446a2.07,2.07,0,0,1,2.067-2.067H89.959V4.135H74a1.61,1.61,0,0,0-1.608,1.608V9.1A1.61,1.61,0,0,0,74,10.7H87.569a.689.689,0,1,0,0-1.378H74a.23.23,0,0,1-.23-.23V5.743a.23.23,0,0,1,.23-.23H89.959V9.255A3.449,3.449,0,0,0,93.4,12.7h7.877V26.16A.689.689,0,0,0,101.97,26.849ZM93.4,11.323a2.07,2.07,0,0,1-2.067-2.067v-6.9l8.97,8.97H93.4ZM78.688,34.754H73.726a1.334,1.334,0,0,0-1.332,1.332v4.962a1.334,1.334,0,0,0,1.332,1.332h4.962a1.334,1.334,0,0,0,1.332-1.332V36.087A1.334,1.334,0,0,0,78.688,34.754ZM78.642,41h-4.87v-4.87h4.87ZM80.02,15.321a1.334,1.334,0,0,0-1.332-1.332H73.726a1.334,1.334,0,0,0-1.332,1.332v4.962a1.334,1.334,0,0,0,1.332,1.332h4.962a1.334,1.334,0,0,0,1.332-1.332Zm-1.378,4.916h-4.87v-4.87h4.87ZM97.35,13.989H83.466a.689.689,0,1,0,0,1.378H97.35a.689.689,0,1,0,0-1.378Zm0,2.756H83.466a.689.689,0,1,0,0,1.378H97.35a.689.689,0,1,0,0-1.378ZM80.02,25.7a1.334,1.334,0,0,0-1.332-1.332H73.726A1.334,1.334,0,0,0,72.394,25.7v4.962A1.334,1.334,0,0,0,73.726,32h4.962a1.334,1.334,0,0,0,1.332-1.332ZM78.642,30.62h-4.87V25.75h4.87Z"/>
        </g>
      </g>
      <g id="Grupo_948151" data-name="Grupo 948151" transform="translate(-31 8457)">
        <rect id="Rectngulo_34429-5" data-name="Rectngulo 34429" width="58" height="58" transform="translate(421 2618)" fill="none"/>
        <g id="expediente" transform="translate(400.446 2622.07)">
          <g id="Grupo_948156" data-name="Grupo 948156" transform="translate(28.323 0.971)">
            <g id="Grupo_948152" data-name="Grupo 948152" transform="translate(6.615 17.6)">
              <path id="Trazado_632975" data-name="Trazado 632975" d="M132.095,192.116a9.224,9.224,0,0,1-2.72-.408v21.935a2.563,2.563,0,0,1-2.563,2.563H105.476v2.661a2.563,2.563,0,0,0,2.563,2.563h25.388a2.563,2.563,0,0,0,2.563-2.563V191.256A9.192,9.192,0,0,1,132.095,192.116Z" transform="translate(-105.476 -191.256)" fill="#ccf5fc"/>
            </g>
            <g id="Grupo_948153" data-name="Grupo 948153" transform="translate(0 2.102)">
              <path id="Trazado_632976" data-name="Trazado 632976" d="M64.529,31.646H39.915a2.563,2.563,0,0,0-2.563,2.563V69.531a2.563,2.563,0,0,0,2.563,2.563H65.3a2.563,2.563,0,0,0,2.563-2.563V47.791" transform="translate(-37.352 -31.646)" fill="#faf7f5"/>
            </g>
            <g id="Grupo_948154" data-name="Grupo 948154" transform="translate(24.005)">
              <ellipse id="Elipse_5348" data-name="Elipse 5348" cx="9.228" cy="9.23" rx="9.228" ry="9.23" fill="#45bbcc"/>
            </g>
            <g id="Grupo_948155" data-name="Grupo 948155" transform="translate(6.508 9.77)">
              <path id="Trazado_632977" data-name="Trazado 632977" d="M104.377,110.62h17.5v4.1h-17.5Z" transform="translate(-104.377 -110.62)" fill="#ffe6b4"/>
            </g>
          </g>
          <g id="Grupo_948174" data-name="Grupo 948174" transform="translate(27.352)">
            <g id="Grupo_948158" data-name="Grupo 948158" transform="translate(33.238 7.958)">
              <g id="Grupo_948157" data-name="Grupo 948157">
                <path id="Trazado_632978" data-name="Trazado 632978" d="M370.626,90.538a.971.971,0,0,1-.971-.971v-6.64a.971.971,0,0,1,1.942,0v6.64A.971.971,0,0,1,370.626,90.538Z" transform="translate(-369.655 -81.956)"/>
              </g>
            </g>
            <g id="Grupo_948160" data-name="Grupo 948160" transform="translate(33.234 4.833)">
              <g id="Grupo_948159" data-name="Grupo 948159">
                <circle id="Elipse_5349" data-name="Elipse 5349" cx="0.971" cy="0.971" r="0.971"/>
              </g>
            </g>
            <g id="Grupo_948163" data-name="Grupo 948163" transform="translate(0)">
              <path id="Trazado_632979" data-name="Trazado 632979" d="M71.756,10.2A10.194,10.194,0,0,0,55.362,2.1H30.886a3.538,3.538,0,0,0-3.534,3.534V40.958a3.538,3.538,0,0,0,3.534,3.534h3.081v1.69A3.538,3.538,0,0,0,37.5,49.715H62.889a3.538,3.538,0,0,0,3.534-3.534V32.714a.971.971,0,0,0-1.942,0V46.182a1.594,1.594,0,0,1-1.592,1.592H37.5a1.594,1.594,0,0,1-1.592-1.592v-1.69H56.274a3.538,3.538,0,0,0,3.534-3.534V20.252a10.236,10.236,0,0,0,4.673-.277v3.96a.971.971,0,1,0,1.942,0v-4.77A10.21,10.21,0,0,0,71.756,10.2ZM57.866,40.958a1.594,1.594,0,0,1-1.592,1.592H30.886a1.594,1.594,0,0,1-1.592-1.592V5.636a1.594,1.594,0,0,1,1.592-1.592H53.43A10.148,10.148,0,0,0,51.367,9.77H34.831a.971.971,0,0,0-.971.971v4.1a.971.971,0,0,0,.971.971h17.5a.967.967,0,0,0,.587-.2,10.259,10.259,0,0,0,4.95,4.1ZM51.357,11.712v2.159H35.8V11.712Zm10.2,6.748A8.259,8.259,0,1,1,69.814,10.2,8.267,8.267,0,0,1,61.557,18.46Z" transform="translate(-27.352)"/>
              <g id="Grupo_948162" data-name="Grupo 948162" transform="translate(37.13 27.338)">
                <g id="Grupo_948161" data-name="Grupo 948161">
                  <path id="Trazado_632980" data-name="Trazado 632980" d="M410.711,283.481a.971.971,0,1,1,.946-.751A.98.98,0,0,1,410.711,283.481Z" transform="translate(-409.742 -281.541)"/>
                </g>
              </g>
            </g>
            <g id="Grupo_948173" data-name="Grupo 948173" transform="translate(6.508 19.19)">
              <g id="Grupo_948172" data-name="Grupo 948172">
                <g id="Grupo_948165" data-name="Grupo 948165">
                  <g id="Grupo_948164" data-name="Grupo 948164">
                    <path id="Trazado_632981" data-name="Trazado 632981" d="M112.845,199.575h-17.5a.971.971,0,1,1,0-1.942h17.5a.971.971,0,1,1,0,1.942Z" transform="translate(-94.377 -197.633)"/>
                  </g>
                </g>
                <g id="Grupo_948167" data-name="Grupo 948167" transform="translate(0 4.605)">
                  <g id="Grupo_948166" data-name="Grupo 948166">
                    <path id="Trazado_632982" data-name="Trazado 632982" d="M112.845,247.005h-17.5a.971.971,0,0,1,0-1.942h17.5a.971.971,0,0,1,0,1.942Z" transform="translate(-94.377 -245.063)"/>
                  </g>
                </g>
                <g id="Grupo_948169" data-name="Grupo 948169" transform="translate(0 9.211)">
                  <g id="Grupo_948168" data-name="Grupo 948168">
                    <path id="Trazado_632983" data-name="Trazado 632983" d="M112.845,294.435h-17.5a.971.971,0,0,1,0-1.942h17.5a.971.971,0,0,1,0,1.942Z" transform="translate(-94.377 -292.493)"/>
                  </g>
                </g>
                <g id="Grupo_948171" data-name="Grupo 948171" transform="translate(0 13.816)">
                  <g id="Grupo_948170" data-name="Grupo 948170">
                    <path id="Trazado_632984" data-name="Trazado 632984" d="M112.845,341.865h-17.5a.971.971,0,0,1,0-1.942h17.5a.971.971,0,0,1,0,1.942Z" transform="translate(-94.377 -339.923)"/>
                  </g>
                </g>
              </g>
            </g>
          </g>
        </g>
      </g>
      <g id="Grupo_948177" data-name="Grupo 948177" transform="translate(288 8457)">
        <rect id="Rectngulo_34429-6" data-name="Rectngulo 34429" width="58" height="58" transform="translate(421 2618)" fill="none"/>
        <g id="vigilancia" transform="translate(410.104 2608.137)">
          <path id="Trazado_632992" data-name="Trazado 632992" d="M80,25.593A1.593,1.593,0,0,1,81.593,24H119.03a1.593,1.593,0,0,1,1.593,1.593V51.878a1.593,1.593,0,0,1-1.593,1.593H80Z" transform="translate(-57.628 -7.203)" fill="#bee7ed"/>
          <path id="Trazado_632993" data-name="Trazado 632993" d="M315.948,362.355,320.727,352H308.779L304,362.355Z" transform="translate(-259.325 -302.546)" fill="#8be0e8"/>
          <path id="Trazado_632994" data-name="Trazado 632994" d="M240,456h18.32v1.593a1.593,1.593,0,0,1-1.593,1.593H241.593A1.593,1.593,0,0,1,240,457.593Z" transform="translate(-201.697 -396.191)" fill="#548aff"/>
          <path id="Trazado_632995" data-name="Trazado 632995" d="M64,280h5.479v7.169H64Z" transform="translate(-43.221 -237.715)" fill="#ffceb6"/>
          <path id="Trazado_632996" data-name="Trazado 632996" d="M99.983,240v6.276A1.69,1.69,0,0,1,97.1,247.47l-1.1-1.1V240Z" transform="translate(-72.035 -201.697)" fill="#ffceb6"/>
          <path id="Trazado_632997" data-name="Trazado 632997" d="M42.39,224.762l-1.856-3.094A3.742,3.742,0,0,1,40,219.743h0A3.743,3.743,0,0,1,43.742,216h5.816a1.593,1.593,0,0,1,0,3.186h-2.39l-1.593,2.39v3.186Z" transform="translate(-21.61 -180.087)" fill="#c47220"/>
          <path id="Trazado_632998" data-name="Trazado 632998" d="M48.692,349.541H42.146a3.186,3.186,0,0,1-2.368-1.055l-3.033-3.37v6.815H24V340.779A4.779,4.779,0,0,1,28.779,336H34.1a5.576,5.576,0,0,1,4.315,2.045l5.5,6.717h4.779Z" transform="translate(-7.203 -288.139)" fill="#ffb401"/>
          <path id="Trazado_632999" data-name="Trazado 632999" d="M272,421.576V416.8h1.593l3.186-.8,3.55,2.13a.892.892,0,0,1-.634,1.639l-2.916-.583-2.761,2.071a1.593,1.593,0,0,1-.956.319Z" transform="translate(-230.511 -360.174)" fill="#ffceb6"/>
          <path id="Trazado_633000" data-name="Trazado 633000" d="M343.169,459.186h-5.576A1.593,1.593,0,0,1,336,457.593V456h8.762v1.593A1.593,1.593,0,0,1,343.169,459.186Z" transform="translate(-288.139 -396.191)" fill="#4367e0"/>
          <path id="Trazado_633001" data-name="Trazado 633001" d="M192,248h4.779v3.983H192Z" transform="translate(-158.476 -208.901)" fill="#ffa100"/>
          <path id="Trazado_633002" data-name="Trazado 633002" d="M240,216h4.779v7.169H240Z" transform="translate(-201.697 -180.087)" fill="#ffb401"/>
          <path id="Trazado_633003" data-name="Trazado 633003" d="M288,176h4.779v11.151H288Z" transform="translate(-244.918 -144.069)" fill="#ffc431"/>
          <path id="Trazado_633004" data-name="Trazado 633004" d="M336,136h4.779v15.134H336Z" transform="translate(-288.139 -108.052)" fill="#ffcc4d"/>
          <path id="Trazado_633005" data-name="Trazado 633005" d="M384,104h4.779v18.32H384Z" transform="translate(-331.36 -79.238)" fill="#ffd873"/>
          <g id="Grupo_948176" data-name="Grupo 948176" transform="translate(32.579 19.976)">
            <circle id="Elipse_5351" data-name="Elipse 5351" cx="1.776" cy="1.776" r="1.776" transform="translate(0 10.658)" fill="#c5dafa"/>
            <ellipse id="Elipse_5352" data-name="Elipse 5352" cx="1.776" cy="1.184" rx="1.776" ry="1.184" transform="translate(8.289 5.921)" fill="#c5dafa"/>
            <circle id="Elipse_5353" data-name="Elipse 5353" cx="1.776" cy="1.776" r="1.776" transform="translate(15.394 0)" fill="#c5dafa"/>
          </g>
          <path id="Trazado_633006" data-name="Trazado 633006" d="M61.4,221.541H49.454a.8.8,0,0,0-.723.463l-2.749,5.957-3,.749h-5.9l-5.257-6.425a6.346,6.346,0,0,0-4.776-2.333v-.136a2.49,2.49,0,0,0,1.69-2.355v-4.82a2.389,2.389,0,0,0-.8-4.642H22.132a4.539,4.539,0,0,0-3.892,6.874l1.743,2.9v2.4A5.585,5.585,0,0,0,16,225.524v11.151h1.593V225.524a3.987,3.987,0,0,1,3.983-3.983H26.9a4.761,4.761,0,0,1,3.7,1.753l5.5,6.717a.8.8,0,0,0,.616.292h3.983v3.186h-5.75a2.393,2.393,0,0,1-1.776-.791l-6.219-6.911-1.184,1.066,2.982,3.313v6.509h1.593v-4.739l1.645,1.828a3.989,3.989,0,0,0,2.96,1.318h2.7a2.393,2.393,0,0,0,2.253,1.593H55.03a2.392,2.392,0,0,0,2.39-2.39v-1.418l4.706-10.2a.8.8,0,0,0-.723-1.13Zm-35.144-3.186a.887.887,0,0,1-.632-.262l-.865-.865v-2.615l1.223-1.834h1.167v4.682a.894.894,0,0,1-.893.893Zm-7.072-5.816a2.949,2.949,0,0,1,2.946-2.946h5.816a.8.8,0,0,1,0,1.593h-2.39a.8.8,0,0,0-.663.355L23.3,213.93a.8.8,0,0,0-.134.442v2.39H21.23l-1.624-2.707A2.947,2.947,0,0,1,19.186,212.539Zm2.39,5.816h2.06l.865.865a2.475,2.475,0,0,0,.961.6v.13H21.576ZM42.285,230.3h.8a.8.8,0,0,0,.193-.024l2.866-.716,3.267,1.96a.1.1,0,0,1-.068.175l-2.916-.583a.8.8,0,0,0-.634.144l-2.761,2.071a.8.8,0,0,1-.478.159h-.265Zm1.7,4.3,1.487-1.115h1.593v.8a2.378,2.378,0,0,0,.137.8H42.551A2.4,2.4,0,0,0,43.985,234.6Zm11.842-.319a.8.8,0,0,1-.8.8H49.454a.8.8,0,0,1-.8-.8v-.8h7.169Zm.287-2.39H51.02a1.669,1.669,0,0,0-.792-1.739l-2.745-1.647,2.481-5.376H60.157Z" transform="translate(0 -172.883)"/>
          <path id="Trazado_633007" data-name="Trazado 633007" d="M111.826,16H74.39A2.392,2.392,0,0,0,72,18.39V33.524h1.593V18.39a.8.8,0,0,1,.8-.8h37.437a.8.8,0,0,1,.8.8V44.675a.8.8,0,0,1-.8.8H80.762v1.593h31.064a2.392,2.392,0,0,0,2.39-2.39V18.39a2.392,2.392,0,0,0-2.39-2.39Z" transform="translate(-50.424)"/>
          <circle id="Elipse_5354" data-name="Elipse 5354" cx="0.592" cy="0.592" r="0.592" transform="translate(24.289 18.793)"/>
          <circle id="Elipse_5355" data-name="Elipse 5355" cx="0.592" cy="0.592" r="0.592" transform="translate(26.658 18.793)"/>
          <circle id="Elipse_5356" data-name="Elipse 5356" cx="0.592" cy="0.592" r="0.592" transform="translate(29.026 18.793)"/>
          <path id="Trazado_633008" data-name="Trazado 633008" d="M194.285,96h-4.779a.8.8,0,0,0-.8.8v2.39h-3.983a.8.8,0,0,0-.8.8v3.186h-3.983a.8.8,0,0,0-.8.8v3.186h-3.983a.8.8,0,0,0-.8.8v2.39H170.39a.8.8,0,0,0-.8.8v3.186H168v1.593h28.675V114.32h-1.593V96.8A.8.8,0,0,0,194.285,96Zm-23.1,15.931h3.186v2.39h-3.186Zm4.779-3.186h3.186v5.576h-3.186Zm4.779-3.983h3.186v9.558h-3.186Zm4.779-3.983h3.186V114.32h-3.186Zm7.965,13.541H190.3V97.593h3.186Z" transform="translate(-136.866 -72.035)"/>
          <path id="Trazado_633009" data-name="Trazado 633009" d="M144,62.331h3.323a2.389,2.389,0,0,0,4.539-1.492L156,57.787a2.389,2.389,0,0,0,3.739-2.755l3.626-2.672a2.388,2.388,0,0,0,3.593-1.181h4.916V49.587h-4.916a2.389,2.389,0,0,0-4.539,1.492l-3.761,2.771a2.388,2.388,0,0,0-3.469,2.556l-4.278,3.152a2.388,2.388,0,0,0-3.593,1.181H144Zm20.71-12.744a.8.8,0,1,1-.8.8A.8.8,0,0,1,164.71,49.587Zm-7.169,5.576a.8.8,0,1,1-.8.8A.8.8,0,0,1,157.541,55.163Zm-7.965,5.576a.8.8,0,1,1-.8.8A.8.8,0,0,1,149.576,60.738Z" transform="translate(-115.255 -28.808)"/>
          <path id="Trazado_633010" data-name="Trazado 633010" d="M440,64h1.593v1.593H440Z" transform="translate(-381.784 -43.221)"/>
          <path id="Trazado_633011" data-name="Trazado 633011" d="M112,176h1.593v1.593H112Z" transform="translate(-86.442 -144.069)"/>
        </g>
      </g>
      <g id="Grupo_948186" data-name="Grupo 948186" transform="translate(609 8457)">
        <rect id="Rectngulo_34429-7" data-name="Rectngulo 34429" width="58" height="58" transform="translate(421 2618)" fill="none"/>
        <g id="recopilacion-de-datos" transform="translate(429.389 2616.169)">
          <g id="Grupo_948185" data-name="Grupo 948185" transform="translate(-3.841 8.77)">
            <g id="Grupo_948179" data-name="Grupo 948179" transform="translate(14.989 27.563)">
              <path id="Trazado_633025" data-name="Trazado 633025" d="M171.148,305.3V317.81c0,1.7-4.328,3.077-9.667,3.077s-9.667-1.378-9.667-3.077V305.3c0-1.7,4.328-3.077,9.667-3.077S171.148,303.6,171.148,305.3Z" transform="translate(-151.813 -302.227)" fill="#ffe177" fill-rule="evenodd"/>
              <path id="Trazado_633026" data-name="Trazado 633026" d="M254.909,305.3V317.81c0,1.7-4.328,3.077-9.667,3.077q-.374,0-.742-.009c4.993-.121,8.926-1.448,8.926-3.068V305.3c0-1.62-3.933-2.947-8.926-3.068q.367-.009.742-.009C250.581,302.227,254.909,303.6,254.909,305.3Z" transform="translate(-235.574 -302.227)" fill="#ffd064" fill-rule="evenodd"/>
              <path id="Trazado_633027" data-name="Trazado 633027" d="M151.813,340.431c0,1.7,4.328,3.077,9.667,3.077s9.667-1.378,9.667-3.077v-6.253c0,1.7-4.328,3.077-9.667,3.077s-9.667-1.378-9.667-3.077Z" transform="translate(-151.813 -331.101)" fill="#ffd064" fill-rule="evenodd"/>
              <path id="Trazado_633028" data-name="Trazado 633028" d="M337.188,342.069c.939-.474,1.483-1.036,1.483-1.638v-6.253c0,.6-.544,1.164-1.483,1.638Z" transform="translate(-319.337 -331.101)" fill="#ffc338" fill-rule="evenodd"/>
            </g>
            <g id="Grupo_948180" data-name="Grupo 948180" transform="translate(0 1.823)">
              <circle id="Elipse_5358" data-name="Elipse 5358" cx="7.128" cy="7.128" r="7.128" transform="translate(0 3.935) rotate(-16.024)" fill="#8ac9fe"/>
            </g>
            <g id="Grupo_948184" data-name="Grupo 948184" transform="translate(18.139 0)">
              <g id="Grupo_948182" data-name="Grupo 948182" transform="translate(0)">
                <path id="Trazado_633029" data-name="Trazado 633029" d="M185.2,16h8.825a.651.651,0,0,1,.477.2l2.861,2.861a.651.651,0,0,1,.2.477V33.8a.676.676,0,0,1-.674.674H185.2a.676.676,0,0,1-.674-.674V16.674A.676.676,0,0,1,185.2,16Z" transform="translate(-184.523 -16)" fill="#eceff1" fill-rule="evenodd"/>
                <g id="Grupo_948181" data-name="Grupo 948181">
                  <path id="Trazado_633030" data-name="Trazado 633030" d="M185.2,16h.575V34.478H185.2a.676.676,0,0,1-.674-.674V16.674A.676.676,0,0,1,185.2,16Z" transform="translate(-184.523 -16)" fill="#d1d1d6" fill-rule="evenodd"/>
                  <path id="Trazado_633031" data-name="Trazado 633031" d="M286.451,19.8h2.813a.677.677,0,0,0-.139-.2l-2.861-2.861a.675.675,0,0,0-.2-.139v2.812A.386.386,0,0,0,286.451,19.8Z" transform="translate(-276.288 -16.549)" fill="#d1d1d6" fill-rule="evenodd"/>
                </g>
              </g>
              <g id="Grupo_948183" data-name="Grupo 948183" transform="translate(15.98 2.376)">
                <path id="Trazado_633032" data-name="Trazado 633032" d="M351.683,40.669h11.585a1.218,1.218,0,0,1,1.215,1.215v17.9A1.218,1.218,0,0,1,363.268,61H351.683a1.218,1.218,0,0,1-1.215-1.215v-17.9A1.218,1.218,0,0,1,351.683,40.669Z" transform="translate(-350.468 -40.669)" fill="#837683" fill-rule="evenodd"/>
                <path id="Trazado_633033" data-name="Trazado 633033" d="M363.7,40.9a1.219,1.219,0,0,1,.985,1.193v17.9a1.218,1.218,0,0,1-1.215,1.215H351.89a1.219,1.219,0,0,1-1.193-.985,1.206,1.206,0,0,0,.23.022h11.585a1.218,1.218,0,0,0,1.215-1.215v-17.9A1.207,1.207,0,0,0,363.7,40.9Z" transform="translate(-350.675 -40.876)" fill="#685e68" fill-rule="evenodd"/>
                <path id="Trazado_633034" data-name="Trazado 633034" d="M390.691,107.89a3.478,3.478,0,0,1,3.467,3.2.262.262,0,0,1-.261.283h-6.412a.262.262,0,0,1-.261-.283A3.479,3.479,0,0,1,390.691,107.89Z" transform="translate(-383.684 -101.417)" fill="#60b7ff" fill-rule="evenodd"/>
                <path id="Trazado_633035" data-name="Trazado 633035" d="M420.779,107.89a3.478,3.478,0,0,1,3.467,3.2.262.262,0,0,1-.261.283h-.523a.262.262,0,0,0,.261-.283,3.479,3.479,0,0,0-3.205-3.186Q420.647,107.89,420.779,107.89Z" transform="translate(-413.771 -101.417)" fill="#41a8fc" fill-rule="evenodd"/>
                <circle id="Elipse_5359" data-name="Elipse 5359" cx="1.759" cy="1.759" r="1.759" transform="translate(5.222 2.738) rotate(-1.203)" fill="#f6dccd"/>
                <path id="Trazado_633036" data-name="Trazado 633036" d="M421.666,68.772a1.759,1.759,0,0,1,0,3.517c-.056,0-.112,0-.167-.008a1.759,1.759,0,0,0,0-3.5Q421.581,68.772,421.666,68.772Z" transform="translate(-414.659 -66.066)" fill="#f1cbbc" fill-rule="evenodd"/>
              </g>
            </g>
          </g>
          <path id="Trazado_633037" data-name="Trazado 633037" d="M47.988,18.244a2.711,2.711,0,0,1,2.6,1.937H45.393A2.711,2.711,0,0,1,47.988,18.244Zm0-3.517a.988.988,0,1,1-.989.988A.988.988,0,0,1,47.988,14.728Zm-3.477,6.994h6.955a.77.77,0,0,0,.771-.77,4.251,4.251,0,0,0-2.218-3.731,2.529,2.529,0,1,0-4.061,0,4.251,4.251,0,0,0-2.218,3.731A.77.77,0,0,0,44.511,21.722Zm8.143,3.192a.77.77,0,0,1-.771.77H44.094a.77.77,0,1,1,0-1.541h7.789A.771.771,0,0,1,52.654,24.914Zm0,2.829a.77.77,0,0,1-.771.77H44.094a.77.77,0,1,1,0-1.541h7.789A.77.77,0,0,1,52.654,27.743Zm1.571,2.514v-17.9a.45.45,0,0,0-.444-.445H42.2a.45.45,0,0,0-.444.445v17.9a.45.45,0,0,0,.444.444H53.781A.45.45,0,0,0,54.225,30.258Zm-.444-19.883H42.2a1.988,1.988,0,0,0-1.985,1.985v17.9A1.987,1.987,0,0,0,42.2,32.242H53.781a1.987,1.987,0,0,0,1.984-1.985v-17.9a1.988,1.988,0,0,0-1.984-1.985ZM19.518,44.606a.771.771,0,0,1-.338.638l-2.723,1.848a.771.771,0,0,1-.865-1.276l.649-.439H12.2a.77.77,0,0,1-.771-.771v-14.1a.77.77,0,1,1,1.541,0V43.836H16.24l-.648-.44a.77.77,0,0,1,.865-1.275l2.723,1.848A.771.771,0,0,1,19.518,44.606ZM51.6,34.486v10.12a.77.77,0,0,1-.77.771H46.8l.648.439a.771.771,0,1,1-.865,1.276l-2.723-1.848a.77.77,0,0,1,0-1.275l2.723-1.848a.77.77,0,1,1,.865,1.275l-.648.44h3.268v-9.35a.77.77,0,0,1,1.541,0ZM32.288,29.124v2.79l.44-.648A.77.77,0,1,1,34,32.131l-1.847,2.723a.77.77,0,0,1-1.275,0l-1.847-2.723a.77.77,0,1,1,1.275-.865l.44.648v-2.79a.77.77,0,1,1,1.541,0Zm3.509-7.8a.771.771,0,0,1-.771.77H28.01a.77.77,0,1,1,0-1.541h7.017A.771.771,0,0,1,35.8,21.327Zm0-6.217a.771.771,0,0,1-.771.77H28.01a.77.77,0,1,1,0-1.541h7.017A.771.771,0,0,1,35.8,15.11ZM27.239,12a.77.77,0,0,1,.771-.77h4.34a.77.77,0,1,1,0,1.541H28.01A.77.77,0,0,1,27.239,12ZM35.8,18.218a.771.771,0,0,1-.771.771H28.01a.77.77,0,1,1,0-1.541h7.017A.771.771,0,0,1,35.8,18.218Zm0,6.217a.771.771,0,0,1-.771.771H28.01a.77.77,0,1,1,0-1.541h7.017A.771.771,0,0,1,35.8,24.435ZM25.771,9.54V26.478H37.265V12.8H34.779a.771.771,0,0,1-.77-.77V9.54Zm9.778,1.089.626.627H35.55ZM25,28.019H38.035a.771.771,0,0,0,.771-.77V12.027a.771.771,0,0,0-.225-.545L35.324,8.225A.77.77,0,0,0,34.779,8H25a.771.771,0,0,0-.771.771V27.248a.771.771,0,0,0,.771.77Zm-4.564-4.842c-.222-.113-.454-.217-.694-.312a8.812,8.812,0,0,0,.674-2.705h1.292A6.078,6.078,0,0,1,20.437,23.177ZM9.593,20.16h1.291a8.84,8.84,0,0,0,.674,2.705c-.24.1-.472.2-.694.312A6.078,6.078,0,0,1,9.593,20.16ZM10.864,15.6c.221.113.451.217.69.311a8.766,8.766,0,0,0-.672,2.707H9.593A6.085,6.085,0,0,1,10.864,15.6Zm5.557,3.018v-2a11.66,11.66,0,0,0,1.841-.254,7.209,7.209,0,0,1,.61,2.253Zm0,3.539v-2h2.448a7.282,7.282,0,0,1-.611,2.251A11.626,11.626,0,0,0,16.421,22.158Zm2.587,2.076c.079.029.158.059.235.09a5.84,5.84,0,0,1-.551.357C18.8,24.537,18.907,24.386,19.008,24.234Zm-2.587.637V23.705c.334.023.665.061.989.115A7.219,7.219,0,0,1,16.421,24.871Zm-3.812-.189a5.966,5.966,0,0,1-.551-.357c.078-.032.156-.062.235-.09C12.394,24.386,12.5,24.537,12.609,24.682Zm2.272-.976v1.165a7.214,7.214,0,0,1-.989-1.051C14.215,23.767,14.546,23.729,14.88,23.705Zm0-3.546v2a11.644,11.644,0,0,0-1.837.253,7.284,7.284,0,0,1-.611-2.251Zm0-3.539v2H12.429a7.219,7.219,0,0,1,.61-2.253A11.686,11.686,0,0,0,14.88,16.621Zm-2.59-2.077q-.118-.043-.233-.09A6.044,6.044,0,0,1,12.6,14.1c-.109.144-.213.293-.313.444Zm2.59-.638v1.167c-.335-.023-.667-.062-.992-.116A7.293,7.293,0,0,1,14.88,13.906ZM18.7,14.1a6.05,6.05,0,0,1,.545.354q-.114.046-.232.09C18.911,14.392,18.807,14.244,18.7,14.1Zm-2.277-.194a7.3,7.3,0,0,1,.992,1.052c-.325.054-.657.093-.992.116Zm5.287,4.713h-1.29a8.752,8.752,0,0,0-.672-2.707c.239-.094.47-.2.69-.311a6.086,6.086,0,0,1,1.271,3.018ZM15.651,11.74A7.649,7.649,0,1,0,23.3,19.389,7.657,7.657,0,0,0,15.651,11.74ZM33.257,51.866a.77.77,0,0,1-.77.77H30.55a.77.77,0,1,1,0-1.541h1.936A.771.771,0,0,1,33.257,51.866Zm0-6.253a.77.77,0,0,1-.77.77H30.55a.77.77,0,1,1,0-1.541h1.936A.77.77,0,0,1,33.257,45.613Zm4.864-4.762a22.7,22.7,0,0,1-6.6.865,22.7,22.7,0,0,1-6.6-.865c-1.683-.536-2.295-1.155-2.295-1.442s.611-.906,2.295-1.441a22.7,22.7,0,0,1,6.6-.865,22.7,22.7,0,0,1,6.6.865c1.684.535,2.295,1.155,2.295,1.441S39.8,40.315,38.12,40.851Zm0,6.253c1.684-.535,2.295-1.156,2.295-1.442V41.536a8.97,8.97,0,0,1-1.828.784,24.282,24.282,0,0,1-7.069.937,24.285,24.285,0,0,1-7.07-.937,8.985,8.985,0,0,1-1.828-.784v4.126c0,.286.611.906,2.295,1.442a22.677,22.677,0,0,0,6.6.866A22.675,22.675,0,0,0,38.12,47.1Zm0,6.254c1.684-.536,2.295-1.156,2.295-1.442V47.789a8.864,8.864,0,0,1-1.828.784,24.24,24.24,0,0,1-7.069.938,24.243,24.243,0,0,1-7.07-.938,8.879,8.879,0,0,1-1.828-.784v4.127c0,.286.611.905,2.295,1.442a22.708,22.708,0,0,0,6.6.865A22.707,22.707,0,0,0,38.12,53.358ZM38.587,36.5a24.249,24.249,0,0,0-7.069-.937,24.252,24.252,0,0,0-7.07.937c-2.784.886-3.368,2.071-3.368,2.91V51.916c0,.838.584,2.023,3.368,2.91a24.282,24.282,0,0,0,7.07.937,24.282,24.282,0,0,0,7.069-.937c2.784-.887,3.368-2.072,3.368-2.91V39.41C41.956,38.571,41.371,37.386,38.587,36.5Z" transform="translate(-10.702 0)" fill-rule="evenodd"/>
        </g>
      </g>
    </g>
  </g>
</svg>
