<svg xmlns="http://www.w3.org/2000/svg" xmlns:xlink="http://www.w3.org/1999/xlink" width="190" height="164" viewBox="0 0 190 164">
  <defs>
    <clipPath id="clip-path">
      <rect id="Rectángulo_34549" data-name="Rectángulo 34549" width="190" height="164" transform="translate(180 1158)" fill="#fff" stroke="#707070" stroke-width="1"/>
    </clipPath>
  </defs>
  <g id="Enmascarar_grupo_75" data-name="Enmascarar grupo 75" transform="translate(-180 -1158)" clip-path="url(#clip-path)">
    <g id="Grupo_948221" data-name="Grupo 948221">
      <path id="hacker-working-in-the-darkness" d="M0,0H74.525a79.915,79.915,0,0,0,75.167,52.785,80.61,80.61,0,0,0,10.445-.68v72.539q-5.177.351-10.445.356A152.145,152.145,0,0,1,0,0Z" transform="translate(305 1158) rotate(90)" fill="#583ae2" style="mix-blend-mode: multiply;isolation: isolate"/>
      <g id="desarrollo-de-software" transform="translate(235 1184)">
        <circle id="Elipse_5374" data-name="Elipse 5374" cx="4" cy="4" r="4" transform="translate(21 4)" fill="#46ccff"/>
        <circle id="Elipse_5375" data-name="Elipse 5375" cx="4" cy="4" r="4" transform="translate(91 4)" fill="#46ccff"/>
        <path id="Trazado_633080" data-name="Trazado 633080" d="M26,48H49.165V67.3H26Z" transform="translate(22.329 42.798)" fill="#323232"/>
        <path id="Trazado_633081" data-name="Trazado 633081" d="M15,57H80.633v7.722H15Z" transform="translate(12.095 51.171)" fill="#45bbcc"/>
        <path id="Trazado_633082" data-name="Trazado 633082" d="M3,11H114.962V84.354H3Z" transform="translate(0.93 8.374)" fill="#e3f5f8"/>
        <path id="Trazado_633083" data-name="Trazado 633083" d="M3,45H114.962v7.722H3Z" transform="translate(0.93 40.007)" fill="#45bbcc"/>
        <g id="Grupo_948222" data-name="Grupo 948222" transform="translate(11.652 38.677)">
          <ellipse id="Elipse_5376" data-name="Elipse 5376" cx="3.5" cy="4" rx="3.5" ry="4" transform="translate(0.348 13.322)" fill="#efaf22"/>
          <circle id="Elipse_5377" data-name="Elipse 5377" cx="4" cy="4" r="4" transform="translate(88.348 13.322)" fill="#efaf22"/>
          <path id="Trazado_633084" data-name="Trazado 633084" d="M57.747,42.234V34.513H53.326a13.068,13.068,0,0,0-1.062-2.567l3.127-3.127-5.366-5.463L46.9,26.482a13.069,13.069,0,0,0-2.664-1.062V21H36.513v4.421a13.068,13.068,0,0,0-2.567,1.062l-3.127-3.127-5.463,5.463,3.127,3.127a13.069,13.069,0,0,0-1.062,2.567H23v7.722h4.421A13.069,13.069,0,0,0,28.482,44.8l-3.127,3.224,5.463,5.463,3.127-3.127a13.068,13.068,0,0,0,2.567,1.062v4.324h7.722V51.326A13.068,13.068,0,0,0,46.8,50.265l3.224,3.127,5.366-5.366L52.265,44.9a13.068,13.068,0,0,0,1.062-2.664Z" transform="translate(7.886 -21)" fill="#efaf22"/>
        </g>
        <circle id="Elipse_5378" data-name="Elipse 5378" cx="6" cy="6" r="6" transform="translate(54 50)" fill="#ffd6ba"/>
        <path id="Trazado_633085" data-name="Trazado 633085" d="M115.892,17.443h-44.4V9.722H89.215a5.791,5.791,0,1,0,0-3.861H69.563a1.93,1.93,0,0,0-1.93,1.93v9.652H52.19V7.791a1.93,1.93,0,0,0-1.93-1.93H30.608a5.791,5.791,0,1,0,0,3.861H48.329v7.722H3.93A1.93,1.93,0,0,0,2,19.374V92.728a1.93,1.93,0,0,0,1.93,1.93H46.4v11.582h-19.3a1.93,1.93,0,0,0-1.93,1.93v7.722a1.93,1.93,0,0,0,1.93,1.93H92.728a1.93,1.93,0,0,0,1.93-1.93v-7.722a1.93,1.93,0,0,0-1.93-1.93h-19.3V94.658h42.468a1.93,1.93,0,0,0,1.93-1.93V19.374A1.93,1.93,0,0,0,115.892,17.443ZM94.658,5.861a1.93,1.93,0,1,1-1.93,1.93A1.93,1.93,0,0,1,94.658,5.861ZM25.165,9.722a1.93,1.93,0,1,1,1.93-1.93A1.93,1.93,0,0,1,25.165,9.722ZM67.633,21.3V40.145l-1.7,1.679-.232-.1v-3.05a1.93,1.93,0,0,0-1.93-1.93H56.051a1.93,1.93,0,0,0-1.93,1.93v3.05l-.232.1-1.7-1.679V21.3ZM70.1,50.549a11.2,11.2,0,0,1,.907,2.2,1.93,1.93,0,0,0,1.93,1.371h2.413v3.861h-2.49a1.93,1.93,0,0,0-1.93,1.371,11.2,11.2,0,0,1-.907,2.2,1.93,1.93,0,0,0,.405,2.22l1.757,1.757-2.625,2.8-1.93-1.757a1.93,1.93,0,0,0-2.3-.328,11.2,11.2,0,0,1-2.2.907,1.93,1.93,0,0,0-1.371,1.93v2.413H57.981V69a1.93,1.93,0,0,0-1.371-1.93,11.2,11.2,0,0,1-2.2-.907,1.93,1.93,0,0,0-2.3.328l-1.757,1.757L47.634,65.7l1.757-1.757a1.93,1.93,0,0,0,.328-2.3,11.2,11.2,0,0,1-.907-2.2,1.93,1.93,0,0,0-1.93-1.371H44.468V54.121h2.49a1.93,1.93,0,0,0,1.93-1.371,11.2,11.2,0,0,1,.907-2.2,1.93,1.93,0,0,0-.405-2.22l-1.757-1.757,2.722-2.722,1.757,1.757a1.93,1.93,0,0,0,2.3.328,11.2,11.2,0,0,1,2.2-.907,1.93,1.93,0,0,0,1.371-1.93v-2.49h3.861V43.1a1.93,1.93,0,0,0,1.371,1.93,11.2,11.2,0,0,1,2.2.907,1.93,1.93,0,0,0,2.22-.405l1.757-1.757L72.111,46.5l-1.757,1.757a1.93,1.93,0,0,0-.251,2.3ZM48.329,21.3V40.338l-4.807,4.787a1.93,1.93,0,0,0,0,2.741l2.162,2.162a1.177,1.177,0,0,1-.1.232h-3.05a1.93,1.93,0,0,0-1.93,1.93v1.93H20.956a5.791,5.791,0,1,0,0,3.861H40.608v1.93a1.93,1.93,0,0,0,1.93,1.93h3.05a1.178,1.178,0,0,1,.1.232l-2.162,2.162a1.93,1.93,0,0,0-.56,1.371,2.027,2.027,0,0,0,.56,1.371l5.463,5.463a1.93,1.93,0,0,0,2.741,0l2.162-2.162.232.1v3.05a1.93,1.93,0,0,0,1.93,1.93h7.722a1.93,1.93,0,0,0,1.93-1.93v-3.05l.232-.1L68.1,72.44a1.93,1.93,0,0,0,2.741,0L76.3,66.977a2.027,2.027,0,0,0,.56-1.371,1.93,1.93,0,0,0-.56-1.371l-2.162-2.162a1.176,1.176,0,0,1,.1-.232h3.05a1.93,1.93,0,0,0,1.93-1.93v-1.93H98.866a5.791,5.791,0,1,0,0-3.861H79.215V52.19a1.93,1.93,0,0,0-1.93-1.93h-3.05a1.177,1.177,0,0,1-.1-.232L76.3,47.866a1.93,1.93,0,0,0,0-2.741l-4.807-4.787V21.3h42.468V83.076H5.861V21.3ZM17.443,56.051a1.93,1.93,0,1,1-1.93-1.93A1.93,1.93,0,0,1,17.443,56.051Zm84.937,0a1.93,1.93,0,1,1,1.93,1.93A1.93,1.93,0,0,1,102.38,56.051ZM90.8,113.962H29.025V110.1H90.8Zm-21.234-7.722h-19.3V94.658h19.3ZM5.861,90.8V86.937h108.1V90.8Z" transform="translate(0 0)"/>
        <path id="Trazado_633086" data-name="Trazado 633086" d="M35.722,26a7.722,7.722,0,1,0,7.722,7.722A7.722,7.722,0,0,0,35.722,26Zm0,11.582a3.861,3.861,0,1,1,3.861-3.861A3.861,3.861,0,0,1,35.722,37.582Z" transform="translate(24.19 22.329)"/>
        <path id="Trazado_633087" data-name="Trazado 633087" d="M7.93,17.861h9.652V33.3a1.93,1.93,0,0,0,1.93,1.93H31.095a1.93,1.93,0,0,0,0-3.861H21.443V15.93A1.93,1.93,0,0,0,19.513,14H7.93a1.93,1.93,0,1,0,0,3.861Z" transform="translate(3.722 11.165)"/>
        <path id="Trazado_633088" data-name="Trazado 633088" d="M69.095,14H57.513a1.93,1.93,0,0,0-1.93,1.93V31.373H45.93a1.93,1.93,0,0,0,0,3.861H57.513a1.93,1.93,0,0,0,1.93-1.93V17.861h9.652a1.93,1.93,0,1,0,0-3.861Z" transform="translate(39.076 11.165)"/>
      </g>
    </g>
  </g>
</svg>
