<svg xmlns="http://www.w3.org/2000/svg" width="225.053" height="225.053" viewBox="0 0 225.053 225.053">
  <g id="Grupo_950120" data-name="Grupo 950120" transform="translate(9787.175 409.235)">
    <circle id="Elipse_5360" data-name="Elipse 5360" cx="52.867" cy="52.867" r="52.867" transform="translate(-9749.834 -284.583) rotate(-45)" fill="#bee7ed"/>
    <circle id="Elipse_5361" data-name="Elipse 5361" cx="43.422" cy="43.422" r="43.422" transform="translate(-9718.492 -327.528)" fill="#fff"/>
    <g id="Grupo_948190" data-name="Grupo 948190" transform="translate(-9674.648 -409.235) rotate(45)">
      <path id="Trazado_632962" data-name="Trazado 632962" d="M992.468,2880.458l13.35-13.349,44.758,44.758a52.382,52.382,0,1,0,29.76-9.28h0v-18.879a71.284,71.284,0,1,1-56.621,28Z" transform="translate(-992.468 -2867.108)" fill="#3795a3"/>
    </g>
    <g id="Grupo_948144" data-name="Grupo 948144" transform="translate(-10543.537 -8444.639)">
      <g id="Grupo_82733" data-name="Grupo 82733" transform="translate(846.738 8078.79)">
        <g id="Grupo_82732" data-name="Grupo 82732" transform="translate(0 0)">
          <circle id="Elipse_5320" data-name="Elipse 5320" cx="21.549" cy="21.549" r="21.549" transform="translate(1.85 44.949) rotate(-90)" fill="#45bbcc"/>
          <g id="Grupo_82731" data-name="Grupo 82731">
            <path id="Trazado_120382" data-name="Trazado 120382" d="M300.506,134.4a23.4,23.4,0,1,1,23.4-23.4A23.426,23.426,0,0,1,300.506,134.4Zm0-43.1A19.7,19.7,0,1,0,320.2,111,19.721,19.721,0,0,0,300.506,91.3Z" transform="translate(-277.106 -87.598)" fill="#29707a"/>
          </g>
        </g>
      </g>
      <text id="_02" data-name="02" transform="translate(870.537 8110.295)" fill="#fff" font-size="20" font-family="SegoeUIBlack, Segoe UI"><tspan x="-11.982" y="0">02</tspan></text>
    </g>
    <g id="Grupo_948196" data-name="Grupo 948196" transform="translate(-10123.4 -2931.583)">
      <rect id="Rectángulo_34429" data-name="Rectángulo 34429" width="58" height="58" transform="translate(421 2618)" fill="none"/>
      <g id="expediente" transform="translate(400.446 2622.07)">
        <g id="Grupo_948156" data-name="Grupo 948156" transform="translate(28.323 0.971)">
          <g id="Grupo_948152" data-name="Grupo 948152" transform="translate(6.615 17.6)">
            <path id="Trazado_632975" data-name="Trazado 632975" d="M132.095,192.116a9.224,9.224,0,0,1-2.72-.408v21.935a2.563,2.563,0,0,1-2.563,2.563H105.476v2.661a2.563,2.563,0,0,0,2.563,2.563h25.388a2.563,2.563,0,0,0,2.563-2.563V191.256A9.192,9.192,0,0,1,132.095,192.116Z" transform="translate(-105.476 -191.256)" fill="#ccf5fc"/>
          </g>
          <g id="Grupo_948153" data-name="Grupo 948153" transform="translate(0 2.102)">
            <path id="Trazado_632976" data-name="Trazado 632976" d="M64.529,31.646H39.915a2.563,2.563,0,0,0-2.563,2.563V69.531a2.563,2.563,0,0,0,2.563,2.563H65.3a2.563,2.563,0,0,0,2.563-2.563V47.791" transform="translate(-37.352 -31.646)" fill="#faf7f5"/>
          </g>
          <g id="Grupo_948154" data-name="Grupo 948154" transform="translate(24.005)">
            <ellipse id="Elipse_5348" data-name="Elipse 5348" cx="9.228" cy="9.23" rx="9.228" ry="9.23" fill="#45bbcc"/>
          </g>
          <g id="Grupo_948155" data-name="Grupo 948155" transform="translate(6.508 9.77)">
            <path id="Trazado_632977" data-name="Trazado 632977" d="M104.377,110.62h17.5v4.1h-17.5Z" transform="translate(-104.377 -110.62)" fill="#ffe6b4"/>
          </g>
        </g>
        <g id="Grupo_948174" data-name="Grupo 948174" transform="translate(27.352)">
          <g id="Grupo_948158" data-name="Grupo 948158" transform="translate(33.238 7.958)">
            <g id="Grupo_948157" data-name="Grupo 948157">
              <path id="Trazado_632978" data-name="Trazado 632978" d="M370.626,90.538a.971.971,0,0,1-.971-.971v-6.64a.971.971,0,0,1,1.942,0v6.64A.971.971,0,0,1,370.626,90.538Z" transform="translate(-369.655 -81.956)"/>
            </g>
          </g>
          <g id="Grupo_948160" data-name="Grupo 948160" transform="translate(33.234 4.833)">
            <g id="Grupo_948159" data-name="Grupo 948159">
              <circle id="Elipse_5349" data-name="Elipse 5349" cx="0.971" cy="0.971" r="0.971"/>
            </g>
          </g>
          <g id="Grupo_948163" data-name="Grupo 948163" transform="translate(0)">
            <path id="Trazado_632979" data-name="Trazado 632979" d="M71.756,10.2A10.194,10.194,0,0,0,55.362,2.1H30.886a3.538,3.538,0,0,0-3.534,3.534V40.958a3.538,3.538,0,0,0,3.534,3.534h3.081v1.69A3.538,3.538,0,0,0,37.5,49.715H62.889a3.538,3.538,0,0,0,3.534-3.534V32.714a.971.971,0,0,0-1.942,0V46.182a1.594,1.594,0,0,1-1.592,1.592H37.5a1.594,1.594,0,0,1-1.592-1.592v-1.69H56.274a3.538,3.538,0,0,0,3.534-3.534V20.252a10.236,10.236,0,0,0,4.673-.277v3.96a.971.971,0,1,0,1.942,0v-4.77A10.21,10.21,0,0,0,71.756,10.2ZM57.866,40.958a1.594,1.594,0,0,1-1.592,1.592H30.886a1.594,1.594,0,0,1-1.592-1.592V5.636a1.594,1.594,0,0,1,1.592-1.592H53.43A10.148,10.148,0,0,0,51.367,9.77H34.831a.971.971,0,0,0-.971.971v4.1a.971.971,0,0,0,.971.971h17.5a.967.967,0,0,0,.587-.2,10.259,10.259,0,0,0,4.95,4.1ZM51.357,11.712v2.159H35.8V11.712Zm10.2,6.748A8.259,8.259,0,1,1,69.814,10.2,8.267,8.267,0,0,1,61.557,18.46Z" transform="translate(-27.352)"/>
            <g id="Grupo_948162" data-name="Grupo 948162" transform="translate(37.13 27.338)">
              <g id="Grupo_948161" data-name="Grupo 948161">
                <path id="Trazado_632980" data-name="Trazado 632980" d="M410.711,283.481a.971.971,0,1,1,.946-.751A.98.98,0,0,1,410.711,283.481Z" transform="translate(-409.742 -281.541)"/>
              </g>
            </g>
          </g>
          <g id="Grupo_948173" data-name="Grupo 948173" transform="translate(6.508 19.19)">
            <g id="Grupo_948172" data-name="Grupo 948172">
              <g id="Grupo_948165" data-name="Grupo 948165">
                <g id="Grupo_948164" data-name="Grupo 948164">
                  <path id="Trazado_632981" data-name="Trazado 632981" d="M112.845,199.575h-17.5a.971.971,0,1,1,0-1.942h17.5a.971.971,0,1,1,0,1.942Z" transform="translate(-94.377 -197.633)"/>
                </g>
              </g>
              <g id="Grupo_948167" data-name="Grupo 948167" transform="translate(0 4.605)">
                <g id="Grupo_948166" data-name="Grupo 948166">
                  <path id="Trazado_632982" data-name="Trazado 632982" d="M112.845,247.005h-17.5a.971.971,0,0,1,0-1.942h17.5a.971.971,0,0,1,0,1.942Z" transform="translate(-94.377 -245.063)"/>
                </g>
              </g>
              <g id="Grupo_948169" data-name="Grupo 948169" transform="translate(0 9.211)">
                <g id="Grupo_948168" data-name="Grupo 948168">
                  <path id="Trazado_632983" data-name="Trazado 632983" d="M112.845,294.435h-17.5a.971.971,0,0,1,0-1.942h17.5a.971.971,0,0,1,0,1.942Z" transform="translate(-94.377 -292.493)"/>
                </g>
              </g>
              <g id="Grupo_948171" data-name="Grupo 948171" transform="translate(0 13.816)">
                <g id="Grupo_948170" data-name="Grupo 948170">
                  <path id="Trazado_632984" data-name="Trazado 632984" d="M112.845,341.865h-17.5a.971.971,0,0,1,0-1.942h17.5a.971.971,0,0,1,0,1.942Z" transform="translate(-94.377 -339.923)"/>
                </g>
              </g>
            </g>
          </g>
        </g>
      </g>
    </g>
  </g>
</svg>
