<svg xmlns="http://www.w3.org/2000/svg" width="67" height="72" viewBox="0 0 67 72">
  <g id="Grupo_948241" data-name="Grupo 948241" transform="translate(-828 -8248)">
    <rect id="Rectángulo_34186" data-name="Rectángulo 34186" width="67" height="72" rx="5" transform="translate(828 8248)" fill="#fff"/>
    <g id="manual" transform="translate(823.444 8255.684)">
      <g id="Grupo_948268" data-name="Grupo 948268" transform="translate(12.722 0.803)">
        <g id="Grupo_948267" data-name="Grupo 948267" transform="translate(0)">
          <path id="Trazado_633136" data-name="Trazado 633136" d="M78.569,54.651v.28a5.791,5.791,0,0,0,5.791,5.791h32.751a5.791,5.791,0,0,0,5.791-5.791V13.292A5.791,5.791,0,0,0,117.111,7.5H84.36a5.791,5.791,0,0,0-5.791,5.791V18.3" transform="translate(-72.234 -7.501)" fill="#f9f6f9"/>
          <path id="Trazado_633137" data-name="Trazado 633137" d="M81.482,54.931V13.292A5.791,5.791,0,0,1,87.273,7.5H84.361a5.791,5.791,0,0,0-5.791,5.791V54.931a5.791,5.791,0,0,0,5.791,5.791h2.912A5.791,5.791,0,0,1,81.482,54.931Z" transform="translate(-72.235 -7.501)" fill="#dddaec"/>
          <g id="Grupo_948265" data-name="Grupo 948265" transform="translate(0 5.602)">
            <path id="Trazado_633138" data-name="Trazado 633138" d="M25.754,63.016h-2.13a.992.992,0,0,0,0,1.984H27.51a.993.993,0,0,0,.992-.992,1.606,1.606,0,0,1,3.213,0,4.209,4.209,0,0,1-4.2,4.2H23.624a4.2,4.2,0,0,1,0-8.409h2.13" transform="translate(-19.419 -59.803)" fill="#ffe07d"/>
            <path id="Trazado_633139" data-name="Trazado 633139" d="M25.754,166.16h-2.13a.992.992,0,1,0,0,1.984H27.51a.993.993,0,0,0,.992-.992,1.606,1.606,0,1,1,3.213,0,4.209,4.209,0,0,1-4.2,4.2H23.624a4.2,4.2,0,0,1,0-8.409h2.13" transform="translate(-19.419 -151.9)" fill="#ffe07d"/>
            <path id="Trazado_633140" data-name="Trazado 633140" d="M25.754,269.3h-2.13a.992.992,0,0,0,0,1.984H27.51a.993.993,0,0,0,.992-.992,1.606,1.606,0,0,1,3.213,0,4.209,4.209,0,0,1-4.2,4.2H23.624a4.2,4.2,0,1,1,0-8.409h2.13" transform="translate(-19.419 -243.998)" fill="#ffe07d"/>
            <path id="Trazado_633141" data-name="Trazado 633141" d="M25.754,372.447h-2.13a.992.992,0,0,0,0,1.984H27.51a.993.993,0,0,0,.992-.992,1.606,1.606,0,0,1,3.213,0,4.209,4.209,0,0,1-4.2,4.2H23.624a4.2,4.2,0,0,1,0-8.409h2.13" transform="translate(-19.419 -336.095)" fill="#ffe07d"/>
          </g>
          <g id="Grupo_948266" data-name="Grupo 948266" transform="translate(0 5.602)">
            <path id="Trazado_633142" data-name="Trazado 633142" d="M21.186,373.444a4.21,4.21,0,0,0,4.205,4.2H23.624a4.2,4.2,0,0,1,0-8.408h1.767a4.209,4.209,0,0,0-4.205,4.2Z" transform="translate(-19.42 -336.1)" fill="#ffd064"/>
            <path id="Trazado_633143" data-name="Trazado 633143" d="M21.186,270.3a4.21,4.21,0,0,0,4.205,4.2H23.624a4.2,4.2,0,0,1,0-8.408h1.767a4.21,4.21,0,0,0-4.205,4.2Z" transform="translate(-19.42 -244.003)" fill="#ffd064"/>
            <path id="Trazado_633144" data-name="Trazado 633144" d="M21.186,167.156a4.21,4.21,0,0,0,4.205,4.2H23.624a4.2,4.2,0,0,1,0-8.408h1.767a4.21,4.21,0,0,0-4.205,4.2Z" transform="translate(-19.42 -151.905)" fill="#ffd064"/>
            <path id="Trazado_633145" data-name="Trazado 633145" d="M21.186,64.012a4.21,4.21,0,0,0,4.205,4.2H23.624a4.2,4.2,0,0,1,0-8.408h1.767a4.21,4.21,0,0,0-4.205,4.2Z" transform="translate(-19.42 -59.808)" fill="#ffd064"/>
          </g>
        </g>
      </g>
      <g id="Grupo_948269" data-name="Grupo 948269" transform="translate(11.919 0)">
        <path id="Trazado_633146" data-name="Trazado 633146" d="M57.6,0H24.848a6.6,6.6,0,0,0-6.52,5.6h-1.4A4.992,4.992,0,0,0,12.285,8.73a.8.8,0,1,0,1.488.6,3.392,3.392,0,0,1,3.153-2.126h1.327V8.814H16.927a1.8,1.8,0,0,0,0,3.591h3.887a1.8,1.8,0,0,0,1.8-1.795.8.8,0,1,1,1.605,0,3.405,3.405,0,0,1-3.4,3.4H16.927a3.392,3.392,0,0,1-3.153-2.126.8.8,0,0,0-1.488.6,4.992,4.992,0,0,0,4.641,3.128h1.327v1.031H16.927a5.008,5.008,0,0,0,0,10.016h1.327v1.031H16.927a5.008,5.008,0,1,0,0,10.016h1.327v1.031H16.927a5.008,5.008,0,0,0,0,10.016h1.35a6.6,6.6,0,0,0,6.572,6.07H57.6a6.6,6.6,0,0,0,6.594-6.594V6.594A6.6,6.6,0,0,0,57.6,0ZM16.738,10.61a.192.192,0,0,1,.188-.19h1.327V10.8H16.927A.191.191,0,0,1,16.738,10.61Zm.189,11.235a.189.189,0,1,1,0-.378h1.327v.378Zm-3.4-.189a3.405,3.405,0,0,1,3.4-3.4h1.327v1.606H16.927a1.8,1.8,0,1,0,0,3.591h3.887a1.8,1.8,0,0,0,1.8-1.8.8.8,0,1,1,1.606,0,3.405,3.405,0,0,1-3.4,3.4H16.927A3.405,3.405,0,0,1,13.525,21.656Zm3.4,11.235a.189.189,0,1,1,0-.378h1.327v.378Zm-3.4-.189a3.405,3.405,0,0,1,3.4-3.4h1.327v1.606H16.927a1.8,1.8,0,0,0,0,3.591h3.887a1.8,1.8,0,0,0,1.8-1.8.8.8,0,0,1,1.606,0,3.405,3.405,0,0,1-3.4,3.4H16.927A3.406,3.406,0,0,1,13.525,32.7Zm3.4,11.235a.189.189,0,1,1,0-.378h1.327v.378Zm-3.4-.189a3.405,3.405,0,0,1,3.4-3.4h1.327v1.606H16.927a1.8,1.8,0,1,0,0,3.591h3.887a1.8,1.8,0,0,0,1.8-1.8.8.8,0,0,1,1.606,0,3.405,3.405,0,0,1-3.4,3.4H16.927A3.405,3.405,0,0,1,13.525,43.749Zm49.061,4.484A4.994,4.994,0,0,1,57.6,53.221H24.848a5,5,0,0,1-4.96-4.464h.926a5.014,5.014,0,0,0,5.008-5.008,2.41,2.41,0,0,0-4.819,0,.189.189,0,0,1-.189.189H19.86V37.711h.953A5.014,5.014,0,0,0,25.822,32.7,2.41,2.41,0,0,0,21,32.7a.189.189,0,0,1-.189.189H19.86V26.664h.953a5.014,5.014,0,0,0,5.008-5.008,2.41,2.41,0,1,0-4.819,0,.189.189,0,0,1-.189.189H19.86V15.618h.953a5.014,5.014,0,0,0,5.008-5.008,2.409,2.409,0,1,0-4.818,0,.192.192,0,0,1-.19.188H19.86v-4.2a4.994,4.994,0,0,1,4.988-4.988H57.6a4.994,4.994,0,0,1,4.988,4.988V48.233Z" transform="translate(-11.919 0)"/>
        <path id="Trazado_633147" data-name="Trazado 633147" d="M214.5,130.025a.8.8,0,0,0,1.036-.465l.3-.775H217.9l.292.773a.8.8,0,0,0,1.5-.567l-1.959-5.191-.009-.022a.919.919,0,0,0-.853-.572h0a.92.92,0,0,0-.853.573l-.007.018-1.977,5.191A.8.8,0,0,0,214.5,130.025Zm2.793-2.847h-.849l.427-1.12Z" transform="translate(-192.345 -110.011)"/>
        <path id="Trazado_633148" data-name="Trazado 633148" d="M387.47,123.8l-.009-.022a.919.919,0,0,0-.853-.571h0a.92.92,0,0,0-.853.573l-.007.018-1.977,5.191a.8.8,0,1,0,1.5.572l.3-.775h2.067l.292.773a.8.8,0,1,0,1.5-.567Zm-1.291,3.378.427-1.12.423,1.12Z" transform="translate(-343.898 -110.011)"/>
        <path id="Trazado_633149" data-name="Trazado 633149" d="M273.929,130.078a.8.8,0,0,0,.8-.8V126.6l2.089,3.025a.87.87,0,0,0,.984.359.9.9,0,0,0,.616-.891L278.372,124a.8.8,0,0,0-.8-.8h-.008a.8.8,0,0,0-.8.811l.026,2.735-2.2-3.189a.8.8,0,0,0-1.464.456v5.255a.8.8,0,0,0,.8.8Z" transform="translate(-245.151 -110.012)"/>
        <path id="Trazado_633150" data-name="Trazado 633150" d="M145.034,129.449a.921.921,0,0,0,.874.629h0a.921.921,0,0,0,.872-.638l.008-.028.663-2.326.439,2.3a.8.8,0,1,0,1.578-.3l-.982-5.138a.922.922,0,0,0-1.781-.1l-.008.028L145.9,126.7l-.836-2.835-.009-.028a.922.922,0,0,0-1.782.128l-.925,5.127a.8.8,0,1,0,1.581.285l.412-2.284.687,2.329.009.029Z" transform="translate(-128.364 -110.011)"/>
        <path id="Trazado_633151" data-name="Trazado 633151" d="M443.985,128.467l-1.036,0V124.01a.8.8,0,0,0-1.607,0v5.26a.8.8,0,0,0,.667.792,4.63,4.63,0,0,0,.688.016c.284,0,.695,0,1.3,0a.8.8,0,0,0-.009-1.606Z" transform="translate(-395.352 -110.012)"/>
        <path id="Trazado_633152" data-name="Trazado 633152" d="M332.8,129.673a2.568,2.568,0,0,0,1.4.4h0a2.7,2.7,0,0,0,1.228-.285,2.377,2.377,0,0,0,1.434-2.164v-3.619a.8.8,0,1,0-1.606,0v3.619c0,.224-.065.485-.55.729a1.1,1.1,0,0,1-.505.113h0a.972.972,0,0,1-.539-.151c-.381-.243-.455-.436-.455-.688v-3.623a.8.8,0,1,0-1.606,0v3.623A2.336,2.336,0,0,0,332.8,129.673Z" transform="translate(-297.37 -110.011)"/>
        <path id="Trazado_633153" data-name="Trazado 633153" d="M190.551,245.284H163.758a.8.8,0,0,0,0,1.606h26.793a.8.8,0,1,0,0-1.606Z" transform="translate(-146.779 -219.014)"/>
        <path id="Trazado_633154" data-name="Trazado 633154" d="M190.551,282.838H163.758a.8.8,0,1,0,0,1.606h26.793a.8.8,0,1,0,0-1.606Z" transform="translate(-146.779 -252.546)"/>
        <path id="Trazado_633155" data-name="Trazado 633155" d="M376.275,320.4h-4.516a.8.8,0,1,0,0,1.606h4.516a.8.8,0,0,0,0-1.606Z" transform="translate(-332.503 -286.082)"/>
        <path id="Trazado_633156" data-name="Trazado 633156" d="M163.759,322h19.064a.8.8,0,1,0,0-1.606H163.759a.8.8,0,1,0,0,1.606Z" transform="translate(-146.78 -286.082)"/>
        <path id="Trazado_633157" data-name="Trazado 633157" d="M190.551,357.946H163.758a.8.8,0,0,0,0,1.607h26.793a.8.8,0,1,0,0-1.607Z" transform="translate(-146.779 -319.61)"/>
        <path id="Trazado_633158" data-name="Trazado 633158" d="M190.551,395.5H163.758a.8.8,0,1,0,0,1.606h26.793a.8.8,0,1,0,0-1.606Z" transform="translate(-146.779 -353.142)"/>
      </g>
    </g>
  </g>
</svg>
