<svg xmlns="http://www.w3.org/2000/svg" width="330.738" height="330.342" viewBox="0 0 330.738 330.342">
  <g id="Grupo_949960" data-name="Grupo 949960" transform="translate(9400.37 -3585.9)">
    <path id="Trazado_633512" data-name="Trazado 633512" d="M631.737,4790.389a167.5,167.5,0,1,0-167.505,167.5A166.86,166.86,0,0,0,631.737,4790.389Z" transform="translate(-9701.369 -1041.649)" fill="#342287"/>
    <path id="Trazado_633513" data-name="Trazado 633513" d="M353.638,4853.668l78.051,78.051q6.9.573,13.964.581a167.5,167.5,0,0,0,167.5-167.5q0-3.983-.187-7.923l-56.821-56.819Z" transform="translate(-9682.788 -1016.058)" fill="#462eb4"/>
    <g id="Grupo_948417" data-name="Grupo 948417" transform="translate(-9364.541 3621.383)">
      <g id="Grupo_948415" data-name="Grupo 948415">
        <g id="Grupo_948414" data-name="Grupo 948414">
          <g id="Grupo_948413" data-name="Grupo 948413">
            <path id="Trazado_633514" data-name="Trazado 633514" d="M583.294,4781.683a127.907,127.907,0,1,1-127.9-127.907A127.9,127.9,0,0,1,583.294,4781.683Z" transform="translate(-327.48 -4653.776)" fill="#c4baf5"/>
          </g>
        </g>
      </g>
      <path id="Trazado_633515" data-name="Trazado 633515" d="M582.441,4780.753a127.9,127.9,0,1,0-127.9,127.908A127.409,127.409,0,0,0,582.441,4780.753Z" transform="translate(-326.628 -4652.846)" fill="#e6e1fb"/>
      <g id="Grupo_948416" data-name="Grupo 948416" transform="translate(22.661 71.81)">
        <path id="Trazado_633516" data-name="Trazado 633516" d="M564.448,4706.851a127.921,127.921,0,0,1-220.219,127.377,127.515,127.515,0,0,0,220.219-127.377Z" transform="translate(-344.229 -4706.851)" fill="#c4baf5"/>
      </g>
    </g>
    <g id="Grupo_948466" data-name="Grupo 948466" transform="translate(-9320.613 3667.679)">
      <g id="Grupo_948452" data-name="Grupo 948452" transform="translate(6.351)">
        <g id="Grupo_948449" data-name="Grupo 948449" transform="translate(54.674)">
          <g id="Grupo_948446" data-name="Grupo 948446">
            <g id="Grupo_948441" data-name="Grupo 948441" transform="translate(0 42.347)">
              <path id="Trazado_633559" data-name="Trazado 633559" d="M896.018,4541.642s-18.014-8.117-23.311,4.417c0,0-2.092,4.191,4.806-2.189,0,0,2.653-1.659,3.719-.813,0,0-6.865,4.036-7.533,5.949-.339.973,1.287,3.847,8.488-3.766,0,0-3.916,4.083-4.6,6.722-.3,1.14.939,1.891,1.649,1l4.894-6.135-3.347,6.7a1.262,1.262,0,0,0,.173,1.457c.622.573,2.041.257,5.105-6.008h0c.018.02.031.052.056.061,3.447,1.136,6.419,1.544,9.8-.5l.636-.675Z" transform="translate(-872.409 -4502.164)" fill="#ffaf89"/>
              <path id="Trazado_633560" data-name="Trazado 633560" d="M897.111,4542.286l21.5,9.117,4.686,1.986,4.824,2.042c.173.069.346.126.507.185,6.613,2.192,13.11-4.917,11.8-12.627-.127-.749-.265-1.557-.416-2.445-1.916-11.289-5.562-32.662-5.586-32.789-.935-6.312-2.227-11.4-5.875-11.067-7.063.634-15.049,6.521-8.274,19.446l7.317,21.455.83,2.425-5.043-.647-5.493-.7-19.712-2.539Z" transform="translate(-875.61 -4496.672)" fill="#4a3333"/>
              <path id="Trazado_633561" data-name="Trazado 633561" d="M920.977,4544.912a97.867,97.867,0,0,1,.727,12.741l4.686,1.986c.1-1.247.161-2.5.207-3.762a.513.513,0,0,0,.658-.531c-.265-3.243-.461-6.5-.785-9.729Z" transform="translate(-878.702 -4502.922)" fill="#4a3333"/>
            </g>
            <path id="Trazado_633562" data-name="Trazado 633562" d="M977.077,4512.289c-.544,1.974-1.052,3.98-1.49,6.014-.228,1.028-.449,2.053-.658,3.082-.658,3.29-1.186,6.612-1.627,9.844-.82,6.025-.552,16.791.117,28.08H925.144c.39-4.941.737-9.823.749-14.576,0-1.028-.011-2.033-.035-3.038-.056-2.018-.2-4.016-.414-5.99-.011-.138-.024-.276-.047-.426-.555-4.894-1.179-9.485-1.837-13.606-.875-5.69.5-11.806,2.136-16.563a57.8,57.8,0,0,1,2.471-6.012,4.647,4.647,0,0,1,3.775-2.641l1.867-.161.083-.011,1.521-.139.7-.059.126-.024,1.73-.15.145-.027.051-.009,1.513-.185,2.735-.343,2.676-.335,1.675-.083.265-.012c.937-.036,1.884-.056,2.818-.056.843,0,1.675.02,2.514.056.949.023,1.907.095,2.853.173.292.024.579.052.87.079.536.052,1.072.106,1.612.178h.019c.13.02.28.043.418.055a.625.625,0,0,0,.091.012c.028,0,.063.008.1.016.178.026.469.066.855.121,1.191.173,3.243.485,5.4.808a12.148,12.148,0,0,1,9.891,8.831,38.208,38.208,0,0,0,2.227,6.337C976.812,4511.77,976.951,4512.026,977.077,4512.289Z" transform="translate(-879.002 -4454.09)" fill="#4a3333"/>
            <path id="Trazado_633563" data-name="Trazado 633563" d="M958.049,4472.571c-.468-2.942-.354-5.943-.574-8.912a16.811,16.811,0,0,0-2.522-8.46,13.546,13.546,0,0,0-6.593-4.769,29.335,29.335,0,0,0-8.109-1.457l-7.821,3.163a35.59,35.59,0,0,0-3.973,6.07,11.957,11.957,0,0,0-1.221,7.05c.225,1.312.741,2.563.933,3.88.359,2.446-.416,4.894-.923,7.314s-.7,5.124.662,7.189c1.857,2.825,5.807,3.361,8.323,5.616,2.683,2.405,3.3,6.3,3.756,9.876,2.583-3.168,6.634-4.646,10.354-6.342s7.577-4.079,8.844-7.965C960.472,4480.877,958.7,4476.671,958.049,4472.571Z" transform="translate(-879.466 -4448.144)" fill="#4a3333"/>
            <path id="Trazado_633564" data-name="Trazado 633564" d="M961.29,4471.619c-.469-2.941-.355-5.943-.575-8.912a16.809,16.809,0,0,0-2.523-8.461,13.552,13.552,0,0,0-6.592-4.769,29.423,29.423,0,0,0-8.109-1.457l-7.821,3.163a35.643,35.643,0,0,0-3.974,6.071,11.959,11.959,0,0,0-1.22,7.049c.224,1.313.74,2.563.933,3.88.358,2.446-.417,4.9-.923,7.314s-.7,5.124.662,7.19c1.857,2.824,5.806,3.359,8.323,5.616,2.682,2.4,10.39,5.229,14.11,3.534s7.576-4.079,8.844-7.965C963.713,4479.924,961.943,4475.719,961.29,4471.619Z" transform="translate(-879.886 -4448.021)" fill="#4a3333" style="mix-blend-mode: multiply;isolation: isolate"/>
            <path id="Trazado_633565" data-name="Trazado 633565" d="M960.3,4495.416a.622.622,0,0,1-.091-.012c-.138-.012-.287-.035-.418-.055h-.019c-.54-.072-1.076-.126-1.612-.178-.292-.027-.579-.055-.871-.079-.946-.078-1.9-.149-2.853-.173-.839-.036-1.671-.056-2.514-.056-.934,0-1.88.02-2.818.056l-.265.012-1.675.083-2.676.335-2.735.343-1.513.185-.051.009a10.79,10.79,0,0,0-.752,2.125l-.178.732c0,.029-.008.056-.01.084a5.753,5.753,0,0,0,.3,2.423,5,5,0,0,0,1.074,1.522,9.893,9.893,0,0,0,1.471.107l12.708.154a8.927,8.927,0,0,0,2.063-3.255,7.578,7.578,0,0,1,3.475-4.284c.021-.02.038-.042.059-.062C960.359,4495.424,960.323,4495.42,960.3,4495.416Z" transform="translate(-881.068 -4454.09)" fill="#4a3333"/>
            <path id="Trazado_633566" data-name="Trazado 633566" d="M962.025,4508.075a23.01,23.01,0,0,1,1.766-4.593c0,.2,0,.408.006.61a16.63,16.63,0,0,0,.609,4.2,24.8,24.8,0,0,0,1.433,3.582c1.232,2.606,2.444,5.224,3.758,7.791a82.825,82.825,0,0,0,4.34,7.725c1.374,2.093,2.86,4.114,4.166,6.253-.628,6.2-.353,16.261.271,26.779H966.468c.017-2.287-.043-4.574-.165-6.856-.546-10.151-2.257-20.181-3.844-30.207a72.115,72.115,0,0,1-.874-8A24.644,24.644,0,0,1,962.025,4508.075Z" transform="translate(-883.955 -4455.208)" fill="#4a3333"/>
            <g id="Grupo_948443" data-name="Grupo 948443" transform="translate(52.421 42.499)">
              <g id="Grupo_948442" data-name="Grupo 948442">
                <path id="Trazado_633567" data-name="Trazado 633567" d="M953.357,4509.276a5,5,0,0,1,2.538-2.607,6.155,6.155,0,0,0,1.563-1.143,3.284,3.284,0,0,0,.615-2.145,6.5,6.5,0,0,1,4-5.861c.685-.285.984.831.307,1.112a5.216,5.216,0,0,0-2.532,2.32,10.066,10.066,0,0,0-.72,3.578,4.033,4.033,0,0,1-2.049,2.77c-.949.607-2.235,1.116-2.61,2.281C954.243,4510.287,953.128,4509.985,953.357,4509.276Z" transform="translate(-935.315 -4496.928)" fill="#4a3333" style="mix-blend-mode: multiply;isolation: isolate"/>
                <path id="Trazado_633568" data-name="Trazado 633568" d="M932.738,4501.039a8.319,8.319,0,0,1,2.49-4.034c.544-.5,1.362.31.817.815a6.878,6.878,0,0,0-2.235,3.74,1.629,1.629,0,0,0,.053.815,1.53,1.53,0,0,0,.685.655,1.718,1.718,0,0,1,.959,1.878c-.215.709-1.329.408-1.113-.307.088-.291-.329-.51-.528-.639a2.88,2.88,0,0,1-.891-.8A2.765,2.765,0,0,1,932.738,4501.039Z" transform="translate(-932.634 -4496.846)" fill="#4a3333" style="mix-blend-mode: multiply;isolation: isolate"/>
              </g>
            </g>
            <g id="Grupo_948444" data-name="Grupo 948444" transform="translate(49.805 0.147)">
              <path id="Trazado_633569" data-name="Trazado 633569" d="M954.754,4496.691a2.879,2.879,0,0,1-.67,2.287,9.04,9.04,0,0,1-5.446,2.56c-1.932.192-4.062-.171-4.767-2.237a4.477,4.477,0,0,1-.225-1.333l-.006-.092.01-.131-.008-.251.011-1.63-.321-6.376c.008-.438,4.44-.933,4.44-.933l2.352-1.73,3.54-2.613.16-.1,0,1.006.6,7.67.17,1.833Z" transform="translate(-931.404 -4452.844)" fill="#ffaf89"/>
              <path id="Trazado_633570" data-name="Trazado 633570" d="M951.394,4486.338a11.807,11.807,0,0,1-7.748,11.919l-.006-.092.01-.132-.008-.25.011-1.631-.321-6.375a1.287,1.287,0,0,1,.615-1.085l3.825.153,2.352-1.732Z" transform="translate(-931.404 -4453.133)" fill="#ffaf89" style="mix-blend-mode: multiply;isolation: isolate"/>
              <path id="Trazado_633571" data-name="Trazado 633571" d="M931.732,4466.618c-.521-2.75.688-6.136,1.677-8.3a13.517,13.517,0,0,1,2.831-4.115c7.155-6.948,15.648-2.215,15.648-2.215,5.848,1.807,4.873,11.53,4.873,11.53.016.537.024,1.052.03,1.556a2.39,2.39,0,0,1,1.055-.014c1.755.413,2.7,2.764,2.118,5.25-.544,2.311-2.22,3.9-3.863,3.788a16.68,16.68,0,0,1-7.24,10.449q-.333.21-.657.393a7.421,7.421,0,0,1-1.97.737,10.735,10.735,0,0,1-12.442-7.265A46,46,0,0,1,931.732,4466.618Z" transform="translate(-929.885 -4448.478)" fill="#ffaf89"/>
              <path id="Trazado_633572" data-name="Trazado 633572" d="M938.154,4477.79c.4-2.129.957-4.241,1.435-6.354.111-.495.894-.367.781.133l-1.163,5.137c-.145.64-.663,1.788.092,2.188a3.394,3.394,0,0,0,2.373.053c.487-.138.776.6.286.738C940.467,4480.11,937.739,4480.018,938.154,4477.79Z" transform="translate(-930.728 -4451.161)" fill="#ffaf89" style="mix-blend-mode: multiply;isolation: isolate"/>
              <path id="Trazado_633573" data-name="Trazado 633573" d="M949.315,4467.8a4.9,4.9,0,0,0-3.175-1.476c-2.759-.2-5.321,1.794-8.082,1.619a22.406,22.406,0,0,0-2.773-.31c-3.495.213-4.026,4.4-2.224,6.749a2.8,2.8,0,0,0,2.158,1.235c1.109-.026,1.951-.98,2.975-1.407a5.009,5.009,0,0,1,2.941-.119c.974.205,1.917.551,2.9.732a6.694,6.694,0,0,0,3.6-.255,4.5,4.5,0,0,0,2.58-2.445,4.177,4.177,0,0,0-.9-4.322Z" transform="translate(-929.943 -4450.537)" fill="#4a3333"/>
              <path id="Trazado_633574" data-name="Trazado 633574" d="M959.158,4457.278a11.518,11.518,0,0,0-4.719-7.255,13.5,13.5,0,0,0-7.235-1.833,18.184,18.184,0,0,0-9.075,2.114,12.851,12.851,0,0,0-4.161,3.719,15.755,15.755,0,0,0-1.709,1.836,11.157,11.157,0,0,0-2.477,8.749,10.918,10.918,0,0,1,.474,3.18,9.576,9.576,0,0,0-.338,2.3,5.251,5.251,0,0,0,1.289,2.231,2.34,2.34,0,0,1,.5,2.414c1.057-.429,1.275-1.86,1-2.968a12.552,12.552,0,0,1-.824-3.3,5.616,5.616,0,0,1,1.9-3.472,8.681,8.681,0,0,0,2.362-3.24,4.675,4.675,0,0,1-.107,2.606,10.246,10.246,0,0,0,6.712-6.662,24.451,24.451,0,0,0,.612,5.8,16.9,16.9,0,0,1,2.231-4.384c-.386,1.26.361,2.573,1.177,3.609s1.774,2.088,1.894,3.4c.105,1.158-.478,2.292-.386,3.451.117,1.482,1.285,2.641,2.411,3.612s2.355,2.013,2.678,3.465a36.84,36.84,0,0,1,3.327-11.993,2.658,2.658,0,0,1,2.281,1.437A21.464,21.464,0,0,0,959.158,4457.278Z" transform="translate(-929.629 -4448.19)" fill="#ff7862"/>
              <path id="Trazado_633575" data-name="Trazado 633575" d="M947.763,4481.189s-3.269.828-7.871,1.821h0a2.387,2.387,0,0,0,2.858,1.8A7.239,7.239,0,0,0,947.763,4481.189Z" transform="translate(-930.959 -4452.466)" fill="#fff"/>
              <path id="Trazado_633576" data-name="Trazado 633576" d="M947.776,4472.358c.009.8-.43,1.467-.98,1.484s-1-.62-1.011-1.421.431-1.467.98-1.484S947.767,4471.556,947.776,4472.358Z" transform="translate(-931.722 -4451.137)" fill="#fff"/>
              <path id="Trazado_633577" data-name="Trazado 633577" d="M937.5,4473.037c.008.8-.43,1.467-.98,1.485s-1-.62-1.011-1.422.431-1.467.98-1.484S937.488,4472.235,937.5,4473.037Z" transform="translate(-930.39 -4451.226)" fill="#fff"/>
              <path id="Trazado_633578" data-name="Trazado 633578" d="M948.991,4469.193l.006,0a.344.344,0,0,0,.12.022,4.557,4.557,0,0,1-3.4,2.767,1.362,1.362,0,0,1-.715-.03.578.578,0,0,1-.391-.549c.023-.268.277-.449.52-.563a7.1,7.1,0,0,1,1.6-.441,4.844,4.844,0,0,0,1.568-.525A2.1,2.1,0,0,0,948.991,4469.193Z" transform="translate(-931.57 -4450.912)" fill="#4a3333"/>
              <path id="Trazado_633579" data-name="Trazado 633579" d="M937.994,4472.227a1.036,1.036,0,0,1-.554.216,2.848,2.848,0,0,1-2.96-1.892,1.448,1.448,0,0,0,.427.4c.01.005.02.007.03.011a1.333,1.333,0,0,0,.305.166,2.922,2.922,0,0,0,1.269.084,4.306,4.306,0,0,1,1.287,0,.516.516,0,0,1,.454.394A.73.73,0,0,1,937.994,4472.227Z" transform="translate(-930.257 -4451.087)" fill="#4a3333"/>
            </g>
            <g id="Grupo_948445" data-name="Grupo 948445" transform="translate(58.931 42.094)">
              <path id="Trazado_633580" data-name="Trazado 633580" d="M950.892,4504.443a7.893,7.893,0,0,0,6.853-7.5c.026-.741,1.18-.745,1.154,0a9.028,9.028,0,0,1-7.7,8.616.6.6,0,0,1-.71-.4A.58.58,0,0,1,950.892,4504.443Z" transform="translate(-941.455 -4496.382)" fill="#4a3333"/>
              <path id="Trazado_633581" data-name="Trazado 633581" d="M941.027,4497.922c.337-.662,1.333-.078,1,.583a5.286,5.286,0,0,0-.644,3.649,2.717,2.717,0,0,0,1.965,2.04c.725.158.419,1.27-.307,1.113a3.857,3.857,0,0,1-2.746-2.756A6.43,6.43,0,0,1,941.027,4497.922Z" transform="translate(-940.113 -4496.543)" fill="#4a3333"/>
            </g>
          </g>
          <g id="Grupo_948447" data-name="Grupo 948447" transform="translate(42.426 90.95)">
            <path id="Trazado_633582" data-name="Trazado 633582" d="M921.151,4562.619h23.128a10.107,10.107,0,0,0-10.11-10.109h-2.908a10.065,10.065,0,0,0-3.878.773,10.056,10.056,0,0,0-6.232,9.336Z" transform="translate(-921.151 -4552.51)" fill="#fff"/>
            <path id="Trazado_633583" data-name="Trazado 633583" d="M921.151,4562.862h12.476a10.071,10.071,0,0,0-2.919-7.107,4.7,4.7,0,0,0-6.574-.076l-.028.027A10.123,10.123,0,0,0,921.151,4562.862Z" transform="translate(-921.151 -4552.752)" fill="#bfe9f8" style="mix-blend-mode: multiply;isolation: isolate"/>
          </g>
          <path id="Trazado_633584" data-name="Trazado 633584" d="M945.222,4546.591s-19.129-4.946-22.225,8.3c0,0-1.351,4.484,4.365-2.97,0,0,2.334-2.086,3.527-1.433,0,0-6.082,5.141-6.416,7.14-.17,1.016,1.92,3.573,7.728-5.15,0,0-3.168,4.687-3.4,7.406-.1,1.175,1.246,1.7,1.8.708l3.783-6.876-2.163,7.166a1.262,1.262,0,0,0,.417,1.407c.71.458,2.055-.1,4.014-6.788h0c.021.017.039.047.065.05,3.589.536,6.587.434,9.576-2.156l.512-.772Z" transform="translate(-878.946 -4460.675)" fill="#ffaf89"/>
          <path id="Trazado_633585" data-name="Trazado 633585" d="M947.144,4541.037a1.614,1.614,0,0,1,.18-.9c.419-.625,1.367-.373,2.1-.191,1.826.458,3.739,0,5.589-.347,5.925-1.118,22.794-.217,22.794-.217l-1.226-2.248-10.85-19.9a16.29,16.29,0,0,1-.77-13.8c.017-.046.036-.089.053-.132,3.17-7.568,10.6-4.776,13.242,3.281.039.114,7.257,20.569,11.061,31.366.3.842.574,1.624.825,2.333,2.6,7.375-2.6,15.485-9.48,14.445-.176-.023-.355-.057-.535-.1l-8.617-2.024c-3.747.073-7.719,1.221-11.133-.29-1.3-.574-2.49-1.526-3.907-1.611a12.557,12.557,0,0,0-2.483.328,2.835,2.835,0,0,1-2.368-.522c-.474-.45-.687-1.162-1.254-1.487-.832-.478-2.056.091-2.767-.554a2.1,2.1,0,0,1-.455-1.605Q947.142,4543.95,947.144,4541.037Z" transform="translate(-882.092 -4454.609)" fill="#4a3333"/>
          <g id="Grupo_948448" data-name="Grupo 948448" transform="translate(43.998 52.421)">
            <path id="Trazado_633586" data-name="Trazado 633586" d="M967.46,4515.172a96.084,96.084,0,0,0,11.1,22.1c.416.617-.583,1.2-1,.582a97.285,97.285,0,0,1-11.212-22.375C966.1,4514.777,967.216,4514.475,967.46,4515.172Z" transform="translate(-928.575 -4509.092)" fill="#4a3333" style="mix-blend-mode: multiply;isolation: isolate"/>
            <path id="Trazado_633587" data-name="Trazado 633587" d="M923.13,4516.481a67.741,67.741,0,0,1,1.441-7.822c.166-.724,1.279-.417,1.112.307a63.711,63.711,0,0,0-1.427,7.791,31.126,31.126,0,0,0,.21,7.707c.728,4.921,2.192,9.724,2.376,14.719.027.743-1.127.743-1.154,0-.189-5.121-1.752-10.04-2.431-15.1A31.453,31.453,0,0,1,923.13,4516.481Z" transform="translate(-922.957 -4508.246)" fill="#4a3333" style="mix-blend-mode: multiply;isolation: isolate"/>
            <path id="Trazado_633588" data-name="Trazado 633588" d="M959.393,4544.585a51.079,51.079,0,0,1,17.149.232c.729.136.42,1.248-.307,1.114a49.358,49.358,0,0,0-16.536-.233C958.972,4545.811,958.66,4544.7,959.393,4544.585Z" transform="translate(-927.624 -4512.875)" fill="#4a3333" style="mix-blend-mode: multiply;isolation: isolate"/>
          </g>
        </g>
        <g id="Grupo_948451" data-name="Grupo 948451" transform="translate(0 16.045)">
          <path id="Trazado_633589" data-name="Trazado 633589" d="M903.355,4537.057H828.32a8.21,8.21,0,0,1-8.045-6.792l-10.561-55.375c-.923-5.1,3.711-8.435,8.819-8.435h75.035a8.209,8.209,0,0,1,8.044,6.793l9.786,54.019A8.259,8.259,0,0,1,903.355,4537.057Z" transform="translate(-809.597 -4466.455)" fill="#fff"/>
          <path id="Trazado_633590" data-name="Trazado 633590" d="M906.1,4527.687l-9.987-52.9a8.289,8.289,0,0,0-8.21-6.654H815.81a6.083,6.083,0,0,0-6.091,6.974l.014.079,10.13,55.154a8.467,8.467,0,0,0,8.327,6.936h69.7A8.19,8.19,0,0,0,906.1,4527.687Z" transform="translate(-809.601 -4466.672)" fill="#bfe9f8" opacity="0.32"/>
          <g id="Grupo_948450" data-name="Grupo 948450" transform="translate(65.992 64.807)">
            <path id="Trazado_633591" data-name="Trazado 633591" d="M892.29,4545.817h.6l-.905-4.908h0a1.634,1.634,0,0,0-1.607,1.93l.3,1.64A1.633,1.633,0,0,0,892.29,4545.817Z" transform="translate(-886.052 -4540.909)" fill="#fff"/>
            <path id="Trazado_633592" data-name="Trazado 633592" d="M886.317,4545.817h1.963l-.905-4.908h-1.963Z" transform="translate(-885.412 -4540.909)" fill="#3c41b5"/>
            <path id="Trazado_633593" data-name="Trazado 633593" d="M895.058,4545.817h1.962l-.905-4.908h-1.963Z" transform="translate(-886.545 -4540.909)" fill="#3c41b5"/>
          </g>
          <path id="Trazado_633594" data-name="Trazado 633594" d="M852.654,4518.955v29.164c0,4.743,3.347,8.633,7.582,8.968.208.011.427.023.647.023l38.489-.266h.393c0-3.75-2.77-6.8-6.186-6.8H879.337a4.844,4.844,0,0,1-4.606-5.043v-26.047c0-4.444-3.277-8.043-7.317-8.043h-7.444C855.932,4510.911,852.654,4514.511,852.654,4518.955Z" transform="translate(-815.175 -4472.214)" fill="#fff"/>
          <path id="Trazado_633595" data-name="Trazado 633595" d="M852.654,4518.955v29.164c0,4.743,3.347,8.633,7.582,8.968l39.135-.243c-.011-.658-3.127-1.834-6.983-1.834H876.3a5.2,5.2,0,0,1-5.194-5.194v-31.922a8.249,8.249,0,0,0-3.854-6.982h-7.283C855.932,4510.911,852.654,4514.511,852.654,4518.955Z" transform="translate(-815.175 -4472.214)" fill="#bfe9f8" opacity="0.32"/>
        </g>
      </g>
      <g id="Grupo_948465" data-name="Grupo 948465" transform="translate(0 52.605)">
        <g id="Grupo_948461" data-name="Grupo 948461">
          <g id="Grupo_948454" data-name="Grupo 948454">
            <rect id="Rectángulo_34602" data-name="Rectángulo 34602" width="40.292" height="25.546" rx="2.137" transform="translate(0)" fill="#45bbcc"/>
            <path id="Trazado_633596" data-name="Trazado 633596" d="M842.592,4510.318v2.341H802.3v-2.341a1.863,1.863,0,0,1,1.861-1.861h36.571A1.862,1.862,0,0,1,842.592,4510.318Z" transform="translate(-802.3 -4508.458)" fill="#bee7ed"/>
            <g id="Grupo_948453" data-name="Grupo 948453" transform="translate(3.042 1.374)">
              <ellipse id="Elipse_5402" data-name="Elipse 5402" cx="0.983" cy="0.983" rx="0.983" ry="0.983" fill="#1179ba"/>
              <path id="Trazado_633597" data-name="Trazado 633597" d="M810.948,4511.02a.983.983,0,1,1-.984-.983A.984.984,0,0,1,810.948,4511.02Z" transform="translate(-806.208 -4510.036)" fill="#fff"/>
              <path id="Trazado_633598" data-name="Trazado 633598" d="M814.135,4511.02a.983.983,0,1,1-.984-.983A.984.984,0,0,1,814.135,4511.02Z" transform="translate(-806.621 -4510.036)" fill="#1179ba"/>
            </g>
          </g>
          <g id="Grupo_948460" data-name="Grupo 948460" transform="translate(2.92 6.963)">
            <rect id="Rectángulo_34603" data-name="Rectángulo 34603" width="11.421" height="15.01" fill="#1179ba"/>
            <rect id="Rectángulo_34604" data-name="Rectángulo 34604" width="19.75" height="7.218" transform="translate(13.144 7.505)" fill="#fff"/>
            <g id="Grupo_948459" data-name="Grupo 948459" transform="translate(12.856)">
              <g id="Grupo_948458" data-name="Grupo 948458">
                <g id="Grupo_948455" data-name="Grupo 948455">
                  <rect id="Rectángulo_34605" data-name="Rectángulo 34605" width="14.004" height="0.682" rx="0.341" fill="#1179ba"/>
                  <rect id="Rectángulo_34606" data-name="Rectángulo 34606" width="5.704" height="0.682" rx="0.341" transform="translate(14.687)" fill="#1179ba"/>
                </g>
                <g id="Grupo_948456" data-name="Grupo 948456" transform="translate(0 4.495)">
                  <rect id="Rectángulo_34607" data-name="Rectángulo 34607" width="7.618" height="0.682" rx="0.341" fill="#1179ba"/>
                  <rect id="Rectángulo_34608" data-name="Rectángulo 34608" width="5.704" height="0.682" rx="0.341" transform="translate(8.3)" fill="#1179ba"/>
                </g>
                <g id="Grupo_948457" data-name="Grupo 948457" transform="translate(0 2.047)">
                  <rect id="Rectángulo_34609" data-name="Rectángulo 34609" width="8.624" height="0.682" rx="0.341" fill="#1179ba"/>
                </g>
              </g>
            </g>
          </g>
        </g>
        <g id="Grupo_948464" data-name="Grupo 948464" transform="translate(31.718 22.858)">
          <g id="Grupo_948462" data-name="Grupo 948462">
            <path id="Trazado_633599" data-name="Trazado 633599" d="M865.51,4535.994v15.367a1.277,1.277,0,0,1-1.274,1.279h-24.22a1.275,1.275,0,0,1-1.275-1.279v-15.367a1.274,1.274,0,0,1,1.275-1.276h24.22A1.276,1.276,0,0,1,865.51,4535.994Z" transform="translate(-838.74 -4534.718)" fill="#1179ba"/>
            <path id="Trazado_633600" data-name="Trazado 633600" d="M865.51,4535.994v1.748H838.74v-1.748a1.274,1.274,0,0,1,1.275-1.276h24.22A1.276,1.276,0,0,1,865.51,4535.994Z" transform="translate(-838.74 -4534.718)" fill="#342287"/>
          </g>
          <g id="Grupo_948463" data-name="Grupo 948463" transform="translate(7.037 5.81)">
            <rect id="Rectángulo_34610" data-name="Rectángulo 34610" width="12.696" height="8.105" rx="1.848" fill="#fff"/>
            <path id="Trazado_633601" data-name="Trazado 633601" d="M852.853,4547.763v-4.029l3.279,2.132Z" transform="translate(-847.606 -4541.696)" fill="#ff7862"/>
          </g>
        </g>
      </g>
      <path id="Trazado_633602" data-name="Trazado 633602" d="M967.746,4563.818H815.558a3.226,3.226,0,1,0,0,6.451H967.746a3.226,3.226,0,1,0,0-6.451Z" transform="translate(-803.6 -4463.025)" fill="#45bbcc"/>
    </g>
    <text id="Tipos_de_Hacker" data-name="Tipos de Hacker" transform="translate(-9302 3800.112)" fill="#707070" font-size="18" font-family="SegoeUI-Bold, Segoe UI" font-weight="700"><tspan x="0" y="0">Tipos de </tspan><tspan y="0" font-family="SegoeUI-BoldItalic, Segoe UI" font-style="italic">Hacker</tspan></text>
  </g>
</svg>
