<svg xmlns="http://www.w3.org/2000/svg" width="142.537" height="150.523" viewBox="0 0 142.537 150.523">
  <g id="Grupo_950119" data-name="Grupo 950119" transform="translate(9745.504 534.513)">
    <circle id="Elipse_5362" data-name="Elipse 5362" cx="52.867" cy="52.867" r="52.867" transform="translate(-9727.104 -507.648)" fill="#bee7ed"/>
    <circle id="Elipse_5363" data-name="Elipse 5363" cx="43.422" cy="43.422" r="43.422" transform="translate(-9717.658 -498.68)" fill="#fff"/>
    <g id="Grupo_948193" data-name="Grupo 948193" transform="translate(-9745.504 -543.125)">
      <path id="Trazado_632957" data-name="Trazado 632957" d="M164.324,2905.346l-8.471-6.515-10.919,13.187a52.382,52.382,0,1,1-29.76-9.28h0v-18.879a71.286,71.286,0,1,0,56.621,28Z" transform="translate(-43.907 -2867.26)" fill="#45bbcc"/>
    </g>
    <g id="Grupo_948194" data-name="Grupo 948194" transform="translate(-10543.537 -8613.303)">
      <g id="Grupo_82733" data-name="Grupo 82733" transform="translate(846.738 8078.79)">
        <g id="Grupo_82732" data-name="Grupo 82732" transform="translate(0 0)">
          <circle id="Elipse_5320" data-name="Elipse 5320" cx="21.549" cy="21.549" r="21.549" transform="translate(1.85 44.949) rotate(-90)" fill="#45bbcc"/>
          <g id="Grupo_82731" data-name="Grupo 82731">
            <path id="Trazado_120382" data-name="Trazado 120382" d="M300.506,134.4a23.4,23.4,0,1,1,23.4-23.4A23.426,23.426,0,0,1,300.506,134.4Zm0-43.1A19.7,19.7,0,1,0,320.2,111,19.721,19.721,0,0,0,300.506,91.3Z" transform="translate(-277.106 -87.598)" fill="#29707a"/>
          </g>
        </g>
      </g>
      <text id="_01" data-name="01" transform="translate(870.537 8110.295)" fill="#fff" font-size="20" font-family="SegoeUIBlack, Segoe UI"><tspan x="-10.825" y="0">01</tspan></text>
    </g>
    <g id="Grupo_948195" data-name="Grupo 948195" transform="translate(-10124 -3101.008)">
      <rect id="Rectángulo_34429" data-name="Rectángulo 34429" width="58" height="58" transform="translate(421 2618)" fill="none"/>
      <g id="interaccion" transform="translate(426.84 2623.236)">
        <path id="Trazado_632963" data-name="Trazado 632963" d="M16.2,45.069H12.25A2.25,2.25,0,0,1,10,42.818V12.25A2.251,2.251,0,0,1,12.25,10H50.132a2.25,2.25,0,0,1,2.25,2.25V42.068a3,3,0,0,1-3,3Zm0,0" transform="translate(-9.062 -9.062)" fill="#fff"/>
        <path id="Trazado_632964" data-name="Trazado 632964" d="M50.132,10H12.25A2.251,2.251,0,0,0,10,12.25v4.5H52.383v-4.5A2.25,2.25,0,0,0,50.132,10Zm0,0" transform="translate(-9.062 -9.062)" fill="#45bbcc"/>
        <path id="Trazado_632965" data-name="Trazado 632965" d="M160.913,194.315a2.532,2.532,0,0,0,0,3.58l-1.424-1.424a2.532,2.532,0,0,0-3.58,3.58,2.532,2.532,0,1,0-3.58,3.58l-6.762-6.762a2.532,2.532,0,0,0-3.58,3.58l14.371,14.371-5.7-1.384a2.657,2.657,0,0,0-1.5,5.092l9.378,3.27a12.445,12.445,0,0,0,12.9-20.551l-6.934-6.934a2.532,2.532,0,0,0-3.58,0Zm0,0" transform="translate(-128.001 -175.422)" fill="#feda9b"/>
        <path id="Trazado_632966" data-name="Trazado 632966" d="M215.224,36H195.762a.938.938,0,0,0,0,1.875h19.463a.938.938,0,1,0,0-1.875Zm0,0" transform="translate(-176.556 -32.624)"/>
        <path id="Trazado_632967" data-name="Trazado 632967" d="M87.3,36a.938.938,0,1,0,.663.275A.945.945,0,0,0,87.3,36Zm0,0" transform="translate(-78.261 -32.624)"/>
        <path id="Trazado_632968" data-name="Trazado 632968" d="M50.547,36a.938.938,0,1,0,.663.275A.945.945,0,0,0,50.547,36Zm0,0" transform="translate(-44.957 -32.624)"/>
        <path id="Trazado_632969" data-name="Trazado 632969" d="M124.047,36a.938.938,0,1,0,.663.275A.943.943,0,0,0,124.047,36Zm0,0" transform="translate(-111.565 -32.624)"/>
        <path id="Trazado_632970" data-name="Trazado 632970" d="M179.1,374.271a.937.937,0,1,0,.275.663A.944.944,0,0,0,179.1,374.271Zm0,0" transform="translate(-160.856 -338.927)"/>
        <path id="Trazado_632971" data-name="Trazado 632971" d="M44.255,25.333c0-.021,0-.042,0-.064V3.188A3.191,3.191,0,0,0,41.07,0H3.188A3.192,3.192,0,0,0,0,3.188V33.756a3.192,3.192,0,0,0,3.188,3.188H13.972a.938.938,0,0,0,0-1.875H3.188a1.314,1.314,0,0,1-1.313-1.313V8.627H42.383v14.83L37.156,18.23a3.472,3.472,0,0,0-5.806,1.557,3.469,3.469,0,0,0-5.117,3.166l-.115,0a3.476,3.476,0,0,0-3.308,2.416l-4.581-4.581a3.469,3.469,0,0,0-4.906,4.906L25.332,37.7l-2.458-.6a3.6,3.6,0,0,0-2.031,6.888l9.378,3.27a13.382,13.382,0,0,0,14.035-21.93ZM1.886,6.752h-.01V3.188A1.314,1.314,0,0,1,3.188,1.876H41.071a1.314,1.314,0,0,1,1.313,1.313V6.752ZM42.763,42.763a11.571,11.571,0,0,1-11.925,2.729l-9.378-3.27a1.726,1.726,0,0,1-1.095-2.069,1.708,1.708,0,0,1,1.652-1.276,1.754,1.754,0,0,1,.414.05l5.7,1.384a.938.938,0,0,0,.884-1.574L14.649,24.366A1.594,1.594,0,1,1,16.9,22.112l6.762,6.762h0l4.864,4.864a.938.938,0,0,0,1.326-1.326l-4.864-4.864h0a1.594,1.594,0,1,1,2.254-2.254l5.118,5.117a.938.938,0,1,0,1.326-1.326l-5.117-5.118a1.594,1.594,0,1,1,2.254-2.254l1.423,1.423h0l3.74,3.74a.938.938,0,0,0,1.326-1.326l-3.74-3.741a1.594,1.594,0,1,1,2.254-2.254l6.934,6.933a11.521,11.521,0,0,1,0,16.274Zm0,0" transform="translate(0)"/>
        <path id="Trazado_632972" data-name="Trazado 632972" d="M156.613,153.382v-2.019a.938.938,0,1,0-1.875,0v2.019a.938.938,0,1,0,1.875,0Zm0,0" transform="translate(-140.228 -136.32)"/>
        <path id="Trazado_632973" data-name="Trazado 632973" d="M70.692,235.41a.938.938,0,1,0,0,1.875h2.019a.938.938,0,0,0,0-1.875Zm0,0" transform="translate(-63.213 -213.336)"/>
        <path id="Trazado_632974" data-name="Trazado 632974" d="M77.9,159.508a.938.938,0,0,0,.663-1.6l-3.5-3.5a.938.938,0,0,0-1.326,1.326l3.5,3.5A.935.935,0,0,0,77.9,159.508Zm0,0" transform="translate(-66.569 -139.676)"/>
      </g>
    </g>
  </g>
</svg>
