<svg xmlns="http://www.w3.org/2000/svg" width="67" height="72" viewBox="0 0 67 72">
  <g id="Grupo_948247" data-name="Grupo 948247" transform="translate(9423 3522)">
    <rect id="Rectángulo_34191" data-name="Rectángulo 34191" width="67" height="72" rx="5" transform="translate(-9423 -3522)" fill="#fff"/>
    <g id="lock_laptop" data-name="lock laptop" transform="translate(-9417.197 -3513.831)">
      <path id="Trazado_633211" data-name="Trazado 633211" d="M32.924,12.386V7.193a1.731,1.731,0,1,0-3.462,0v5.193H26V7.193a5.193,5.193,0,1,1,10.386,0v5.193Z" transform="translate(-3.497 -0.134)" fill="#376cfb"/>
      <path id="Trazado_633212" data-name="Trazado 633212" d="M6,49.024V20.462A3.462,3.462,0,0,1,9.462,17H47.544a3.462,3.462,0,0,1,3.462,3.462V49.024Z" transform="translate(-0.807 -2.152)" fill="#e6ecff"/>
      <path id="Trazado_633213" data-name="Trazado 633213" d="M10,21H48.082V46.1H10Z" transform="translate(-1.345 -2.69)" fill="#d0dbf7"/>
      <rect id="Rectángulo_34563" data-name="Rectángulo 34563" width="31.158" height="10.386" rx="4" transform="translate(12.117 29.562)" fill="#4294ff"/>
      <rect id="Rectángulo_34564" data-name="Rectángulo 34564" width="15.579" height="13.848" rx="2" transform="translate(19.907 12.252)" fill="#4294ff"/>
      <path id="Trazado_633214" data-name="Trazado 633214" d="M4.412,60.924.95,54H54.611l-3.462,6.924Z" transform="translate(-0.128 -7.128)" fill="#4294ff"/>
      <path id="Trazado_633215" data-name="Trazado 633215" d="M14.731,57.462,13,54H45.889l-1.731,3.462Z" transform="translate(-1.748 -7.128)" fill="#376cfb"/>
      <path id="Trazado_633216" data-name="Trazado 633216" d="M30.345,24.924a.866.866,0,0,1-.719-.379.853.853,0,0,1-.087-.8l.743-1.861-.317-.394a2.127,2.127,0,0,1-.469-1.328,2.164,2.164,0,1,1,4.328,0,2.127,2.127,0,0,1-.467,1.328l-.317.394.741,1.854a.856.856,0,0,1-.087.806.866.866,0,0,1-.719.379Z" transform="translate(-3.965 -2.286)" fill="#376cfb"/>
      <g id="Grupo_948303" data-name="Grupo 948303" transform="translate(0 1)">
        <path id="Trazado_633217" data-name="Trazado 633217" d="M13,37.328V40.79a4.333,4.333,0,0,0,4.328,4.328H41.562a4.333,4.333,0,0,0,4.328-4.328V37.328A4.333,4.333,0,0,0,41.562,33H17.328A4.333,4.333,0,0,0,13,37.328Zm31.158,0V40.79a2.6,2.6,0,0,1-2.6,2.6H17.328a2.6,2.6,0,0,1-2.6-2.6V37.328a2.6,2.6,0,0,1,2.6-2.6H41.562A2.6,2.6,0,0,1,44.158,37.328Z" transform="translate(-1.748 -5.304)" fill="#060606"/>
        <path id="Trazado_633218" data-name="Trazado 633218" d="M33.244,41.933a.866.866,0,0,0,1.224.019l1.145-1.112,1.1,1.1a.865.865,0,1,0,1.224-1.224l-1.084-1.084,1.179-1.145a.865.865,0,1,0-1.2-1.243l-1.2,1.16-1.154-1.154a.865.865,0,1,0-1.224,1.224l1.131,1.135-1.125,1.093a.866.866,0,0,0-.016,1.227Z" transform="translate(-4.437 -5.842)" fill="#060606"/>
        <path id="Trazado_633219" data-name="Trazado 633219" d="M41.244,41.933a.866.866,0,0,0,1.224.019l1.145-1.112,1.1,1.1a.865.865,0,1,0,1.224-1.224l-1.084-1.084,1.179-1.145a.865.865,0,1,0-1.2-1.243l-1.2,1.16-1.154-1.154a.865.865,0,1,0-1.224,1.224l1.136,1.135-1.125,1.093a.866.866,0,0,0-.02,1.227Z" transform="translate(-5.514 -5.842)" fill="#060606"/>
        <path id="Trazado_633220" data-name="Trazado 633220" d="M25.244,41.933a.866.866,0,0,0,1.224.019l1.145-1.112,1.1,1.1a.865.865,0,1,0,1.224-1.224l-1.084-1.084,1.179-1.145a.865.865,0,1,0-1.2-1.243l-1.2,1.16-1.154-1.154a.865.865,0,1,0-1.224,1.224l1.136,1.135-1.125,1.093a.866.866,0,0,0-.02,1.227Z" transform="translate(-3.362 -5.842)" fill="#060606"/>
        <path id="Trazado_633221" data-name="Trazado 633221" d="M17.254,37.254a.866.866,0,0,0,0,1.224l1.136,1.136-1.125,1.093a.866.866,0,1,0,1.207,1.243l1.145-1.112,1.1,1.1a.865.865,0,1,0,1.224-1.224l-1.084-1.084,1.179-1.145a.865.865,0,1,0-1.2-1.243l-1.2,1.163-1.154-1.154a.866.866,0,0,0-1.224,0Z" transform="translate(-2.286 -5.842)" fill="#060606"/>
        <path id="Trazado_633222" data-name="Trazado 633222" d="M24.6,26.965H36.714a2.6,2.6,0,0,0,2.6-2.6V13.983a2.6,2.6,0,0,0-2.6-2.6V7.059a6.059,6.059,0,1,0-12.117,0v4.328a2.6,2.6,0,0,0-2.6,2.6V24.369a2.6,2.6,0,0,0,2.6,2.6ZM26.328,7.059a4.328,4.328,0,0,1,8.655,0v4.328H33.252V7.059a2.6,2.6,0,1,0-5.193,0v4.328H26.328Zm3.462,4.328V7.059a.866.866,0,0,1,1.731,0v4.328Zm-6.059,2.6a.866.866,0,0,1,.866-.866H36.714a.866.866,0,0,1,.866.866V24.369a.866.866,0,0,1-.866.866H24.6a.866.866,0,0,1-.866-.866Z" transform="translate(-2.958 -1)" fill="#030304"/>
        <path id="Trazado_633223" data-name="Trazado 633223" d="M55.263,48.435a.866.866,0,0,0-.737-.411H51.065v-27.7A4.333,4.333,0,0,0,46.737,16h-7.79a.866.866,0,1,0,0,1.731h7.79a2.6,2.6,0,0,1,2.6,2.6v27.7H6.058v-27.7a2.6,2.6,0,0,1,2.6-2.6h7.79a.866.866,0,1,0,0-1.731H8.655a4.333,4.333,0,0,0-4.328,4.328v27.7H.865a.866.866,0,0,0-.775,1.252L3.553,56.2a.866.866,0,0,0,.775.479H51.065a.866.866,0,0,0,.779-.479l3.462-6.924A.865.865,0,0,0,55.263,48.435ZM42.74,49.755l-.866,1.731H13.517l-.866-1.731Zm7.79,5.193H4.862l-2.6-5.193h8.451l1.491,2.983a.866.866,0,0,0,.775.479H42.41a.866.866,0,0,0,.779-.479l1.487-2.983h8.451Z" transform="translate(0 -3.017)" fill="#060606"/>
        <path id="Trazado_633224" data-name="Trazado 633224" d="M34.452,23.284,33.9,21.9a2.983,2.983,0,0,0,.658-1.869,3.029,3.029,0,1,0-6.059,0,2.983,2.983,0,0,0,.658,1.869L28.6,23.284a1.731,1.731,0,0,0,1.61,2.371h2.631a1.731,1.731,0,0,0,1.61-2.371Zm-4.241.64.762-1.9a.859.859,0,0,0-.26-.987,1.305,1.305,0,0,1-.485-1,1.3,1.3,0,0,1,2.6,0,1.305,1.305,0,0,1-.485,1,.859.859,0,0,0-.26.987l.762,1.9Z" transform="translate(-3.83 -3.152)" fill="#060606"/>
        <path id="Trazado_633225" data-name="Trazado 633225" d="M17.655,20H9.866A.866.866,0,0,0,9,20.866v25.1a.866.866,0,0,0,.866.866H47.948a.866.866,0,0,0,.866-.866v-25.1A.866.866,0,0,0,47.948,20h-7.79a.866.866,0,1,0,0,1.731h6.924V45.1H10.731V21.731h6.924a.866.866,0,0,0,0-1.731Z" transform="translate(-1.21 -3.555)" fill="#060606"/>
      </g>
    </g>
  </g>
</svg>
