<svg xmlns="http://www.w3.org/2000/svg" width="179" height="179" viewBox="0 0 179 179">
  <g id="Grupo_948530" data-name="Grupo 948530" transform="translate(-1060 -17352)">
    <circle id="Elipse_5407" data-name="Elipse 5407" cx="89.5" cy="89.5" r="89.5" transform="translate(1060 17352)" fill="#fff"/>
    <g id="Grupo_948515" data-name="Grupo 948515" transform="translate(707)">
      <rect id="Rectángulo_34831" data-name="Rectángulo 34831" width="105" height="110" transform="translate(390 17388)" fill="none"/>
      <g id="escaneo-de-huellas-digitales" transform="translate(394.119 17393.543)">
        <g id="Grupo_948534" data-name="Grupo 948534" transform="translate(1.424 1.424)">
          <g id="Grupo_948531" data-name="Grupo 948531">
            <path id="Trazado_633813" data-name="Trazado 633813" d="M10.211,27.816A2.9,2.9,0,0,1,7.5,24.89V10.348A2.848,2.848,0,0,1,10.348,7.5H24.89a2.9,2.9,0,0,1,2.926,2.711A2.848,2.848,0,0,1,24.97,13.2H13.956a.76.76,0,0,0-.76.76V24.97a2.848,2.848,0,0,1-2.986,2.845Z" transform="translate(-7.5 -7.5)" fill="#583ae2"/>
            <path id="Trazado_633814" data-name="Trazado 633814" d="M24.97,417.819H10.348A2.848,2.848,0,0,1,7.5,414.97V400.429a2.9,2.9,0,0,1,2.711-2.926,2.848,2.848,0,0,1,2.986,2.845v11.014a.76.76,0,0,0,.76.76H24.89a2.9,2.9,0,0,1,2.926,2.711A2.848,2.848,0,0,1,24.97,417.819Z" transform="translate(-7.5 -323.441)" fill="#583ae2"/>
            <path id="Trazado_633815" data-name="Trazado 633815" d="M414.833,27.816a2.9,2.9,0,0,1-2.711-2.926V13.956a.76.76,0,0,0-.76-.76H400.429a2.9,2.9,0,0,1-2.926-2.711A2.848,2.848,0,0,1,400.348,7.5H414.97a2.848,2.848,0,0,1,2.848,2.848V24.97A2.848,2.848,0,0,1,414.833,27.816Z" transform="translate(-323.441 -7.5)" fill="#583ae2"/>
            <path id="Trazado_633816" data-name="Trazado 633816" d="M414.97,417.819H400.429a2.9,2.9,0,0,1-2.926-2.711,2.849,2.849,0,0,1,2.845-2.986h11.014a.76.76,0,0,0,.76-.76V400.429a2.9,2.9,0,0,1,2.711-2.926,2.848,2.848,0,0,1,2.986,2.845V414.97A2.849,2.849,0,0,1,414.97,417.819Z" transform="translate(-323.441 -323.441)" fill="#583ae2"/>
          </g>
          <g id="Grupo_948532" data-name="Grupo 948532" transform="translate(6.357 7.691)">
            <path id="Trazado_633817" data-name="Trazado 633817" d="M392.865,164.252a2.85,2.85,0,0,1-2.638-3.92,60.66,60.66,0,0,0,4.459-22.852,34.924,34.924,0,0,0-10.048-24.517,2.848,2.848,0,0,1,4.069-3.987,40.589,40.589,0,0,1,11.675,28.383c0,.016,0,.031,0,.047v.13c0,.011,0,.023,0,.034a66.322,66.322,0,0,1-4.877,24.9A2.849,2.849,0,0,1,392.865,164.252Z" transform="translate(-318.719 -96.704)" fill="#2ff980"/>
            <path id="Trazado_633818" data-name="Trazado 633818" d="M154.5,57.7a2.849,2.849,0,0,1-1.279-5.4,40.827,40.827,0,0,1,32.281-1.819,2.848,2.848,0,0,1-1.964,5.348A35.13,35.13,0,0,0,155.779,57.4,2.838,2.838,0,0,1,154.5,57.7Z" transform="translate(-130.636 -48)" fill="#2ff980"/>
            <path id="Trazado_633819" data-name="Trazado 633819" d="M43.827,140.38a2.848,2.848,0,0,1-2.848-2.848,40.591,40.591,0,0,1,11.676-28.561,2.848,2.848,0,1,1,4.069,3.987,34.925,34.925,0,0,0-10.048,24.574A2.848,2.848,0,0,1,43.827,140.38Z" transform="translate(-40.979 -96.7)" fill="#2ff980"/>
            <path id="Trazado_633820" data-name="Trazado 633820" d="M144,286.584a2.849,2.849,0,0,1-1.434-5.312,35.3,35.3,0,0,0,17.543-30.4,2.848,2.848,0,0,1,5.7,0,40.736,40.736,0,0,1-5.627,20.667A41.159,41.159,0,0,1,145.432,286.2,2.837,2.837,0,0,1,144,286.584Z" transform="translate(-122.13 -210.038)" fill="#2ff980"/>
            <path id="Trazado_633821" data-name="Trazado 633821" d="M219.75,400.212a2.848,2.848,0,0,1-1.926-4.948,48.286,48.286,0,0,0,9.164-11.4,2.848,2.848,0,0,1,4.929,2.856,53.975,53.975,0,0,1-10.243,12.74A2.839,2.839,0,0,1,219.75,400.212Z" transform="translate(-183.494 -318.937)" fill="#2ff980"/>
            <path id="Trazado_633822" data-name="Trazado 633822" d="M88.1,226.532a2.849,2.849,0,0,1-.841-5.57,22.035,22.035,0,0,0,15.6-21.146,14.816,14.816,0,1,1,29.631,0,53.969,53.969,0,0,1-1.91,14.262,2.849,2.849,0,0,1-5.494-1.506,48.27,48.27,0,0,0,1.707-12.756,9.119,9.119,0,1,0-18.238,0,27.567,27.567,0,0,1-5.553,16.663A28.107,28.107,0,0,1,88.946,226.4a2.852,2.852,0,0,1-.843.128Z" transform="translate(-76.847 -158.984)" fill="#2ff980"/>
            <path id="Trazado_633823" data-name="Trazado 633823" d="M321.127,337.135a2.849,2.849,0,0,1-2.384-4.4,60.21,60.21,0,0,0,8.879-22.423,2.848,2.848,0,0,1,5.608,1,65.874,65.874,0,0,1-9.715,24.534A2.846,2.846,0,0,1,321.127,337.135Z" transform="translate(-265.623 -258.594)" fill="#2ff980"/>
            <path id="Trazado_633824" data-name="Trazado 633824" d="M221.231,144.327A2.848,2.848,0,0,1,218.4,141.8a22.106,22.106,0,0,0-21.984-19.6,21.847,21.847,0,0,0-9.845,2.313,2.848,2.848,0,0,1-2.544-5.1A27.787,27.787,0,0,1,215,123.631a27.787,27.787,0,0,1,9.061,17.525,2.849,2.849,0,0,1-2.834,3.171Z" transform="translate(-155.589 -103.492)" fill="#2ff980"/>
            <path id="Trazado_633825" data-name="Trazado 633825" d="M49.307,214.63a2.848,2.848,0,1,1,0-5.7,9.129,9.129,0,0,0,9.119-9.119,27.817,27.817,0,0,1,3.409-13.337,2.848,2.848,0,0,1,5,2.739,22.1,22.1,0,0,0-2.708,10.6A14.832,14.832,0,0,1,49.307,214.63Z" transform="translate(-45.418 -158.983)" fill="#2ff980"/>
          </g>
          <g id="Grupo_948533" data-name="Grupo 948533" transform="translate(6.357 8.422)">
            <path id="Trazado_633826" data-name="Trazado 633826" d="M163.731,51.85a63.839,63.839,0,0,0-4.126,7.022,35.009,35.009,0,0,0-3.826,1.644,2.849,2.849,0,0,1-2.554-5.093A40.3,40.3,0,0,1,163.731,51.85Z" transform="translate(-130.636 -51.85)" fill="#2ff980"/>
            <path id="Trazado_633827" data-name="Trazado 633827" d="M43.827,140.38a2.848,2.848,0,0,1-2.848-2.848,40.591,40.591,0,0,1,11.676-28.561,2.848,2.848,0,1,1,4.069,3.987,34.925,34.925,0,0,0-10.048,24.574A2.848,2.848,0,0,1,43.827,140.38Z" transform="translate(-40.979 -97.431)" fill="#2ff980"/>
            <path id="Trazado_633828" data-name="Trazado 633828" d="M156.425,378.5a41.133,41.133,0,0,1-10.995,9.314,2.848,2.848,0,1,1-2.862-4.926,35.246,35.246,0,0,0,10.556-9.43q1.518,2.572,3.3,5.042Z" transform="translate(-122.128 -312.388)" fill="#2ff980"/>
            <path id="Trazado_633829" data-name="Trazado 633829" d="M225.86,431.67a53.94,53.94,0,0,1-4.183,4.284,2.849,2.849,0,1,1-3.849-4.2,48.109,48.109,0,0,0,4.111-4.263Q223.8,429.632,225.86,431.67Z" transform="translate(-183.496 -356.158)" fill="#2ff980"/>
            <path id="Trazado_633830" data-name="Trazado 633830" d="M104.494,307.012q-.686,1.125-1.487,2.191a28.1,28.1,0,0,1-14.062,9.924,2.848,2.848,0,1,1-1.684-5.44,22.031,22.031,0,0,0,14.506-14.227A57.775,57.775,0,0,0,104.494,307.012Z" transform="translate(-76.847 -252.44)" fill="#2ff980"/>
            <path id="Trazado_633831" data-name="Trazado 633831" d="M49.307,214.63a2.848,2.848,0,1,1,0-5.7,9.129,9.129,0,0,0,9.119-9.119,27.817,27.817,0,0,1,3.409-13.337,2.848,2.848,0,0,1,5,2.739,22.1,22.1,0,0,0-2.708,10.6A14.832,14.832,0,0,1,49.307,214.63Z" transform="translate(-45.418 -159.714)" fill="#2ff980"/>
          </g>
        </g>
        <g id="Grupo_948535" data-name="Grupo 948535">
          <path id="Trazado_633832" data-name="Trazado 633832" d="M4.273,23.167a4.278,4.278,0,0,0,4.273-4.273V8.545H18.895a4.273,4.273,0,1,0,0-8.545h-5.6a1.424,1.424,0,1,0,0,2.848h5.6a1.424,1.424,0,0,1,0,2.848H7.121A1.424,1.424,0,0,0,5.7,7.121V18.895a1.424,1.424,0,0,1-2.848,0V4.273A1.426,1.426,0,0,1,4.273,2.848H6.646A1.424,1.424,0,0,0,6.646,0H4.273A4.278,4.278,0,0,0,0,4.273V18.895A4.278,4.278,0,0,0,4.273,23.167Z"/>
          <path id="Trazado_633833" data-name="Trazado 633833" d="M18.895,404.622H8.545V394.273a4.273,4.273,0,0,0-8.545,0v14.622a4.278,4.278,0,0,0,4.273,4.273H18.895a4.273,4.273,0,1,0,0-8.545Zm0,5.7H4.273a1.426,1.426,0,0,1-1.424-1.424V394.273a1.424,1.424,0,0,1,2.848,0v11.773a1.424,1.424,0,0,0,1.424,1.424H18.895a1.424,1.424,0,1,1,0,2.848Z" transform="translate(0 -315.941)"/>
          <path id="Trazado_633834" data-name="Trazado 633834" d="M408.895,0H394.273a4.273,4.273,0,0,0,0,8.545h10.349V18.895a4.273,4.273,0,1,0,8.545,0V4.273A4.278,4.278,0,0,0,408.895,0Zm1.424,18.895a1.424,1.424,0,1,1-2.848,0V7.121A1.424,1.424,0,0,0,406.046,5.7H394.273a1.424,1.424,0,0,1,0-2.848h14.622a1.426,1.426,0,0,1,1.424,1.424Z" transform="translate(-315.941)"/>
          <path id="Trazado_633835" data-name="Trazado 633835" d="M408.895,390a4.278,4.278,0,0,0-4.273,4.273v1.8a1.424,1.424,0,0,0,2.848,0v-1.8a1.424,1.424,0,0,1,2.848,0v14.622a1.426,1.426,0,0,1-1.424,1.424H394.273a1.424,1.424,0,0,1,0-2.848h11.773a1.424,1.424,0,0,0,1.424-1.424v-3.323a1.424,1.424,0,1,0-2.848,0v1.9H394.273a4.273,4.273,0,0,0,0,8.545h14.622a4.278,4.278,0,0,0,4.273-4.273V394.273A4.278,4.278,0,0,0,408.895,390Z" transform="translate(-315.941 -315.941)"/>
          <path id="Trazado_633836" data-name="Trazado 633836" d="M387.221,131.41a59.248,59.248,0,0,1-4.354,22.318,4.273,4.273,0,1,0,7.918,3.214,67.751,67.751,0,0,0,4.981-25.657,42.022,42.022,0,0,0-12.081-29.374,4.273,4.273,0,1,0-6.1,5.98A33.513,33.513,0,0,1,387.221,131.41Zm-7.585-27.526a1.426,1.426,0,0,1,2.014.021,39.194,39.194,0,0,1,11.268,27.4,64.925,64.925,0,0,1-4.772,24.563,1.424,1.424,0,0,1-2.639-1.071,62.087,62.087,0,0,0,4.563-23.39A36.347,36.347,0,0,0,379.615,105.9,1.431,1.431,0,0,1,379.636,103.884Z" transform="translate(-304.898 -81.522)"/>
          <path id="Trazado_633837" data-name="Trazado 633837" d="M148.433,53.05a4.291,4.291,0,0,0,1.913-.454,33.706,33.706,0,0,1,26.635-1.5,4.273,4.273,0,0,0,2.945-8.022,42.25,42.25,0,0,0-33.41,1.883,4.273,4.273,0,0,0,1.917,8.093Zm-.641-5.546a39.4,39.4,0,0,1,31.152-1.755,1.424,1.424,0,0,1-.982,2.674,36.553,36.553,0,0,0-28.893,1.627,1.424,1.424,0,0,1-1.277-2.546Z" transform="translate(-116.783 -32.809)"/>
          <path id="Trazado_633838" data-name="Trazado 633838" d="M45.562,101.906a42.008,42.008,0,0,0-12.083,29.558,4.273,4.273,0,0,0,8.545,0,33.509,33.509,0,0,1,9.641-23.577,4.273,4.273,0,1,0-6.1-5.981Zm3.052,1.566a1.415,1.415,0,0,1,1,.407,1.431,1.431,0,0,1,.02,2.014,36.342,36.342,0,0,0-10.455,25.57,1.424,1.424,0,0,1-2.848,0A39.174,39.174,0,0,1,47.6,103.9a1.414,1.414,0,0,1,1.017-.427Z" transform="translate(-27.122 -81.518)"/>
          <path id="Trazado_633839" data-name="Trazado 633839" d="M155.343,266.183a42.164,42.164,0,0,0,5.824-21.39,4.273,4.273,0,1,0-8.545,0,33.4,33.4,0,0,1-1.277,9.138,1.424,1.424,0,0,0,2.74.779,36.256,36.256,0,0,0,1.385-9.917,1.424,1.424,0,1,1,2.848,0,39.31,39.31,0,0,1-5.43,19.944A39.73,39.73,0,0,1,138.65,278.89a1.424,1.424,0,1,1-1.431-2.463,36.646,36.646,0,0,0,14.319-15.2A1.424,1.424,0,1,0,149,259.94a33.805,33.805,0,0,1-13.208,14.024,4.273,4.273,0,1,0,4.293,7.388A42.585,42.585,0,0,0,155.343,266.183Z" transform="translate(-108.281 -194.847)"/>
          <path id="Trazado_633840" data-name="Trazado 633840" d="M225.528,375.532a4.292,4.292,0,0,0-5.839,1.555,46.851,46.851,0,0,1-8.894,11.06,4.273,4.273,0,0,0,5.774,6.3,55.4,55.4,0,0,0,10.513-13.076A4.277,4.277,0,0,0,225.528,375.532Zm-.91,4.411a52.549,52.549,0,0,1-9.973,12.4,1.424,1.424,0,1,1-1.925-2.1,49.7,49.7,0,0,0,9.434-11.732,1.424,1.424,0,1,1,2.465,1.428Z" transform="translate(-169.645 -303.755)"/>
          <path id="Trazado_633841" data-name="Trazado 633841" d="M125.875,208.377a55.393,55.393,0,0,0,1.96-14.638,16.24,16.24,0,0,0-32.48,0,20.618,20.618,0,0,1-14.6,19.785,4.273,4.273,0,1,0,2.526,8.163,29.541,29.541,0,0,0,14.779-10.431,28.981,28.981,0,0,0,5.838-17.517,7.695,7.695,0,1,1,15.389,0,46.847,46.847,0,0,1-1.657,12.379,4.273,4.273,0,0,0,8.242,2.259Zm-4.5.244a1.426,1.426,0,0,1-1-1.75,49.7,49.7,0,0,0,1.758-13.132,10.543,10.543,0,1,0-21.086,0,26.154,26.154,0,0,1-5.268,15.808,26.671,26.671,0,0,1-13.343,9.419,1.424,1.424,0,1,1-.842-2.721,23.453,23.453,0,0,0,16.6-22.507,13.392,13.392,0,1,1,26.783,0,52.542,52.542,0,0,1-1.859,13.885,1.426,1.426,0,0,1-1.75,1Z" transform="translate(-62.982 -143.793)"/>
          <path id="Trazado_633842" data-name="Trazado 633842" d="M327.874,302.256a4.243,4.243,0,0,0-2.754-1.763,4.293,4.293,0,0,0-4.957,3.455,58.8,58.8,0,0,1-8.67,21.9,4.273,4.273,0,1,0,7.158,4.666,67.294,67.294,0,0,0,9.924-25.061,4.245,4.245,0,0,0-.7-3.194Zm-2.1,2.693a64.455,64.455,0,0,1-9.506,24.006,1.424,1.424,0,1,1-2.386-1.555,61.626,61.626,0,0,0,9.088-22.951,1.424,1.424,0,0,1,2.8.5Z" transform="translate(-251.783 -243.37)"/>
          <path id="Trazado_633843" data-name="Trazado 633843" d="M216.578,135.241a1.424,1.424,0,1,1-2.83.322,23.529,23.529,0,0,0-23.4-20.867,23.254,23.254,0,0,0-10.48,2.463,1.424,1.424,0,1,1-1.273-2.549,26.365,26.365,0,0,1,25.988,1.412,1.424,1.424,0,1,0,1.539-2.4,29.212,29.212,0,0,0-28.8-1.564,4.273,4.273,0,1,0,3.816,7.646,20.435,20.435,0,0,1,9.209-2.163,20.682,20.682,0,0,1,20.569,18.341,4.273,4.273,0,1,0,8.49-.967,29.377,29.377,0,0,0-7.823-16.766,1.424,1.424,0,1,0-2.068,1.959A26.509,26.509,0,0,1,216.578,135.241Z" transform="translate(-141.736 -88.301)"/>
          <path id="Trazado_633844" data-name="Trazado 633844" d="M54.51,179.723a29.244,29.244,0,0,0-3.584,14.021,7.7,7.7,0,0,1-7.695,7.695,4.273,4.273,0,1,0,0,8.545,16.258,16.258,0,0,0,16.24-16.24A20.675,20.675,0,0,1,62,183.831a4.273,4.273,0,1,0-7.493-4.108Zm3.749.63a1.424,1.424,0,0,1,1.246,2.109,23.529,23.529,0,0,0-2.883,11.283,13.407,13.407,0,0,1-13.392,13.392,1.424,1.424,0,0,1,0-2.848,10.555,10.555,0,0,0,10.543-10.543,26.39,26.39,0,0,1,3.234-12.652A1.426,1.426,0,0,1,58.259,180.353Z" transform="translate(-31.56 -143.798)"/>
        </g>
      </g>
    </g>
  </g>
</svg>
