<svg xmlns="http://www.w3.org/2000/svg" width="160.464" height="160.505" viewBox="0 0 160.464 160.505">
  <g id="Grupo_949962" data-name="Grupo 949962" transform="translate(9063.975 -3885.151)">
    <path id="Trazado_633549" data-name="Trazado 633549" d="M602.572,5003.45a80.938,80.938,0,1,1,103.017-49.894A80.627,80.627,0,0,1,602.572,5003.45Z" transform="translate(-9613.605 -963.576)" fill="#45bbcc"/>
    <path id="Trazado_633550" data-name="Trazado 633550" d="M675.828,4885.95l23.247,48q-.832,3.243-1.948,6.464a80.939,80.939,0,0,1-103.017,49.895q-1.818-.634-3.585-1.344L573.6,4954.021Z" transform="translate(-9605.144 -950.438)" fill="#3795a3"/>
    <g id="Grupo_948433" data-name="Grupo 948433" transform="translate(-9045.009 3903.972)">
      <path id="Trazado_633551" data-name="Trazado 633551" d="M604.077,4980.782a61.8,61.8,0,1,1,78.663-38.1A61.558,61.558,0,0,1,604.077,4980.782Z" transform="translate(-563.648 -4862.638)" fill="#e3f5f8"/>
    </g>
    <rect id="Rectángulo_34615" data-name="Rectángulo 34615" width="132.593" height="35.178" rx="10" transform="translate(-9050.433 4010.479)" fill="#342287"/>
    <path id="Trazado_635187" data-name="Trazado 635187" d="M25.945,5.8,22.984,17h-2.8L18.328,9.813a5.993,5.993,0,0,1-.18-1.258h-.031a7.642,7.642,0,0,1-.2,1.258L16.008,17H13.094L10.148,5.8h2.758l1.578,7.461a8.906,8.906,0,0,1,.148,1.281h.047a6.2,6.2,0,0,1,.227-1.312L16.937,5.8h2.7l1.836,7.523a9.212,9.212,0,0,1,.18,1.2h.031a8.066,8.066,0,0,1,.164-1.25L23.4,5.8ZM34.8,17H32.344V12.453q0-1.758-1.281-1.758A1.312,1.312,0,0,0,30,11.188a1.9,1.9,0,0,0-.406,1.25V17H27.125V5.156h2.469v5.031h.031A2.805,2.805,0,0,1,32.086,8.8q2.719,0,2.719,3.281Zm3.2-9.266a1.442,1.442,0,0,1-1.023-.371,1.2,1.2,0,0,1-.4-.91,1.153,1.153,0,0,1,.4-.906,1.671,1.671,0,0,1,2.051,0,1.158,1.158,0,0,1,.395.906,1.191,1.191,0,0,1-.395.922A1.466,1.466,0,0,1,38.008,7.734ZM39.226,17H36.758V9h2.469Zm6.914-.094a3.649,3.649,0,0,1-1.648.289q-2.609,0-2.609-2.711V10.82h-1.3V9h1.3V7.273l2.461-.7V9h1.8v1.82h-1.8v3.234q0,1.25.992,1.25a1.673,1.673,0,0,0,.8-.227Zm8.516-3.2H49.437q.125,1.742,2.2,1.742a4.286,4.286,0,0,0,2.32-.625V16.6a6.1,6.1,0,0,1-2.883.594,4.058,4.058,0,0,1-3.008-1.074,4.058,4.058,0,0,1-1.07-3,4.281,4.281,0,0,1,1.156-3.156A3.852,3.852,0,0,1,50.992,8.8,3.5,3.5,0,0,1,53.7,9.844a4,4,0,0,1,.957,2.82Zm-2.289-1.516q0-1.719-1.391-1.719a1.328,1.328,0,0,0-1.027.492,2.234,2.234,0,0,0-.527,1.227ZM70.476,17H67.945V12.438H63.3V17H60.781V5.8H63.3v4.469h4.641V5.8h2.531Zm8.977,0H77.117V15.852h-.031A2.607,2.607,0,0,1,74.7,17.2a2.492,2.492,0,0,1-1.832-.66,2.366,2.366,0,0,1-.668-1.762q0-2.328,2.758-2.687l2.172-.289q0-1.312-1.422-1.312a4.853,4.853,0,0,0-2.719.852V9.477a6.116,6.116,0,0,1,1.41-.469,7.413,7.413,0,0,1,1.629-.2q3.422,0,3.422,3.414Zm-2.32-3.25v-.539L75.68,13.4q-1.2.156-1.2,1.086a.9.9,0,0,0,.293.691,1.126,1.126,0,0,0,.793.27,1.462,1.462,0,0,0,1.133-.48A1.735,1.735,0,0,0,77.133,13.75Zm9.109,3.156a3.649,3.649,0,0,1-1.648.289q-2.609,0-2.609-2.711V10.82h-1.3V9h1.3V7.273l2.461-.7V9h1.8v1.82h-1.8v3.234q0,1.25.992,1.25a1.673,1.673,0,0,0,.8-.227Z" transform="translate(-9032.592 4017.567)" fill="#fff"/>
    <g id="hacker_1_" data-name="hacker(1)" transform="translate(-9039.004 3925.762)">
      <path id="Trazado_635010" data-name="Trazado 635010" d="M87.16,68.977l-4.693,2.247v1.95a3.315,3.315,0,0,1-3.314,3.314h-35.9a3.315,3.315,0,0,1-3.314-3.314v-1.95l-4.693-2.247a9.234,9.234,0,0,1-4.987-10.506l2.1-8.651a10.359,10.359,0,0,1,6.281-7.2c.222-.087,12.061-4.505,12.075-4.519l-1.64-1.3a6.906,6.906,0,0,1-2.425-7.067c1.529-6.214.836-3.394,3.147-12.789a11.754,11.754,0,0,1,22.826-.011l3.127,12.656a6.907,6.907,0,0,1-2.383,7.042l-1.73,1.388.064.079,12.072,4.517a10.359,10.359,0,0,1,6.281,7.2l2.1,8.651A9.234,9.234,0,0,1,87.16,68.977Z" transform="translate(-6.888 -6.895)" fill="#fff"/>
      <path id="Trazado_635011" data-name="Trazado 635011" d="M60.152,230.436a9.971,9.971,0,0,1-5.732,7.2c-3.8,1.806-8.457,1.965-11.651,4.972-2.38,2.242-4.573,6.655-3.221,16.277-.043-.02-5.01-2.392-5.044-2.425a9.234,9.234,0,0,1-4.247-10.11l2.1-8.651a10.359,10.359,0,0,1,6.281-7.2c.222-.087,12.061-4.505,12.075-4.519C52.894,227.7,55.421,230.094,60.152,230.436Z" transform="translate(-6.887 -194.777)" fill="#f6f6f6"/>
      <path id="Trazado_635012" data-name="Trazado 635012" d="M144.527,285.314V309.34a3.315,3.315,0,0,1-3.314,3.314h-35.9A3.315,3.315,0,0,1,102,309.34V285.314A3.315,3.315,0,0,1,105.312,282h35.9A3.315,3.315,0,0,1,144.527,285.314Z" transform="translate(-68.948 -243.062)" fill="#fff"/>
      <path id="Trazado_635013" data-name="Trazado 635013" d="M144.527,471.67v1.15a3.315,3.315,0,0,1-3.314,3.314h-35.9A3.315,3.315,0,0,1,102,472.82v-1.15Z" transform="translate(-68.948 -406.542)" fill="#e4e4e4"/>
      <path id="Trazado_635014" data-name="Trazado 635014" d="M176.046,105.408l-3.685,2.955a13.65,13.65,0,0,1-17,.062l-3.607-2.849a6.906,6.906,0,0,1-2.425-7.067l1.208-4.909a18.238,18.238,0,0,1,26.721.026l1.171,4.739A6.907,6.907,0,0,1,176.046,105.408Z" transform="translate(-109.572 -75.668)" fill="#e8e8e8"/>
      <path id="Trazado_635015" data-name="Trazado 635015" d="M216.188,325.352a7.585,7.585,0,0,1-3.108,6.18,1.362,1.362,0,0,1-.807.26c-7.9,0-7.675.1-8.164-.259a7.594,7.594,0,1,1,12.078-6.181Zm-3.452.078a1.1,1.1,0,1,0-1.1,1.1A1.1,1.1,0,0,0,212.736,325.431Zm-6.076,0a1.1,1.1,0,1,0-1.1,1.1A1.1,1.1,0,0,0,206.66,325.431Z" transform="translate(-154.279 -273.927)" fill="#f97680"/>
      <path id="Trazado_635016" data-name="Trazado 635016" d="M192.239,107.557l-3.085-2.336a11.122,11.122,0,0,1-4.379-8.108l-.438-6.421a18.225,18.225,0,0,1,19.79,0l-.438,6.421a11.122,11.122,0,0,1-4.379,8.108l-3.085,2.336A3.3,3.3,0,0,1,192.239,107.557Z" transform="translate(-139.919 -75.653)" fill="#fff"/>
      <path id="Trazado_635017" data-name="Trazado 635017" d="M174.34,8.109a15.444,15.444,0,0,0-9.471,12.654,18.416,18.416,0,0,0-5.541,4.057c.319-1.3.69-2.807,1.939-7.88a11.756,11.756,0,0,1,13.073-8.83Z" transform="translate(-118.362 -6.887)" fill="#f6f6f6"/>
      <path id="Trazado_635018" data-name="Trazado 635018" d="M384.115,285.314V308.19h-4.147c.205-.609.142,1.453.142-26.19h.69A3.315,3.315,0,0,1,384.115,285.314Z" transform="translate(-308.536 -243.062)" fill="#f2f2f2"/>
      <path id="Trazado_635019" data-name="Trazado 635019" d="M145.052,471.67v1.15a3.315,3.315,0,0,1-3.314,3.314h-35.9a3.311,3.311,0,0,1-3.23-2.578h35.678a2.761,2.761,0,0,0,2.619-1.886Z" transform="translate(-69.474 -406.542)" fill="#d9d9d9"/>
      <g id="Grupo_949957" data-name="Grupo 949957" transform="translate(22.004 0)">
        <path id="Trazado_635020" data-name="Trazado 635020" d="M86.333,51.316l-2.1-8.651a11.473,11.473,0,0,0-6.951-7.97c-.324-.126,1.847.691-8.4-3.143a1.1,1.1,0,0,0-.774,2.069l8.374,3.133a9.263,9.263,0,0,1,5.6,6.43l2.1,8.651a8.17,8.17,0,0,1-4.391,9.25l-3.111,1.489V42.252a4.424,4.424,0,0,0-4.419-4.419h-35.9a4.424,4.424,0,0,0-4.419,4.419V62.576l-3.111-1.489a8.17,8.17,0,0,1-4.391-9.25l2.1-8.651a9.262,9.262,0,0,1,5.6-6.43l11.484-4.3C45.708,34.1,48.762,36.8,54.3,36.8a14.812,14.812,0,0,0,9.176-3.244L67.166,30.6a8.034,8.034,0,0,0,2.765-8.169L66.8,9.776a12.86,12.86,0,0,0-24.972.012L38.686,22.577a8.026,8.026,0,0,0,2.813,8.2c.15.119,1.241-.344-10.137,3.914a11.467,11.467,0,0,0-6.968,7.976l-2.1,8.651A10.346,10.346,0,0,0,27.88,63.079l4.065,1.946v1.253A4.424,4.424,0,0,0,36.364,70.7h35.9a4.424,4.424,0,0,0,4.419-4.419V65.025l4.065-1.946a10.346,10.346,0,0,0,5.584-11.763ZM54.319,2.209a10.63,10.63,0,0,1,10.34,8.1l1.1,4.467a19.326,19.326,0,0,0-22.879-.013l1.093-4.444A10.629,10.629,0,0,1,54.319,2.209Zm0,26.586a1.1,1.1,0,0,0-1.1,1.1v1.27c-.183-.106.059.068-3.307-2.482a10.011,10.011,0,0,1-3.944-7.3l-.392-5.755a17.1,17.1,0,0,1,17.494,0l-.392,5.755a10.011,10.011,0,0,1-3.944,7.3c-3.3,2.5-3.123,2.375-3.307,2.482V29.9a1.1,1.1,0,0,0-1.1-1.1Zm-13.483-5.69,1.137-4.623a17.013,17.013,0,0,1,1.485-1.371l.3,4.425a12.22,12.22,0,0,0,4.814,8.912c3.219,2.438,3.8,3.128,5.512,3.218a1.094,1.094,0,0,0,.466,0,4.393,4.393,0,0,0,2.428-.881l3.085-2.337a12.22,12.22,0,0,0,4.814-8.912l.3-4.425a17.014,17.014,0,0,1,1.51,1.4l1.1,4.455a5.817,5.817,0,0,1-2,5.915L62.1,31.832a12.487,12.487,0,0,1-15.625.057l-3.606-2.849a5.812,5.812,0,0,1-2.037-5.936ZM74.474,66.278a2.212,2.212,0,0,1-2.209,2.209h-35.9a2.212,2.212,0,0,1-2.209-2.255H70.193a1.1,1.1,0,0,0,0-2.209H34.154V42.252a2.212,2.212,0,0,1,2.209-2.209h35.9a2.212,2.212,0,0,1,2.209,2.209Z" transform="translate(-22.004 0)" fill="#2c2c3d"/>
        <path id="Trazado_635021" data-name="Trazado 635021" d="M231.419,171.183a1.1,1.1,0,1,0-1.562-1.562l-.6.6H228.5l-.6-.6a1.105,1.105,0,0,0-1.562,0l-.6.6h-.754l-.6-.6a1.1,1.1,0,0,0-1.562,1.562c.958.958,1.135,1.25,1.708,1.25,2.063,0,2.032.094,2.6-.469.568.568.548.469,2.6.469C230.287,172.434,230.467,172.135,231.419,171.183Z" transform="translate(-194.805 -145.921)" fill="#2c2c3d"/>
        <path id="Trazado_635022" data-name="Trazado 635022" d="M215.069,126.246a.555.555,0,0,1,.488-.017,1.1,1.1,0,0,0,1.458-.561c.584-1.315-1.344-2.24-3.033-1.347a.583.583,0,0,1-.5.015,1.1,1.1,0,0,0-1.4.7C211.649,126.339,213.484,127.081,215.069,126.246Z" transform="translate(-185.782 -106.85)" fill="#2c2c3d"/>
        <path id="Trazado_635023" data-name="Trazado 635023" d="M264.564,126.241a.571.571,0,0,1,.54.044,2.785,2.785,0,0,0,2.235.158,1.1,1.1,0,0,0-.7-2.1.581.581,0,0,1-.554-.043c-1.54-.815-3.589,0-2.98,1.375A1.1,1.1,0,0,0,264.564,126.241Z" transform="translate(-229.72 -106.861)" fill="#2c2c3d"/>
        <path id="Trazado_635024" data-name="Trazado 635024" d="M199.587,310.039a1.1,1.1,0,0,0,.533,2.144c6.962-1.73,11.109,7.463,5.342,11.581h-7.54a6.486,6.486,0,0,1-2.471-7.071,1.1,1.1,0,0,0-2.124-.608,8.69,8.69,0,0,0,3.117,9.334v1.374a1.1,1.1,0,0,0,2.209,0v-.819h.414v.845a1.1,1.1,0,0,0,2.209,0v-.845h.69v.845a1.1,1.1,0,0,0,2.209,0v-.845h.552v.819a1.1,1.1,0,1,0,2.209,0V325.42a8.7,8.7,0,0,0-7.352-15.38Z" transform="translate(-169.382 -267.004)" fill="#2c2c3d"/>
        <path id="Trazado_635025" data-name="Trazado 635025" d="M210.677,327.629a1.107,1.107,0,1,0-.758-1.908A1.112,1.112,0,0,0,210.677,327.629Z" transform="translate(-183.672 -280.481)" fill="#2c2c3d"/>
        <path id="Trazado_635026" data-name="Trazado 635026" d="M249.1,389a1.112,1.112,0,1,0,1.1,1.1A1.1,1.1,0,0,0,249.1,389Z" transform="translate(-216.793 -335.287)" fill="#2c2c3d"/>
        <path id="Trazado_635027" data-name="Trazado 635027" d="M220.207,357a2.209,2.209,0,1,0,2.209,2.209A2.212,2.212,0,0,0,220.207,357Z" transform="translate(-190.935 -307.706)" fill="#2c2c3d"/>
        <path id="Trazado_635028" data-name="Trazado 635028" d="M264.207,361.419A2.209,2.209,0,1,0,262,359.209,2.212,2.212,0,0,0,264.207,361.419Z" transform="translate(-228.86 -307.706)" fill="#2c2c3d"/>
      </g>
    </g>
  </g>
</svg>
