<svg xmlns="http://www.w3.org/2000/svg" width="106" height="106" viewBox="0 0 106 106">
  <g id="Grupo_949843" data-name="Grupo 949843" transform="translate(-420.833 -2618.176)">
    <rect id="Rectángulo_34429" data-name="Rectángulo 34429" width="106" height="106" transform="translate(420.833 2618.176)" fill="none"/>
    <g id="ejecutivo" transform="translate(427.215 2624.183)">
      <ellipse id="Elipse_4839" data-name="Elipse 4839" cx="12.5" cy="12" rx="12.5" ry="12" transform="translate(1.618 44.992)" fill="#adc4e6"/>
      <circle id="Elipse_4840" data-name="Elipse 4840" cx="5" cy="5" r="5" transform="translate(8.618 50.992)" fill="#ffdbac"/>
      <path id="Trazado_245546" data-name="Trazado 245546" d="M19.293,42.821A8.9,8.9,0,0,0,13.783,41C9.487,41,6,43.786,6,47.226V47.6a12.425,12.425,0,0,0,15.565,0v-.374A5.708,5.708,0,0,0,19.293,42.821Z" transform="translate(0.226 19.705)" fill="#cfcfcf"/>
      <ellipse id="Elipse_4841" data-name="Elipse 4841" cx="12.5" cy="12" rx="12.5" ry="12" transform="translate(66.618 44.992)" fill="#cfcfcf"/>
      <circle id="Elipse_4842" data-name="Elipse 4842" cx="12.5" cy="12.5" r="12.5" transform="translate(1.618 1.992)" fill="#adc4e6"/>
      <circle id="Elipse_4843" data-name="Elipse 4843" cx="12.5" cy="12.5" r="12.5" transform="translate(66.618 1.992)" fill="#ffe38f"/>
      <path id="Trazado_245547" data-name="Trazado 245547" d="M47.856,31.664l3.161-.04-.072-5.589-3.161.04a11.1,11.1,0,0,0-1.227-2.859l2.206-2.263-4-3.9-2.206,2.263a11.135,11.135,0,0,0-2.89-1.153L39.624,15l-5.589.072.04,3.161a11.1,11.1,0,0,0-2.859,1.227l-2.263-2.206-3.9,4,2.263,2.206a11.136,11.136,0,0,0-1.153,2.89l-3.16.04.072,5.589,3.161-.04A11.1,11.1,0,0,0,27.459,34.8l-2.206,2.263,4,3.9L31.463,38.7a11.135,11.135,0,0,0,2.89,1.153l.04,3.16,5.589-.072-.04-3.161A11.1,11.1,0,0,0,42.8,38.558l2.263,2.206,3.9-4L46.7,34.555a11.089,11.089,0,0,0,1.152-2.89ZM37.035,33.616a4.681,4.681,0,1,1,4.62-4.741A4.68,4.68,0,0,1,37.035,33.616Z" transform="translate(9.687 5.235)" fill="#526273"/>
      <path id="Trazado_245548" data-name="Trazado 245548" d="M40.565,47H31.226A6.226,6.226,0,0,0,25,53.226V68.791H46.791V53.226A6.226,6.226,0,0,0,40.565,47Z" transform="translate(10.8 23.044)" fill="#cfcfcf"/>
      <path id="Trazado_245549" data-name="Trazado 245549" d="M25,66.37H46.791V51.35A23.335,23.335,0,0,1,25,66.37Z" transform="translate(10.8 25.465)" fill="#bfbfbf"/>
      <path id="Trazado_245550" data-name="Trazado 245550" d="M33.113,47,30,57.9l3.113,4.67,3.113-4.67Z" transform="translate(13.583 23.044)" fill="#759acc"/>
      <path id="Trazado_245551" data-name="Trazado 245551" d="M42.565,44.783a4.947,4.947,0,0,1-.078.965,7.763,7.763,0,0,1-15.41,0A4.947,4.947,0,0,1,27,44.783a7.783,7.783,0,1,1,15.565,0Z" transform="translate(11.913 17.478)" fill="#ffdbac"/>
      <path id="Trazado_245552" data-name="Trazado 245552" d="M34.783,37A7.785,7.785,0,0,0,27,44.783a4.947,4.947,0,0,0,.078.965,9.317,9.317,0,0,1,15.41,0,4.947,4.947,0,0,0,.078-.965A7.785,7.785,0,0,0,34.783,37Z" transform="translate(11.913 17.478)" fill="#526273"/>
      <path id="Trazado_245553" data-name="Trazado 245553" d="M34.206,32.42h.082a6.334,6.334,0,1,0-.082,0ZM31.971,24a3.105,3.105,0,0,1,2.2-.943h.042a3.125,3.125,0,0,1,.039,6.249,3.047,3.047,0,0,1-2.221-.886A3.129,3.129,0,0,1,31.971,24Z" transform="translate(12.454 7.988)"/>
      <path id="Trazado_245554" data-name="Trazado 245554" d="M23.536,25.4A1.556,1.556,0,0,0,22,26.972l.072,5.588A1.566,1.566,0,0,0,23.648,34.1l2.016-.026c.131.347.279.688.439,1.023L24.7,36.535a1.558,1.558,0,0,0,.028,2.2l4,3.9a1.724,1.724,0,0,0,1.105.442,1.554,1.554,0,0,0,1.1-.47l1.406-1.443q.507.229,1.034.412l.026,2.016a1.557,1.557,0,0,0,1.557,1.536h.02l5.588-.072a1.556,1.556,0,0,0,1.536-1.577l-.026-2.016c.347-.131.688-.279,1.023-.439l1.443,1.407a1.655,1.655,0,0,0,1.107.442,1.556,1.556,0,0,0,1.1-.47l3.9-4a1.556,1.556,0,0,0-.028-2.2L49.166,34.8q.229-.507.412-1.034l2.016-.026a1.557,1.557,0,0,0,1.538-1.577l-.072-5.589a1.546,1.546,0,0,0-1.577-1.536l-2.016.026c-.131-.347-.279-.688-.439-1.023L50.436,22.6a1.558,1.558,0,0,0-.028-2.2l-4-3.9a1.629,1.629,0,0,0-1.105-.442,1.554,1.554,0,0,0-1.1.47L42.8,17.965q-.507-.229-1.034-.412l-.026-2.016a1.559,1.559,0,0,0-.47-1.1A1.5,1.5,0,0,0,40.162,14l-5.589.072a1.556,1.556,0,0,0-1.536,1.577l.026,2.016c-.347.131-.688.279-1.023.439L30.6,16.694a1.558,1.558,0,0,0-2.2.028l-3.9,4a1.556,1.556,0,0,0,.028,2.2l1.443,1.406q-.229.507-.412,1.034Zm3.2,3.071a1.556,1.556,0,0,0,1.491-1.188,9.567,9.567,0,0,1,.993-2.486,1.557,1.557,0,0,0-.265-1.89l-1.149-1.119,1.728-1.774,1.149,1.121a1.555,1.555,0,0,0,1.9.215,9.551,9.551,0,0,1,2.459-1.055,1.556,1.556,0,0,0,1.149-1.522l-.02-1.6,2.476-.033.02,1.6a1.553,1.553,0,0,0,1.188,1.491,9.567,9.567,0,0,1,2.486.993,1.559,1.559,0,0,0,1.89-.265l1.119-1.149,1.774,1.728L46,22.682a1.559,1.559,0,0,0-.215,1.9,9.551,9.551,0,0,1,1.055,2.459,1.557,1.557,0,0,0,1.5,1.149h.02l1.6-.02L50,30.642l-1.6.02a1.553,1.553,0,0,0-1.491,1.188,9.567,9.567,0,0,1-.993,2.486,1.557,1.557,0,0,0,.265,1.89l1.149,1.119L45.6,39.119,44.45,38a1.561,1.561,0,0,0-1.9-.215,9.551,9.551,0,0,1-2.459,1.055,1.556,1.556,0,0,0-1.149,1.522l.02,1.6L36.49,42l-.02-1.6A1.556,1.556,0,0,0,35.282,38.9,9.567,9.567,0,0,1,32.8,37.91a1.56,1.56,0,0,0-1.89.265l-1.119,1.149L28.013,37.6l1.121-1.149a1.559,1.559,0,0,0,.215-1.9,9.551,9.551,0,0,1-1.055-2.459,1.506,1.506,0,0,0-1.522-1.149l-1.6.02-.033-2.476Z" transform="translate(9.13 4.677)"/>
      <path id="Trazado_245555" data-name="Trazado 245555" d="M16.009,30.017A14.009,14.009,0,1,0,2,16.009,14.026,14.026,0,0,0,16.009,30.017Zm0-24.9a10.9,10.9,0,1,1-10.9,10.9A10.908,10.908,0,0,1,16.009,5.113Z" transform="translate(-2 -2)"/>
      <path id="Trazado_245556" data-name="Trazado 245556" d="M72.017,16.009A14.009,14.009,0,1,0,58.009,30.017,14.026,14.026,0,0,0,72.017,16.009ZM58.009,26.9a10.9,10.9,0,1,1,10.9-10.9A10.908,10.908,0,0,1,58.009,26.9Z" transform="translate(21.374 -2)"/>
      <path id="Trazado_245557" data-name="Trazado 245557" d="M11.557,16.9a1.45,1.45,0,0,0,.305-.031l7.783-1.557-.612-3.052L13.113,13.44V6H10v9.339A1.558,1.558,0,0,0,11.557,16.9Z" transform="translate(2.452 0.226)"/>
      <path id="Trazado_245558" data-name="Trazado 245558" d="M16.009,58.017A14.009,14.009,0,1,0,2,44.009,14.026,14.026,0,0,0,16.009,58.017Zm0-3.113a10.84,10.84,0,0,1-6.176-1.929c.258-2.4,2.914-4.3,6.176-4.3a7.315,7.315,0,0,1,4.529,1.474,4.254,4.254,0,0,1,1.648,2.822A10.835,10.835,0,0,1,16.009,54.9ZM12.9,42.452a3.113,3.113,0,1,1,3.113,3.113A3.116,3.116,0,0,1,12.9,42.452Zm3.113-9.339a10.874,10.874,0,0,1,8.7,17.421,7.912,7.912,0,0,0-2.229-2.813A9.608,9.608,0,0,0,20.615,46.6a6.226,6.226,0,1,0-9.222-.011A8.435,8.435,0,0,0,7.308,50.54a10.876,10.876,0,0,1,8.7-17.427Z" transform="translate(-2 13.583)"/>
      <path id="Trazado_245559" data-name="Trazado 245559" d="M58.009,58.017A14.009,14.009,0,1,0,44,44.009,14.026,14.026,0,0,0,58.009,58.017Zm0-24.9a10.9,10.9,0,1,1-10.9,10.9A10.908,10.908,0,0,1,58.009,33.113Z" transform="translate(21.374 13.583)"/>
      <path id="Trazado_245560" data-name="Trazado 245560" d="M48,40h3.113v3.113H48Z" transform="translate(23.6 19.148)"/>
      <path id="Trazado_245561" data-name="Trazado 245561" d="M52,38h3.113v6.226H52Z" transform="translate(25.826 18.035)"/>
      <path id="Trazado_245562" data-name="Trazado 245562" d="M56,36h3.113v9.339H56Z" transform="translate(28.052 16.922)"/>
      <path id="Trazado_245563" data-name="Trazado 245563" d="M54.67,9.67a1.559,1.559,0,0,1,1.557,1.557h3.113a4.663,4.663,0,0,0-3.113-4.383V5H53.113V6.843A4.658,4.658,0,0,0,54.67,15.9a1.557,1.557,0,1,1-1.557,1.557H50a4.663,4.663,0,0,0,3.113,4.383v1.843h3.113V21.835a4.658,4.658,0,0,0-1.557-9.053,1.557,1.557,0,1,1,0-3.113Z" transform="translate(24.713 -0.33)"/>
      <path id="Trazado_245564" data-name="Trazado 245564" d="M31,10h3.113v3.113H31Z" transform="translate(14.139 2.452)"/>
      <path id="Trazado_245565" data-name="Trazado 245565" d="M35,10h3.113v3.113H35Z" transform="translate(16.365 2.452)"/>
      <path id="Trazado_245566" data-name="Trazado 245566" d="M23,10h3.113v3.113H23Z" transform="translate(9.687 2.452)"/>
      <path id="Trazado_245567" data-name="Trazado 245567" d="M27,10h3.113v3.113H27Z" transform="translate(11.913 2.452)"/>
      <path id="Trazado_245568" data-name="Trazado 245568" d="M39,10h3.113v3.113H39Z" transform="translate(18.592 2.452)"/>
      <path id="Trazado_245569" data-name="Trazado 245569" d="M10,22h3.113v3.113H10Z" transform="translate(2.452 9.131)"/>
      <path id="Trazado_245570" data-name="Trazado 245570" d="M10,26h3.113v3.113H10Z" transform="translate(2.452 11.357)"/>
      <path id="Trazado_245571" data-name="Trazado 245571" d="M52,22h3.113v3.113H52Z" transform="translate(25.826 9.131)"/>
      <path id="Trazado_245572" data-name="Trazado 245572" d="M52,26h3.113v3.113H52Z" transform="translate(25.826 11.357)"/>
      <path id="Trazado_245573" data-name="Trazado 245573" d="M10,50h3.113v3.113H10Z" transform="translate(2.452 24.713)"/>
      <path id="Trazado_245574" data-name="Trazado 245574" d="M10,54h3.113v3.113H10Z" transform="translate(2.452 26.939)"/>
      <path id="Trazado_245575" data-name="Trazado 245575" d="M14,54h3.113v3.113H14Z" transform="translate(4.678 26.939)"/>
      <path id="Trazado_245576" data-name="Trazado 245576" d="M18,54h3.113v3.113H18Z" transform="translate(6.904 26.939)"/>
      <path id="Trazado_245577" data-name="Trazado 245577" d="M52,50h3.113v3.113H52Z" transform="translate(25.826 24.713)"/>
      <path id="Trazado_245578" data-name="Trazado 245578" d="M52,54h3.113v3.113H52Z" transform="translate(25.826 26.939)"/>
      <path id="Trazado_245579" data-name="Trazado 245579" d="M48,54h3.113v3.113H48Z" transform="translate(23.6 26.939)"/>
      <path id="Trazado_245580" data-name="Trazado 245580" d="M44,54h3.113v3.113H44Z" transform="translate(21.374 26.939)"/>
      <path id="Trazado_245581" data-name="Trazado 245581" d="M24,59.348V74.913a1.557,1.557,0,0,0,1.557,1.557H47.348A1.557,1.557,0,0,0,48.9,74.913V59.348a7.773,7.773,0,0,0-5.792-7.492,8.963,8.963,0,0,0,2.571-5.245,6.513,6.513,0,0,0,.107-1.272,9.339,9.339,0,0,0-18.678,0,5.9,5.9,0,0,0,.089,1.147,9.182,9.182,0,0,0,2.6,5.365A7.774,7.774,0,0,0,24,59.348ZM36.452,39.113a6.215,6.215,0,0,1,5.253,2.917,10.823,10.823,0,0,0-10.507,0A6.215,6.215,0,0,1,36.452,39.113Zm0,4.67a7.731,7.731,0,0,1,6.039,2.906,6.174,6.174,0,0,1-12.074-.006A7.728,7.728,0,0,1,36.452,43.783Zm1.42,19.97-1.42,2.128-1.42-2.128,1.42-4.965Zm-10.759-4.4a4.675,4.675,0,0,1,4.67-4.67h2.606l-2.546,8.911a1.561,1.561,0,0,0,.2,1.292l3.113,4.67a1.558,1.558,0,0,0,2.592,0l3.113-4.67a1.554,1.554,0,0,0,.2-1.292l-2.545-8.911h2.606a4.675,4.675,0,0,1,4.67,4.67V73.357H27.113Z" transform="translate(10.244 16.922)"/>
    </g>
  </g>
</svg>
