<svg xmlns="http://www.w3.org/2000/svg" width="106" height="106" viewBox="0 0 106 106">
  <g id="Grupo_84004" data-name="Grupo 84004" transform="translate(-420.599 -2617.599)">
    <g id="mapa-mental" transform="translate(428.86 2625.173)">
      <g id="Grupo_84002" data-name="Grupo 84002" transform="translate(1.76 1.944)">
        <path id="Trazado_245440" data-name="Trazado 245440" d="M10,130H96.584v65.466H10Z" transform="translate(-10 -109.066)" fill="#faf7f5"/>
        <path id="Trazado_245441" data-name="Trazado 245441" d="M0,0H21.165V21.165H0Z" transform="matrix(0.17, -0.985, 0.985, 0.17, 43.869, 75.752)" fill="#dfedff"/>
        <path id="Trazado_245442" data-name="Trazado 245442" d="M61,342H82.118v21.118H61Z" transform="translate(-52.025 -283.758)" fill="#a0c8ff"/>
        <path id="Trazado_245443" data-name="Trazado 245443" d="M0,0H21.165V21.165H0Z" transform="matrix(0.17, -0.985, 0.985, 0.17, 17.843, 48.826)" fill="#ffe6b4"/>
        <path id="Trazado_245444" data-name="Trazado 245444" d="M10,90H96.584v7.039H10Z" transform="translate(-10 -76.106)" fill="#9de3d1"/>
        <path id="Trazado_245445" data-name="Trazado 245445" d="M331,170h21.118v21.118H331Z" transform="translate(-274.51 -142.027)" fill="#ff9c9b"/>
        <g id="Grupo_84001" data-name="Grupo 84001" transform="translate(39.086 0)">
          <circle id="Elipse_4832" data-name="Elipse 4832" cx="3.89" cy="3.89" r="3.89" transform="translate(0)" fill="#a0c8ff"/>
          <ellipse id="Elipse_4833" data-name="Elipse 4833" cx="2.918" cy="3.89" rx="2.918" ry="3.89" transform="translate(25.285 27.23)" fill="#a0c8ff"/>
        </g>
      </g>
      <g id="Grupo_84003" data-name="Grupo 84003" transform="translate(0)">
        <ellipse id="Elipse_4834" data-name="Elipse 4834" cx="0.973" cy="1.945" rx="0.973" ry="1.945" transform="translate(87.526 64.186)"/>
        <path id="Trazado_245446" data-name="Trazado 245446" d="M88.343,14.079H63.236L50.245,4.335a5.278,5.278,0,0,0-10.386,0L26.867,14.079H1.76A1.76,1.76,0,0,0,0,15.838v72.5A1.76,1.76,0,0,0,1.76,90.1H88.343a1.76,1.76,0,0,0,1.76-1.76V74.089a1.76,1.76,0,1,0-3.52,0V86.584H3.52V24.638H86.584V58.25a1.76,1.76,0,0,0,3.52,0V15.838A1.76,1.76,0,0,0,88.343,14.079ZM45.052,3.52a1.76,1.76,0,1,1-1.76,1.76A1.762,1.762,0,0,1,45.052,3.52ZM40.629,8.157a5.273,5.273,0,0,0,8.846,0l7.9,5.922H32.733ZM3.52,21.118V17.6H86.584v3.52Z" transform="translate(0)"/>
        <path id="Trazado_245447" data-name="Trazado 245447" d="M92.76,415.52H99.8a1.76,1.76,0,1,0,0-3.52H92.76a1.76,1.76,0,1,0,0,3.52Z" transform="translate(-74.986 -339.495)"/>
        <path id="Trazado_245448" data-name="Trazado 245448" d="M92.76,375.52H99.8a1.76,1.76,0,1,0,0-3.52H92.76a1.76,1.76,0,1,0,0,3.52Z" transform="translate(-74.986 -306.534)"/>
        <path id="Trazado_245449" data-name="Trazado 245449" d="M305.731,399.849l-6.5-1.125a1.76,1.76,0,0,0-.6,3.468l6.5,1.125a1.8,1.8,0,0,0,2.034-1.434A1.76,1.76,0,0,0,305.731,399.849Z" transform="translate(-244.872 -328.534)"/>
        <path id="Trazado_245450" data-name="Trazado 245450" d="M305.948,359.884a1.76,1.76,0,1,0-.6,3.468l6.5,1.125a1.76,1.76,0,1,0,.6-3.468Z" transform="translate(-250.409 -296.529)"/>
        <path id="Trazado_245451" data-name="Trazado 245451" d="M157.1,246.737l-6.844-1.184a1.76,1.76,0,1,0-.6,3.468l6.844,1.184a1.76,1.76,0,1,0,.6-3.468Z" transform="translate(-122.118 -202.318)"/>
        <path id="Trazado_245452" data-name="Trazado 245452" d="M163.822,207.9l-6.844-1.184a1.76,1.76,0,0,0-.6,3.468l6.844,1.184a1.76,1.76,0,1,0,.6-3.468Z" transform="translate(-127.655 -170.314)"/>
        <path id="Trazado_245453" data-name="Trazado 245453" d="M112.132,184.635h9.262a1.76,1.76,0,0,0,1.76-1.76V161.757a1.76,1.76,0,0,0-1.76-1.76H100.275a1.76,1.76,0,0,0-1.76,1.76v9.715a21.472,21.472,0,0,1-12,1.879l1.329-7.688a1.76,1.76,0,0,0-1.434-2.034l-20.856-3.606a1.76,1.76,0,0,0-2.034,1.434l-3.606,20.856a1.76,1.76,0,0,0,1.434,2.034L82.2,187.953a1.8,1.8,0,0,0,2.034-1.434l1.677-9.7a23.738,23.738,0,0,0,12.6-1.534v7.589a1.76,1.76,0,0,0,1.76,1.76h8.005a8.191,8.191,0,0,1-5.4,4.265L91.6,186.948a1.76,1.76,0,0,0-2.034,1.434l-1.571,9.085c-2.247,3.47-8.692,3.789-12.356,3.531v-8.973a1.76,1.76,0,0,0-1.76-1.76H52.76a1.76,1.76,0,0,0-1.76,1.76v21.118a1.76,1.76,0,0,0,1.76,1.76H73.878a1.76,1.76,0,0,0,1.76-1.76v-8.626c3.578.182,7.7.016,11.446-1.791l-1.126,6.511a1.76,1.76,0,0,0,1.434,2.034l20.856,3.606a1.8,1.8,0,0,0,2.034-1.434l3.606-20.856a1.76,1.76,0,0,0-1.434-2.034l-3.894-.673A12.947,12.947,0,0,0,112.132,184.635Zm-31.063-.45-17.388-3.006,3.006-17.388L84.075,166.8Zm31.525-18.908a1.76,1.76,0,1,1-1.76-1.76A1.762,1.762,0,0,1,112.594,165.277Zm-10.559-1.76h3.822a5.367,5.367,0,0,0-.161,2.971,30.406,30.406,0,0,1-3.661,2.96Zm0,10.065a32.072,32.072,0,0,0,5.608-4.1,5.277,5.277,0,0,0,8.168-5.962h3.822v17.6h-17.6Zm-29.917,37.8H54.52v-17.6h17.6Zm35-.274L89.726,208.1l3.006-17.388,9.883,1.709.025,0,7.48,1.293Z" transform="translate(-42.025 -131.84)"/>
      </g>
    </g>
    <rect id="Rectángulo_34429" data-name="Rectángulo 34429" width="106" height="106" transform="translate(420.599 2617.599)" fill="none"/>
  </g>
</svg>
