<svg xmlns="http://www.w3.org/2000/svg" xmlns:xlink="http://www.w3.org/1999/xlink" width="216.016" height="148.746" viewBox="0 0 216.016 148.746">
  <defs>
    <clipPath id="clip-path">
      <rect id="Rectángulo_34489" data-name="Rectángulo 34489" width="60.813" height="88.441" fill="none"/>
    </clipPath>
    <clipPath id="clip-path-2">
      <rect id="Rectángulo_34494" data-name="Rectángulo 34494" width="86.026" height="89.124" fill="none"/>
    </clipPath>
  </defs>
  <g id="Grupo_928927" data-name="Grupo 928927" transform="translate(-142.352 -1820.648)">
    <g id="Grupo_928786" data-name="Grupo 928786" transform="translate(155.975 1832.222)">
      <g id="Grupo_928785" data-name="Grupo 928785">
        <path id="Trazado_632754" data-name="Trazado 632754" d="M171.812,1974.666a11.205,11.205,0,0,1-.132,2.571H290.59a3.2,3.2,0,0,0,1.238.27c1.183,0,2.781-.139,4.042-.27h72.97c.234-.853.451-1.706.649-2.571a48.3,48.3,0,0,0,1.069-6.643c.631-7.215-.735-15.309-5.26-21.164-4.178-5.406-11.09-7.887-15.17-13.41-3.445-4.664-4.275-10.717-4.7-16.5-1.217-16.434-.55-38.074-16.669-47.9-10.312-6.286-23.158-3.6-34.54-3.015-20.718,1.063-36.528-8.985-54.976-16.709-14.342-6-31.272-9.624-43.379,2.818-9.075,9.327-7.1,22.234-5.7,34.11.72,6.132,1.347,12.489-.194,18.552-1.35,5.309-4.514,9.339-7.356,13.905-6.384,10.253-12.408,22.089-12.408,34.625A133.87,133.87,0,0,0,171.812,1974.666Z" transform="translate(-170.202 -1843.814)" fill="#e8f0fe"/>
      </g>
    </g>
    <g id="Grupo_928810" data-name="Grupo 928810" transform="translate(187.182 1821.124)">
      <path id="Trazado_632755" data-name="Trazado 632755" d="M393.343,1828.1v88.254c0,3.849-2.578,6.957-5.751,6.957H239.755c-3.163,0-5.751-3.107-5.751-6.957V1828.1c0-3.822,2.588-6.929,5.751-6.929H387.593C390.765,1821.168,393.343,1824.275,393.343,1828.1Z" transform="translate(-234.004 -1821.146)" fill="#fff" stroke="#1a004d" stroke-miterlimit="10" stroke-width="0.952"/>
      <path id="Trazado_632756" data-name="Trazado 632756" d="M393.443,1828.063v12.664H234.1v-12.664c0-3.832,2.577-6.939,5.766-6.939H387.687C390.866,1821.124,393.443,1824.231,393.443,1828.063Z" transform="translate(-234.05 -1821.124)" fill="#583ae2" stroke="#1a004d" stroke-miterlimit="10" stroke-width="0.952"/>
      <g id="Grupo_928787" data-name="Grupo 928787" transform="translate(9.752 8.593)">
        <circle id="Elipse_5323" data-name="Elipse 5323" cx="1.535" cy="1.535" r="1.535" fill="#fff"/>
        <circle id="Elipse_5324" data-name="Elipse 5324" cx="1.535" cy="1.535" r="1.535" transform="translate(6.682)" fill="#fff"/>
        <circle id="Elipse_5325" data-name="Elipse 5325" cx="1.535" cy="1.535" r="1.535" transform="translate(13.364)" fill="#fff"/>
      </g>
      <g id="Grupo_928800" data-name="Grupo 928800" transform="translate(10.314 29.001)">
        <g id="Grupo_928789" data-name="Grupo 928789" transform="translate(0 38.482)">
          <rect id="Rectángulo_34468" data-name="Rectángulo 34468" width="70.412" height="29.411" rx="2.526" fill="#fff"/>
          <g id="Grupo_928788" data-name="Grupo 928788" transform="translate(6.728 3.845)">
            <rect id="Rectángulo_34469" data-name="Rectángulo 34469" width="57.052" height="1.77" fill="#e8f0fe"/>
            <rect id="Rectángulo_34470" data-name="Rectángulo 34470" width="57.052" height="1.77" transform="translate(0 6.111)" fill="#c7d8f9"/>
            <rect id="Rectángulo_34471" data-name="Rectángulo 34471" width="57.052" height="1.77" transform="translate(0 12.223)" fill="#e8f0fe"/>
            <rect id="Rectángulo_34472" data-name="Rectángulo 34472" width="57.052" height="1.77" transform="translate(0 18.334)" fill="#c7d8f9"/>
          </g>
        </g>
        <g id="Grupo_928790" data-name="Grupo 928790" transform="translate(53.038 3.336)">
          <rect id="Rectángulo_34473" data-name="Rectángulo 34473" width="4.819" height="11.272" transform="translate(0 11.239)" fill="#462eb4"/>
          <rect id="Rectángulo_34474" data-name="Rectángulo 34474" width="4.819" height="20.22" transform="translate(9.133 2.291)" fill="#31344c"/>
          <rect id="Rectángulo_34475" data-name="Rectángulo 34475" width="4.819" height="22.511" transform="translate(18.266)" fill="#462eb4"/>
          <rect id="Rectángulo_34476" data-name="Rectángulo 34476" width="4.819" height="14.545" transform="translate(27.399 7.966)" fill="#31344c"/>
        </g>
        <g id="Grupo_928793" data-name="Grupo 928793" transform="translate(75.615 38.482)">
          <rect id="Rectángulo_34477" data-name="Rectángulo 34477" width="65.777" height="29.411" rx="2.442" fill="#e8f0fe"/>
          <rect id="Rectángulo_34478" data-name="Rectángulo 34478" width="57.296" height="1.031" rx="0.515" transform="translate(4.241 25.477)" fill="#c7d8f9"/>
          <g id="Grupo_928791" data-name="Grupo 928791" transform="translate(5.82 6.525)">
            <path id="Trazado_632757" data-name="Trazado 632757" d="M423.467,1985.875c1.15-2.073,5.291-5.325,7.218-5.37,3.455-.081,4.936,4.534,8.551,4.549,4.534.019,6.348-8.777,11.341-8.877,4.154-.083,6.3,5.938,10.114,5.782,4.667-.19,5.555-9.372,10.115-9.528,1.949-.067,3.736,1.544,4.9,2.85" transform="translate(-422.542 -1972.429)" fill="none" stroke="#9fbff4" stroke-miterlimit="10" stroke-width="1.384"/>
            <circle id="Elipse_5326" data-name="Elipse 5326" cx="0.924" cy="0.924" r="0.924" transform="translate(52.356 2.162)" fill="#dd5e57"/>
            <circle id="Elipse_5327" data-name="Elipse 5327" cx="0.924" cy="0.924" r="0.924" transform="translate(0 12.522)" fill="#dd5e57"/>
          </g>
          <g id="Grupo_928792" data-name="Grupo 928792" transform="translate(4.331 3.224)">
            <rect id="Rectángulo_34479" data-name="Rectángulo 34479" width="13.264" height="0.671" rx="0.336" fill="#c7d8f9"/>
            <rect id="Rectángulo_34480" data-name="Rectángulo 34480" width="13.264" height="0.671" rx="0.336" transform="translate(0 2.716)" fill="#c7d8f9"/>
          </g>
        </g>
        <g id="Grupo_928799" data-name="Grupo 928799" transform="translate(95.183)">
          <rect id="Rectángulo_34481" data-name="Rectángulo 34481" width="45.159" height="29.17" rx="3.775" fill="#e8f0fe"/>
          <g id="Grupo_928798" data-name="Grupo 928798" transform="translate(3.199 3.721)">
            <g id="Grupo_928796" data-name="Grupo 928796">
              <g id="Grupo_928795" data-name="Grupo 928795">
                <g id="Grupo_928794" data-name="Grupo 928794">
                  <path id="Trazado_632758" data-name="Trazado 632758" d="M480.56,1921.167a10.24,10.24,0,0,0,6.7-7.9l-10.091-1.76Z" transform="translate(-466.922 -1900.018)" fill="#1a004d"/>
                  <path id="Trazado_632759" data-name="Trazado 632759" d="M486.945,1891.024a10.226,10.226,0,0,0-7.243-3v10.244l10.091,1.76A10.233,10.233,0,0,0,486.945,1891.024Z" transform="translate(-468.218 -1888.023)" fill="#c7d8f9"/>
                  <path id="Trazado_632760" data-name="Trazado 632760" d="M459.224,1908.047a10.243,10.243,0,0,1,7.242-17.486V1900.8l3.394,9.665A10.24,10.24,0,0,1,459.224,1908.047Z" transform="translate(-456.224 -1889.319)" fill="#e9a431"/>
                </g>
              </g>
            </g>
            <g id="Grupo_928797" data-name="Grupo 928797" transform="translate(24.268 2.396)">
              <rect id="Rectángulo_34482" data-name="Rectángulo 34482" width="14.494" height="1.449" rx="0.725" fill="#fff"/>
              <rect id="Rectángulo_34483" data-name="Rectángulo 34483" width="14.494" height="1.449" rx="0.725" transform="translate(0 5.162)" fill="#fff"/>
              <rect id="Rectángulo_34484" data-name="Rectángulo 34484" width="14.494" height="1.449" rx="0.725" transform="translate(0 10.324)" fill="#fff"/>
              <rect id="Rectángulo_34485" data-name="Rectángulo 34485" width="10.794" height="1.449" rx="0.725" transform="translate(0 15.485)" fill="#fff"/>
            </g>
          </g>
        </g>
      </g>
      <g id="Grupo_928809" data-name="Grupo 928809" transform="translate(9.083 24.748)">
        <rect id="Rectángulo_34486" data-name="Rectángulo 34486" width="43.508" height="38.939" fill="#e8f0fe"/>
        <g id="Grupo_928808" data-name="Grupo 928808" transform="translate(8.808 3.243)">
          <g id="Grupo_928804" data-name="Grupo 928804" transform="translate(0.305)">
            <g id="Grupo_928801" data-name="Grupo 928801">
              <path id="Trazado_632761" data-name="Trazado 632761" d="M283.347,1878.351v5.39a6.752,6.752,0,0,0-6.752,6.752H271.2A12.143,12.143,0,0,1,283.347,1878.351Z" transform="translate(-271.202 -1878.351)" fill="#c7d8f9"/>
            </g>
            <g id="Grupo_928802" data-name="Grupo 928802" transform="translate(0 12.142)">
              <path id="Trazado_632762" data-name="Trazado 632762" d="M291.9,1911.795a12.144,12.144,0,0,1-20.7-8.62H276.6a6.749,6.749,0,0,0,11.494,4.806Z" transform="translate(-271.202 -1903.175)" fill="#1a004d"/>
            </g>
            <g id="Grupo_928803" data-name="Grupo 928803" transform="translate(12.145)">
              <path id="Trazado_632763" data-name="Trazado 632763" d="M308.178,1890.493a12.093,12.093,0,0,1-3.591,8.62l-3.813-3.813a6.752,6.752,0,0,0-4.742-11.558v-5.39A12.143,12.143,0,0,1,308.178,1890.493Z" transform="translate(-296.032 -1878.351)" fill="#dd5e57"/>
            </g>
          </g>
          <g id="Grupo_928807" data-name="Grupo 928807" transform="translate(0 27.096)">
            <g id="Grupo_928805" data-name="Grupo 928805">
              <rect id="Rectángulo_34487" data-name="Rectángulo 34487" width="24.9" height="0.854" fill="#c7d8f9"/>
            </g>
            <g id="Grupo_928806" data-name="Grupo 928806" transform="translate(0 3.662)">
              <rect id="Rectángulo_34488" data-name="Rectángulo 34488" width="24.9" height="0.854" fill="#c7d8f9"/>
            </g>
          </g>
        </g>
      </g>
    </g>
    <g id="Grupo_928902" data-name="Grupo 928902" transform="translate(142.352 1877.4)">
      <g id="Grupo_928901" data-name="Grupo 928901" clip-path="url(#clip-path)">
        <g id="Grupo_928900" data-name="Grupo 928900" transform="translate(-11.523 4.891)">
          <g id="Grupo_928812" data-name="Grupo 928812" transform="translate(21.527)">
            <g id="Grupo_928811" data-name="Grupo 928811">
              <path id="Trazado_632764" data-name="Trazado 632764" d="M177.854,1946.3s-9.431-1.613-10.61,6.763-4.438,23.611-4.438,23.611l23.612,7.289s4.619-32.477-3.771-34.729" transform="translate(-162.805 -1946.175)" fill="#1a004d"/>
            </g>
          </g>
          <g id="Grupo_928834" data-name="Grupo 928834" transform="translate(27.318 0.151)">
            <g id="Grupo_928815" data-name="Grupo 928815" transform="translate(3.508 16.187)">
              <g id="Grupo_928814" data-name="Grupo 928814">
                <g id="Grupo_928813" data-name="Grupo 928813">
                  <path id="Trazado_632765" data-name="Trazado 632765" d="M181.815,1979.577V1994.5h8.2v-13.432Z" transform="translate(-181.815 -1979.577)" fill="#efc0c1"/>
                </g>
              </g>
            </g>
            <g id="Grupo_928817" data-name="Grupo 928817" transform="translate(3.508 17.215)" opacity="0.5" style="mix-blend-mode: multiply;isolation: isolate">
              <g id="Grupo_928816" data-name="Grupo 928816">
                <path id="Trazado_632766" data-name="Trazado 632766" d="M181.815,1981.679v2.794c1.6.544,4.253,3.22,5.553,3.195a3.829,3.829,0,0,0,2.643-1.1v-3.189l-5.965-1.23Z" transform="translate(-181.815 -1981.679)" fill="#d7cfbb"/>
              </g>
            </g>
            <g id="Grupo_928819" data-name="Grupo 928819">
              <g id="Grupo_928818" data-name="Grupo 928818">
                <path id="Trazado_632767" data-name="Trazado 632767" d="M174.643,1956.182c0,5.356,6.375,12.095,10.852,12.037,3.373-.043,5.361-6.681,5.361-12.037s-3.629-9.7-8.107-9.7S174.643,1950.826,174.643,1956.182Z" transform="translate(-174.643 -1946.484)" fill="#efc0c1"/>
              </g>
            </g>
            <g id="Grupo_928833" data-name="Grupo 928833" transform="translate(7.263 10.495)">
              <g id="Grupo_928828" data-name="Grupo 928828">
                <g id="Grupo_928821" data-name="Grupo 928821" transform="translate(6.494 1.007)">
                  <g id="Grupo_928820" data-name="Grupo 928820">
                    <ellipse id="Elipse_5328" data-name="Elipse 5328" cx="0.494" cy="0.884" rx="0.494" ry="0.884" fill="#1a004d"/>
                  </g>
                </g>
                <g id="Grupo_928823" data-name="Grupo 928823" transform="translate(0.638 1.007)">
                  <g id="Grupo_928822" data-name="Grupo 928822">
                    <ellipse id="Elipse_5329" data-name="Elipse 5329" cx="0.494" cy="0.884" rx="0.494" ry="0.884" fill="#1a004d"/>
                  </g>
                </g>
                <g id="Grupo_928825" data-name="Grupo 928825" transform="translate(5.857)">
                  <g id="Grupo_928824" data-name="Grupo 928824">
                    <path id="Trazado_632768" data-name="Trazado 632768" d="M203.631,1968.447a.1.1,0,0,1-.05-.014,2.713,2.713,0,0,0-1.908-.213.791.791,0,0,1-.108.017.1.1,0,0,1,0-.2c.013,0,.037-.006.072-.013a2.9,2.9,0,0,1,2.048.237.1.1,0,0,1-.051.182Z" transform="translate(-201.466 -1967.941)" fill="#1a004d"/>
                  </g>
                </g>
                <g id="Grupo_928827" data-name="Grupo 928827" transform="translate(0 0)">
                  <g id="Grupo_928826" data-name="Grupo 928826">
                    <path id="Trazado_632769" data-name="Trazado 632769" d="M191.657,1968.447a.1.1,0,0,1-.05-.014,2.713,2.713,0,0,0-1.908-.213.785.785,0,0,1-.109.017.1.1,0,0,1,0-.2c.013,0,.038-.006.072-.013a2.9,2.9,0,0,1,2.048.237.1.1,0,0,1-.051.182Z" transform="translate(-189.492 -1967.941)" fill="#1a004d"/>
                  </g>
                </g>
              </g>
              <g id="Grupo_928830" data-name="Grupo 928830" transform="translate(3.988 3.122)" style="mix-blend-mode: multiply;isolation: isolate">
                <g id="Grupo_928829" data-name="Grupo 928829">
                  <path id="Trazado_632770" data-name="Trazado 632770" d="M197.725,1976.752a.079.079,0,0,1-.037-.15c.133-.07.481-.3.5-.542a8.788,8.788,0,0,0-.4-1.633.08.08,0,0,1,.051-.1.08.08,0,0,1,.1.051,9.235,9.235,0,0,1,.408,1.692c-.025.377-.559.66-.582.672A.08.08,0,0,1,197.725,1976.752Z" transform="translate(-197.645 -1974.324)" fill="#f4af9f"/>
                </g>
              </g>
              <g id="Grupo_928832" data-name="Grupo 928832" transform="translate(2.577 7.167)">
                <g id="Grupo_928831" data-name="Grupo 928831">
                  <path id="Trazado_632771" data-name="Trazado 632771" d="M196.2,1983.218a3.415,3.415,0,0,1-1.383-.328.1.1,0,0,1-.044-.131.1.1,0,0,1,.132-.044c.015.007,1.506.736,2.429-.1a.1.1,0,1,1,.132.146A1.836,1.836,0,0,1,196.2,1983.218Z" transform="translate(-194.759 -1982.593)" fill="#1a004d"/>
                </g>
              </g>
            </g>
          </g>
          <g id="Grupo_928857" data-name="Grupo 928857" transform="translate(0 71.833)">
            <g id="Grupo_928836" data-name="Grupo 928836" transform="translate(23.98 1.91)">
              <g id="Grupo_928835" data-name="Grupo 928835">
                <path id="Trazado_632772" data-name="Trazado 632772" d="M167.835,2124.5c-.239,15.273,2.168,27.694,5.376,27.744s6-12.29,6.239-27.563-2.168-27.694-5.375-27.745S168.074,2109.227,167.835,2124.5Z" transform="translate(-167.819 -2096.937)" fill="#efc0c1"/>
              </g>
            </g>
            <g id="Grupo_928838" data-name="Grupo 928838" transform="translate(41.401 1.469)">
              <g id="Grupo_928837" data-name="Grupo 928837">
                <path id="Trazado_632773" data-name="Trazado 632773" d="M204.021,2124.13c1.472,15.2,5.255,27.278,8.447,26.969s4.588-12.885,3.115-28.088-5.255-27.278-8.447-26.969S202.548,2108.927,204.021,2124.13Z" transform="translate(-203.434 -2096.036)" fill="#efc0c1"/>
              </g>
            </g>
            <g id="Grupo_928841" data-name="Grupo 928841" transform="translate(4.798 51.755)">
              <g id="Grupo_928840" data-name="Grupo 928840">
                <g id="Grupo_928839" data-name="Grupo 928839">
                  <path id="Trazado_632774" data-name="Trazado 632774" d="M155.34,2199.835c-5.39-8.469-23.931,39.667-26.25,50.148s3.954,1.2,12.473-13.449S157.461,2203.167,155.34,2199.835Z" transform="translate(-128.604 -2198.841)" fill="#efc0c1"/>
                </g>
              </g>
            </g>
            <g id="Grupo_928844" data-name="Grupo 928844" transform="translate(39.375 51.472)">
              <g id="Grupo_928843" data-name="Grupo 928843">
                <g id="Grupo_928842" data-name="Grupo 928842">
                  <path id="Trazado_632775" data-name="Trazado 632775" d="M211.579,2198.8c-7.822-6.292-13.294,44.987-12.129,55.658s4.13-.131,7.5-16.739S214.657,2201.272,211.579,2198.8Z" transform="translate(-199.294 -2198.263)" fill="#efc0c1"/>
                </g>
              </g>
            </g>
            <g id="Grupo_928846" data-name="Grupo 928846" transform="translate(2.486 0.627)">
              <g id="Grupo_928845" data-name="Grupo 928845">
                <path id="Trazado_632776" data-name="Trazado 632776" d="M158.064,2121.193s.56,21.244-2.243,28.812-23.734,51.09-23.734,51.09l-8.21-3.481s13.2-40.662,22.309-50.892c0,0-7.88-50.525,5.011-52.366C160.026,2093.094,158.064,2121.193,158.064,2121.193Z" transform="translate(-123.877 -2094.314)" fill="#efc0c1"/>
              </g>
            </g>
            <g id="Grupo_928848" data-name="Grupo 928848" transform="translate(35.955)">
              <g id="Grupo_928847" data-name="Grupo 928847">
                <path id="Trazado_632777" data-name="Trazado 632777" d="M210.164,2115.446s2.149,22.05,1.308,31.206-10.5,57.611-10.5,57.611l-8.67-1.524s2.459-36,7.692-54.784c0,0-10.517-52.318,1.388-54.84C209.323,2091.435,210.164,2115.446,210.164,2115.446Z" transform="translate(-192.302 -2093.032)" fill="#efc0c1"/>
              </g>
            </g>
            <g id="Grupo_928850" data-name="Grupo 928850" transform="translate(35.922 109.708)">
              <g id="Grupo_928849" data-name="Grupo 928849">
                <path id="Trazado_632778" data-name="Trazado 632778" d="M192.267,2317.321l-.033,3.084,8.225,3.847,6.235-1.061-3.332-1.564s-2.173-1.288-2.339-2.615S192.267,2317.321,192.267,2317.321Z" transform="translate(-192.234 -2317.321)" fill="#efc0c1"/>
              </g>
            </g>
            <g id="Grupo_928852" data-name="Grupo 928852" transform="translate(34.912 110.727)">
              <g id="Grupo_928851" data-name="Grupo 928851">
                <path id="Trazado_632779" data-name="Trazado 632779" d="M191.138,2319.406s5.918,6.609,11.168,3.286c0,0,7.3,1.973,7.046,4.217s-5.245,1.088-5.245,1.088l-13.765-1.776A12.225,12.225,0,0,1,191.138,2319.406Z" transform="translate(-190.17 -2319.406)" fill="#1a004d"/>
              </g>
            </g>
            <g id="Grupo_928854" data-name="Grupo 928854" transform="translate(1.81 103.927)">
              <g id="Grupo_928853" data-name="Grupo 928853">
                <path id="Trazado_632780" data-name="Trazado 632780" d="M123.171,2305.5l-.676,3.009,7.241,5.478,6.319.263-2.932-2.225s-1.857-1.713-1.742-3.045S123.171,2305.5,123.171,2305.5Z" transform="translate(-122.495 -2305.503)" fill="#efc0c1"/>
              </g>
            </g>
            <g id="Grupo_928856" data-name="Grupo 928856" transform="translate(0 104.909)">
              <g id="Grupo_928855" data-name="Grupo 928855">
                <path id="Trazado_632781" data-name="Trazado 632781" d="M120.995,2307.51s4.409,7.7,10.237,5.544c0,0,6.731,3.454,6.011,5.595s-5.357-.031-5.357-.031l-13.092-4.609A12.229,12.229,0,0,1,120.995,2307.51Z" transform="translate(-118.794 -2307.51)" fill="#1a004d"/>
              </g>
            </g>
          </g>
          <g id="Grupo_928859" data-name="Grupo 928859" transform="translate(43.602 32.596)">
            <g id="Grupo_928858" data-name="Grupo 928858">
              <path id="Trazado_632782" data-name="Trazado 632782" d="M208.968,2013.191c-4.078,3.4,5.013,29.336,8.26,27.506C223.274,2040.4,216.61,2009.056,208.968,2013.191Z" transform="translate(-207.935 -2012.815)" fill="#efc0c1"/>
            </g>
          </g>
          <g id="Grupo_928863" data-name="Grupo 928863" transform="translate(50.972 35.158)">
            <g id="Grupo_928862" data-name="Grupo 928862">
              <g id="Grupo_928861" data-name="Grupo 928861">
                <g id="Grupo_928860" data-name="Grupo 928860">
                  <path id="Trazado_632783" data-name="Trazado 632783" d="M225.671,2043.523c5.056-1.531,14.486-24.244,13.155-25.346C237.621,2015.928,215.5,2044.785,225.671,2043.523Z" transform="translate(-223.003 -2018.052)" fill="#efc0c1"/>
                </g>
              </g>
            </g>
          </g>
          <g id="Grupo_928865" data-name="Grupo 928865" transform="translate(44.611 41.587)">
            <g id="Grupo_928864" data-name="Grupo 928864">
              <path id="Trazado_632784" data-name="Trazado 632784" d="M218.5,2031.2l.051.127,2.249,5.557,4.122-4.339,2.43,6.161s-5.25,12.149-9.329,11.715S210,2034.972,210,2034.972Z" transform="translate(-209.998 -2031.197)" fill="#efc0c1"/>
            </g>
          </g>
          <g id="Grupo_928867" data-name="Grupo 928867" transform="translate(54.101 26.696)">
            <g id="Grupo_928866" data-name="Grupo 928866">
              <path id="Trazado_632785" data-name="Trazado 632785" d="M237.259,2001.014,229.4,2018.14l9.5.082,7.734-17.47Z" transform="translate(-229.399 -2000.752)" fill="#1a004d"/>
            </g>
          </g>
          <g id="Grupo_928869" data-name="Grupo 928869" transform="translate(62.21 34.685)">
            <g id="Grupo_928868" data-name="Grupo 928868">
              <path id="Trazado_632786" data-name="Trazado 632786" d="M251.664,2017.965a.931.931,0,0,0-.882-.861c-1.45-.07-4.4,0-4.753,1.716-.476,2.284,2.533,4.293,3.8,3.141A6.344,6.344,0,0,0,251.664,2017.965Z" transform="translate(-245.977 -2017.086)" fill="#efc0c1"/>
            </g>
          </g>
          <g id="Grupo_928871" data-name="Grupo 928871" transform="translate(39.895 26.328)">
            <g id="Grupo_928870" data-name="Grupo 928870">
              <path id="Trazado_632787" data-name="Trazado 632787" d="M202.771,2013.928c.46,1.186,1.217,3.217,2.186,5.614l9.377-4.146c-.148-.37-6.438-17.529-11.287-15.174S201.03,2009.424,202.771,2013.928Z" transform="translate(-200.356 -2000)" fill="#1c954d"/>
            </g>
          </g>
          <g id="Grupo_928873" data-name="Grupo 928873" transform="translate(80.049 35.856)">
            <g id="Grupo_928872" data-name="Grupo 928872">
              <path id="Trazado_632788" data-name="Trazado 632788" d="M282.447,2019.479" transform="translate(-282.447 -2019.479)" fill="none" stroke="#293e9e" stroke-miterlimit="10" stroke-width="1.235"/>
            </g>
          </g>
          <g id="Grupo_928875" data-name="Grupo 928875" transform="translate(79.902 36.091)">
            <g id="Grupo_928874" data-name="Grupo 928874">
              <path id="Trazado_632789" data-name="Trazado 632789" d="M282.148,2019.961" transform="translate(-282.148 -2019.961)" fill="none" stroke="#293e9e" stroke-miterlimit="10" stroke-width="1.235"/>
            </g>
          </g>
          <g id="Grupo_928877" data-name="Grupo 928877" transform="translate(21.652 23.289)">
            <g id="Grupo_928876" data-name="Grupo 928876">
              <path id="Trazado_632790" data-name="Trazado 632790" d="M163.395,2007.245v.01c.293,3.006.722,6.275,1.1,9.379.371,2.976.693,5.8.82,8.1.068,1.142.107,2.215.127,3.2a62.614,62.614,0,0,1-.264,8.686,28.734,28.734,0,0,0,4.968,1.142,51.174,51.174,0,0,0,6.412.536,99.376,99.376,0,0,0,15.956-.976,84.363,84.363,0,0,1-1.278-9.242c-.693-6.763,2.791-7.573,2.791-13.946,0-5.377-4.352-14.014-7.71-17.712-.986-1.093-2.439-2.011-5.914-2.538,0,0,.2,2.3-.849,2.889-2.245,1.288-7.359-2.986-7.359-2.986s-8.256,1.278-8.87,4.362A34.948,34.948,0,0,0,163.395,2007.245Z" transform="translate(-163.06 -1993.788)" fill="#25c766"/>
            </g>
          </g>
          <g id="Grupo_928879" data-name="Grupo 928879" transform="translate(26.51 41.539)">
            <g id="Grupo_928878" data-name="Grupo 928878">
              <path id="Trazado_632791" data-name="Trazado 632791" d="M176.619,2031.1s.276,8.84.643,8.886,9.139-6.429,9.139-6.429-6.108,9.414-6.292,9.506-7.072,3.031-7.118,2.847S176.619,2031.1,176.619,2031.1Z" transform="translate(-172.991 -2031.098)" fill="#1c954d"/>
            </g>
          </g>
          <g id="Grupo_928881" data-name="Grupo 928881" transform="translate(23.773 47.813)">
            <g id="Grupo_928880" data-name="Grupo 928880">
              <path id="Trazado_632792" data-name="Trazado 632792" d="M167.4,2062.233a28.734,28.734,0,0,0,4.968,1.142c5.9-6.031,13.779-18.972,14.063-19.45-.449.3-14.736,10.062-15.009,10.394-.176.224-2.254-.332-3.758-.771A62.609,62.609,0,0,1,167.4,2062.233Z" transform="translate(-167.396 -2043.925)" fill="#1c954d"/>
            </g>
          </g>
          <g id="Grupo_928884" data-name="Grupo 928884" transform="translate(26.747 0.063)">
            <g id="Grupo_928883" data-name="Grupo 928883">
              <g id="Grupo_928882" data-name="Grupo 928882">
                <path id="Trazado_632793" data-name="Trazado 632793" d="M188.156,1952.27a10.3,10.3,0,0,1-3.072,2.391,36.288,36.288,0,0,1-3.994,1.927c-3.968,1.455-3.535,7.338-3.535,7.338s-6.634-4.338-2.982-12.943c2.943-6.937,12.753-4.975,13.524-1.682,0,0,3.145,1.381,2.219,5.548C190.316,1954.848,189.875,1952.7,188.156,1952.27Z" transform="translate(-173.476 -1946.304)" fill="#1a004d"/>
              </g>
            </g>
          </g>
          <g id="Grupo_928886" data-name="Grupo 928886" transform="translate(3.815 66.122)">
            <g id="Grupo_928885" data-name="Grupo 928885">
              <path id="Trazado_632794" data-name="Trazado 632794" d="M173.89,2082.062s7.673,41.7,5.894,56.15-11.454,56.445-11.454,56.445l-9.348-2.027,5.046-52.74-3.459-31.939s1.208,26.928-.792,32.929-24.167,49.6-24.167,49.6l-9.017-4.137,17.156-49.453s1.065-13.823.9-27.926c-.144-12.292-2.431-20.46,1.907-27.605" transform="translate(-126.594 -2081.357)" fill="#1a004d"/>
            </g>
          </g>
          <g id="Grupo_928888" data-name="Grupo 928888" transform="translate(21.25 26.481)">
            <g id="Grupo_928887" data-name="Grupo 928887">
              <path id="Trazado_632795" data-name="Trazado 632795" d="M165.469,2000.556a3.994,3.994,0,0,0-2.344,3.488c-.426,6.715-2.685,33.563,2.239,34.156,5.788.7,6.127-23.673,5.321-29.447C170.013,2003.94,168.837,1999.176,165.469,2000.556Z" transform="translate(-162.238 -2000.314)" fill="#efc0c1"/>
            </g>
          </g>
          <g id="Grupo_928890" data-name="Grupo 928890" transform="translate(20.043 39.902)">
            <g id="Grupo_928889" data-name="Grupo 928889">
              <path id="Trazado_632796" data-name="Trazado 632796" d="M159.8,2029.114s-.63,24.234,3.891,23.948,7.21-3.834,13.79-11.33a126.033,126.033,0,0,0,8.7-10.644l-.9-3.336-15.891,12.577.458-10.5S159.943,2029.085,159.8,2029.114Z" transform="translate(-159.77 -2027.752)" fill="#efc0c1"/>
            </g>
          </g>
          <g id="Grupo_928895" data-name="Grupo 928895" transform="translate(22.431 39.449)">
            <g id="Grupo_928894" data-name="Grupo 928894">
              <g id="Grupo_928893" data-name="Grupo 928893">
                <g id="Grupo_928892" data-name="Grupo 928892">
                  <g id="Grupo_928891" data-name="Grupo 928891">
                    <path id="Trazado_632797" data-name="Trazado 632797" d="M166.728,2051.766a4.2,4.2,0,0,0,3.922-1.206c4.829-4.768,20.419-20.734,19.516-23.525-.835-2.579-25.809,19.4-25.511,21.184C164.877,2049.56,164.807,2051.275,166.728,2051.766Z" transform="translate(-164.652 -2026.825)" fill="#efc0c1"/>
                  </g>
                </g>
              </g>
            </g>
          </g>
          <g id="Grupo_928897" data-name="Grupo 928897" transform="translate(45.548 37.335)">
            <g id="Grupo_928896" data-name="Grupo 928896">
              <path id="Trazado_632798" data-name="Trazado 632798" d="M218.551,2024.395c-.2,1.063.74,2.274-1.084,3.648s-5.369.323-5.369.323l-.183-3.3a3.559,3.559,0,0,0,1.094-.781,5.013,5.013,0,0,1,3.7-1.786c2,0,4.959.4,5.065,1.036S218.711,2023.561,218.551,2024.395Z" transform="translate(-211.914 -2022.504)" fill="#efc0c1"/>
            </g>
          </g>
          <g id="Grupo_928899" data-name="Grupo 928899" transform="translate(19.836 24.778)">
            <g id="Grupo_928898" data-name="Grupo 928898">
              <path id="Trazado_632799" data-name="Trazado 632799" d="M159.348,2013.951l10.849.4c.123-1.922.792-17.517-5.086-17.523C159.779,1996.831,159.395,2008.413,159.348,2013.951Z" transform="translate(-159.348 -1996.831)" fill="#25c766"/>
            </g>
          </g>
        </g>
      </g>
    </g>
    <rect id="Rectángulo_34490" data-name="Rectángulo 34490" width="206.625" height="2.116" transform="translate(148.818 1965.091)" fill="#1a004d"/>
    <g id="Grupo_928912" data-name="Grupo 928912" transform="translate(186.552 1894.485)">
      <path id="Trazado_632800" data-name="Trazado 632800" d="M327,2032.915c7.32.292,20.359,37.816,15.265,38.541C335.4,2076.215,315.154,2034.811,327,2032.915Z" transform="translate(-279.02 -2002.682)" fill="#ffc8c5"/>
      <path id="Trazado_632801" data-name="Trazado 632801" d="M329.612,2029.869l.066,9.219.138,18.191s.146.233.4.656c.066.1.131.218.211.342.233.372.524.845.859,1.4l4.122-2.774,7.843-5.28a137.179,137.179,0,0,0-5.556-12.912C333.792,2031.442,329.612,2029.869,329.612,2029.869Z" transform="translate(-282.217 -2001.126)" fill="#516cdd"/>
      <path id="Trazado_632802" data-name="Trazado 632802" d="M329.746,2045.317l.138,18.191s.146.233.4.656c.066.1.131.211.211.342.233.372.524.845.859,1.4l4.122-2.775c-.146-5.127-.066-7.406,0-11.389a45.073,45.073,0,0,0-1.3-9.679S331.945,2043.693,329.746,2045.317Z" transform="translate(-282.285 -2007.355)" fill="#e6edfc" style="mix-blend-mode: multiply;isolation: isolate"/>
      <g id="Grupo_928904" data-name="Grupo 928904" transform="translate(27.285)">
        <path id="Trazado_632803" data-name="Trazado 632803" d="M292.083,2020.1l6,4.5,4.277-3.816v-5.753l-8.554-6.709-.151,1.026-.446,3.059Z" transform="translate(-290.329 -1990.118)" fill="#ffc8c5"/>
        <path id="Trazado_632804" data-name="Trazado 632804" d="M295.048,2011.474c2.343,4.653,7.764,6.941,8.826,7.266v-1.207l-7.974-7.07a6.827,6.827,0,0,0-.731-.044Z" transform="translate(-291.844 -1991.189)" fill="#ffc8c5" opacity="0.5" style="mix-blend-mode: multiply;isolation: isolate"/>
        <g id="Grupo_928903" data-name="Grupo 928903">
          <path id="Trazado_632805" data-name="Trazado 632805" d="M292.255,1995.957a12.077,12.077,0,0,0,5.272,5.333c1.731.844,3.692,1.987,5.692,1.594,1.766-.347,2.7-2.1,3.451-3.56a10.08,10.08,0,0,0,1.077-4.611,23.452,23.452,0,0,1,.283-5.078c.293-1.336.721-3.007-.079-4.254-1.036-1.616-9.113-3.627-9.113-3.627l-4.754,2.621-3.6,2.377Z" transform="translate(-289.514 -1976.546)" fill="#ffc8c5"/>
          <path id="Trazado_632806" data-name="Trazado 632806" d="M302.119,1980.185a2.765,2.765,0,0,1-1.615,1.89,6.755,6.755,0,0,0,4.145-.853s-.732,1.127-1.341,1.31c0,0,3.231.152,4.267-1.036l-.366,2.042a6.651,6.651,0,0,0,1.859-4.176,15.74,15.74,0,0,0-1.248-4.622,4.341,4.341,0,0,0-1.776-2.63c-2.59-1.379-5.736-1.147-8.488-.443a15.613,15.613,0,0,0-6.211,2.793c-4.677,3.893-2.87,12.491.268,16.8,0,0,.388-3.943.449-5.161s1.158-1.524,1.128-.945.063,3.426.673,3.4.846-5.008,2.309-6.045S300.93,1981.16,302.119,1980.185Z" transform="translate(-288.498 -1971.105)" fill="#1a004d"/>
        </g>
      </g>
      <path id="Trazado_632807" data-name="Trazado 632807" d="M254.855,2070.343h39.969c1.012-12.464,2.358-31.874,1.258-35.9-1.261-4.63-3.738-6.515-7.522-7.326a52.078,52.078,0,0,0-5.226-.623c-1.166,6.357-9.918.127-9.918.127s-2.1.208-3.612.3c-3.546.219-9.645,1.373-10.868,6.63-.592,2.542-1.292,9.176-2.038,16.679-.415,4.238-.846,8.757-1.277,12.976C255.363,2065.735,255.109,2068.155,254.855,2070.343Z" transform="translate(-244.026 -1999.401)" fill="#516cdd"/>
      <line id="Línea_187" data-name="Línea 187" x2="0.623" y2="40.181" transform="translate(37.566 29.644)" fill="none" stroke="#31374c" stroke-miterlimit="10" stroke-width="0.324"/>
      <ellipse id="Elipse_5330" data-name="Elipse 5330" cx="0.515" cy="0.56" rx="0.515" ry="0.56" transform="translate(35.814 33.801)" fill="#1a004d"/>
      <ellipse id="Elipse_5331" data-name="Elipse 5331" cx="0.515" cy="0.56" rx="0.515" ry="0.56" transform="translate(38.659 33.644)" fill="#1a004d"/>
      <path id="Trazado_632808" data-name="Trazado 632808" d="M311.278,2025.214l-1.763,3.178,1.43,2.006,1.861-4.472" transform="translate(-271.95 -1998.748)" fill="#fff"/>
      <path id="Trazado_632809" data-name="Trazado 632809" d="M299.6,2027.376l-7.91-4.15-1.58,1.962,7.873,4.149Z" transform="translate(-262.039 -1997.732)" fill="#fff"/>
      <path id="Trazado_632810" data-name="Trazado 632810" d="M260.981,2056.691s-5.477,15.337-6.094,17.188-.274,3.358,2.467,4.523-4.318,3.29-4.455,2.878-9.253-8.362-8.7-8.842S260.981,2056.691,260.981,2056.691Z" transform="translate(-238.568 -2014.828)" fill="#e6edfc" style="mix-blend-mode: multiply;isolation: isolate"/>
      <path id="Trazado_632811" data-name="Trazado 632811" d="M253.314,2035.193c4.881,5.464-13.018,40.928-17.081,37.772C228.038,2071.339,243.715,2028,253.314,2035.193Z" transform="translate(-233.341 -2003.434)" fill="#ffc8c5"/>
      <path id="Trazado_632812" data-name="Trazado 632812" d="M236.708,2073.053s-5.894,14.8-3.358,18.094,26.854,5.168,26.854,5.168l1.041-6.676s-16.895-4.146-16.946-4.4,4.112-7.556,4.112-7.556Z" transform="translate(-232.716 -2023.187)" fill="#ffc8c5"/>
      <g id="Grupo_928906" data-name="Grupo 928906" transform="translate(0.132 63.164)">
        <g id="Grupo_928905" data-name="Grupo 928905">
          <path id="Trazado_632813" data-name="Trazado 632813" d="M232.986,2103.364a3.38,3.38,0,0,0,1.753,2.813c7.936,4.567,43.054,5.145,42.067,2.676C276.857,2106.967,232.867,2094.557,232.986,2103.364Z" transform="translate(-232.985 -2100.239)" fill="#ffc8c5"/>
        </g>
      </g>
      <path id="Trazado_632814" data-name="Trazado 632814" d="M252.182,2055.975v-.007c2.5-4.552,5.636-10.581,6.467-13.545,0,0,5.483-11.273,1.405-13.13a4.774,4.774,0,0,0-2.257-.51,20.489,20.489,0,0,0-11.462,8.273,75.762,75.762,0,0,0-6.729,13.421.024.024,0,0,0-.007.014Z" transform="translate(-236.232 -2000.556)" fill="#516cdd"/>
      <path id="Trazado_632815" data-name="Trazado 632815" d="M329.613,2029.858" transform="translate(-282.217 -2001.12)" fill="none" stroke="#e8b1c3" stroke-miterlimit="10" stroke-width="1.489"/>
      <g id="Grupo_928907" data-name="Grupo 928907" transform="translate(40.611 47.534)">
        <path id="Rectángulo_34491" data-name="Rectángulo 34491" d="M1.755,0H28.17a0,0,0,0,1,0,0V1.755a0,0,0,0,1,0,0H0a0,0,0,0,1,0,0v0A1.755,1.755,0,0,1,1.755,0Z" transform="translate(0 21.582)" fill="#1a004d"/>
        <path id="Trazado_632816" data-name="Trazado 632816" d="M381.4,2091.624H345.254l3.467-22.219a1.323,1.323,0,0,1,1.307-1.119H383.5a1.322,1.322,0,0,1,1.306,1.526Z" transform="translate(-330.818 -2068.286)" fill="#1a004d"/>
      </g>
      <path id="Trazado_632817" data-name="Trazado 632817" d="M324.255,2116.827c-.059-.175-2.864-5.844-6.02-6.371s-7.481,1.052-8.065,1.052-1.929-.117-1.929-.117l-.935,3.74s2.484-.029,2.835.38a1.806,1.806,0,0,0,1.812.993c1.315,0,2.659-1.227,4.266-1.227s2.776,1.87,4.208,1.87A37.917,37.917,0,0,0,324.255,2116.827Z" transform="translate(-270.821 -2042.24)" fill="#ffc8c5"/>
      <g id="Grupo_928911" data-name="Grupo 928911" transform="translate(36.906 13.102)">
        <g id="Grupo_928910" data-name="Grupo 928910" transform="translate(0 1.711)">
          <g id="Grupo_928908" data-name="Grupo 928908" transform="translate(5.877 0.137)">
            <path id="Trazado_632818" data-name="Trazado 632818" d="M321.364,2002.639c-.046.505-.346.891-.67.862s-.55-.463-.5-.968a1.219,1.219,0,0,1,.231-.631.513.513,0,0,1,.439-.231C321.184,2001.7,321.41,2002.134,321.364,2002.639Z" transform="translate(-320.184 -2001.669)" fill="#1a004d"/>
          </g>
          <g id="Grupo_928909" data-name="Grupo 928909">
            <path id="Trazado_632819" data-name="Trazado 632819" d="M309.481,2002.366c-.046.506-.376.889-.737.856s-.617-.469-.571-.974a1.129,1.129,0,0,1,.25-.63.58.58,0,0,1,.487-.227C309.272,2001.424,309.527,2001.86,309.481,2002.366Z" transform="translate(-308.168 -2001.389)" fill="#1a004d"/>
          </g>
        </g>
        <line id="Línea_188" data-name="Línea 188" x1="2.161" y2="0.061" transform="translate(0.067)" fill="none" stroke="#31374c" stroke-linecap="round" stroke-linejoin="round" stroke-width="0.674"/>
        <line id="Línea_189" data-name="Línea 189" x1="1.711" y1="0.112" transform="translate(6.015 0.23)" fill="none" stroke="#31374c" stroke-linecap="round" stroke-linejoin="round" stroke-width="0.674"/>
        <path id="Trazado_632820" data-name="Trazado 632820" d="M315.873,2004.133s.57,1.245.785,1.586.87,1.446-.786,1.364" transform="translate(-312.104 -2001.08)" fill="none" stroke="#31374c" stroke-linecap="round" stroke-linejoin="round" stroke-width="0.674"/>
        <path id="Trazado_632821" data-name="Trazado 632821" d="M310.876,2013.291a3.914,3.914,0,0,0,.444.434,3.736,3.736,0,0,0,1.907.908,2.136,2.136,0,0,0,1.52-.788c.13-.135.208-.231.208-.231s-.38,0-.921-.023c-.587-.022-1.365-.063-2.041-.128A8.354,8.354,0,0,1,310.876,2013.291Z" transform="translate(-309.551 -2005.758)" fill="#1a004d"/>
        <path id="Trazado_632822" data-name="Trazado 632822" d="M310.876,2013.291a3.914,3.914,0,0,0,.444.434,7.1,7.1,0,0,0,3.427.12c.13-.135.208-.231.208-.231s-.38,0-.921-.023c-.587-.022-1.365-.063-2.041-.128A8.354,8.354,0,0,1,310.876,2013.291Z" transform="translate(-309.551 -2005.758)" fill="#fff"/>
      </g>
    </g>
    <g id="Grupo_928924" data-name="Grupo 928924" transform="translate(272.341 1876.518)">
      <g id="Grupo_928923" data-name="Grupo 928923" clip-path="url(#clip-path-2)">
        <g id="Grupo_928922" data-name="Grupo 928922" transform="translate(3.534 10.554)">
          <path id="Trazado_632823" data-name="Trazado 632823" d="M564.266,2019.074a3.337,3.337,0,0,0-1.656,3.1c.209,5.619.791,24.142,4.935,24.222,4.872.094,3.414-16.237,2.258-20.971C568.84,2021.478,566.95,2017.644,564.266,2019.074Z" transform="translate(-490.569 -1988.041)" fill="#efc0c1"/>
          <path id="Trazado_632824" data-name="Trazado 632824" d="M525.819,1956.657a2.2,2.2,0,0,1,3.639.619,3.706,3.706,0,0,1,1.879,0,1.558,1.558,0,0,1,1.128,1.374c0,.221-.053.478.1.637a.682.682,0,0,0,.38.147,2.958,2.958,0,0,1,1.977,1.187,1.8,1.8,0,0,1-.123,2.188,3.194,3.194,0,0,1,1.66,1.771,1.584,1.584,0,0,1-.989,1.99,2.82,2.82,0,0,1,1.047,1.011,2.906,2.906,0,0,1,.621,1.3,1.105,1.105,0,0,1-.652,1.171c.5.373,1.151.584,1.293,1.283a2.406,2.406,0,0,1-.312,1.379,1.75,1.75,0,0,0-.149,1.386c.189.411.663.652.805,1.082a1.353,1.353,0,0,1-.163,1.008c-.136.27-.675.764-.694,1.034s.486.781.609,1.031a4.857,4.857,0,0,1,.491,2.5c-.066.869-.539,1.857-1.4,1.952.549.938,1.1,2.116.546,3.05a1.552,1.552,0,0,1-1.108.731,3.308,3.308,0,0,1-4.721.022,3.67,3.67,0,0,1-5.967.483,5.082,5.082,0,0,1-2.727,1.359c-1.032.052-2.162-.843-1.931-1.85a4.727,4.727,0,0,1-2.663-.036,1.633,1.633,0,0,1-.943-2.181,2.1,2.1,0,0,1-1.746-1.981.907.907,0,0,0-.068-.453.893.893,0,0,0-.425-.294,2.323,2.323,0,0,1-1.188-2.66.975.975,0,0,0,.071-.413.742.742,0,0,0-.3-.421,5.962,5.962,0,0,1-.958-.847,1.105,1.105,0,0,1-.173-1.194c.152-.256.453-.427.515-.719s-.145-.564-.28-.831a3.729,3.729,0,0,1-.269-1.682l-.01-2.329a1.191,1.191,0,0,1,.153-.724c.107-.145.275-.234.388-.374.339-.42.055-1.027-.021-1.56-.168-1.169.737-2.2,1.06-3.331.177-.62.179-1.276.307-1.908a2.237,2.237,0,0,1,.991-1.587,3.047,3.047,0,0,0,.918-.484,2.186,2.186,0,0,0,.315-1.155,2.378,2.378,0,0,1,1.747-1.8,4.271,4.271,0,0,1,1.246,0c.427,0,.48-.535.787-.793a2.158,2.158,0,0,1,1.812-.252,5.47,5.47,0,0,0,1.984.044,4.666,4.666,0,0,1,.853-.146C525.214,1956.395,525.914,1956.554,525.819,1956.657Z" transform="translate(-464.999 -1955.948)" fill="#1a004d"/>
          <path id="Trazado_632825" data-name="Trazado 632825" d="M502.706,2017.382a3.34,3.34,0,0,0-2.138,2.788c-.705,5.579-5.532,25.237-1.455,25.988,4.793.884,8.4-16.753,8.026-21.612C506.829,2020.5,505.587,2016.406,502.706,2017.382Z" transform="translate(-457.306 -1987.258)" fill="#efc0c1"/>
          <path id="Trazado_632826" data-name="Trazado 632826" d="M505.858,2013.744c1.325,2.348,2.3,8.245,2.989,14.411v.012c.917,8.113,1.331,16.672,1.407,18.179,0,.151.006.232.006.232,7.718,2.1,23.215,0,23.215,0s-.339-10.769.81-15.31c.119-.465.754-.98.936-1.532.157-.5.339-1.03.527-1.577,1.652-4.791,4.176-11.227,2.418-13.551-.892-1.18-4.728-2.593-7.566-3.5-.063-.025-.126-.038-.189-.057a32.6,32.6,0,0,0-3.7-.879l-9.821.056a19.664,19.664,0,0,0-3.008.4c-.295.057-.59.132-.879.2A28.633,28.633,0,0,0,505.858,2013.744Z" transform="translate(-461.578 -1983.649)" fill="#45bbcc"/>
          <path id="Trazado_632827" data-name="Trazado 632827" d="M514.844,2064.232c0,.151.006.232.006.232,7.718,2.1,23.215,0,23.215,0s-.339-10.77.81-15.31c.119-.465.754-.98.936-1.532.157-.5.339-1.03.527-1.577a2.555,2.555,0,0,0-.37-.866c-.414.119-2.009.358-2.009.358A26.253,26.253,0,0,1,514.844,2064.232Z" transform="translate(-466.169 -2001.534)" fill="#3795a3" opacity="0.4" style="mix-blend-mode: multiply;isolation: isolate"/>
          <path id="Trazado_632828" data-name="Trazado 632828" d="M502.538,2017.48s-2.468,3.7-3.177,13.227c0,0,9.4.8,9.4.532s-5.1-13.732-5.1-13.732Z" transform="translate(-458.259 -1987.382)" fill="#45bbcc"/>
          <path id="Trazado_632829" data-name="Trazado 632829" d="M566.9,2019.244a17.163,17.163,0,0,1,3.254,7.9c.768,4.965,1.152,10.181,1.152,10.181l-8.067,1.462-1.139-6.5Z" transform="translate(-490.309 -1988.284)" fill="#45bbcc"/>
          <g id="Grupo_928915" data-name="Grupo 928915" transform="translate(50.287 1.534)">
            <path id="Trazado_632830" data-name="Trazado 632830" d="M531.4,2006.352c5.876,1.208,8.423-.417,8.423-.417l-.166-2.964-.036-.669-.065-1.158-.014-.252-7.631,1.158-.029.259-.058.474-.079.676Z" transform="translate(-524.913 -1980.443)" fill="#efc0c1"/>
            <path id="Trazado_632831" data-name="Trazado 632831" d="M532.1,2003.723a7.481,7.481,0,0,0,3.532.914,7.931,7.931,0,0,0,4.38-1.4l-.036-.669-.065-1.158-7.675,1.165-.058.474Z" transform="translate(-525.274 -1980.706)" fill="#efc0c1"/>
            <path id="Trazado_632832" data-name="Trazado 632832" d="M520.055,1971.805c0,5.249,4.255,11.919,9.5,11.919s9.5-6.669,9.5-11.919a9.5,9.5,0,0,0-19.009,0Z" transform="translate(-519.118 -1960.728)" fill="#efc0c1"/>
            <g id="Grupo_928914" data-name="Grupo 928914" transform="translate(4.361 9.842)">
              <g id="Grupo_928913" data-name="Grupo 928913">
                <ellipse id="Elipse_5332" data-name="Elipse 5332" cx="0.558" cy="0.999" rx="0.558" ry="0.999" transform="translate(0.609 2.282)" fill="#1a004d"/>
                <ellipse id="Elipse_5333" data-name="Elipse 5333" cx="0.558" cy="0.999" rx="0.558" ry="0.999" transform="translate(7.227 2.282)" fill="#1a004d"/>
                <path id="Trazado_632833" data-name="Trazado 632833" d="M529.391,1979.319a3.344,3.344,0,0,0-2.336.237" transform="translate(-527.055 -1979.206)" fill="none" stroke="#31374c" stroke-linecap="round" stroke-miterlimit="10" stroke-width="0.454"/>
                <path id="Trazado_632834" data-name="Trazado 632834" d="M542.92,1979.319a3.345,3.345,0,0,0-2.336.237" transform="translate(-533.966 -1979.206)" fill="none" stroke="#31374c" stroke-linecap="round" stroke-miterlimit="10" stroke-width="0.454"/>
              </g>
              <path id="Trazado_632835" data-name="Trazado 632835" d="M535.4,1988.942a10.673,10.673,0,0,0-.457,1.878c.025.381.609.685.609.685" transform="translate(-531.084 -1984.18)" fill="none" stroke="#f4af9f" stroke-linecap="round" stroke-miterlimit="10" stroke-width="0.368" style="mix-blend-mode: multiply;isolation: isolate"/>
              <path id="Trazado_632836" data-name="Trazado 632836" d="M536.411,1998.454s-1.755.878-2.868-.125" transform="translate(-530.37 -1988.976)" fill="none" stroke="#31374c" stroke-linecap="round" stroke-miterlimit="10" stroke-width="0.454"/>
            </g>
            <path id="Trazado_632837" data-name="Trazado 632837" d="M532.49,1965.311a1.226,1.226,0,0,1-.555,1.024c-.627.4-1.484.147-2.156.46-.3.141-.542.384-.832.55a1.814,1.814,0,0,1-1.292.191,6.317,6.317,0,0,0-1.547-.46,3.711,3.711,0,0,0-1.313.514,3,3,0,0,1-1.537.246.44.44,0,0,0-.238.016.416.416,0,0,0-.169.223,2.241,2.241,0,0,1-.817,1.114,4.306,4.306,0,0,0-.859.423,1.723,1.723,0,0,0-.374,1.067,6.1,6.1,0,0,1-.538,1.77,1.648,1.648,0,0,0-.226.679,1.935,1.935,0,0,0,.122.55,2.929,2.929,0,0,1,.083,1.241c-.041.281-.157,1.015-.484,1.1-.239.063-.721-.256-.939-.349l-.65-.276s-.069-8.745,0-8.954,6.455-7.357,6.455-7.357l10.689,2.082,2.88,5.814,1.034,5.733-1.473,5.628-.59,2.255a7.044,7.044,0,0,1-.182.7c-.222.588-1.073.11-1.388-.237-.279-.307-.282-.717-.5-1.025s-.738-.388-1.032-.6a1.5,1.5,0,0,1-.613-1.068,17.01,17.01,0,0,1,.331-1.937c.017-.654-.322-1.283-.274-1.935.031-.434.233-.847.236-1.282a9.874,9.874,0,0,0-.159-1.034c-.083-.82.534-1.631.158-2.409a4.227,4.227,0,0,1-.41-2.748.913.913,0,0,0,.014-.548,1,1,0,0,0-.264-.3,2.162,2.162,0,0,1-.595-.979A1,1,0,0,1,532.49,1965.311Z" transform="translate(-518.139 -1959.085)" fill="#1a004d"/>
          </g>
          <path id="Trazado_632838" data-name="Trazado 632838" d="M542.848,2118.767c.2,12.507,2.492,22.612,5.118,22.57s4.593-10.215,4.393-22.722-2.492-22.612-5.118-22.57S542.648,2106.26,542.848,2118.767Z" transform="translate(-480.468 -2027.518)" fill="#efc0c1"/>
          <g id="Grupo_928916" data-name="Grupo 928916" transform="translate(62.044 109.234)">
            <path id="Trazado_632839" data-name="Trazado 632839" d="M545.838,2179.645c9.23-4.812,3.928,37.729.58,48.343s-4.173-.971-4.233-18.541S542.207,2181.538,545.838,2179.645Z" transform="translate(-542.175 -2179.267)" fill="#efc0c1"/>
          </g>
          <path id="Trazado_632840" data-name="Trazado 632840" d="M539.455,2162.91l1.422,55.951h5.483s4.874-36.252,3.69-44.579l2.3-9.037Z" transform="translate(-478.741 -2061.677)" fill="#efc0c1"/>
          <path id="Trazado_632841" data-name="Trazado 632841" d="M507.424,2116.269c-1.993,12.349-1.507,22.7,1.086,23.117s6.311-9.253,8.305-21.6,1.507-22.7-1.086-23.117S509.418,2103.921,507.424,2116.269Z" transform="translate(-461.751 -2026.808)" fill="#efc0c1"/>
          <g id="Grupo_928917" data-name="Grupo 928917" transform="translate(37.56 107.973)">
            <path id="Trazado_632842" data-name="Trazado 632842" d="M500.291,2176.841c9.93-3.121.511,43.5-4.646,53.363s-3.938-1.686-.92-19S496.385,2178.069,500.291,2176.841Z" transform="translate(-492.119 -2176.691)" fill="#efc0c1"/>
          </g>
          <path id="Trazado_632843" data-name="Trazado 632843" d="M497.076,2158.451l-5.99,57.759,5.686.563s8.665-30.4,9.071-46.034l5.043-16.755Z" transform="translate(-454.031 -2057.117)" fill="#efc0c1"/>
          <path id="Trazado_632844" data-name="Trazado 632844" d="M506.629,2084.66s-7.057,30-8.174,54.985l31.382.709s6.775-45.648-.141-55.745Z" transform="translate(-457.796 -2021.676)" fill="#1a004d"/>
          <path id="Trazado_632845" data-name="Trazado 632845" d="M522.268,2010.623c1.324,2.3,3.82,5.207,7.955,5.207a10.123,10.123,0,0,0,8.761-4.725c-.065-.022-.13-.036-.187-.058a33.016,33.016,0,0,0-3.705-.879l-9.818.06A19.488,19.488,0,0,0,522.268,2010.623Z" transform="translate(-469.961 -1983.646)" fill="#efc0c1"/>
          <g id="Grupo_928918" data-name="Grupo 928918" transform="translate(16.54 30.707)">
            <path id="Trazado_632846" data-name="Trazado 632846" d="M541.563,2069.082a4.574,4.574,0,0,1-2.694,3.567c-6.678,3.171-28.635,13.4-31.039,11.3-2.8-2.451,29.137-17.5,30.858-16.531C539.978,2068.143,541.775,2066.933,541.563,2069.082Z" transform="translate(-479.036 -2043.576)" fill="#efc0c1"/>
            <path id="Trazado_632847" data-name="Trazado 632847" d="M498.567,2096.112l2.254.27a9.238,9.238,0,0,0,3.548-.281l2.527-1.155.381-.171.151-.069-.167-.68-.019-.081-.607-2.342-.122-.525-.015-.011-.221-.126-.318-.164-1.339-.714a3.431,3.431,0,0,0-1.581-.4l-2.364.591a1.439,1.439,0,0,0,1.046.625,3.445,3.445,0,0,1,1.182.622l-1.354.17-3.307.656a1.352,1.352,0,0,0-1.012,1.75.684.684,0,0,0,.038.117l.645,1.441A.78.78,0,0,0,498.567,2096.112Z" transform="translate(-473.675 -2054.967)" fill="#efc0c1"/>
            <path id="Trazado_632848" data-name="Trazado 632848" d="M449.146,2020.5c.079,3.356.817,4.107,1.8,4.771l2.512,1.187.376.181.151.071.413-.566.049-.067,1.4-1.973.322-.433v-.018l-.046-.251-.08-.348-.676-1.157c-.47-.867-1.884-1.179-1.849-.71l-1-.925-1.6-1.321C450.284,2018.436,449.1,2018.759,449.146,2020.5Z" transform="translate(-449.145 -2018.726)" fill="#efc0c1"/>
          </g>
          <path id="Trazado_632849" data-name="Trazado 632849" d="M535.884,1982.639c-.011-.351-.29-.225-.868-.43a.036.036,0,0,1-.013,0,6.247,6.247,0,0,0-3.114-.176,7.737,7.737,0,0,1-2.332.423h-.008c-.055,0-.11,0-.165,0a8.846,8.846,0,0,1-2.167-.426,6.237,6.237,0,0,0-3.112.176c-.588.21-.87.082-.881.434s.059.282.4,1.01.235,2.809,2.644,2.809a2.793,2.793,0,0,0,2.857-2.516c.11-.39.339-.457.43-.468.091.011.32.078.432.468a2.789,2.789,0,0,0,2.855,2.516c2.263,0,2.307-1.839,2.588-2.663a1.21,1.21,0,0,1,.057-.146C535.826,1982.921,535.9,1982.991,535.884,1982.639Zm-7.408,2.208a2.072,2.072,0,0,1-2.21,1.317,1.811,1.811,0,0,1-2.057-1.645c-.222-1-.705-2.269,2-2.269s2.7,1.106,2.7,1.106A3.066,3.066,0,0,1,528.476,1984.847Zm6.42-.328a1.81,1.81,0,0,1-2.057,1.645,2.069,2.069,0,0,1-2.208-1.317,3.05,3.05,0,0,1-.436-1.492s0-1.106,2.7-1.106S535.12,1983.52,534.9,1984.519Z" transform="translate(-470.449 -1969.206)" fill="#1a004d"/>
          <path id="Trazado_632850" data-name="Trazado 632850" d="M522.871,1982.921c-.044,0-.676-.067-.676-.067l-.111.288a6.465,6.465,0,0,0,.754.222C522.838,1983.33,522.871,1982.921,522.871,1982.921Z" transform="translate(-469.867 -1969.693)" fill="#1a004d"/>
          <path id="Trazado_632851" data-name="Trazado 632851" d="M548.552,1982.944l1.61-.015s.03.325-.015.34-1.64.148-1.64.148Z" transform="translate(-483.366 -1969.732)" fill="#1a004d"/>
          <g id="Grupo_928919" data-name="Grupo 928919" transform="translate(29.031 157.703)">
            <path id="Trazado_632852" data-name="Trazado 632852" d="M475.8,2296.018c3.428,2.646,9.454-2.156,9.777-3.279s.691-5.171,1.51-6.132,1.987-2.68,1.745-3.734a10.167,10.167,0,0,1-.2-1.475c-.092-1.03-.123-2.1-.123-2.1l-5.614-.941s-2.207,5.348-3.652,9.31a8.74,8.74,0,0,1-1.779,2.761C475.526,2292.625,473.288,2294.077,475.8,2296.018Z" transform="translate(-474.682 -2278.36)" fill="#efc0c1"/>
            <rect id="Rectángulo_34492" data-name="Rectángulo 34492" width="1.269" height="5.991" transform="translate(13.71 11.544) rotate(180)" fill="#1a004d"/>
            <path id="Trazado_632853" data-name="Trazado 632853" d="M475.8,2299.19c3.428,2.646,9.454-2.156,9.777-3.279s.691-5.17,1.51-6.132,1.987-2.68,1.745-3.733a10.167,10.167,0,0,1-.2-1.475,52.538,52.538,0,0,0-3.029,5.39c-.569,1.465-.655,5.782-4.2,5.807-2.686.023-3.782-.9-3.935-2.165C475.526,2295.8,473.288,2297.249,475.8,2299.19Z" transform="translate(-474.682 -2281.533)" fill="#1a004d"/>
          </g>
          <g id="Grupo_928920" data-name="Grupo 928920" transform="translate(61.535 156.978)">
            <path id="Trazado_632854" data-name="Trazado 632854" d="M541.149,2282.51c0,.1.044.216.058.367.223,1.985.05,8.725.022,9.509-.022.834,1.115,2.28,4.265,2.28s3.7-.812,3.8-3.783a18.678,18.678,0,0,0-.913-5.172,27.578,27.578,0,0,1-.914-4.193c-.228-2.276-.23-4.639-.23-4.639h-5.488A22.282,22.282,0,0,0,541.149,2282.51Z" transform="translate(-541.134 -2276.878)" fill="#efc0c1"/>
          </g>
          <path id="Trazado_632855" data-name="Trazado 632855" d="M541.3,2298.592c-.022.834,1.115,2.28,4.265,2.28s3.7-.812,3.8-3.783a18.674,18.674,0,0,0-.913-5.171s.1,6.2-3.3,5.992-3.855-8.883-3.855-8.883-.007.021-.022.058C541.505,2291.068,541.332,2297.807,541.3,2298.592Z" transform="translate(-479.675 -2126.105)" fill="#1a004d"/>
          <g id="Grupo_928921" data-name="Grupo 928921" transform="translate(18.873 33.517)">
            <path id="Trazado_632856" data-name="Trazado 632856" d="M478.988,2047.97a4.367,4.367,0,0,0-1.234-4.085c-4.932-5.048-20.656-20.45-23.505-19.359-3.316,1.27,19.176,25.881,21.038,25.582C476.684,2049.883,478.467,2049.964,478.988,2047.97Z" transform="translate(-453.916 -2024.47)" fill="#efc0c1"/>
          </g>
          <rect id="Rectángulo_34493" data-name="Rectángulo 34493" width="0.985" height="36.524" rx="0.493" transform="translate(25.198 37.8) rotate(137.944)" fill="#1a004d"/>
          <path id="Trazado_632857" data-name="Trazado 632857" d="M458.178,2024.274a2.228,2.228,0,0,0-1.358-1,2.753,2.753,0,0,0-1.811.354c-1.319.925,3.681,1.614,3.681,1.614Z" transform="translate(-435.488 -1990.322)" fill="#efc0c1"/>
        </g>
      </g>
    </g>
    <g id="Grupo_928926" data-name="Grupo 928926" transform="translate(282.095 1936.344)">
      <path id="Trazado_632858" data-name="Trazado 632858" d="M448.617,2067.968l.83-.11-.766.462a8.7,8.7,0,0,0,1.839,3.742l0,.005c.308.338,1.481-.447,1.7-.646a6.82,6.82,0,0,0,1.63-2.957c.457-1.292.89-2.594,1.437-3.852.437-1,.924-1.988,1.4-2.972l-.413-1.222,1.034-.1c.1-.219.194-.437.288-.656.422-.984.825-1.973,1.2-2.977a24.537,24.537,0,0,0-7.931,4.9l.383.616-1.113.219a7.653,7.653,0,0,0-.924,1.466A6.842,6.842,0,0,0,448.617,2067.968Z" transform="translate(-438.509 -2056.682)" fill="#516cdd"/>
      <path id="Trazado_632859" data-name="Trazado 632859" d="M428.045,2074.065c.1.119.189.244.284.368a32.931,32.931,0,0,0,2.951,3.588l.527-.348s-.178.353-.288.591a35.215,35.215,0,0,0,2.957,2.749,4.182,4.182,0,0,0,.969.631l.432-.462s-.01.333-.01.6a1.423,1.423,0,0,0,.482.015c.219-.03,1-.184,1.113-.4l0,0a4.207,4.207,0,0,0-.959-4.468,4.263,4.263,0,0,0-.691-.576l-.338.437-.566-.954a13.75,13.75,0,0,0-1.64-.626,26.322,26.322,0,0,0-3.712-.9C429.059,2074.214,428.552,2074.14,428.045,2074.065Z" transform="translate(-428.045 -2065.562)" fill="#516cdd"/>
      <path id="Trazado_632860" data-name="Trazado 632860" d="M457.82,2087.666l.005,0c1.366.586,2.967.065,4.413-.8-.189-.393-.571-1.167-.606-1.218s.706.542,1.133.884a20.656,20.656,0,0,0,3.717-3.295s-5.471-.348-7.5.706a2.728,2.728,0,0,0-.522.352l.179.418-.457-.119A3.676,3.676,0,0,0,457.82,2087.666Z" transform="translate(-443.16 -2070.223)" fill="#516cdd"/>
      <g id="Grupo_928925" data-name="Grupo 928925" transform="translate(3.483 3.036)">
        <path id="Trazado_632861" data-name="Trazado 632861" d="M452.649,2081.3s-1.892-11.773,5-18.409" transform="translate(-443.976 -2062.889)" fill="none" stroke="#1a004d" stroke-miterlimit="10" stroke-width="0.51"/>
        <path id="Trazado_632862" data-name="Trazado 632862" d="M443.576,2091.035s-.669-9.239-8.411-12.367" transform="translate(-435.165 -2070.95)" fill="none" stroke="#1a004d" stroke-miterlimit="10" stroke-width="0.51"/>
        <path id="Trazado_632863" data-name="Trazado 632863" d="M453.119,2091.994s3.082-5.842,7.8-6.92" transform="translate(-444.337 -2074.222)" fill="none" stroke="#1a004d" stroke-miterlimit="10" stroke-width="0.51"/>
      </g>
      <path id="Trazado_632864" data-name="Trazado 632864" d="M442.615,2098.4l2.322,8.381h4.851l2.306-8.326a.119.119,0,0,0,.008-.029l.008-.025Z" transform="translate(-435.488 -2077.996)" fill="#1a004d"/>
    </g>
    <path id="Trazado_632865" data-name="Trazado 632865" d="M177.492,1899.1h-1.105a8.279,8.279,0,0,0-.967-2.41l.814-.814a.737.737,0,0,0,0-1.042l-1.782-1.782a.736.736,0,0,0-1.042,0l-.782.781a8.352,8.352,0,0,0-2.387-1.022v-1.15a.736.736,0,0,0-.737-.737h-2.521a.736.736,0,0,0-.737.737v1.107a8.37,8.37,0,0,0-2.41.964h0l-.813-.813a.737.737,0,0,0-1.042,0L160.2,1894.7a.737.737,0,0,0,0,1.042l.784.784a8.265,8.265,0,0,0-1.023,2.385h-1.151a.737.737,0,0,0-.737.737v2.521a.736.736,0,0,0,.737.737h1.109a8.19,8.19,0,0,0,.964,2.409l-.815.815a.737.737,0,0,0,0,1.042l1.783,1.782a.737.737,0,0,0,1.042,0l.782-.782h0a8.335,8.335,0,0,0,2.386,1.023h0v1.148a.737.737,0,0,0,.737.737h2.521a.737.737,0,0,0,.737-.737v-1.107h0a8.215,8.215,0,0,0,2.408-.965h0l.814.814a.737.737,0,0,0,1.042,0l1.783-1.783a.737.737,0,0,0,0-1.042l-.784-.783h0a8.285,8.285,0,0,0,1.026-2.385h1.147a.737.737,0,0,0,.737-.737v-2.521A.736.736,0,0,0,177.492,1899.1Zm-9.343,6.595a4.69,4.69,0,1,1,4.693-4.69A4.691,4.691,0,0,1,168.149,1905.695Z" transform="translate(-8.03 -35.659)" fill="#c7d8f9"/>
  </g>
</svg>
