<svg xmlns="http://www.w3.org/2000/svg" width="69.255" height="69.255" viewBox="0 0 69.255 69.255">
  <g id="Grupo_928782" data-name="Grupo 928782" transform="translate(-559.516 -8078.79)">
    <circle id="Elipse_5318" data-name="Elipse 5318" cx="31.889" cy="31.889" r="31.889" transform="translate(562.255 8145.307) rotate(-90)" fill="#583ae2"/>
    <g id="Grupo_82723" data-name="Grupo 82723" transform="translate(559.516 8078.79)">
      <path id="Trazado_120377" data-name="Trazado 120377" d="M154.4,156.853a34.628,34.628,0,1,1,34.626-34.628A34.668,34.668,0,0,1,154.4,156.853Zm0-63.778a29.151,29.151,0,1,0,29.149,29.151A29.185,29.185,0,0,0,154.4,93.075Z" transform="translate(-119.774 -87.598)" fill="#40327b"/>
    </g>
    <g id="Grupo_82750" data-name="Grupo 82750" transform="translate(579.522 8104.01)">
      <path id="Trazado_120621" data-name="Trazado 120621" d="M138.546,120.961a6.788,6.788,0,0,1-5.867-2.664,11.791,11.791,0,0,1-1.946-7.111,11.787,11.787,0,0,1,1.946-7.111,7.794,7.794,0,0,1,11.735,0,11.787,11.787,0,0,1,1.946,7.111,11.791,11.791,0,0,1-1.946,7.111A6.794,6.794,0,0,1,138.546,120.961Zm-2.786-14.331a12.141,12.141,0,0,0,0,9.139,3.106,3.106,0,0,0,5.57,0,12.141,12.141,0,0,0,0-9.139,3.106,3.106,0,0,0-5.57,0Z" transform="translate(-130.733 -101.413)" fill="#fff"/>
      <path id="Trazado_120622" data-name="Trazado 120622" d="M140.285,101.65h7.651v18.9H143.88v-15.3h-3.595Z" transform="translate(-122.847 -101.217)" fill="#fff"/>
    </g>
  </g>
</svg>
