<svg xmlns="http://www.w3.org/2000/svg" width="69.255" height="69.255" viewBox="0 0 69.255 69.255">
  <g id="Grupo_928783" data-name="Grupo 928783" transform="translate(-846.738 -8078.79)">
    <g id="Grupo_82733" data-name="Grupo 82733" transform="translate(844.803 8076.855)">
      <g id="Grupo_82732" data-name="Grupo 82732" transform="translate(0 0)">
        <circle id="Elipse_5320" data-name="Elipse 5320" cx="31.889" cy="31.889" r="31.889" transform="translate(4.673 68.452) rotate(-90)" fill="#45bbcc"/>
        <g id="Grupo_82731" data-name="Grupo 82731" transform="translate(1.935 1.935)">
          <path id="Trazado_120382" data-name="Trazado 120382" d="M311.734,156.853a34.628,34.628,0,1,1,34.628-34.628A34.667,34.667,0,0,1,311.734,156.853Zm0-63.778a29.151,29.151,0,1,0,29.151,29.151A29.183,29.183,0,0,0,311.734,93.075Z" transform="translate(-277.106 -87.598)" fill="#29707a"/>
        </g>
      </g>
    </g>
    <g id="Grupo_82751" data-name="Grupo 82751" transform="translate(864.514 8104.01)">
      <path id="Trazado_120623" data-name="Trazado 120623" d="M294.656,120.961a6.784,6.784,0,0,1-5.866-2.664,11.791,11.791,0,0,1-1.948-7.111,11.787,11.787,0,0,1,1.948-7.111,7.792,7.792,0,0,1,11.733,0,11.787,11.787,0,0,1,1.948,7.111,11.791,11.791,0,0,1-1.948,7.111A6.794,6.794,0,0,1,294.656,120.961Zm-2.786-14.331a12.164,12.164,0,0,0,0,9.139,3.108,3.108,0,0,0,5.572,0,12.164,12.164,0,0,0,0-9.139,3.107,3.107,0,0,0-5.572,0Z" transform="translate(-286.843 -101.413)" fill="#fff"/>
      <path id="Trazado_120624" data-name="Trazado 120624" d="M304.877,109.212a3.411,3.411,0,0,0,.717-1.959,2.17,2.17,0,0,0-.623-1.581,2.139,2.139,0,0,0-1.6-.637q-1.785,0-3.379,2.543l-3.379-2a10.449,10.449,0,0,1,2.9-3.111,7.127,7.127,0,0,1,4.029-1.053,6.482,6.482,0,0,1,4.3,1.555,5.226,5.226,0,0,1,1.851,4.23,5.677,5.677,0,0,1-.743,2.8,18.226,18.226,0,0,1-2.744,3.421l-3.406,3.542h7.463v3.784h-13.33v-3.136l5.542-5.678A23.962,23.962,0,0,0,304.877,109.212Z" transform="translate(-278.773 -101.413)" fill="#fff"/>
    </g>
  </g>
</svg>
