<svg xmlns="http://www.w3.org/2000/svg" width="73.125" height="73.125" viewBox="0 0 73.125 73.125">
  <g id="Grupo_928784" data-name="Grupo 928784" transform="translate(-1132.023 -8076.855)">
    <g id="Grupo_82737" data-name="Grupo 82737" transform="translate(1132.023 8076.855)">
      <g id="Grupo_82736" data-name="Grupo 82736" transform="translate(0 0)">
        <circle id="Elipse_5322" data-name="Elipse 5322" cx="31.889" cy="31.889" r="31.889" transform="matrix(0.159, -0.987, 0.987, 0.159, 0, 62.964)" fill="#583ae2"/>
        <path id="Trazado_120385" data-name="Trazado 120385" d="M469.064,156.853a34.628,34.628,0,1,1,34.628-34.628A34.667,34.667,0,0,1,469.064,156.853Zm0-63.778a29.151,29.151,0,1,0,29.151,29.151A29.183,29.183,0,0,0,469.064,93.075Z" transform="translate(-432.502 -85.663)" fill="#40327b"/>
      </g>
    </g>
    <g id="Grupo_82752" data-name="Grupo 82752" transform="translate(1151.045 8104.01)">
      <path id="Trazado_120625" data-name="Trazado 120625" d="M451.61,120.961a6.786,6.786,0,0,1-5.866-2.664,11.791,11.791,0,0,1-1.948-7.111,11.787,11.787,0,0,1,1.948-7.111,7.792,7.792,0,0,1,11.733,0,11.787,11.787,0,0,1,1.948,7.111,11.791,11.791,0,0,1-1.948,7.111A6.792,6.792,0,0,1,451.61,120.961Zm-2.784-14.331a12.141,12.141,0,0,0,0,9.139,3.106,3.106,0,0,0,5.57,0,12.141,12.141,0,0,0,0-9.139,3.106,3.106,0,0,0-5.57,0Z" transform="translate(-443.797 -101.413)" fill="#fff"/>
      <path id="Trazado_120626" data-name="Trazado 120626" d="M454.477,105.246v-3.6H466.05v2.919l-3.867,4.409a5.514,5.514,0,0,1,3.516,1.9,5.437,5.437,0,0,1,1.243,3.531,5.755,5.755,0,0,1-2.015,4.663,7.736,7.736,0,0,1-5.15,1.69,11.169,11.169,0,0,1-6.353-2.218l1.729-3.352a8.62,8.62,0,0,0,4.787,1.891,3.385,3.385,0,0,0,2.1-.621,2.117,2.117,0,0,0,.825-1.8,2.19,2.19,0,0,0-.947-1.866,4.376,4.376,0,0,0-2.622-.69,9.082,9.082,0,0,0-2.516.515v-3.111l3.624-4.27Z" transform="translate(-435.849 -101.217)" fill="#fff"/>
    </g>
  </g>
</svg>
