<svg xmlns="http://www.w3.org/2000/svg" width="141.077" height="140.914" viewBox="0 0 141.077 140.914">
  <g id="Grupo_949920" data-name="Grupo 949920" transform="translate(8592.879 7230.74)">
    <path id="Trazado_245635" data-name="Trazado 245635" d="M145.624,4791.2l33.294,33.293c1.964.162,3.95.249,5.955.249a71.452,71.452,0,0,0,71.452-71.451q0-1.7-.079-3.379l-24.239-24.239Z" transform="translate(-8708.127 -11914.57)" fill="#342287"/>
    <g id="Grupo_950103" data-name="Grupo 950103">
      <path id="Trazado_245634" data-name="Trazado 245634" d="M261.27,4760.1a71.451,71.451,0,1,0-71.452,71.452A71.179,71.179,0,0,0,261.27,4760.1Z" transform="translate(-8713.071 -11921.383)" fill="#462eb4"/>
      <g id="Grupo_84112" data-name="Grupo 84112" transform="translate(-8576.206 -7214.085)">
        <path id="Trazado_245636" data-name="Trazado 245636" d="M241.88,4757.627a54.561,54.561,0,1,0-54.56,54.559A54.351,54.351,0,0,0,241.88,4757.627Z" transform="translate(-134.152 -4704.586)" fill="#e6e1fb"/>
      </g>
      <g id="nube" transform="translate(-8560.421 -7187.739)">
        <g id="Grupo_84131" data-name="Grupo 84131" transform="translate(1.083 1.083)">
          <path id="Trazado_245683" data-name="Trazado 245683" d="M67.341,88.561a7.283,7.283,0,0,0,6.987-5.182A14.46,14.46,0,0,0,64.91,65.5a2.488,2.488,0,0,1-1.594-1.541,17.074,17.074,0,0,0-26.937-7.636,2.5,2.5,0,0,1-2.574.385,13.043,13.043,0,0,0-17.98,9.367,2.476,2.476,0,0,1-1.277,1.716,13.022,13.022,0,0,0-6.26,16.033,7.268,7.268,0,0,0,6.837,4.738Z" transform="translate(-7.5 -52.47)" fill="#64caff"/>
          <g id="Grupo_84126" data-name="Grupo 84126" transform="translate(32.671 0)">
            <path id="Trazado_245684" data-name="Trazado 245684" d="M258.575,65.5a2.488,2.488,0,0,1-1.594-1.541,17.075,17.075,0,0,0-23.145-9.983A17.077,17.077,0,0,1,252.38,65.293a2.488,2.488,0,0,0,1.594,1.541,14.46,14.46,0,0,1,9.418,17.88,7.225,7.225,0,0,1-2.774,3.847h.388a7.283,7.283,0,0,0,6.987-5.182,14.46,14.46,0,0,0-9.418-17.88Z" transform="translate(-233.836 -52.47)" fill="#00b8ff"/>
          </g>
          <g id="Grupo_84130" data-name="Grupo 84130" transform="translate(39.72 26.737)">
            <circle id="Elipse_4850" data-name="Elipse 4850" cx="16.022" cy="16.022" r="16.022" fill="#9ff497"/>
            <path id="Trazado_245685" data-name="Trazado 245685" d="M383.874,237.694a16.2,16.2,0,0,0-1.651.084,16.023,16.023,0,0,1,0,31.876,16.2,16.2,0,0,0,1.651.084,16.022,16.022,0,0,0,0-32.044Z" transform="translate(-367.852 -237.694)" fill="#6ce79a"/>
            <g id="Grupo_84129" data-name="Grupo 84129" transform="translate(6.807 5.476)">
              <g id="Grupo_84127" data-name="Grupo 84127">
                <path id="Trazado_245686" data-name="Trazado 245686" d="M336.616,276.071a9.572,9.572,0,0,0-6.79,8.527.726.726,0,0,0,.819.768l2.534-.341a.722.722,0,0,0,.619-.618,5.393,5.393,0,0,1,8.947-3.266.451.451,0,0,1,.133.458l-.554,1.952a.447.447,0,0,0,.635.52l4.138-2.123a1.1,1.1,0,0,0,.276-1.758l-2.055-2.055A8.474,8.474,0,0,0,336.616,276.071Z" transform="translate(-329.825 -275.628)" fill="#574d56"/>
              </g>
              <g id="Grupo_84128" data-name="Grupo 84128" transform="translate(0.559 11.349)">
                <path id="Trazado_245687" data-name="Trazado 245687" d="M344.775,363.551a9.572,9.572,0,0,0,6.79-8.527.726.726,0,0,0-.819-.768l-2.534.341a.722.722,0,0,0-.619.618,5.393,5.393,0,0,1-8.947,3.266.451.451,0,0,1-.133-.458l.554-1.952a.447.447,0,0,0-.635-.52l-4.138,2.123a1.1,1.1,0,0,0-.276,1.758l2.055,2.055A8.473,8.473,0,0,0,344.775,363.551Z" transform="translate(-333.695 -354.249)" fill="#574d56"/>
              </g>
            </g>
          </g>
        </g>
        <g id="Grupo_84132" data-name="Grupo 84132" transform="translate(0 0)">
          <path id="Trazado_245688" data-name="Trazado 245688" d="M69.061,76.872a15.557,15.557,0,0,0-10.235-18.82,1.413,1.413,0,0,1-.9-.866,18.156,18.156,0,0,0-28.645-8.119,1.412,1.412,0,0,1-1.457.231,14.136,14.136,0,0,0-11.725.21,1.083,1.083,0,1,0,.936,1.952,11.971,11.971,0,0,1,9.924-.177,3.567,3.567,0,0,0,3.691-.539A15.991,15.991,0,0,1,55.877,57.9a3.589,3.589,0,0,0,2.283,2.215,13.382,13.382,0,0,1,9.053,15.12,17.091,17.091,0,0,0-25.634,5.83H8.707a6.2,6.2,0,0,1-5.82-4.027,11.941,11.941,0,0,1,5.742-14.7,3.541,3.541,0,0,0,1.84-2.463,11.884,11.884,0,0,1,3.4-6.21,1.082,1.082,0,1,0-1.507-1.555,14.039,14.039,0,0,0-4.019,7.338,1.386,1.386,0,0,1-.714.969A14.1,14.1,0,0,0,.854,77.778a8.371,8.371,0,0,0,7.853,5.448H40.656A17.105,17.105,0,0,0,66.864,102.66a1.083,1.083,0,0,0-1.272-1.752,14.946,14.946,0,1,1,2.844-2.7,1.083,1.083,0,0,0,1.682,1.363,17.088,17.088,0,0,0-1.057-22.7Z" transform="translate(0 -44.97)"/>
          <path id="Trazado_245689" data-name="Trazado 245689" d="M335.368,278.48a1.53,1.53,0,0,0,1.669.178l4.138-2.123a2.184,2.184,0,0,0,.547-3.487l-2.055-2.054a9.611,9.611,0,0,0-9.816-2.324,10.681,10.681,0,0,0-7.522,9.488,1.81,1.81,0,0,0,1.8,1.921c.212,0,.106,0,2.777-.357a1.81,1.81,0,0,0,1.547-1.542,4.311,4.311,0,0,1,6.854-2.854l-.441,1.554A1.53,1.53,0,0,0,335.368,278.48Zm-7.225-4.284a6.413,6.413,0,0,0-1.791,3.415l-1.826.245a8.586,8.586,0,0,1,6.021-7.137,7.174,7.174,0,0,1,2.312-.38,7.489,7.489,0,0,1,5.276,2.185l2.054,2.054a.013.013,0,0,1,.005.016c0,.009,0,.01-.01.013l-2.837,1.456.155-.547a1.543,1.543,0,0,0-.45-1.558A6.472,6.472,0,0,0,328.143,274.2Z" transform="translate(-275.798 -235.956)"/>
          <path id="Trazado_245690" data-name="Trazado 245690" d="M328.891,355.833a9.669,9.669,0,0,0,6.814,2.818,9.318,9.318,0,0,0,3-.493,10.681,10.681,0,0,0,7.522-9.488,1.809,1.809,0,0,0-2.044-1.905l-2.534.341a1.81,1.81,0,0,0-1.547,1.542,4.311,4.311,0,0,1-6.854,2.855l.441-1.554a1.53,1.53,0,0,0-2.17-1.779l-4.138,2.123a2.184,2.184,0,0,0-.547,3.487Zm-.528-3.6c0-.009,0-.01.01-.013l2.837-1.456-.155.547a1.524,1.524,0,0,0,.45,1.558,6.476,6.476,0,0,0,10.7-3.651l1.826-.245a8.586,8.586,0,0,1-6.022,7.137,7.431,7.431,0,0,1-7.588-1.806l-2.054-2.054C328.362,352.242,328.361,352.241,328.362,352.232Z" transform="translate(-279.111 -303.187)"/>
        </g>
      </g>
    </g>
  </g>
</svg>
