<svg xmlns="http://www.w3.org/2000/svg" width="355.22" height="233.554" viewBox="0 0 355.22 233.554">
  <g id="Grupo_950132" data-name="Grupo 950132" transform="translate(2197.243 9128.875)">
    <g id="Grupo_950082" data-name="Grupo 950082" transform="translate(-426.817 203.625)">
      <path id="Trazado_635127" data-name="Trazado 635127" d="M0,0V65.943" transform="translate(-1432.473 -9332.5)" fill="none" stroke="#342287" stroke-width="3"/>
      <g id="Grupo_950076" data-name="Grupo 950076" transform="matrix(0.995, 0.105, -0.105, 0.995, -1440.867, -9280.357)">
        <path id="Trazado_633963" data-name="Trazado 633963" d="M633.671,341.259a.863.863,0,0,1,1.21.16l8.036,10.462L649,340.174a.863.863,0,1,1,1.531.795l-6.706,12.908a.863.863,0,0,1-1.449.128l-8.862-11.534a.865.865,0,0,1,.159-1.211Z" transform="translate(-633.334 -339.707)" fill="#342287"/>
      </g>
    </g>
    <g id="Grupo_950086" data-name="Grupo 950086" transform="translate(-2175.514 -9099.875)">
      <path id="Trazado_635127-2" data-name="Trazado 635127" d="M0,65.943V0" transform="translate(9.924 2.562)" fill="none" stroke="#342287" stroke-width="3"/>
      <g id="Grupo_950076-2" data-name="Grupo 950076" transform="matrix(0.995, -0.105, 0.105, 0.995, 0, 1.808)">
        <path id="Trazado_633963-2" data-name="Trazado 633963" d="M.337,13.083a.863.863,0,0,0,1.21-.16L9.583,2.461l6.082,11.707a.863.863,0,1,0,1.531-.795L10.49.465A.863.863,0,0,0,9.041.337L.178,11.871a.865.865,0,0,0,.159,1.211Z" fill="#342287"/>
      </g>
    </g>
    <g id="Grupo_950079" data-name="Grupo 950079">
      <path id="Rectángulo_34855" data-name="Rectángulo 34855" d="M0,0H165.5A29.5,29.5,0,0,1,195,29.5v0A29.5,29.5,0,0,1,165.5,59H0a0,0,0,0,1,0,0V0A0,0,0,0,1,0,0Z" transform="translate(-2037.023 -9004.131)" fill="#ab9df1"/>
      <text id="Lecciones_aprendidas" data-name="Lecciones aprendidas" transform="translate(-1998.523 -8995.131)" fill="#12263f" font-size="14" font-family="SegoeUI-Bold, Segoe UI" font-weight="700"><tspan x="27.544" y="15">Lecciones </tspan><tspan x="22.609" y="35">aprendidas</tspan></text>
      <g id="Grupo_950068" data-name="Grupo 950068" transform="translate(-106.243 3.304)">
        <path id="Trazado_633983" data-name="Trazado 633983" d="M588.9,313.532a86.984,86.984,0,1,1,101.135,70.027A86.641,86.641,0,0,1,588.9,313.532Z" transform="translate(-2678.48 -9283.603)" fill="#dfe0e3"/>
        <path id="Trazado_633984" data-name="Trazado 633984" d="M729.5,315.67l-32.63,47.123q-3.475.934-7.08,1.594A86.984,86.984,0,0,1,588.653,294.36q-.369-2.035-.637-4.064l23.755-34.306Z" transform="translate(-2678.237 -9264.43)" fill="#cecaea"/>
        <g id="Grupo_948627" data-name="Grupo 948627" transform="translate(-2070.639 -9049.601)">
          <path id="Trazado_633985" data-name="Trazado 633985" d="M602.565,303.866a66.42,66.42,0,1,1,77.225,53.473A66.168,66.168,0,0,1,602.565,303.866Z" transform="translate(-601.484 -227.682)" fill="#e6e1fb"/>
        </g>
        <g id="aprendizaje_1_" data-name="aprendizaje(1)" transform="translate(-2044 -9027.062)">
          <g id="Grupo_948734" data-name="Grupo 948734" transform="translate(2.253 2.253)">
            <g id="Grupo_948718" data-name="Grupo 948718" transform="translate(12.532 26.318)">
              <path id="Trazado_634169" data-name="Trazado 634169" d="M64.635,23v7.219A6.573,6.573,0,0,1,61.013,36.1a6.645,6.645,0,0,1-2.945.689H45.837l-3.76,6.266-6.266-2.506-6.266,2.506-3.459-5.577L21.023,38.49a11.222,11.222,0,0,0-9.023,11V65.609a6.268,6.268,0,0,0,6.266,6.266h6.266V48.064a1.257,1.257,0,0,1,1.253-1.253H58.595A16.068,16.068,0,0,0,74.661,30.745V23Z" transform="translate(-12 -23)" fill="#45bbcc"/>
            </g>
            <g id="Grupo_948719" data-name="Grupo 948719" transform="translate(26.618 40.103)">
              <path id="Trazado_634170" data-name="Trazado 634170" d="M32.965,37.76,26.7,40.266,23.24,34.689,26.7,34Z" transform="translate(-23.24 -34)" fill="#45bbcc"/>
            </g>
            <g id="Grupo_948720" data-name="Grupo 948720" transform="translate(36.343 40.103)">
              <path id="Trazado_634171" data-name="Trazado 634171" d="M41.026,34l-3.76,6.266L31,37.76,37.266,34Z" transform="translate(-31 -34)" fill="#45bbcc"/>
            </g>
            <g id="Grupo_948721" data-name="Grupo 948721" transform="translate(25.064 70.18)">
              <path id="Trazado_634172" data-name="Trazado 634172" d="M52.077,58v3.76a1.257,1.257,0,0,1-1.253,1.253H22V58Z" transform="translate(-22 -58)" fill="#aab2bd"/>
            </g>
            <g id="Grupo_948722" data-name="Grupo 948722" transform="translate(25.064 50.129)">
              <path id="Trazado_634173" data-name="Trazado 634173" d="M52.077,42V62.051H22v-18.8A1.257,1.257,0,0,1,23.253,42H52.077Z" transform="translate(-22 -42)" fill="#ccd1d9"/>
            </g>
            <g id="Grupo_948723" data-name="Grupo 948723" transform="translate(37.597 57.648)">
              <circle id="Elipse_5420" data-name="Elipse 5420" cx="2.5" cy="2.5" r="2.5" transform="translate(0.15 -0.202)" fill="#ff826e"/>
            </g>
            <g id="Grupo_948724" data-name="Grupo 948724" transform="translate(62.661 8.773)">
              <path id="Trazado_634174" data-name="Trazado 634174" d="M54.506,16.519l.589-3.547a4.75,4.75,0,0,1,9.437.777v12.8H54.506l-1.04-1.04A5.018,5.018,0,0,1,52,21.958V19.026a2.514,2.514,0,0,1,2.506-2.506Z" transform="translate(-52 -9)" fill="#f0d0b4"/>
            </g>
            <g id="Grupo_948725" data-name="Grupo 948725" transform="translate(18.798)">
              <path id="Trazado_634175" data-name="Trazado 634175" d="M39.971,13.266a25.95,25.95,0,0,1-8.823-1.855l-.489-.188a6.305,6.305,0,0,0-8.647,5.853V20.8H20.76a3.728,3.728,0,0,0-2.569,1.015l-.79-3.171a13.566,13.566,0,0,1-.4-3.258A13.392,13.392,0,0,1,30.384,2H45.2a6.891,6.891,0,0,1,1.88,13.522,6.679,6.679,0,0,1-1.88.263H43.932A4.355,4.355,0,0,1,39.971,13.266Z" transform="translate(-17 -2)" fill="#656d78"/>
            </g>
            <g id="Grupo_948726" data-name="Grupo 948726" transform="translate(48.299 18.798)">
              <path id="Trazado_634176" data-name="Trazado 634176" d="M42.37,17a3.76,3.76,0,0,1,0,7.519H40.54a12.417,12.417,0,0,0,.576-3.76V17Z" transform="translate(-40.54 -17)" fill="#f0d0b4"/>
            </g>
            <g id="Grupo_948727" data-name="Grupo 948727" transform="translate(18.798 18.798)">
              <path id="Trazado_634177" data-name="Trazado 634177" d="M22.589,24.519H20.76a3.76,3.76,0,0,1,0-7.519h1.253v3.76a12.417,12.417,0,0,0,.576,3.76Z" transform="translate(-17 -17)" fill="#f0d0b4"/>
            </g>
            <g id="Grupo_948728" data-name="Grupo 948728" transform="translate(30.077 34.025)">
              <path id="Trazado_634178" data-name="Trazado 634178" d="M37.317,29.15l1.216,6.078-6.266,3.76L26,35.228l1.216-6.078a12.505,12.505,0,0,0,10.1,0Z" transform="translate(-26 -29.15)" fill="#f0d0b4"/>
            </g>
            <g id="Grupo_948729" data-name="Grupo 948729" transform="translate(23.811 8.773)">
              <path id="Trazado_634179" data-name="Trazado 634179" d="M46.064,19.026v3.76a12.532,12.532,0,1,1-25.064,0V15.3a6.305,6.305,0,0,1,8.647-5.853l.489.188a25.95,25.95,0,0,0,8.823,1.855,4.355,4.355,0,0,0,3.96,2.519h1.266a6.679,6.679,0,0,0,1.88-.263Z" transform="translate(-21 -9)" fill="#f0d0b4"/>
            </g>
            <g id="Grupo_948730" data-name="Grupo 948730" transform="translate(31.33 25.064)">
              <path id="Trazado_634180" data-name="Trazado 634180" d="M27,22H37.026A5.013,5.013,0,1,1,27,22Z" transform="translate(-27 -22)" fill="#ff826e"/>
            </g>
            <g id="Grupo_948731" data-name="Grupo 948731" transform="translate(3.81 36.619)">
              <path id="Trazado_634181" data-name="Trazado 634181" d="M12.459,31.22l-1,4.988a1.25,1.25,0,0,1-1.228,1H7.271a1.25,1.25,0,0,1-1.228-1l-1-4.988a7.527,7.527,0,0,0,7.419,0Z" transform="translate(-5.04 -31.22)" fill="#aab2bd"/>
            </g>
            <g id="Grupo_948732" data-name="Grupo 948732" transform="translate(0 22.558)">
              <path id="Trazado_634182" data-name="Trazado 634182" d="M9.519,35.039a7.413,7.413,0,0,1-3.71-.978,7.519,7.519,0,1,1,7.419,0A7.413,7.413,0,0,1,9.519,35.039Z" transform="translate(-2 -20)" fill="#ffeaa7"/>
            </g>
            <g id="Grupo_948733" data-name="Grupo 948733" transform="translate(5.013 27.571)">
              <circle id="Elipse_5421" data-name="Elipse 5421" cx="2.5" cy="2.5" r="2.5" transform="translate(-0.266 -0.125)" fill="#fcd770"/>
            </g>
          </g>
          <g id="Grupo_948735" data-name="Grupo 948735" transform="translate(1 1)">
            <path id="Trazado_634183" data-name="Trazado 634183" d="M27.76,18.506a1.254,1.254,0,0,1,1.253,1.253h2.506a3.76,3.76,0,1,0-7.519,0h2.506A1.254,1.254,0,0,1,27.76,18.506Z" transform="translate(4.824 2.798)"/>
            <path id="Trazado_634184" data-name="Trazado 634184" d="M35.76,18.506a1.254,1.254,0,0,1,1.253,1.253h2.506a3.76,3.76,0,0,0-7.519,0h2.506A1.254,1.254,0,0,1,35.76,18.506Z" transform="translate(6.85 2.798)"/>
            <path id="Trazado_634185" data-name="Trazado 634185" d="M38.532,22.253V21H26v1.253a6.266,6.266,0,0,0,12.532,0Zm-9.811,1.253H35.81a3.76,3.76,0,0,1-7.089,0Z" transform="translate(5.33 4.064)"/>
            <path id="Trazado_634186" data-name="Trazado 634186" d="M70.164,9.773a5.986,5.986,0,0,0-5.921,5.017L63.8,17.472a3.753,3.753,0,0,0-2.667,3.579v2.936a6.226,6.226,0,0,0,1.835,4.431l.672.67v6.7a5.31,5.31,0,0,1-5.309,5.31H43.358l-.826-4.126a13.859,13.859,0,0,0,6.36-7.153h.957a5.013,5.013,0,1,0,0-10.026V16.663A8.144,8.144,0,0,0,46.717,1H31.91A14.644,14.644,0,0,0,17.7,19.2l.638,2.55a4.963,4.963,0,0,0-1.075,3.064,5.018,5.018,0,0,0,5.013,5.013h.957a13.854,13.854,0,0,0,6.36,7.153l-.863,4.314-7.7,1.54A12.472,12.472,0,0,0,11,55.066V71.18A7.527,7.527,0,0,0,18.519,78.7h35.09a2.509,2.509,0,0,0,2.506-2.506V53.635h2.738A17.316,17.316,0,0,0,76.167,36.322V15.775a6.008,6.008,0,0,0-6-6ZM63.635,21.051A1.254,1.254,0,0,1,64.888,19.8h2.506a1.253,1.253,0,0,1,0,2.506H66.142v2.506h1.253a3.76,3.76,0,1,0,0-7.519H66.367l.348-2.092a3.5,3.5,0,0,1,6.945.575V27.318H65.407l-.67-.67a3.735,3.735,0,0,1-1.1-2.659ZM43.877,43.609l-2.072,3.453L38.877,45.89l3.8-2.281Zm8.479-18.8a2.509,2.509,0,0,1-2.506,2.506H49.61a13.772,13.772,0,0,0,.239-2.506V22.3A2.509,2.509,0,0,1,52.356,24.811ZM22.279,27.318a2.506,2.506,0,0,1,0-5.013v2.506a13.771,13.771,0,0,0,.239,2.506Zm0-9.987V19.8a4.965,4.965,0,0,0-1.757.335l-.387-1.545A12.138,12.138,0,0,1,31.91,3.506H46.717a5.639,5.639,0,1,1,0,11.279h-1.27a3.116,3.116,0,0,1-.986-6.072l.772-.257-.792-2.379-.772.258a5.611,5.611,0,0,0-3.845,5.332c0,.162.034.315.048.472a24.7,24.7,0,0,1-6.741-1.633l-.486-.2a7.559,7.559,0,0,0-10.365,7.018Zm2.506,7.48v-7.48a5.054,5.054,0,0,1,6.927-4.692l.486.2a27.23,27.23,0,0,0,8.537,1.882,5.614,5.614,0,0,0,4.712,2.575h1.27c.212,0,.419-.016.627-.031v7.551a11.279,11.279,0,1,1-22.558,0ZM36.064,38.6a13.752,13.752,0,0,0,4.111-.627l.753,3.766-4.864,2.919L31.2,41.736l.753-3.766A13.752,13.752,0,0,0,36.064,38.6Zm-6.5,5.083,3.684,2.211-2.945,1.178-1.954-3.146Zm-3.53,32.513V73.687H53.609v2.506ZM53.609,71.18H26.039V53.635H53.609ZM70,46.073a14.812,14.812,0,0,1-11.144,5.055H26.039a2.509,2.509,0,0,0-2.506,2.506V68.674H18.519V71.18h5.013v5.013H18.519a5.018,5.018,0,0,1-5.013-5.013V55.066a9.968,9.968,0,0,1,8.014-9.776l4.208-.842,3.559,5.728,6.665-2.666.112.066.112-.066,6.681,2.672L46.8,43.609H58.326a7.874,7.874,0,0,0,3.5-.825,7.772,7.772,0,0,0,4.32-6.99v-5.97h7.519v6.5A14.8,14.8,0,0,1,70,46.073Z" transform="translate(1.532 -1)"/>
            <path id="Trazado_634187" data-name="Trazado 634187" d="M34.76,54.519A3.76,3.76,0,1,0,31,50.76,3.764,3.764,0,0,0,34.76,54.519Zm0-5.013a1.253,1.253,0,1,1-1.253,1.253A1.254,1.254,0,0,1,34.76,49.506Z" transform="translate(6.597 10.648)"/>
            <path id="Trazado_634188" data-name="Trazado 634188" d="M14.6,35.09a8.773,8.773,0,1,0-9.655,0l.891,4.454a2.513,2.513,0,0,0,2.458,2.014h2.958a2.513,2.513,0,0,0,2.458-2.014ZM3.506,27.773a6.266,6.266,0,1,1,7.519,6.14V31.3a3.76,3.76,0,1,0-2.506,0v2.61A6.278,6.278,0,0,1,3.506,27.773Zm5.013,0a1.253,1.253,0,1,1,1.253,1.253A1.254,1.254,0,0,1,8.519,27.773ZM8.294,39.051,7.742,36.3a8.471,8.471,0,0,0,4.06,0l-.551,2.753Z" transform="translate(-1 3.558)"/>
            <path id="Trazado_634189" data-name="Trazado 634189" d="M7,13H9.506v5.013H7Z" transform="translate(0.519 2.039)"/>
            <path id="Trazado_634190" data-name="Trazado 634190" d="M0,0H2.506V5.014H0Z" transform="translate(1.387 16.758) rotate(-22.514)"/>
            <path id="Trazado_634191" data-name="Trazado 634191" d="M0,0H5.014V2.506H0Z" transform="translate(11.936 20.432) rotate(-67.486)"/>
          </g>
        </g>
      </g>
    </g>
  </g>
</svg>
