<svg xmlns="http://www.w3.org/2000/svg" xmlns:xlink="http://www.w3.org/1999/xlink" width="85" height="85" viewBox="0 0 85 85">
  <defs>
    <clipPath id="clip-path">
      <rect id="Rectángulo_34012" data-name="Rectángulo 34012" width="85" height="85" transform="translate(200 12037)" fill="#2ff980"/>
    </clipPath>
  </defs>
  <g id="Enmascarar_grupo_76" data-name="Enmascarar grupo 76" transform="translate(-200 -12037)" clip-path="url(#clip-path)">
    <g id="Grupo_948883" data-name="Grupo 948883" transform="translate(-32.261 5834.505)">
      <g id="Grupo_948883-2" data-name="Grupo 948883" transform="translate(239.999 6206)">
        <g id="preparar_1_" data-name="preparar(1)" transform="translate(0.731 0)">
          <path id="Trazado_634449" data-name="Trazado 634449" d="M277.43,92.738v4.973a3.485,3.485,0,0,1-2.906,3.448l-3.953.661a22.369,22.369,0,0,1-1.588,3.85l2.33,3.282a3.506,3.506,0,0,1-.378,4.5l-3.506,3.52a3.466,3.466,0,0,1-4.482.378l-3.258-2.338a22.267,22.267,0,0,1-3.835,1.594l-.672,3.968a3.479,3.479,0,0,1-3.434,2.917h-9.666V108.617h2.71a13.392,13.392,0,0,0,0-26.783h-2.71V66.961h9.56a3.481,3.481,0,0,1,3.435,2.917l.658,3.92a22.118,22.118,0,0,1,3.976,1.642l3.271-2.338A3.411,3.411,0,0,1,265,72.453a3.448,3.448,0,0,1,2.458,1.027L270.959,77a3.489,3.489,0,0,1,.376,4.5l-2.328,3.27a22.587,22.587,0,0,1,1.588,3.85l3.952.673A3.444,3.444,0,0,1,277.43,92.738Z" transform="translate(-211.853 -56.949)" fill="#397a84"/>
          <path id="Trazado_634450" data-name="Trazado 634450" d="M277.43,256v2.486a3.485,3.485,0,0,1-2.906,3.448l-3.953.661a22.369,22.369,0,0,1-1.588,3.85l2.33,3.282a3.505,3.505,0,0,1-.378,4.5l-3.506,3.52a3.466,3.466,0,0,1-4.482.378l-3.258-2.338a22.266,22.266,0,0,1-3.835,1.594l-.672,3.968a3.479,3.479,0,0,1-3.434,2.917h-9.666V269.392h2.71A13.366,13.366,0,0,0,258.135,256h19.3Z" transform="translate(-211.853 -217.724)" fill="#2a5959"/>
          <path id="Trazado_634451" data-name="Trazado 634451" d="M67.67,9.077V65.106c.046,6.013-4.752,11.394-10.72,11.441A10.783,10.783,0,0,1,47.118,70.3a8.837,8.837,0,0,1-1.022.112c-5.116.04-9.3-4.572-9.338-9.729a9.369,9.369,0,0,1,.266-2.189,9.261,9.261,0,0,1-1.07-13.362,10.551,10.551,0,0,1-2.455-6.67c0-.063,0-.126,0-.187a9.326,9.326,0,0,1,4.261-7.718,9.291,9.291,0,0,1-1.27-4.565,9.993,9.993,0,0,1,6.375-9.367A7.886,7.886,0,0,1,44.8,9.066a7.694,7.694,0,0,1,4.4-2.241C50.421,3.153,53.849.028,57.907,0c5.116-.038,9.724,3.925,9.763,9.08Z" transform="translate(-33.499 0.004)" fill="#583ae2"/>
          <path id="Trazado_634452" data-name="Trazado 634452" d="M67.67,256v26.834c.046,6.013-4.752,11.394-10.72,11.441a10.783,10.783,0,0,1-9.832-6.251,8.827,8.827,0,0,1-1.022.112c-5.116.04-9.3-4.572-9.338-9.729a9.369,9.369,0,0,1,.266-2.189,9.261,9.261,0,0,1-1.07-13.362,10.55,10.55,0,0,1-2.455-6.67c0-.063,0-.126,0-.187H67.67Z" transform="translate(-33.499 -217.723)" fill="#c4baf5"/>
          <path id="Trazado_634453" data-name="Trazado 634453" d="M118.891,370.948a3.377,3.377,0,0,1-3.364-3.382,2.239,2.239,0,1,0-4.477,0,7.863,7.863,0,0,0,7.842,7.867,2.243,2.243,0,0,0,0-4.485Z" transform="translate(-99.651 -310.703)" fill="#e6e1fb"/>
          <path id="Trazado_634454" data-name="Trazado 634454" d="M114.269,160.912a2.242,2.242,0,0,0,2.049-3.144,1.993,1.993,0,0,1,1.015-2.62,2.242,2.242,0,0,0-1.8-4.106,6.488,6.488,0,0,0-3.312,8.527A2.238,2.238,0,0,0,114.269,160.912Z" transform="translate(-100.174 -128.297)" fill="#342287"/>
          <path id="Trazado_634455" data-name="Trazado 634455" d="M146.461,288.132a3.23,3.23,0,0,1-3.219-3.235,2.239,2.239,0,1,0-4.477,0,7.717,7.717,0,0,0,7.7,7.72,2.243,2.243,0,0,0,0-4.485Z" transform="translate(-123.292 -240.393)" fill="#e6e1fb"/>
          <path id="Trazado_634456" data-name="Trazado 634456" d="M166.58,90.483a6.753,6.753,0,0,0-5.044-1.341,2.243,2.243,0,0,0,.6,4.445,2.311,2.311,0,0,1,1.727.459,2.337,2.337,0,0,1,.9,1.556,2.239,2.239,0,1,0,4.437-.6A6.793,6.793,0,0,0,166.58,90.483Z" transform="translate(-141.06 -75.76)" fill="#342287"/>
        </g>
        <g id="preparar" transform="translate(0 0)">
          <path id="Trazado_634457" data-name="Trazado 634457" d="M110.807,358.919a3.38,3.38,0,0,1-3.371-3.382,2.243,2.243,0,1,0-4.485,0,7.87,7.87,0,0,0,7.856,7.867,2.243,2.243,0,1,0,0-4.485Z" transform="translate(-91.072 -300.473)"/>
          <path id="Trazado_634458" data-name="Trazado 634458" d="M106.179,158.881a2.244,2.244,0,0,0,2.053-3.144,1.992,1.992,0,0,1,1.017-2.62,2.243,2.243,0,0,0-1.806-4.106,6.484,6.484,0,0,0-3.319,8.527A2.243,2.243,0,0,0,106.179,158.881Z" transform="translate(-91.606 -126.57)"/>
          <path id="Trazado_634459" data-name="Trazado 634459" d="M138.429,266.1a3.233,3.233,0,0,1-3.224-3.235,2.243,2.243,0,1,0-4.485,0,7.724,7.724,0,0,0,7.71,7.721,2.243,2.243,0,1,0,0-4.485Z" transform="translate(-114.688 -221.657)"/>
          <path id="Trazado_634460" data-name="Trazado 634460" d="M158.587,88.451a6.775,6.775,0,0,0-5.053-1.341,2.243,2.243,0,0,0,.6,4.445,2.343,2.343,0,0,1,2.632,2.015,2.243,2.243,0,1,0,4.445-.6,6.793,6.793,0,0,0-2.623-4.523Z" transform="translate(-132.439 -74.033)"/>
          <path id="Trazado_634461" data-name="Trazado 634461" d="M88.268,30.131l-2.644-.449q-.312-.838-.681-1.649L86.5,25.847a5.71,5.71,0,0,0-.618-7.382l-3.512-3.519A5.7,5.7,0,0,0,75,14.327l-2.185,1.559q-.884-.406-1.784-.737L70.6,12.558a5.717,5.717,0,0,0-5.653-4.789H59.866a10.727,10.727,0,0,0-3.089-4.751A11.854,11.854,0,0,0,48.92,0h-.087a11.286,11.286,0,0,0-9.87,6.739,9.622,9.622,0,0,0-4.124,2.47,9.368,9.368,0,0,0-2.712,7.373,11.73,11.73,0,0,0-5.795,10.146,10.63,10.63,0,0,0,.663,3.615,10.949,10.949,0,0,0-3.5,8.123,12.493,12.493,0,0,0,1.779,6.255,10.892,10.892,0,0,0,1.38,13.4,9.853,9.853,0,0,0-.074,1.268,11.808,11.808,0,0,0,3.233,7.939,10.7,10.7,0,0,0,7.558,3.443A12.5,12.5,0,0,0,47.867,76.55h.095a12.65,12.65,0,0,0,11.3-7.769h5.79A5.716,5.716,0,0,0,70.7,64l.449-2.652q.834-.311,1.639-.679l2.167,1.552a5.719,5.719,0,0,0,7.39-.612l3.512-3.519a5.728,5.728,0,0,0,.618-7.383l-1.561-2.2q.376-.822.683-1.646l2.639-.441a5.72,5.72,0,0,0,4.782-5.66V35.8a5.665,5.665,0,0,0-4.754-5.673ZM53.511,69.5a7.683,7.683,0,0,1-5.583,2.561h-.06a8.013,8.013,0,0,1-7.2-4.6,2.242,2.242,0,0,0-2.3-1.268c-.109.013-.218.029-.326.044a3.711,3.711,0,0,1-.389.045h-.045a6.244,6.244,0,0,1-4.533-2.046,7.275,7.275,0,0,1-2-4.888,6.494,6.494,0,0,1,.194-1.537,2.243,2.243,0,0,0-.762-2.24,6.441,6.441,0,0,1-.756-9.358,2.243,2.243,0,0,0-.023-3,7.646,7.646,0,0,1-1.738-4.785,6.511,6.511,0,0,1,3.009-5.539,2.243,2.243,0,0,0,.727-3,6.452,6.452,0,0,1-.9-3.2A7.189,7.189,0,0,1,35.369,20a2.243,2.243,0,0,0,1.485-2.133,2.34,2.34,0,0,0-.094-.623,5.076,5.076,0,0,1,4.165-6.358,2.243,2.243,0,0,0,1.809-1.508c.809-2.416,3.176-4.874,6.135-4.9h.056c3.731,0,6.9,2.879,6.928,6.314V63.555A8.752,8.752,0,0,1,53.511,69.5Zm6.826-42.148a11.157,11.157,0,0,1,0,21.84Zm28.2,8.4c0,.01,0,.021,0,.031v4.971A1.247,1.247,0,0,1,87.5,42l-3.96.661a2.243,2.243,0,0,0-1.777,1.562,20.074,20.074,0,0,1-1.432,3.461,2.243,2.243,0,0,0,.16,2.339L82.823,53.3a1.254,1.254,0,0,1-.136,1.616l-3.512,3.519a1.233,1.233,0,0,1-1.6.139l-3.265-2.338a2.243,2.243,0,0,0-2.356-.158A20.162,20.162,0,0,1,68.5,57.512a2.243,2.243,0,0,0-1.547,1.768l-.673,3.972A1.245,1.245,0,0,1,65.052,64.3H60.319q.02-.381.017-.768V53.748a15.64,15.64,0,0,0,0-30.945V12.254h4.608a1.245,1.245,0,0,1,1.23,1.046l.66,3.92A2.243,2.243,0,0,0,68.4,19a19.906,19.906,0,0,1,3.579,1.476,2.243,2.243,0,0,0,2.351-.157l3.286-2.345a1.179,1.179,0,0,1,.7-.226,1.215,1.215,0,0,1,.876.369l3.52,3.527a1.242,1.242,0,0,1,.131,1.6l-2.333,3.271a2.243,2.243,0,0,0-.158,2.349,20.262,20.262,0,0,1,1.432,3.465,2.243,2.243,0,0,0,1.767,1.549l3.964.674a1.205,1.205,0,0,1,1.017,1.206Z" transform="translate(-23.499 0)"/>
        </g>
      </g>
    </g>
  </g>
</svg>
