<svg xmlns="http://www.w3.org/2000/svg" width="295" height="317.972" viewBox="0 0 295 317.972">
  <g id="Grupo_949238" data-name="Grupo 949238" transform="translate(-71.612 -4568.943)">
    <path id="Trazado_634706" data-name="Trazado 634706" d="M376.428,4803.283c-4.06-28.516-49.325-34.247-41.013-85.839,6.255-38.826-43.137-109.257-77.3-102.125-25.956,5.419-13.16,36.251-31.8,45.56-11.6,5.8-16.891-10.586-32.19-4.5-18,7.166-10.549,48.106-41.959,67.039-28.888,17.413-50.717,11.07-58.4,33.691-8.684,25.571,17.269,31.728,12.937,49.2-5.375,21.683-24.719,19.657-20.649,44.335,8.072,48.938,93.3,66.2,146.262,66.2S383.99,4856.384,376.428,4803.283Z" transform="translate(-13.886 -45.873)" fill="#e6e1fb"/>
    <g id="Grupo_949238-2" data-name="Grupo 949238" transform="translate(234.414 4596.386)">
      <path id="Rectángulo_42007" data-name="Rectángulo 42007" d="M15.156,0H51A15.157,15.157,0,0,1,66.157,15.157V51.144A15.157,15.157,0,0,1,51,66.3H15.156A15.156,15.156,0,0,1,0,51.144V15.156A15.156,15.156,0,0,1,15.156,0Z" transform="translate(0.811 0.815)" fill="#fffdf7"/>
      <path id="Trazado_634707" data-name="Trazado 634707" d="M418.618,4696.321H388.866a19.057,19.057,0,0,1-19.014-19.057v-29.817a19.057,19.057,0,0,1,19.014-19.057h29.752a19.058,19.058,0,0,1,19.016,19.057v29.817A19.058,19.058,0,0,1,418.618,4696.321Zm-29.752-66.3a17.426,17.426,0,0,0-17.388,17.427v29.817a17.427,17.427,0,0,0,17.388,17.428h29.752a17.429,17.429,0,0,0,17.389-17.428v-29.817a17.428,17.428,0,0,0-17.389-17.427Z" transform="translate(-369.852 -4628.39)" fill="#32293a"/>
    </g>
    <path id="Trazado_634708" data-name="Trazado 634708" d="M330.262,4699.967c-3.036-3.9-.036-9.916,5.65-10.762s11.141,3.978,12.529,9.207c3.955-1,7.481,4.981,5.981,8.381,3.153,6.517-6.651,11.655-6.651,11.655s-9.415-1.244-9.474-1.485S330.262,4699.967,330.262,4699.967Z" transform="translate(-71.998 -33.666)" fill="#32293a"/>
    <g id="Grupo_949261" data-name="Grupo 949261" transform="translate(81.563 4613.926)">
      <g id="Grupo_949239" data-name="Grupo 949239" transform="translate(13.437 0)">
        <path id="Trazado_634709" data-name="Trazado 634709" d="M185.809,4636.729l-3.38,34.4a69.1,69.1,0,0,1-29.114,48.241l-5.858,4.072a4.092,4.092,0,0,1-4.684-.008l-5.8-4.06a69.1,69.1,0,0,1-28.942-48.122l-3.4-34.526a4.106,4.106,0,0,1,4.069-4.615c4.146,0,67.681.221,73.039,0A4.059,4.059,0,0,1,185.809,4636.729Z" transform="translate(-104.113 -4631.624)" fill="#25c766"/>
        <path id="Trazado_634710" data-name="Trazado 634710" d="M144.93,4724.47a4.581,4.581,0,0,1-2.627-.823l-5.8-4.061a69.691,69.691,0,0,1-29.147-48.459l-3.4-34.539a4.593,4.593,0,0,1,4.553-5.15c.74,0,3.369.007,7.221.017,18.376.049,61.406.165,65.8-.017a4.355,4.355,0,0,1,3.373,1.422,4.665,4.665,0,0,1,1.2,3.734l-3.378,34.394a69.671,69.671,0,0,1-29.322,48.594l-5.859,4.072A4.574,4.574,0,0,1,144.93,4724.47Zm-36.419-92.058a3.617,3.617,0,0,0-3.586,4.067l3.4,34.538a68.707,68.707,0,0,0,28.737,47.771l5.8,4.059a3.624,3.624,0,0,0,4.129.006l5.858-4.072a68.694,68.694,0,0,0,28.909-47.9l3.38-34.4a3.7,3.7,0,0,0-.949-2.958,3.33,3.33,0,0,0-2.618-1.109c-4.414.181-47.461.066-65.842.018C111.878,4632.419,109.251,4632.413,108.511,4632.413Z" transform="translate(-103.923 -4631.435)" fill="#32293a"/>
      </g>
      <g id="Grupo_949240" data-name="Grupo 949240" transform="translate(0 28.937)">
        <rect id="Rectángulo_42008" data-name="Rectángulo 42008" width="108.114" height="23.76" rx="11.88" transform="translate(0.487 0.488)" fill="#1c954d"/>
        <path id="Trazado_634711" data-name="Trazado 634711" d="M182,4696.37H97.6a12.368,12.368,0,0,1,0-24.736H182a12.368,12.368,0,0,1,0,24.736ZM97.6,4672.609a11.392,11.392,0,0,0,0,22.785H182a11.392,11.392,0,0,0,0-22.785Z" transform="translate(-85.256 -4671.633)" fill="#32293a"/>
      </g>
      <g id="Grupo_949260" data-name="Grupo 949260" transform="translate(8.039 38.255)">
        <g id="Grupo_949241" data-name="Grupo 949241" transform="translate(0.424 0.425)">
          <path id="Trazado_634712" data-name="Trazado 634712" d="M97.013,4687.944a2.769,2.769,0,1,1,2.768,2.775A2.772,2.772,0,0,1,97.013,4687.944Z" transform="translate(-97.013 -4685.169)" fill="#fffdf7"/>
          <path id="Trazado_634713" data-name="Trazado 634713" d="M114.181,4687.944a2.769,2.769,0,1,1,2.768,2.775A2.772,2.772,0,0,1,114.181,4687.944Z" transform="translate(-101.823 -4685.169)" fill="#fffdf7"/>
          <path id="Trazado_634714" data-name="Trazado 634714" d="M131.349,4687.944a2.769,2.769,0,1,1,2.768,2.775A2.772,2.772,0,0,1,131.349,4687.944Z" transform="translate(-106.633 -4685.169)" fill="#fffdf7"/>
          <path id="Trazado_634715" data-name="Trazado 634715" d="M148.517,4687.944a2.769,2.769,0,1,1,2.768,2.775A2.772,2.772,0,0,1,148.517,4687.944Z" transform="translate(-111.443 -4685.169)" fill="#fffdf7"/>
          <path id="Trazado_634716" data-name="Trazado 634716" d="M165.685,4687.944a2.769,2.769,0,1,1,2.769,2.775A2.772,2.772,0,0,1,165.685,4687.944Z" transform="translate(-116.253 -4685.169)" fill="#fffdf7"/>
          <path id="Trazado_634717" data-name="Trazado 634717" d="M182.854,4687.944a2.768,2.768,0,1,1,2.768,2.775A2.771,2.771,0,0,1,182.854,4687.944Z" transform="translate(-121.063 -4685.169)" fill="#fffdf7"/>
          <path id="Trazado_634718" data-name="Trazado 634718" d="M200.021,4687.944a2.769,2.769,0,1,1,2.769,2.775A2.772,2.772,0,0,1,200.021,4687.944Z" transform="translate(-125.872 -4685.169)" fill="#fffdf7"/>
          <ellipse id="Elipse_5433" data-name="Elipse 5433" cx="2.769" cy="2.775" rx="2.769" ry="2.775" transform="translate(86.507 0)" fill="#fffdf7"/>
        </g>
        <g id="Grupo_949250" data-name="Grupo 949250">
          <g id="Grupo_949242" data-name="Grupo 949242">
            <path id="Trazado_634719" data-name="Trazado 634719" d="M97.013,4687.944a2.769,2.769,0,1,1,2.768,2.775A2.772,2.772,0,0,1,97.013,4687.944Z" transform="translate(-96.589 -4684.745)" fill="#fffdf7"/>
            <path id="Trazado_634720" data-name="Trazado 634720" d="M99.616,4690.979a3.2,3.2,0,1,1,3.192-3.2A3.2,3.2,0,0,1,99.616,4690.979Zm0-5.55a2.35,2.35,0,1,0,2.345,2.351A2.351,2.351,0,0,0,99.616,4685.428Z" transform="translate(-96.424 -4684.579)" fill="#32293a"/>
          </g>
          <g id="Grupo_949243" data-name="Grupo 949243" transform="translate(12.36)">
            <path id="Trazado_634721" data-name="Trazado 634721" d="M114.181,4687.944a2.769,2.769,0,1,1,2.768,2.775A2.772,2.772,0,0,1,114.181,4687.944Z" transform="translate(-113.758 -4684.745)" fill="#fffdf7"/>
            <path id="Trazado_634722" data-name="Trazado 634722" d="M116.785,4690.979a3.2,3.2,0,1,1,3.192-3.2A3.2,3.2,0,0,1,116.785,4690.979Zm0-5.55a2.35,2.35,0,1,0,2.346,2.351A2.351,2.351,0,0,0,116.785,4685.428Z" transform="translate(-113.594 -4684.579)" fill="#32293a"/>
          </g>
          <g id="Grupo_949244" data-name="Grupo 949244" transform="translate(24.717)">
            <path id="Trazado_634723" data-name="Trazado 634723" d="M131.349,4687.944a2.769,2.769,0,1,1,2.768,2.775A2.772,2.772,0,0,1,131.349,4687.944Z" transform="translate(-130.926 -4684.745)" fill="#fffdf7"/>
            <path id="Trazado_634724" data-name="Trazado 634724" d="M133.953,4690.979a3.2,3.2,0,1,1,3.192-3.2A3.2,3.2,0,0,1,133.953,4690.979Zm0-5.55a2.35,2.35,0,1,0,2.346,2.351A2.351,2.351,0,0,0,133.953,4685.428Z" transform="translate(-130.761 -4684.579)" fill="#32293a"/>
          </g>
          <g id="Grupo_949245" data-name="Grupo 949245" transform="translate(37.075)">
            <path id="Trazado_634725" data-name="Trazado 634725" d="M148.517,4687.944a2.769,2.769,0,1,1,2.768,2.775A2.772,2.772,0,0,1,148.517,4687.944Z" transform="translate(-148.094 -4684.745)" fill="#fffdf7"/>
            <path id="Trazado_634726" data-name="Trazado 634726" d="M151.121,4690.979a3.2,3.2,0,1,1,3.192-3.2A3.2,3.2,0,0,1,151.121,4690.979Zm0-5.55a2.35,2.35,0,1,0,2.345,2.351A2.351,2.351,0,0,0,151.121,4685.428Z" transform="translate(-147.929 -4684.579)" fill="#32293a"/>
          </g>
          <g id="Grupo_949246" data-name="Grupo 949246" transform="translate(49.433)">
            <path id="Trazado_634727" data-name="Trazado 634727" d="M165.685,4687.944a2.769,2.769,0,1,1,2.769,2.775A2.772,2.772,0,0,1,165.685,4687.944Z" transform="translate(-165.262 -4684.745)" fill="#fffdf7"/>
            <path id="Trazado_634728" data-name="Trazado 634728" d="M168.289,4690.979a3.2,3.2,0,1,1,3.192-3.2A3.2,3.2,0,0,1,168.289,4690.979Zm0-5.55a2.35,2.35,0,1,0,2.346,2.351A2.35,2.35,0,0,0,168.289,4685.428Z" transform="translate(-165.097 -4684.579)" fill="#32293a"/>
          </g>
          <g id="Grupo_949247" data-name="Grupo 949247" transform="translate(61.792)">
            <path id="Trazado_634729" data-name="Trazado 634729" d="M182.854,4687.944a2.768,2.768,0,1,1,2.768,2.775A2.771,2.771,0,0,1,182.854,4687.944Z" transform="translate(-182.431 -4684.745)" fill="#fffdf7"/>
            <path id="Trazado_634730" data-name="Trazado 634730" d="M185.457,4690.979a3.2,3.2,0,1,1,3.193-3.2A3.2,3.2,0,0,1,185.457,4690.979Zm0-5.55a2.35,2.35,0,1,0,2.347,2.351A2.351,2.351,0,0,0,185.457,4685.428Z" transform="translate(-182.266 -4684.579)" fill="#32293a"/>
          </g>
          <g id="Grupo_949248" data-name="Grupo 949248" transform="translate(74.15)">
            <path id="Trazado_634731" data-name="Trazado 634731" d="M200.021,4687.944a2.769,2.769,0,1,1,2.769,2.775A2.772,2.772,0,0,1,200.021,4687.944Z" transform="translate(-199.598 -4684.745)" fill="#fffdf7"/>
            <path id="Trazado_634732" data-name="Trazado 634732" d="M202.625,4690.979a3.2,3.2,0,1,1,3.193-3.2A3.2,3.2,0,0,1,202.625,4690.979Zm0-5.55a2.35,2.35,0,1,0,2.346,2.351A2.35,2.35,0,0,0,202.625,4685.428Z" transform="translate(-199.434 -4684.579)" fill="#32293a"/>
          </g>
          <g id="Grupo_949249" data-name="Grupo 949249" transform="translate(86.507)">
            <ellipse id="Elipse_5434" data-name="Elipse 5434" cx="2.769" cy="2.775" rx="2.769" ry="2.775" transform="translate(0.424 0.425)" fill="#fffdf7"/>
            <path id="Trazado_634733" data-name="Trazado 634733" d="M219.794,4690.979a3.2,3.2,0,1,1,3.191-3.2A3.2,3.2,0,0,1,219.794,4690.979Zm0-5.55a2.35,2.35,0,1,0,2.344,2.351A2.35,2.35,0,0,0,219.794,4685.428Z" transform="translate(-216.601 -4684.579)" fill="#32293a"/>
          </g>
        </g>
        <g id="Grupo_949259" data-name="Grupo 949259">
          <g id="Grupo_949251" data-name="Grupo 949251">
            <path id="Trazado_634734" data-name="Trazado 634734" d="M97.013,4687.944a2.769,2.769,0,1,1,2.768,2.775A2.772,2.772,0,0,1,97.013,4687.944Z" transform="translate(-96.589 -4684.745)" fill="#fffdf7"/>
            <path id="Trazado_634735" data-name="Trazado 634735" d="M99.616,4690.979a3.2,3.2,0,1,1,3.192-3.2A3.2,3.2,0,0,1,99.616,4690.979Zm0-5.55a2.35,2.35,0,1,0,2.345,2.351A2.351,2.351,0,0,0,99.616,4685.428Z" transform="translate(-96.424 -4684.579)" fill="#32293a"/>
          </g>
          <g id="Grupo_949252" data-name="Grupo 949252" transform="translate(12.36)">
            <path id="Trazado_634736" data-name="Trazado 634736" d="M114.181,4687.944a2.769,2.769,0,1,1,2.768,2.775A2.772,2.772,0,0,1,114.181,4687.944Z" transform="translate(-113.758 -4684.745)" fill="#fffdf7"/>
            <path id="Trazado_634737" data-name="Trazado 634737" d="M116.785,4690.979a3.2,3.2,0,1,1,3.192-3.2A3.2,3.2,0,0,1,116.785,4690.979Zm0-5.55a2.35,2.35,0,1,0,2.346,2.351A2.351,2.351,0,0,0,116.785,4685.428Z" transform="translate(-113.594 -4684.579)" fill="#32293a"/>
          </g>
          <g id="Grupo_949253" data-name="Grupo 949253" transform="translate(24.717)">
            <path id="Trazado_634738" data-name="Trazado 634738" d="M131.349,4687.944a2.769,2.769,0,1,1,2.768,2.775A2.772,2.772,0,0,1,131.349,4687.944Z" transform="translate(-130.926 -4684.745)" fill="#fffdf7"/>
            <path id="Trazado_634739" data-name="Trazado 634739" d="M133.953,4690.979a3.2,3.2,0,1,1,3.192-3.2A3.2,3.2,0,0,1,133.953,4690.979Zm0-5.55a2.35,2.35,0,1,0,2.346,2.351A2.351,2.351,0,0,0,133.953,4685.428Z" transform="translate(-130.761 -4684.579)" fill="#32293a"/>
          </g>
          <g id="Grupo_949254" data-name="Grupo 949254" transform="translate(37.075)">
            <path id="Trazado_634740" data-name="Trazado 634740" d="M148.517,4687.944a2.769,2.769,0,1,1,2.768,2.775A2.772,2.772,0,0,1,148.517,4687.944Z" transform="translate(-148.094 -4684.745)" fill="#fffdf7"/>
            <path id="Trazado_634741" data-name="Trazado 634741" d="M151.121,4690.979a3.2,3.2,0,1,1,3.192-3.2A3.2,3.2,0,0,1,151.121,4690.979Zm0-5.55a2.35,2.35,0,1,0,2.345,2.351A2.351,2.351,0,0,0,151.121,4685.428Z" transform="translate(-147.929 -4684.579)" fill="#32293a"/>
          </g>
          <g id="Grupo_949255" data-name="Grupo 949255" transform="translate(49.433)">
            <path id="Trazado_634742" data-name="Trazado 634742" d="M165.685,4687.944a2.769,2.769,0,1,1,2.769,2.775A2.772,2.772,0,0,1,165.685,4687.944Z" transform="translate(-165.262 -4684.745)" fill="#fffdf7"/>
            <path id="Trazado_634743" data-name="Trazado 634743" d="M168.289,4690.979a3.2,3.2,0,1,1,3.192-3.2A3.2,3.2,0,0,1,168.289,4690.979Zm0-5.55a2.35,2.35,0,1,0,2.346,2.351A2.35,2.35,0,0,0,168.289,4685.428Z" transform="translate(-165.097 -4684.579)" fill="#32293a"/>
          </g>
          <g id="Grupo_949256" data-name="Grupo 949256" transform="translate(61.792)">
            <path id="Trazado_634744" data-name="Trazado 634744" d="M182.854,4687.944a2.768,2.768,0,1,1,2.768,2.775A2.771,2.771,0,0,1,182.854,4687.944Z" transform="translate(-182.431 -4684.745)" fill="#fffdf7"/>
            <path id="Trazado_634745" data-name="Trazado 634745" d="M185.457,4690.979a3.2,3.2,0,1,1,3.193-3.2A3.2,3.2,0,0,1,185.457,4690.979Zm0-5.55a2.35,2.35,0,1,0,2.347,2.351A2.351,2.351,0,0,0,185.457,4685.428Z" transform="translate(-182.266 -4684.579)" fill="#32293a"/>
          </g>
          <g id="Grupo_949257" data-name="Grupo 949257" transform="translate(74.15)">
            <path id="Trazado_634746" data-name="Trazado 634746" d="M200.021,4687.944a2.769,2.769,0,1,1,2.769,2.775A2.772,2.772,0,0,1,200.021,4687.944Z" transform="translate(-199.598 -4684.745)" fill="#fffdf7"/>
            <path id="Trazado_634747" data-name="Trazado 634747" d="M202.625,4690.979a3.2,3.2,0,1,1,3.193-3.2A3.2,3.2,0,0,1,202.625,4690.979Zm0-5.55a2.35,2.35,0,1,0,2.346,2.351A2.35,2.35,0,0,0,202.625,4685.428Z" transform="translate(-199.434 -4684.579)" fill="#32293a"/>
          </g>
          <g id="Grupo_949258" data-name="Grupo 949258" transform="translate(86.507)">
            <ellipse id="Elipse_5435" data-name="Elipse 5435" cx="2.769" cy="2.775" rx="2.769" ry="2.775" transform="translate(0.424 0.425)" fill="#fffdf7"/>
            <path id="Trazado_634748" data-name="Trazado 634748" d="M219.794,4690.979a3.2,3.2,0,1,1,3.191-3.2A3.2,3.2,0,0,1,219.794,4690.979Zm0-5.55a2.35,2.35,0,1,0,2.344,2.351A2.35,2.35,0,0,0,219.794,4685.428Z" transform="translate(-216.601 -4684.579)" fill="#32293a"/>
          </g>
        </g>
      </g>
    </g>
    <g id="Grupo_949262" data-name="Grupo 949262" transform="translate(203.426 4806.837)">
      <path id="Rectángulo_42009" data-name="Rectángulo 42009" d="M14.268,0H132.862a14.269,14.269,0,0,1,14.269,14.269V64.828A14.269,14.269,0,0,1,132.862,79.1H14.269A14.269,14.269,0,0,1,0,64.828V14.268A14.268,14.268,0,0,1,14.268,0Z" transform="translate(0.487 0.487)" fill="#e2e0eb"/>
      <path id="Trazado_634749" data-name="Trazado 634749" d="M391.908,4979.5H265.3a10.771,10.771,0,0,1-10.747-10.771V4910.2a10.771,10.771,0,0,1,10.747-10.77H391.908a10.771,10.771,0,0,1,10.746,10.77v58.532A10.77,10.77,0,0,1,391.908,4979.5ZM265.3,4900.4a9.8,9.8,0,0,0-9.773,9.794v58.532a9.8,9.8,0,0,0,9.773,9.8H391.908a9.8,9.8,0,0,0,9.773-9.8V4910.2a9.8,9.8,0,0,0-9.773-9.794Z" transform="translate(-254.55 -4899.428)" fill="#32293a"/>
    </g>
    <g id="Grupo_949269" data-name="Grupo 949269" transform="translate(72.073 4789.497)">
      <path id="Trazado_634750" data-name="Trazado 634750" d="M129.747,4892.091l14.736,13.7,11.7-12.643-14.736-13.7Z" transform="translate(-88.231 -4876.49)" fill="#f4c7a8"/>
      <path id="Trazado_634751" data-name="Trazado 634751" d="M135.681,4904.205l.971-1.049a2.834,2.834,0,0,0-.15-4l-.688-.64a2.821,2.821,0,0,0-2.9-.581l-2.763,1.023a2.82,2.82,0,0,1-2.9-.58l-5.958-5.54a2.833,2.833,0,0,1-.881-2.43l.97-7.672a2.834,2.834,0,0,0-.881-2.43h0a3.471,3.471,0,0,0-2.141-.747c-9.8-.9-20-2.269-29.6-3.93-1.551-.268-3.094-.566-4.478.187l-5.553,3.017,43.1,40.067Z" transform="translate(-73.939 -4875.339)" fill="#25c766"/>
      <g id="Grupo_949263" data-name="Grupo 949263" transform="translate(0 3.007)">
        <path id="Trazado_634752" data-name="Trazado 634752" d="M114.809,4925.272a2.293,2.293,0,0,1-1.566-.614l-40.434-37.592a2.314,2.314,0,0,1-.122-3.261l3.826-4.134a.487.487,0,0,1,.713.664l-3.826,4.132a1.337,1.337,0,0,0,.071,1.885l40.433,37.59a1.332,1.332,0,0,0,1.882-.07l3.824-4.133a.487.487,0,0,1,.713.664l-3.825,4.133A2.3,2.3,0,0,1,114.809,4925.272Z" transform="translate(-72.073 -4879.516)" fill="#32293a"/>
      </g>
      <g id="Grupo_949264" data-name="Grupo 949264" transform="translate(39.113 32.182)">
        <path id="Trazado_634753" data-name="Trazado 634753" d="M126.646,4923.847l-.236-.945,10.685-2.683a5.673,5.673,0,0,1,5.262,1.354l1.183,1.1-.661.715-1.183-1.1a4.71,4.71,0,0,0-4.365-1.123Z" transform="translate(-126.41 -4920.046)" fill="#32293a"/>
      </g>
      <g id="Grupo_949265" data-name="Grupo 949265" transform="translate(19.994 1.274)">
        <path id="Trazado_634754" data-name="Trazado 634754" d="M116.4,4888.232a2.932,2.932,0,0,1-.489-.042l-13.676-2.334a2.87,2.87,0,0,1-2.34-3.324l.944-5.423.958.167-.944,5.424a1.893,1.893,0,0,0,1.546,2.195l13.676,2.334a1.891,1.891,0,0,0,2.2-1.65l.71-6.143.967.113-.71,6.142a2.868,2.868,0,0,1-2.838,2.542Z" transform="translate(-99.849 -4877.108)" fill="#32293a"/>
      </g>
      <g id="Grupo_949266" data-name="Grupo 949266" transform="translate(33.445 2.8)">
        <path id="Trazado_634755" data-name="Trazado 634755" d="M120.281,4879.906l-1.07,7.858Z" transform="translate(-118.724 -4879.418)" fill="#ffcc38"/>
        <path id="Trazado_634756" data-name="Trazado 634756" d="M119.022,4888.063a.432.432,0,0,1-.066,0,.488.488,0,0,1-.417-.55l1.07-7.858a.487.487,0,1,1,.965.132l-1.07,7.858A.489.489,0,0,1,119.022,4888.063Z" transform="translate(-118.535 -4879.229)" fill="#32293a"/>
      </g>
      <g id="Grupo_949267" data-name="Grupo 949267" transform="translate(29.03 2.202)">
        <path id="Trazado_634757" data-name="Trazado 634757" d="M114.148,4879.076l-1.07,7.858Z" transform="translate(-112.591 -4878.587)" fill="#ffcc38"/>
        <path id="Trazado_634758" data-name="Trazado 634758" d="M112.89,4887.231a.524.524,0,0,1-.067,0,.487.487,0,0,1-.417-.548l1.07-7.859a.487.487,0,1,1,.965.132l-1.07,7.858A.487.487,0,0,1,112.89,4887.231Z" transform="translate(-112.402 -4878.396)" fill="#32293a"/>
      </g>
      <g id="Grupo_949268" data-name="Grupo 949268" transform="translate(24.671 1.442)">
        <path id="Trazado_634759" data-name="Trazado 634759" d="M108.092,4878.02l-1.07,7.858Z" transform="translate(-106.535 -4877.532)" fill="#ffcc38"/>
        <path id="Trazado_634760" data-name="Trazado 634760" d="M106.833,4886.177a.5.5,0,0,1-.066,0,.488.488,0,0,1-.417-.549l1.07-7.858a.487.487,0,1,1,.965.131l-1.07,7.858A.489.489,0,0,1,106.833,4886.177Z" transform="translate(-106.346 -4877.342)" fill="#32293a"/>
      </g>
    </g>
    <g id="Grupo_949276" data-name="Grupo 949276" transform="translate(116.644 4845.574)">
      <path id="Trazado_634761" data-name="Trazado 634761" d="M180.7,4970.487h20.1l3.536-17.244h-20.1Z" transform="translate(-147.078 -4953.243)" fill="#f4c7a8"/>
      <path id="Trazado_634762" data-name="Trazado 634762" d="M193.634,4968.765v-1.431a2.828,2.828,0,0,0-2.825-2.831h-.939a2.823,2.823,0,0,0-2.519,1.551l-1.332,2.632a2.824,2.824,0,0,1-2.519,1.551h-8.126a2.823,2.823,0,0,1-2.3-1.181l-4.5-6.285a2.82,2.82,0,0,0-2.3-1.182h0a3.474,3.474,0,0,0-2.076.911c-7.8,6.016-16.2,11.969-24.366,17.291-1.319.861-2.652,1.695-3.156,3.189l-2.023,6h58.787Z" transform="translate(-134.18 -4955.581)" fill="#25c766"/>
      <g id="Grupo_949270" data-name="Grupo 949270" transform="translate(0 32.908)">
        <path id="Trazado_634763" data-name="Trazado 634763" d="M191.449,5007.392H136.294a2.308,2.308,0,0,1-2.3-2.307v-5.637a.487.487,0,1,1,.974,0v5.637a1.332,1.332,0,0,0,1.33,1.332h55.154a1.333,1.333,0,0,0,1.33-1.332v-5.637a.487.487,0,1,1,.973,0v5.637A2.308,2.308,0,0,1,191.449,5007.392Z" transform="translate(-133.991 -4998.959)" fill="#32293a"/>
      </g>
      <g id="Grupo_949271" data-name="Grupo 949271" transform="translate(47.051 21.287)">
        <path id="Trazado_634764" data-name="Trazado 634764" d="M200.171,4995.19l-.816-.533,6.014-9.25a5.68,5.68,0,0,1,4.777-2.594h1.612v.976h-1.612a4.71,4.71,0,0,0-3.961,2.152Z" transform="translate(-199.355 -4982.814)" fill="#32293a"/>
      </g>
      <g id="Grupo_949272" data-name="Grupo 949272" transform="translate(10.848 9.499)">
        <path id="Trazado_634765" data-name="Trazado 634765" d="M154.458,4983.606a2.949,2.949,0,0,1-.6-.062,2.848,2.848,0,0,1-1.81-1.249l-2.987-4.62.816-.53,2.987,4.621a1.89,1.89,0,0,0,2.625.556l11.609-7.609a1.9,1.9,0,0,0,.489-2.708l-3.647-4.987.785-.577,3.648,4.989a2.875,2.875,0,0,1-.744,4.1l-11.609,7.61A2.844,2.844,0,0,1,154.458,4983.606Z" transform="translate(-149.061 -4966.439)" fill="#32293a"/>
      </g>
      <g id="Grupo_949273" data-name="Grupo 949273" transform="translate(22.005 12.17)">
        <path id="Trazado_634766" data-name="Trazado 634766" d="M165.237,4970.827l4.548,6.491Z" transform="translate(-164.75 -4970.339)" fill="#ffcc38"/>
        <path id="Trazado_634767" data-name="Trazado 634767" d="M169.6,4977.615a.487.487,0,0,1-.4-.208l-4.549-6.491a.487.487,0,1,1,.8-.561l4.549,6.492a.487.487,0,0,1-.4.768Z" transform="translate(-164.56 -4970.148)" fill="#32293a"/>
      </g>
      <g id="Grupo_949274" data-name="Grupo 949274" transform="translate(18.363 14.74)">
        <path id="Trazado_634768" data-name="Trazado 634768" d="M160.177,4974.4l4.548,6.49Z" transform="translate(-159.691 -4973.911)" fill="#ffcc38"/>
        <path id="Trazado_634769" data-name="Trazado 634769" d="M164.535,4981.187a.485.485,0,0,1-.4-.208l-4.548-6.492a.487.487,0,1,1,.8-.561l4.548,6.492a.488.488,0,0,1-.4.768Z" transform="translate(-159.501 -4973.72)" fill="#32293a"/>
      </g>
      <g id="Grupo_949275" data-name="Grupo 949275" transform="translate(14.652 17.155)">
        <path id="Trazado_634770" data-name="Trazado 634770" d="M155.021,4977.75l4.548,6.49Z" transform="translate(-154.535 -4977.264)" fill="#ffcc38"/>
        <path id="Trazado_634771" data-name="Trazado 634771" d="M159.38,4984.539a.485.485,0,0,1-.4-.207l-4.548-6.491a.487.487,0,1,1,.8-.56l4.548,6.491a.487.487,0,0,1-.4.767Z" transform="translate(-154.345 -4977.074)" fill="#32293a"/>
      </g>
    </g>
    <path id="Trazado_634772" data-name="Trazado 634772" d="M244.529,4812l-4.32,13.177L206.5,4807.948a22.44,22.44,0,0,0-27.211,4.2L137.045,4856.8a1.582,1.582,0,0,0,.1,2.271l21.72,19.215a1.573,1.573,0,0,0,2.259-.18l14.6-17.773-10.953,53.945a1.578,1.578,0,0,0,1.52,1.9l29.671.456a1.578,1.578,0,0,0,1.566-1.25l9-42.275,57.571.01a18.6,18.6,0,0,0,17.284-11.758l9.561-31.277Z" transform="translate(-18.082 -66.17)" fill="#32293a"/>
    <path id="Trazado_634773" data-name="Trazado 634773" d="M362.8,4817.689l24.545,46.684-10.746,9.871h15.672s2.267,15.208,3.028,19.873,6.24,4.925,6.243.707c0,2.3,1.915,4.223,3.6,3.7,1.315-.405,2.487-2.309,2.485-6.7-.14,3.109,6.1,2.488,5.469-2.983.413,2.373,4.769,2.362,4.867-2.333.056-2.678-.047-6.73-.132-9.374a8.536,8.536,0,0,0-1.636-4.759l-7.359-10.1L386.087,4807.8Z" transform="translate(-81.451 -66.92)" fill="#f4c7a8"/>
    <g id="Grupo_949277" data-name="Grupo 949277" transform="translate(289.309 4759.343)">
      <path id="Trazado_634774" data-name="Trazado 634774" d="M407.922,4905.746a3.859,3.859,0,0,1-2.612-.995,3.5,3.5,0,0,1-.64-.782,2.953,2.953,0,0,1-2.367,1.505c-1.831.146-3.917-1.21-4.388-4.092-.682-4.184-2.6-16.989-2.967-19.464H379.7a.488.488,0,0,1-.33-.847l10.471-9.618-15.92-30.279a.486.486,0,1,1,.859-.454l16.095,30.611a.488.488,0,0,1-.1.588l-9.826,9.024h14.421a.488.488,0,0,1,.482.415c.023.152,2.275,15.257,3.027,19.866.376,2.3,1.941,3.4,3.351,3.277.93-.075,1.926-.77,1.927-2.493a.488.488,0,0,1,.487-.487h0a.487.487,0,0,1,.487.487,2.664,2.664,0,0,0,.84,2.023,2.951,2.951,0,0,0,2.224.727,1.81,1.81,0,0,0,1.3-.662c.718-.865.975-2.607.743-5.038a.488.488,0,0,1,.436-.531.5.5,0,0,1,.533.433,1.819,1.819,0,0,0,.993,1.577,2.163,2.163,0,0,0,2.116-.367,4.283,4.283,0,0,0,1.393-4.085.486.486,0,0,1,.962-.14,1.443,1.443,0,0,0,1.625,1.15c1.019-.079,2.226-1.017,2.276-3.409.058-2.775-.058-7.048-.132-9.348a8.019,8.019,0,0,0-1.542-4.487l-7.36-10.1a.444.444,0,0,1-.055-.1l-14.831-35.53a.486.486,0,1,1,.9-.375l14.809,35.476,7.326,10.051a8.992,8.992,0,0,1,1.73,5.031c.074,2.309.19,6.6.132,9.4-.06,2.85-1.638,4.243-3.177,4.359a2.566,2.566,0,0,1-1.687-.436,4.69,4.69,0,0,1-1.789,3.324,3.129,3.129,0,0,1-3.083.475,2.534,2.534,0,0,1-.522-.309,5.9,5.9,0,0,1-1.043,3.6,2.778,2.778,0,0,1-1.964,1.01C408.157,4905.741,408.038,4905.746,407.922,4905.746Z" transform="translate(-373.86 -4833.449)" fill="#32293a"/>
    </g>
    <path id="Trazado_634775" data-name="Trazado 634775" d="M241.252,4721.417l-45.308-16.75s-9.838-6.761-11.383-7.252-4.243.186-4.307,1.66c-2.861-1.847-5.748-.5-6,1.149-2.812-1.351-5.58.729-5.557,2.607,0,0-10.87-6.4-12.816-7.6s-6.247,1.444-3.922,3.845c3.352,3.461,17.891,14.52,17.891,14.52l-4.183,4.577s-2.058-2.665-4.49-2.512a6.232,6.232,0,0,0-2.635.73,1.016,1.016,0,0,0-.32,1.524c1.465,1.832,4.495,5,6.437,7a3.846,3.846,0,0,0,4.134.908l9.957-3.809,54.27,23.158Z" transform="translate(-22.192 -35.297)" fill="#f4c7a8"/>
    <g id="Grupo_949278" data-name="Grupo 949278" transform="translate(128.605 4659.139)">
      <path id="Trazado_634776" data-name="Trazado 634776" d="M188.477,4726.538a.465.465,0,0,1-.191-.04l-9.739-4.155-9.772,3.739a4.333,4.333,0,0,1-4.656-1.023c-2.157-2.215-5.031-5.234-6.469-7.032a1.486,1.486,0,0,1-.3-1.218,1.524,1.524,0,0,1,.762-1.038,6.722,6.722,0,0,1,2.838-.79c2.054-.128,3.791,1.467,4.53,2.267l3.454-3.78c-2.464-1.882-14.464-11.089-17.52-14.245a2.4,2.4,0,0,1-.206-3.394c1.043-1.3,3.287-2.1,4.731-1.2,1.651,1.021,9.862,5.86,12.192,7.232a3.8,3.8,0,0,1,1.626-2.024,4.577,4.577,0,0,1,3.994-.452,3.145,3.145,0,0,1,1.6-1.488,5.091,5.091,0,0,1,4.41.258,2.265,2.265,0,0,1,.734-.8,5.088,5.088,0,0,1,4.016-.587c1.545.493,10.235,6.44,11.46,7.282l18.447,6.819a.487.487,0,0,1-.336.915l-18.505-6.841a.5.5,0,0,1-.107-.055c-3.931-2.7-10.172-6.846-11.255-7.19a4.13,4.13,0,0,0-3.164.457,1.016,1.016,0,0,0-.51.759.485.485,0,0,1-.749.389,4.282,4.282,0,0,0-4.044-.512,1.952,1.952,0,0,0-1.215,1.326.487.487,0,0,1-.691.365,3.6,3.6,0,0,0-3.567.182,2.538,2.538,0,0,0-1.293,1.98.487.487,0,0,1-.733.427c-.109-.065-10.9-6.415-12.826-7.606-.889-.546-2.632-.05-3.462.986a1.433,1.433,0,0,0,.145,2.1c3.289,3.4,17.69,14.36,17.835,14.471a.486.486,0,0,1,.19.344.494.494,0,0,1-.125.374l-4.183,4.578a.487.487,0,0,1-.744-.031c-.019-.025-1.923-2.474-4.074-2.325a5.748,5.748,0,0,0-2.431.671.552.552,0,0,0-.277.374.5.5,0,0,0,.1.418c1.489,1.86,4.652,5.159,6.406,6.96a3.362,3.362,0,0,0,3.612.792l9.956-3.808a.487.487,0,0,1,.364.007l9.919,4.233a.488.488,0,0,1-.19.936Z" transform="translate(-150.608 -4694.244)" fill="#32293a"/>
    </g>
    <path id="Trazado_634777" data-name="Trazado 634777" d="M332.763,4791.632l-5.894,17.878-46.418-18.077,7.592-26.809-23.214-9.148,8.234-23.75,60.994,19.067a19.4,19.4,0,0,1,11.537,9.8l13.044,25.9-23.289,9.887Z" transform="translate(-54.004 -45.607)" fill="#25c766"/>
    <path id="Trazado_634778" data-name="Trazado 634778" d="M342.26,4741.042c-1.778,4.555-9.764,11.179-16.784,8.205s-8.174-8.775-5.976-15.489l3.482-.908a6.872,6.872,0,0,0,4.876-4.785l.649-2.3s-4.37-.192-4.136-6.5,2.931-15.073,2.931-15.073a19.952,19.952,0,0,0,10.417,3.427c-1.426,3.51,1.026,4.941,2.232,5.411-.713,2.7-.752,4.853,2.438,6.015,4.061-1.146,5.321,1.47,4.963,3.627-.286,1.73-2.108,4.055-5.57,2.282l-1.957,7.4a6.9,6.9,0,0,0,.508,4.863Z" transform="translate(-69.039 -37.893)" fill="#f4c7a8"/>
    <g id="Grupo_949279" data-name="Grupo 949279" transform="translate(229.074 4708.519)">
      <path id="Trazado_634779" data-name="Trazado 634779" d="M290.667,4789.646a.49.49,0,0,1-.469-.617l7.051-25.827a.487.487,0,1,1,.939.258l-7.051,25.827A.487.487,0,0,1,290.667,4789.646Z" transform="translate(-290.18 -4762.843)" fill="#32293a"/>
    </g>
    <g id="Grupo_949280" data-name="Grupo 949280" transform="translate(269.632 4719.538)">
      <path id="Trazado_634780" data-name="Trazado 634780" d="M358.238,4809.87a.489.489,0,0,1-.423-.247l-11.227-19.774a.487.487,0,1,1,.847-.482l11.013,19.4,22.4-9.511L370.1,4778.866a.486.486,0,1,1,.859-.456l11,20.856a.486.486,0,0,1-.24.676l-23.289,9.888A.506.506,0,0,1,358.238,4809.87Z" transform="translate(-346.524 -4778.15)" fill="#32293a"/>
    </g>
    <g id="Grupo_949281" data-name="Grupo 949281" transform="translate(210.213 4685.52)">
      <path id="Trazado_634781" data-name="Trazado 634781" d="M287.8,4764.878a.5.5,0,0,1-.178-.034l-23.648-9.32,8.539-24.631,15.245,4.547a.488.488,0,0,1-.278.936l-14.352-4.283L265.2,4754.96l22.78,8.977a.488.488,0,0,1-.179.941Z" transform="translate(-263.978 -4730.893)" fill="#32293a"/>
    </g>
    <g id="Grupo_949282" data-name="Grupo 949282" transform="translate(157.262 4663.104)">
      <path id="Trazado_634782" data-name="Trazado 634782" d="M197.884,4705.333a.491.491,0,0,1-.268-.08l-6.978-4.606a.487.487,0,0,1,.536-.814l6.977,4.6a.488.488,0,0,1-.268.9Z" transform="translate(-190.419 -4699.752)" fill="#32293a"/>
    </g>
    <g id="Grupo_949283" data-name="Grupo 949283" transform="translate(151.572 4664.439)">
      <path id="Trazado_634783" data-name="Trazado 634783" d="M190.736,4707.881a.484.484,0,0,1-.274-.086l-7.736-5.3a.487.487,0,0,1,.549-.805l7.736,5.3a.488.488,0,0,1-.275.89Z" transform="translate(-182.514 -4701.608)" fill="#32293a"/>
    </g>
    <g id="Grupo_949284" data-name="Grupo 949284" transform="translate(144.931 4666.408)">
      <path id="Trazado_634784" data-name="Trazado 634784" d="M181.506,4710.81a.49.49,0,0,1-.281-.09l-7.732-5.492a.487.487,0,0,1,.562-.8l7.732,5.492a.488.488,0,0,1-.281.886Z" transform="translate(-173.288 -4704.342)" fill="#32293a"/>
    </g>
    <g id="Grupo_949285" data-name="Grupo 949285" transform="translate(157.156 4775.241)">
      <path id="Trazado_634785" data-name="Trazado 634785" d="M281.8,4887.194h-2.9a17,17,0,0,1-8.05-2.036l-15.481-7.5-34.28-18.519a21.971,21.971,0,0,0-10.347-2.633h-.059a19.132,19.132,0,0,0-18.663,14.748l-.792,3.31a.487.487,0,1,1-.947-.228l.792-3.309a20.105,20.105,0,0,1,19.61-15.5h.061a22.961,22.961,0,0,1,10.806,2.75l34.261,18.509,15.481,7.5a16.038,16.038,0,0,0,7.607,1.929h2.9a14.267,14.267,0,0,0,13.495-9.665l2.765-8.1a.487.487,0,1,1,.921.316l-2.765,8.095A15.238,15.238,0,0,1,281.8,4887.194Z" transform="translate(-190.271 -4855.535)" fill="#faf5ff"/>
    </g>
    <g id="Grupo_949286" data-name="Grupo 949286" transform="translate(251.207 4764.105)">
      <path id="Trazado_634786" data-name="Trazado 634786" d="M327.365,4854.89a.472.472,0,0,1-.206-.047c-4.662-2.185-7.966-8.675-5.25-14.5a.487.487,0,1,1,.882.414c-2.7,5.792,1.111,11.482,4.78,13.2a.488.488,0,0,1-.206.93Z" transform="translate(-320.928 -4840.065)" fill="#faf5ff"/>
    </g>
    <g id="Grupo_949287" data-name="Grupo 949287" transform="translate(330.211 4809.497)">
      <path id="Trazado_634787" data-name="Trazado 634787" d="M432.107,4916.038a.487.487,0,0,1-.484-.449l-.939-11.938a.487.487,0,0,1,.446-.524.469.469,0,0,1,.523.448l.939,11.938a.486.486,0,0,1-.446.525Z" transform="translate(-430.682 -4903.124)" fill="#32293a"/>
    </g>
    <g id="Grupo_949288" data-name="Grupo 949288" transform="translate(324.417 4809.678)">
      <path id="Trazado_634788" data-name="Trazado 634788" d="M424.383,4919.091a.487.487,0,0,1-.484-.447l-1.265-14.741a.486.486,0,1,1,.969-.083l1.266,14.741a.487.487,0,0,1-.443.527Z" transform="translate(-422.632 -4903.375)" fill="#32293a"/>
    </g>
    <g id="Grupo_949289" data-name="Grupo 949289" transform="translate(318.197 4809.497)">
      <path id="Trazado_634789" data-name="Trazado 634789" d="M415.883,4922.017a.486.486,0,0,1-.484-.449l-1.406-17.918a.487.487,0,0,1,.446-.524.477.477,0,0,1,.523.448l1.406,17.917a.487.487,0,0,1-.446.524Z" transform="translate(-413.991 -4903.124)" fill="#32293a"/>
    </g>
    <g id="Grupo_949290" data-name="Grupo 949290" transform="translate(255.089 4683.327)">
      <path id="Trazado_634790" data-name="Trazado 634790" d="M333.641,4733.448c-4.1,0-6.555-1.681-7.308-5a.489.489,0,0,1,.368-.583.482.482,0,0,1,.582.368c.7,3.1,3.092,4.481,7.347,4.213a.488.488,0,0,1,.061.973C334.329,4733.437,333.978,4733.448,333.641,4733.448Z" transform="translate(-326.32 -4727.847)" fill="#32293a"/>
    </g>
    <g id="Grupo_949291" data-name="Grupo 949291" transform="translate(248.83 4687.722)">
      <path id="Trazado_634791" data-name="Trazado 634791" d="M321.506,4755.9a.487.487,0,0,1-.32-.121c-6.219-5.438-2.409-13.805-2.37-13.889a.484.484,0,0,1,.325-.267l3.463-.846a5.77,5.77,0,0,0,4.079-3.686l1-2.813a.487.487,0,1,1,.916.327l-1,2.814a6.742,6.742,0,0,1-4.766,4.305l-3.228.789c-.541,1.292-2.987,7.978,2.219,12.531a.488.488,0,0,1-.32.855Z" transform="translate(-317.626 -4733.953)" fill="#32293a"/>
    </g>
    <g id="Grupo_949292" data-name="Grupo 949292" transform="translate(256.004 4670.479)">
      <path id="Trazado_634792" data-name="Trazado 634792" d="M329.019,4718.023a.486.486,0,0,1-.4-.208l-.825-1.182a1.139,1.139,0,0,1-.141-1.024,1.1,1.1,0,0,1,.735-.705c.615-.182,1.685-.6,1.931-1.307a1.728,1.728,0,0,0-.129-1.361,2.661,2.661,0,0,0-1.533-1.282.488.488,0,0,1,.278-.936,3.64,3.64,0,0,1,2.12,1.771,2.664,2.664,0,0,1,.183,2.125,3.672,3.672,0,0,1-2.575,1.924.136.136,0,0,0-.092.091.162.162,0,0,0,.02.143l.826,1.183a.489.489,0,0,1-.12.678A.481.481,0,0,1,329.019,4718.023Z" transform="translate(-327.592 -4710)" fill="#32293a"/>
    </g>
    <g id="Grupo_949293" data-name="Grupo 949293" transform="translate(262.94 4673.943)">
      <path id="Trazado_634793" data-name="Trazado 634793" d="M341.064,4718.095a.488.488,0,0,1-.471-.367,2.473,2.473,0,0,0-2.775-1.9.487.487,0,1,1-.205-.953,3.434,3.434,0,0,1,3.923,2.607.488.488,0,0,1-.35.593A.481.481,0,0,1,341.064,4718.095Z" transform="translate(-337.228 -4714.81)" fill="#32293a"/>
    </g>
    <path id="Trazado_634794" data-name="Trazado 634794" d="M329.953,4715.513a.981.981,0,1,1-.547-1.434A1.1,1.1,0,0,1,329.953,4715.513Z" transform="translate(-71.719 -40.652)" fill="#32293a"/>
    <path id="Trazado_634795" data-name="Trazado 634795" d="M338.839,4719.5a.98.98,0,1,1-.546-1.433A1.095,1.095,0,0,1,338.839,4719.5Z" transform="translate(-74.209 -41.771)" fill="#32293a"/>
    <g id="Grupo_949294" data-name="Grupo 949294" transform="translate(250.912 4613.78)">
      <path id="Trazado_634796" data-name="Trazado 634796" d="M399.889,4673.067a4.687,4.687,0,0,1-3.49-1.563l-10.954-12.249a4.691,4.691,0,1,1,6.98-6.27l7.194,8.046,12.065-15.667a4.69,4.69,0,1,1,7.42,5.738L403.6,4671.239a4.7,4.7,0,0,1-3.538,1.824C400,4673.065,399.946,4673.067,399.889,4673.067Z" transform="translate(-383.439 -4642.72)" fill="#25c766"/>
      <path id="Trazado_634797" data-name="Trazado 634797" d="M400.025,4674.017a5.5,5.5,0,0,1-4.095-1.833l-10.955-12.25a5.525,5.525,0,0,1,.426-7.78,5.38,5.38,0,0,1,3.974-1.4,5.454,5.454,0,0,1,3.792,1.825l6.541,7.315L411.179,4645a5.5,5.5,0,0,1,8.706,6.735l-15.507,20.134a5.477,5.477,0,0,1-4.151,2.141Zm-10.957-21.643a3.836,3.836,0,0,0-2.581.992,3.892,3.892,0,0,0-.3,5.481l10.955,12.25a3.873,3.873,0,0,0,2.885,1.292v.814l.133-.817a3.867,3.867,0,0,0,2.932-1.508l15.507-20.135a3.878,3.878,0,1,0-6.134-4.746L400.4,4661.666a.816.816,0,0,1-.614.316.839.839,0,0,1-.634-.27l-7.194-8.046a3.851,3.851,0,0,0-2.673-1.285C389.212,4652.376,389.139,4652.374,389.068,4652.374Z" transform="translate(-383.575 -4642.858)" fill="#32293a"/>
    </g>
    <g id="Grupo_949295" data-name="Grupo 949295" transform="translate(256.446 4680.603)">
      <path id="Trazado_634798" data-name="Trazado 634798" d="M330.536,4726.5a2.348,2.348,0,0,1-1.45-.5,2.109,2.109,0,0,1-.88-1.459.488.488,0,0,1,.487-.479h.009a.486.486,0,0,1,.478.486,1.443,1.443,0,0,0,.582.739,1.4,1.4,0,0,0,1.215.173.487.487,0,0,1,.265.938A2.589,2.589,0,0,1,330.536,4726.5Z" transform="translate(-328.206 -4724.063)" fill="#32293a"/>
    </g>
    <g id="Grupo_949296" data-name="Grupo 949296" transform="translate(322.716 4699.665)">
      <path id="Trazado_634799" data-name="Trazado 634799" d="M455.753,4829.116a.48.48,0,0,1-.343-.143c-6.81-6.823-7.485-12.367-2.257-18.536,10.544-12.446,12.805-24.69,6.911-37.433-6.443-13.931-25.854-18.374-36.283-20.762-1.186-.271-2.247-.514-3.144-.737a.488.488,0,0,1-.353-.592.483.483,0,0,1,.59-.354c.891.224,1.944.464,3.123.734,10.592,2.424,30.307,6.937,36.95,21.3,5.985,12.942,3.612,25.886-7.054,38.476-4.883,5.764-4.246,10.751,2.2,17.214a.49.49,0,0,1,0,.69A.484.484,0,0,1,455.753,4829.116Z" transform="translate(-420.27 -4750.544)" fill="#32293a"/>
    </g>
    <g id="Grupo_949297" data-name="Grupo 949297" transform="translate(192.921 4593.986)">
      <path id="Trazado_634800" data-name="Trazado 634800" d="M276.6,4643.524a.477.477,0,0,1-.19-.04c-5.343-2.271-7.516-9-10.032-16.8-.526-1.626-1.07-3.31-1.662-5.024-4.482-12.941-11.942-18.1-24.215-16.738a.488.488,0,0,1-.107-.969c12.791-1.423,20.585,3.937,25.241,17.388.6,1.72,1.142,3.41,1.669,5.043,2.442,7.566,4.552,14.1,9.487,16.2a.488.488,0,0,1-.19.937Z" transform="translate(-239.957 -4603.734)" fill="#32293a"/>
    </g>
    <g id="Grupo_949298" data-name="Grupo 949298" transform="translate(101.69 4737.112)">
      <path id="Trazado_634801" data-name="Trazado 634801" d="M116.721,4809.587a3.511,3.511,0,1,1,3.5-3.511A3.511,3.511,0,0,1,116.721,4809.587Zm0-6.047a2.536,2.536,0,1,0,2.529,2.536A2.536,2.536,0,0,0,116.721,4803.54Z" transform="translate(-113.217 -4802.565)" fill="#32293a"/>
    </g>
    <g id="Grupo_949299" data-name="Grupo 949299" transform="translate(344.056 4674.592)">
      <path id="Trazado_634802" data-name="Trazado 634802" d="M452.759,4721.411a2.849,2.849,0,1,1,2.843-2.85A2.849,2.849,0,0,1,452.759,4721.411Zm0-4.723a1.874,1.874,0,1,0,1.869,1.874A1.874,1.874,0,0,0,452.759,4716.688Z" transform="translate(-449.915 -4715.712)" fill="#32293a"/>
    </g>
    <g id="Grupo_949300" data-name="Grupo 949300" transform="translate(174.271 4582.644)">
      <path id="Trazado_634803" data-name="Trazado 634803" d="M216.891,4593.674a2.849,2.849,0,1,1,2.843-2.849A2.85,2.85,0,0,1,216.891,4593.674Zm0-4.723a1.874,1.874,0,1,0,1.869,1.874A1.875,1.875,0,0,0,216.891,4588.951Z" transform="translate(-214.047 -4587.976)" fill="#32293a"/>
    </g>
    <g id="Grupo_949301" data-name="Grupo 949301" transform="translate(186.96 4568.943)">
      <path id="Trazado_634804" data-name="Trazado 634804" d="M236.971,4579.557a5.307,5.307,0,1,1,5.3-5.307A5.308,5.308,0,0,1,236.971,4579.557Zm0-9.639a4.332,4.332,0,1,0,4.322,4.332A4.333,4.333,0,0,0,236.971,4569.918Z" transform="translate(-231.675 -4568.943)" fill="#32293a"/>
    </g>
    <g id="Grupo_949302" data-name="Grupo 949302" transform="translate(86.941 4720.43)">
      <path id="Trazado_634805" data-name="Trazado 634805" d="M98.582,4791.124a5.867,5.867,0,1,1,5.853-5.867A5.868,5.868,0,0,1,98.582,4791.124Zm0-10.759a4.892,4.892,0,1,0,4.88,4.892A4.892,4.892,0,0,0,98.582,4780.365Z" transform="translate(-92.728 -4779.39)" fill="#32293a"/>
    </g>
    <g id="Grupo_949303" data-name="Grupo 949303" transform="translate(213.338 4754.273)">
      <path id="Trazado_634806" data-name="Trazado 634806" d="M290.832,4838.257a.489.489,0,0,1-.215-.051l-22.025-10.874a.488.488,0,0,1,.431-.875l22.025,10.875a.488.488,0,0,1-.216.925Z" transform="translate(-268.32 -4826.407)" fill="#faf5ff"/>
    </g>
  </g>
</svg>
