<svg xmlns="http://www.w3.org/2000/svg" width="352.464" height="250.885" viewBox="0 0 352.464 250.885">
  <g id="Grupo_949550" data-name="Grupo 949550" transform="translate(-441.5 -2387.929)">
    <g id="Grupo_949542" data-name="Grupo 949542" transform="translate(441.499 2387.929)">
      <g id="Grupo_949446" data-name="Grupo 949446" transform="translate(45.407 85.655)">
        <g id="Grupo_949359" data-name="Grupo 949359">
          <g id="Grupo_949357" data-name="Grupo 949357" transform="translate(17.559)">
            <path id="Rectángulo_42028" data-name="Rectángulo 42028" d="M8.73,0H217.8a8.73,8.73,0,0,1,8.73,8.73v142.7a0,0,0,0,1,0,0H0a0,0,0,0,1,0,0V8.73A8.73,8.73,0,0,1,8.73,0Z" fill="#95a4b1"/>
            <path id="Rectángulo_42029" data-name="Rectángulo 42029" d="M6.111,0h140.5a0,0,0,0,1,0,0V221.71a0,0,0,0,1,0,0H6.111A6.111,6.111,0,0,1,0,215.6V6.111A6.111,6.111,0,0,1,6.111,0Z" transform="translate(224.121 2.411) rotate(90)" fill="#435277"/>
            <rect id="Rectángulo_42030" data-name="Rectángulo 42030" width="128.923" height="204.026" transform="translate(215.279 11.253) rotate(90)" fill="#45bbcc"/>
          </g>
          <g id="Grupo_949358" data-name="Grupo 949358" transform="translate(0 151.429)">
            <rect id="Rectángulo_42031" data-name="Rectángulo 42031" width="261.65" height="6.902" fill="#c3d2d7"/>
            <path id="Trazado_634865" data-name="Trazado 634865" d="M789.322,2707.016H552.286a14.428,14.428,0,0,1-12.307-6.9h261.65A14.428,14.428,0,0,1,789.322,2707.016Z" transform="translate(-539.979 -2693.215)" fill="#95a4b1"/>
            <path id="Trazado_634866" data-name="Trazado 634866" d="M697.473,2696.071H663.114a3.451,3.451,0,0,1-3.452-3.451h41.262A3.451,3.451,0,0,1,697.473,2696.071Z" transform="translate(-549.468 -2692.62)" fill="#a6b4c0"/>
          </g>
        </g>
        <g id="Grupo_949445" data-name="Grupo 949445" transform="translate(36.781 21.933)">
          <g id="Grupo_949360" data-name="Grupo 949360" transform="translate(75.172 35.471)">
            <rect id="Rectángulo_42032" data-name="Rectángulo 42032" width="33.425" height="13.233" transform="translate(2.16)" fill="#b0fffa"/>
            <path id="Trazado_634867" data-name="Trazado 634867" d="M675.192,2598.161v-2.55h-13.62v31.914h37.745v-29.364Z" transform="translate(-661.572 -2590.905)" fill="#2fd3ea"/>
          </g>
          <g id="Grupo_949444" data-name="Grupo 949444">
            <g id="Grupo_949432" data-name="Grupo 949432" transform="translate(0 0.97)">
              <g id="Grupo_949364" data-name="Grupo 949364" transform="translate(4.421)">
                <g id="Grupo_949361" data-name="Grupo 949361" transform="translate(4.622)">
                  <rect id="Rectángulo_42033" data-name="Rectángulo 42033" width="6.028" height="3.215" fill="#fff"/>
                </g>
                <g id="Grupo_949362" data-name="Grupo 949362" transform="translate(16.679)">
                  <rect id="Rectángulo_42034" data-name="Rectángulo 42034" width="28.334" height="3.215" fill="#fff"/>
                </g>
                <g id="Grupo_949363" data-name="Grupo 949363">
                  <rect id="Rectángulo_42035" data-name="Rectángulo 42035" width="2.11" height="3.215" fill="#fff"/>
                </g>
              </g>
              <g id="Grupo_949368" data-name="Grupo 949368" transform="translate(4.421 8.842)">
                <g id="Grupo_949365" data-name="Grupo 949365" transform="translate(4.622)">
                  <rect id="Rectángulo_42036" data-name="Rectángulo 42036" width="6.028" height="3.215" fill="#fff"/>
                </g>
                <g id="Grupo_949366" data-name="Grupo 949366" transform="translate(16.679)">
                  <rect id="Rectángulo_42037" data-name="Rectángulo 42037" width="28.334" height="3.215" fill="#fff"/>
                </g>
                <g id="Grupo_949367" data-name="Grupo 949367">
                  <rect id="Rectángulo_42038" data-name="Rectángulo 42038" width="2.11" height="3.215" fill="#fff"/>
                </g>
              </g>
              <g id="Grupo_949372" data-name="Grupo 949372" transform="translate(4.421 17.684)">
                <g id="Grupo_949369" data-name="Grupo 949369" transform="translate(4.622)">
                  <rect id="Rectángulo_42039" data-name="Rectángulo 42039" width="6.028" height="3.215" fill="#fff"/>
                </g>
                <g id="Grupo_949370" data-name="Grupo 949370" transform="translate(16.679)">
                  <rect id="Rectángulo_42040" data-name="Rectángulo 42040" width="28.334" height="3.215" fill="#fff"/>
                </g>
                <g id="Grupo_949371" data-name="Grupo 949371">
                  <rect id="Rectángulo_42041" data-name="Rectángulo 42041" width="2.11" height="3.215" fill="#fff"/>
                </g>
              </g>
              <g id="Grupo_949376" data-name="Grupo 949376" transform="translate(4.421 26.525)">
                <g id="Grupo_949373" data-name="Grupo 949373" transform="translate(4.622)">
                  <rect id="Rectángulo_42042" data-name="Rectángulo 42042" width="6.028" height="3.215" fill="#fff"/>
                </g>
                <g id="Grupo_949374" data-name="Grupo 949374" transform="translate(16.679)">
                  <rect id="Rectángulo_42043" data-name="Rectángulo 42043" width="28.334" height="3.215" fill="#fff"/>
                </g>
                <g id="Grupo_949375" data-name="Grupo 949375">
                  <rect id="Rectángulo_42044" data-name="Rectángulo 42044" width="2.11" height="3.215" fill="#fff"/>
                </g>
              </g>
              <g id="Grupo_949379" data-name="Grupo 949379" transform="translate(0.804 35.367)">
                <g id="Grupo_949377" data-name="Grupo 949377">
                  <rect id="Rectángulo_42045" data-name="Rectángulo 42045" width="14.267" height="3.215" fill="#fff"/>
                </g>
                <g id="Grupo_949378" data-name="Grupo 949378" transform="translate(20.296)">
                  <rect id="Rectángulo_42046" data-name="Rectángulo 42046" width="36.372" height="3.215" fill="#fff"/>
                </g>
              </g>
              <g id="Grupo_949382" data-name="Grupo 949382" transform="translate(6.531 44.209)">
                <g id="Grupo_949380" data-name="Grupo 949380">
                  <rect id="Rectángulo_42047" data-name="Rectángulo 42047" width="8.54" height="3.215" fill="#fff"/>
                </g>
                <g id="Grupo_949381" data-name="Grupo 949381" transform="translate(14.569)">
                  <rect id="Rectángulo_42048" data-name="Rectángulo 42048" width="40.257" height="3.215" fill="#fff"/>
                </g>
              </g>
              <g id="Grupo_949386" data-name="Grupo 949386" transform="translate(127.77 60.186)">
                <g id="Grupo_949383" data-name="Grupo 949383" transform="translate(4.622)">
                  <rect id="Rectángulo_42049" data-name="Rectángulo 42049" width="6.028" height="3.215" fill="#fff"/>
                </g>
                <g id="Grupo_949384" data-name="Grupo 949384" transform="translate(16.679)">
                  <rect id="Rectángulo_42050" data-name="Rectángulo 42050" width="28.334" height="3.215" fill="#fff"/>
                </g>
                <g id="Grupo_949385" data-name="Grupo 949385">
                  <rect id="Rectángulo_42051" data-name="Rectángulo 42051" width="2.11" height="3.215" fill="#fff"/>
                </g>
              </g>
              <g id="Grupo_949390" data-name="Grupo 949390" transform="translate(127.77 69.027)">
                <g id="Grupo_949387" data-name="Grupo 949387" transform="translate(4.622)">
                  <rect id="Rectángulo_42052" data-name="Rectángulo 42052" width="6.028" height="3.215" fill="#fff"/>
                </g>
                <g id="Grupo_949388" data-name="Grupo 949388" transform="translate(16.679)">
                  <rect id="Rectángulo_42053" data-name="Rectángulo 42053" width="16.043" height="3.215" fill="#fff"/>
                </g>
                <g id="Grupo_949389" data-name="Grupo 949389">
                  <rect id="Rectángulo_42054" data-name="Rectángulo 42054" width="2.11" height="3.215" fill="#fff"/>
                </g>
              </g>
              <g id="Grupo_949394" data-name="Grupo 949394" transform="translate(127.77 77.869)">
                <g id="Grupo_949391" data-name="Grupo 949391" transform="translate(4.622)">
                  <rect id="Rectángulo_42055" data-name="Rectángulo 42055" width="6.028" height="3.215" fill="#fff"/>
                </g>
                <g id="Grupo_949392" data-name="Grupo 949392" transform="translate(16.679)">
                  <rect id="Rectángulo_42056" data-name="Rectángulo 42056" width="34.999" height="3.215" fill="#fff"/>
                </g>
                <g id="Grupo_949393" data-name="Grupo 949393">
                  <rect id="Rectángulo_42057" data-name="Rectángulo 42057" width="2.11" height="3.215" fill="#fff"/>
                </g>
              </g>
              <g id="Grupo_949398" data-name="Grupo 949398" transform="translate(127.77 86.711)">
                <g id="Grupo_949395" data-name="Grupo 949395" transform="translate(4.622)">
                  <rect id="Rectángulo_42058" data-name="Rectángulo 42058" width="6.028" height="3.215" fill="#fff"/>
                </g>
                <g id="Grupo_949396" data-name="Grupo 949396" transform="translate(16.679)">
                  <rect id="Rectángulo_42059" data-name="Rectángulo 42059" width="23.277" height="3.215" fill="#fff"/>
                </g>
                <g id="Grupo_949397" data-name="Grupo 949397">
                  <rect id="Rectángulo_42060" data-name="Rectángulo 42060" width="2.11" height="3.215" fill="#fff"/>
                </g>
              </g>
              <g id="Grupo_949402" data-name="Grupo 949402" transform="translate(4.421 61.892)">
                <g id="Grupo_949399" data-name="Grupo 949399" transform="translate(4.622)">
                  <rect id="Rectángulo_42061" data-name="Rectángulo 42061" width="6.028" height="3.215" fill="#fff"/>
                </g>
                <g id="Grupo_949400" data-name="Grupo 949400" transform="translate(16.679)">
                  <rect id="Rectángulo_42062" data-name="Rectángulo 42062" width="28.334" height="3.215" fill="#fff"/>
                </g>
                <g id="Grupo_949401" data-name="Grupo 949401">
                  <rect id="Rectángulo_42063" data-name="Rectángulo 42063" width="2.11" height="3.215" fill="#fff"/>
                </g>
              </g>
              <g id="Grupo_949405" data-name="Grupo 949405" transform="translate(0 70.734)">
                <g id="Grupo_949403" data-name="Grupo 949403">
                  <rect id="Rectángulo_42064" data-name="Rectángulo 42064" width="15.071" height="3.215" fill="#fff"/>
                </g>
                <g id="Grupo_949404" data-name="Grupo 949404" transform="translate(21.1)">
                  <rect id="Rectángulo_42065" data-name="Rectángulo 42065" width="33.157" height="3.215" fill="#fff"/>
                </g>
              </g>
              <g id="Grupo_949409" data-name="Grupo 949409" transform="translate(4.421 88.418)">
                <g id="Grupo_949406" data-name="Grupo 949406" transform="translate(4.622)">
                  <rect id="Rectángulo_42066" data-name="Rectángulo 42066" width="6.028" height="3.215" fill="#fff"/>
                </g>
                <g id="Grupo_949407" data-name="Grupo 949407" transform="translate(16.679)">
                  <rect id="Rectángulo_42067" data-name="Rectángulo 42067" width="28.334" height="3.215" fill="#fff"/>
                </g>
                <g id="Grupo_949408" data-name="Grupo 949408">
                  <rect id="Rectángulo_42068" data-name="Rectángulo 42068" width="2.11" height="3.215" fill="#fff"/>
                </g>
              </g>
              <g id="Grupo_949413" data-name="Grupo 949413" transform="translate(4.421 97.259)">
                <g id="Grupo_949410" data-name="Grupo 949410" transform="translate(4.622)">
                  <rect id="Rectángulo_42069" data-name="Rectángulo 42069" width="6.028" height="3.215" fill="#fff"/>
                </g>
                <g id="Grupo_949411" data-name="Grupo 949411" transform="translate(16.679)">
                  <rect id="Rectángulo_42070" data-name="Rectángulo 42070" width="28.334" height="3.215" fill="#fff"/>
                </g>
                <g id="Grupo_949412" data-name="Grupo 949412">
                  <rect id="Rectángulo_42071" data-name="Rectángulo 42071" width="2.11" height="3.215" fill="#fff"/>
                </g>
              </g>
              <g id="Grupo_949417" data-name="Grupo 949417" transform="translate(4.421 106.101)">
                <g id="Grupo_949414" data-name="Grupo 949414" transform="translate(4.622)">
                  <rect id="Rectángulo_42072" data-name="Rectángulo 42072" width="6.028" height="3.215" fill="#fff"/>
                </g>
                <g id="Grupo_949415" data-name="Grupo 949415" transform="translate(16.679)">
                  <rect id="Rectángulo_42073" data-name="Rectángulo 42073" width="28.334" height="3.215" fill="#fff"/>
                </g>
                <g id="Grupo_949416" data-name="Grupo 949416">
                  <rect id="Rectángulo_42074" data-name="Rectángulo 42074" width="2.11" height="3.215" fill="#fff"/>
                </g>
              </g>
              <g id="Grupo_949421" data-name="Grupo 949421" transform="translate(123.132 6.048)">
                <g id="Grupo_949418" data-name="Grupo 949418">
                  <rect id="Rectángulo_42075" data-name="Rectángulo 42075" width="7.234" height="3.215" fill="#fff"/>
                </g>
                <g id="Grupo_949419" data-name="Grupo 949419" transform="translate(12.258)">
                  <rect id="Rectángulo_42076" data-name="Rectángulo 42076" width="38.08" height="3.215" fill="#fff"/>
                </g>
                <g id="Grupo_949420" data-name="Grupo 949420" transform="translate(54.055)">
                  <rect id="Rectángulo_42077" data-name="Rectángulo 42077" width="4.521" height="3.215" fill="#fff"/>
                </g>
              </g>
              <g id="Grupo_949425" data-name="Grupo 949425" transform="translate(123.132 15.071)">
                <g id="Grupo_949422" data-name="Grupo 949422">
                  <rect id="Rectángulo_42078" data-name="Rectángulo 42078" width="7.234" height="3.215" fill="#fff"/>
                </g>
                <g id="Grupo_949423" data-name="Grupo 949423" transform="translate(12.258)">
                  <rect id="Rectángulo_42079" data-name="Rectángulo 42079" width="38.08" height="3.215" fill="#fff"/>
                </g>
                <g id="Grupo_949424" data-name="Grupo 949424" transform="translate(54.055)">
                  <rect id="Rectángulo_42080" data-name="Rectángulo 42080" width="4.521" height="3.215" fill="#fff"/>
                </g>
              </g>
              <g id="Grupo_949428" data-name="Grupo 949428" transform="translate(123.132 24.094)">
                <g id="Grupo_949426" data-name="Grupo 949426">
                  <rect id="Rectángulo_42081" data-name="Rectángulo 42081" width="7.234" height="3.215" fill="#fff"/>
                </g>
                <g id="Grupo_949427" data-name="Grupo 949427" transform="translate(12.258)">
                  <rect id="Rectángulo_42082" data-name="Rectángulo 42082" width="25.973" height="3.215" fill="#fff"/>
                </g>
              </g>
              <g id="Grupo_949431" data-name="Grupo 949431" transform="translate(123.132 33.117)">
                <g id="Grupo_949429" data-name="Grupo 949429">
                  <rect id="Rectángulo_42083" data-name="Rectángulo 42083" width="7.234" height="3.215" fill="#fff"/>
                </g>
                <g id="Grupo_949430" data-name="Grupo 949430" transform="translate(12.258)">
                  <rect id="Rectángulo_42084" data-name="Rectángulo 42084" width="19.04" height="3.215" fill="#fff"/>
                </g>
              </g>
            </g>
            <g id="Grupo_949443" data-name="Grupo 949443" transform="translate(58.275)">
              <g id="Grupo_949433" data-name="Grupo 949433" transform="translate(0.402)">
                <rect id="Rectángulo_42085" data-name="Rectángulo 42085" width="0.804" height="29.103" fill="#fff"/>
              </g>
              <g id="Grupo_949434" data-name="Grupo 949434" transform="translate(5.426 17.247)">
                <path id="Trazado_634868" data-name="Trazado 634868" d="M671.821,2605.068h-.8V2579.33h-8.422l-7.82-7.82h-5.661v-.8h5.994l7.82,7.821h8.893Z" transform="translate(-649.113 -2570.706)" fill="#fff"/>
              </g>
              <g id="Grupo_949435" data-name="Grupo 949435" transform="translate(0.804 59.865)">
                <path id="Trazado_634869" data-name="Trazado 634869" d="M654.106,2625.618H644.094v-.8h9.68l7.82-7.821h9.427v.8h-9.094Z" transform="translate(-644.094 -2616.993)" fill="#fff"/>
              </g>
              <g id="Grupo_949436" data-name="Grupo 949436" transform="translate(0 65.81)">
                <path id="Trazado_634870" data-name="Trazado 634870" d="M659.965,2657.88H643.221v-.8h16.412l19.273-19.273V2623.45h.8v14.685Z" transform="translate(-643.221 -2623.45)" fill="#fff"/>
              </g>
              <g id="Grupo_949437" data-name="Grupo 949437" transform="translate(42.233 17.247)">
                <path id="Trazado_634871" data-name="Trazado 634871" d="M689.894,2603.728h-.8v-21.969l11.053-11.053H705.4v.8h-4.924l-10.582,10.582Z" transform="translate(-689.09 -2570.706)" fill="#fff"/>
              </g>
              <g id="Grupo_949438" data-name="Grupo 949438" transform="translate(45.013 60.266)">
                <path id="Trazado_634872" data-name="Trazado 634872" d="M711.953,2636.5H703.33l-11.221-11.221v-7.853h.8v7.52l10.75,10.75h8.29Z" transform="translate(-692.109 -2617.43)" fill="#fff"/>
              </g>
              <g id="Grupo_949439" data-name="Grupo 949439" transform="translate(64.454 49.466)">
                <path id="Trazado_634873" data-name="Trazado 634873" d="M714.029,2613.737h-.8V2605.7h8.423v.8h-7.619Z" transform="translate(-713.225 -2605.699)" fill="#fff"/>
              </g>
              <g id="Grupo_949440" data-name="Grupo 949440" transform="translate(109.45 87.981)">
                <path id="Trazado_634874" data-name="Trazado 634874" d="M778.841,2662H762.1v-.8h15.942v-13.664h.8Z" transform="translate(-762.096 -2647.531)" fill="#fff"/>
              </g>
              <g id="Grupo_949441" data-name="Grupo 949441" transform="translate(82.188 49.466)">
                <rect id="Rectángulo_42086" data-name="Rectángulo 42086" width="25.119" height="0.804" fill="#fff"/>
              </g>
              <g id="Grupo_949442" data-name="Grupo 949442" transform="translate(115.345 49.466)">
                <rect id="Rectángulo_42087" data-name="Rectángulo 42087" width="5.828" height="0.804" fill="#fff"/>
              </g>
            </g>
          </g>
        </g>
      </g>
      <g id="Grupo_949450" data-name="Grupo 949450" transform="translate(113.035)">
        <g id="Grupo_949447" data-name="Grupo 949447">
          <path id="Trazado_634875" data-name="Trazado 634875" d="M639.352,2503.741a58.581,58.581,0,0,1-37.326-54.59v-28.065a2,2,0,0,1,1.548-1.952l16.348-3.832v-13.971a2.014,2.014,0,0,1,1.73-1.987l37.187-5.143v-6.445l-38.061,5.265a8.389,8.389,0,0,0-7.24,8.31v8.91l-11.422,2.677a8.389,8.389,0,0,0-6.474,8.167v28.065a64.967,64.967,0,0,0,41.393,60.539l21.8,8.489v-6.851Z" transform="translate(-595.642 -2387.756)" fill="#583ae2"/>
          <path id="Trazado_634876" data-name="Trazado 634876" d="M738.792,2412.918l-11.422-2.677v-8.91a8.389,8.389,0,0,0-7.24-8.31l-38.061-5.265v6.445l37.187,5.143a2.014,2.014,0,0,1,1.731,1.987V2415.3l16.348,3.832a2,2,0,0,1,1.548,1.952v28.065a58.583,58.583,0,0,1-37.326,54.59l-19.488,7.588v6.851l21.8-8.489a64.967,64.967,0,0,0,41.394-60.539v-28.065A8.39,8.39,0,0,0,738.792,2412.918Z" transform="translate(-618.873 -2387.756)" fill="#462eb4"/>
          <path id="Trazado_634877" data-name="Trazado 634877" d="M622.268,2403.7v13.971L605.92,2421.5a2,2,0,0,0-1.548,1.952v28.065a58.58,58.58,0,0,0,37.326,54.59l19.488,7.588V2396.57L624,2401.713A2.013,2.013,0,0,0,622.268,2403.7Z" transform="translate(-597.988 -2390.125)" fill="#462eb4"/>
          <path id="Trazado_634878" data-name="Trazado 634878" d="M682.07,2510.273v3.424l19.488-7.588a58.583,58.583,0,0,0,37.326-54.59v-28.065a2,2,0,0,0-1.548-1.952l-16.348-3.831V2403.7a2.013,2.013,0,0,0-1.731-1.987l-37.187-5.143v113.7Z" transform="translate(-618.873 -2390.125)" fill="#342287"/>
        </g>
        <g id="Grupo_949449" data-name="Grupo 949449" transform="translate(35.428 25.444)">
          <rect id="Rectángulo_42088" data-name="Rectángulo 42088" width="55.537" height="37.025" transform="translate(0 31.28)" fill="#c7f6ed"/>
          <g id="Grupo_949448" data-name="Grupo 949448" transform="translate(7.022)">
            <rect id="Rectángulo_42089" data-name="Rectángulo 42089" width="7.022" height="5.525" transform="translate(0 25.755)" fill="#80d3e4"/>
            <rect id="Rectángulo_42090" data-name="Rectángulo 42090" width="7.022" height="5.525" transform="translate(33.514 25.755)" fill="#80d3e4"/>
            <path id="Trazado_634879" data-name="Trazado 634879" d="M694.232,2442.821a20.268,20.268,0,1,0-40.536,0v5.487h7.022v-5.487a13.246,13.246,0,0,1,26.492,0v5.487h7.022Z" transform="translate(-653.697 -2422.553)" fill="#c7f6ed"/>
          </g>
          <path id="Trazado_634880" data-name="Trazado 634880" d="M685.1,2482.191a4.8,4.8,0,1,0-7.406,4.024l-2.191,10.562h9.6l-2.191-10.562A4.791,4.791,0,0,0,685.1,2482.191Z" transform="translate(-652.537 -2437.293)" fill="#1f2232"/>
        </g>
      </g>
      <rect id="Rectángulo_42091" data-name="Rectángulo 42091" width="114.904" height="43.408" rx="5.238" transform="translate(223.853 84.994)" fill="#c4baf5"/>
      <g id="Grupo_949469" data-name="Grupo 949469" transform="translate(234.046 91.218)" opacity="0.7">
        <g id="Grupo_949451" data-name="Grupo 949451">
          <rect id="Rectángulo_42092" data-name="Rectángulo 42092" width="3.71" height="2.553" fill="#fff"/>
        </g>
        <g id="Grupo_949452" data-name="Grupo 949452" transform="translate(6.623)">
          <rect id="Rectángulo_42093" data-name="Rectángulo 42093" width="29.699" height="2.553" fill="#fff"/>
        </g>
        <g id="Grupo_949453" data-name="Grupo 949453" transform="translate(0 5.692)">
          <rect id="Rectángulo_42094" data-name="Rectángulo 42094" width="3.71" height="2.553" fill="#fff"/>
        </g>
        <g id="Grupo_949454" data-name="Grupo 949454" transform="translate(6.623 5.692)">
          <rect id="Rectángulo_42095" data-name="Rectángulo 42095" width="29.699" height="2.553" fill="#fff"/>
        </g>
        <g id="Grupo_949455" data-name="Grupo 949455" transform="translate(6.623 11.384)">
          <rect id="Rectángulo_42096" data-name="Rectángulo 42096" width="39.7" height="2.553" fill="#fff"/>
        </g>
        <g id="Grupo_949456" data-name="Grupo 949456" transform="translate(55.153 0.16)">
          <rect id="Rectángulo_42097" data-name="Rectángulo 42097" width="39.366" height="4.469" fill="#fff"/>
        </g>
        <g id="Grupo_949457" data-name="Grupo 949457" transform="translate(55.153 7.82)">
          <rect id="Rectángulo_42098" data-name="Rectángulo 42098" width="39.366" height="4.468" fill="#fff"/>
        </g>
        <g id="Grupo_949458" data-name="Grupo 949458" transform="translate(0 19.516)">
          <path id="Trazado_634881" data-name="Trazado 634881" d="M767.759,2542.507a3.312,3.312,0,1,1-3.312-3.312A3.311,3.311,0,0,1,767.759,2542.507Z" transform="translate(-761.136 -2539.195)" fill="#00f5f0"/>
        </g>
        <g id="Grupo_949459" data-name="Grupo 949459" transform="translate(10.852 19.516)">
          <path id="Trazado_634882" data-name="Trazado 634882" d="M782.6,2542.507a3.312,3.312,0,1,1-3.312-3.312A3.311,3.311,0,0,1,782.6,2542.507Z" transform="translate(-775.977 -2539.195)" fill="#00f5f0"/>
        </g>
        <g id="Grupo_949460" data-name="Grupo 949460" transform="translate(21.704 19.516)">
          <path id="Trazado_634883" data-name="Trazado 634883" d="M797.441,2542.507a3.312,3.312,0,1,1-3.312-3.312A3.311,3.311,0,0,1,797.441,2542.507Z" transform="translate(-790.818 -2539.195)" fill="#00f5f0"/>
        </g>
        <g id="Grupo_949461" data-name="Grupo 949461" transform="translate(0 29.353)">
          <rect id="Rectángulo_42099" data-name="Rectángulo 42099" width="6.623" height="2.553" fill="#fff"/>
        </g>
        <g id="Grupo_949462" data-name="Grupo 949462" transform="translate(10.852 29.353)">
          <rect id="Rectángulo_42100" data-name="Rectángulo 42100" width="6.623" height="2.553" fill="#fff"/>
        </g>
        <g id="Grupo_949463" data-name="Grupo 949463" transform="translate(21.704 29.353)">
          <rect id="Rectángulo_42101" data-name="Rectángulo 42101" width="6.623" height="2.553" fill="#fff"/>
        </g>
        <g id="Grupo_949464" data-name="Grupo 949464" transform="translate(32.556 29.353)">
          <rect id="Rectángulo_42102" data-name="Rectángulo 42102" width="6.623" height="2.553" fill="#fff"/>
        </g>
        <g id="Grupo_949465" data-name="Grupo 949465" transform="translate(43.408 29.353)">
          <rect id="Rectángulo_42103" data-name="Rectángulo 42103" width="6.623" height="2.553" fill="#fff"/>
        </g>
        <g id="Grupo_949466" data-name="Grupo 949466" transform="translate(70.048 19.417)">
          <rect id="Rectángulo_42104" data-name="Rectángulo 42104" width="15.853" height="2.553" fill="#fff"/>
        </g>
        <g id="Grupo_949467" data-name="Grupo 949467" transform="translate(70.048 24.311)">
          <rect id="Rectángulo_42105" data-name="Rectángulo 42105" width="15.853" height="2.553" fill="#fff"/>
        </g>
        <g id="Grupo_949468" data-name="Grupo 949468" transform="translate(70.048 29.205)">
          <rect id="Rectángulo_42106" data-name="Rectángulo 42106" width="15.853" height="2.553" fill="#fff"/>
        </g>
      </g>
      <rect id="Rectángulo_42107" data-name="Rectángulo 42107" width="106.925" height="43.408" rx="5.238" transform="translate(245.539 159.235)" fill="#c4baf5"/>
      <g id="Grupo_949505" data-name="Grupo 949505" transform="translate(252.997 165.46)" opacity="0.7">
        <g id="Grupo_949476" data-name="Grupo 949476" transform="translate(0 2.63)">
          <g id="Grupo_949474" data-name="Grupo 949474">
            <g id="Grupo_949471" data-name="Grupo 949471" transform="translate(12.85 12.851)">
              <g id="Grupo_949470" data-name="Grupo 949470">
                <path id="Trazado_634884" data-name="Trazado 634884" d="M817.477,2648.058h-12.85v-.639h12.212v-12.212h.638Z" transform="translate(-804.627 -2635.208)" fill="#fff"/>
              </g>
            </g>
            <g id="Grupo_949473" data-name="Grupo 949473">
              <g id="Grupo_949472" data-name="Grupo 949472">
                <path id="Trazado_634885" data-name="Trazado 634885" d="M787.691,2630.484h-.638v-12.851H799.9v.638H787.691Z" transform="translate(-787.053 -2617.633)" fill="#fff"/>
              </g>
            </g>
          </g>
          <g id="Grupo_949475" data-name="Grupo 949475" transform="translate(6.064 6.064)">
            <rect id="Rectángulo_42108" data-name="Rectángulo 42108" width="13.572" height="13.572" fill="#fff"/>
          </g>
        </g>
        <g id="Grupo_949477" data-name="Grupo 949477" transform="translate(34.408 1.463)">
          <rect id="Rectángulo_42109" data-name="Rectángulo 42109" width="15.522" height="2.553" fill="#fff"/>
        </g>
        <g id="Grupo_949478" data-name="Grupo 949478" transform="translate(34.408 6.357)">
          <rect id="Rectángulo_42110" data-name="Rectángulo 42110" width="32.651" height="2.553" fill="#fff"/>
        </g>
        <g id="Grupo_949479" data-name="Grupo 949479" transform="translate(34.408 11.251)">
          <rect id="Rectángulo_42111" data-name="Rectángulo 42111" width="32.651" height="2.553" fill="#fff"/>
        </g>
        <g id="Grupo_949480" data-name="Grupo 949480" transform="translate(34.408 16.145)">
          <rect id="Rectángulo_42112" data-name="Rectángulo 42112" width="24.352" height="2.553" fill="#fff"/>
        </g>
        <g id="Grupo_949487" data-name="Grupo 949487" transform="translate(34.408 22.742)">
          <g id="Grupo_949481" data-name="Grupo 949481">
            <rect id="Rectángulo_42113" data-name="Rectángulo 42113" width="3.819" height="1.915" fill="#fff"/>
          </g>
          <g id="Grupo_949482" data-name="Grupo 949482" transform="translate(6.703)">
            <rect id="Rectángulo_42114" data-name="Rectángulo 42114" width="14.777" height="1.915" fill="#fff"/>
          </g>
          <g id="Grupo_949483" data-name="Grupo 949483" transform="translate(24.789)">
            <rect id="Rectángulo_42115" data-name="Rectángulo 42115" width="12.543" height="1.915" fill="#fff"/>
          </g>
          <g id="Grupo_949484" data-name="Grupo 949484" transform="translate(0 4.522)">
            <rect id="Rectángulo_42116" data-name="Rectángulo 42116" width="3.819" height="1.915" fill="#fff"/>
          </g>
          <g id="Grupo_949485" data-name="Grupo 949485" transform="translate(6.703 4.522)">
            <rect id="Rectángulo_42117" data-name="Rectángulo 42117" width="14.777" height="1.915" fill="#fff"/>
          </g>
          <g id="Grupo_949486" data-name="Grupo 949486" transform="translate(24.789 4.522)">
            <rect id="Rectángulo_42118" data-name="Rectángulo 42118" width="7.862" height="1.915" fill="#fff"/>
          </g>
        </g>
        <g id="Grupo_949488" data-name="Grupo 949488" transform="translate(76.528)">
          <rect id="Rectángulo_42119" data-name="Rectángulo 42119" width="0.638" height="30.96" fill="#fff"/>
        </g>
        <g id="Grupo_949489" data-name="Grupo 949489" transform="translate(80.305 1.974)">
          <rect id="Rectángulo_42120" data-name="Rectángulo 42120" width="2.022" height="1.277" fill="#fff"/>
        </g>
        <g id="Grupo_949490" data-name="Grupo 949490" transform="translate(84.773 1.974)">
          <rect id="Rectángulo_42121" data-name="Rectángulo 42121" width="7.235" height="1.277" fill="#fff"/>
        </g>
        <g id="Grupo_949491" data-name="Grupo 949491" transform="translate(80.305 4.834)">
          <rect id="Rectángulo_42122" data-name="Rectángulo 42122" width="2.022" height="1.277" fill="#fff"/>
        </g>
        <g id="Grupo_949492" data-name="Grupo 949492" transform="translate(84.773 4.834)">
          <rect id="Rectángulo_42123" data-name="Rectángulo 42123" width="7.235" height="1.277" fill="#fff"/>
        </g>
        <g id="Grupo_949493" data-name="Grupo 949493" transform="translate(80.305 7.693)">
          <rect id="Rectángulo_42124" data-name="Rectángulo 42124" width="2.022" height="1.277" fill="#fff"/>
        </g>
        <g id="Grupo_949494" data-name="Grupo 949494" transform="translate(84.773 7.693)">
          <rect id="Rectángulo_42125" data-name="Rectángulo 42125" width="7.235" height="1.277" fill="#fff"/>
        </g>
        <g id="Grupo_949495" data-name="Grupo 949495" transform="translate(80.305 13.412)">
          <rect id="Rectángulo_42126" data-name="Rectángulo 42126" width="2.022" height="1.277" fill="#fff"/>
        </g>
        <g id="Grupo_949496" data-name="Grupo 949496" transform="translate(84.773 13.412)">
          <rect id="Rectángulo_42127" data-name="Rectángulo 42127" width="7.235" height="1.277" fill="#fff"/>
        </g>
        <g id="Grupo_949497" data-name="Grupo 949497" transform="translate(80.305 16.271)">
          <rect id="Rectángulo_42128" data-name="Rectángulo 42128" width="2.022" height="1.277" fill="#fff"/>
        </g>
        <g id="Grupo_949498" data-name="Grupo 949498" transform="translate(84.773 16.271)">
          <rect id="Rectángulo_42129" data-name="Rectángulo 42129" width="7.235" height="1.277" fill="#fff"/>
        </g>
        <g id="Grupo_949499" data-name="Grupo 949499" transform="translate(80.305 19.13)">
          <rect id="Rectángulo_42130" data-name="Rectángulo 42130" width="2.022" height="1.277" fill="#fff"/>
        </g>
        <g id="Grupo_949500" data-name="Grupo 949500" transform="translate(84.773 19.13)">
          <rect id="Rectángulo_42131" data-name="Rectángulo 42131" width="7.235" height="1.277" fill="#fff"/>
        </g>
        <g id="Grupo_949501" data-name="Grupo 949501" transform="translate(80.305 24.849)">
          <rect id="Rectángulo_42132" data-name="Rectángulo 42132" width="2.022" height="1.277" fill="#fff"/>
        </g>
        <g id="Grupo_949502" data-name="Grupo 949502" transform="translate(84.773 24.849)">
          <rect id="Rectángulo_42133" data-name="Rectángulo 42133" width="7.235" height="1.277" fill="#fff"/>
        </g>
        <g id="Grupo_949503" data-name="Grupo 949503" transform="translate(80.305 27.708)">
          <rect id="Rectángulo_42134" data-name="Rectángulo 42134" width="2.022" height="1.277" fill="#fff"/>
        </g>
        <g id="Grupo_949504" data-name="Grupo 949504" transform="translate(84.773 27.708)">
          <rect id="Rectángulo_42135" data-name="Rectángulo 42135" width="7.235" height="1.277" fill="#fff"/>
        </g>
      </g>
      <rect id="Rectángulo_42136" data-name="Rectángulo 42136" width="96.241" height="56.175" rx="5.849" transform="translate(111.863 148.745) rotate(180)" fill="#c4baf5"/>
      <g id="Grupo_949526" data-name="Grupo 949526" transform="translate(25.587 101.591)" opacity="0.8">
        <g id="Grupo_949514" data-name="Grupo 949514">
          <g id="Grupo_949508" data-name="Grupo 949508" transform="translate(4.149 3.728)">
            <g id="Grupo_949506" data-name="Grupo 949506" transform="translate(3.246)">
              <circle id="Elipse_5436" data-name="Elipse 5436" cx="6.649" cy="6.649" r="6.649" fill="#fff"/>
            </g>
            <g id="Grupo_949507" data-name="Grupo 949507" transform="translate(0 15.317)">
              <path id="Rectángulo_42137" data-name="Rectángulo 42137" d="M9.895,0h0a9.895,9.895,0,0,1,9.895,9.895v5.266a0,0,0,0,1,0,0H0a0,0,0,0,1,0,0V9.895A9.895,9.895,0,0,1,9.895,0Z" fill="#fff"/>
            </g>
          </g>
          <g id="Grupo_949509" data-name="Grupo 949509">
            <path id="Trazado_634886" data-name="Trazado 634886" d="M476.688,2540.416h-.638v-13.725h12.874v.638H476.688Z" transform="translate(-476.05 -2526.691)" fill="#fff"/>
          </g>
          <g id="Grupo_949510" data-name="Grupo 949510" transform="translate(14.949 24.79)">
            <path id="Trazado_634887" data-name="Trazado 634887" d="M509.368,2574.318H496.494v-.638h12.235v-13.086h.638Z" transform="translate(-496.494 -2560.594)" fill="#fff"/>
          </g>
          <g id="Grupo_949511" data-name="Grupo 949511" transform="translate(0.319 37.876)">
            <rect id="Rectángulo_42138" data-name="Rectángulo 42138" width="9.098" height="0.638" fill="#fff"/>
          </g>
          <g id="Grupo_949512" data-name="Grupo 949512" transform="translate(18.354)">
            <path id="Trazado_634888" data-name="Trazado 634888" d="M510.619,2530.419h-.638v-3.089h-8.83v-.638h9.469Z" transform="translate(-501.15 -2526.691)" fill="#fff"/>
          </g>
          <g id="Grupo_949513" data-name="Grupo 949513" transform="translate(27.184 8.192)">
            <rect id="Rectángulo_42139" data-name="Rectángulo 42139" width="0.638" height="3.724" fill="#fff"/>
          </g>
        </g>
        <g id="Grupo_949515" data-name="Grupo 949515" transform="translate(34.526 0.319)">
          <rect id="Rectángulo_42140" data-name="Rectángulo 42140" width="21.334" height="2.553" fill="#fff"/>
        </g>
        <g id="Grupo_949516" data-name="Grupo 949516" transform="translate(34.526 6.49)">
          <rect id="Rectángulo_42141" data-name="Rectángulo 42141" width="41.786" height="2.553" fill="#fff"/>
        </g>
        <g id="Grupo_949517" data-name="Grupo 949517" transform="translate(34.526 11.597)">
          <rect id="Rectángulo_42142" data-name="Rectángulo 42142" width="30.854" height="2.553" fill="#fff"/>
        </g>
        <g id="Grupo_949518" data-name="Grupo 949518" transform="translate(34.526 19.257)">
          <rect id="Rectángulo_42143" data-name="Rectángulo 42143" width="2.873" height="2.553" fill="#00f5f0"/>
        </g>
        <g id="Grupo_949519" data-name="Grupo 949519" transform="translate(40.537 19.257)">
          <rect id="Rectángulo_42144" data-name="Rectángulo 42144" width="13.991" height="2.553" fill="#fff"/>
        </g>
        <g id="Grupo_949520" data-name="Grupo 949520" transform="translate(34.526 24.47)">
          <rect id="Rectángulo_42145" data-name="Rectángulo 42145" width="2.873" height="2.553" fill="#00f5f0"/>
        </g>
        <g id="Grupo_949521" data-name="Grupo 949521" transform="translate(40.537 24.47)">
          <rect id="Rectángulo_42146" data-name="Rectángulo 42146" width="19.842" height="2.553" fill="#fff"/>
        </g>
        <g id="Grupo_949522" data-name="Grupo 949522" transform="translate(34.526 29.683)">
          <rect id="Rectángulo_42147" data-name="Rectángulo 42147" width="2.873" height="2.553" fill="#00f5f0"/>
        </g>
        <g id="Grupo_949523" data-name="Grupo 949523" transform="translate(40.537 29.683)">
          <rect id="Rectángulo_42148" data-name="Rectángulo 42148" width="30.375" height="2.553" fill="#fff"/>
        </g>
        <g id="Grupo_949524" data-name="Grupo 949524" transform="translate(34.526 34.897)">
          <rect id="Rectángulo_42149" data-name="Rectángulo 42149" width="2.873" height="2.553" fill="#00f5f0"/>
        </g>
        <g id="Grupo_949525" data-name="Grupo 949525" transform="translate(40.537 34.897)">
          <rect id="Rectángulo_42150" data-name="Rectángulo 42150" width="24.259" height="2.553" fill="#fff"/>
        </g>
      </g>
      <rect id="Rectángulo_42151" data-name="Rectángulo 42151" width="99.052" height="33.301" rx="5.238" transform="translate(99.052 208.916) rotate(180)" fill="#c4baf5"/>
      <g id="Grupo_949541" data-name="Grupo 949541" transform="translate(7.714 180.508)" opacity="0.8">
        <g id="Grupo_949527" data-name="Grupo 949527" transform="translate(0 1.782)">
          <rect id="Rectángulo_42152" data-name="Rectángulo 42152" width="12.129" height="12.129" fill="#fff"/>
        </g>
        <g id="Grupo_949528" data-name="Grupo 949528" transform="translate(24.045 0.612)">
          <rect id="Rectángulo_42153" data-name="Rectángulo 42153" width="5.213" height="2.553" fill="#fff"/>
        </g>
        <g id="Grupo_949529" data-name="Grupo 949529" transform="translate(33.62 0.612)">
          <rect id="Rectángulo_42154" data-name="Rectángulo 42154" width="14.682" height="2.553" fill="#fff"/>
        </g>
        <g id="Grupo_949530" data-name="Grupo 949530" transform="translate(74.129 0.612)">
          <rect id="Rectángulo_42155" data-name="Rectángulo 42155" width="9.496" height="2.553" fill="#00f5f0"/>
        </g>
        <g id="Grupo_949531" data-name="Grupo 949531" transform="translate(74.129 5.506)">
          <rect id="Rectángulo_42156" data-name="Rectángulo 42156" width="9.496" height="2.553" fill="#00f5f0"/>
        </g>
        <g id="Grupo_949532" data-name="Grupo 949532" transform="translate(74.129 10.4)">
          <rect id="Rectángulo_42157" data-name="Rectángulo 42157" width="9.496" height="2.553" fill="#00f5f0"/>
        </g>
        <g id="Grupo_949533" data-name="Grupo 949533" transform="translate(74.129 15.294)">
          <rect id="Rectángulo_42158" data-name="Rectángulo 42158" width="9.496" height="2.553" fill="#00f5f0"/>
        </g>
        <g id="Grupo_949534" data-name="Grupo 949534" transform="translate(74.129 20.188)">
          <rect id="Rectángulo_42159" data-name="Rectángulo 42159" width="9.496" height="2.553" fill="#00f5f0"/>
        </g>
        <g id="Grupo_949535" data-name="Grupo 949535" transform="translate(24.045 5.506)">
          <rect id="Rectángulo_42160" data-name="Rectángulo 42160" width="33.111" height="2.553" fill="#fff"/>
        </g>
        <g id="Grupo_949536" data-name="Grupo 949536" transform="translate(24.045 10.507)">
          <rect id="Rectángulo_42161" data-name="Rectángulo 42161" width="26.013" height="2.553" fill="#fff"/>
        </g>
        <g id="Grupo_949537" data-name="Grupo 949537" transform="translate(24.045 15.507)">
          <rect id="Rectángulo_42162" data-name="Rectángulo 42162" width="35.642" height="2.553" fill="#fff"/>
        </g>
        <g id="Grupo_949538" data-name="Grupo 949538" transform="translate(24.045 20.507)">
          <rect id="Rectángulo_42163" data-name="Rectángulo 42163" width="39.259" height="2.553" fill="#fff"/>
        </g>
        <g id="Grupo_949539" data-name="Grupo 949539" transform="translate(18.938)">
          <rect id="Rectángulo_42164" data-name="Rectángulo 42164" width="0.638" height="23.673" fill="#fff"/>
        </g>
        <g id="Grupo_949540" data-name="Grupo 949540" transform="translate(68.678)">
          <rect id="Rectángulo_42165" data-name="Rectángulo 42165" width="0.638" height="23.673" fill="#fff"/>
        </g>
      </g>
    </g>
  </g>
</svg>
