<svg xmlns="http://www.w3.org/2000/svg" xmlns:xlink="http://www.w3.org/1999/xlink" width="85" height="85" viewBox="0 0 85 85">
  <defs>
    <clipPath id="clip-path">
      <rect id="Rectángulo_34582" data-name="Rectángulo 34582" width="85" height="85" transform="translate(285 14109)" fill="#2ff980" stroke="#707070" stroke-width="1"/>
    </clipPath>
  </defs>
  <g id="Enmascarar_grupo_126" data-name="Enmascarar grupo 126" transform="translate(-285 -14109)" clip-path="url(#clip-path)">
    <g id="no-autorizado" transform="translate(268.353 14106.524)">
      <path id="Trazado_633463" data-name="Trazado 633463" d="M80.862,112.411v17.366a14.339,14.339,0,0,0-14.339,14.342,14.181,14.181,0,0,0,.281,2.831H27.748A1.35,1.35,0,0,1,26.4,145.6V112.411a1.35,1.35,0,0,1,1.348-1.351H79.511a1.35,1.35,0,0,1,1.351,1.351Z" transform="translate(-1.654 -71.819)" fill="#efbf27"/>
      <path id="Trazado_633464" data-name="Trazado 633464" d="M154.609,159.339v2.37a14.339,14.339,0,0,0-14.339,14.342,14.178,14.178,0,0,0,.281,2.831h-2.414a17.017,17.017,0,0,1-.237-2.831A16.73,16.73,0,0,1,154.609,159.339Z" transform="translate(-75.401 -103.751)" fill="#e7a523"/>
      <path id="Trazado_633465" data-name="Trazado 633465" d="M86.554,26.21v8.045h-8.1V26.21a13.161,13.161,0,1,0-26.322,0V40.878h-8.1V26.21a21.259,21.259,0,1,1,42.519,0Z" transform="translate(-13.318 -1.637)" fill="#efefef"/>
      <path id="Trazado_633466" data-name="Trazado 633466" d="M44.035,105h8.1v2.053h-8.1Z" transform="translate(-13.318 -67.809)" fill="#aeaeae"/>
      <path id="Trazado_633467" data-name="Trazado 633467" d="M173.578,180.689a14.339,14.339,0,0,1-28.4,2.831,14.18,14.18,0,0,1-.281-2.831,14.339,14.339,0,1,1,28.678,0Z" transform="translate(-80.031 -108.389)" fill="#71c1e8"/>
      <path id="Trazado_633468" data-name="Trazado 633468" d="M180.093,221.345v2.973a14.352,14.352,0,0,1-15.013,0v-2.973a7.506,7.506,0,1,1,15.013,0Z" transform="translate(-93.378 -139.798)" fill="#fb5c3c"/>
      <circle id="Elipse_5399" data-name="Elipse 5399" cx="4.67" cy="4.67" r="4.67" transform="translate(74.538 64.702)" fill="#fdb59f"/>
      <path id="Trazado_633469" data-name="Trazado 633469" d="M89.354,153.294l-1.743-1.743-1.743,1.743a4.74,4.74,0,0,1-6.7-6.7l1.743-1.743L79.164,143.1a4.74,4.74,0,0,1,6.7-6.7l1.744,1.743,1.743-1.743a4.74,4.74,0,1,1,6.7,6.7l-1.743,1.743,1.743,1.743a4.74,4.74,0,1,1-6.7,6.7Z" transform="translate(-35.634 -87.661)" fill="#e7a523"/>
      <path id="Trazado_633470" data-name="Trazado 633470" d="M95.593,149.475l3.42-3.42A2.37,2.37,0,0,0,95.66,142.7l-3.42,3.42-3.42-3.42a2.37,2.37,0,0,0-3.352,3.352l3.42,3.42-3.42,3.42a2.37,2.37,0,1,0,3.352,3.352l3.42-3.42,3.42,3.42a2.37,2.37,0,1,0,3.352-3.352Z" transform="translate(-40.263 -92.289)" fill="#fb5c3c"/>
      <path id="Trazado_633471" data-name="Trazado 633471" d="M177.621,129.657a.846.846,0,0,1-.846-.846v-1.016a.846.846,0,1,1,1.693,0v1.016A.846.846,0,0,1,177.621,129.657Zm0-4.4a.846.846,0,0,1-.846-.846v-7.063a.846.846,0,0,1,1.693,0v7.063a.846.846,0,0,1-.846.846Z" transform="translate(-101.114 -75.417)" fill="#f7e4b0"/>
      <path id="Trazado_633472" data-name="Trazado 633472" d="M66.134,208.241H37.117a.846.846,0,1,1,0-1.693H66.134a.846.846,0,0,1,0,1.693Zm-32.4,0H32.715a.846.846,0,0,1,0-1.693h1.016a.846.846,0,1,1,0,1.693Z" transform="translate(-5.271 -134.976)" fill="#f7e4b0"/>
      <path id="Trazado_633473" data-name="Trazado 633473" d="M173.6,191.689a.846.846,0,0,1-.328-1.151,10.115,10.115,0,0,0-8.738-15.029,10.305,10.305,0,0,0-8.672,4.73.846.846,0,0,1-1.432-.9,12.011,12.011,0,0,1,10.1-5.519,11.808,11.808,0,0,1,10.217,17.546.846.846,0,0,1-1.151.326Zm-20.114-6.972a.846.846,0,0,1-.7-.969c.057-.359.131-.719.219-1.069a.846.846,0,1,1,1.641.414c-.076.3-.139.609-.189.92A.846.846,0,0,1,153.487,184.717Z" transform="translate(-85.238 -113.327)" fill="#c4e4fd"/>
      <circle id="Elipse_5400" data-name="Elipse 5400" cx="0.846" cy="0.846" r="0.846" transform="translate(23.9 46.381)"/>
      <path id="Trazado_633474" data-name="Trazado 633474" d="M112.319,4.51a.843.843,0,1,0-.631-.282A.846.846,0,0,0,112.319,4.51Z" transform="translate(-57.922 -0.225)"/>
      <path id="Trazado_633475" data-name="Trazado 633475" d="M204.787,170.195a.846.846,0,0,0,.782-1.5l0,0a.847.847,0,1,0-.779,1.5Z" transform="translate(-119.338 -109.874)"/>
      <path id="Trazado_633476" data-name="Trazado 633476" d="M89.183,60.838a.873.873,0,0,0-1.2.082.849.849,0,0,0,.081,1.192,0,0,0,0,0,0,0,13.492,13.492,0,0,1-.511,20.768V81.536a8.374,8.374,0,0,0-5.135-7.706,5.519,5.519,0,1,0-6.439,0,8.365,8.365,0,0,0-5.132,7.706v1.347a13.5,13.5,0,0,1,11.62-23.69.846.846,0,1,0,.41-1.643,15.267,15.267,0,0,0-2.831-.424l0-16.546a2.2,2.2,0,0,0-2.194-2.2h-38.2V24.562a12.314,12.314,0,1,1,24.629,0v8.044a.843.843,0,0,0,.846.846h8.1a.844.844,0,0,0,.846-.846V24.562A22.123,22.123,0,0,0,57.945,3.272a.863.863,0,0,0-1.046.585A.85.85,0,0,0,57.488,4.9a20.477,20.477,0,0,1,14.9,19.658v7.2H65.983v-7.2a14.007,14.007,0,1,0-28.015,0V38.383H31.562V24.562A20.366,20.366,0,0,1,51.055,4.169.846.846,0,1,0,50.98,2.48,22.1,22.1,0,0,0,29.869,24.562V38.383H26.091a2.2,2.2,0,0,0-2.191,2.2v3.261a.846.846,0,0,0,1.693,0V40.58a.5.5,0,0,1,.5-.5H77.857a.506.506,0,0,1,.5.5V57.125A15.183,15.183,0,0,0,64.154,74.274H26.091a.5.5,0,0,1-.5-.5V50.613a.846.846,0,0,0-1.693,0V73.769a2.2,2.2,0,0,0,2.191,2.2H64.474a15.207,15.207,0,0,0,6.751,9.243l.007,0A15.112,15.112,0,0,0,79.2,87.476v-.017l.007.017a15.186,15.186,0,0,0,9.971-26.637Zm-13.8,8.522a3.826,3.826,0,1,1,3.826,3.823A3.826,3.826,0,0,1,75.382,69.36Zm3.826,16.421a13.466,13.466,0,0,1-6.66-1.765V81.536a6.66,6.66,0,1,1,13.32,0v2.48A13.479,13.479,0,0,1,79.208,85.782Z" transform="translate(0)"/>
      <path id="Trazado_633477" data-name="Trazado 633477" d="M83.214,155.166a3.217,3.217,0,0,0,4.547,0l2.82-2.821,2.82,2.821a3.217,3.217,0,1,0,4.547-4.551l-2.817-2.82,2.82-2.82a3.217,3.217,0,0,0-4.551-4.548l-2.82,2.82-2.82-2.82a3.217,3.217,0,0,0-4.551,4.548l2.824,2.82-2.82,2.82a3.213,3.213,0,0,0,0,4.551Zm1.2-3.352,3.42-3.42a.849.849,0,0,0,0-1.2l-3.42-3.42a1.525,1.525,0,0,1,2.157-2.157l3.416,3.42a.866.866,0,0,0,1.2,0l3.42-3.42a1.524,1.524,0,1,1,2.153,2.157l-3.42,3.416a.851.851,0,0,0,0,1.2l3.42,3.42a1.524,1.524,0,1,1-2.153,2.153l-3.42-3.416a.841.841,0,0,0-1.2,0l-3.416,3.416a1.524,1.524,0,1,1-2.157-2.153Z" transform="translate(-38.606 -90.619)"/>
    </g>
  </g>
</svg>
