<svg xmlns="http://www.w3.org/2000/svg" width="67" height="73" viewBox="0 0 67 73">
  <g id="Grupo_948240" data-name="Grupo 948240" transform="translate(-303 -8248.295)">
    <rect id="Rectángulo_34185" data-name="Rectángulo 34185" width="67" height="73" rx="5" transform="translate(303 8248.295)" fill="#fff"/>
    <g id="_001---Cyber-Security" data-name="001---Cyber-Security" transform="translate(309.952 8259.199)">
      <path id="Path" d="M46.168,7.664V29.221A16.814,16.814,0,0,1,40.3,41.99l-2.31,1.982L36.433,45.3l-7.7,6.6a1.77,1.77,0,0,1-2.3,0l-7.7-6.6-1.557-1.327-2.31-1.982A16.814,16.814,0,0,1,9,29.221V7.664A1.762,1.762,0,0,1,10.646,5.9c3.115-.221,10.115-1.1,15.991-4.637a1.821,1.821,0,0,1,1.894,0C34.407,4.805,41.407,5.681,44.522,5.9a1.762,1.762,0,0,1,1.646,1.761Z" transform="translate(-1.036 -0.115)" fill="#8fc05e"/>
      <path id="Path-2" data-name="Path" d="M17.63,39.653A13.415,13.415,0,0,1,13,29.491V10.19a.885.885,0,0,1,.769-.885A40.265,40.265,0,0,0,27.632,5.1a.865.865,0,0,1,.823,0,40.276,40.276,0,0,0,13.863,4.2.885.885,0,0,1,.769.885v19.3a13.412,13.412,0,0,1-4.631,10.163l-9.837,8.5a.885.885,0,0,1-1.15,0Z" transform="translate(-1.496 -0.575)" fill="#b8df8a"/>
      <path id="Path-3" data-name="Path" d="M58.54,21.771a1.77,1.77,0,0,1-3.319.85,1.742,1.742,0,0,1,0-1.7,1.77,1.77,0,0,1,3.319.85Z" transform="translate(-6.328 -2.302)" fill="#b8df8a"/>
      <path id="Path-4" data-name="Path" d="M58.54,6.769a1.77,1.77,0,0,1-.92,1.549,1.742,1.742,0,0,1-1.7,0A1.77,1.77,0,1,1,58.54,6.769Z" transform="translate(-6.328 -0.575)" fill="#b8df8a"/>
      <path id="Path-5" data-name="Path" d="M58.54,36.77a1.77,1.77,0,1,1-2.619-1.549,1.742,1.742,0,0,1,1.7,0,1.77,1.77,0,0,1,.92,1.549Z" transform="translate(-6.328 -4.027)" fill="#b8df8a"/>
      <path id="Path-6" data-name="Path" d="M49.54,56.771a1.77,1.77,0,0,1-3.319.85,1.742,1.742,0,0,1,0-1.7,1.77,1.77,0,0,1,3.319.85Z" transform="translate(-5.293 -6.329)" fill="#b8df8a"/>
      <path id="Path-7" data-name="Path" d="M4.539,21.77a1.711,1.711,0,0,1-.221.85,1.77,1.77,0,1,1,0-1.7,1.711,1.711,0,0,1,.221.85Z" transform="translate(-0.115 -2.301)" fill="#b8df8a"/>
      <path id="Path-8" data-name="Path" d="M4.54,6.769a1.77,1.77,0,0,1-.92,1.549,1.742,1.742,0,0,1-1.7,0A1.77,1.77,0,1,1,4.54,6.769Z" transform="translate(-0.115 -0.575)" fill="#b8df8a"/>
      <path id="Path-9" data-name="Path" d="M4.54,36.77A1.77,1.77,0,1,1,1.92,35.221a1.742,1.742,0,0,1,1.7,0,1.77,1.77,0,0,1,.92,1.549Z" transform="translate(-0.115 -4.027)" fill="#b8df8a"/>
      <path id="Path-10" data-name="Path" d="M13.539,56.77a1.711,1.711,0,0,1-.221.85,1.77,1.77,0,1,1,0-1.7A1.711,1.711,0,0,1,13.539,56.77Z" transform="translate(-1.15 -6.328)" fill="#b8df8a"/>
      <circle id="Oval" cx="9.734" cy="9.734" r="9.734" transform="translate(16.814 15.044)" fill="#8fc05e"/>
      <g id="Grupo_948264" data-name="Grupo 948264" transform="translate(0 0)">
        <path id="Path-11" data-name="Path" d="M27.469,53.1a2.648,2.648,0,0,1-1.727-.643L14.176,42.551A17.684,17.684,0,0,1,8,29.109V7.553a2.662,2.662,0,0,1,2.466-2.648,42.654,42.654,0,0,0,4.457-.559.885.885,0,0,1,.312,1.742,44.235,44.235,0,0,1-4.644.583.876.876,0,0,0-.821.885V29.109a15.913,15.913,0,0,0,5.558,12.1l11.564,9.911a.885.885,0,0,0,1.15,0l11.566-9.911a15.912,15.912,0,0,0,5.558-12.1V7.553a.875.875,0,0,0-.821-.885C40.762,6.415,33.868,5.461,27.956,1.9a.93.93,0,0,0-.973,0,30.707,30.707,0,0,1-6.318,2.832.885.885,0,0,1-.549-1.681A28.928,28.928,0,0,0,26.069.39a2.706,2.706,0,0,1,2.8,0c5.8,3.491,12.848,4.32,15.6,4.515a2.663,2.663,0,0,1,2.466,2.648V29.109a17.681,17.681,0,0,1-6.176,13.44L29.2,52.461a2.644,2.644,0,0,1-1.727.64Z" transform="translate(-0.92 0)"/>
        <path id="Path-12" data-name="Path" d="M27.929,49.132a1.761,1.761,0,0,1-1.15-.426l-9.838-8.5A14.3,14.3,0,0,1,12,29.376v-19.3a1.77,1.77,0,0,1,1.544-1.762A39.507,39.507,0,0,0,27.1,4.21a1.749,1.749,0,0,1,1.662,0,39.538,39.538,0,0,0,13.554,4.1,1.77,1.77,0,0,1,1.544,1.762v19.3a14.385,14.385,0,0,1-.588,4.078.885.885,0,1,1-1.7-.5,12.614,12.614,0,0,0,.516-3.577v-19.3A41.463,41.463,0,0,1,27.92,5.77a41.089,41.089,0,0,1-14.159,4.3l.009,19.3a12.525,12.525,0,0,0,4.324,9.491l9.835,8.5,9.832-8.5a12.438,12.438,0,0,0,1.85-1.982.885.885,0,1,1,1.416,1.062,14.312,14.312,0,0,1-2.107,2.266l-9.84,8.49a1.763,1.763,0,0,1-1.15.429Z" transform="translate(-1.381 -0.46)"/>
        <path id="Shape" d="M56.655,24.31a2.655,2.655,0,1,1,2.655-2.655,2.655,2.655,0,0,1-2.655,2.655Zm0-3.54a.885.885,0,1,0,.885.885A.885.885,0,0,0,56.655,20.77Z" transform="translate(-6.213 -2.186)"/>
        <path id="Shape-2" data-name="Shape" d="M56.655,9.31a2.655,2.655,0,1,1,1.877-.778A2.655,2.655,0,0,1,56.655,9.31Zm0-3.54a.885.885,0,1,0,.885.885A.885.885,0,0,0,56.655,5.77Z" transform="translate(-6.213 -0.46)"/>
        <path id="Shape-3" data-name="Shape" d="M56.655,39.31a2.655,2.655,0,1,1,2.655-2.655A2.655,2.655,0,0,1,56.655,39.31Zm0-3.54a.885.885,0,1,0,.885.885A.885.885,0,0,0,56.655,35.77Z" transform="translate(-6.213 -3.912)"/>
        <path id="Shape-4" data-name="Shape" d="M47.655,59.31a2.655,2.655,0,1,1,2.655-2.655A2.655,2.655,0,0,1,47.655,59.31Zm0-3.54a.885.885,0,1,0,.885.885A.885.885,0,0,0,47.655,55.77Z" transform="translate(-5.178 -6.213)"/>
        <path id="Shape-5" data-name="Shape" d="M2.655,24.31A2.655,2.655,0,1,1,5.31,21.655,2.655,2.655,0,0,1,2.655,24.31Zm0-3.54a.885.885,0,1,0,.885.885A.885.885,0,0,0,2.655,20.77Z" transform="translate(0 -2.186)"/>
        <path id="Shape-6" data-name="Shape" d="M2.655,9.31a2.655,2.655,0,1,1,1.877-.778A2.655,2.655,0,0,1,2.655,9.31Zm0-3.54a.885.885,0,1,0,.885.885A.885.885,0,0,0,2.655,5.77Z" transform="translate(0 -0.46)"/>
        <path id="Shape-7" data-name="Shape" d="M2.655,39.31A2.655,2.655,0,1,1,5.31,36.655,2.655,2.655,0,0,1,2.655,39.31Zm0-3.54a.885.885,0,1,0,.885.885A.885.885,0,0,0,2.655,35.77Z" transform="translate(0 -3.912)"/>
        <path id="Shape-8" data-name="Shape" d="M11.655,59.31a2.655,2.655,0,1,1,2.655-2.655A2.655,2.655,0,0,1,11.655,59.31Zm0-3.54a.885.885,0,1,0,.885.885A.885.885,0,0,0,11.655,55.77Z" transform="translate(-1.035 -6.213)"/>
        <path id="Shape-9" data-name="Shape" d="M28.619,37.239A10.619,10.619,0,1,1,39.239,26.619,10.619,10.619,0,0,1,28.619,37.239Zm0-19.469a8.849,8.849,0,1,0,8.849,8.849A8.849,8.849,0,0,0,28.619,17.77Z" transform="translate(-2.071 -1.841)" fill="#060606"/>
        <path id="Path-13" data-name="Path" d="M27.541,31.849a.885.885,0,0,1-.626-.259l-2.655-2.655a.885.885,0,0,1,1.251-1.251L27.5,29.669,33.073,23.3a.886.886,0,1,1,1.333,1.166l-6.195,7.08a.885.885,0,0,1-.636.3Z" transform="translate(-2.763 -2.646)" fill="#060606"/>
        <path id="Path-14" data-name="Path" d="M54.425,22.77h-3.54a.885.885,0,0,1,0-1.77h3.54a.885.885,0,0,1,0,1.77Z" transform="translate(-5.753 -2.416)" fill="#373737"/>
        <path id="Path-15" data-name="Path" d="M55.31,14.195H50.885a.885.885,0,1,1,0-1.77H55.31V8.885a.885.885,0,1,1,1.77,0v3.54A1.77,1.77,0,0,1,55.31,14.195Z" transform="translate(-5.753 -0.92)"/>
        <path id="Path-16" data-name="Path" d="M56.195,35.195a.885.885,0,0,1-.885-.885V30.77H50.885a.885.885,0,0,1,0-1.77H55.31a1.77,1.77,0,0,1,1.77,1.77v3.54A.885.885,0,0,1,56.195,35.195Z" transform="translate(-5.753 -3.337)"/>
        <path id="Path-17" data-name="Path" d="M45.31,56.989H41.77A1.77,1.77,0,0,1,40,55.219V50.095a.885.885,0,0,1,1.77,0v5.124h3.54a.885.885,0,1,1,0,1.77Z" transform="translate(-4.602 -5.662)"/>
        <path id="Path-18" data-name="Path" d="M8.425,22.77H4.885a.885.885,0,0,1,0-1.77h3.54a.885.885,0,0,1,0,1.77Z" transform="translate(-0.46 -2.416)"/>
        <path id="Path-19" data-name="Path" d="M8.195,14.195H3.77A1.77,1.77,0,0,1,2,12.425V8.885a.885.885,0,1,1,1.77,0v3.54H8.195a.885.885,0,1,1,0,1.77Z" transform="translate(-0.23 -0.92)"/>
        <path id="Path-20" data-name="Path" d="M2.885,35.195A.885.885,0,0,1,2,34.31V30.77A1.77,1.77,0,0,1,3.77,29H8.195a.885.885,0,0,1,0,1.77H3.77v3.54A.885.885,0,0,1,2.885,35.195Z" transform="translate(-0.23 -3.337)"/>
        <path id="Path-21" data-name="Path" d="M17.425,56.989h-3.54a.885.885,0,0,1,0-1.77h3.54V50.095a.885.885,0,0,1,1.77,0v5.124A1.77,1.77,0,0,1,17.425,56.989Z" transform="translate(-1.496 -5.662)"/>
      </g>
    </g>
  </g>
</svg>
