<svg xmlns="http://www.w3.org/2000/svg" width="80.594" height="62.784" viewBox="0 0 80.594 62.784">
  <g id="Grupo_928759" data-name="Grupo 928759" transform="translate(-341.435 -5307.842)">
    <g id="motor-de-busqueda-web" transform="translate(341.435 5307.842)">
      <g id="Grupo_928751" data-name="Grupo 928751" transform="translate(10.085 1.18)">
        <circle id="Elipse_4851" data-name="Elipse 4851" cx="30.212" cy="30.212" r="30.212" fill="#9dc6fb"/>
      </g>
      <g id="Grupo_928752" data-name="Grupo 928752" transform="translate(16.541 7.636)">
        <path id="Trazado_632746" data-name="Trazado 632746" d="M147.506,105.082a30.213,30.213,0,0,1-42.423,42.423,30.213,30.213,0,1,0,42.423-42.423Z" transform="translate(-105.083 -105.082)" fill="#80b4fb"/>
      </g>
      <g id="Grupo_928757" data-name="Grupo 928757" transform="translate(1.181 22.964)">
        <g id="Grupo_928753" data-name="Grupo 928753">
          <path id="Trazado_632747" data-name="Trazado 632747" d="M7.5,202.461H68.878v16.855H7.5Z" transform="translate(-7.5 -202.461)" fill="#f4fbff"/>
        </g>
        <g id="Grupo_928754" data-name="Grupo 928754" transform="translate(0 13.993)">
          <path id="Trazado_632748" data-name="Trazado 632748" d="M7.5,291.355H68.878v2.862H7.5Z" transform="translate(-7.5 -291.355)" fill="#e4f6ff"/>
        </g>
        <g id="Grupo_928755" data-name="Grupo 928755" transform="translate(61.378)">
          <path id="Trazado_632749" data-name="Trazado 632749" d="M397.423,202.461h16.855v16.855H397.423Z" transform="translate(-397.423 -202.461)" fill="#95d6a4"/>
        </g>
        <g id="Grupo_928756" data-name="Grupo 928756" transform="translate(61.378)">
          <path id="Trazado_632750" data-name="Trazado 632750" d="M411.257,202.461V215.5a.954.954,0,0,1-.954.954h-12.88v2.862h16.855V202.461Z" transform="translate(-397.423 -202.461)" fill="#78c2a4"/>
        </g>
      </g>
      <g id="Grupo_928758" data-name="Grupo 928758" transform="translate(0 0)">
        <path id="Trazado_632751" data-name="Trazado 632751" d="M422.248,231.33a4.041,4.041,0,0,0,5.941,3.568l1.083,1.083a1.18,1.18,0,1,0,1.669-1.669l-1.083-1.083a4.042,4.042,0,1,0-7.611-1.9Zm5.724,0a1.673,1.673,0,0,1-.449,1.14c-.016.014-.033.028-.048.044s-.029.032-.044.049a1.679,1.679,0,1,1,.541-1.233Z" transform="translate(-355.782 -200.415)" fill="#1a5ee0"/>
        <path id="Trazado_632752" data-name="Trazado 632752" d="M79.413,78.355H76.182a1.181,1.181,0,1,0,0,2.361h2.051V95.21H63.738V80.716h6.934a1.181,1.181,0,1,0,0-2.361h-.484A31.654,31.654,0,0,0,59.38,63.035a31.106,31.106,0,0,0-18.895-6.463c-.134,0,0,0-.378,0a31.366,31.366,0,0,0-15.937,4.451,1.181,1.181,0,0,0,1.214,2.025,28.853,28.853,0,0,1,7.04-3.032,25.81,25.81,0,0,0-5.981,9.433H17.937a29.21,29.21,0,0,1,3.18-3.279,1.181,1.181,0,1,0-1.56-1.773A31.322,31.322,0,0,0,10.4,78.355H1.181A1.181,1.181,0,0,0,0,79.535V96.391a1.181,1.181,0,0,0,1.181,1.181h9.225a31.654,31.654,0,0,0,10.808,15.32,31.106,31.106,0,0,0,18.895,6.463c.061,0,.092,0,.378,0a31.106,31.106,0,0,0,18.895-6.463,31.654,31.654,0,0,0,10.808-15.32h9.224a1.181,1.181,0,0,0,1.181-1.181V79.535A1.181,1.181,0,0,0,79.413,78.355Zm-16.855,0H56.574a47.916,47.916,0,0,0-1.585-6.543h9.418A28.661,28.661,0,0,1,67.7,78.355Zm-36.14,0A44.281,44.281,0,0,1,28.1,71.811H39.116v6.543Zm15.06-6.543H52.493a44.3,44.3,0,0,1,1.684,6.543h-12.7Zm0-12.782c3.962.647,7.6,4.523,10.11,10.421H41.477ZM62.631,69.451H54.149A25.864,25.864,0,0,0,48.2,60.044,29.386,29.386,0,0,1,62.631,69.451ZM39.116,59.031v10.42H29.007C31.512,63.557,35.151,59.682,39.116,59.031ZM16.171,71.812H25.6a47.911,47.911,0,0,0-1.585,6.543H12.9A28.867,28.867,0,0,1,16.171,71.812Zm-2.027,23.4H2.361V80.716H61.377V95.21H19.654a1.181,1.181,0,0,0,0,2.361H24.02a47.916,47.916,0,0,0,1.585,6.543H16.187A28.661,28.661,0,0,1,12.9,97.571h1.249a1.181,1.181,0,0,0,0-2.361Zm24.971,11.265V116.9c-3.962-.647-7.6-4.523-10.11-10.421ZM28.1,104.114a44.3,44.3,0,0,1-1.684-6.543h12.7v6.543ZM41.477,116.9v-10.42h10.11C49.082,112.369,45.442,116.244,41.477,116.9Zm0-12.781V97.571h12.7a44.281,44.281,0,0,1-1.684,6.543H41.477Zm-23.515,2.361h8.482a25.864,25.864,0,0,0,5.951,9.407,29.386,29.386,0,0,1-14.433-9.407Zm30.232,9.408a25.851,25.851,0,0,0,5.954-9.408h8.482A29.385,29.385,0,0,1,48.195,115.883Zm16.212-11.769H54.989a47.908,47.908,0,0,0,1.585-6.543H67.7A28.665,28.665,0,0,1,64.407,104.114Z" transform="translate(0 -56.571)" fill="#1a5ee0"/>
      </g>
    </g>
  </g>
</svg>
