<svg xmlns="http://www.w3.org/2000/svg" width="67" height="73" viewBox="0 0 67 73">
  <g id="Grupo_948248" data-name="Grupo 948248" transform="translate(-303 -8248.295)">
    <rect id="Rectángulo_34185" data-name="Rectángulo 34185" width="67" height="73" rx="5" transform="translate(303 8248.295)" fill="#fff"/>
    <g id="programacion-web" transform="translate(308.683 8257.426)">
      <g id="Grupo_948282" data-name="Grupo 948282" transform="translate(14.376 29.417)">
        <g id="Grupo_948278" data-name="Grupo 948278">
          <path id="Trazado_633189" data-name="Trazado 633189" d="M35.283,42.471a10.09,10.09,0,0,1-.8,1.912l1.323,2-3.434,3.434L30.382,48.5a9.95,9.95,0,0,1-1.92.8l-.478,2.351H23.115l-.478-2.351a10.683,10.683,0,0,1-1.92-.789l-1.984,1.315L15.29,46.384l1.331-2a10.09,10.09,0,0,1-.8-1.912l-2.351-.478V37.125l2.351-.478a10.326,10.326,0,0,1,.8-1.9l-1.331-2L18.733,29.3l1.984,1.323a10.686,10.686,0,0,1,1.92-.789l.478-2.351h4.869l.478,2.351a10.453,10.453,0,0,1,1.92.789L32.374,29.3l3.434,3.442-1.323,1.992a10.638,10.638,0,0,1,.8,1.912l2.351.478v4.869Z" transform="translate(-13.474 -27.483)" fill="#59de9b"/>
        </g>
        <g id="Grupo_948279" data-name="Grupo 948279" transform="translate(7.984 7.994)" opacity="0.05">
          <path id="Trazado_633190" data-name="Trazado 633190" d="M34.741,41.929a10.305,10.305,0,0,1-.8,1.913l1.324,2-3.433,3.433-1.993-1.324a10.074,10.074,0,0,1-1.918.8L27.443,51.1H22.57l-.478-2.351a9.718,9.718,0,0,1-1.178-.438A15.4,15.4,0,0,0,34.3,34.933a10.145,10.145,0,0,1,.443,1.168l2.351.478v4.872Z" transform="translate(-20.914 -34.933)"/>
        </g>
        <g id="Grupo_948280" data-name="Grupo 948280" transform="translate(6.679 6.68)">
          <circle id="Elipse_5387" data-name="Elipse 5387" cx="5.401" cy="5.401" r="5.401" fill="#fff"/>
        </g>
        <g id="Grupo_948281" data-name="Grupo 948281" transform="translate(7.81 7.817)" opacity="0.05">
          <path id="Trazado_633191" data-name="Trazado 633191" d="M30.424,39.032a5.4,5.4,0,0,1-9.673,3.3,5.347,5.347,0,0,0,3.316,1.144,5.4,5.4,0,0,0,4.264-8.71,5.371,5.371,0,0,1,2.092,4.264Z" transform="translate(-20.752 -34.768)"/>
        </g>
      </g>
      <g id="Grupo_948299" data-name="Grupo 948299" transform="translate(2.198 2.072)">
        <g id="Grupo_948298" data-name="Grupo 948298">
          <g id="Grupo_948283" data-name="Grupo 948283" transform="translate(0 0.002)">
            <path id="Trazado_633192" data-name="Trazado 633192" d="M45.374,4.722V38.74a2.722,2.722,0,0,1-2.72,2.72H4.845a2.722,2.722,0,0,1-2.72-2.72V4.722A2.722,2.722,0,0,1,4.845,2H42.654a2.722,2.722,0,0,1,2.72,2.72Z" transform="translate(-2.125 -2.002)" fill="#e4f1ff"/>
          </g>
          <g id="Grupo_948284" data-name="Grupo 948284" transform="translate(0.001)" opacity="0.05">
            <path id="Trazado_633193" data-name="Trazado 633193" d="M45.375,4.719V38.738a2.722,2.722,0,0,1-2.72,2.72H4.846a2.722,2.722,0,0,1-2.72-2.72v-1.17H23.107A18.373,18.373,0,0,0,41.485,19.19V2h1.17a2.722,2.722,0,0,1,2.72,2.72Z" transform="translate(-2.126 -1.999)"/>
          </g>
          <path id="Trazado_633194" data-name="Trazado 633194" d="M45.374,4.722v6.3H2.125v-6.3A2.722,2.722,0,0,1,4.845,2H42.654a2.722,2.722,0,0,1,2.72,2.72Z" transform="translate(-2.125 -1.999)" fill="#3e5075"/>
          <g id="Grupo_948297" data-name="Grupo 948297" transform="translate(2.966 3.159)">
            <g id="Grupo_948292" data-name="Grupo 948292" transform="translate(0 0.005)">
              <g id="Grupo_948285" data-name="Grupo 948285" transform="translate(7.578)">
                <path id="Trazado_633195" data-name="Trazado 633195" d="M14.654,6.3A1.352,1.352,0,1,1,13.3,4.948,1.356,1.356,0,0,1,14.654,6.3Z" transform="translate(-11.951 -4.948)" fill="#fff"/>
              </g>
              <g id="Grupo_948286" data-name="Grupo 948286">
                <path id="Trazado_633196" data-name="Trazado 633196" d="M7.592,6.3A1.352,1.352,0,1,1,6.24,4.948,1.356,1.356,0,0,1,7.592,6.3Z" transform="translate(-4.889 -4.948)" fill="#fff"/>
              </g>
              <g id="Grupo_948288" data-name="Grupo 948288" transform="translate(0.225 0.234)" opacity="0.05">
                <g id="Grupo_948287" data-name="Grupo 948287">
                  <path id="Trazado_633197" data-name="Trazado 633197" d="M7.577,6.283A1.356,1.356,0,0,1,5.1,7.04a1.31,1.31,0,0,0,.748.225A1.361,1.361,0,0,0,7.2,5.914a1.33,1.33,0,0,0-.225-.748,1.359,1.359,0,0,1,.6,1.117Z" transform="translate(-5.099 -5.166)"/>
                </g>
              </g>
              <g id="Grupo_948289" data-name="Grupo 948289" transform="translate(3.789)">
                <path id="Trazado_633198" data-name="Trazado 633198" d="M11.123,6.3A1.352,1.352,0,1,1,9.771,4.948,1.356,1.356,0,0,1,11.123,6.3Z" transform="translate(-8.42 -4.948)" fill="#fff"/>
              </g>
              <g id="Grupo_948291" data-name="Grupo 948291" transform="translate(4.014 0.234)" opacity="0.05">
                <g id="Grupo_948290" data-name="Grupo 948290">
                  <path id="Trazado_633199" data-name="Trazado 633199" d="M11.108,6.283A1.356,1.356,0,0,1,8.63,7.04a1.31,1.31,0,0,0,.748.225,1.361,1.361,0,0,0,1.352-1.352,1.33,1.33,0,0,0-.225-.748,1.359,1.359,0,0,1,.6,1.117Z" transform="translate(-8.63 -5.166)"/>
                </g>
              </g>
            </g>
            <g id="Grupo_948294" data-name="Grupo 948294" transform="translate(7.808 0.234)" opacity="0.05">
              <g id="Grupo_948293" data-name="Grupo 948293">
                <path id="Trazado_633200" data-name="Trazado 633200" d="M14.643,6.279a1.356,1.356,0,0,1-2.478.757,1.31,1.31,0,0,0,.748.225A1.361,1.361,0,0,0,14.264,5.91a1.33,1.33,0,0,0-.225-.748,1.359,1.359,0,0,1,.6,1.117Z" transform="translate(-12.165 -5.162)"/>
              </g>
            </g>
            <g id="Grupo_948295" data-name="Grupo 948295" transform="translate(13.007)">
              <path id="Trazado_633201" data-name="Trazado 633201" d="M41.321,5.349v1.9a.4.4,0,0,1-.405.4H17.407a.394.394,0,0,1-.4-.4v-1.9a.4.4,0,0,1,.4-.405H40.915A.4.4,0,0,1,41.321,5.349Z" transform="translate(-17.01 -4.943)" fill="#fff"/>
            </g>
            <g id="Grupo_948296" data-name="Grupo 948296" transform="translate(13.007 0)" opacity="0.05">
              <path id="Trazado_633202" data-name="Trazado 633202" d="M41.321,5.349v1.9a.4.4,0,0,1-.405.4H17.407a.394.394,0,0,1-.4-.4V7.124H38.527a2.3,2.3,0,0,0,2.3-2.181h.09a.4.4,0,0,1,.405.405Z" transform="translate(-17.01 -4.943)"/>
            </g>
          </g>
        </g>
      </g>
      <g id="Grupo_948302" data-name="Grupo 948302" transform="translate(1.125 1.002)">
        <g id="Grupo_948300" data-name="Grupo 948300" transform="translate(31.844 24.765)">
          <path id="Trazado_633203" data-name="Trazado 633203" d="M42.942,27.216A6.545,6.545,0,0,0,36.853,24.1l2.974,4.877L38.12,31.889l-3.371.185L31.774,27.2a6.547,6.547,0,0,0,5.912,9.972L45.753,50.4a3.119,3.119,0,0,0,4.287,1.039h0a3.119,3.119,0,0,0,1.039-4.287L43.012,33.921a6.549,6.549,0,0,0-.07-6.705Z" transform="translate(-30.801 -24.081)" fill="#ddd"/>
        </g>
        <g id="Grupo_948301" data-name="Grupo 948301">
          <path id="Trazado_633204" data-name="Trazado 633204" d="M11.033,28.756H9.393a.523.523,0,0,1-.528-.528V24.653A2.128,2.128,0,0,0,8.4,23.32a2.128,2.128,0,0,0,.467-1.333V18.412a.523.523,0,0,1,.528-.528h1.633a.8.8,0,1,0,0-1.61H9.393a2.14,2.14,0,0,0-2.138,2.138v3.575a.535.535,0,0,1-.528.528.8.8,0,1,0,0,1.61.535.535,0,0,1,.528.528v3.575a2.14,2.14,0,0,0,2.138,2.138h1.639a.8.8,0,1,0,0-1.61Z" transform="translate(-0.774 0.114)" fill="#0c0c0d"/>
          <path id="Trazado_633205" data-name="Trazado 633205" d="M30.48,24.655a.535.535,0,0,1,.528-.528.8.8,0,0,0,0-1.61.535.535,0,0,1-.528-.528V18.414c0-2.774-3.456-2.058-3.77-2.138a.8.8,0,1,0,0,1.61h1.633a.523.523,0,0,1,.528.528v3.575a2.128,2.128,0,0,0,.467,1.333,2.128,2.128,0,0,0-.467,1.333v3.575a.523.523,0,0,1-.528.528H26.7a.8.8,0,0,0,0,1.61h1.639a2.14,2.14,0,0,0,2.138-2.138Z" transform="translate(0.685 0.112)" fill="#0c0c0d"/>
          <path id="Trazado_633206" data-name="Trazado 633206" d="M15.292,25.486l-3.466-2.465,3.445-2.288a.8.8,0,0,0-.891-1.341L9.96,22.328a.8.8,0,0,0-.021,1.326l4.42,3.144a.8.8,0,1,0,.933-1.312Z" transform="translate(-0.506 0.332)" fill="#0c0c0d"/>
          <path id="Trazado_633207" data-name="Trazado 633207" d="M28.143,22.985a.806.806,0,0,0-.359-.658l-4.421-2.936a.805.805,0,0,0-.891,1.341l3.445,2.288-3.466,2.465a.8.8,0,0,0,.933,1.312L27.8,23.654a.806.806,0,0,0,.338-.669Z" transform="translate(0.408 0.332)" fill="#0c0c0d"/>
          <path id="Trazado_633208" data-name="Trazado 633208" d="M21.32,16.72,15.1,29.2a.8.8,0,1,0,1.441.718l6.215-12.481A.8.8,0,0,0,21.32,16.72Z" transform="translate(-0.11 0.114)" fill="#0c0c0d"/>
          <path id="Trazado_633209" data-name="Trazado 633209" d="M53.934,48.415,46.52,36.258V34.533a7.344,7.344,0,0,0,0-4.451V4.795A3.8,3.8,0,0,0,42.727,1H4.918A3.8,3.8,0,0,0,1.125,4.795V38.814a3.8,3.8,0,0,0,3.793,3.793H13.3v1.321a1.073,1.073,0,0,0,.859,1.052l1.743.354q.167.457.379.91L15.3,47.724a1.072,1.072,0,0,0,.136,1.354l3.442,3.434a1.071,1.071,0,0,0,1.351.135l1.47-.974q.454.21.914.377l.354,1.742a1.073,1.073,0,0,0,1.052.859h4.869a1.073,1.073,0,0,0,1.052-.859l.354-1.741q.462-.168.918-.382l1.473.978a1.072,1.072,0,0,0,1.352-.135l3.434-3.434a1.073,1.073,0,0,0,.136-1.351l-.98-1.481q.213-.452.381-.912l1.743-.354a1.073,1.073,0,0,0,.859-1.052V42.607H41.2l6.034,9.9a3.924,3.924,0,1,0,6.7-4.087ZM3.271,4.795A1.649,1.649,0,0,1,4.918,3.148H42.727a1.649,1.649,0,0,1,1.647,1.647v5.228H3.271ZM37.463,43.051l-1.492.3a1.074,1.074,0,0,0-.815.746,9.043,9.043,0,0,1-.713,1.709,1.073,1.073,0,0,0,.049,1.1l.839,1.269-2.194,2.194-1.261-.837a1.076,1.076,0,0,0-1.1-.051,8.831,8.831,0,0,1-1.713.712,1.073,1.073,0,0,0-.749.816l-.3,1.492H24.894l-.3-1.492a1.074,1.074,0,0,0-.746-.815,9.588,9.588,0,0,1-1.727-.71,1.073,1.073,0,0,0-1.092.056l-1.253.83-2.2-2.194.843-1.267a1.073,1.073,0,0,0,.051-1.1,9.042,9.042,0,0,1-.713-1.709,1.074,1.074,0,0,0-.815-.746l-1.492-.3v-.444h4.636a6.466,6.466,0,0,0,12.743,0h4.635ZM22.29,42.607h8.33a4.3,4.3,0,0,1-8.33,0ZM4.918,40.461a1.649,1.649,0,0,1-1.647-1.647V12.169h41.1V26.8a7.332,7.332,0,0,0-5.413-1.816.8.8,0,0,0-.627,1.222l2.723,4.466-1.245,2.125-2.459.135-2.723-4.466a.805.805,0,0,0-.686-.386h0a.8.8,0,0,0-.686.384,7.351,7.351,0,0,0,6.151,11.206l.484.794H4.918ZM51.789,52.435a2.315,2.315,0,0,1-3.181-.771L40.541,38.436a.8.8,0,0,0-.687-.386h-.041a5.743,5.743,0,0,1-5.774-7.463l2.19,3.591a.826.826,0,0,0,.731.385l3.372-.184a.805.805,0,0,0,.65-.4l1.708-2.913a.8.8,0,0,0-.007-.826l-2.189-3.59a5.743,5.743,0,0,1,3.991,8.55.8.8,0,0,0,.009.823L52.56,49.254a2.313,2.313,0,0,1-.771,3.181Z" transform="translate(-1.125 -1.002)" fill="#0c0c0d"/>
          <path id="Trazado_633210" data-name="Trazado 633210" d="M46.673,46.134a1.385,1.385,0,1,0,1.9.46A1.383,1.383,0,0,0,46.673,46.134Z" transform="translate(2.153 2.28)" fill="#0c0c0d"/>
        </g>
      </g>
    </g>
  </g>
</svg>
