<svg xmlns="http://www.w3.org/2000/svg" width="158.265" height="150.902" viewBox="0 0 158.265 150.902">
  <g id="Grupo_948097" data-name="Grupo 948097" transform="translate(-2392.376 -1180.183)">
    <path id="Trazado_632871" data-name="Trazado 632871" d="M2460.822,1346.857c-8.591-2.91-5.92-13.177-12.935-17.335s-14.99-2.357-16.628-9.958,9.209-15.125,8.761-22.529-24.566-11.132-29.833-36.581c-5.449-26.331,26.428-61.728,71.567-41.977,31.37,13.727,35.156-14.917,48.618-6.467,9.925,6.229.711,15.849,5.348,25.876,3.647,7.886,18,16.121,21.653,37.761,5.571,33.029-28.08,69.183-66.812,60.323C2479.073,1333.341,2473.352,1351.1,2460.822,1346.857Z" transform="translate(-10.397 -18.272)" fill="#e0feec"/>
    <g id="Grupo_948043" data-name="Grupo 948043" transform="translate(2420.728 1270.125)">
      <path id="Trazado_632872" data-name="Trazado 632872" d="M2464.708,1418.282a10.083,10.083,0,1,1,10.083,10.1A10.094,10.094,0,0,1,2464.708,1418.282Z" transform="translate(-2464.44 -1407.91)" fill="#342287"/>
      <path id="Trazado_632873" data-name="Trazado 632873" d="M2474.382,1428.246a10.373,10.373,0,1,1,10.35-10.373A10.374,10.374,0,0,1,2474.382,1428.246Zm0-20.21a9.837,9.837,0,1,0,9.815,9.837A9.837,9.837,0,0,0,2474.382,1408.036Z" transform="translate(-2464.032 -1407.5)" fill="#342287"/>
    </g>
    <g id="Grupo_948055" data-name="Grupo 948055" transform="translate(2414.376 1180.183)">
      <g id="Grupo_948044" data-name="Grupo 948044" transform="translate(0 17.811)">
        <path id="Trazado_632874" data-name="Trazado 632874" d="M2537.076,1225.876v44.478a4.191,4.191,0,0,1-4.186,4.2h-80.049a4.191,4.191,0,0,1-4.186-4.2v-44.478Z" transform="translate(-2448.387 -1225.608)" fill="#fff"/>
        <path id="Trazado_632875" data-name="Trazado 632875" d="M2532.48,1274.408h-80.048a4.464,4.464,0,0,1-4.455-4.464V1225.2h88.956v44.745A4.464,4.464,0,0,1,2532.48,1274.408Zm-83.967-48.673v44.209a3.927,3.927,0,0,0,3.919,3.927h80.048a3.927,3.927,0,0,0,3.919-3.927v-44.209Z" transform="translate(-2447.978 -1225.199)" fill="#32293a"/>
      </g>
      <path id="Rectángulo_34509" data-name="Rectángulo 34509" d="M9.512,0h7.335a9.513,9.513,0,0,1,9.513,9.513V23.867a9.512,9.512,0,0,1-9.512,9.512H9.512A9.512,9.512,0,0,1,0,23.867V9.512A9.512,9.512,0,0,1,9.512,0Z" transform="translate(8.04 25.456)" fill="#e6e1fb"/>
      <g id="Grupo_948045" data-name="Grupo 948045" transform="translate(30.248 0)">
        <path id="Trazado_632876" data-name="Trazado 632876" d="M2553.4,1180.861h-24.489a2.307,2.307,0,0,0-2.255,1.827l-1.392,6.507h31.782l-1.392-6.507A2.308,2.308,0,0,0,2553.4,1180.861Z" transform="translate(-2524.931 -1180.593)" fill="#583ae2"/>
        <path id="Trazado_632877" data-name="Trazado 632877" d="M2556.87,1189.053h-32.444l1.461-6.832a2.589,2.589,0,0,1,2.517-2.039h24.488a2.589,2.589,0,0,1,2.516,2.039Zm-31.782-.537h31.121l-1.323-6.183a2.051,2.051,0,0,0-1.993-1.614H2528.4a2.05,2.05,0,0,0-1.994,1.614Z" transform="translate(-2524.426 -1180.183)" fill="#32293a"/>
      </g>
      <g id="Grupo_948046" data-name="Grupo 948046" transform="translate(0 0)">
        <path id="Trazado_632878" data-name="Trazado 632878" d="M2480.114,1187.682l-1.069-4.995a2.307,2.307,0,0,0-2.255-1.827H2452.3a2.307,2.307,0,0,0-2.255,1.827l-1.1,5.152a13.051,13.051,0,0,0-.29,2.74v8.092h88.421v-5.282a4.191,4.191,0,0,0-4.186-4.2h-50.909A1.91,1.91,0,0,1,2480.114,1187.682Z" transform="translate(-2448.387 -1180.593)" fill="#583ae2"/>
        <path id="Trazado_632879" data-name="Trazado 632879" d="M2536.934,1198.531h-88.956v-8.36a13.426,13.426,0,0,1,.3-2.8l1.1-5.152a2.588,2.588,0,0,1,2.516-2.039h24.488a2.589,2.589,0,0,1,2.517,2.039l1.068,4.995a1.652,1.652,0,0,0,1.605,1.3h50.909a4.464,4.464,0,0,1,4.454,4.464Zm-88.421-.536H2536.4v-5.014a3.927,3.927,0,0,0-3.919-3.927h-50.909a2.189,2.189,0,0,1-2.128-1.725l-1.068-4.995a2.051,2.051,0,0,0-1.994-1.614h-24.488a2.05,2.05,0,0,0-1.994,1.614l-1.1,5.153a12.874,12.874,0,0,0-.284,2.683Z" transform="translate(-2447.978 -1180.183)" fill="#32293a"/>
      </g>
      <g id="Grupo_948047" data-name="Grupo 948047" transform="translate(2.764 8.334)">
        <path id="Trazado_632880" data-name="Trazado 632880" d="M2481.323,1201.782H2455.23a.268.268,0,0,1,0-.536h26.093a.268.268,0,0,1,0,.536Z" transform="translate(-2454.963 -1201.246)" fill="#32293a"/>
      </g>
      <g id="Grupo_948048" data-name="Grupo 948048" transform="translate(3.21 11.253)">
        <rect id="Rectángulo_34510" data-name="Rectángulo 34510" width="60.956" height="4.065" rx="2.032" transform="translate(0.267 0.268)" fill="#fffdf7"/>
        <path id="Trazado_632881" data-name="Trazado 632881" d="M2515.962,1213.224h-58.254a1.622,1.622,0,0,1-1.618-1.622v-1.357a1.622,1.622,0,0,1,1.618-1.622h58.254a1.623,1.623,0,0,1,1.619,1.622v1.357A1.623,1.623,0,0,1,2515.962,1213.224Zm-58.254-4.065a1.085,1.085,0,0,0-1.083,1.086v1.357a1.086,1.086,0,0,0,1.083,1.086h58.254a1.085,1.085,0,0,0,1.083-1.086v-1.357a1.085,1.085,0,0,0-1.083-1.086Z" transform="translate(-2456.09 -1208.623)" fill="#32293a"/>
      </g>
      <path id="Trazado_632882" data-name="Trazado 632882" d="M2550.917,1259.483h-1.285a2.421,2.421,0,0,1-2.418-2.423v-9.137a2.42,2.42,0,0,1,2.418-2.423h37.22a2.421,2.421,0,0,1,2.418,2.423v9.137a2.421,2.421,0,0,1-2.418,2.423h-35.935Z" transform="translate(-2507.949 -1219.656)" fill="#e6e1fb"/>
      <g id="Grupo_948049" data-name="Grupo 948049" transform="translate(38.997 25.575)">
        <path id="Trazado_632883" data-name="Trazado 632883" d="M2550.508,1259.341h-1.285a2.691,2.691,0,0,1-2.685-2.691v-9.138a2.691,2.691,0,0,1,2.685-2.691h10.421a.268.268,0,0,1,0,.536h-10.421a2.155,2.155,0,0,0-2.15,2.155v9.138a2.155,2.155,0,0,0,2.15,2.155h1.285a.268.268,0,0,1,0,.536Z" transform="translate(-2546.538 -1244.821)" fill="#32293a"/>
      </g>
      <g id="Grupo_948050" data-name="Grupo 948050" transform="translate(60.025 25.575)">
        <path id="Trazado_632884" data-name="Trazado 632884" d="M2618.561,1259.341h-13.875a.268.268,0,0,1,0-.536h13.875a2.155,2.155,0,0,0,2.15-2.155v-9.138a2.156,2.156,0,0,0-2.15-2.155h-18.61a.268.268,0,0,1,0-.536h18.61a2.692,2.692,0,0,1,2.686,2.691v9.138A2.692,2.692,0,0,1,2618.561,1259.341Z" transform="translate(-2599.683 -1244.821)" fill="#32293a"/>
      </g>
      <rect id="Rectángulo_34511" data-name="Rectángulo 34511" width="42.056" height="13.984" rx="6.992" transform="translate(39.264 45.139)" fill="#e6e1fb"/>
      <g id="Grupo_948054" data-name="Grupo 948054" transform="translate(12.24 28.919)">
        <g id="Grupo_948051" data-name="Grupo 948051" transform="translate(5.171)">
          <path id="Trazado_632885" data-name="Trazado 632885" d="M2494.019,1279.546a2.044,2.044,0,0,1-2.039-2.043v-.552a.268.268,0,1,1,.535,0v.552a1.5,1.5,0,1,0,3.008,0v-23.961a.267.267,0,1,1,.535,0V1277.5A2.043,2.043,0,0,1,2494.019,1279.546Z" transform="translate(-2491.98 -1253.273)" fill="#32293a"/>
        </g>
        <g id="Grupo_948052" data-name="Grupo 948052" transform="translate(0 2.036)">
          <path id="Trazado_632886" data-name="Trazado 632886" d="M2497.014,1267.826h-17.427a8.713,8.713,0,1,1,17.427,0Z" transform="translate(-2479.321 -1258.828)" fill="#ff9b38"/>
          <path id="Trazado_632887" data-name="Trazado 632887" d="M2496.606,1267.684h-17.427a.268.268,0,0,1-.267-.268,8.981,8.981,0,1,1,17.961,0A.268.268,0,0,1,2496.606,1267.684Zm-17.155-.536h16.883a8.445,8.445,0,0,0-16.883,0Z" transform="translate(-2478.912 -1258.418)" fill="#32293a"/>
        </g>
        <g id="Grupo_948053" data-name="Grupo 948053" transform="translate(4.748 2.036)">
          <path id="Trazado_632888" data-name="Trazado 632888" d="M2499.518,1267.826h-7.932c0-4.822,1.777-8.73,3.965-8.73S2499.518,1263,2499.518,1267.826Z" transform="translate(-2491.319 -1258.828)" fill="#fffdf7"/>
          <path id="Trazado_632889" data-name="Trazado 632889" d="M2499.377,1267.684h-8.467v-.268c0-5.046,1.859-9,4.232-9s4.235,3.952,4.235,9Zm-7.93-.536h7.393c-.064-4.469-1.731-8.194-3.7-8.194S2491.512,1262.679,2491.448,1267.148Z" transform="translate(-2490.911 -1258.418)" fill="#32293a"/>
        </g>
      </g>
    </g>
    <path id="Trazado_632890" data-name="Trazado 632890" d="M2717.414,1358.731l4.11,3.25a10.981,10.981,0,0,1,1.386,15.906l-6.481,7.281-8.008-19.155Z" transform="translate(-190.996 -107.902)" fill="#f4c7a8"/>
    <path id="Trazado_632891" data-name="Trazado 632891" d="M2693.122,1327.754l15.047,12.256-6.991,8.743Z" transform="translate(-181.75 -89.182)" fill="#583ae2"/>
    <path id="Trazado_632892" data-name="Trazado 632892" d="M2661.635,1271.335c-1.012-2.98.851-6.98,5.137-6.394,2.318.288,2.058,2.718,3.967,3.168s3.113-.353,3.963.951-.114,1.994.31,3.278,2.024,2.139,1.5,3.538-1.425,1.522-1.856,2.765-.67,4.225-4.264,1.628C2666.974,1277.8,2661.635,1271.335,2661.635,1271.335Z" transform="translate(-162.559 -51.187)" fill="#32293a"/>
    <g id="Grupo_948062" data-name="Grupo 948062" transform="translate(2454.718 1308.335)">
      <rect id="Rectángulo_34512" data-name="Rectángulo 34512" width="11.048" height="9.479" transform="translate(30.629 9.479) rotate(180)" fill="#f4c7a8"/>
      <path id="Trazado_632893" data-name="Trazado 632893" d="M2583.023,1516.362v-.786a1.554,1.554,0,0,0-1.553-1.556h-.516a1.551,1.551,0,0,0-1.385.852l-.732,1.447a1.553,1.553,0,0,1-1.385.852h-4.467a1.551,1.551,0,0,1-1.262-.649l-2.471-3.455a1.551,1.551,0,0,0-1.262-.649h0a1.908,1.908,0,0,0-1.141.5c-4.285,3.307-8.906,6.579-13.393,9.5a3.7,3.7,0,0,0-1.736,1.753l-1.112,3.3h32.313Z" transform="translate(-2550.344 -1509.115)" fill="#583ae2"/>
      <g id="Grupo_948056" data-name="Grupo 948056" transform="translate(0 18.089)">
        <path id="Trazado_632894" data-name="Trazado 632894" d="M2582.925,1550.466v3.1a1,1,0,0,1-1,1H2551.61a1,1,0,0,1-1-1v-3.1Z" transform="translate(-2550.344 -1550.198)" fill="#fffdf7"/>
        <path id="Trazado_632895" data-name="Trazado 632895" d="M2581.517,1554.423H2551.2a1.269,1.269,0,0,1-1.266-1.269v-3.1a.268.268,0,1,1,.535,0v3.1a.732.732,0,0,0,.731.733h30.316a.732.732,0,0,0,.731-.733v-3.1a.268.268,0,1,1,.535,0v3.1A1.269,1.269,0,0,1,2581.517,1554.423Z" transform="translate(-2549.935 -1549.788)" fill="#32293a"/>
      </g>
      <g id="Grupo_948057" data-name="Grupo 948057" transform="translate(25.862 11.701)">
        <path id="Trazado_632896" data-name="Trazado 632896" d="M2615.747,1540.446l-.449-.293,3.306-5.084a3.122,3.122,0,0,1,2.626-1.426h.886v.536h-.886a2.588,2.588,0,0,0-2.177,1.182Z" transform="translate(-2615.298 -1533.643)" fill="#32293a"/>
      </g>
      <g id="Grupo_948058" data-name="Grupo 948058" transform="translate(5.962 5.222)">
        <path id="Trazado_632897" data-name="Trazado 632897" d="M2567.971,1526.7a1.58,1.58,0,0,1-1.325-.72l-1.643-2.54.449-.292,1.643,2.54a1.038,1.038,0,0,0,1.442.306l6.381-4.183a1.043,1.043,0,0,0,.269-1.488l-2-2.742.432-.317,2,2.742a1.581,1.581,0,0,1-.409,2.254l-6.382,4.183A1.553,1.553,0,0,1,2567.971,1526.7Z" transform="translate(-2565.004 -1517.268)" fill="#32293a"/>
      </g>
      <g id="Grupo_948059" data-name="Grupo 948059" transform="translate(12.096 6.69)">
        <path id="Trazado_632898" data-name="Trazado 632898" d="M2581.181,1521.654l2.5,3.568Z" transform="translate(-2580.914 -1521.386)" fill="#ffcc38"/>
        <path id="Trazado_632899" data-name="Trazado 632899" d="M2583.273,1525.082a.267.267,0,0,1-.219-.114l-2.5-3.568a.267.267,0,1,1,.437-.308l2.5,3.568a.268.268,0,0,1-.219.422Z" transform="translate(-2580.506 -1520.978)" fill="#32293a"/>
      </g>
      <g id="Grupo_948060" data-name="Grupo 948060" transform="translate(10.094 8.103)">
        <path id="Trazado_632900" data-name="Trazado 632900" d="M2576.121,1525.225l2.5,3.568Z" transform="translate(-2575.854 -1524.957)" fill="#ffcc38"/>
        <path id="Trazado_632901" data-name="Trazado 632901" d="M2578.213,1528.652a.269.269,0,0,1-.219-.114l-2.5-3.568a.268.268,0,1,1,.438-.308l2.5,3.568a.267.267,0,0,1-.219.422Z" transform="translate(-2575.446 -1524.548)" fill="#32293a"/>
      </g>
      <g id="Grupo_948061" data-name="Grupo 948061" transform="translate(8.054 9.429)">
        <path id="Trazado_632902" data-name="Trazado 632902" d="M2570.965,1528.579l2.5,3.568Z" transform="translate(-2570.698 -1528.311)" fill="#ffcc38"/>
        <path id="Trazado_632903" data-name="Trazado 632903" d="M2573.056,1532.005a.266.266,0,0,1-.219-.114l-2.5-3.568a.268.268,0,1,1,.438-.308l2.5,3.568a.267.267,0,0,1-.219.422Z" transform="translate(-2570.289 -1527.902)" fill="#32293a"/>
      </g>
    </g>
    <g id="Grupo_948069" data-name="Grupo 948069" transform="translate(2516.773 1299.842)">
      <path id="Trazado_632904" data-name="Trazado 632904" d="M2715.845,1498.712l3.128-10.619-9.071-2.684-3.128,10.619Z" transform="translate(-2706.774 -1484.3)" fill="#f4c7a8"/>
      <path id="Trazado_632905" data-name="Trazado 632905" d="M2722.407,1483.034h-.785a1.553,1.553,0,0,0-1.552,1.556v.517a1.556,1.556,0,0,0,.85,1.388l1.444.734a1.557,1.557,0,0,1,.85,1.388v4.476a1.558,1.558,0,0,1-.648,1.265l-3.447,2.476a1.557,1.557,0,0,0-.648,1.265h0c0,.434.1.974.5,1.144l2.77.883a1.478,1.478,0,0,1,.531,2.511l-2.244,2a3.289,3.289,0,0,0-1.047,1.857l-.572,3.09h8.395a4.847,4.847,0,0,0,3.518-1.513l1.837-1.938a4.867,4.867,0,0,0,1.335-3.35v-19.645Z" transform="translate(-2713.805 -1482.865)" fill="#583ae2"/>
      <g id="Grupo_948063" data-name="Grupo 948063" transform="translate(4.336 0)">
        <path id="Trazado_632906" data-name="Trazado 632906" d="M2728.065,1513.849h-9a1.339,1.339,0,0,1-1.336-1.34v-3.189a.268.268,0,1,1,.535,0v3.189a.8.8,0,0,0,.8.8h9a4.554,4.554,0,0,0,3.243-1.346l4.256-4.266a4.568,4.568,0,0,0,1.343-3.249v-20.576a.732.732,0,0,0-.731-.733h-3.092a.268.268,0,0,1,0-.536h3.092a1.269,1.269,0,0,1,1.266,1.269v20.576a5.1,5.1,0,0,1-1.5,3.628l-4.256,4.266A5.084,5.084,0,0,1,2728.065,1513.849Z" transform="translate(-2717.733 -1482.606)" fill="#32293a"/>
      </g>
      <g id="Grupo_948064" data-name="Grupo 948064" transform="translate(13.046 0.169)">
        <path id="Trazado_632907" data-name="Trazado 632907" d="M2746.241,1489.865l-5.073-3.313a3.133,3.133,0,0,1-1.423-2.631v-.888h.535v.888a2.6,2.6,0,0,0,1.18,2.182l5.072,3.313Z" transform="translate(-2739.745 -1483.033)" fill="#32293a"/>
      </g>
      <g id="Grupo_948065" data-name="Grupo 948065" transform="translate(7.102 13.78)">
        <path id="Trazado_632908" data-name="Trazado 632908" d="M2727.36,1526.307a1.111,1.111,0,0,1-.737-.278l-1.572-1.389a.268.268,0,1,1,.354-.4l1.572,1.39a.581.581,0,0,0,.787-.019l2.34-2.27a2.833,2.833,0,0,0-.317-4.33l-1.275-.919a.636.636,0,0,0-.794.038l-2.537,2.565a.268.268,0,1,1-.38-.377l2.55-2.578a1.174,1.174,0,0,1,1.473-.083l1.276.919a3.369,3.369,0,0,1,.375,5.15l-2.339,2.27A1.11,1.11,0,0,1,2727.36,1526.307Z" transform="translate(-2724.724 -1517.434)" fill="#32293a"/>
      </g>
      <g id="Grupo_948066" data-name="Grupo 948066" transform="translate(8.624 15.408)">
        <path id="Trazado_632909" data-name="Trazado 632909" d="M2728.838,1524.626a.268.268,0,0,1-.143-.495l4.006-2.542a.268.268,0,0,1,.286.453l-4.007,2.542A.266.266,0,0,1,2728.838,1524.626Z" transform="translate(-2728.57 -1521.547)" fill="#32293a"/>
      </g>
      <g id="Grupo_948067" data-name="Grupo 948067" transform="translate(8.694 18.294)">
        <path id="Trazado_632910" data-name="Trazado 632910" d="M2729.015,1529.437a.268.268,0,0,1,0-.536l4.508-.056c.149-.03.27.116.271.264a.268.268,0,0,1-.264.271l-4.508.057Z" transform="translate(-2728.748 -1528.841)" fill="#32293a"/>
      </g>
      <g id="Grupo_948068" data-name="Grupo 948068" transform="translate(8.694 18.809)">
        <path id="Trazado_632911" data-name="Trazado 632911" d="M2731.794,1532.223a.268.268,0,0,1-.13-.034l-2.78-1.544a.268.268,0,0,1,.26-.469l2.779,1.544a.268.268,0,0,1-.13.5Z" transform="translate(-2728.748 -1530.143)" fill="#32293a"/>
      </g>
    </g>
    <path id="Trazado_632912" data-name="Trazado 632912" d="M2612.263,1400.194l3.985,8.575-23.87-7.693a8.812,8.812,0,0,0-11.5,8.4v3.776l-2.3,2.019a9.853,9.853,0,0,0,2.382,16.35h0v8.713a1.2,1.2,0,0,0,1.2,1.2H2598.7a1.2,1.2,0,0,0,1.2-1.2v-4.008l27.292,9.943a1.2,1.2,0,0,0,1.548-.744l4.55-13.424,3.209-1.153h0a13.856,13.856,0,0,0,5.405-17.777l-6.438-13.694Z" transform="translate(-110.501 -132.529)" fill="#32293a"/>
    <path id="Trazado_632913" data-name="Trazado 632913" d="M2638.894,1352.453l-6-10.89h-13.6v-14.495H2632.7l4.423-5.351a3.4,3.4,0,0,1,2.623-1.235l7.4.1,14.949,31.155Z" transform="translate(-137.131 -84.788)" fill="#583ae2"/>
    <path id="Trazado_632914" data-name="Trazado 632914" d="M2671.6,1294.523c0,2.538-6.829,5.18-10.048,1.352,0,.011.428-.529.862-1.087a4.377,4.377,0,0,0,.923-2.688v-1.746c-2.365.223-4.8-2.624-2.466-12.827,1.018.963,5.007,3.418,7.33,2.99a3.278,3.278,0,0,0,1.54,3.8c2.79-1.265,4.363,4.222.566,4.313v2.5a4.376,4.376,0,0,0,.6,2.211Z" transform="translate(-161.686 -58.827)" fill="#f4c7a8"/>
    <g id="Grupo_948070" data-name="Grupo 948070" transform="translate(2489.128 1288.489)">
      <path id="Trazado_632915" data-name="Trazado 632915" d="M2637.171,1469.492a.268.268,0,0,1-.268-.268v-15.312l26.324,10.2a12.382,12.382,0,0,0,11.385-1.147.268.268,0,0,1,.292.449,12.912,12.912,0,0,1-11.869,1.2l-25.6-9.92v14.53A.268.268,0,0,1,2637.171,1469.492Z" transform="translate(-2636.903 -1453.912)" fill="#faf5ff"/>
    </g>
    <g id="Grupo_948071" data-name="Grupo 948071" transform="translate(2502.307 1274.904)">
      <path id="Trazado_632916" data-name="Trazado 632916" d="M2680.774,1423.595a.266.266,0,0,1-.085-.014l-10.3-3.48a.268.268,0,0,1,.171-.508l10.295,3.48a.268.268,0,0,1-.085.522Z" transform="translate(-2670.212 -1419.578)" fill="#faf5ff"/>
    </g>
    <g id="Grupo_948072" data-name="Grupo 948072" transform="translate(2470.196 1279.637)">
      <path id="Trazado_632917" data-name="Trazado 632917" d="M2589.322,1453.75a.268.268,0,0,1-.268-.268v-21.673a.268.268,0,1,1,.535,0v21.673A.268.268,0,0,1,2589.322,1453.75Z" transform="translate(-2589.055 -1431.54)" fill="#faf5ff"/>
    </g>
    <path id="Trazado_632918" data-name="Trazado 632918" d="M2584.879,1294.975h-14.69a7.848,7.848,0,0,1-7.839-7.856v-34.008c0-2.866,2.85-2.279,2.956-.96-.117-1.362,2.891-1.955,2.891-.291,0-2.02,3.177-1.9,3.177-.587-.1-.144.118-4.274.118-6.175s2.168-2.621,2.807,0,1.313,9.024,1.313,9.024l3.059,2.616a2.755,2.755,0,0,1,.387,3.778l-3.2,4.136v16h9.021Z" transform="translate(-102.72 -38.199)" fill="#f4c7a8"/>
    <g id="Grupo_948073" data-name="Grupo 948073" transform="translate(2459.362 1204.925)">
      <path id="Trazado_632919" data-name="Trazado 632919" d="M2575.449,1282.344a.268.268,0,0,1-.268-.268v-17.833a.269.269,0,0,1,.056-.164l3.2-4.136a2.483,2.483,0,0,0-.35-3.41l-3.059-2.616a.272.272,0,0,1-.092-.176c-.006-.064-.679-6.415-1.306-8.989-.289-1.186-.869-1.552-1.327-1.5a1.319,1.319,0,0,0-.953,1.433c0,.838-.041,2.074-.08,3.269-.035,1.067-.075,2.257-.062,2.685a1.009,1.009,0,0,1,.024.222.268.268,0,0,1-.188.255.263.263,0,0,1-.3-.1c-.034-.049-.057-.1-.067-.289-.107-.362-.635-.556-1.135-.556a1.345,1.345,0,0,0-1.488,1.28.268.268,0,1,1-.535,0,.643.643,0,0,0-.342-.62,1.7,1.7,0,0,0-1.585.172.828.828,0,0,0-.43.711v.006a.267.267,0,0,1-.244.288.257.257,0,0,1-.288-.244v-.006c-.039-.449-.566-.662-1.021-.645a1.441,1.441,0,0,0-1.4,1.588v25.473a.267.267,0,1,1-.535,0V1252.7a1.988,1.988,0,0,1,1.913-2.124,1.648,1.648,0,0,1,1.245.43,1.63,1.63,0,0,1,.468-.453,2.243,2.243,0,0,1,2.133-.2,1.194,1.194,0,0,1,.3.224,2.261,2.261,0,0,1,2.948-.653c.01-.44.029-1.073.059-1.991.038-1.135.08-2.422.08-3.251a1.83,1.83,0,0,1,1.424-1.965c.686-.08,1.539.376,1.91,1.9.6,2.454,1.213,8.079,1.307,8.953l2.978,2.546a3.018,3.018,0,0,1,.425,4.146l-3.144,4.063v17.742A.268.268,0,0,1,2575.449,1282.344Z" transform="translate(-2561.674 -1242.715)" fill="#32293a"/>
    </g>
    <g id="Grupo_948074" data-name="Grupo 948074" transform="translate(2462.318 1213.683)">
      <path id="Trazado_632920" data-name="Trazado 632920" d="M2569.413,1270.671a.268.268,0,0,1-.268-.268v-5.284a.267.267,0,1,1,.535,0v5.284A.268.268,0,0,1,2569.413,1270.671Z" transform="translate(-2569.145 -1264.851)" fill="#32293a"/>
    </g>
    <g id="Grupo_948075" data-name="Grupo 948075" transform="translate(2465.191 1213.452)">
      <path id="Trazado_632921" data-name="Trazado 632921" d="M2576.673,1270.086a.268.268,0,0,1-.267-.268v-5.284a.267.267,0,1,1,.535,0v5.284A.268.268,0,0,1,2576.673,1270.086Z" transform="translate(-2576.406 -1264.266)" fill="#32293a"/>
    </g>
    <g id="Grupo_948076" data-name="Grupo 948076" transform="translate(2468.398 1212.74)">
      <path id="Trazado_632922" data-name="Trazado 632922" d="M2584.78,1269.23a.268.268,0,0,1-.268-.268v-6.227a.267.267,0,1,1,.535,0v6.227A.268.268,0,0,1,2584.78,1269.23Z" transform="translate(-2584.512 -1262.467)" fill="#32293a"/>
    </g>
    <g id="Grupo_948077" data-name="Grupo 948077" transform="translate(2472.562 1215.086)">
      <path id="Trazado_632923" data-name="Trazado 632923" d="M2595.834,1274.216a.268.268,0,0,1-.266-.241l-.532-5.284a.268.268,0,0,1,.239-.293.261.261,0,0,1,.293.24l.532,5.284a.268.268,0,0,1-.239.294Z" transform="translate(-2595.036 -1268.396)" fill="#32293a"/>
    </g>
    <g id="Grupo_948078" data-name="Grupo 948078" transform="translate(2490.812 1256.508)">
      <path id="Trazado_632924" data-name="Trazado 632924" d="M2649.068,1373.62h-7.641a.268.268,0,0,1,0-.536h7.641a.268.268,0,0,1,0,.536Z" transform="translate(-2641.159 -1373.084)" fill="#32293a"/>
    </g>
    <g id="Grupo_948079" data-name="Grupo 948079" transform="translate(2481.892 1242.048)">
      <path id="Trazado_632925" data-name="Trazado 632925" d="M2618.882,1351.609a.268.268,0,0,1-.268-.268v-14.533a.268.268,0,0,1,.268-.268h20.052a.268.268,0,0,1,0,.536h-19.785v14.265A.268.268,0,0,1,2618.882,1351.609Z" transform="translate(-2618.614 -1336.539)" fill="#32293a"/>
    </g>
    <g id="Grupo_948080" data-name="Grupo 948080" transform="translate(2498.051 1221.173)">
      <path id="Trazado_632926" data-name="Trazado 632926" d="M2660.612,1288.784l-.92-.656a.568.568,0,0,1-.239-.479.591.591,0,0,1,.281-.482,1.728,1.728,0,0,0,.855-1.427,1.847,1.847,0,0,0-.562-1.478.269.269,0,0,1-.048-.376.265.265,0,0,1,.375-.048,2.389,2.389,0,0,1,.77,1.929,2.274,2.274,0,0,1-1.107,1.855l-.169.288.155-.218.919.657Z" transform="translate(-2659.453 -1283.78)" fill="#32293a"/>
    </g>
    <g id="Grupo_948081" data-name="Grupo 948081" transform="translate(2501.69 1222.496)">
      <path id="Trazado_632927" data-name="Trazado 632927" d="M2671.705,1289.21a.268.268,0,0,1-.246-.163,2.3,2.3,0,0,0-2.476-1.349.268.268,0,0,1-.127-.521,2.818,2.818,0,0,1,3.095,1.659.269.269,0,0,1-.14.352A.275.275,0,0,1,2671.705,1289.21Z" transform="translate(-2668.652 -1287.123)" fill="#32293a"/>
    </g>
    <g id="Grupo_948082" data-name="Grupo 948082" transform="translate(2498.765 1227.622)">
      <path id="Trazado_632928" data-name="Trazado 632928" d="M2662.3,1301.125a1.246,1.246,0,0,1-.484-.1.9.9,0,0,1-.552-.622.267.267,0,1,1,.521-.121.38.38,0,0,0,.24.249.661.661,0,0,0,.552-.011.268.268,0,0,1,.276.459A1.073,1.073,0,0,1,2662.3,1301.125Z" transform="translate(-2661.259 -1300.078)" fill="#32293a"/>
    </g>
    <g id="Grupo_948083" data-name="Grupo 948083" transform="translate(2498.872 1229.832)">
      <path id="Trazado_632929" data-name="Trazado 632929" d="M2664.251,1307.671a3.074,3.074,0,0,1-2.69-1.614.267.267,0,1,1,.474-.248,2.645,2.645,0,0,0,3.756.934.268.268,0,0,1,.232.483A4.063,4.063,0,0,1,2664.251,1307.671Z" transform="translate(-2661.531 -1305.665)" fill="#32293a"/>
    </g>
    <path id="Trazado_632930" data-name="Trazado 632930" d="M2671.263,1292.712a.539.539,0,1,1-.355-.764A.6.6,0,0,1,2671.263,1292.712Z" transform="translate(-167.909 -67.536)" fill="#32293a"/>
    <path id="Trazado_632931" data-name="Trazado 632931" d="M2661.336,1289.71a.539.539,0,1,1-.355-.764A.6.6,0,0,1,2661.336,1289.71Z" transform="translate(-161.91 -65.721)" fill="#32293a"/>
    <g id="Grupo_948084" data-name="Grupo 948084" transform="translate(2510.63 1237.675)">
      <path id="Trazado_632932" data-name="Trazado 632932" d="M2705.578,1355.032a.268.268,0,0,1-.241-.151l-14.064-29.01a.268.268,0,0,1,.481-.234l14.064,29.01a.269.269,0,0,1-.124.358A.261.261,0,0,1,2705.578,1355.032Z" transform="translate(-2691.247 -1325.486)" fill="#32293a"/>
    </g>
    <g id="Grupo_948085" data-name="Grupo 948085" transform="translate(2499.596 1231.258)">
      <path id="Trazado_632933" data-name="Trazado 632933" d="M2668.166,1317.44a6.9,6.9,0,0,1-4.74-2.206.269.269,0,0,1-.016-.334l1.426-1.985a1.1,1.1,0,0,0,.206-.6l.1-2.787a.283.283,0,0,1,.277-.257.267.267,0,0,1,.257.278l-.1,2.787a1.626,1.626,0,0,1-.306.9l-1.295,1.8a6.276,6.276,0,0,0,4.309,1.871c1.8-.043,3.548-1.1,5.182-3.138a.268.268,0,1,1,.417.336c-1.739,2.17-3.62,3.293-5.592,3.339Z" transform="translate(-2663.36 -1309.268)" fill="#32293a"/>
    </g>
    <g id="Grupo_948086" data-name="Grupo 948086" transform="translate(2522.427 1250.561)">
      <path id="Trazado_632934" data-name="Trazado 632934" d="M2721.328,1363.146a.263.263,0,0,1-.169-.061.268.268,0,0,1-.038-.377l3.724-4.557a.268.268,0,0,1,.414.34l-3.724,4.557A.268.268,0,0,1,2721.328,1363.146Z" transform="translate(-2721.061 -1358.053)" fill="#32293a"/>
    </g>
    <g id="Grupo_948087" data-name="Grupo 948087" transform="translate(2496.647 1192.455)">
      <path id="Trazado_632935" data-name="Trazado 632935" d="M2656.584,1212.89a1.011,1.011,0,1,1,1.01,1.013A1.012,1.012,0,0,1,2656.584,1212.89Z" transform="translate(-2656.316 -1211.609)" fill="#fffdf7"/>
      <path id="Trazado_632936" data-name="Trazado 632936" d="M2657.186,1213.762a1.281,1.281,0,1,1,1.278-1.281A1.282,1.282,0,0,1,2657.186,1213.762Zm0-2.026a.745.745,0,1,0,.743.745A.745.745,0,0,0,2657.186,1211.736Z" transform="translate(-2655.907 -1211.2)" fill="#32293a"/>
    </g>
    <g id="Grupo_948088" data-name="Grupo 948088" transform="translate(2490.138 1191.289)">
      <rect id="Rectángulo_34513" data-name="Rectángulo 34513" width="4.234" height="4.243" rx="2.117" transform="translate(0.268 0.268)" fill="#fffdf7"/>
      <path id="Trazado_632937" data-name="Trazado 632937" d="M2642.523,1213.03h-1.367a1.705,1.705,0,0,1-1.7-1.7v-1.37a1.705,1.705,0,0,1,1.7-1.7h1.367a1.705,1.705,0,0,1,1.7,1.7v1.37A1.705,1.705,0,0,1,2642.523,1213.03Zm-1.367-4.243a1.168,1.168,0,0,0-1.166,1.168v1.37a1.168,1.168,0,0,0,1.166,1.168h1.367a1.168,1.168,0,0,0,1.166-1.168v-1.37a1.168,1.168,0,0,0-1.166-1.168Z" transform="translate(-2639.455 -1208.251)" fill="#32293a"/>
    </g>
    <g id="Grupo_948089" data-name="Grupo 948089" transform="translate(2426.675 1276.111)">
      <path id="Trazado_632938" data-name="Trazado 632938" d="M2485.772,1427.411l1.844-1.848a1.348,1.348,0,0,0,0-1.9h0a1.34,1.34,0,0,0-1.9,0l-1.844,1.848-1.844-1.848a1.344,1.344,0,0,0-1.9,1.9l1.844,1.848-1.844,1.848a1.344,1.344,0,0,0,1.9,1.9l1.844-1.848,1.844,1.848a1.341,1.341,0,0,0,1.9,0h0a1.348,1.348,0,0,0,0-1.9Z" transform="translate(-2479.471 -1423.013)" fill="#e6e1fb"/>
      <path id="Trazado_632939" data-name="Trazado 632939" d="M2486.259,1431.438a1.6,1.6,0,0,1-1.139-.472l-1.655-1.659-1.655,1.659a1.647,1.647,0,0,1-2.277,0,1.615,1.615,0,0,1,0-2.282l1.655-1.659-1.655-1.659a1.615,1.615,0,0,1,0-2.282,1.646,1.646,0,0,1,2.276,0l1.655,1.659,1.656-1.659a1.647,1.647,0,0,1,2.277,0,1.617,1.617,0,0,1,0,2.282l-1.656,1.659,1.655,1.659a1.613,1.613,0,0,1-1.138,2.754Zm-2.794-2.778a.267.267,0,0,1,.189.078l1.844,1.849a1.077,1.077,0,0,0,1.521-1.524l-1.844-1.848a.267.267,0,0,1,0-.379l1.844-1.848a1.077,1.077,0,0,0-1.521-1.524l-1.844,1.848a.265.265,0,0,1-.188.079h0a.269.269,0,0,1-.189-.079l-1.844-1.848a1.076,1.076,0,0,0-1.52,1.524l1.844,1.848a.27.27,0,0,1,0,.379l-1.844,1.848a1.076,1.076,0,0,0,1.52,1.524l1.844-1.849A.268.268,0,0,1,2483.465,1428.659Z" transform="translate(-2479.062 -1422.628)" fill="#32293a"/>
    </g>
    <g id="Grupo_948090" data-name="Grupo 948090" transform="translate(2523.237 1189.805)">
      <path id="Trazado_632940" data-name="Trazado 632940" d="M2745.509,1252.907a.267.267,0,0,1-.238-.146,51.441,51.441,0,0,0-8.849-12.033c-4.3-4.673-7.7-8.364-6.552-16.16,1.244-8.477,1.455-14.418-6.638-19.573a.268.268,0,0,1,.287-.452c8.345,5.315,8.116,11.684,6.88,20.1-1.107,7.543,2.049,10.973,6.417,15.719a51.871,51.871,0,0,1,8.932,12.152.268.268,0,0,1-.116.361A.262.262,0,0,1,2745.509,1252.907Z" transform="translate(-2723.108 -1204.501)" fill="#32293a"/>
    </g>
    <g id="Grupo_948091" data-name="Grupo 948091" transform="translate(2416.538 1292.527)">
      <path id="Trazado_632941" data-name="Trazado 632941" d="M2476.255,1493.459a.267.267,0,0,1-.248-.168c-.122-.3-.235-.6-.345-.884-1.276-3.325-2.119-5.522-12.393-7.96a11.818,11.818,0,0,1-8.147-6.026c-2.541-4.807-1.74-11.084-.583-14.13a.268.268,0,0,1,.5.191c-1.123,2.955-1.9,9.039.555,13.688a11.3,11.3,0,0,0,7.8,5.755c10.548,2.5,11.431,4.805,12.768,8.29.109.284.22.575.342.875a.267.267,0,0,1-.248.368Z" transform="translate(-2453.443 -1464.119)" fill="#32293a"/>
    </g>
    <g id="Grupo_948092" data-name="Grupo 948092" transform="translate(2398.849 1229.375)">
      <path id="Trazado_632942" data-name="Trazado 632942" d="M2410.3,1307.642a1.566,1.566,0,1,1,.551-.1A1.56,1.56,0,0,1,2410.3,1307.642Zm0-2.6a1.03,1.03,0,1,0,.361,1.995h0a1.031,1.031,0,0,0-.361-1.995Z" transform="translate(-2408.734 -1304.508)" fill="#32293a"/>
    </g>
    <g id="Grupo_948093" data-name="Grupo 948093" transform="translate(2392.376 1217.596)">
      <path id="Trazado_632943" data-name="Trazado 632943" d="M2395.442,1280.875a3.068,3.068,0,0,1-1.08-5.938,3.066,3.066,0,1,1,1.08,5.938Zm0-5.6a2.529,2.529,0,1,0,1.042.227A2.525,2.525,0,0,0,2395.44,1275.275Z" transform="translate(-2392.376 -1274.739)" fill="#32293a"/>
    </g>
    <g id="Grupo_948094" data-name="Grupo 948094" transform="translate(2544.521 1253.961)">
      <path id="Trazado_632944" data-name="Trazado 632944" d="M2779.964,1372.782a3.068,3.068,0,0,1-1.079-5.938,3.058,3.058,0,0,1,3.941,1.792,3.073,3.073,0,0,1-1.789,3.95h0A3.052,3.052,0,0,1,2779.964,1372.782Zm0-5.6a2.509,2.509,0,0,0-.889.164,2.53,2.53,0,0,0,1.776,4.738h0a2.536,2.536,0,0,0,1.476-3.26,2.531,2.531,0,0,0-2.363-1.642Z" transform="translate(-2776.901 -1366.646)" fill="#32293a"/>
    </g>
    <g id="Grupo_948095" data-name="Grupo 948095" transform="translate(2546.207 1265.344)">
      <path id="Trazado_632945" data-name="Trazado 632945" d="M2782.539,1398.171a1.378,1.378,0,0,1-.485-2.666,1.377,1.377,0,0,1,.968,2.578h0A1.358,1.358,0,0,1,2782.539,1398.171Zm.388-.339h0Zm-.389-1.88a.841.841,0,1,0,.3,1.629.842.842,0,0,0-.3-1.629Z" transform="translate(-2781.163 -1395.416)" fill="#32293a"/>
    </g>
    <g id="Grupo_948096" data-name="Grupo 948096" transform="translate(2512.686 1183.241)">
      <path id="Trazado_632946" data-name="Trazado 632946" d="M2697.82,1190.665a1.373,1.373,0,1,1,.481-.088A1.377,1.377,0,0,1,2697.82,1190.665Zm0-2.219a.843.843,0,0,0-.765.494.837.837,0,1,0,.765-.494Z" transform="translate(-2696.444 -1187.911)" fill="#32293a"/>
    </g>
  </g>
</svg>
