<svg xmlns="http://www.w3.org/2000/svg" width="67" height="72" viewBox="0 0 67 72">
  <g id="Grupo_948236" data-name="Grupo 948236" transform="translate(9423 3522)">
    <rect id="Rectángulo_34191" data-name="Rectángulo 34191" width="67" height="72" rx="5" transform="translate(-9423 -3522)" fill="#fff"/>
    <g id="caja-cubo" transform="translate(-9417.441 -3538.549)">
      <path id="Trazado_633132" data-name="Trazado 633132" d="M325.353,31.556l24.661,8.791a1.757,1.757,0,0,0,1.158.006l8.2-2.847a.872.872,0,0,0,0-1.648l-24.388-8.471a3.592,3.592,0,0,0-2.352,0l-7.271,2.521A.875.875,0,0,0,325.353,31.556Z" transform="translate(-305.867)"/>
      <path id="Trazado_633133" data-name="Trazado 633133" d="M31.264,131.084l5.938,2.061,18.478,6.416a3.519,3.519,0,0,0,2.294,0l7.138-2.474a.873.873,0,0,0,.006-1.648L40.44,126.653a1.757,1.757,0,0,0-1.159-.006l-8.017,2.789A.87.87,0,0,0,31.264,131.084Z" transform="translate(-28.889 -93.578)"/>
      <path id="Trazado_633134" data-name="Trazado 633134" d="M2.4,311.461l21.2,7.359a1.166,1.166,0,0,0,1.549-1.1V290.985a2.333,2.333,0,0,0-1.566-2.2l-22.426-7.79A.874.874,0,0,0,0,281.822v26.256A3.582,3.582,0,0,0,2.4,311.461Z" transform="translate(0 -238.983)"/>
      <path id="Trazado_633135" data-name="Trazado 633135" d="M527.9,291.078v26.74a1.166,1.166,0,0,0,1.549,1.1l21.2-7.359a3.575,3.575,0,0,0,2.4-3.383V281.921a.874.874,0,0,0-1.159-.827l-22.432,7.784A2.328,2.328,0,0,0,527.9,291.078Z" transform="translate(-497.167 -239.076)"/>
    </g>
  </g>
</svg>
