<svg xmlns="http://www.w3.org/2000/svg" xmlns:xlink="http://www.w3.org/1999/xlink" width="74" height="74" viewBox="0 0 74 74">
  <defs>
    <clipPath id="clip-path">
      <rect id="Rectángulo_42259" data-name="Rectángulo 42259" width="74" height="74" transform="translate(1277 4042)" fill="#fff" stroke="#707070" stroke-width="1"/>
    </clipPath>
  </defs>
  <g id="Enmascarar_grupo_134" data-name="Enmascarar grupo 134" transform="translate(-1277 -4042)" clip-path="url(#clip-path)">
    <g id="control-de-calidad" transform="translate(1282.173 4042)">
      <g id="Grupo_949996" data-name="Grupo 949996" transform="translate(6.679 9.749)">
        <g id="Grupo_949995" data-name="Grupo 949995">
          <path id="Trazado_635061" data-name="Trazado 635061" d="M65.311,12.647H15.749l-.374.145v62.3a.723.723,0,0,0,.723.723H64.949a.723.723,0,0,0,.723-.723v-62.3Z" transform="translate(-15.375 -12.647)" fill="#fff3de"/>
        </g>
      </g>
      <g id="Grupo_949997" data-name="Grupo 949997" transform="translate(6.679 9.749)">
        <path id="Trazado_635062" data-name="Trazado 635062" d="M22.6,75.092v-62.3l.374-.145H15.749l-.374.145v62.3a.723.723,0,0,0,.723.723h7.227A.723.723,0,0,1,22.6,75.092Z" transform="translate(-15.375 -12.647)" fill="#ffe5c2"/>
      </g>
      <g id="Grupo_950027" data-name="Grupo 950027" transform="translate(1.085 1.084)">
        <g id="Grupo_949998" data-name="Grupo 949998" transform="translate(5.594 0)">
          <path id="Trazado_635063" data-name="Trazado 635063" d="M65.672,10.216h-50.3V2.129a.723.723,0,0,1,.723-.723H64.949a.723.723,0,0,1,.723.723Z" transform="translate(-15.375 -1.406)" fill="#583ae2"/>
        </g>
        <g id="Grupo_949999" data-name="Grupo 949999" transform="translate(5.594)">
          <path id="Trazado_635064" data-name="Trazado 635064" d="M23.324,1.406H16.1a.723.723,0,0,0-.723.723v8.087H22.6V2.129a.723.723,0,0,1,.723-.723Z" transform="translate(-15.375 -1.406)" fill="#40327b"/>
        </g>
        <g id="Grupo_950014" data-name="Grupo 950014" transform="translate(13.977 37.208)">
          <g id="Grupo_950000" data-name="Grupo 950000">
            <path id="Trazado_635065" data-name="Trazado 635065" d="M30.7,54.559H26.684a.434.434,0,0,1-.434-.434V50.109a.434.434,0,0,1,.434-.434H30.7a.434.434,0,0,1,.434.434v4.016A.434.434,0,0,1,30.7,54.559Z" transform="translate(-26.25 -49.675)" fill="#fff"/>
          </g>
          <g id="Grupo_950001" data-name="Grupo 950001" transform="translate(0 8.054)">
            <path id="Trazado_635066" data-name="Trazado 635066" d="M30.7,65.007H26.684a.434.434,0,0,1-.434-.434V60.558a.434.434,0,0,1,.434-.434H30.7a.434.434,0,0,1,.434.434v4.016A.434.434,0,0,1,30.7,65.007Z" transform="translate(-26.25 -60.124)" fill="#fff"/>
          </g>
          <g id="Grupo_950002" data-name="Grupo 950002" transform="translate(0 16.108)">
            <path id="Trazado_635067" data-name="Trazado 635067" d="M30.7,75.456H26.684a.434.434,0,0,1-.434-.434V71.006a.434.434,0,0,1,.434-.434H30.7a.434.434,0,0,1,.434.434v4.016A.434.434,0,0,1,30.7,75.456Z" transform="translate(-26.25 -70.573)" fill="#fff"/>
          </g>
          <g id="Grupo_950013" data-name="Grupo 950013">
            <g id="Grupo_950012" data-name="Grupo 950012">
              <g id="Grupo_950003" data-name="Grupo 950003" transform="translate(0 24.162)">
                <path id="Trazado_635068" data-name="Trazado 635068" d="M30.7,85.9H26.684a.434.434,0,0,1-.434-.434V81.455a.434.434,0,0,1,.434-.434H30.7a.434.434,0,0,1,.434.434v4.016A.434.434,0,0,1,30.7,85.9Z" transform="translate(-26.25 -81.021)" fill="#fff"/>
              </g>
              <g id="Grupo_950004" data-name="Grupo 950004">
                <path id="Trazado_635069" data-name="Trazado 635069" d="M30.7,54.559H26.684a.434.434,0,0,1-.434-.434V50.109a.434.434,0,0,1,.434-.434H30.7a.434.434,0,0,1,.434.434v4.016A.434.434,0,0,1,30.7,54.559Z" transform="translate(-26.25 -49.675)" fill="#583ae2"/>
              </g>
              <g id="Grupo_950005" data-name="Grupo 950005">
                <path id="Trazado_635070" data-name="Trazado 635070" d="M28.593,54.125V50.109a.434.434,0,0,1,.434-.434H26.684a.434.434,0,0,0-.434.434v4.016a.434.434,0,0,0,.434.434h2.343A.434.434,0,0,1,28.593,54.125Z" transform="translate(-26.25 -49.675)" fill="#40327b"/>
              </g>
              <g id="Grupo_950006" data-name="Grupo 950006" transform="translate(0 8.054)">
                <path id="Trazado_635071" data-name="Trazado 635071" d="M30.7,65.007H26.684a.434.434,0,0,1-.434-.434V60.558a.434.434,0,0,1,.434-.434H30.7a.434.434,0,0,1,.434.434v4.016A.434.434,0,0,1,30.7,65.007Z" transform="translate(-26.25 -60.124)" fill="#583ae2"/>
              </g>
              <g id="Grupo_950007" data-name="Grupo 950007" transform="translate(0 8.054)">
                <path id="Trazado_635072" data-name="Trazado 635072" d="M28.593,64.574V60.558a.434.434,0,0,1,.434-.434H26.684a.434.434,0,0,0-.434.434v4.016a.434.434,0,0,0,.434.434h2.343A.434.434,0,0,1,28.593,64.574Z" transform="translate(-26.25 -60.124)" fill="#40327b"/>
              </g>
              <g id="Grupo_950008" data-name="Grupo 950008" transform="translate(0 16.108)">
                <path id="Trazado_635073" data-name="Trazado 635073" d="M30.7,75.456H26.684a.434.434,0,0,1-.434-.434V71.006a.434.434,0,0,1,.434-.434H30.7a.434.434,0,0,1,.434.434v4.016A.434.434,0,0,1,30.7,75.456Z" transform="translate(-26.25 -70.573)" fill="#583ae2"/>
              </g>
              <g id="Grupo_950009" data-name="Grupo 950009" transform="translate(0 16.108)">
                <path id="Trazado_635074" data-name="Trazado 635074" d="M28.593,75.022V71.006a.434.434,0,0,1,.434-.434H26.684a.434.434,0,0,0-.434.434v4.016a.434.434,0,0,0,.434.434h2.343A.434.434,0,0,1,28.593,75.022Z" transform="translate(-26.25 -70.573)" fill="#40327b"/>
              </g>
              <g id="Grupo_950010" data-name="Grupo 950010" transform="translate(0 24.162)">
                <path id="Trazado_635075" data-name="Trazado 635075" d="M30.7,85.9H26.684a.434.434,0,0,1-.434-.434V81.455a.434.434,0,0,1,.434-.434H30.7a.434.434,0,0,1,.434.434v4.016A.434.434,0,0,1,30.7,85.9Z" transform="translate(-26.25 -81.021)" fill="#583ae2"/>
              </g>
              <g id="Grupo_950011" data-name="Grupo 950011" transform="translate(0 24.162)">
                <path id="Trazado_635076" data-name="Trazado 635076" d="M28.593,85.471V81.455a.434.434,0,0,1,.434-.434H26.684a.434.434,0,0,0-.434.434v4.016a.434.434,0,0,0,.434.434h2.343A.434.434,0,0,1,28.593,85.471Z" transform="translate(-26.25 -81.021)" fill="#40327b"/>
              </g>
            </g>
          </g>
        </g>
        <g id="Grupo_950019" data-name="Grupo 950019" transform="translate(16.169 3.396)">
          <g id="Grupo_950015" data-name="Grupo 950015">
            <path id="Trazado_635077" data-name="Trazado 635077" d="M44.02,5.955l3.3,3.188a.509.509,0,0,0,.424.138l4.544-.638a.508.508,0,0,1,.571.415l.8,4.519a.508.508,0,0,0,.262.36l4.052,2.155a.508.508,0,0,1,.218.671l-2.011,4.125a.509.509,0,0,0,0,.446l2.011,4.125a.508.508,0,0,1-.218.671L53.92,28.284a.508.508,0,0,0-.262.36l-.8,4.519a.508.508,0,0,1-.571.415l-4.544-.638a.508.508,0,0,0-.424.138l-3.3,3.188a.508.508,0,0,1-.706,0l-3.3-3.188a.509.509,0,0,0-.424-.138l-4.544.638a.508.508,0,0,1-.571-.415l-.8-4.519a.508.508,0,0,0-.262-.36l-4.052-2.155a.508.508,0,0,1-.218-.671l2.011-4.125a.509.509,0,0,0,0-.446l-2.011-4.125a.508.508,0,0,1,.218-.671l4.052-2.155a.508.508,0,0,0,.262-.36l.8-4.519a.508.508,0,0,1,.571-.415l4.544.638a.508.508,0,0,0,.424-.138l3.3-3.188a.508.508,0,0,1,.706,0Z" transform="translate(-29.093 -5.812)" fill="#2ff980"/>
          </g>
          <g id="Grupo_950018" data-name="Grupo 950018" transform="translate(6.933 7.656)">
            <g id="Grupo_950016" data-name="Grupo 950016">
              <circle id="Elipse_5444" data-name="Elipse 5444" cx="7.641" cy="7.641" r="7.641" fill="#6ac9d6"/>
            </g>
            <g id="Grupo_950017" data-name="Grupo 950017" transform="translate(0 0)">
              <path id="Trazado_635078" data-name="Trazado 635078" d="M42.587,23.386a7.644,7.644,0,0,1,5.391-7.3,7.641,7.641,0,1,0,0,14.608A7.644,7.644,0,0,1,42.587,23.386Z" transform="translate(-38.087 -15.745)" fill="#45bbcc"/>
            </g>
          </g>
        </g>
        <g id="Grupo_950026" data-name="Grupo 950026" transform="translate(0 13.144)">
          <g id="Grupo_950020" data-name="Grupo 950020" transform="translate(0)">
            <path id="Trazado_635079" data-name="Trazado 635079" d="M15.574,18.741l1.77,3.586a.508.508,0,0,0,.383.278l3.957.575a.508.508,0,0,1,.282.867L19.1,26.838a.508.508,0,0,0-.146.45l.676,3.941a.508.508,0,0,1-.737.536L15.355,29.9a.508.508,0,0,0-.473,0l-3.539,1.861a.508.508,0,0,1-.737-.536l.676-3.941a.508.508,0,0,0-.146-.45L8.272,24.047a.508.508,0,0,1,.282-.867L12.51,22.6a.508.508,0,0,0,.383-.278l1.77-3.586a.508.508,0,0,1,.911,0Z" transform="translate(-8.118 -18.458)" fill="#fed402"/>
          </g>
          <g id="Grupo_950022" data-name="Grupo 950022" transform="translate(0 4.184)">
            <g id="Grupo_950021" data-name="Grupo 950021">
              <path id="Trazado_635080" data-name="Trazado 635080" d="M14.483,30.963l.676-3.941a.508.508,0,0,0-.146-.45l-2.756-2.687-3.7.538a.508.508,0,0,0-.282.867l2.863,2.791a.508.508,0,0,1,.146.45l-.676,3.941a.508.508,0,0,0,.737.536l3.211-1.688a.5.5,0,0,1-.071-.357Z" transform="translate(-8.118 -23.885)" fill="#fac600"/>
            </g>
          </g>
          <g id="Grupo_950023" data-name="Grupo 950023" transform="translate(47.484 0)">
            <path id="Trazado_635081" data-name="Trazado 635081" d="M77.175,18.741l1.77,3.586a.508.508,0,0,0,.383.278l3.957.575a.508.508,0,0,1,.282.867L80.7,26.838a.508.508,0,0,0-.146.45l.676,3.941a.508.508,0,0,1-.737.536L76.956,29.9a.508.508,0,0,0-.473,0l-3.539,1.861a.508.508,0,0,1-.737-.536l.676-3.941a.509.509,0,0,0-.146-.45l-2.863-2.791a.508.508,0,0,1,.282-.867l3.957-.575a.508.508,0,0,0,.383-.278l1.77-3.586A.508.508,0,0,1,77.175,18.741Z" transform="translate(-69.718 -18.458)" fill="#fed402"/>
          </g>
          <g id="Grupo_950025" data-name="Grupo 950025" transform="translate(47.484 4.292)">
            <g id="Grupo_950024" data-name="Grupo 950024">
              <path id="Trazado_635082" data-name="Trazado 635082" d="M75.555,31.36l.676-3.941a.509.509,0,0,0-.146-.45l-2.863-2.791a.507.507,0,0,1-.107-.152l-2.96.43a.508.508,0,0,0-.282.867l2.863,2.791a.508.508,0,0,1,.146.45L72.206,32.5a.508.508,0,0,0,.737.536l2.646-1.391a.5.5,0,0,1-.034-.289Z" transform="translate(-69.718 -24.025)" fill="#fac600"/>
            </g>
          </g>
        </g>
      </g>
      <g id="Grupo_950028" data-name="Grupo 950028" transform="translate(0)">
        <path id="Trazado_635083" data-name="Trazado 635083" d="M62.314,51.225H38.387a1.084,1.084,0,0,0,0,2.168H62.314a1.084,1.084,0,0,0,0-2.168Z" transform="translate(-13.721 -11.739)"/>
        <path id="Trazado_635084" data-name="Trazado 635084" d="M62.314,61.674H38.387a1.084,1.084,0,0,0,0,2.168H62.314a1.084,1.084,0,0,0,0-2.168Z" transform="translate(-13.721 -14.134)"/>
        <path id="Trazado_635085" data-name="Trazado 635085" d="M62.314,72.123H38.387a1.084,1.084,0,0,0,0,2.168H62.314a1.084,1.084,0,0,0,0-2.168Z" transform="translate(-13.721 -16.528)"/>
        <path id="Trazado_635086" data-name="Trazado 635086" d="M62.314,82.571H38.387a1.084,1.084,0,0,0,0,2.168H62.314a1.084,1.084,0,0,0,0-2.168Z" transform="translate(-13.721 -18.923)"/>
        <path id="Trazado_635087" data-name="Trazado 635087" d="M45.406,31.789a8.7,8.7,0,0,0,8.067-5.4,1.084,1.084,0,1,0-2-.827,6.558,6.558,0,1,1,.23-4.341,1.084,1.084,0,0,0,2.081-.608,8.725,8.725,0,1,0-8.374,11.174Z" transform="translate(-13.579 -3.286)"/>
        <path id="Trazado_635088" data-name="Trazado 635088" d="M49.338,22.262l-3.172,3.173-2.2-2.2a1.084,1.084,0,0,0-1.533,1.533L45.4,27.734a1.084,1.084,0,0,0,1.533,0L50.872,23.8a1.084,1.084,0,0,0-1.533-1.533Z" transform="translate(-14.824 -5.029)"/>
        <path id="Trazado_635089" data-name="Trazado 635089" d="M31.895,49.787a1.519,1.519,0,0,0-1.518-1.518H26.361a1.519,1.519,0,0,0-1.518,1.518V53.8a1.519,1.519,0,0,0,1.518,1.518h4.016A1.519,1.519,0,0,0,31.895,53.8Zm-2.168,3.366H27.012V50.437h2.715Z" transform="translate(-10.866 -11.062)"/>
        <path id="Trazado_635090" data-name="Trazado 635090" d="M31.895,60.235a1.519,1.519,0,0,0-1.518-1.518H26.361a1.519,1.519,0,0,0-1.518,1.518v4.016a1.519,1.519,0,0,0,1.518,1.518h4.016a1.519,1.519,0,0,0,1.518-1.518ZM29.727,63.6H27.012V60.886h2.715Z" transform="translate(-10.866 -13.456)"/>
        <path id="Trazado_635091" data-name="Trazado 635091" d="M31.895,70.684a1.519,1.519,0,0,0-1.518-1.518H26.361a1.519,1.519,0,0,0-1.518,1.518V74.7a1.519,1.519,0,0,0,1.518,1.518h4.016A1.519,1.519,0,0,0,31.895,74.7ZM29.727,74.05H27.012V71.334h2.715Z" transform="translate(-10.866 -15.851)"/>
        <path id="Trazado_635092" data-name="Trazado 635092" d="M30.377,79.615H26.361a1.519,1.519,0,0,0-1.518,1.518v4.016a1.519,1.519,0,0,0,1.518,1.518h4.016a1.519,1.519,0,0,0,1.518-1.518V81.133A1.519,1.519,0,0,0,30.377,79.615Zm-.65,4.883H27.012V81.783h2.715Z" transform="translate(-10.866 -18.245)"/>
        <path id="Trazado_635093" data-name="Trazado 635093" d="M70.286,18.961A1.583,1.583,0,0,0,69,17.877l-3.657-.532-.573-1.161V1.807A1.808,1.808,0,0,0,62.964,0H14.112a1.809,1.809,0,0,0-1.807,1.807V16.185l-.573,1.161-3.657.532a1.592,1.592,0,0,0-.883,2.716l2.647,2.58-.625,3.643a1.592,1.592,0,0,0,2.31,1.679l.781-.41v44.11A1.809,1.809,0,0,0,14.112,74H62.964a1.809,1.809,0,0,0,1.807-1.807V52.609a1.084,1.084,0,0,0-2.168,0V71.832H14.473V26.944l.323-.17,3.271,1.72a1.592,1.592,0,0,0,2.31-1.679l-.625-3.643,2.647-2.58a1.592,1.592,0,0,0-.882-2.716l-3.658-.532-1.636-3.314a1.582,1.582,0,0,0-1.428-.888h0a1.6,1.6,0,0,0-.323.036v-2.2h13.2l-.141.8-3.8,2.023a1.587,1.587,0,0,0-.683,2.1l1.888,3.872-1.888,3.872a1.586,1.586,0,0,0,.683,2.1l3.8,2.023.748,4.243a1.587,1.587,0,0,0,1.79,1.3l4.266-.6,3.1,2.993a1.586,1.586,0,0,0,2.212,0l3.1-2.993,4.267.6a1.586,1.586,0,0,0,1.789-1.3l.748-4.243,3.8-2.023a1.586,1.586,0,0,0,.683-2.1l-1.888-3.872,1.888-3.872a1.587,1.587,0,0,0-.683-2.1l-3.8-2.023-.141-.8h3.441a1.084,1.084,0,1,0,0-2.168H49.023L48.8,7.536a1.587,1.587,0,0,0-1.789-1.3l-4.266.6-3.1-2.993a1.586,1.586,0,0,0-2.212,0l-3.1,2.993-4.267-.6a1.587,1.587,0,0,0-1.789,1.3l-.224,1.273H14.473V2.168H62.6V8.81h-4.7a1.084,1.084,0,1,0,0,2.168h4.7v2.2a1.609,1.609,0,0,0-.322-.036h0a1.582,1.582,0,0,0-1.428.888l-1.636,3.314-3.658.532a1.592,1.592,0,0,0-.883,2.716l2.647,2.58L56.7,26.815a1.59,1.59,0,0,0,2.31,1.679l3.271-1.72.323.17V47.551a1.084,1.084,0,0,0,2.168,0V28.084l.781.41a1.592,1.592,0,0,0,2.31-1.679l-.625-3.643,2.647-2.58a1.583,1.583,0,0,0,.4-1.632ZM14.8,16.037l1.253,2.54a1.592,1.592,0,0,0,1.2.871l2.8.407-2.028,1.977a1.592,1.592,0,0,0-.458,1.409l.479,2.791-2.507-1.318a1.592,1.592,0,0,0-1.482,0l-2.507,1.318.479-2.791a1.592,1.592,0,0,0-.458-1.409L9.542,19.855l2.8-.407a1.592,1.592,0,0,0,1.2-.871Zm14-2.476a1.583,1.583,0,0,0,.82-1.129l.7-3.972,3.994.561a1.582,1.582,0,0,0,1.328-.431l2.9-2.8,2.9,2.8a1.583,1.583,0,0,0,1.328.432l3.994-.561.7,3.972a1.583,1.583,0,0,0,.821,1.129l3.561,1.894-1.768,3.626a1.584,1.584,0,0,0,0,1.4L51.842,24.1l-3.561,1.894a1.583,1.583,0,0,0-.821,1.129l-.7,3.972-3.994-.561a1.582,1.582,0,0,0-1.328.431l-2.9,2.8-2.9-2.8a1.581,1.581,0,0,0-1.1-.447,1.624,1.624,0,0,0-.225.016l-3.994.561-.7-3.972a1.583,1.583,0,0,0-.821-1.129L25.233,24.1,27,20.476a1.582,1.582,0,0,0,0-1.4l-1.768-3.625Zm36.712,8.27a1.593,1.593,0,0,0-.458,1.409l.479,2.791-2.507-1.318a1.592,1.592,0,0,0-1.482,0l-2.507,1.318.479-2.791a1.593,1.593,0,0,0-.458-1.409l-2.028-1.977,2.8-.407a1.592,1.592,0,0,0,1.2-.871l1.253-2.54,1.254,2.54a1.592,1.592,0,0,0,1.2.871l2.8.407Z" transform="translate(-6.711)"/>
      </g>
    </g>
  </g>
</svg>
