<svg xmlns="http://www.w3.org/2000/svg" width="331.452" height="1162.586" viewBox="0 0 331.452 1162.586">
  <g id="Grupo_950105" data-name="Grupo 950105" transform="translate(10136.226 545.513)">
    <path id="Trazado_633056" data-name="Trazado 633056" d="M1299.938,2973.943c0-28.959-25.383-52.45-56.724-52.45H1080.591V3026.4h162.623a58.868,58.868,0,0,0,40.115-15.368A50.325,50.325,0,0,0,1299.938,2973.943Z" transform="translate(-11104.711 -2445.287)" fill="#bee7ed" opacity="0.4"/>
    <path id="Trazado_635168" data-name="Trazado 635168" d="M52.867,0A52.867,52.867,0,1,1,0,52.867,52.867,52.867,0,0,1,52.867,0Z" transform="translate(-10098.885 516.673) rotate(-45)" fill="#bee7ed"/>
    <path id="Trazado_635169" data-name="Trazado 635169" d="M43.422,0A43.422,43.422,0,1,1,0,43.422,43.422,43.422,0,0,1,43.422,0Z" transform="translate(-10067.543 473.728)" fill="#fff"/>
    <g id="Grupo_948213" data-name="Grupo 948213" transform="translate(-10023.699 392.02) rotate(45)">
      <path id="Trazado_632962" data-name="Trazado 632962" d="M992.468,2880.458l13.35-13.349,44.758,44.758a52.382,52.382,0,1,0,29.76-9.28h0v-18.879a71.284,71.284,0,1,1-56.621,28Z" transform="translate(-992.468 -2867.108)" fill="#45bbcc"/>
    </g>
    <g id="Grupo_948215" data-name="Grupo 948215" transform="translate(-10892.588 -7643.382)">
      <g id="Grupo_82733" data-name="Grupo 82733" transform="translate(846.738 8078.79)">
        <g id="Grupo_82732" data-name="Grupo 82732" transform="translate(0 0)">
          <circle id="Elipse_5320" data-name="Elipse 5320" cx="21.549" cy="21.549" r="21.549" transform="translate(1.85 44.949) rotate(-90)" fill="#45bbcc"/>
          <g id="Grupo_82731" data-name="Grupo 82731">
            <path id="Trazado_120382" data-name="Trazado 120382" d="M300.506,134.4a23.4,23.4,0,1,1,23.4-23.4A23.426,23.426,0,0,1,300.506,134.4Zm0-43.1A19.7,19.7,0,1,0,320.2,111,19.721,19.721,0,0,0,300.506,91.3Z" transform="translate(-277.106 -87.598)" fill="#29707a"/>
          </g>
        </g>
      </g>
      <text id="_07" data-name="07" transform="translate(870.537 8110.295)" fill="#fff" font-size="20" font-family="Roboto-Black, Roboto" font-weight="800"><tspan x="-11.582" y="0">07</tspan></text>
    </g>
    <path id="Trazado_635170" data-name="Trazado 635170" d="M39.629,10.836H37.762V15H35.418V3.625h4.227a4.778,4.778,0,0,1,3.109.9,3.1,3.1,0,0,1,1.094,2.539A3.5,3.5,0,0,1,43.344,9a3.437,3.437,0,0,1-1.527,1.238l2.461,4.648V15H41.762Zm-1.867-1.9h1.891a1.936,1.936,0,0,0,1.367-.449A1.606,1.606,0,0,0,41.5,7.25a1.719,1.719,0,0,0-.457-1.266,1.9,1.9,0,0,0-1.4-.461H37.762Zm11.609,6.219a4.15,4.15,0,0,1-3.027-1.141,4.054,4.054,0,0,1-1.168-3.039v-.219a5.106,5.106,0,0,1,.492-2.277,3.612,3.612,0,0,1,1.395-1.547,3.914,3.914,0,0,1,2.059-.543,3.508,3.508,0,0,1,2.73,1.094,4.444,4.444,0,0,1,1,3.1v.922H47.465a2.1,2.1,0,0,0,.66,1.328,2,2,0,0,0,1.395.5,2.437,2.437,0,0,0,2.039-.945l1.109,1.242a3.389,3.389,0,0,1-1.375,1.121A4.511,4.511,0,0,1,49.371,15.156Zm-.258-6.945a1.411,1.411,0,0,0-1.09.455,2.357,2.357,0,0,0-.535,1.3h3.141V9.788a1.681,1.681,0,0,0-.406-1.165A1.456,1.456,0,0,0,49.113,8.211Zm12.625,2.641a5.07,5.07,0,0,1-.887,3.129,2.843,2.843,0,0,1-2.395,1.176,2.633,2.633,0,0,1-2.07-.891V18.25H54.129V6.547h2.094l.078.828a2.654,2.654,0,0,1,2.141-.984,2.862,2.862,0,0,1,2.43,1.156,5.207,5.207,0,0,1,.867,3.188Zm-2.258-.172a3.345,3.345,0,0,0-.418-1.826,1.36,1.36,0,0,0-1.215-.643,1.478,1.478,0,0,0-1.461.815V12.5a1.5,1.5,0,0,0,1.477.839Q59.48,13.336,59.48,10.679Zm3.3.016a5.013,5.013,0,0,1,.484-2.242A3.546,3.546,0,0,1,64.664,6.93a4.069,4.069,0,0,1,2.113-.539A3.849,3.849,0,0,1,69.57,7.438a4.2,4.2,0,0,1,1.207,2.844l.016.578a4.418,4.418,0,0,1-1.086,3.121,4.209,4.209,0,0,1-5.832,0,4.5,4.5,0,0,1-1.09-3.187Zm2.258.16A3.16,3.16,0,0,0,65.5,12.7a1.628,1.628,0,0,0,2.578.008,3.457,3.457,0,0,0,.461-2.015,3.128,3.128,0,0,0-.461-1.831,1.5,1.5,0,0,0-1.3-.649,1.474,1.474,0,0,0-1.281.646A3.516,3.516,0,0,0,65.043,10.856ZM76.934,8.664a6.134,6.134,0,0,0-.812-.062,1.654,1.654,0,0,0-1.68.867V15H72.184V6.547h2.133l.063,1.008a2.092,2.092,0,0,1,1.883-1.164,2.366,2.366,0,0,1,.7.1Zm4.18-4.2V6.547h1.445V8.2H81.113v4.219a1.007,1.007,0,0,0,.18.672.9.9,0,0,0,.688.2,3.6,3.6,0,0,0,.664-.055v1.711a4.648,4.648,0,0,1-1.367.2,2.156,2.156,0,0,1-2.422-2.4V8.2H77.621V6.547h1.234V4.469Zm6.594,10.688a4.15,4.15,0,0,1-3.027-1.141,4.054,4.054,0,0,1-1.168-3.039v-.219A5.106,5.106,0,0,1,84,8.48,3.612,3.612,0,0,1,85.4,6.934a3.914,3.914,0,0,1,2.059-.543,3.508,3.508,0,0,1,2.73,1.094,4.444,4.444,0,0,1,1,3.1v.922H85.8a2.1,2.1,0,0,0,.66,1.328,2,2,0,0,0,1.395.5,2.437,2.437,0,0,0,2.039-.945L91,13.633a3.389,3.389,0,0,1-1.375,1.121A4.511,4.511,0,0,1,87.707,15.156Zm-.258-6.945a1.411,1.411,0,0,0-1.09.455,2.357,2.357,0,0,0-.535,1.3h3.141V9.788a1.681,1.681,0,0,0-.406-1.165A1.456,1.456,0,0,0,87.449,8.211Z" transform="translate(-9946.355 512.673)" fill="#12263f"/>
    <path id="Trazado_633055" data-name="Trazado 633055" d="M1299.938,2973.943c0-28.959-25.383-52.45-56.724-52.45H1080.591V3026.4h162.623a58.868,58.868,0,0,0,40.115-15.368A50.325,50.325,0,0,0,1299.938,2973.943Z" transform="translate(-11104.711 -2607.287)" fill="#bee7ed" opacity="0.4"/>
    <path id="Trazado_635171" data-name="Trazado 635171" d="M52.867,0A52.867,52.867,0,1,1,0,52.867,52.867,52.867,0,0,1,52.867,0Z" transform="translate(-10098.885 354.673) rotate(-45)" fill="#bee7ed"/>
    <path id="Trazado_635172" data-name="Trazado 635172" d="M43.422,0A43.422,43.422,0,1,1,0,43.422,43.422,43.422,0,0,1,43.422,0Z" transform="translate(-10067.543 311.728)" fill="#fff"/>
    <g id="Grupo_948209" data-name="Grupo 948209" transform="translate(-10023.699 230.02) rotate(45)">
      <path id="Trazado_632962-2" data-name="Trazado 632962" d="M992.468,2880.458l13.35-13.349,44.758,44.758a52.382,52.382,0,1,0,29.76-9.28h0v-18.879a71.284,71.284,0,1,1-56.621,28Z" transform="translate(-992.468 -2867.108)" fill="#3795a3"/>
    </g>
    <g id="Grupo_948211" data-name="Grupo 948211" transform="translate(-10892.588 -7805.382)">
      <g id="Grupo_82733-2" data-name="Grupo 82733" transform="translate(846.738 8078.79)">
        <g id="Grupo_82732-2" data-name="Grupo 82732" transform="translate(0 0)">
          <circle id="Elipse_5320-2" data-name="Elipse 5320" cx="21.549" cy="21.549" r="21.549" transform="translate(1.85 44.949) rotate(-90)" fill="#45bbcc"/>
          <g id="Grupo_82731-2" data-name="Grupo 82731">
            <path id="Trazado_120382-2" data-name="Trazado 120382" d="M300.506,134.4a23.4,23.4,0,1,1,23.4-23.4A23.426,23.426,0,0,1,300.506,134.4Zm0-43.1A19.7,19.7,0,1,0,320.2,111,19.721,19.721,0,0,0,300.506,91.3Z" transform="translate(-277.106 -87.598)" fill="#29707a"/>
          </g>
        </g>
      </g>
      <text id="_06" data-name="06" transform="translate(870.537 8110.295)" fill="#fff" font-size="20" font-family="Roboto-Black, Roboto" font-weight="800"><tspan x="-11.582" y="0">06</tspan></text>
    </g>
    <path id="Trazado_635173" data-name="Trazado 635173" d="M4.8,10.992V15H2.457V3.625H6.895a5.134,5.134,0,0,1,2.254.469,3.454,3.454,0,0,1,1.5,1.332,3.714,3.714,0,0,1,.523,1.965,3.266,3.266,0,0,1-1.145,2.637,4.767,4.767,0,0,1-3.168.965Zm0-1.9H6.895a2.059,2.059,0,0,0,1.418-.437A1.591,1.591,0,0,0,8.8,7.406a1.876,1.876,0,0,0-.492-1.352,1.839,1.839,0,0,0-1.359-.531H4.8Zm7.375,1.6a5.013,5.013,0,0,1,.484-2.242A3.546,3.546,0,0,1,14.055,6.93a4.069,4.069,0,0,1,2.113-.539,3.849,3.849,0,0,1,2.793,1.047,4.2,4.2,0,0,1,1.207,2.844l.016.578A4.418,4.418,0,0,1,19.1,13.98a3.775,3.775,0,0,1-2.914,1.176,3.793,3.793,0,0,1-2.918-1.172,4.5,4.5,0,0,1-1.09-3.187Zm2.258.16a3.16,3.16,0,0,0,.453,1.843,1.628,1.628,0,0,0,2.578.008,3.457,3.457,0,0,0,.461-2.015,3.128,3.128,0,0,0-.461-1.831,1.5,1.5,0,0,0-1.3-.649,1.474,1.474,0,0,0-1.281.646A3.516,3.516,0,0,0,14.434,10.856Zm11.719,1.808a.727.727,0,0,0-.41-.652,4.659,4.659,0,0,0-1.316-.426q-3.016-.633-3.016-2.562a2.323,2.323,0,0,1,.934-1.879,3.766,3.766,0,0,1,2.441-.754,4.053,4.053,0,0,1,2.574.758,2.388,2.388,0,0,1,.965,1.969H26.066a1.092,1.092,0,0,0-.312-.8A1.322,1.322,0,0,0,24.777,8a1.351,1.351,0,0,0-.883.258.814.814,0,0,0-.312.656.7.7,0,0,0,.355.605,3.657,3.657,0,0,0,1.2.4,9.8,9.8,0,0,1,1.422.379,2.336,2.336,0,0,1,1.789,2.273,2.2,2.2,0,0,1-.992,1.871,4.28,4.28,0,0,1-2.562.715,4.47,4.47,0,0,1-1.887-.379,3.166,3.166,0,0,1-1.293-1.039,2.414,2.414,0,0,1-.469-1.426h2.141a1.179,1.179,0,0,0,.445.922,1.766,1.766,0,0,0,1.109.32,1.635,1.635,0,0,0,.98-.246A.766.766,0,0,0,26.152,12.664Zm6.352-8.2V6.547h1.445V8.2H32.5v4.219a1.007,1.007,0,0,0,.18.672.9.9,0,0,0,.688.2,3.6,3.6,0,0,0,.664-.055v1.711a4.648,4.648,0,0,1-1.367.2,2.156,2.156,0,0,1-2.422-2.4V8.2H29.012V6.547h1.234V4.469Zm7.094,6.57H35.2V9.219h4.4Zm8.8-.984H43.9v3.063h5.281V15H41.559V3.625h7.609v1.9H43.9V8.234h4.5Zm5.227-.984,1.422-2.523h2.414l-2.406,4.141L57.566,15H55.145l-1.508-2.656L52.137,15h-2.43l2.508-4.312-2.4-4.141h2.422ZM66.16,10.852a5.07,5.07,0,0,1-.887,3.129,2.843,2.843,0,0,1-2.395,1.176,2.633,2.633,0,0,1-2.07-.891V18.25H58.551V6.547h2.094l.078.828a2.654,2.654,0,0,1,2.141-.984,2.862,2.862,0,0,1,2.43,1.156,5.207,5.207,0,0,1,.867,3.188ZM63.9,10.679a3.345,3.345,0,0,0-.418-1.826,1.36,1.36,0,0,0-1.215-.643,1.478,1.478,0,0,0-1.461.815V12.5a1.5,1.5,0,0,0,1.477.839Q63.9,13.336,63.9,10.679ZM69.941,15H67.676V3h2.266Zm1.508-4.3a5.013,5.013,0,0,1,.484-2.242A3.546,3.546,0,0,1,73.328,6.93a4.069,4.069,0,0,1,2.113-.539,3.849,3.849,0,0,1,2.793,1.047,4.2,4.2,0,0,1,1.207,2.844l.016.578a4.418,4.418,0,0,1-1.086,3.121,4.209,4.209,0,0,1-5.832,0,4.5,4.5,0,0,1-1.09-3.187Zm2.258.16A3.16,3.16,0,0,0,74.16,12.7a1.628,1.628,0,0,0,2.578.008,3.457,3.457,0,0,0,.461-2.015,3.128,3.128,0,0,0-.461-1.831,1.5,1.5,0,0,0-1.3-.649,1.474,1.474,0,0,0-1.281.646A3.516,3.516,0,0,0,73.707,10.856Zm9.844-6.387V6.547H85V8.2H83.551v4.219a1.007,1.007,0,0,0,.18.672.9.9,0,0,0,.688.2,3.6,3.6,0,0,0,.664-.055v1.711a4.648,4.648,0,0,1-1.367.2,2.156,2.156,0,0,1-2.422-2.4V8.2H80.059V6.547h1.234V4.469ZM91.152,15a2.507,2.507,0,0,1-.227-.758,2.732,2.732,0,0,1-2.133.914,3,3,0,0,1-2.059-.719,2.312,2.312,0,0,1-.816-1.812,2.389,2.389,0,0,1,1-2.062,4.915,4.915,0,0,1,2.879-.727h1.039V9.352a1.393,1.393,0,0,0-.3-.937,1.183,1.183,0,0,0-.949-.352,1.345,1.345,0,0,0-.895.273.929.929,0,0,0-.324.75H86.105a2.268,2.268,0,0,1,.453-1.359,3,3,0,0,1,1.281-.98A4.669,4.669,0,0,1,89.7,6.391a3.689,3.689,0,0,1,2.48.785A2.747,2.747,0,0,1,93.1,9.383v3.664a4.041,4.041,0,0,0,.336,1.82V15Zm-1.867-1.57a1.945,1.945,0,0,0,.922-.223,1.462,1.462,0,0,0,.625-.6V11.156h-.844q-1.7,0-1.8,1.172l-.008.133a.9.9,0,0,0,.3.7A1.153,1.153,0,0,0,89.285,13.43Zm9.063-.094a1.481,1.481,0,0,0,1.016-.344,1.2,1.2,0,0,0,.406-.914h2.117a2.9,2.9,0,0,1-.469,1.574,3.093,3.093,0,0,1-1.262,1.109,3.949,3.949,0,0,1-1.77.395A3.67,3.67,0,0,1,95.527,14,4.56,4.56,0,0,1,94.48,10.82v-.148A4.508,4.508,0,0,1,95.52,7.555a3.627,3.627,0,0,1,2.852-1.164,3.555,3.555,0,0,1,2.543.9,3.2,3.2,0,0,1,.973,2.4H99.77a1.551,1.551,0,0,0-.406-1.072,1.51,1.51,0,0,0-2.223.163,3.333,3.333,0,0,0-.4,1.866v.235a3.375,3.375,0,0,0,.4,1.878A1.377,1.377,0,0,0,98.348,13.336ZM105.559,15h-2.266V6.547h2.266Zm-2.4-10.641a1.112,1.112,0,0,1,.34-.836,1.465,1.465,0,0,1,1.848,0,1.105,1.105,0,0,1,.344.836,1.108,1.108,0,0,1-.348.844,1.448,1.448,0,0,1-1.836,0A1.108,1.108,0,0,1,103.16,4.359Zm3.906,6.336a5.013,5.013,0,0,1,.484-2.242,3.546,3.546,0,0,1,1.395-1.523,4.069,4.069,0,0,1,2.113-.539,3.849,3.849,0,0,1,2.793,1.047,4.2,4.2,0,0,1,1.207,2.844l.016.578a4.418,4.418,0,0,1-1.086,3.121,4.209,4.209,0,0,1-5.832,0,4.5,4.5,0,0,1-1.09-3.187Zm2.258.16a3.16,3.16,0,0,0,.453,1.843,1.628,1.628,0,0,0,2.578.008,3.457,3.457,0,0,0,.461-2.015,3.128,3.128,0,0,0-.461-1.831,1.5,1.5,0,0,0-1.3-.649,1.474,1.474,0,0,0-1.281.646A3.516,3.516,0,0,0,109.324,10.856ZM111.5,3h2.461L111.8,5.422h-1.836Zm7.039,3.547.07.977a2.951,2.951,0,0,1,2.43-1.133,2.453,2.453,0,0,1,2,.789,3.682,3.682,0,0,1,.672,2.359V15h-2.258V9.581a1.47,1.47,0,0,0-.312-1.045,1.4,1.4,0,0,0-1.039-.325,1.553,1.553,0,0,0-1.43.814V15h-2.258V6.547Z" transform="translate(-9946.355 350.673)" fill="#12263f"/>
    <path id="Trazado_633054" data-name="Trazado 633054" d="M1299.938,2973.943c0-28.959-25.383-52.45-56.724-52.45H1080.591V3026.4h162.623a58.868,58.868,0,0,0,40.115-15.368A50.325,50.325,0,0,0,1299.938,2973.943Z" transform="translate(-11104.711 -2772.838)" fill="#bee7ed" opacity="0.4"/>
    <path id="Trazado_635174" data-name="Trazado 635174" d="M52.867,0A52.867,52.867,0,1,1,0,52.867,52.867,52.867,0,0,1,52.867,0Z" transform="translate(-10098.885 189.121) rotate(-45)" fill="#bee7ed"/>
    <path id="Trazado_635175" data-name="Trazado 635175" d="M43.422,0A43.422,43.422,0,1,1,0,43.422,43.422,43.422,0,0,1,43.422,0Z" transform="translate(-10067.543 146.176)" fill="#fff"/>
    <g id="Grupo_948205" data-name="Grupo 948205" transform="translate(-10023.699 64.469) rotate(45)">
      <path id="Trazado_632962-3" data-name="Trazado 632962" d="M992.468,2880.458l13.35-13.349,44.758,44.758a52.382,52.382,0,1,0,29.76-9.28h0v-18.879a71.284,71.284,0,1,1-56.621,28Z" transform="translate(-992.468 -2867.108)" fill="#45bbcc"/>
    </g>
    <g id="Grupo_948207" data-name="Grupo 948207" transform="translate(-10892.588 -7970.934)">
      <g id="Grupo_82733-3" data-name="Grupo 82733" transform="translate(846.738 8078.79)">
        <g id="Grupo_82732-3" data-name="Grupo 82732" transform="translate(0 0)">
          <circle id="Elipse_5320-3" data-name="Elipse 5320" cx="21.549" cy="21.549" r="21.549" transform="translate(1.85 44.949) rotate(-90)" fill="#45bbcc"/>
          <g id="Grupo_82731-3" data-name="Grupo 82731">
            <path id="Trazado_120382-3" data-name="Trazado 120382" d="M300.506,134.4a23.4,23.4,0,1,1,23.4-23.4A23.426,23.426,0,0,1,300.506,134.4Zm0-43.1A19.7,19.7,0,1,0,320.2,111,19.721,19.721,0,0,0,300.506,91.3Z" transform="translate(-277.106 -87.598)" fill="#29707a"/>
          </g>
        </g>
      </g>
      <text id="_05" data-name="05" transform="translate(870.537 8110.295)" fill="#fff" font-size="20" font-family="Roboto-Black, Roboto" font-weight="800"><tspan x="-11.582" y="0">05</tspan></text>
    </g>
    <path id="Trazado_635176" data-name="Trazado 635176" d="M31.852,10.055h-4.5v3.063h5.281V15H25.008V3.625h7.609v1.9H27.352V8.234h4.5Zm5.227-.984L38.5,6.547h2.414l-2.406,4.141L41.016,15H38.594l-1.508-2.656L35.586,15h-2.43l2.508-4.312-2.4-4.141h2.422Zm12.531,1.781a5.07,5.07,0,0,1-.887,3.129,2.843,2.843,0,0,1-2.395,1.176,2.633,2.633,0,0,1-2.07-.891V18.25H42V6.547h2.094l.078.828a2.654,2.654,0,0,1,2.141-.984,2.862,2.862,0,0,1,2.43,1.156,5.207,5.207,0,0,1,.867,3.188Zm-2.258-.172a3.345,3.345,0,0,0-.418-1.826,1.36,1.36,0,0,0-1.215-.643,1.478,1.478,0,0,0-1.461.815V12.5a1.5,1.5,0,0,0,1.477.839Q47.352,13.336,47.352,10.679ZM53.391,15H51.125V3h2.266ZM54.9,10.7a5.013,5.013,0,0,1,.484-2.242A3.546,3.546,0,0,1,56.777,6.93a4.069,4.069,0,0,1,2.113-.539,3.849,3.849,0,0,1,2.793,1.047,4.2,4.2,0,0,1,1.207,2.844l.016.578A4.418,4.418,0,0,1,61.82,13.98a4.209,4.209,0,0,1-5.832,0A4.5,4.5,0,0,1,54.9,10.8Zm2.258.16a3.16,3.16,0,0,0,.453,1.843,1.628,1.628,0,0,0,2.578.008,3.457,3.457,0,0,0,.461-2.015,3.128,3.128,0,0,0-.461-1.831,1.5,1.5,0,0,0-1.3-.649,1.474,1.474,0,0,0-1.281.646A3.516,3.516,0,0,0,57.156,10.856ZM67,4.469V6.547h1.445V8.2H67v4.219a1.007,1.007,0,0,0,.18.672.9.9,0,0,0,.688.2,3.6,3.6,0,0,0,.664-.055v1.711a4.648,4.648,0,0,1-1.367.2,2.156,2.156,0,0,1-2.422-2.4V8.2H63.508V6.547h1.234V4.469ZM74.6,15a2.507,2.507,0,0,1-.227-.758,2.732,2.732,0,0,1-2.133.914,3,3,0,0,1-2.059-.719,2.312,2.312,0,0,1-.816-1.812,2.389,2.389,0,0,1,1-2.062,4.915,4.915,0,0,1,2.879-.727h1.039V9.352a1.393,1.393,0,0,0-.3-.937,1.183,1.183,0,0,0-.949-.352,1.345,1.345,0,0,0-.895.273.929.929,0,0,0-.324.75H69.555a2.268,2.268,0,0,1,.453-1.359,3,3,0,0,1,1.281-.98,4.669,4.669,0,0,1,1.859-.355,3.689,3.689,0,0,1,2.48.785,2.747,2.747,0,0,1,.918,2.207v3.664a4.041,4.041,0,0,0,.336,1.82V15Zm-1.867-1.57a1.945,1.945,0,0,0,.922-.223,1.462,1.462,0,0,0,.625-.6V11.156h-.844q-1.7,0-1.8,1.172l-.008.133a.9.9,0,0,0,.3.7A1.153,1.153,0,0,0,72.734,13.43Zm9.063-.094a1.481,1.481,0,0,0,1.016-.344,1.2,1.2,0,0,0,.406-.914h2.117a2.9,2.9,0,0,1-.469,1.574,3.093,3.093,0,0,1-1.262,1.109,3.949,3.949,0,0,1-1.77.395A3.67,3.67,0,0,1,78.977,14,4.56,4.56,0,0,1,77.93,10.82v-.148a4.508,4.508,0,0,1,1.039-3.117A3.627,3.627,0,0,1,81.82,6.391a3.555,3.555,0,0,1,2.543.9,3.2,3.2,0,0,1,.973,2.4H83.219a1.551,1.551,0,0,0-.406-1.072,1.51,1.51,0,0,0-2.223.163,3.333,3.333,0,0,0-.4,1.866v.235a3.375,3.375,0,0,0,.4,1.878A1.377,1.377,0,0,0,81.8,13.336ZM89.008,15H86.742V6.547h2.266Zm-2.4-10.641a1.112,1.112,0,0,1,.34-.836,1.465,1.465,0,0,1,1.848,0,1.105,1.105,0,0,1,.344.836,1.108,1.108,0,0,1-.348.844,1.448,1.448,0,0,1-1.836,0A1.108,1.108,0,0,1,86.609,4.359ZM90.516,10.7A5.013,5.013,0,0,1,91,8.453,3.546,3.546,0,0,1,92.395,6.93a4.069,4.069,0,0,1,2.113-.539A3.849,3.849,0,0,1,97.3,7.438a4.2,4.2,0,0,1,1.207,2.844l.016.578a4.418,4.418,0,0,1-1.086,3.121,4.209,4.209,0,0,1-5.832,0,4.5,4.5,0,0,1-1.09-3.187Zm2.258.16a3.16,3.16,0,0,0,.453,1.843,1.628,1.628,0,0,0,2.578.008,3.457,3.457,0,0,0,.461-2.015A3.128,3.128,0,0,0,95.8,8.86a1.5,1.5,0,0,0-1.3-.649,1.474,1.474,0,0,0-1.281.646A3.516,3.516,0,0,0,92.773,10.856ZM94.953,3h2.461L95.25,5.422H93.414Zm7.039,3.547.07.977a2.951,2.951,0,0,1,2.43-1.133,2.453,2.453,0,0,1,2,.789,3.682,3.682,0,0,1,.672,2.359V15h-2.258V9.581a1.47,1.47,0,0,0-.312-1.045,1.4,1.4,0,0,0-1.039-.325,1.553,1.553,0,0,0-1.43.814V15H99.867V6.547Z" transform="translate(-9952.355 189.121)" fill="#12263f"/>
    <path id="Trazado_633053" data-name="Trazado 633053" d="M1299.938,2973.943c0-28.959-25.383-52.45-56.724-52.45H1080.591V3026.4h162.623a58.868,58.868,0,0,0,40.115-15.368A50.325,50.325,0,0,0,1299.938,2973.943Z" transform="translate(-11104.711 -2938.62)" fill="#bee7ed" opacity="0.4"/>
    <path id="Trazado_635177" data-name="Trazado 635177" d="M52.867,0A52.867,52.867,0,1,1,0,52.867,52.867,52.867,0,0,1,52.867,0Z" transform="translate(-10098.885 23.339) rotate(-45)" fill="#bee7ed"/>
    <path id="Trazado_635178" data-name="Trazado 635178" d="M43.422,0A43.422,43.422,0,1,1,0,43.422,43.422,43.422,0,0,1,43.422,0Z" transform="translate(-10067.543 -19.605)" fill="#fff"/>
    <g id="Grupo_948201" data-name="Grupo 948201" transform="translate(-10023.699 -101.313) rotate(45)">
      <path id="Trazado_632962-4" data-name="Trazado 632962" d="M992.468,2880.458l13.35-13.349,44.758,44.758a52.382,52.382,0,1,0,29.76-9.28h0v-18.879a71.284,71.284,0,1,1-56.621,28Z" transform="translate(-992.468 -2867.108)" fill="#29707a"/>
    </g>
    <g id="Grupo_948203" data-name="Grupo 948203" transform="translate(-10892.588 -8136.715)">
      <g id="Grupo_82733-4" data-name="Grupo 82733" transform="translate(846.738 8078.79)">
        <g id="Grupo_82732-4" data-name="Grupo 82732" transform="translate(0 0)">
          <circle id="Elipse_5320-4" data-name="Elipse 5320" cx="21.549" cy="21.549" r="21.549" transform="translate(1.85 44.949) rotate(-90)" fill="#45bbcc"/>
          <g id="Grupo_82731-4" data-name="Grupo 82731">
            <path id="Trazado_120382-4" data-name="Trazado 120382" d="M300.506,134.4a23.4,23.4,0,1,1,23.4-23.4A23.426,23.426,0,0,1,300.506,134.4Zm0-43.1A19.7,19.7,0,1,0,320.2,111,19.721,19.721,0,0,0,300.506,91.3Z" transform="translate(-277.106 -87.598)" fill="#29707a"/>
          </g>
        </g>
      </g>
      <text id="_04" data-name="04" transform="translate(870.537 8110.295)" fill="#fff" font-size="20" font-family="Roboto-Black, Roboto" font-weight="800"><tspan x="-11.582" y="0">04</tspan></text>
    </g>
    <path id="Trazado_635179" data-name="Trazado 635179" d="M34.059,12.656H29.949L29.168,15H26.676L30.91,3.625h2.172L37.34,15H34.848Zm-3.477-1.9h2.844L32,6.5Zm9.375-4.211.07.977a2.951,2.951,0,0,1,2.43-1.133,2.453,2.453,0,0,1,2,.789,3.682,3.682,0,0,1,.672,2.359V15H42.871V9.581a1.47,1.47,0,0,0-.312-1.045,1.4,1.4,0,0,0-1.039-.325,1.553,1.553,0,0,0-1.43.814V15H37.832V6.547ZM51.738,15a2.507,2.507,0,0,1-.227-.758,2.732,2.732,0,0,1-2.133.914,3,3,0,0,1-2.059-.719,2.312,2.312,0,0,1-.816-1.812,2.389,2.389,0,0,1,1-2.062,4.915,4.915,0,0,1,2.879-.727h1.039V9.352a1.393,1.393,0,0,0-.3-.937,1.183,1.183,0,0,0-.949-.352,1.345,1.345,0,0,0-.895.273.929.929,0,0,0-.324.75H46.691a2.268,2.268,0,0,1,.453-1.359,3,3,0,0,1,1.281-.98,4.669,4.669,0,0,1,1.859-.355,3.689,3.689,0,0,1,2.48.785,2.747,2.747,0,0,1,.918,2.207v3.664a4.041,4.041,0,0,0,.336,1.82V15Zm-1.867-1.57a1.945,1.945,0,0,0,.922-.223,1.462,1.462,0,0,0,.625-.6V11.156h-.844q-1.7,0-1.8,1.172l-.008.133a.9.9,0,0,0,.3.7A1.153,1.153,0,0,0,49.871,13.43ZM50.73,3h2.461L51.027,5.422H49.191ZM57.8,15H55.535V3H57.8Zm4.242,0H59.777V6.547h2.266Zm-2.4-10.641a1.112,1.112,0,0,1,.34-.836,1.465,1.465,0,0,1,1.848,0,1.105,1.105,0,0,1,.344.836,1.108,1.108,0,0,1-.348.844,1.448,1.448,0,0,1-1.836,0A1.108,1.108,0,0,1,59.645,4.359Zm8.836,8.3a.727.727,0,0,0-.41-.652,4.659,4.659,0,0,0-1.316-.426q-3.016-.633-3.016-2.562a2.323,2.323,0,0,1,.934-1.879,3.766,3.766,0,0,1,2.441-.754,4.053,4.053,0,0,1,2.574.758,2.388,2.388,0,0,1,.965,1.969H68.395a1.092,1.092,0,0,0-.312-.8A1.322,1.322,0,0,0,67.105,8a1.351,1.351,0,0,0-.883.258.814.814,0,0,0-.312.656.7.7,0,0,0,.355.605,3.657,3.657,0,0,0,1.2.4,9.8,9.8,0,0,1,1.422.379,2.336,2.336,0,0,1,1.789,2.273,2.2,2.2,0,0,1-.992,1.871,4.28,4.28,0,0,1-2.562.715,4.47,4.47,0,0,1-1.887-.379,3.166,3.166,0,0,1-1.293-1.039,2.414,2.414,0,0,1-.469-1.426h2.141a1.179,1.179,0,0,0,.445.922,1.766,1.766,0,0,0,1.109.32,1.635,1.635,0,0,0,.98-.246A.766.766,0,0,0,68.48,12.664ZM74.512,15H72.246V6.547h2.266Zm-2.4-10.641a1.112,1.112,0,0,1,.34-.836,1.465,1.465,0,0,1,1.848,0,1.105,1.105,0,0,1,.344.836A1.108,1.108,0,0,1,74.3,5.2a1.448,1.448,0,0,1-1.836,0A1.108,1.108,0,0,1,72.113,4.359Zm8.836,8.3a.727.727,0,0,0-.41-.652,4.659,4.659,0,0,0-1.316-.426q-3.016-.633-3.016-2.562a2.323,2.323,0,0,1,.934-1.879,3.766,3.766,0,0,1,2.441-.754,4.053,4.053,0,0,1,2.574.758,2.388,2.388,0,0,1,.965,1.969H80.863a1.092,1.092,0,0,0-.312-.8A1.322,1.322,0,0,0,79.574,8a1.351,1.351,0,0,0-.883.258.814.814,0,0,0-.312.656.7.7,0,0,0,.355.605,3.657,3.657,0,0,0,1.2.4,9.8,9.8,0,0,1,1.422.379,2.336,2.336,0,0,1,1.789,2.273,2.2,2.2,0,0,1-.992,1.871,4.28,4.28,0,0,1-2.562.715,4.47,4.47,0,0,1-1.887-.379,3.166,3.166,0,0,1-1.293-1.039,2.414,2.414,0,0,1-.469-1.426h2.141a1.179,1.179,0,0,0,.445.922,1.766,1.766,0,0,0,1.109.32,1.635,1.635,0,0,0,.98-.246A.766.766,0,0,0,80.949,12.664Zm7.281-1.953a5.094,5.094,0,0,1,.887-3.148,2.877,2.877,0,0,1,2.426-1.172,2.589,2.589,0,0,1,2.039.922V3h2.266V15H93.809l-.109-.9a2.657,2.657,0,0,1-2.172,1.055,2.869,2.869,0,0,1-2.395-1.176A5.258,5.258,0,0,1,88.23,10.711Zm2.258.161A3.355,3.355,0,0,0,90.9,12.7a1.348,1.348,0,0,0,1.2.636,1.51,1.51,0,0,0,1.477-.887V9.1a1.489,1.489,0,0,0-1.461-.887Q90.488,8.211,90.488,10.872Zm11,4.285a4.15,4.15,0,0,1-3.027-1.141,4.054,4.054,0,0,1-1.168-3.039v-.219a5.106,5.106,0,0,1,.492-2.277A3.612,3.612,0,0,1,99.18,6.934a3.914,3.914,0,0,1,2.059-.543,3.508,3.508,0,0,1,2.73,1.094,4.444,4.444,0,0,1,1,3.1v.922H99.582a2.1,2.1,0,0,0,.66,1.328,2,2,0,0,0,1.395.5,2.437,2.437,0,0,0,2.039-.945l1.109,1.242a3.389,3.389,0,0,1-1.375,1.121A4.511,4.511,0,0,1,101.488,15.156Zm-.258-6.945a1.411,1.411,0,0,0-1.09.455,2.357,2.357,0,0,0-.535,1.3h3.141V9.788a1.681,1.681,0,0,0-.406-1.165A1.456,1.456,0,0,0,101.23,8.211ZM10.887,36.242l1.57-5.7h2.359L11.965,39H9.809L6.957,30.547H9.316Zm9.984,1.9a2.831,2.831,0,0,1-2.312,1.016,2.67,2.67,0,0,1-2.074-.781,3.335,3.335,0,0,1-.73-2.289V30.547h2.258v5.467q0,1.322,1.2,1.322a1.63,1.63,0,0,0,1.578-.8V30.547h2.266V39H20.934ZM27.145,39H24.879V27h2.266Zm3.938-8.453.07.977a2.951,2.951,0,0,1,2.43-1.133,2.453,2.453,0,0,1,2,.789,3.682,3.682,0,0,1,.672,2.359V39H34V33.581a1.47,1.47,0,0,0-.312-1.045,1.4,1.4,0,0,0-1.039-.325,1.553,1.553,0,0,0-1.43.814V39H28.957V30.547Zm10.773,8.609a4.15,4.15,0,0,1-3.027-1.141,4.054,4.054,0,0,1-1.168-3.039v-.219a5.106,5.106,0,0,1,.492-2.277,3.612,3.612,0,0,1,1.395-1.547,3.914,3.914,0,0,1,2.059-.543,3.508,3.508,0,0,1,2.73,1.094,4.444,4.444,0,0,1,1,3.1v.922H39.949a2.1,2.1,0,0,0,.66,1.328,2,2,0,0,0,1.395.5,2.437,2.437,0,0,0,2.039-.945l1.109,1.242a3.389,3.389,0,0,1-1.375,1.121A4.511,4.511,0,0,1,41.855,39.156ZM41.6,32.211a1.411,1.411,0,0,0-1.09.455,2.357,2.357,0,0,0-.535,1.3h3.141v-.181a1.681,1.681,0,0,0-.406-1.165A1.456,1.456,0,0,0,41.6,32.211Zm9.766.453a6.134,6.134,0,0,0-.812-.062,1.654,1.654,0,0,0-1.68.867V39H46.613V30.547h2.133l.063,1.008a2.092,2.092,0,0,1,1.883-1.164,2.366,2.366,0,0,1,.7.1ZM57.113,39a2.507,2.507,0,0,1-.227-.758,2.732,2.732,0,0,1-2.133.914,3,3,0,0,1-2.059-.719,2.312,2.312,0,0,1-.816-1.812,2.389,2.389,0,0,1,1-2.062,4.915,4.915,0,0,1,2.879-.727h1.039v-.484a1.393,1.393,0,0,0-.3-.937,1.183,1.183,0,0,0-.949-.352,1.345,1.345,0,0,0-.895.273.929.929,0,0,0-.324.75H52.066a2.268,2.268,0,0,1,.453-1.359,3,3,0,0,1,1.281-.98,4.669,4.669,0,0,1,1.859-.355,3.689,3.689,0,0,1,2.48.785,2.747,2.747,0,0,1,.918,2.207v3.664a4.041,4.041,0,0,0,.336,1.82V39Zm-1.867-1.57a1.945,1.945,0,0,0,.922-.223,1.462,1.462,0,0,0,.625-.6V35.156h-.844q-1.7,0-1.8,1.172l-.008.133a.9.9,0,0,0,.3.7A1.153,1.153,0,0,0,55.246,37.43ZM68.41,34.852a5.119,5.119,0,0,1-.867,3.168,2.872,2.872,0,0,1-2.422,1.137,2.639,2.639,0,0,1-2.2-1.055l-.1.9H60.793V27h2.258v4.3a2.571,2.571,0,0,1,2.055-.914,2.9,2.9,0,0,1,2.426,1.137,5.126,5.126,0,0,1,.879,3.2Zm-2.258-.172a3.381,3.381,0,0,0-.406-1.877,1.372,1.372,0,0,0-1.211-.592,1.489,1.489,0,0,0-1.484.885v3.346a1.509,1.509,0,0,0,1.5.893,1.4,1.4,0,0,0,1.438-1.081A5.6,5.6,0,0,0,66.152,34.679ZM72.184,39H69.918V30.547h2.266Zm-2.4-10.641a1.112,1.112,0,0,1,.34-.836,1.465,1.465,0,0,1,1.848,0,1.193,1.193,0,0,1,0,1.68,1.448,1.448,0,0,1-1.836,0A1.108,1.108,0,0,1,69.785,28.359ZM76.426,39H74.16V27h2.266Zm4.242,0H78.4V30.547h2.266Zm-2.4-10.641a1.112,1.112,0,0,1,.34-.836,1.465,1.465,0,0,1,1.848,0,1.193,1.193,0,0,1,0,1.68,1.448,1.448,0,0,1-1.836,0A1.108,1.108,0,0,1,78.27,28.359Zm3.906,6.352a5.094,5.094,0,0,1,.887-3.148,2.877,2.877,0,0,1,2.426-1.172,2.589,2.589,0,0,1,2.039.922V27h2.266V39H87.754l-.109-.9a2.657,2.657,0,0,1-2.172,1.055,2.869,2.869,0,0,1-2.395-1.176A5.258,5.258,0,0,1,82.176,34.711Zm2.258.161a3.355,3.355,0,0,0,.414,1.829,1.348,1.348,0,0,0,1.2.636,1.51,1.51,0,0,0,1.477-.887V33.1a1.489,1.489,0,0,0-1.461-.887Q84.434,32.211,84.434,34.872ZM96.441,39a2.507,2.507,0,0,1-.227-.758,2.732,2.732,0,0,1-2.133.914,3,3,0,0,1-2.059-.719,2.312,2.312,0,0,1-.816-1.812,2.389,2.389,0,0,1,1-2.062,4.915,4.915,0,0,1,2.879-.727h1.039v-.484a1.393,1.393,0,0,0-.3-.937,1.183,1.183,0,0,0-.949-.352,1.345,1.345,0,0,0-.895.273.929.929,0,0,0-.324.75H91.395a2.268,2.268,0,0,1,.453-1.359,3,3,0,0,1,1.281-.98,4.669,4.669,0,0,1,1.859-.355,3.689,3.689,0,0,1,2.48.785,2.747,2.747,0,0,1,.918,2.207v3.664a4.041,4.041,0,0,0,.336,1.82V39Zm-1.867-1.57a1.945,1.945,0,0,0,.922-.223,1.462,1.462,0,0,0,.625-.6V35.156h-.844q-1.7,0-1.8,1.172l-.008.133a.9.9,0,0,0,.3.7A1.153,1.153,0,0,0,94.574,37.43Zm5.2-2.719a5.094,5.094,0,0,1,.887-3.148,2.877,2.877,0,0,1,2.426-1.172,2.589,2.589,0,0,1,2.039.922V27h2.266V39h-2.039l-.109-.9a2.657,2.657,0,0,1-2.172,1.055,2.869,2.869,0,0,1-2.395-1.176A5.258,5.258,0,0,1,99.77,34.711Zm2.258.161a3.355,3.355,0,0,0,.414,1.829,1.348,1.348,0,0,0,1.2.636,1.51,1.51,0,0,0,1.477-.887V33.1a1.489,1.489,0,0,0-1.461-.887Q102.027,32.211,102.027,34.872Zm11,4.285A4.15,4.15,0,0,1,110,38.016a4.054,4.054,0,0,1-1.168-3.039v-.219a5.106,5.106,0,0,1,.492-2.277,3.612,3.612,0,0,1,1.395-1.547,3.914,3.914,0,0,1,2.059-.543,3.508,3.508,0,0,1,2.73,1.094,4.444,4.444,0,0,1,1,3.1v.922h-5.383a2.1,2.1,0,0,0,.66,1.328,2,2,0,0,0,1.395.5,2.437,2.437,0,0,0,2.039-.945l1.109,1.242a3.389,3.389,0,0,1-1.375,1.121A4.511,4.511,0,0,1,113.027,39.156Zm-.258-6.945a1.411,1.411,0,0,0-1.09.455,2.357,2.357,0,0,0-.535,1.3h3.141v-.181a1.681,1.681,0,0,0-.406-1.165A1.456,1.456,0,0,0,112.77,32.211Zm9.594,4.453a.727.727,0,0,0-.41-.652,4.659,4.659,0,0,0-1.316-.426q-3.016-.633-3.016-2.562a2.323,2.323,0,0,1,.934-1.879A3.766,3.766,0,0,1,121,30.391a4.053,4.053,0,0,1,2.574.758,2.388,2.388,0,0,1,.965,1.969h-2.258a1.092,1.092,0,0,0-.312-.8,1.322,1.322,0,0,0-.977-.316,1.351,1.351,0,0,0-.883.258.814.814,0,0,0-.312.656.7.7,0,0,0,.355.605,3.657,3.657,0,0,0,1.2.4,9.8,9.8,0,0,1,1.422.379,2.336,2.336,0,0,1,1.789,2.273,2.2,2.2,0,0,1-.992,1.871,4.28,4.28,0,0,1-2.562.715,4.47,4.47,0,0,1-1.887-.379,3.166,3.166,0,0,1-1.293-1.039,2.414,2.414,0,0,1-.469-1.426H119.5a1.179,1.179,0,0,0,.445.922,1.766,1.766,0,0,0,1.109.32,1.635,1.635,0,0,0,.98-.246A.766.766,0,0,0,122.363,36.664Z" transform="translate(-9952.355 12.129)" fill="#12263f"/>
    <path id="Trazado_633052" data-name="Trazado 633052" d="M1299.938,2973.943c0-28.959-25.383-52.45-56.724-52.45H1080.591V3026.4h162.623a58.868,58.868,0,0,0,40.115-15.368A50.325,50.325,0,0,0,1299.938,2973.943Z" transform="translate(-11104.711 -3098.424)" fill="#bee7ed" opacity="0.4"/>
    <path id="Trazado_635180" data-name="Trazado 635180" d="M52.867,0A52.867,52.867,0,1,1,0,52.867,52.867,52.867,0,0,1,52.867,0Z" transform="translate(-10098.885 -136.465) rotate(-45)" fill="#bee7ed"/>
    <path id="Trazado_635181" data-name="Trazado 635181" d="M43.422,0A43.422,43.422,0,1,1,0,43.422,43.422,43.422,0,0,1,43.422,0Z" transform="translate(-10067.543 -179.41)" fill="#fff"/>
    <g id="Grupo_948197" data-name="Grupo 948197" transform="translate(-10023.699 -261.117) rotate(45)">
      <path id="Trazado_632962-5" data-name="Trazado 632962" d="M992.468,2880.458l13.35-13.349,44.758,44.758a52.382,52.382,0,1,0,29.76-9.28h0v-18.879a71.284,71.284,0,1,1-56.621,28Z" transform="translate(-992.468 -2867.108)" fill="#45bbcc"/>
    </g>
    <g id="Grupo_948199" data-name="Grupo 948199" transform="translate(-10892.588 -8296.52)">
      <g id="Grupo_82733-5" data-name="Grupo 82733" transform="translate(846.738 8078.79)">
        <g id="Grupo_82732-5" data-name="Grupo 82732" transform="translate(0 0)">
          <circle id="Elipse_5320-5" data-name="Elipse 5320" cx="21.549" cy="21.549" r="21.549" transform="translate(1.85 44.949) rotate(-90)" fill="#45bbcc"/>
          <g id="Grupo_82731-5" data-name="Grupo 82731">
            <path id="Trazado_120382-5" data-name="Trazado 120382" d="M300.506,134.4a23.4,23.4,0,1,1,23.4-23.4A23.426,23.426,0,0,1,300.506,134.4Zm0-43.1A19.7,19.7,0,1,0,320.2,111,19.721,19.721,0,0,0,300.506,91.3Z" transform="translate(-277.106 -87.598)" fill="#29707a"/>
          </g>
        </g>
      </g>
      <text id="_03" data-name="03" transform="translate(870.537 8110.295)" fill="#fff" font-size="20" font-family="Roboto-Black, Roboto" font-weight="800"><tspan x="-11.582" y="0">03</tspan></text>
    </g>
    <path id="Trazado_635182" data-name="Trazado 635182" d="M15.449,3.625l2.922,8.25,2.906-8.25h3.078V15H22V11.891l.234-5.367L19.168,15H17.559L14.5,6.531l.234,5.359V15H12.387V3.625ZM25.9,10.7a5.013,5.013,0,0,1,.484-2.242A3.546,3.546,0,0,1,27.781,6.93a4.069,4.069,0,0,1,2.113-.539,3.849,3.849,0,0,1,2.793,1.047,4.2,4.2,0,0,1,1.207,2.844l.016.578a4.418,4.418,0,0,1-1.086,3.121,3.775,3.775,0,0,1-2.914,1.176,3.793,3.793,0,0,1-2.918-1.172A4.5,4.5,0,0,1,25.9,10.8Zm2.258.16a3.16,3.16,0,0,0,.453,1.843,1.628,1.628,0,0,0,2.578.008,3.457,3.457,0,0,0,.461-2.015,3.128,3.128,0,0,0-.461-1.831,1.5,1.5,0,0,0-1.3-.649,1.474,1.474,0,0,0-1.281.646A3.516,3.516,0,0,0,28.16,10.856Zm6.789-.145a5.094,5.094,0,0,1,.887-3.148,2.877,2.877,0,0,1,2.426-1.172,2.589,2.589,0,0,1,2.039.922V3h2.266V15H40.527l-.109-.9a2.657,2.657,0,0,1-2.172,1.055,2.869,2.869,0,0,1-2.395-1.176A5.258,5.258,0,0,1,34.949,10.711Zm2.258.161a3.355,3.355,0,0,0,.414,1.829,1.348,1.348,0,0,0,1.2.636,1.51,1.51,0,0,0,1.477-.887V9.1a1.489,1.489,0,0,0-1.461-.887Q37.207,8.211,37.207,10.872Zm11,4.285a4.15,4.15,0,0,1-3.027-1.141,4.054,4.054,0,0,1-1.168-3.039v-.219A5.106,5.106,0,0,1,44.5,8.48,3.612,3.612,0,0,1,45.9,6.934a3.914,3.914,0,0,1,2.059-.543,3.508,3.508,0,0,1,2.73,1.094,4.444,4.444,0,0,1,1,3.1v.922H46.3a2.1,2.1,0,0,0,.66,1.328,2,2,0,0,0,1.395.5,2.437,2.437,0,0,0,2.039-.945L51.5,13.633a3.389,3.389,0,0,1-1.375,1.121A4.511,4.511,0,0,1,48.207,15.156Zm-.258-6.945a1.411,1.411,0,0,0-1.09.455,2.357,2.357,0,0,0-.535,1.3h3.141V9.788a1.681,1.681,0,0,0-.406-1.165A1.456,1.456,0,0,0,47.949,8.211ZM55.348,15H53.082V3h2.266Zm6.758,0a2.507,2.507,0,0,1-.227-.758,2.732,2.732,0,0,1-2.133.914,3,3,0,0,1-2.059-.719,2.312,2.312,0,0,1-.816-1.812,2.389,2.389,0,0,1,1-2.062,4.915,4.915,0,0,1,2.879-.727h1.039V9.352a1.393,1.393,0,0,0-.3-.937,1.183,1.183,0,0,0-.949-.352,1.345,1.345,0,0,0-.895.273.929.929,0,0,0-.324.75H57.059a2.268,2.268,0,0,1,.453-1.359,3,3,0,0,1,1.281-.98,4.669,4.669,0,0,1,1.859-.355,3.689,3.689,0,0,1,2.48.785,2.747,2.747,0,0,1,.918,2.207v3.664a4.041,4.041,0,0,0,.336,1.82V15Zm-1.867-1.57a1.945,1.945,0,0,0,.922-.223,1.462,1.462,0,0,0,.625-.6V11.156h-.844q-1.7,0-1.8,1.172l-.008.133a.9.9,0,0,0,.3.7A1.153,1.153,0,0,0,60.238,13.43Zm5.2-2.719a5.094,5.094,0,0,1,.887-3.148,2.877,2.877,0,0,1,2.426-1.172,2.589,2.589,0,0,1,2.039.922V3h2.266V15H71.012l-.109-.9a2.657,2.657,0,0,1-2.172,1.055,2.869,2.869,0,0,1-2.395-1.176A5.258,5.258,0,0,1,65.434,10.711Zm2.258.161a3.355,3.355,0,0,0,.414,1.829,1.348,1.348,0,0,0,1.2.636,1.51,1.51,0,0,0,1.477-.887V9.1a1.489,1.489,0,0,0-1.461-.887Q67.691,8.211,67.691,10.872Zm6.758-.176a5.013,5.013,0,0,1,.484-2.242A3.546,3.546,0,0,1,76.328,6.93a4.069,4.069,0,0,1,2.113-.539,3.849,3.849,0,0,1,2.793,1.047,4.2,4.2,0,0,1,1.207,2.844l.016.578a4.418,4.418,0,0,1-1.086,3.121,4.209,4.209,0,0,1-5.832,0,4.5,4.5,0,0,1-1.09-3.187Zm2.258.16A3.16,3.16,0,0,0,77.16,12.7a1.628,1.628,0,0,0,2.578.008,3.457,3.457,0,0,0,.461-2.015,3.128,3.128,0,0,0-.461-1.831,1.5,1.5,0,0,0-1.3-.649,1.474,1.474,0,0,0-1.281.646A3.516,3.516,0,0,0,76.707,10.856Zm10.773-.145a5.094,5.094,0,0,1,.887-3.148,2.877,2.877,0,0,1,2.426-1.172,2.589,2.589,0,0,1,2.039.922V3H95.1V15H93.059l-.109-.9a2.657,2.657,0,0,1-2.172,1.055,2.869,2.869,0,0,1-2.395-1.176A5.258,5.258,0,0,1,87.48,10.711Zm2.258.161a3.355,3.355,0,0,0,.414,1.829,1.348,1.348,0,0,0,1.2.636,1.51,1.51,0,0,0,1.477-.887V9.1a1.489,1.489,0,0,0-1.461-.887Q89.738,8.211,89.738,10.872Zm11,4.285a4.15,4.15,0,0,1-3.027-1.141,4.054,4.054,0,0,1-1.168-3.039v-.219a5.106,5.106,0,0,1,.492-2.277A3.612,3.612,0,0,1,98.43,6.934a3.914,3.914,0,0,1,2.059-.543,3.508,3.508,0,0,1,2.73,1.094,4.444,4.444,0,0,1,1,3.1v.922H98.832a2.1,2.1,0,0,0,.66,1.328,2,2,0,0,0,1.395.5,2.437,2.437,0,0,0,2.039-.945l1.109,1.242a3.389,3.389,0,0,1-1.375,1.121A4.511,4.511,0,0,1,100.738,15.156Zm-.258-6.945a1.411,1.411,0,0,0-1.09.455,2.357,2.357,0,0,0-.535,1.3H102V9.788a1.681,1.681,0,0,0-.406-1.165A1.456,1.456,0,0,0,100.48,8.211ZM26.984,39a2.507,2.507,0,0,1-.227-.758,2.732,2.732,0,0,1-2.133.914,3,3,0,0,1-2.059-.719,2.312,2.312,0,0,1-.816-1.812,2.389,2.389,0,0,1,1-2.062,4.915,4.915,0,0,1,2.879-.727h1.039v-.484a1.393,1.393,0,0,0-.3-.937,1.183,1.183,0,0,0-.949-.352,1.345,1.345,0,0,0-.895.273.929.929,0,0,0-.324.75H21.938a2.268,2.268,0,0,1,.453-1.359,3,3,0,0,1,1.281-.98,4.669,4.669,0,0,1,1.859-.355,3.689,3.689,0,0,1,2.48.785,2.747,2.747,0,0,1,.918,2.207v3.664a4.041,4.041,0,0,0,.336,1.82V39Zm-1.867-1.57a1.945,1.945,0,0,0,.922-.223,1.462,1.462,0,0,0,.625-.6V35.156H25.82q-1.7,0-1.8,1.172l-.008.133a.9.9,0,0,0,.3.7A1.153,1.153,0,0,0,25.117,37.43Zm7.664-6.883.07.945a2.971,2.971,0,0,1,2.43-1.1,2.255,2.255,0,0,1,2.242,1.289,2.9,2.9,0,0,1,2.539-1.289,2.521,2.521,0,0,1,2.047.8,3.681,3.681,0,0,1,.672,2.41V39H40.516V33.6a1.616,1.616,0,0,0-.281-1.053,1.245,1.245,0,0,0-.992-.333,1.409,1.409,0,0,0-1.406.971L37.844,39H35.586V33.6A1.6,1.6,0,0,0,35.3,32.54a1.257,1.257,0,0,0-.984-.329,1.463,1.463,0,0,0-1.391.8V39H30.664V30.547Zm15.625,8.609a4.15,4.15,0,0,1-3.027-1.141,4.054,4.054,0,0,1-1.168-3.039v-.219A5.106,5.106,0,0,1,44.7,32.48,3.612,3.612,0,0,1,46.1,30.934a3.914,3.914,0,0,1,2.059-.543,3.508,3.508,0,0,1,2.73,1.094,4.444,4.444,0,0,1,1,3.1v.922H46.5a2.1,2.1,0,0,0,.66,1.328,2,2,0,0,0,1.395.5,2.437,2.437,0,0,0,2.039-.945L51.7,37.633a3.389,3.389,0,0,1-1.375,1.121A4.511,4.511,0,0,1,48.406,39.156Zm-.258-6.945a1.411,1.411,0,0,0-1.09.455,2.357,2.357,0,0,0-.535,1.3h3.141v-.181a1.681,1.681,0,0,0-.406-1.165A1.456,1.456,0,0,0,48.148,32.211Zm7.094-1.664.07.977a2.951,2.951,0,0,1,2.43-1.133,2.453,2.453,0,0,1,2,.789,3.682,3.682,0,0,1,.672,2.359V39H58.156V33.581a1.47,1.47,0,0,0-.312-1.045,1.4,1.4,0,0,0-1.039-.325,1.553,1.553,0,0,0-1.43.814V39H53.117V30.547ZM67.023,39a2.507,2.507,0,0,1-.227-.758,2.732,2.732,0,0,1-2.133.914,3,3,0,0,1-2.059-.719,2.312,2.312,0,0,1-.816-1.812,2.389,2.389,0,0,1,1-2.062,4.915,4.915,0,0,1,2.879-.727H66.7v-.484a1.393,1.393,0,0,0-.3-.937,1.183,1.183,0,0,0-.949-.352,1.345,1.345,0,0,0-.895.273.929.929,0,0,0-.324.75H61.977a2.268,2.268,0,0,1,.453-1.359,3,3,0,0,1,1.281-.98,4.669,4.669,0,0,1,1.859-.355,3.689,3.689,0,0,1,2.48.785,2.747,2.747,0,0,1,.918,2.207v3.664a4.041,4.041,0,0,0,.336,1.82V39Zm-1.867-1.57a1.945,1.945,0,0,0,.922-.223,1.462,1.462,0,0,0,.625-.6V35.156h-.844q-1.7,0-1.8,1.172l-.008.133a.9.9,0,0,0,.3.7A1.153,1.153,0,0,0,65.156,37.43Zm8.141-.25H77.43V39H70.414V37.625l3.977-5.258H70.531v-1.82H77.3v1.33ZM83.742,39a2.507,2.507,0,0,1-.227-.758,2.732,2.732,0,0,1-2.133.914,3,3,0,0,1-2.059-.719,2.312,2.312,0,0,1-.816-1.812,2.389,2.389,0,0,1,1-2.062,4.915,4.915,0,0,1,2.879-.727h1.039v-.484a1.393,1.393,0,0,0-.3-.937,1.183,1.183,0,0,0-.949-.352,1.345,1.345,0,0,0-.895.273.929.929,0,0,0-.324.75H78.7a2.268,2.268,0,0,1,.453-1.359,3,3,0,0,1,1.281-.98,4.669,4.669,0,0,1,1.859-.355,3.689,3.689,0,0,1,2.48.785,2.747,2.747,0,0,1,.918,2.207v3.664a4.041,4.041,0,0,0,.336,1.82V39Zm-1.867-1.57a1.945,1.945,0,0,0,.922-.223,1.462,1.462,0,0,0,.625-.6V35.156h-.844q-1.7,0-1.8,1.172l-.008.133a.9.9,0,0,0,.3.7A1.153,1.153,0,0,0,81.875,37.43ZM92,36.664a.727.727,0,0,0-.41-.652,4.659,4.659,0,0,0-1.316-.426q-3.016-.633-3.016-2.562a2.323,2.323,0,0,1,.934-1.879,3.766,3.766,0,0,1,2.441-.754,4.053,4.053,0,0,1,2.574.758,2.388,2.388,0,0,1,.965,1.969H91.914a1.092,1.092,0,0,0-.312-.8A1.322,1.322,0,0,0,90.625,32a1.351,1.351,0,0,0-.883.258.814.814,0,0,0-.312.656.7.7,0,0,0,.355.605,3.657,3.657,0,0,0,1.2.4,9.8,9.8,0,0,1,1.422.379A2.336,2.336,0,0,1,94.2,36.57a2.2,2.2,0,0,1-.992,1.871,4.28,4.28,0,0,1-2.562.715,4.47,4.47,0,0,1-1.887-.379,3.166,3.166,0,0,1-1.293-1.039,2.414,2.414,0,0,1-.469-1.426h2.141a1.179,1.179,0,0,0,.445.922,1.766,1.766,0,0,0,1.109.32,1.635,1.635,0,0,0,.98-.246A.766.766,0,0,0,92,36.664Z" transform="translate(-9944.355 -147.676)" fill="#12263f"/>
    <path id="Trazado_633050" data-name="Trazado 633050" d="M1299.938,2973.943c0-28.959-25.383-52.45-56.724-52.45H1080.591V3026.4h162.623a58.868,58.868,0,0,0,40.115-15.368A50.325,50.325,0,0,0,1299.938,2973.943Z" transform="translate(-11104.711 -3257.542)" fill="#bee7ed" opacity="0.4"/>
    <path id="Trazado_635183" data-name="Trazado 635183" d="M52.867,0A52.867,52.867,0,1,1,0,52.867,52.867,52.867,0,0,1,52.867,0Z" transform="translate(-10098.885 -295.583) rotate(-45)" fill="#bee7ed"/>
    <path id="Trazado_635184" data-name="Trazado 635184" d="M43.422,0A43.422,43.422,0,1,1,0,43.422,43.422,43.422,0,0,1,43.422,0Z" transform="translate(-10067.543 -338.528)" fill="#fff"/>
    <g id="Grupo_948190" data-name="Grupo 948190" transform="translate(-10023.699 -420.235) rotate(45)">
      <path id="Trazado_632962-6" data-name="Trazado 632962" d="M992.468,2880.458l13.35-13.349,44.758,44.758a52.382,52.382,0,1,0,29.76-9.28h0v-18.879a71.284,71.284,0,1,1-56.621,28Z" transform="translate(-992.468 -2867.108)" fill="#3795a3"/>
    </g>
    <g id="Grupo_948144" data-name="Grupo 948144" transform="translate(-10892.588 -8455.639)">
      <g id="Grupo_82733-6" data-name="Grupo 82733" transform="translate(846.738 8078.79)">
        <g id="Grupo_82732-6" data-name="Grupo 82732" transform="translate(0 0)">
          <circle id="Elipse_5320-6" data-name="Elipse 5320" cx="21.549" cy="21.549" r="21.549" transform="translate(1.85 44.949) rotate(-90)" fill="#45bbcc"/>
          <g id="Grupo_82731-6" data-name="Grupo 82731">
            <path id="Trazado_120382-6" data-name="Trazado 120382" d="M300.506,134.4a23.4,23.4,0,1,1,23.4-23.4A23.426,23.426,0,0,1,300.506,134.4Zm0-43.1A19.7,19.7,0,1,0,320.2,111,19.721,19.721,0,0,0,300.506,91.3Z" transform="translate(-277.106 -87.598)" fill="#29707a"/>
          </g>
        </g>
      </g>
      <text id="_02" data-name="02" transform="translate(870.537 8110.295)" fill="#fff" font-size="20" font-family="Roboto-Black, Roboto" font-weight="800"><tspan x="-11.582" y="0">02</tspan></text>
    </g>
    <path id="Trazado_635185" data-name="Trazado 635185" d="M5.945,10.836H4.078V15H1.734V3.625H5.961a4.778,4.778,0,0,1,3.109.9,3.1,3.1,0,0,1,1.094,2.539A3.5,3.5,0,0,1,9.66,9a3.437,3.437,0,0,1-1.527,1.238l2.461,4.648V15H8.078Zm-1.867-1.9H5.969a1.936,1.936,0,0,0,1.367-.449A1.606,1.606,0,0,0,7.82,7.25a1.719,1.719,0,0,0-.457-1.266,1.9,1.9,0,0,0-1.4-.461H4.078Zm11.609,6.219a4.15,4.15,0,0,1-3.027-1.141,4.054,4.054,0,0,1-1.168-3.039v-.219a5.106,5.106,0,0,1,.492-2.277,3.612,3.612,0,0,1,1.395-1.547,3.914,3.914,0,0,1,2.059-.543,3.508,3.508,0,0,1,2.73,1.094,4.444,4.444,0,0,1,1,3.1v.922H13.781a2.1,2.1,0,0,0,.66,1.328,2,2,0,0,0,1.395.5,2.437,2.437,0,0,0,2.039-.945l1.109,1.242a3.389,3.389,0,0,1-1.375,1.121A4.511,4.511,0,0,1,15.688,15.156ZM15.43,8.211a1.411,1.411,0,0,0-1.09.455,2.357,2.357,0,0,0-.535,1.3h3.141V9.788a1.681,1.681,0,0,0-.406-1.165A1.456,1.456,0,0,0,15.43,8.211Zm8.531,5.125a1.481,1.481,0,0,0,1.016-.344,1.2,1.2,0,0,0,.406-.914H27.5a2.9,2.9,0,0,1-.469,1.574,3.093,3.093,0,0,1-1.262,1.109,3.949,3.949,0,0,1-1.77.395A3.67,3.67,0,0,1,21.141,14a4.56,4.56,0,0,1-1.047-3.184v-.148a4.508,4.508,0,0,1,1.039-3.117,3.627,3.627,0,0,1,2.852-1.164,3.555,3.555,0,0,1,2.543.9A3.2,3.2,0,0,1,27.5,9.7H25.383a1.551,1.551,0,0,0-.406-1.072,1.51,1.51,0,0,0-2.223.163,3.333,3.333,0,0,0-.4,1.866v.235a3.375,3.375,0,0,0,.4,1.878A1.377,1.377,0,0,0,23.961,13.336ZM28.438,10.7a5.013,5.013,0,0,1,.484-2.242A3.546,3.546,0,0,1,30.316,6.93a4.069,4.069,0,0,1,2.113-.539,3.849,3.849,0,0,1,2.793,1.047,4.2,4.2,0,0,1,1.207,2.844l.016.578a4.418,4.418,0,0,1-1.086,3.121,3.775,3.775,0,0,1-2.914,1.176,3.793,3.793,0,0,1-2.918-1.172,4.5,4.5,0,0,1-1.09-3.187Zm2.258.16a3.16,3.16,0,0,0,.453,1.843,1.628,1.628,0,0,0,2.578.008,3.457,3.457,0,0,0,.461-2.015,3.128,3.128,0,0,0-.461-1.831,1.5,1.5,0,0,0-1.3-.649,1.474,1.474,0,0,0-1.281.646A3.516,3.516,0,0,0,30.7,10.856Zm14.75,0a5.07,5.07,0,0,1-.887,3.129,2.843,2.843,0,0,1-2.395,1.176,2.633,2.633,0,0,1-2.07-.891V18.25H37.836V6.547H39.93l.078.828a2.654,2.654,0,0,1,2.141-.984,2.862,2.862,0,0,1,2.43,1.156,5.207,5.207,0,0,1,.867,3.188Zm-2.258-.172a3.345,3.345,0,0,0-.418-1.826,1.36,1.36,0,0,0-1.215-.643,1.478,1.478,0,0,0-1.461.815V12.5a1.5,1.5,0,0,0,1.477.839Q43.188,13.336,43.188,10.679ZM49.227,15H46.961V6.547h2.266Zm-2.4-10.641a1.112,1.112,0,0,1,.34-.836,1.465,1.465,0,0,1,1.848,0,1.105,1.105,0,0,1,.344.836,1.108,1.108,0,0,1-.348.844,1.448,1.448,0,0,1-1.836,0A1.108,1.108,0,0,1,46.828,4.359ZM53.469,15H51.2V3h2.266Zm6.758,0A2.507,2.507,0,0,1,60,14.242a2.732,2.732,0,0,1-2.133.914,3,3,0,0,1-2.059-.719,2.312,2.312,0,0,1-.816-1.812,2.389,2.389,0,0,1,1-2.062,4.915,4.915,0,0,1,2.879-.727h1.039V9.352a1.393,1.393,0,0,0-.3-.937,1.183,1.183,0,0,0-.949-.352,1.345,1.345,0,0,0-.895.273.929.929,0,0,0-.324.75H55.18a2.268,2.268,0,0,1,.453-1.359,3,3,0,0,1,1.281-.98,4.669,4.669,0,0,1,1.859-.355,3.689,3.689,0,0,1,2.48.785,2.747,2.747,0,0,1,.918,2.207v3.664a4.041,4.041,0,0,0,.336,1.82V15Zm-1.867-1.57a1.945,1.945,0,0,0,.922-.223,1.462,1.462,0,0,0,.625-.6V11.156h-.844q-1.7,0-1.8,1.172l-.008.133a.9.9,0,0,0,.3.7A1.153,1.153,0,0,0,58.359,13.43Zm9.063-.094a1.481,1.481,0,0,0,1.016-.344,1.2,1.2,0,0,0,.406-.914h2.117a2.9,2.9,0,0,1-.469,1.574,3.093,3.093,0,0,1-1.262,1.109,3.949,3.949,0,0,1-1.77.395A3.67,3.67,0,0,1,64.6,14a4.56,4.56,0,0,1-1.047-3.184v-.148a4.508,4.508,0,0,1,1.039-3.117,3.627,3.627,0,0,1,2.852-1.164,3.555,3.555,0,0,1,2.543.9,3.2,3.2,0,0,1,.973,2.4H68.844a1.551,1.551,0,0,0-.406-1.072,1.51,1.51,0,0,0-2.223.163,3.333,3.333,0,0,0-.4,1.866v.235a3.375,3.375,0,0,0,.4,1.878A1.377,1.377,0,0,0,67.422,13.336ZM74.633,15H72.367V6.547h2.266Zm-2.4-10.641a1.112,1.112,0,0,1,.34-.836,1.465,1.465,0,0,1,1.848,0,1.105,1.105,0,0,1,.344.836,1.108,1.108,0,0,1-.348.844,1.448,1.448,0,0,1-1.836,0A1.108,1.108,0,0,1,72.234,4.359ZM76.141,10.7a5.013,5.013,0,0,1,.484-2.242A3.546,3.546,0,0,1,78.02,6.93a4.069,4.069,0,0,1,2.113-.539,3.849,3.849,0,0,1,2.793,1.047,4.2,4.2,0,0,1,1.207,2.844l.016.578a4.418,4.418,0,0,1-1.086,3.121,4.209,4.209,0,0,1-5.832,0,4.5,4.5,0,0,1-1.09-3.187Zm2.258.16a3.16,3.16,0,0,0,.453,1.843,1.628,1.628,0,0,0,2.578.008,3.457,3.457,0,0,0,.461-2.015A3.128,3.128,0,0,0,81.43,8.86a1.5,1.5,0,0,0-1.3-.649,1.474,1.474,0,0,0-1.281.646A3.516,3.516,0,0,0,78.4,10.856ZM80.578,3h2.461L80.875,5.422H79.039Zm7.039,3.547.07.977a2.951,2.951,0,0,1,2.43-1.133,2.453,2.453,0,0,1,2,.789,3.682,3.682,0,0,1,.672,2.359V15H90.531V9.581a1.47,1.47,0,0,0-.312-1.045,1.4,1.4,0,0,0-1.039-.325,1.553,1.553,0,0,0-1.43.814V15H85.492V6.547Zm10.516,4.164a5.094,5.094,0,0,1,.887-3.148,2.877,2.877,0,0,1,2.426-1.172,2.589,2.589,0,0,1,2.039.922V3h2.266V15h-2.039l-.109-.9a2.657,2.657,0,0,1-2.172,1.055,2.869,2.869,0,0,1-2.395-1.176A5.258,5.258,0,0,1,98.133,10.711Zm2.258.161A3.355,3.355,0,0,0,100.8,12.7a1.348,1.348,0,0,0,1.2.636,1.51,1.51,0,0,0,1.477-.887V9.1a1.489,1.489,0,0,0-1.461-.887Q100.391,8.211,100.391,10.872Zm11,4.285a4.15,4.15,0,0,1-3.027-1.141,4.054,4.054,0,0,1-1.168-3.039v-.219a5.106,5.106,0,0,1,.492-2.277,3.612,3.612,0,0,1,1.395-1.547,3.914,3.914,0,0,1,2.059-.543,3.508,3.508,0,0,1,2.73,1.094,4.444,4.444,0,0,1,1,3.1v.922h-5.383a2.1,2.1,0,0,0,.66,1.328,2,2,0,0,0,1.395.5,2.437,2.437,0,0,0,2.039-.945l1.109,1.242a3.389,3.389,0,0,1-1.375,1.121A4.511,4.511,0,0,1,111.391,15.156Zm-.258-6.945a1.411,1.411,0,0,0-1.09.455,2.357,2.357,0,0,0-.535,1.3h3.141V9.788a1.681,1.681,0,0,0-.406-1.165A1.456,1.456,0,0,0,111.133,8.211ZM17.828,39H15.563V30.547h2.266Zm-2.4-10.641a1.112,1.112,0,0,1,.34-.836,1.465,1.465,0,0,1,1.848,0,1.193,1.193,0,0,1,0,1.68,1.448,1.448,0,0,1-1.836,0A1.108,1.108,0,0,1,15.43,28.359Zm6.336,2.188.07.977a2.951,2.951,0,0,1,2.43-1.133,2.453,2.453,0,0,1,2,.789,3.682,3.682,0,0,1,.672,2.359V39H24.68V33.581a1.47,1.47,0,0,0-.312-1.045,1.4,1.4,0,0,0-1.039-.325,1.553,1.553,0,0,0-1.43.814V39H19.641V30.547ZM29.266,39V32.2H28.008V30.547h1.258v-.719a2.918,2.918,0,0,1,.816-2.207,3.162,3.162,0,0,1,2.285-.785,5.321,5.321,0,0,1,1.148.155l-.023,1.736a2.878,2.878,0,0,0-.687-.07q-1.273,0-1.273,1.205v.685h1.68V32.2h-1.68V39Zm4.766-4.3a5.013,5.013,0,0,1,.484-2.242A3.546,3.546,0,0,1,35.91,30.93a4.069,4.069,0,0,1,2.113-.539,3.849,3.849,0,0,1,2.793,1.047,4.2,4.2,0,0,1,1.207,2.844l.016.578a4.418,4.418,0,0,1-1.086,3.121,4.209,4.209,0,0,1-5.832,0,4.5,4.5,0,0,1-1.09-3.187Zm2.258.16a3.16,3.16,0,0,0,.453,1.843,1.628,1.628,0,0,0,2.578.008,3.457,3.457,0,0,0,.461-2.015,3.128,3.128,0,0,0-.461-1.831,1.5,1.5,0,0,0-1.3-.649,1.474,1.474,0,0,0-1.281.646A3.516,3.516,0,0,0,36.289,34.856ZM48.18,32.664a6.134,6.134,0,0,0-.812-.062,1.654,1.654,0,0,0-1.68.867V39H43.43V30.547h2.133l.063,1.008a2.092,2.092,0,0,1,1.883-1.164,2.366,2.366,0,0,1,.7.1Zm3.2-2.117.07.945a2.971,2.971,0,0,1,2.43-1.1,2.255,2.255,0,0,1,2.242,1.289,2.9,2.9,0,0,1,2.539-1.289,2.521,2.521,0,0,1,2.047.8,3.681,3.681,0,0,1,.672,2.41V39H59.117V33.6a1.616,1.616,0,0,0-.281-1.053,1.245,1.245,0,0,0-.992-.333,1.409,1.409,0,0,0-1.406.971L56.445,39H54.188V33.6A1.6,1.6,0,0,0,53.9,32.54a1.257,1.257,0,0,0-.984-.329,1.463,1.463,0,0,0-1.391.8V39H49.266V30.547ZM68.016,39a2.507,2.507,0,0,1-.227-.758,2.732,2.732,0,0,1-2.133.914,3,3,0,0,1-2.059-.719,2.312,2.312,0,0,1-.816-1.812,2.389,2.389,0,0,1,1-2.062,4.915,4.915,0,0,1,2.879-.727H67.7v-.484a1.393,1.393,0,0,0-.3-.937,1.183,1.183,0,0,0-.949-.352,1.345,1.345,0,0,0-.895.273.929.929,0,0,0-.324.75H62.969a2.268,2.268,0,0,1,.453-1.359,3,3,0,0,1,1.281-.98,4.669,4.669,0,0,1,1.859-.355,3.689,3.689,0,0,1,2.48.785,2.747,2.747,0,0,1,.918,2.207v3.664a4.041,4.041,0,0,0,.336,1.82V39Zm-1.867-1.57a1.945,1.945,0,0,0,.922-.223,1.462,1.462,0,0,0,.625-.6V35.156h-.844q-1.7,0-1.8,1.172l-.008.133a.9.9,0,0,0,.3.7A1.153,1.153,0,0,0,66.148,37.43Zm9.063-.094a1.481,1.481,0,0,0,1.016-.344,1.2,1.2,0,0,0,.406-.914H78.75a2.9,2.9,0,0,1-.469,1.574,3.093,3.093,0,0,1-1.262,1.109,3.949,3.949,0,0,1-1.77.395A3.67,3.67,0,0,1,72.391,38a4.56,4.56,0,0,1-1.047-3.184v-.148a4.508,4.508,0,0,1,1.039-3.117,3.627,3.627,0,0,1,2.852-1.164,3.555,3.555,0,0,1,2.543.9,3.2,3.2,0,0,1,.973,2.4H76.633a1.551,1.551,0,0,0-.406-1.072A1.51,1.51,0,0,0,74,32.786a3.333,3.333,0,0,0-.4,1.866v.235a3.375,3.375,0,0,0,.4,1.878A1.377,1.377,0,0,0,75.211,37.336ZM82.422,39H80.156V30.547h2.266Zm-2.4-10.641a1.112,1.112,0,0,1,.34-.836,1.465,1.465,0,0,1,1.848,0,1.193,1.193,0,0,1,0,1.68,1.448,1.448,0,0,1-1.836,0A1.108,1.108,0,0,1,80.023,28.359ZM83.93,34.7a5.013,5.013,0,0,1,.484-2.242,3.546,3.546,0,0,1,1.395-1.523,4.069,4.069,0,0,1,2.113-.539,3.849,3.849,0,0,1,2.793,1.047,4.2,4.2,0,0,1,1.207,2.844l.016.578a4.418,4.418,0,0,1-1.086,3.121,4.209,4.209,0,0,1-5.832,0A4.5,4.5,0,0,1,83.93,34.8Zm2.258.16a3.16,3.16,0,0,0,.453,1.843,1.628,1.628,0,0,0,2.578.008,3.457,3.457,0,0,0,.461-2.015,3.128,3.128,0,0,0-.461-1.831,1.5,1.5,0,0,0-1.3-.649,1.474,1.474,0,0,0-1.281.646A3.516,3.516,0,0,0,86.188,34.856ZM88.367,27h2.461l-2.164,2.422H86.828Zm7.039,3.547.07.977a2.951,2.951,0,0,1,2.43-1.133,2.453,2.453,0,0,1,2,.789,3.682,3.682,0,0,1,.672,2.359V39H98.32V33.581a1.47,1.47,0,0,0-.312-1.045,1.4,1.4,0,0,0-1.039-.325,1.553,1.553,0,0,0-1.43.814V39H93.281V30.547Z" transform="translate(-9944.355 -306.794)" fill="#12263f"/>
    <path id="Trazado_633051" data-name="Trazado 633051" d="M333.893,2974.046c0,28.959-25.384,52.45-56.724,52.45H114.546V2921.587H277.169a58.867,58.867,0,0,1,40.114,15.367A50.321,50.321,0,0,1,333.893,2974.046Z" transform="translate(-10138.666 -3421.543)" fill="#bee7ed" opacity="0.4"/>
    <path id="Trazado_635186" data-name="Trazado 635186" d="M52.867,0A52.867,52.867,0,1,1,0,52.867,52.867,52.867,0,0,1,52.867,0Z" transform="translate(-10076.154 -518.648)" fill="#bee7ed"/>
    <path id="Trazado_635187" data-name="Trazado 635187" d="M43.422,0A43.422,43.422,0,1,1,0,43.422,43.422,43.422,0,0,1,43.422,0Z" transform="translate(-10066.709 -509.68)" fill="#fff"/>
    <g id="Grupo_948193" data-name="Grupo 948193" transform="translate(-10094.555 -554.125)">
      <path id="Trazado_632957" data-name="Trazado 632957" d="M164.324,2905.346l-8.471-6.515-10.919,13.187a52.382,52.382,0,1,1-29.76-9.28h0v-18.879a71.286,71.286,0,1,0,56.621,28Z" transform="translate(-43.907 -2867.26)" fill="#45bbcc"/>
    </g>
    <g id="Grupo_948194" data-name="Grupo 948194" transform="translate(-10892.588 -8624.303)">
      <g id="Grupo_82733-7" data-name="Grupo 82733" transform="translate(846.738 8078.79)">
        <g id="Grupo_82732-7" data-name="Grupo 82732" transform="translate(0 0)">
          <circle id="Elipse_5320-7" data-name="Elipse 5320" cx="21.549" cy="21.549" r="21.549" transform="translate(1.85 44.949) rotate(-90)" fill="#45bbcc"/>
          <g id="Grupo_82731-7" data-name="Grupo 82731">
            <path id="Trazado_120382-7" data-name="Trazado 120382" d="M300.506,134.4a23.4,23.4,0,1,1,23.4-23.4A23.426,23.426,0,0,1,300.506,134.4Zm0-43.1A19.7,19.7,0,1,0,320.2,111,19.721,19.721,0,0,0,300.506,91.3Z" transform="translate(-277.106 -87.598)" fill="#29707a"/>
          </g>
        </g>
      </g>
      <text id="_01" data-name="01" transform="translate(870.537 8110.295)" fill="#fff" font-size="20" font-family="Roboto-Black, Roboto" font-weight="800"><tspan x="-11.582" y="0">01</tspan></text>
    </g>
    <path id="Trazado_635188" data-name="Trazado 635188" d="M7.109,15H4.766V3.625H7.109Zm4.1-8.453.07.977a2.951,2.951,0,0,1,2.43-1.133,2.453,2.453,0,0,1,2,.789,3.682,3.682,0,0,1,.672,2.359V15H14.125V9.581a1.47,1.47,0,0,0-.312-1.045,1.4,1.4,0,0,0-1.039-.325,1.553,1.553,0,0,0-1.43.814V15H9.086V6.547ZM20.8,4.469V6.547h1.445V8.2H20.8v4.219a1.007,1.007,0,0,0,.18.672.9.9,0,0,0,.688.2,3.6,3.6,0,0,0,.664-.055v1.711a4.648,4.648,0,0,1-1.367.2,2.156,2.156,0,0,1-2.422-2.4V8.2H17.3V6.547h1.234V4.469Zm6.594,10.688a4.15,4.15,0,0,1-3.027-1.141A4.054,4.054,0,0,1,23.2,10.977v-.219a5.106,5.106,0,0,1,.492-2.277,3.612,3.612,0,0,1,1.395-1.547,3.914,3.914,0,0,1,2.059-.543,3.508,3.508,0,0,1,2.73,1.094,4.444,4.444,0,0,1,1,3.1v.922H25.484a2.1,2.1,0,0,0,.66,1.328,2,2,0,0,0,1.395.5,2.437,2.437,0,0,0,2.039-.945l1.109,1.242a3.389,3.389,0,0,1-1.375,1.121A4.511,4.511,0,0,1,27.391,15.156Zm-.258-6.945a1.411,1.411,0,0,0-1.09.455,2.357,2.357,0,0,0-.535,1.3h3.141V9.788a1.681,1.681,0,0,0-.406-1.165A1.456,1.456,0,0,0,27.133,8.211Zm9.766.453a6.134,6.134,0,0,0-.812-.062,1.654,1.654,0,0,0-1.68.867V15H32.148V6.547h2.133l.063,1.008a2.092,2.092,0,0,1,1.883-1.164,2.366,2.366,0,0,1,.7.1ZM42.648,15a2.507,2.507,0,0,1-.227-.758,2.732,2.732,0,0,1-2.133.914,3,3,0,0,1-2.059-.719,2.312,2.312,0,0,1-.816-1.812,2.389,2.389,0,0,1,1-2.062,4.915,4.915,0,0,1,2.879-.727h1.039V9.352a1.393,1.393,0,0,0-.3-.937,1.183,1.183,0,0,0-.949-.352,1.345,1.345,0,0,0-.895.273.929.929,0,0,0-.324.75H37.6a2.268,2.268,0,0,1,.453-1.359,3,3,0,0,1,1.281-.98A4.669,4.669,0,0,1,41.2,6.391a3.689,3.689,0,0,1,2.48.785,2.747,2.747,0,0,1,.918,2.207v3.664a4.041,4.041,0,0,0,.336,1.82V15Zm-1.867-1.57a1.945,1.945,0,0,0,.922-.223,1.462,1.462,0,0,0,.625-.6V11.156h-.844q-1.7,0-1.8,1.172l-.008.133a.9.9,0,0,0,.3.7A1.153,1.153,0,0,0,40.781,13.43Zm9.063-.094a1.481,1.481,0,0,0,1.016-.344,1.2,1.2,0,0,0,.406-.914h2.117a2.9,2.9,0,0,1-.469,1.574,3.093,3.093,0,0,1-1.262,1.109,3.949,3.949,0,0,1-1.77.395A3.67,3.67,0,0,1,47.023,14a4.56,4.56,0,0,1-1.047-3.184v-.148a4.508,4.508,0,0,1,1.039-3.117,3.627,3.627,0,0,1,2.852-1.164,3.555,3.555,0,0,1,2.543.9,3.2,3.2,0,0,1,.973,2.4H51.266a1.551,1.551,0,0,0-.406-1.072,1.51,1.51,0,0,0-2.223.163,3.333,3.333,0,0,0-.4,1.866v.235a3.375,3.375,0,0,0,.4,1.878A1.377,1.377,0,0,0,49.844,13.336Zm8.344,0a1.481,1.481,0,0,0,1.016-.344,1.2,1.2,0,0,0,.406-.914h2.117a2.9,2.9,0,0,1-.469,1.574A3.093,3.093,0,0,1,60,14.762a3.949,3.949,0,0,1-1.77.395A3.67,3.67,0,0,1,55.367,14,4.56,4.56,0,0,1,54.32,10.82v-.148a4.508,4.508,0,0,1,1.039-3.117,3.627,3.627,0,0,1,2.852-1.164,3.555,3.555,0,0,1,2.543.9,3.2,3.2,0,0,1,.973,2.4H59.609A1.551,1.551,0,0,0,59.2,8.623a1.51,1.51,0,0,0-2.223.163,3.333,3.333,0,0,0-.4,1.866v.235a3.375,3.375,0,0,0,.4,1.878A1.377,1.377,0,0,0,58.188,13.336ZM65.4,15H63.133V6.547H65.4ZM63,4.359a1.112,1.112,0,0,1,.34-.836,1.465,1.465,0,0,1,1.848,0,1.105,1.105,0,0,1,.344.836,1.108,1.108,0,0,1-.348.844,1.448,1.448,0,0,1-1.836,0A1.108,1.108,0,0,1,63,4.359ZM66.906,10.7a5.013,5.013,0,0,1,.484-2.242A3.546,3.546,0,0,1,68.785,6.93,4.069,4.069,0,0,1,70.9,6.391a3.849,3.849,0,0,1,2.793,1.047A4.2,4.2,0,0,1,74.9,10.281l.016.578a4.418,4.418,0,0,1-1.086,3.121,4.209,4.209,0,0,1-5.832,0,4.5,4.5,0,0,1-1.09-3.187Zm2.258.16a3.16,3.16,0,0,0,.453,1.843,1.628,1.628,0,0,0,2.578.008,3.457,3.457,0,0,0,.461-2.015A3.128,3.128,0,0,0,72.2,8.86a1.5,1.5,0,0,0-1.3-.649,1.474,1.474,0,0,0-1.281.646A3.516,3.516,0,0,0,69.164,10.856ZM71.344,3H73.8L71.641,5.422H69.8Zm7.039,3.547.07.977a2.951,2.951,0,0,1,2.43-1.133,2.453,2.453,0,0,1,2,.789,3.682,3.682,0,0,1,.672,2.359V15H81.3V9.581a1.47,1.47,0,0,0-.312-1.045,1.4,1.4,0,0,0-1.039-.325,1.553,1.553,0,0,0-1.43.814V15H76.258V6.547ZM30.4,34.852a5.07,5.07,0,0,1-.887,3.129,2.843,2.843,0,0,1-2.395,1.176,2.633,2.633,0,0,1-2.07-.891V42.25H22.793v-11.7h2.094l.078.828a2.654,2.654,0,0,1,2.141-.984,2.862,2.862,0,0,1,2.43,1.156,5.207,5.207,0,0,1,.867,3.188Zm-2.258-.172a3.345,3.345,0,0,0-.418-1.826,1.36,1.36,0,0,0-1.215-.643,1.478,1.478,0,0,0-1.461.815V36.5a1.5,1.5,0,0,0,1.477.839Q28.145,37.336,28.145,34.679Zm8.406-2.015a6.134,6.134,0,0,0-.812-.062,1.654,1.654,0,0,0-1.68.867V39H31.8V30.547h2.133L34,31.555a2.092,2.092,0,0,1,1.883-1.164,2.366,2.366,0,0,1,.7.1Zm4.828,6.492a4.15,4.15,0,0,1-3.027-1.141,4.054,4.054,0,0,1-1.168-3.039v-.219a5.106,5.106,0,0,1,.492-2.277,3.612,3.612,0,0,1,1.395-1.547,3.914,3.914,0,0,1,2.059-.543,3.508,3.508,0,0,1,2.73,1.094,4.444,4.444,0,0,1,1,3.1v.922H39.473a2.1,2.1,0,0,0,.66,1.328,2,2,0,0,0,1.395.5,2.437,2.437,0,0,0,2.039-.945l1.109,1.242A3.389,3.389,0,0,1,43.3,38.754,4.511,4.511,0,0,1,41.379,39.156Zm-.258-6.945a1.411,1.411,0,0,0-1.09.455,2.357,2.357,0,0,0-.535,1.3h3.141v-.181a1.681,1.681,0,0,0-.406-1.165A1.456,1.456,0,0,0,41.121,32.211ZM49.2,36.242l1.57-5.7h2.359L50.277,39H48.121L45.27,30.547h2.359ZM56.5,39H54.238V30.547H56.5Zm-2.4-10.641a1.112,1.112,0,0,1,.34-.836,1.465,1.465,0,0,1,1.848,0,1.193,1.193,0,0,1,0,1.68,1.448,1.448,0,0,1-1.836,0A1.108,1.108,0,0,1,54.105,28.359ZM63.262,39a2.507,2.507,0,0,1-.227-.758,2.732,2.732,0,0,1-2.133.914,3,3,0,0,1-2.059-.719,2.312,2.312,0,0,1-.816-1.812,2.389,2.389,0,0,1,1-2.062,4.915,4.915,0,0,1,2.879-.727h1.039v-.484a1.393,1.393,0,0,0-.3-.937,1.183,1.183,0,0,0-.949-.352,1.345,1.345,0,0,0-.895.273.929.929,0,0,0-.324.75H58.215a2.268,2.268,0,0,1,.453-1.359,3,3,0,0,1,1.281-.98,4.669,4.669,0,0,1,1.859-.355,3.689,3.689,0,0,1,2.48.785,2.747,2.747,0,0,1,.918,2.207v3.664a4.041,4.041,0,0,0,.336,1.82V39Zm-1.867-1.57a1.945,1.945,0,0,0,.922-.223,1.462,1.462,0,0,0,.625-.6V35.156H62.1q-1.7,0-1.8,1.172l-.008.133a.9.9,0,0,0,.3.7A1.153,1.153,0,0,0,61.395,37.43Z" transform="translate(-9939.051 -474.91)" fill="#12263f"/>
    <g id="Grupo_948195" data-name="Grupo 948195" transform="translate(-10473.051 -3112.008)">
      <rect id="Rectngulo_34429" data-name="Rectngulo 34429" width="58" height="58" transform="translate(421 2618)" fill="none"/>
      <g id="interaccion" transform="translate(426.84 2623.236)">
        <path id="Trazado_632963" data-name="Trazado 632963" d="M16.2,45.069H12.25A2.25,2.25,0,0,1,10,42.818V12.25A2.251,2.251,0,0,1,12.25,10H50.132a2.25,2.25,0,0,1,2.25,2.25V42.068a3,3,0,0,1-3,3Zm0,0" transform="translate(-9.062 -9.062)" fill="#fff"/>
        <path id="Trazado_632964" data-name="Trazado 632964" d="M50.132,10H12.25A2.251,2.251,0,0,0,10,12.25v4.5H52.383v-4.5A2.25,2.25,0,0,0,50.132,10Zm0,0" transform="translate(-9.062 -9.062)" fill="#45bbcc"/>
        <path id="Trazado_632965" data-name="Trazado 632965" d="M160.913,194.315a2.532,2.532,0,0,0,0,3.58l-1.424-1.424a2.532,2.532,0,0,0-3.58,3.58,2.532,2.532,0,1,0-3.58,3.58l-6.762-6.762a2.532,2.532,0,0,0-3.58,3.58l14.371,14.371-5.7-1.384a2.657,2.657,0,0,0-1.5,5.092l9.378,3.27a12.445,12.445,0,0,0,12.9-20.551l-6.934-6.934a2.532,2.532,0,0,0-3.58,0Zm0,0" transform="translate(-128.001 -175.422)" fill="#feda9b"/>
        <path id="Trazado_632966" data-name="Trazado 632966" d="M215.224,36H195.762a.938.938,0,0,0,0,1.875h19.463a.938.938,0,1,0,0-1.875Zm0,0" transform="translate(-176.556 -32.624)"/>
        <path id="Trazado_632967" data-name="Trazado 632967" d="M87.3,36a.938.938,0,1,0,.663.275A.945.945,0,0,0,87.3,36Zm0,0" transform="translate(-78.261 -32.624)"/>
        <path id="Trazado_632968" data-name="Trazado 632968" d="M50.547,36a.938.938,0,1,0,.663.275A.945.945,0,0,0,50.547,36Zm0,0" transform="translate(-44.957 -32.624)"/>
        <path id="Trazado_632969" data-name="Trazado 632969" d="M124.047,36a.938.938,0,1,0,.663.275A.943.943,0,0,0,124.047,36Zm0,0" transform="translate(-111.565 -32.624)"/>
        <path id="Trazado_632970" data-name="Trazado 632970" d="M179.1,374.271a.937.937,0,1,0,.275.663A.944.944,0,0,0,179.1,374.271Zm0,0" transform="translate(-160.856 -338.927)"/>
        <path id="Trazado_632971" data-name="Trazado 632971" d="M44.255,25.333c0-.021,0-.042,0-.064V3.188A3.191,3.191,0,0,0,41.07,0H3.188A3.192,3.192,0,0,0,0,3.188V33.756a3.192,3.192,0,0,0,3.188,3.188H13.972a.938.938,0,0,0,0-1.875H3.188a1.314,1.314,0,0,1-1.313-1.313V8.627H42.383v14.83L37.156,18.23a3.472,3.472,0,0,0-5.806,1.557,3.469,3.469,0,0,0-5.117,3.166l-.115,0a3.476,3.476,0,0,0-3.308,2.416l-4.581-4.581a3.469,3.469,0,0,0-4.906,4.906L25.332,37.7l-2.458-.6a3.6,3.6,0,0,0-2.031,6.888l9.378,3.27a13.382,13.382,0,0,0,14.035-21.93ZM1.886,6.752h-.01V3.188A1.314,1.314,0,0,1,3.188,1.876H41.071a1.314,1.314,0,0,1,1.313,1.313V6.752ZM42.763,42.763a11.571,11.571,0,0,1-11.925,2.729l-9.378-3.27a1.726,1.726,0,0,1-1.095-2.069,1.708,1.708,0,0,1,1.652-1.276,1.754,1.754,0,0,1,.414.05l5.7,1.384a.938.938,0,0,0,.884-1.574L14.649,24.366A1.594,1.594,0,1,1,16.9,22.112l6.762,6.762h0l4.864,4.864a.938.938,0,0,0,1.326-1.326l-4.864-4.864h0a1.594,1.594,0,1,1,2.254-2.254l5.118,5.117a.938.938,0,1,0,1.326-1.326l-5.117-5.118a1.594,1.594,0,1,1,2.254-2.254l1.423,1.423h0l3.74,3.74a.938.938,0,0,0,1.326-1.326l-3.74-3.741a1.594,1.594,0,1,1,2.254-2.254l6.934,6.933a11.521,11.521,0,0,1,0,16.274Zm0,0" transform="translate(0)"/>
        <path id="Trazado_632972" data-name="Trazado 632972" d="M156.613,153.382v-2.019a.938.938,0,1,0-1.875,0v2.019a.938.938,0,1,0,1.875,0Zm0,0" transform="translate(-140.228 -136.32)"/>
        <path id="Trazado_632973" data-name="Trazado 632973" d="M70.692,235.41a.938.938,0,1,0,0,1.875h2.019a.938.938,0,0,0,0-1.875Zm0,0" transform="translate(-63.213 -213.336)"/>
        <path id="Trazado_632974" data-name="Trazado 632974" d="M77.9,159.508a.938.938,0,0,0,.663-1.6l-3.5-3.5a.938.938,0,0,0-1.326,1.326l3.5,3.5A.935.935,0,0,0,77.9,159.508Zm0,0" transform="translate(-66.569 -139.676)"/>
      </g>
    </g>
    <g id="Grupo_948196" data-name="Grupo 948196" transform="translate(-10472.451 -2942.583)">
      <rect id="Rectngulo_34429-2" data-name="Rectngulo 34429" width="58" height="58" transform="translate(421 2618)" fill="none"/>
      <g id="expediente" transform="translate(400.446 2622.07)">
        <g id="Grupo_948156" data-name="Grupo 948156" transform="translate(28.323 0.971)">
          <g id="Grupo_948152" data-name="Grupo 948152" transform="translate(6.615 17.6)">
            <path id="Trazado_632975" data-name="Trazado 632975" d="M132.095,192.116a9.224,9.224,0,0,1-2.72-.408v21.935a2.563,2.563,0,0,1-2.563,2.563H105.476v2.661a2.563,2.563,0,0,0,2.563,2.563h25.388a2.563,2.563,0,0,0,2.563-2.563V191.256A9.192,9.192,0,0,1,132.095,192.116Z" transform="translate(-105.476 -191.256)" fill="#ccf5fc"/>
          </g>
          <g id="Grupo_948153" data-name="Grupo 948153" transform="translate(0 2.102)">
            <path id="Trazado_632976" data-name="Trazado 632976" d="M64.529,31.646H39.915a2.563,2.563,0,0,0-2.563,2.563V69.531a2.563,2.563,0,0,0,2.563,2.563H65.3a2.563,2.563,0,0,0,2.563-2.563V47.791" transform="translate(-37.352 -31.646)" fill="#faf7f5"/>
          </g>
          <g id="Grupo_948154" data-name="Grupo 948154" transform="translate(24.005)">
            <ellipse id="Elipse_5348" data-name="Elipse 5348" cx="9.228" cy="9.23" rx="9.228" ry="9.23" fill="#45bbcc"/>
          </g>
          <g id="Grupo_948155" data-name="Grupo 948155" transform="translate(6.508 9.77)">
            <path id="Trazado_632977" data-name="Trazado 632977" d="M104.377,110.62h17.5v4.1h-17.5Z" transform="translate(-104.377 -110.62)" fill="#ffe6b4"/>
          </g>
        </g>
        <g id="Grupo_948174" data-name="Grupo 948174" transform="translate(27.352)">
          <g id="Grupo_948158" data-name="Grupo 948158" transform="translate(33.238 7.958)">
            <g id="Grupo_948157" data-name="Grupo 948157">
              <path id="Trazado_632978" data-name="Trazado 632978" d="M370.626,90.538a.971.971,0,0,1-.971-.971v-6.64a.971.971,0,0,1,1.942,0v6.64A.971.971,0,0,1,370.626,90.538Z" transform="translate(-369.655 -81.956)"/>
            </g>
          </g>
          <g id="Grupo_948160" data-name="Grupo 948160" transform="translate(33.234 4.833)">
            <g id="Grupo_948159" data-name="Grupo 948159">
              <circle id="Elipse_5349" data-name="Elipse 5349" cx="0.971" cy="0.971" r="0.971"/>
            </g>
          </g>
          <g id="Grupo_948163" data-name="Grupo 948163" transform="translate(0)">
            <path id="Trazado_632979" data-name="Trazado 632979" d="M71.756,10.2A10.194,10.194,0,0,0,55.362,2.1H30.886a3.538,3.538,0,0,0-3.534,3.534V40.958a3.538,3.538,0,0,0,3.534,3.534h3.081v1.69A3.538,3.538,0,0,0,37.5,49.715H62.889a3.538,3.538,0,0,0,3.534-3.534V32.714a.971.971,0,0,0-1.942,0V46.182a1.594,1.594,0,0,1-1.592,1.592H37.5a1.594,1.594,0,0,1-1.592-1.592v-1.69H56.274a3.538,3.538,0,0,0,3.534-3.534V20.252a10.236,10.236,0,0,0,4.673-.277v3.96a.971.971,0,1,0,1.942,0v-4.77A10.21,10.21,0,0,0,71.756,10.2ZM57.866,40.958a1.594,1.594,0,0,1-1.592,1.592H30.886a1.594,1.594,0,0,1-1.592-1.592V5.636a1.594,1.594,0,0,1,1.592-1.592H53.43A10.148,10.148,0,0,0,51.367,9.77H34.831a.971.971,0,0,0-.971.971v4.1a.971.971,0,0,0,.971.971h17.5a.967.967,0,0,0,.587-.2,10.259,10.259,0,0,0,4.95,4.1ZM51.357,11.712v2.159H35.8V11.712Zm10.2,6.748A8.259,8.259,0,1,1,69.814,10.2,8.267,8.267,0,0,1,61.557,18.46Z" transform="translate(-27.352)"/>
            <g id="Grupo_948162" data-name="Grupo 948162" transform="translate(37.13 27.338)">
              <g id="Grupo_948161" data-name="Grupo 948161">
                <path id="Trazado_632980" data-name="Trazado 632980" d="M410.711,283.481a.971.971,0,1,1,.946-.751A.98.98,0,0,1,410.711,283.481Z" transform="translate(-409.742 -281.541)"/>
              </g>
            </g>
          </g>
          <g id="Grupo_948173" data-name="Grupo 948173" transform="translate(6.508 19.19)">
            <g id="Grupo_948172" data-name="Grupo 948172">
              <g id="Grupo_948165" data-name="Grupo 948165">
                <g id="Grupo_948164" data-name="Grupo 948164">
                  <path id="Trazado_632981" data-name="Trazado 632981" d="M112.845,199.575h-17.5a.971.971,0,1,1,0-1.942h17.5a.971.971,0,1,1,0,1.942Z" transform="translate(-94.377 -197.633)"/>
                </g>
              </g>
              <g id="Grupo_948167" data-name="Grupo 948167" transform="translate(0 4.605)">
                <g id="Grupo_948166" data-name="Grupo 948166">
                  <path id="Trazado_632982" data-name="Trazado 632982" d="M112.845,247.005h-17.5a.971.971,0,0,1,0-1.942h17.5a.971.971,0,0,1,0,1.942Z" transform="translate(-94.377 -245.063)"/>
                </g>
              </g>
              <g id="Grupo_948169" data-name="Grupo 948169" transform="translate(0 9.211)">
                <g id="Grupo_948168" data-name="Grupo 948168">
                  <path id="Trazado_632983" data-name="Trazado 632983" d="M112.845,294.435h-17.5a.971.971,0,0,1,0-1.942h17.5a.971.971,0,0,1,0,1.942Z" transform="translate(-94.377 -292.493)"/>
                </g>
              </g>
              <g id="Grupo_948171" data-name="Grupo 948171" transform="translate(0 13.816)">
                <g id="Grupo_948170" data-name="Grupo 948170">
                  <path id="Trazado_632984" data-name="Trazado 632984" d="M112.845,341.865h-17.5a.971.971,0,0,1,0-1.942h17.5a.971.971,0,0,1,0,1.942Z" transform="translate(-94.377 -339.923)"/>
                </g>
              </g>
            </g>
          </g>
        </g>
      </g>
    </g>
    <g id="Grupo_948200" data-name="Grupo 948200" transform="translate(-10473.699 -2782.987)">
      <rect id="Rectngulo_34429-3" data-name="Rectngulo 34429" width="58" height="58" transform="translate(421 2618)" fill="none"/>
      <g id="crisis" transform="translate(421.474 2619.598)">
        <path id="Trazado_632985" data-name="Trazado 632985" d="M24.107,7.428,4.485,41.414a4.855,4.855,0,0,0,4.2,7.283H47.934a4.855,4.855,0,0,0,4.2-7.283L32.516,7.428a4.855,4.855,0,0,0-8.409,0Z" transform="translate(0.215 0.214)" fill="#fac100"/>
        <path id="Trazado_632986" data-name="Trazado 632986" d="M41.664,40.119A31.56,31.56,0,0,1,13.3,22.412l-8.82,15.28a4.855,4.855,0,0,0,4.2,7.283H47.934a4.855,4.855,0,0,0,4.474-6.734,31.484,31.484,0,0,1-10.745,1.879Z" transform="translate(0.215 3.937)" fill="#ff9500"/>
        <path id="Trazado_632987" data-name="Trazado 632987" d="M23.557,14h1.908a1.942,1.942,0,0,1,1.942,2.076l-.954,14.311a1.946,1.946,0,0,1-3.884,0l-.954-14.311A1.942,1.942,0,0,1,23.557,14Z" transform="translate(4.015 2.138)" fill="#2d4a60"/>
        <circle id="Elipse_5350" data-name="Elipse 5350" cx="3.035" cy="3.035" r="3.035" transform="translate(25.492 37.987)" fill="#2d4a60"/>
        <path id="Trazado_632988" data-name="Trazado 632988" d="M24.535,37.776a3.035,3.035,0,0,0,2.783-1.829,31.272,31.272,0,0,1-5.478-2.573,3,3,0,0,0-.34,1.368A3.035,3.035,0,0,0,24.535,37.776Z" transform="translate(3.992 6.28)" fill="#263f52"/>
        <path id="Trazado_632989" data-name="Trazado 632989" d="M48.149,50.125H8.9a6.069,6.069,0,0,1-5.261-9.1L23.271,7.034a6.069,6.069,0,0,1,10.512,0L53.41,41.021a6.069,6.069,0,0,1-5.256,9.1ZM25.37,8.248,5.75,42.235A3.641,3.641,0,0,0,8.906,47.7H48.149A3.641,3.641,0,0,0,51.3,42.235L31.682,8.248a3.641,3.641,0,0,0-6.312,0Z" transform="translate(0)"/>
        <path id="Trazado_632990" data-name="Trazado 632990" d="M24.725,33.635a3.167,3.167,0,0,1-3.156-2.95L20.614,16.37A3.156,3.156,0,0,1,23.771,13H25.68a3.156,3.156,0,0,1,3.156,3.37l-.954,14.316A3.167,3.167,0,0,1,24.725,33.635Zm-.954-18.207a.728.728,0,0,0-.728.782L24,30.524a.728.728,0,0,0,1.457,0l.955-14.315a.728.728,0,0,0-.728-.782Z" transform="translate(3.801 1.924)"/>
        <path id="Trazado_632991" data-name="Trazado 632991" d="M24.748,39.5A4.248,4.248,0,1,1,29,35.248,4.248,4.248,0,0,1,24.748,39.5Zm0-6.069a1.821,1.821,0,1,0,1.821,1.821A1.821,1.821,0,0,0,24.748,33.428Z" transform="translate(3.778 5.773)"/>
      </g>
    </g>
    <g id="Grupo_948204" data-name="Grupo 948204" transform="translate(-10474.119 -2623.183)">
      <rect id="Rectngulo_34429-4" data-name="Rectngulo 34429" width="58" height="58" transform="translate(421 2618)" fill="none"/>
      <g id="vigilancia" transform="translate(410.104 2608.137)">
        <path id="Trazado_632992" data-name="Trazado 632992" d="M80,25.593A1.593,1.593,0,0,1,81.593,24H119.03a1.593,1.593,0,0,1,1.593,1.593V51.878a1.593,1.593,0,0,1-1.593,1.593H80Z" transform="translate(-57.628 -7.203)" fill="#bee7ed"/>
        <path id="Trazado_632993" data-name="Trazado 632993" d="M315.948,362.355,320.727,352H308.779L304,362.355Z" transform="translate(-259.325 -302.546)" fill="#8be0e8"/>
        <path id="Trazado_632994" data-name="Trazado 632994" d="M240,456h18.32v1.593a1.593,1.593,0,0,1-1.593,1.593H241.593A1.593,1.593,0,0,1,240,457.593Z" transform="translate(-201.697 -396.191)" fill="#548aff"/>
        <path id="Trazado_632995" data-name="Trazado 632995" d="M64,280h5.479v7.169H64Z" transform="translate(-43.221 -237.715)" fill="#ffceb6"/>
        <path id="Trazado_632996" data-name="Trazado 632996" d="M99.983,240v6.276A1.69,1.69,0,0,1,97.1,247.47l-1.1-1.1V240Z" transform="translate(-72.035 -201.697)" fill="#ffceb6"/>
        <path id="Trazado_632997" data-name="Trazado 632997" d="M42.39,224.762l-1.856-3.094A3.742,3.742,0,0,1,40,219.743h0A3.743,3.743,0,0,1,43.742,216h5.816a1.593,1.593,0,0,1,0,3.186h-2.39l-1.593,2.39v3.186Z" transform="translate(-21.61 -180.087)" fill="#c47220"/>
        <path id="Trazado_632998" data-name="Trazado 632998" d="M48.692,349.541H42.146a3.186,3.186,0,0,1-2.368-1.055l-3.033-3.37v6.815H24V340.779A4.779,4.779,0,0,1,28.779,336H34.1a5.576,5.576,0,0,1,4.315,2.045l5.5,6.717h4.779Z" transform="translate(-7.203 -288.139)" fill="#ffb401"/>
        <path id="Trazado_632999" data-name="Trazado 632999" d="M272,421.576V416.8h1.593l3.186-.8,3.55,2.13a.892.892,0,0,1-.634,1.639l-2.916-.583-2.761,2.071a1.593,1.593,0,0,1-.956.319Z" transform="translate(-230.511 -360.174)" fill="#ffceb6"/>
        <path id="Trazado_633000" data-name="Trazado 633000" d="M343.169,459.186h-5.576A1.593,1.593,0,0,1,336,457.593V456h8.762v1.593A1.593,1.593,0,0,1,343.169,459.186Z" transform="translate(-288.139 -396.191)" fill="#4367e0"/>
        <path id="Trazado_633001" data-name="Trazado 633001" d="M192,248h4.779v3.983H192Z" transform="translate(-158.476 -208.901)" fill="#ffa100"/>
        <path id="Trazado_633002" data-name="Trazado 633002" d="M240,216h4.779v7.169H240Z" transform="translate(-201.697 -180.087)" fill="#ffb401"/>
        <path id="Trazado_633003" data-name="Trazado 633003" d="M288,176h4.779v11.151H288Z" transform="translate(-244.918 -144.069)" fill="#ffc431"/>
        <path id="Trazado_633004" data-name="Trazado 633004" d="M336,136h4.779v15.134H336Z" transform="translate(-288.139 -108.052)" fill="#ffcc4d"/>
        <path id="Trazado_633005" data-name="Trazado 633005" d="M384,104h4.779v18.32H384Z" transform="translate(-331.36 -79.238)" fill="#ffd873"/>
        <g id="Grupo_948176" data-name="Grupo 948176" transform="translate(32.579 19.976)">
          <circle id="Elipse_5351" data-name="Elipse 5351" cx="1.776" cy="1.776" r="1.776" transform="translate(0 10.658)" fill="#c5dafa"/>
          <ellipse id="Elipse_5352" data-name="Elipse 5352" cx="1.776" cy="1.184" rx="1.776" ry="1.184" transform="translate(8.289 5.921)" fill="#c5dafa"/>
          <circle id="Elipse_5353" data-name="Elipse 5353" cx="1.776" cy="1.776" r="1.776" transform="translate(15.394 0)" fill="#c5dafa"/>
        </g>
        <path id="Trazado_633006" data-name="Trazado 633006" d="M61.4,221.541H49.454a.8.8,0,0,0-.723.463l-2.749,5.957-3,.749h-5.9l-5.257-6.425a6.346,6.346,0,0,0-4.776-2.333v-.136a2.49,2.49,0,0,0,1.69-2.355v-4.82a2.389,2.389,0,0,0-.8-4.642H22.132a4.539,4.539,0,0,0-3.892,6.874l1.743,2.9v2.4A5.585,5.585,0,0,0,16,225.524v11.151h1.593V225.524a3.987,3.987,0,0,1,3.983-3.983H26.9a4.761,4.761,0,0,1,3.7,1.753l5.5,6.717a.8.8,0,0,0,.616.292h3.983v3.186h-5.75a2.393,2.393,0,0,1-1.776-.791l-6.219-6.911-1.184,1.066,2.982,3.313v6.509h1.593v-4.739l1.645,1.828a3.989,3.989,0,0,0,2.96,1.318h2.7a2.393,2.393,0,0,0,2.253,1.593H55.03a2.392,2.392,0,0,0,2.39-2.39v-1.418l4.706-10.2a.8.8,0,0,0-.723-1.13Zm-35.144-3.186a.887.887,0,0,1-.632-.262l-.865-.865v-2.615l1.223-1.834h1.167v4.682a.894.894,0,0,1-.893.893Zm-7.072-5.816a2.949,2.949,0,0,1,2.946-2.946h5.816a.8.8,0,0,1,0,1.593h-2.39a.8.8,0,0,0-.663.355L23.3,213.93a.8.8,0,0,0-.134.442v2.39H21.23l-1.624-2.707A2.947,2.947,0,0,1,19.186,212.539Zm2.39,5.816h2.06l.865.865a2.475,2.475,0,0,0,.961.6v.13H21.576ZM42.285,230.3h.8a.8.8,0,0,0,.193-.024l2.866-.716,3.267,1.96a.1.1,0,0,1-.068.175l-2.916-.583a.8.8,0,0,0-.634.144l-2.761,2.071a.8.8,0,0,1-.478.159h-.265Zm1.7,4.3,1.487-1.115h1.593v.8a2.378,2.378,0,0,0,.137.8H42.551A2.4,2.4,0,0,0,43.985,234.6Zm11.842-.319a.8.8,0,0,1-.8.8H49.454a.8.8,0,0,1-.8-.8v-.8h7.169Zm.287-2.39H51.02a1.669,1.669,0,0,0-.792-1.739l-2.745-1.647,2.481-5.376H60.157Z" transform="translate(0 -172.883)"/>
        <path id="Trazado_633007" data-name="Trazado 633007" d="M111.826,16H74.39A2.392,2.392,0,0,0,72,18.39V33.524h1.593V18.39a.8.8,0,0,1,.8-.8h37.437a.8.8,0,0,1,.8.8V44.675a.8.8,0,0,1-.8.8H80.762v1.593h31.064a2.392,2.392,0,0,0,2.39-2.39V18.39a2.392,2.392,0,0,0-2.39-2.39Z" transform="translate(-50.424)"/>
        <circle id="Elipse_5354" data-name="Elipse 5354" cx="0.592" cy="0.592" r="0.592" transform="translate(24.289 18.793)"/>
        <circle id="Elipse_5355" data-name="Elipse 5355" cx="0.592" cy="0.592" r="0.592" transform="translate(26.658 18.793)"/>
        <circle id="Elipse_5356" data-name="Elipse 5356" cx="0.592" cy="0.592" r="0.592" transform="translate(29.026 18.793)"/>
        <path id="Trazado_633008" data-name="Trazado 633008" d="M194.285,96h-4.779a.8.8,0,0,0-.8.8v2.39h-3.983a.8.8,0,0,0-.8.8v3.186h-3.983a.8.8,0,0,0-.8.8v3.186h-3.983a.8.8,0,0,0-.8.8v2.39H170.39a.8.8,0,0,0-.8.8v3.186H168v1.593h28.675V114.32h-1.593V96.8A.8.8,0,0,0,194.285,96Zm-23.1,15.931h3.186v2.39h-3.186Zm4.779-3.186h3.186v5.576h-3.186Zm4.779-3.983h3.186v9.558h-3.186Zm4.779-3.983h3.186V114.32h-3.186Zm7.965,13.541H190.3V97.593h3.186Z" transform="translate(-136.866 -72.035)"/>
        <path id="Trazado_633009" data-name="Trazado 633009" d="M144,62.331h3.323a2.389,2.389,0,0,0,4.539-1.492L156,57.787a2.389,2.389,0,0,0,3.739-2.755l3.626-2.672a2.388,2.388,0,0,0,3.593-1.181h4.916V49.587h-4.916a2.389,2.389,0,0,0-4.539,1.492l-3.761,2.771a2.388,2.388,0,0,0-3.469,2.556l-4.278,3.152a2.388,2.388,0,0,0-3.593,1.181H144Zm20.71-12.744a.8.8,0,1,1-.8.8A.8.8,0,0,1,164.71,49.587Zm-7.169,5.576a.8.8,0,1,1-.8.8A.8.8,0,0,1,157.541,55.163Zm-7.965,5.576a.8.8,0,1,1-.8.8A.8.8,0,0,1,149.576,60.738Z" transform="translate(-115.255 -28.808)"/>
        <path id="Trazado_633010" data-name="Trazado 633010" d="M440,64h1.593v1.593H440Z" transform="translate(-381.784 -43.221)"/>
        <path id="Trazado_633011" data-name="Trazado 633011" d="M112,176h1.593v1.593H112Z" transform="translate(-86.442 -144.069)"/>
      </g>
    </g>
    <g id="Grupo_948208" data-name="Grupo 948208" transform="translate(-10474.121 -2456.004)">
      <rect id="Rectngulo_34429-5" data-name="Rectngulo 34429" width="58" height="58" transform="translate(421 2618)" fill="none"/>
      <g id="seguro" transform="translate(426 2623)">
        <path id="Trazado_633012" data-name="Trazado 633012" d="M23.3,26.969h.734V21.828a11,11,0,0,1,16.891-9.3V10.813h-.734V4.2a2.206,2.206,0,0,0-2.2-2.2H6.406A2.206,2.206,0,0,0,4.2,4.2V26.969H21.094v1.469H2a2.206,2.206,0,0,0,2.2,2.2H21.094v.734h1.469V27.7A.734.734,0,0,1,23.3,26.969Zm2.938-15.422v1.469H17.9a.735.735,0,0,1-.693-.489,3.672,3.672,0,1,0,0,2.447.736.736,0,0,1,.693-.489h6.131v1.469H18.391a5.141,5.141,0,1,1,0-4.406h4.172V10.078h1.469v1.469h.734V10.078h1.469Zm-13.219,2.2a.734.734,0,1,1-.734-.734A.735.735,0,0,1,13.016,13.75ZM6.406,25.5a.734.734,0,0,1-.734-.734V4.2a.734.734,0,0,1,.734-.734H37.984a.734.734,0,0,1,.734.734V9.344H37.25V4.938H7.141V24.031H22.563V25.5Z" transform="translate(-0.531 -0.531)" fill="#bee7ed"/>
        <rect id="Rectngulo_34535" data-name="Rectngulo 34535" width="3" height="1" transform="translate(24 32)" fill="#bee7ed"/>
        <path id="Trazado_633013" data-name="Trazado 633013" d="M44.875,21A5.882,5.882,0,0,0,39,26.875v5.141H50.75V26.875A5.882,5.882,0,0,0,44.875,21Z" transform="translate(-10.359 -5.578)" fill="#bee7ed"/>
        <rect id="Rectngulo_34536" data-name="Rectngulo 34536" width="3" height="1" transform="translate(24 35)" fill="#bee7ed"/>
        <path id="Trazado_633014" data-name="Trazado 633014" d="M36.2,25.547a7.344,7.344,0,0,1,14.688,0v5.141h2.2V25.547a9.547,9.547,0,0,0-19.094,0v5.141h2.2Z" transform="translate(-9.031 -4.25)" fill="#45bbcc"/>
        <path id="Trazado_633015" data-name="Trazado 633015" d="M32,38v2.2h4.406a.734.734,0,0,1,.734.734v11.75a.734.734,0,0,1-.734.734H32v2.2H54.031V38ZM45.219,49v3.687a.734.734,0,0,1-.734.734H41.547a.734.734,0,0,1-.734-.734V49a3.672,3.672,0,1,1,4.406,0Z" transform="translate(-8.5 -10.094)" fill="#3795a3"/>
        <rect id="Rectngulo_34537" data-name="Rectngulo 34537" width="3" height="2" transform="translate(24 40)" fill="#bee7ed"/>
        <rect id="Rectngulo_34538" data-name="Rectngulo 34538" width="3" height="2" transform="translate(24 37)" fill="#bee7ed"/>
        <path id="Trazado_633016" data-name="Trazado 633016" d="M46.2,46A2.206,2.206,0,0,0,44,48.2a2.18,2.18,0,0,0,1.1,1.9.735.735,0,0,1,.365.634v3.345h1.469V50.733A.734.734,0,0,1,47.3,50.1a2.18,2.18,0,0,0,1.1-1.9A2.206,2.206,0,0,0,46.2,46Z" transform="translate(-11.688 -12.219)" fill="#bee7ed"/>
        <path id="Trazado_633017" data-name="Trazado 633017" d="M3.672,30.109a2.206,2.206,0,0,1-2.2-2.2H20.563V26.438H3.672V3.672a2.206,2.206,0,0,1,2.2-2.2H37.453a2.206,2.206,0,0,1,2.2,2.2v6.609h1.469V3.672A3.676,3.676,0,0,0,37.453,0H5.875A3.676,3.676,0,0,0,2.2,3.672V26.438H.734A.734.734,0,0,0,0,27.172v.734a3.676,3.676,0,0,0,3.672,3.672H20.563V30.109Z" fill="#1f2833"/>
        <path id="Trazado_633018" data-name="Trazado 633018" d="M23.891,24.563H8.469V5.469H38.578V9.875h1.469V4.734A.734.734,0,0,0,39.313,4H7.734A.734.734,0,0,0,7,4.734V25.3a.734.734,0,0,0,.734.734H23.891Z" transform="translate(-1.859 -1.063)" fill="#1f2833"/>
        <path id="Trazado_633019" data-name="Trazado 633019" d="M54.234,30.156H53.5V25.016a11.016,11.016,0,0,0-22.031,0v5.141h-.734a.734.734,0,0,0-.734.734V49.984a.734.734,0,0,0,.734.734h23.5a.734.734,0,0,0,.734-.734V30.891A.734.734,0,0,0,54.234,30.156Zm-21.3-5.141a9.547,9.547,0,0,1,19.094,0v5.141h-2.2V25.016a7.344,7.344,0,0,0-14.687,0v5.141h-2.2Zm15.422,0v5.141H36.609V25.016a5.875,5.875,0,0,1,11.75,0ZM31.469,42.641V41.172h3.672v1.469Zm3.672,1.469v1.469H31.469V44.109ZM31.469,39.7V38.234h3.672V39.7Zm0-2.937V35.3h3.672v1.469ZM53.5,49.25H31.469v-2.2h4.406a.734.734,0,0,0,.734-.734V34.563a.734.734,0,0,0-.734-.734H31.469v-2.2H53.5Z" transform="translate(-7.969 -3.719)" fill="#1f2833"/>
        <path id="Trazado_633020" data-name="Trazado 633020" d="M45.672,44a3.662,3.662,0,0,0-2.2,6.594v3.687a.734.734,0,0,0,.734.734h2.938a.734.734,0,0,0,.734-.734V50.594A3.662,3.662,0,0,0,45.672,44Zm1.1,5.567a.735.735,0,0,0-.365.634v3.345H44.938V50.2a.734.734,0,0,0-.365-.634,2.18,2.18,0,0,1-1.1-1.9,2.2,2.2,0,0,1,4.406,0A2.18,2.18,0,0,1,46.771,49.567Z" transform="translate(-11.156 -11.688)" fill="#1f2833"/>
        <path id="Trazado_633021" data-name="Trazado 633021" d="M17.141,53.344V46.734A.734.734,0,0,0,16.406,46H12.734a.734.734,0,0,0-.734.734v6.609a.734.734,0,0,0,.734.734h3.672A.734.734,0,0,0,17.141,53.344Zm-1.469-.734h-2.2V47.469h2.2Z" transform="translate(-3.188 -12.219)" fill="#1f2833"/>
        <path id="Trazado_633022" data-name="Trazado 633022" d="M6.672,52.609H5.938V46.734A.734.734,0,0,0,5.2,46H3v1.469H4.469v5.141H3v1.469H7.406a.734.734,0,0,0,.734-.734V51.875H6.672Z" transform="translate(-0.797 -12.219)" fill="#1f2833"/>
        <path id="Trazado_633023" data-name="Trazado 633023" d="M24.672,52.609h-.734V46.734A.734.734,0,0,0,23.2,46H21v1.469h1.469v5.141H21v1.469h4.406a.734.734,0,0,0,.734-.734V51.875H24.672Z" transform="translate(-5.578 -12.219)" fill="#1f2833"/>
        <rect id="Rectngulo_34539" data-name="Rectngulo 34539" width="2" height="2" transform="translate(19 43)" fill="#1f2833"/>
        <rect id="Rectngulo_34540" data-name="Rectngulo 34540" width="2" height="2" transform="translate(16 43)" fill="#1f2833"/>
        <rect id="Rectngulo_34541" data-name="Rectngulo 34541" width="2" height="2" transform="translate(13 43)" fill="#1f2833"/>
        <rect id="Rectngulo_34542" data-name="Rectngulo 34542" width="2" height="2" transform="translate(8 43)" fill="#1f2833"/>
        <rect id="Rectngulo_34543" data-name="Rectngulo 34543" width="2" height="2" transform="translate(5 43)" fill="#1f2833"/>
        <rect id="Rectngulo_34544" data-name="Rectngulo 34544" width="2" height="2" transform="translate(2 43)" fill="#1f2833"/>
        <path id="Trazado_633024" data-name="Trazado 633024" d="M27.156,13.938h-.734V12.469H24.953v1.469H20.781a5.141,5.141,0,1,0,0,4.406h5.641V16.875H20.291a.735.735,0,0,0-.693.489,3.672,3.672,0,1,1,0-2.447.736.736,0,0,0,.693.489h8.334V12.469H27.156Z" transform="translate(-2.922 -2.922)" fill="#1f2833"/>
        <ellipse id="Elipse_5357" data-name="Elipse 5357" cx="0.5" cy="1" rx="0.5" ry="1" transform="translate(11 12)" fill="#1f2833"/>
      </g>
    </g>
    <g id="Grupo_948212" data-name="Grupo 948212" transform="translate(-10474.121 -2290.453)">
      <rect id="Rectngulo_34429-6" data-name="Rectngulo 34429" width="58" height="58" transform="translate(421 2618)" fill="none"/>
      <g id="recopilacion-de-datos" transform="translate(429.389 2616.169)">
        <g id="Grupo_948185" data-name="Grupo 948185" transform="translate(-3.841 8.77)">
          <g id="Grupo_948179" data-name="Grupo 948179" transform="translate(14.989 27.563)">
            <path id="Trazado_633025" data-name="Trazado 633025" d="M171.148,305.3V317.81c0,1.7-4.328,3.077-9.667,3.077s-9.667-1.378-9.667-3.077V305.3c0-1.7,4.328-3.077,9.667-3.077S171.148,303.6,171.148,305.3Z" transform="translate(-151.813 -302.227)" fill="#ffe177" fill-rule="evenodd"/>
            <path id="Trazado_633026" data-name="Trazado 633026" d="M254.909,305.3V317.81c0,1.7-4.328,3.077-9.667,3.077q-.374,0-.742-.009c4.993-.121,8.926-1.448,8.926-3.068V305.3c0-1.62-3.933-2.947-8.926-3.068q.367-.009.742-.009C250.581,302.227,254.909,303.6,254.909,305.3Z" transform="translate(-235.574 -302.227)" fill="#ffd064" fill-rule="evenodd"/>
            <path id="Trazado_633027" data-name="Trazado 633027" d="M151.813,340.431c0,1.7,4.328,3.077,9.667,3.077s9.667-1.378,9.667-3.077v-6.253c0,1.7-4.328,3.077-9.667,3.077s-9.667-1.378-9.667-3.077Z" transform="translate(-151.813 -331.101)" fill="#ffd064" fill-rule="evenodd"/>
            <path id="Trazado_633028" data-name="Trazado 633028" d="M337.188,342.069c.939-.474,1.483-1.036,1.483-1.638v-6.253c0,.6-.544,1.164-1.483,1.638Z" transform="translate(-319.337 -331.101)" fill="#ffc338" fill-rule="evenodd"/>
          </g>
          <g id="Grupo_948180" data-name="Grupo 948180" transform="translate(0 1.823)">
            <circle id="Elipse_5358" data-name="Elipse 5358" cx="7.128" cy="7.128" r="7.128" transform="translate(0 3.935) rotate(-16.024)" fill="#8ac9fe"/>
          </g>
          <g id="Grupo_948184" data-name="Grupo 948184" transform="translate(18.139 0)">
            <g id="Grupo_948182" data-name="Grupo 948182" transform="translate(0)">
              <path id="Trazado_633029" data-name="Trazado 633029" d="M185.2,16h8.825a.651.651,0,0,1,.477.2l2.861,2.861a.651.651,0,0,1,.2.477V33.8a.676.676,0,0,1-.674.674H185.2a.676.676,0,0,1-.674-.674V16.674A.676.676,0,0,1,185.2,16Z" transform="translate(-184.523 -16)" fill="#eceff1" fill-rule="evenodd"/>
              <g id="Grupo_948181" data-name="Grupo 948181">
                <path id="Trazado_633030" data-name="Trazado 633030" d="M185.2,16h.575V34.478H185.2a.676.676,0,0,1-.674-.674V16.674A.676.676,0,0,1,185.2,16Z" transform="translate(-184.523 -16)" fill="#d1d1d6" fill-rule="evenodd"/>
                <path id="Trazado_633031" data-name="Trazado 633031" d="M286.451,19.8h2.813a.677.677,0,0,0-.139-.2l-2.861-2.861a.675.675,0,0,0-.2-.139v2.812A.386.386,0,0,0,286.451,19.8Z" transform="translate(-276.288 -16.549)" fill="#d1d1d6" fill-rule="evenodd"/>
              </g>
            </g>
            <g id="Grupo_948183" data-name="Grupo 948183" transform="translate(15.98 2.376)">
              <path id="Trazado_633032" data-name="Trazado 633032" d="M351.683,40.669h11.585a1.218,1.218,0,0,1,1.215,1.215v17.9A1.218,1.218,0,0,1,363.268,61H351.683a1.218,1.218,0,0,1-1.215-1.215v-17.9A1.218,1.218,0,0,1,351.683,40.669Z" transform="translate(-350.468 -40.669)" fill="#837683" fill-rule="evenodd"/>
              <path id="Trazado_633033" data-name="Trazado 633033" d="M363.7,40.9a1.219,1.219,0,0,1,.985,1.193v17.9a1.218,1.218,0,0,1-1.215,1.215H351.89a1.219,1.219,0,0,1-1.193-.985,1.206,1.206,0,0,0,.23.022h11.585a1.218,1.218,0,0,0,1.215-1.215v-17.9A1.207,1.207,0,0,0,363.7,40.9Z" transform="translate(-350.675 -40.876)" fill="#685e68" fill-rule="evenodd"/>
              <path id="Trazado_633034" data-name="Trazado 633034" d="M390.691,107.89a3.478,3.478,0,0,1,3.467,3.2.262.262,0,0,1-.261.283h-6.412a.262.262,0,0,1-.261-.283A3.479,3.479,0,0,1,390.691,107.89Z" transform="translate(-383.684 -101.417)" fill="#60b7ff" fill-rule="evenodd"/>
              <path id="Trazado_633035" data-name="Trazado 633035" d="M420.779,107.89a3.478,3.478,0,0,1,3.467,3.2.262.262,0,0,1-.261.283h-.523a.262.262,0,0,0,.261-.283,3.479,3.479,0,0,0-3.205-3.186Q420.647,107.89,420.779,107.89Z" transform="translate(-413.771 -101.417)" fill="#41a8fc" fill-rule="evenodd"/>
              <circle id="Elipse_5359" data-name="Elipse 5359" cx="1.759" cy="1.759" r="1.759" transform="translate(5.222 2.738) rotate(-1.203)" fill="#f6dccd"/>
              <path id="Trazado_633036" data-name="Trazado 633036" d="M421.666,68.772a1.759,1.759,0,0,1,0,3.517c-.056,0-.112,0-.167-.008a1.759,1.759,0,0,0,0-3.5Q421.581,68.772,421.666,68.772Z" transform="translate(-414.659 -66.066)" fill="#f1cbbc" fill-rule="evenodd"/>
            </g>
          </g>
        </g>
        <path id="Trazado_633037" data-name="Trazado 633037" d="M47.988,18.244a2.711,2.711,0,0,1,2.6,1.937H45.393A2.711,2.711,0,0,1,47.988,18.244Zm0-3.517a.988.988,0,1,1-.989.988A.988.988,0,0,1,47.988,14.728Zm-3.477,6.994h6.955a.77.77,0,0,0,.771-.77,4.251,4.251,0,0,0-2.218-3.731,2.529,2.529,0,1,0-4.061,0,4.251,4.251,0,0,0-2.218,3.731A.77.77,0,0,0,44.511,21.722Zm8.143,3.192a.77.77,0,0,1-.771.77H44.094a.77.77,0,1,1,0-1.541h7.789A.771.771,0,0,1,52.654,24.914Zm0,2.829a.77.77,0,0,1-.771.77H44.094a.77.77,0,1,1,0-1.541h7.789A.77.77,0,0,1,52.654,27.743Zm1.571,2.514v-17.9a.45.45,0,0,0-.444-.445H42.2a.45.45,0,0,0-.444.445v17.9a.45.45,0,0,0,.444.444H53.781A.45.45,0,0,0,54.225,30.258Zm-.444-19.883H42.2a1.988,1.988,0,0,0-1.985,1.985v17.9A1.987,1.987,0,0,0,42.2,32.242H53.781a1.987,1.987,0,0,0,1.984-1.985v-17.9a1.988,1.988,0,0,0-1.984-1.985ZM19.518,44.606a.771.771,0,0,1-.338.638l-2.723,1.848a.771.771,0,0,1-.865-1.276l.649-.439H12.2a.77.77,0,0,1-.771-.771v-14.1a.77.77,0,1,1,1.541,0V43.836H16.24l-.648-.44a.77.77,0,0,1,.865-1.275l2.723,1.848A.771.771,0,0,1,19.518,44.606ZM51.6,34.486v10.12a.77.77,0,0,1-.77.771H46.8l.648.439a.771.771,0,1,1-.865,1.276l-2.723-1.848a.77.77,0,0,1,0-1.275l2.723-1.848a.77.77,0,1,1,.865,1.275l-.648.44h3.268v-9.35a.77.77,0,0,1,1.541,0ZM32.288,29.124v2.79l.44-.648A.77.77,0,1,1,34,32.131l-1.847,2.723a.77.77,0,0,1-1.275,0l-1.847-2.723a.77.77,0,1,1,1.275-.865l.44.648v-2.79a.77.77,0,1,1,1.541,0Zm3.509-7.8a.771.771,0,0,1-.771.77H28.01a.77.77,0,1,1,0-1.541h7.017A.771.771,0,0,1,35.8,21.327Zm0-6.217a.771.771,0,0,1-.771.77H28.01a.77.77,0,1,1,0-1.541h7.017A.771.771,0,0,1,35.8,15.11ZM27.239,12a.77.77,0,0,1,.771-.77h4.34a.77.77,0,1,1,0,1.541H28.01A.77.77,0,0,1,27.239,12ZM35.8,18.218a.771.771,0,0,1-.771.771H28.01a.77.77,0,1,1,0-1.541h7.017A.771.771,0,0,1,35.8,18.218Zm0,6.217a.771.771,0,0,1-.771.771H28.01a.77.77,0,1,1,0-1.541h7.017A.771.771,0,0,1,35.8,24.435ZM25.771,9.54V26.478H37.265V12.8H34.779a.771.771,0,0,1-.77-.77V9.54Zm9.778,1.089.626.627H35.55ZM25,28.019H38.035a.771.771,0,0,0,.771-.77V12.027a.771.771,0,0,0-.225-.545L35.324,8.225A.77.77,0,0,0,34.779,8H25a.771.771,0,0,0-.771.771V27.248a.771.771,0,0,0,.771.77Zm-4.564-4.842c-.222-.113-.454-.217-.694-.312a8.812,8.812,0,0,0,.674-2.705h1.292A6.078,6.078,0,0,1,20.437,23.177ZM9.593,20.16h1.291a8.84,8.84,0,0,0,.674,2.705c-.24.1-.472.2-.694.312A6.078,6.078,0,0,1,9.593,20.16ZM10.864,15.6c.221.113.451.217.69.311a8.766,8.766,0,0,0-.672,2.707H9.593A6.085,6.085,0,0,1,10.864,15.6Zm5.557,3.018v-2a11.66,11.66,0,0,0,1.841-.254,7.209,7.209,0,0,1,.61,2.253Zm0,3.539v-2h2.448a7.282,7.282,0,0,1-.611,2.251A11.626,11.626,0,0,0,16.421,22.158Zm2.587,2.076c.079.029.158.059.235.09a5.84,5.84,0,0,1-.551.357C18.8,24.537,18.907,24.386,19.008,24.234Zm-2.587.637V23.705c.334.023.665.061.989.115A7.219,7.219,0,0,1,16.421,24.871Zm-3.812-.189a5.966,5.966,0,0,1-.551-.357c.078-.032.156-.062.235-.09C12.394,24.386,12.5,24.537,12.609,24.682Zm2.272-.976v1.165a7.214,7.214,0,0,1-.989-1.051C14.215,23.767,14.546,23.729,14.88,23.705Zm0-3.546v2a11.644,11.644,0,0,0-1.837.253,7.284,7.284,0,0,1-.611-2.251Zm0-3.539v2H12.429a7.219,7.219,0,0,1,.61-2.253A11.686,11.686,0,0,0,14.88,16.621Zm-2.59-2.077q-.118-.043-.233-.09A6.044,6.044,0,0,1,12.6,14.1c-.109.144-.213.293-.313.444Zm2.59-.638v1.167c-.335-.023-.667-.062-.992-.116A7.293,7.293,0,0,1,14.88,13.906ZM18.7,14.1a6.05,6.05,0,0,1,.545.354q-.114.046-.232.09C18.911,14.392,18.807,14.244,18.7,14.1Zm-2.277-.194a7.3,7.3,0,0,1,.992,1.052c-.325.054-.657.093-.992.116Zm5.287,4.713h-1.29a8.752,8.752,0,0,0-.672-2.707c.239-.094.47-.2.69-.311a6.086,6.086,0,0,1,1.271,3.018ZM15.651,11.74A7.649,7.649,0,1,0,23.3,19.389,7.657,7.657,0,0,0,15.651,11.74ZM33.257,51.866a.77.77,0,0,1-.77.77H30.55a.77.77,0,1,1,0-1.541h1.936A.771.771,0,0,1,33.257,51.866Zm0-6.253a.77.77,0,0,1-.77.77H30.55a.77.77,0,1,1,0-1.541h1.936A.77.77,0,0,1,33.257,45.613Zm4.864-4.762a22.7,22.7,0,0,1-6.6.865,22.7,22.7,0,0,1-6.6-.865c-1.683-.536-2.295-1.155-2.295-1.442s.611-.906,2.295-1.441a22.7,22.7,0,0,1,6.6-.865,22.7,22.7,0,0,1,6.6.865c1.684.535,2.295,1.155,2.295,1.441S39.8,40.315,38.12,40.851Zm0,6.253c1.684-.535,2.295-1.156,2.295-1.442V41.536a8.97,8.97,0,0,1-1.828.784,24.282,24.282,0,0,1-7.069.937,24.285,24.285,0,0,1-7.07-.937,8.985,8.985,0,0,1-1.828-.784v4.126c0,.286.611.906,2.295,1.442a22.677,22.677,0,0,0,6.6.866A22.675,22.675,0,0,0,38.12,47.1Zm0,6.254c1.684-.536,2.295-1.156,2.295-1.442V47.789a8.864,8.864,0,0,1-1.828.784,24.24,24.24,0,0,1-7.069.938,24.243,24.243,0,0,1-7.07-.938,8.879,8.879,0,0,1-1.828-.784v4.127c0,.286.611.905,2.295,1.442a22.708,22.708,0,0,0,6.6.865A22.707,22.707,0,0,0,38.12,53.358ZM38.587,36.5a24.249,24.249,0,0,0-7.069-.937,24.252,24.252,0,0,0-7.07.937c-2.784.886-3.368,2.071-3.368,2.91V51.916c0,.838.584,2.023,3.368,2.91a24.282,24.282,0,0,0,7.07.937,24.282,24.282,0,0,0,7.069-.937c2.784-.887,3.368-2.072,3.368-2.91V39.41C41.956,38.571,41.371,37.386,38.587,36.5Z" transform="translate(-10.702 0)" fill-rule="evenodd"/>
      </g>
    </g>
    <g id="Grupo_948216" data-name="Grupo 948216" transform="translate(-10473.699 -2128.453)">
      <rect id="Rectngulo_34429-7" data-name="Rectngulo 34429" width="58" height="58" transform="translate(421 2618)" fill="none"/>
      <g id="reporte" transform="translate(364.602 2622.935)">
        <g id="Grupo_948188" data-name="Grupo 948188" transform="translate(68.826 0.689)">
          <path id="Trazado_633038" data-name="Trazado 633038" d="M106.025,53.166H78.393a2.756,2.756,0,0,1-2.756-2.756V10.256A2.756,2.756,0,0,1,78.393,7.5H97.459l11.323,11.323V50.409a2.757,2.757,0,0,1-2.757,2.756Z" transform="translate(-75.637 -7.5)" fill="#f7f6f7"/>
          <path id="Trazado_633039" data-name="Trazado 633039" d="M379.119,130.732v31.586a2.757,2.757,0,0,1-2.757,2.756h2.757a2.757,2.757,0,0,0,2.756-2.756V130.732Z" transform="translate(-348.732 -119.409)" fill="#edebed"/>
          <path id="Trazado_633040" data-name="Trazado 633040" d="M142.922,57.691H122.886a.919.919,0,0,1-.919-.919V53.419a.919.919,0,0,1,.919-.919h20.036a.919.919,0,0,1,.919.919v3.354A.919.919,0,0,1,142.922,57.691Z" transform="translate(-117.71 -48.365)" fill="#d3ced4"/>
          <path id="Trazado_633041" data-name="Trazado 633041" d="M324.454,48.823h-8.566a2.756,2.756,0,0,1-2.756-2.756V37.5Z" transform="translate(-291.31 -34.744)" fill="#edebed"/>
          <path id="Trazado_633042" data-name="Trazado 633042" d="M324.454,18.823h-8.566a2.756,2.756,0,0,1-2.756-2.756V7.5Z" transform="translate(-291.31 -7.5)" fill="#c4bcc6"/>
          <path id="Trazado_633043" data-name="Trazado 633043" d="M127.572,166H122.61a.643.643,0,0,1-.643-.643v-4.962a.643.643,0,0,1,.643-.643h4.962a.643.643,0,0,1,.643.643v4.962A.643.643,0,0,1,127.572,166Z" transform="translate(-117.71 -145.761)" fill="#b3e59f"/>
          <path id="Trazado_633044" data-name="Trazado 633044" d="M155.723,159.75h-2.756a.643.643,0,0,1,.643.643v4.962a.643.643,0,0,1-.643.643h2.756a.643.643,0,0,0,.643-.643v-4.962A.643.643,0,0,0,155.723,159.75Z" transform="translate(-145.862 -145.761)" fill="#95d6a4"/>
          <path id="Trazado_633045" data-name="Trazado 633045" d="M127.572,279H122.61a.643.643,0,0,1-.643-.643v-4.962a.643.643,0,0,1,.643-.643h4.962a.643.643,0,0,1,.643.643v4.962A.643.643,0,0,1,127.572,279Z" transform="translate(-117.71 -248.378)" fill="#ff8086"/>
          <path id="Trazado_633046" data-name="Trazado 633046" d="M155.723,272.75h-2.756a.643.643,0,0,1,.643.643v4.962a.643.643,0,0,1-.643.643h2.756a.643.643,0,0,0,.643-.643v-4.962A.643.643,0,0,0,155.723,272.75Z" transform="translate(-145.862 -248.378)" fill="#e5646e"/>
          <path id="Trazado_633047" data-name="Trazado 633047" d="M127.572,392H122.61a.643.643,0,0,1-.643-.643v-4.962a.643.643,0,0,1,.643-.643h4.962a.643.643,0,0,1,.643.643v4.962A.643.643,0,0,1,127.572,392Z" transform="translate(-117.71 -350.996)" fill="#ffe07d"/>
          <path id="Trazado_633048" data-name="Trazado 633048" d="M155.723,385.75h-2.756a.643.643,0,0,1,.643.643v4.962a.643.643,0,0,1-.643.643h2.756a.643.643,0,0,0,.643-.643v-4.962A.643.643,0,0,0,155.723,385.75Z" transform="translate(-145.862 -350.996)" fill="#ffd064"/>
        </g>
        <path id="Trazado_633049" data-name="Trazado 633049" d="M97.35,27.128H83.466a.689.689,0,1,0,0,1.378H97.35a.689.689,0,0,0,0-1.378Zm0,10.383H83.466a.689.689,0,1,0,0,1.378H97.35a.689.689,0,0,0,0-1.378Zm0-2.756H83.466a.689.689,0,1,0,0,1.378H97.35a.689.689,0,1,0,0-1.378Zm0-10.383H83.466a.689.689,0,1,0,0,1.378H97.35a.689.689,0,1,0,0-1.378Zm4.621,2.478a.689.689,0,0,0,.689-.689V12.012a.7.7,0,0,0-.2-.487L91.135.2a.69.69,0,0,0-.487-.2H71.583a3.449,3.449,0,0,0-3.446,3.446V43.6a3.449,3.449,0,0,0,3.446,3.446H99.214A3.449,3.449,0,0,0,102.66,43.6V29.376a.689.689,0,1,0-1.378,0V43.6a2.07,2.07,0,0,1-2.067,2.067H71.583A2.07,2.07,0,0,1,69.515,43.6V3.446a2.07,2.07,0,0,1,2.067-2.067H89.959V4.135H74a1.61,1.61,0,0,0-1.608,1.608V9.1A1.61,1.61,0,0,0,74,10.7H87.569a.689.689,0,1,0,0-1.378H74a.23.23,0,0,1-.23-.23V5.743a.23.23,0,0,1,.23-.23H89.959V9.255A3.449,3.449,0,0,0,93.4,12.7h7.877V26.16A.689.689,0,0,0,101.97,26.849ZM93.4,11.323a2.07,2.07,0,0,1-2.067-2.067v-6.9l8.97,8.97H93.4ZM78.688,34.754H73.726a1.334,1.334,0,0,0-1.332,1.332v4.962a1.334,1.334,0,0,0,1.332,1.332h4.962a1.334,1.334,0,0,0,1.332-1.332V36.087A1.334,1.334,0,0,0,78.688,34.754ZM78.642,41h-4.87v-4.87h4.87ZM80.02,15.321a1.334,1.334,0,0,0-1.332-1.332H73.726a1.334,1.334,0,0,0-1.332,1.332v4.962a1.334,1.334,0,0,0,1.332,1.332h4.962a1.334,1.334,0,0,0,1.332-1.332Zm-1.378,4.916h-4.87v-4.87h4.87ZM97.35,13.989H83.466a.689.689,0,1,0,0,1.378H97.35a.689.689,0,1,0,0-1.378Zm0,2.756H83.466a.689.689,0,1,0,0,1.378H97.35a.689.689,0,1,0,0-1.378ZM80.02,25.7a1.334,1.334,0,0,0-1.332-1.332H73.726A1.334,1.334,0,0,0,72.394,25.7v4.962A1.334,1.334,0,0,0,73.726,32h4.962a1.334,1.334,0,0,0,1.332-1.332ZM78.642,30.62h-4.87V25.75h4.87Z"/>
      </g>
    </g>
  </g>
</svg>
