<svg xmlns="http://www.w3.org/2000/svg" xmlns:xlink="http://www.w3.org/1999/xlink" width="278.478" height="169.723" viewBox="0 0 278.478 169.723">
  <defs>
    <clipPath id="clip-path">
      <path id="Trazado_633697" data-name="Trazado 633697" d="M677.113,5267.4H674.7v.012l-2.168,1.476c-5.292,3.6-9.718,5.8-15.741,6.943l-3.434.653-.279,4.183c-1.221,18.31,6.54,36.854,21.123,48.113h2.82v-1.567l.135-.087c12.379-9.557,20.345-28.743,19.164-46.458l-.276-4.144-3.4-.685a39.961,39.961,0,0,1-15.535-6.783Z" transform="translate(-652.953 -5267.401)" fill="none"/>
    </clipPath>
    <linearGradient id="linear-gradient" x1="0.021" y1="1.404" x2="0.627" y2="0.26" gradientUnits="objectBoundingBox">
      <stop offset="0" stop-color="#ea6200"/>
      <stop offset="1" stop-color="#ffc045"/>
    </linearGradient>
    <clipPath id="clip-path-2">
      <path id="Trazado_633699" data-name="Trazado 633699" d="M668.118,5286.65a55.667,55.667,0,0,0,2.551,18.594c2.609,8.366,7.165,16.249,13.026,21.306,5.861-5.057,10.417-12.94,13.026-21.306a55.648,55.648,0,0,0,2.551-18.6,38.788,38.788,0,0,1-7.877-2.71,50.8,50.8,0,0,1-7.7-4.656,50.786,50.786,0,0,1-8.1,4.86,36.8,36.8,0,0,1-7.48,2.515" transform="translate(-668.079 -5279.275)" fill="none"/>
    </clipPath>
    <linearGradient id="linear-gradient-2" x1="-0.059" y1="1.386" x2="0.648" y2="0.265" xlink:href="#linear-gradient"/>
    <clipPath id="clip-path-3">
      <path id="Trazado_633700" data-name="Trazado 633700" d="M668.118,5286.65a55.667,55.667,0,0,0,2.551,18.594c2.609,8.366,7.165,16.249,13.026,21.306h0v-47.276a50.786,50.786,0,0,1-8.1,4.86,36.8,36.8,0,0,1-7.48,2.515" transform="translate(-668.079 -5279.275)" fill="none"/>
    </clipPath>
    <linearGradient id="linear-gradient-3" x1="-0.374" y1="0.892" x2="1.117" y2="0.223" xlink:href="#linear-gradient"/>
    <clipPath id="clip-path-4">
      <path id="Trazado_633701" data-name="Trazado 633701" d="M692.921,5282.66v42.875c5.225-4.855,9.3-12.089,11.681-19.729a53.753,53.753,0,0,0,2.484-16.357,39.473,39.473,0,0,1-6.966-2.51,50.388,50.388,0,0,1-7.2-4.279" transform="translate(-692.92 -5282.66)" fill="none"/>
    </clipPath>
    <linearGradient id="linear-gradient-4" x1="-0.618" y1="0.994" x2="1.816" y2="-0.082" xlink:href="#linear-gradient"/>
  </defs>
  <g id="Grupo_949988" data-name="Grupo 949988" transform="translate(-289.702 -5206.75)">
    <path id="Trazado_633605" data-name="Trazado 633605" d="M420.718,5212.614c-14.106,4.845-27.516,15.219-38.077,24.893-21.995,20.142-25.276,24.377-52.411,41.288-15.814,9.855-28.282,18.191-34.425,29.34-17.257,31.316,3.3,65.139,46.367,65.139H517.256s20.6.43,35.624-16.308c50.937-56.73-33.547-178.228-132.162-144.351" transform="translate(0 0)" fill="#e0feec" fill-rule="evenodd"/>
    <path id="Trazado_633606" data-name="Trazado 633606" d="M329.9,5258.579H487.514a5.355,5.355,0,0,1,5.211,5.459v101.437a5.355,5.355,0,0,1-5.211,5.458H329.9a5.355,5.355,0,0,1-5.211-5.458V5264.038a5.355,5.355,0,0,1,5.211-5.459" transform="translate(-12.993 -19.248)" fill="#b1d2fc" fill-rule="evenodd"/>
    <path id="Trazado_633607" data-name="Trazado 633607" d="M431.584,5434.209c-.611,12.321-2.228,15.437-13.432,22.458H467.82c-11.2-7.021-12.821-10.137-13.432-22.458l-11.4-1Z" transform="translate(-47.701 -84.098)" fill="#b1d2fc" fill-rule="evenodd"/>
    <path id="Trazado_633608" data-name="Trazado 633608" d="M332.23,5268.727H490.507a.122.122,0,0,1,.118.124v89.795H332.112v-89.795a.122.122,0,0,1,.118-.124" transform="translate(-15.749 -23.016)" fill="#fff"/>
    <path id="Trazado_633609" data-name="Trazado 633609" d="M456.149,5419.115a3.707,3.707,0,1,1-3.707,3.707,3.707,3.707,0,0,1,3.707-3.707" transform="translate(-60.435 -78.864)" fill="#e7eff9" fill-rule="evenodd"/>
    <rect id="Rectángulo_34632" data-name="Rectángulo 34632" width="23.577" height="3.509" transform="translate(383.489 5351.686)" fill="#7ba9e3"/>
    <path id="Trazado_633610" data-name="Trazado 633610" d="M332.117,5266.686h158.46a.036.036,0,0,1,.036.035v91.131a.036.036,0,0,1-.036.036H332.117a.036.036,0,0,1-.036-.036v-91.131a.036.036,0,0,1,.036-.035" transform="translate(-15.738 -22.258)" fill="#355298" fill-rule="evenodd"/>
    <path id="Trazado_633611" data-name="Trazado 633611" d="M435.029,5397.529h46.337a.872.872,0,0,0,.869-.87h0a.872.872,0,0,0-.869-.869H435.029a.872.872,0,0,0-.869.869h0a.872.872,0,0,0,.869.87" transform="translate(-53.646 -70.202)" fill="#eb6502" fill-rule="evenodd"/>
    <path id="Trazado_633612" data-name="Trazado 633612" d="M427.072,5391.509h11.489a.872.872,0,0,0,.869-.87h0a.872.872,0,0,0-.869-.869H427.072a.872.872,0,0,0-.869.869h0a.872.872,0,0,0,.869.87" transform="translate(-50.691 -67.967)" fill="#fff" fill-rule="evenodd"/>
    <path id="Trazado_633613" data-name="Trazado 633613" d="M435.029,5385.488h17.158a.872.872,0,0,0,.869-.87h0a.872.872,0,0,0-.869-.869H435.029a.872.872,0,0,0-.869.869h0a.872.872,0,0,0,.869.87" transform="translate(-53.646 -65.731)" fill="#fff" fill-rule="evenodd"/>
    <path id="Trazado_633614" data-name="Trazado 633614" d="M435.118,5379.468h14.1a.872.872,0,0,0,.869-.87h0a.872.872,0,0,0-.869-.869h-14.1a.872.872,0,0,0-.869.869h0a.872.872,0,0,0,.869.87" transform="translate(-53.679 -63.495)" fill="#fff" fill-rule="evenodd"/>
    <path id="Trazado_633615" data-name="Trazado 633615" d="M435.118,5373.447h42.5a.869.869,0,1,0,0-1.739h-42.5a.869.869,0,1,0,0,1.739" transform="translate(-53.679 -61.259)" fill="#fff" fill-rule="evenodd"/>
    <path id="Trazado_633616" data-name="Trazado 633616" d="M470.482,5385.488h11.266a.872.872,0,0,0,.869-.87h0a.872.872,0,0,0-.869-.869H470.482a.872.872,0,0,0-.869.869h0a.872.872,0,0,0,.869.87" transform="translate(-66.812 -65.731)" fill="#fff" fill-rule="evenodd"/>
    <path id="Trazado_633617" data-name="Trazado 633617" d="M463.807,5379.468H497a.872.872,0,0,0,.869-.87h0a.872.872,0,0,0-.869-.869H463.807a.872.872,0,0,0-.869.869h0a.872.872,0,0,0,.869.87" transform="translate(-64.333 -63.495)" fill="#eb6502" fill-rule="evenodd"/>
    <path id="Trazado_633618" data-name="Trazado 633618" d="M524.28,5379.468H533.3a.872.872,0,0,0,.869-.87h0a.872.872,0,0,0-.869-.869H524.28a.872.872,0,0,0-.869.869h0a.872.872,0,0,0,.869.87" transform="translate(-86.79 -63.495)" fill="#6cd6ff" fill-rule="evenodd"/>
    <path id="Trazado_633619" data-name="Trazado 633619" d="M545.764,5379.468h9.016a.872.872,0,0,0,.869-.87h0a.872.872,0,0,0-.869-.869h-9.016a.872.872,0,0,0-.869.869h0a.872.872,0,0,0,.869.87" transform="translate(-94.768 -63.495)" fill="#ffca05" fill-rule="evenodd"/>
    <path id="Trazado_633620" data-name="Trazado 633620" d="M427.072,5367.386h11.489a.871.871,0,0,0,.869-.87h0a.872.872,0,0,0-.869-.869H427.072a.872.872,0,0,0-.869.869h0a.872.872,0,0,0,.869.87" transform="translate(-50.691 -59.008)" fill="#fff" fill-rule="evenodd"/>
    <path id="Trazado_633621" data-name="Trazado 633621" d="M435.029,5314.47h17.158a.869.869,0,1,0,0-1.739H435.029a.869.869,0,0,0,0,1.739" transform="translate(-53.646 -39.357)" fill="#fff" fill-rule="evenodd"/>
    <path id="Trazado_633622" data-name="Trazado 633622" d="M435.118,5308.449h14.1a.869.869,0,1,0,0-1.739h-14.1a.869.869,0,1,0,0,1.739" transform="translate(-53.679 -37.122)" fill="#fff" fill-rule="evenodd"/>
    <path id="Trazado_633623" data-name="Trazado 633623" d="M435.118,5302.429h42.5a.872.872,0,0,0,.869-.869h0a.872.872,0,0,0-.869-.87h-42.5a.872.872,0,0,0-.869.87h0a.872.872,0,0,0,.869.869" transform="translate(-53.679 -34.886)" fill="#6cd6ff" fill-rule="evenodd"/>
    <path id="Trazado_633624" data-name="Trazado 633624" d="M470.482,5314.47h11.266a.869.869,0,1,0,0-1.739H470.482a.869.869,0,1,0,0,1.739" transform="translate(-66.812 -39.357)" fill="#fff" fill-rule="evenodd"/>
    <path id="Trazado_633625" data-name="Trazado 633625" d="M463.807,5308.449H497a.869.869,0,1,0,0-1.739H463.807a.869.869,0,1,0,0,1.739" transform="translate(-64.333 -37.122)" fill="#c5579f" fill-rule="evenodd"/>
    <path id="Trazado_633626" data-name="Trazado 633626" d="M524.28,5308.449H533.3a.869.869,0,1,0,0-1.739H524.28a.869.869,0,1,0,0,1.739" transform="translate(-86.79 -37.122)" fill="#ffca05" fill-rule="evenodd"/>
    <path id="Trazado_633627" data-name="Trazado 633627" d="M545.764,5308.449h9.016a.869.869,0,1,0,0-1.739h-9.016a.869.869,0,1,0,0,1.739" transform="translate(-94.768 -37.122)" fill="#fff" fill-rule="evenodd"/>
    <path id="Trazado_633628" data-name="Trazado 633628" d="M435.47,5359.342h11.489a.872.872,0,0,0,.869-.87h0a.872.872,0,0,0-.869-.869H435.47a.872.872,0,0,0-.869.869h0a.873.873,0,0,0,.869.87" transform="translate(-53.81 -56.021)" fill="#fff" fill-rule="evenodd"/>
    <path id="Trazado_633629" data-name="Trazado 633629" d="M435.029,5353.321h17.158a.869.869,0,1,0,0-1.739H435.029a.869.869,0,0,0,0,1.739" transform="translate(-53.646 -53.785)" fill="#fff" fill-rule="evenodd"/>
    <path id="Trazado_633630" data-name="Trazado 633630" d="M435.118,5347.3h14.1a.872.872,0,0,0,.869-.87h0a.873.873,0,0,0-.869-.87h-14.1a.872.872,0,0,0-.869.87h0a.872.872,0,0,0,.869.87" transform="translate(-53.679 -51.549)" fill="#fff" fill-rule="evenodd"/>
    <path id="Trazado_633631" data-name="Trazado 633631" d="M435.118,5341.28H453.57a.872.872,0,0,0,.869-.869h0a.872.872,0,0,0-.869-.87H435.118a.872.872,0,0,0-.869.87h0a.872.872,0,0,0,.869.869" transform="translate(-53.679 -49.314)" fill="#ffca05" fill-rule="evenodd"/>
    <path id="Trazado_633632" data-name="Trazado 633632" d="M470.482,5353.321h11.266a.869.869,0,1,0,0-1.739H470.482a.869.869,0,1,0,0,1.739" transform="translate(-66.812 -53.785)" fill="#fff" fill-rule="evenodd"/>
    <path id="Trazado_633633" data-name="Trazado 633633" d="M463.807,5347.3H497a.872.872,0,0,0,.869-.87h0a.872.872,0,0,0-.869-.87H463.807a.872.872,0,0,0-.869.87h0a.872.872,0,0,0,.869.87" transform="translate(-64.333 -51.549)" fill="#f48120" fill-rule="evenodd"/>
    <path id="Trazado_633634" data-name="Trazado 633634" d="M524.28,5347.3H533.3a.872.872,0,0,0,.869-.87h0a.873.873,0,0,0-.869-.87H524.28a.873.873,0,0,0-.869.87h0a.872.872,0,0,0,.869.87" transform="translate(-86.79 -51.549)" fill="#fff" fill-rule="evenodd"/>
    <path id="Trazado_633635" data-name="Trazado 633635" d="M545.764,5347.3h9.016a.872.872,0,0,0,.869-.87h0a.873.873,0,0,0-.869-.87h-9.016a.873.873,0,0,0-.869.87h0a.872.872,0,0,0,.869.87" transform="translate(-94.768 -51.549)" fill="#fff" fill-rule="evenodd"/>
    <path id="Trazado_633636" data-name="Trazado 633636" d="M456.557,5296.2H489.75a.87.87,0,0,0,0-1.74H456.557a.87.87,0,0,0,0,1.74" transform="translate(-61.64 -32.572)" fill="#fff" fill-rule="evenodd"/>
    <path id="Trazado_633637" data-name="Trazado 633637" d="M517.031,5296.2h9.015a.87.87,0,0,0,0-1.74h-9.015a.87.87,0,0,0,0,1.74" transform="translate(-84.098 -32.572)" fill="#fff" fill-rule="evenodd"/>
    <path id="Trazado_633638" data-name="Trazado 633638" d="M538.515,5296.2h9.015a.87.87,0,0,0,0-1.74h-9.015a.87.87,0,0,0,0,1.74" transform="translate(-92.076 -32.572)" fill="#fff" fill-rule="evenodd"/>
    <path id="Trazado_633639" data-name="Trazado 633639" d="M456.557,5290.505h14.6a.872.872,0,0,0,.869-.87h0a.872.872,0,0,0-.869-.87h-14.6a.873.873,0,0,0-.869.87h0a.873.873,0,0,0,.869.87" transform="translate(-61.64 -30.458)" fill="#c5579f" fill-rule="evenodd"/>
    <path id="Trazado_633640" data-name="Trazado 633640" d="M487.59,5290.505h22.826a.872.872,0,0,0,.869-.87h0a.872.872,0,0,0-.869-.87H487.59a.872.872,0,0,0-.869.87h0a.872.872,0,0,0,.869.87" transform="translate(-73.165 -30.458)" fill="#eb6502" fill-rule="evenodd"/>
    <path id="Trazado_633641" data-name="Trazado 633641" d="M532.877,5290.505h19.256a.873.873,0,0,0,.869-.87h0a.872.872,0,0,0-.869-.87H532.877a.873.873,0,0,0-.869.87h0a.873.873,0,0,0,.869.87" transform="translate(-89.983 -30.458)" fill="#fff" fill-rule="evenodd"/>
    <path id="Trazado_633642" data-name="Trazado 633642" d="M456.557,5335.273H489.75a.872.872,0,0,0,.869-.87h0a.872.872,0,0,0-.869-.869H456.557a.872.872,0,0,0-.869.869h0a.872.872,0,0,0,.869.87" transform="translate(-61.64 -47.083)" fill="#fff" fill-rule="evenodd"/>
    <path id="Trazado_633643" data-name="Trazado 633643" d="M517.031,5335.273h9.015a.871.871,0,0,0,.869-.87h0a.872.872,0,0,0-.869-.869h-9.015a.872.872,0,0,0-.869.869h0a.872.872,0,0,0,.869.87" transform="translate(-84.098 -47.083)" fill="#fff" fill-rule="evenodd"/>
    <path id="Trazado_633644" data-name="Trazado 633644" d="M538.515,5335.273h9.015a.871.871,0,0,0,.869-.87h0a.872.872,0,0,0-.869-.869h-9.015a.872.872,0,0,0-.869.869h0a.872.872,0,0,0,.869.87" transform="translate(-92.076 -47.083)" fill="#fff" fill-rule="evenodd"/>
    <path id="Trazado_633645" data-name="Trazado 633645" d="M456.557,5328.887h14.6a.872.872,0,0,0,.869-.87h0a.872.872,0,0,0-.869-.87h-14.6a.873.873,0,0,0-.869.87h0a.873.873,0,0,0,.869.87" transform="translate(-61.64 -44.711)" fill="#fff" fill-rule="evenodd"/>
    <path id="Trazado_633646" data-name="Trazado 633646" d="M487.59,5328.887h22.826a.872.872,0,0,0,.869-.87h0a.872.872,0,0,0-.869-.87H487.59a.872.872,0,0,0-.869.87h0a.872.872,0,0,0,.869.87" transform="translate(-73.165 -44.711)" fill="#fff" fill-rule="evenodd"/>
    <path id="Trazado_633647" data-name="Trazado 633647" d="M532.877,5328.887h19.256a.873.873,0,0,0,.869-.87h0a.872.872,0,0,0-.869-.87H532.877a.873.873,0,0,0-.869.87h0a.873.873,0,0,0,.869.87" transform="translate(-89.983 -44.711)" fill="#fff" fill-rule="evenodd"/>
    <rect id="Rectángulo_34633" data-name="Rectángulo 34633" width="28.084" height="80.047" transform="translate(323.284 5250.616)" fill="#031542"/>
    <path id="Trazado_633648" data-name="Trazado 633648" d="M470.5,5341.28h10a.872.872,0,0,0,.869-.869h0a.872.872,0,0,0-.869-.87h-10a.872.872,0,0,0-.869.87h0a.872.872,0,0,0,.869.869" transform="translate(-66.819 -49.314)" fill="#f48120" fill-rule="evenodd"/>
    <path id="Trazado_633649" data-name="Trazado 633649" d="M491.653,5341.28h10a.872.872,0,0,0,.869-.869h0a.872.872,0,0,0-.869-.87h-10a.872.872,0,0,0-.87.87h0a.872.872,0,0,0,.87.869" transform="translate(-74.673 -49.314)" fill="#f48120" fill-rule="evenodd"/>
    <path id="Trazado_633650" data-name="Trazado 633650" d="M427.072,5322.029h14.749a.872.872,0,0,0,.869-.87h0a.872.872,0,0,0-.869-.869H427.072a.872.872,0,0,0-.869.869h0a.872.872,0,0,0,.869.87" transform="translate(-50.691 -42.165)" fill="#fff" fill-rule="evenodd"/>
    <path id="Trazado_633651" data-name="Trazado 633651" d="M456.565,5322.029h10a.872.872,0,0,0,.869-.87h0a.872.872,0,0,0-.869-.869h-10a.872.872,0,0,0-.869.869h0a.872.872,0,0,0,.869.87" transform="translate(-61.643 -42.165)" fill="#fff" fill-rule="evenodd"/>
    <path id="Trazado_633652" data-name="Trazado 633652" d="M479.3,5322.029h10a.873.873,0,0,0,.869-.87h0a.872.872,0,0,0-.869-.869h-10a.872.872,0,0,0-.869.869h0a.872.872,0,0,0,.869.87" transform="translate(-70.086 -42.165)" fill="#fff" fill-rule="evenodd"/>
    <path id="Trazado_633653" data-name="Trazado 633653" d="M355.637,5365.3h6.4a.842.842,0,0,0,.839-.84h0a.841.841,0,0,0-.839-.839h-6.4a.841.841,0,0,0-.839.839h0a.842.842,0,0,0,.839.84" transform="translate(-24.174 -58.256)" fill="#e8f6fd" fill-rule="evenodd"/>
    <path id="Trazado_633654" data-name="Trazado 633654" d="M349.626,5358.688h16.689a.842.842,0,0,0,.839-.839h0a.842.842,0,0,0-.839-.84H349.626a.842.842,0,0,0-.839.84h0a.842.842,0,0,0,.839.839" transform="translate(-21.942 -55.8)" fill="#e8f6fd" fill-rule="evenodd"/>
    <path id="Trazado_633655" data-name="Trazado 633655" d="M349.626,5351.688h12.753a.842.842,0,0,0,.839-.839h0a.842.842,0,0,0-.839-.84H349.626a.842.842,0,0,0-.839.84h0a.842.842,0,0,0,.839.839" transform="translate(-21.942 -53.201)" fill="#e8f6fd" fill-rule="evenodd"/>
    <path id="Trazado_633656" data-name="Trazado 633656" d="M355.637,5344.688h12.728a.842.842,0,0,0,.839-.839h0a.841.841,0,0,0-.839-.839H355.637a.842.842,0,0,0-.839.839h0a.842.842,0,0,0,.839.839" transform="translate(-24.174 -50.601)" fill="#e8f6fd" fill-rule="evenodd"/>
    <path id="Trazado_633657" data-name="Trazado 633657" d="M355.637,5337.688h4.153a.842.842,0,0,0,.84-.839h0a.842.842,0,0,0-.84-.839h-4.153a.842.842,0,0,0-.839.839h0a.842.842,0,0,0,.839.839" transform="translate(-24.174 -48.002)" fill="#e8f6fd" fill-rule="evenodd"/>
    <path id="Trazado_633658" data-name="Trazado 633658" d="M349.626,5330.689h12.109a.842.842,0,0,0,.839-.839h0a.842.842,0,0,0-.839-.84H349.626a.842.842,0,0,0-.839.84h0a.842.842,0,0,0,.839.839" transform="translate(-21.942 -45.403)" fill="#e8f6fd" fill-rule="evenodd"/>
    <path id="Trazado_633659" data-name="Trazado 633659" d="M355.524,5323.69h3.42a.842.842,0,0,0,.839-.839h0a.841.841,0,0,0-.839-.839h-3.42a.841.841,0,0,0-.839.839h0a.842.842,0,0,0,.839.839" transform="translate(-24.132 -42.804)" fill="#e8f6fd" fill-rule="evenodd"/>
    <path id="Trazado_633660" data-name="Trazado 633660" d="M354.829,5316.69h13.418a.843.843,0,0,0,.839-.84h0a.842.842,0,0,0-.839-.839H354.829a.842.842,0,0,0-.839.839h0a.843.843,0,0,0,.839.84" transform="translate(-23.874 -40.204)" fill="#e8f6fd" fill-rule="evenodd"/>
    <path id="Trazado_633661" data-name="Trazado 633661" d="M349.626,5309.69h10.7a.842.842,0,0,0,.839-.839h0a.841.841,0,0,0-.839-.839h-10.7a.842.842,0,0,0-.839.839h0a.842.842,0,0,0,.839.839" transform="translate(-21.942 -37.605)" fill="#e8f6fd" fill-rule="evenodd"/>
    <path id="Trazado_633662" data-name="Trazado 633662" d="M354.829,5302.691h13.418a.841.841,0,0,0,.839-.839h0a.842.842,0,0,0-.839-.839H354.829a.842.842,0,0,0-.839.839h0a.841.841,0,0,0,.839.839" transform="translate(-23.874 -35.006)" fill="#e8f6fd" fill-rule="evenodd"/>
    <path id="Trazado_633663" data-name="Trazado 633663" d="M354.829,5295.691h8.236a.842.842,0,0,0,.84-.839h0a.842.842,0,0,0-.84-.841h-8.236a.842.842,0,0,0-.839.841h0a.842.842,0,0,0,.839.839" transform="translate(-23.874 -32.406)" fill="#e8f6fd" fill-rule="evenodd"/>
    <path id="Trazado_633664" data-name="Trazado 633664" d="M349.626,5288.691h5.963a.841.841,0,0,0,.839-.839h0a.841.841,0,0,0-.839-.839h-5.963a.841.841,0,0,0-.839.839h0a.842.842,0,0,0,.839.839" transform="translate(-21.942 -29.807)" fill="#e8f6fd" fill-rule="evenodd"/>
    <path id="Trazado_633665" data-name="Trazado 633665" d="M355.637,5371.484h6.4a.842.842,0,0,0,.839-.839h0a.842.842,0,0,0-.839-.84h-6.4a.842.842,0,0,0-.839.84h0a.842.842,0,0,0,.839.839" transform="translate(-24.174 -60.553)" fill="#e8f6fd" fill-rule="evenodd"/>
    <path id="Trazado_633666" data-name="Trazado 633666" d="M349.626,5377.669h16.131a.842.842,0,0,0,.84-.84h0a.842.842,0,0,0-.84-.839H349.626a.842.842,0,0,0-.839.839h0a.842.842,0,0,0,.839.84" transform="translate(-21.942 -62.849)" fill="#e8f6fd" fill-rule="evenodd"/>
    <path id="Trazado_633667" data-name="Trazado 633667" d="M355.637,5383.854h6.4a.842.842,0,0,0,.839-.84h0a.842.842,0,0,0-.839-.839h-6.4a.842.842,0,0,0-.839.839h0a.842.842,0,0,0,.839.84" transform="translate(-24.174 -65.146)" fill="#e8f6fd" fill-rule="evenodd"/>
    <path id="Trazado_633668" data-name="Trazado 633668" d="M435.118,5296.2h9.431a.87.87,0,0,0,0-1.74h-9.431a.87.87,0,0,0,0,1.74" transform="translate(-53.679 -32.572)" fill="#fff" fill-rule="evenodd"/>
    <path id="Trazado_633669" data-name="Trazado 633669" d="M420.114,5290.505H438.7a.873.873,0,0,0,.869-.87h0a.873.873,0,0,0-.869-.87H420.114a.873.873,0,0,0-.869.87h0a.873.873,0,0,0,.869.87" transform="translate(-48.107 -30.458)" fill="#fff" fill-rule="evenodd"/>
    <path id="Trazado_633670" data-name="Trazado 633670" d="M420.114,5283.457H444.54a.872.872,0,0,0,.869-.87h0a.872.872,0,0,0-.869-.87H420.114a.872.872,0,0,0-.869.87h0a.872.872,0,0,0,.869.87" transform="translate(-48.107 -27.84)" fill="#fff" fill-rule="evenodd"/>
    <path id="Trazado_633671" data-name="Trazado 633671" d="M404.164,5283.457H405.2a.872.872,0,0,0,.869-.87h0a.872.872,0,0,0-.869-.87h-1.039a.872.872,0,0,0-.869.87h0a.872.872,0,0,0,.869.87" transform="translate(-42.184 -27.84)" fill="#b1cbef" fill-rule="evenodd"/>
    <path id="Trazado_633672" data-name="Trazado 633672" d="M404.164,5290.505H405.2a.873.873,0,0,0,.869-.87h0a.873.873,0,0,0-.869-.87h-1.039a.872.872,0,0,0-.869.87h0a.872.872,0,0,0,.869.87" transform="translate(-42.184 -30.458)" fill="#b1cbef" fill-rule="evenodd"/>
    <path id="Trazado_633673" data-name="Trazado 633673" d="M403.9,5314.47h.922a.869.869,0,1,0,0-1.739H403.9a.869.869,0,1,0,0,1.739" transform="translate(-42.084 -39.357)" fill="#b1cbef" fill-rule="evenodd"/>
    <path id="Trazado_633674" data-name="Trazado 633674" d="M403.983,5308.449h.866a.869.869,0,0,0,0-1.739h-.866a.869.869,0,1,0,0,1.739" transform="translate(-42.117 -37.122)" fill="#b1cbef" fill-rule="evenodd"/>
    <path id="Trazado_633675" data-name="Trazado 633675" d="M403.983,5302.429h.866a.872.872,0,0,0,.869-.869h0a.872.872,0,0,0-.869-.87h-.866a.872.872,0,0,0-.869.87h0a.872.872,0,0,0,.869.869" transform="translate(-42.117 -34.886)" fill="#b1cbef" fill-rule="evenodd"/>
    <path id="Trazado_633676" data-name="Trazado 633676" d="M403.983,5296.2h.866a.87.87,0,0,0,0-1.74h-.866a.87.87,0,0,0,0,1.74" transform="translate(-42.117 -32.572)" fill="#b1cbef" fill-rule="evenodd"/>
    <path id="Trazado_633677" data-name="Trazado 633677" d="M404.069,5335.273h.812a.872.872,0,0,0,.869-.87h0a.872.872,0,0,0-.869-.869h-.812a.872.872,0,0,0-.869.869h0a.871.871,0,0,0,.869.87" transform="translate(-42.149 -47.083)" fill="#b1cbef" fill-rule="evenodd"/>
    <path id="Trazado_633678" data-name="Trazado 633678" d="M404.069,5328.887h.812a.873.873,0,0,0,.869-.87h0a.873.873,0,0,0-.869-.87h-.812a.872.872,0,0,0-.869.87h0a.872.872,0,0,0,.869.87" transform="translate(-42.149 -44.711)" fill="#b1cbef" fill-rule="evenodd"/>
    <path id="Trazado_633679" data-name="Trazado 633679" d="M404.077,5322.029h.807a.873.873,0,0,0,.869-.87h0a.872.872,0,0,0-.869-.869h-.807a.872.872,0,0,0-.869.869h0a.872.872,0,0,0,.869.87" transform="translate(-42.151 -42.165)" fill="#b1cbef" fill-rule="evenodd"/>
    <path id="Trazado_633680" data-name="Trazado 633680" d="M404.524,5359.342h.526a.873.873,0,0,0,.869-.87h0a.872.872,0,0,0-.869-.869h-.526a.872.872,0,0,0-.869.869h0a.872.872,0,0,0,.869.87" transform="translate(-42.318 -56.021)" fill="#b1cbef" fill-rule="evenodd"/>
    <path id="Trazado_633681" data-name="Trazado 633681" d="M404.069,5353.321h.812a.869.869,0,1,0,0-1.739h-.812a.869.869,0,1,0,0,1.739" transform="translate(-42.149 -53.785)" fill="#b1cbef" fill-rule="evenodd"/>
    <path id="Trazado_633682" data-name="Trazado 633682" d="M404.16,5347.3h.755a.872.872,0,0,0,.869-.87h0a.873.873,0,0,0-.869-.87h-.755a.872.872,0,0,0-.869.87h0a.872.872,0,0,0,.869.87" transform="translate(-42.182 -51.549)" fill="#b1cbef" fill-rule="evenodd"/>
    <path id="Trazado_633683" data-name="Trazado 633683" d="M404.16,5341.28h.755a.872.872,0,0,0,.869-.869h0a.872.872,0,0,0-.869-.87h-.755a.872.872,0,0,0-.869.87h0a.872.872,0,0,0,.869.869" transform="translate(-42.182 -49.314)" fill="#b1cbef" fill-rule="evenodd"/>
    <path id="Trazado_633684" data-name="Trazado 633684" d="M404.681,5391.509h.427a.872.872,0,0,0,.869-.87h0a.872.872,0,0,0-.869-.869h-.427a.872.872,0,0,0-.869.869h0a.872.872,0,0,0,.869.87" transform="translate(-42.376 -67.967)" fill="#b1cbef" fill-rule="evenodd"/>
    <path id="Trazado_633685" data-name="Trazado 633685" d="M404.681,5385.488h.427a.872.872,0,0,0,.869-.87h0a.872.872,0,0,0-.869-.869h-.427a.872.872,0,0,0-.869.869h0a.872.872,0,0,0,.869.87" transform="translate(-42.376 -65.731)" fill="#b1cbef" fill-rule="evenodd"/>
    <path id="Trazado_633686" data-name="Trazado 633686" d="M404.625,5379.468h.463a.872.872,0,0,0,.869-.87h0a.872.872,0,0,0-.869-.869h-.463a.872.872,0,0,0-.869.869h0a.872.872,0,0,0,.869.87" transform="translate(-42.355 -63.495)" fill="#b1cbef" fill-rule="evenodd"/>
    <path id="Trazado_633687" data-name="Trazado 633687" d="M404.524,5373.447h.526a.869.869,0,1,0,0-1.739h-.526a.869.869,0,1,0,0,1.739" transform="translate(-42.318 -61.259)" fill="#b1cbef" fill-rule="evenodd"/>
    <path id="Trazado_633688" data-name="Trazado 633688" d="M404.524,5367.386h.526a.872.872,0,0,0,.869-.87h0a.872.872,0,0,0-.869-.869h-.526a.872.872,0,0,0-.869.869h0a.871.871,0,0,0,.869.87" transform="translate(-42.318 -59.008)" fill="#b1cbef" fill-rule="evenodd"/>
    <path id="Trazado_633689" data-name="Trazado 633689" d="M621.613,5352.883c1.835,8.052,12.128,26.8,12.194,36.03.068,9.581-.639,15.491-1.24,24.6-.109,1.645.165,3.658,1.938,4.623,1.62.886,4.857,1.611,5.815,2.528.691.661,3.337,4.405-6.132,4.156-6.726-.177-8.329-.646-9.05-1.736-.055-.085-2.009-14.476-2.846-29.23-.3-5.352-13.044-22.792-13.929-24.257-.586,2.617-8.712,23.783-15.976,30.858a273.583,273.583,0,0,1-20.943,18.295c.111.811-.489,1.438.71,2.776.367,1.313,1.245,3.623-5.276,3.565s-4.7-4.431-4.727-4.828c1.2-8.31,11.027-17.966,20.492-26.823,6.347-5.94,7.553-32.9,8.23-41.855,0,0,8.677-.124,13.407-2.8,7.189-4.061,11.629-20.581,10.285-3.578-.251,3.187,5.927,3.274,7.047,7.669" transform="translate(-101.097 -48.623)" fill="#355298" fill-rule="evenodd"/>
    <path id="Trazado_633690" data-name="Trazado 633690" d="M637.279,5300.281c2.573,4.772,6.88,9.367,9.977,15.159,2.2,4.11,11.2-3.476,13.472-2.667,1.88.668,4.177-3.67,4.07-6.824.465-1.131-10.215,6-11.877,1.61-3.708-9.8-8.466-16.56-14.735-17.946-.708-.4-3.073,7.763-.907,10.667" transform="translate(-128.745 -30.767)" fill="#1d89e8" fill-rule="evenodd"/>
    <path id="Trazado_633691" data-name="Trazado 633691" d="M590.444,5310.111c1.391,6.124,2.534,21.883,2.526,32.444,12.792,1.487,25.952,0,33.39-2.825-.81-8.345-.522-48.61-13.061-50.594-8.512-1.894-19.717-.539-24.113,4.294-6.386,5.073-12.985,16.979-16.162,24.438a53.814,53.814,0,0,0-3.651,16.807c.236,3.074,3.031,3.257,4.53,2.535,1.689-.814,1.69-7.888,6.765-15.793,2.821-4.394,7.737-8.887,9.775-11.306" transform="translate(-103.857 -30.29)" fill="#239df8" fill-rule="evenodd"/>
    <path id="Trazado_633692" data-name="Trazado 633692" d="M602.894,5321.062c1.329,6.231,2.263,19.613,2.458,27.514,2.874-8.42.671-27.486-.154-30.773-1.049,1.692-1.519,1.356-2.3,3.26" transform="translate(-116.307 -41.241)" fill="#1d89e8" fill-rule="evenodd"/>
    <path id="Trazado_633693" data-name="Trazado 633693" d="M625.9,5270.771a8.216,8.216,0,0,1-3.324,4l.188,2.575.393.3c1.554,1.494.14,4.813-1.539,4.8-4.219.438-7.655-2.854-6.486-4.806l.519-.645-.076-3.655c-.219,0-1.857-.817-2.338-.937a2.457,2.457,0,0,1-1.323-1.953c-.1-.959,1.4-.728,1.4-.728-1.934-2.366-4.083-4.268-1.56-6.631s8.525-3.988,8.525-3.988l3.586-1.465c-.4,1.286.455,5.46,1.536,8.036.969,2.311,1.561,2.646.494,5.093" transform="translate(-119.171 -18.9)" fill="#f7aaac" fill-rule="evenodd"/>
    <path id="Trazado_633694" data-name="Trazado 633694" d="M621.285,5283.276s2.261,3.433,3.976,3.662.835.039,1.464-.072l-.188-2.574c-1.16.251-2.31.222-5.252-1.016" transform="translate(-123.137 -28.42)" fill="#ea8287" fill-rule="evenodd"/>
    <path id="Trazado_633695" data-name="Trazado 633695" d="M622.27,5261.176c-2.954,1.722-6.554.065-8.21,2.246-.82,1.08-.651,2.563.455,4.808.326.661.739,1.139-.433.671-.538-.214-1.421-.507-1.7-.252a1.361,1.361,0,0,0,.308,2c.243.148.7.364.7.364a7.211,7.211,0,0,1-6.137-7.12,12.656,12.656,0,0,1,.176-2.715,2.942,2.942,0,0,1-.177-.86,2.822,2.822,0,0,1,1.8-2.826,2.747,2.747,0,0,1,2.536-2.519,2.585,2.585,0,0,1,1.145.2l.133-.043a2.867,2.867,0,0,1,4.347-.912,3.9,3.9,0,0,1,3.041-1.829,4.343,4.343,0,0,1,4.31,4.345,4.742,4.742,0,0,1-1.589,3.887,4.576,4.576,0,0,1-.7.561" transform="translate(-117.921 -16.945)" fill="#355298" fill-rule="evenodd"/>
    <path id="Trazado_633696" data-name="Trazado 633696" d="M572.708,5363.836l-.053.4.934,4.077c.23.447,1.084,3.4.055,2.661-.722-.522-1.954-2.185-2.028-2.139-.975.6-2.19,6.254-2.277,6.314-1.228.839-.668-2.792-.6-3.413a22.817,22.817,0,0,1-1.054,2.306,1.248,1.248,0,0,1-.412-1.152,15.39,15.39,0,0,0,.407-2.4c-.133-.165-1.047,2.342-1.159,2.179a1.1,1.1,0,0,1-.188-.9,21.076,21.076,0,0,0,.517-2.339c-.1-.211-.644,1.622-.717,1.421-.057-.157-.346-.184-.333-.345.345-4.334,1.486-3.285,2.635-7.407.522-2.286,4.218-.141,4.273.736" transform="translate(-102.531 -57.684)" fill="#f7aaac" fill-rule="evenodd"/>
    <g id="Grupo_948479" data-name="Grupo 948479" transform="translate(518.056 5244.877)">
      <g id="Grupo_948478" data-name="Grupo 948478" transform="translate(0 0)" clip-path="url(#clip-path)">
        <rect id="Rectángulo_34634" data-name="Rectángulo 34634" width="45.644" height="61.38" transform="translate(-1.096)" fill="url(#linear-gradient)"/>
      </g>
    </g>
    <path id="Trazado_633698" data-name="Trazado 633698" d="M678.453,5328.77c-.52-.4-3.4-2.477-3.9-2.912-11.494-9.912-18.757-28.231-17.625-45.2l.279-4.183,3.433-.653c6.024-1.144,10.45-3.34,15.742-6.942l2.167-1.477,2.168,1.477a40.217,40.217,0,0,0,15.781,6.951l3.4.684.277,4.144c1.181,17.716-6.786,36.9-19.164,46.458Z" transform="translate(-136.328 -22.524)" fill="#ffd600" fill-rule="evenodd"/>
    <g id="Grupo_948481" data-name="Grupo 948481" transform="translate(527.565 5252.341)">
      <g id="Grupo_948480" data-name="Grupo 948480" transform="translate(0)" clip-path="url(#clip-path-2)">
        <rect id="Rectángulo_34635" data-name="Rectángulo 34635" width="31.657" height="47.276" transform="translate(-0.212)" fill="url(#linear-gradient-2)"/>
      </g>
    </g>
    <g id="Grupo_948483" data-name="Grupo 948483" transform="translate(527.565 5252.341)">
      <g id="Grupo_948482" data-name="Grupo 948482" transform="translate(0)" clip-path="url(#clip-path-3)">
        <rect id="Rectángulo_34636" data-name="Rectángulo 34636" width="15.828" height="47.276" transform="translate(-0.212)" fill="url(#linear-gradient-3)"/>
      </g>
    </g>
    <g id="Grupo_948485" data-name="Grupo 948485" transform="translate(543.181 5254.47)">
      <g id="Grupo_948484" data-name="Grupo 948484" clip-path="url(#clip-path-4)">
        <rect id="Rectángulo_34637" data-name="Rectángulo 34637" width="14.216" height="42.875" transform="translate(0 0)" fill="url(#linear-gradient-4)"/>
      </g>
    </g>
    <path id="Trazado_633702" data-name="Trazado 633702" d="M680.812,5298.877a9.331,9.331,0,1,1-2.733,6.6,9.3,9.3,0,0,1,2.733-6.6m6.6-2.068a8.665,8.665,0,1,0,6.128,2.537A8.642,8.642,0,0,0,687.409,5296.809Z" transform="translate(-144.228 -33.199)" fill="#fff"/>
    <path id="Trazado_633703" data-name="Trazado 633703" d="M688.684,5310.142l4.7-4.362a1.183,1.183,0,1,1,1.611,1.733l-5.6,5.2-.018.014a1.186,1.186,0,0,1-1.668-.111l-2.317-2.641a1.183,1.183,0,0,1,1.779-1.559Z" transform="translate(-146.835 -36.659)" fill="#fff" fill-rule="evenodd"/>
    <path id="Trazado_633704" data-name="Trazado 633704" d="M307.173,5416.3h23.935v.039a6.15,6.15,0,0,1,5.506,6.049V5444.3a6.161,6.161,0,0,1-6.2,6.087H302.834a6.161,6.161,0,0,1-6.2-6.087v-21.914a6.145,6.145,0,0,1,5.2-6.007l.436-.081Z" transform="translate(-2.575 -77.818)" fill="#46a7f1" fill-rule="evenodd"/>
    <path id="Trazado_633705" data-name="Trazado 633705" d="M332.409,5397.128V5382.9c.006-.135.01-.271.01-.407s0-.272-.01-.407v-.015h0a9.152,9.152,0,0,0-18.261,0v15.06H308.9v-15.185l.006-.124a14.4,14.4,0,0,1,28.741,0v.021c.01.216.016.432.016.649,0,.171,0,.343-.01.515v14.123Z" transform="translate(-7.13 -59.995)" fill="#1d89e8" fill-rule="evenodd"/>
    <path id="Trazado_633706" data-name="Trazado 633706" d="M351.384,5414.157h-5.492a.344.344,0,0,0-.343.343v1.312a.343.343,0,0,0,.343.342h5.492a.343.343,0,0,0,.343-.342V5414.5a.344.344,0,0,0-.343-.343" transform="translate(-20.739 -77.023)" fill="#46a7f1" fill-rule="evenodd"/>
    <path id="Trazado_633707" data-name="Trazado 633707" d="M313.272,5416.3h23.935v.039a6.15,6.15,0,0,1,5.506,6.049V5444.3a6.161,6.161,0,0,1-6.2,6.087H308.933a6.161,6.161,0,0,1-6.2-6.087v-21.914a6.145,6.145,0,0,1,5.2-6.007l.448-.081Z" transform="translate(-4.84 -77.818)" fill="#71bdf8" fill-rule="evenodd"/>
    <path id="Trazado_633708" data-name="Trazado 633708" d="M316.023,5419.81h20.838v.033a5.354,5.354,0,0,1,4.793,5.266v19.077a5.364,5.364,0,0,1-5.4,5.3H312.247a5.364,5.364,0,0,1-5.4-5.3v-19.077a5.349,5.349,0,0,1,4.522-5.229v-.069Z" transform="translate(-6.368 -79.123)" fill="#84c9ff" fill-rule="evenodd"/>
    <path id="Trazado_633709" data-name="Trazado 633709" d="M326.235,5434.684a4.615,4.615,0,1,1,6.764,4.084v7.627a2.181,2.181,0,0,1-1.611,1.075,2.769,2.769,0,0,1-2.689-1.075v-7.627a4.614,4.614,0,0,1-2.465-4.084" transform="translate(-13.567 -82.932)" fill="#fff" fill-rule="evenodd"/>
  </g>
</svg>
