<svg xmlns="http://www.w3.org/2000/svg" xmlns:xlink="http://www.w3.org/1999/xlink" width="325.027" height="324.641" viewBox="0 0 325.027 324.641">
  <defs>
    <radialGradient id="radial-gradient" cx="0.353" cy="0.228" r="0.864" gradientTransform="translate(0.053) scale(0.895 1)" gradientUnits="objectBoundingBox">
      <stop offset="0" stop-color="#828282"/>
      <stop offset="0.301" stop-color="#838384" stop-opacity="0.98"/>
      <stop offset="0.469" stop-color="#8a8a8a" stop-opacity="0.918"/>
      <stop offset="0.604" stop-color="#959696" stop-opacity="0.812"/>
      <stop offset="0.721" stop-color="#a5a6a7" stop-opacity="0.663"/>
      <stop offset="0.828" stop-color="#babbbc" stop-opacity="0.467"/>
      <stop offset="0.924" stop-color="#d3d5d6" stop-opacity="0.231"/>
      <stop offset="1" stop-color="#eceef0" stop-opacity="0"/>
    </radialGradient>
  </defs>
  <g id="Grupo_950066" data-name="Grupo 950066" transform="translate(1073.207 9439.582)">
    <path id="Trazado_633968" data-name="Trazado 633968" d="M1074.67,406.04a163.989,163.989,0,0,0-41.338-109.08A164.609,164.609,0,1,0,910.056,570.652,164.614,164.614,0,0,0,1074.67,406.04Z" transform="translate(-1822.85 -9685.594)" fill="#c4baf5"/>
    <path id="Trazado_633969" data-name="Trazado 633969" d="M802.28,469.477l76.7,76.7q6.785.562,13.723.572a164.614,164.614,0,0,0,164.612-164.612q0-3.913-.185-7.786l-55.841-55.839Z" transform="translate(-1805.499 -9661.694)" fill="url(#radial-gradient)"/>
    <g id="Grupo_948622" data-name="Grupo 948622" transform="translate(-1037.998 -9404.712)">
      <g id="Grupo_948620" data-name="Grupo 948620">
        <g id="Grupo_948619" data-name="Grupo 948619">
          <g id="Grupo_948618" data-name="Grupo 948618">
            <path id="Trazado_633970" data-name="Trazado 633970" d="M1027.52,397.936a125.7,125.7,0,1,1-125.7-125.7A125.695,125.695,0,0,1,1027.52,397.936Z" transform="translate(-776.123 -272.237)" fill="#c4baf5"/>
          </g>
        </g>
      </g>
      <path id="Trazado_633971" data-name="Trazado 633971" d="M1026.724,397.068a125.7,125.7,0,1,0-125.7,125.7A125.213,125.213,0,0,0,1026.724,397.068Z" transform="translate(-775.327 -271.369)" fill="#e6e1fb"/>
      <g id="Grupo_948621" data-name="Grupo 948621" transform="translate(22.269 70.571)">
        <path id="Trazado_633972" data-name="Trazado 633972" d="M1009.29,325.313A125.714,125.714,0,0,1,792.871,450.491,125.315,125.315,0,0,0,1009.29,325.313Z" transform="translate(-792.871 -325.313)" fill="#c4baf5"/>
      </g>
    </g>
    <text id="Fases_Gestión_de_Incidentes_ISO-IEC_27035:2012" data-name="Fases Gestión de Incidentes ISO-IEC 27035:2012" transform="translate(-982.489 -9243.997)" fill="#12263f" font-size="16" font-family="SegoeUI-Bold, Segoe UI" font-weight="700"><tspan x="7.102" y="17">Fases Gestión de </tspan><tspan x="0.188" y="37">Incidentes ISO-IEC </tspan><tspan x="25.457" y="57">27035:2012</tspan></text>
    <g id="Grupo_948609" data-name="Grupo 948609" transform="translate(-975.808 -9377.503)">
      <path id="Trazado_634001" data-name="Trazado 634001" d="M663.267,166.4c-1.291-8.213-10.116-8.563-10.116-19.023s13.52-17.534,13.52-24.763-9.421-28,4.52-32.767c7.286-2.49,11.143,8.474,20.466,1.04,10.445-8.327,16.884-13.093,24.47-8.422,8.954,5.513,8.617,26.479,21.362,30.121s37.077,8.64,37.077,18.659-12.39,11.926-12.39,16.429,5.823,12.322,0,18.158-13.973.62-19.137,1.419c-10.806,1.672-14.793,17.351-26.842,23.122C698.491,198.849,667.432,192.887,663.267,166.4Z" transform="translate(-650.763 -73.682)" fill="#e0feec"/>
      <path id="Trazado_634002" data-name="Trazado 634002" d="M730.2,119.467c-1.046-3.027-.953-6,.967-7.972,2.231-2.286,3.917-1.539,4-5.431.087-3.96,4.774-6.9,9.5-4.12,2.772-.956,5.48,2.561,5.665,5.415.294,4.528-3.613,9.792-.8,12.9Z" transform="translate(-704.23 -87.839)" fill="#32293a"/>
      <g id="Grupo_948645" data-name="Grupo 948645" transform="translate(58.835 16.436)">
        <g id="Grupo_948640" data-name="Grupo 948640" transform="translate(0 7.088)">
          <path id="Trazado_634003" data-name="Trazado 634003" d="M893.893,136.563v29.948a4.212,4.212,0,0,1-4.205,4.218H846.164a4.212,4.212,0,0,1-4.205-4.218V136.563Z" transform="translate(-841.756 -136.36)" fill="#fffdf7"/>
          <path id="Trazado_634004" data-name="Trazado 634004" d="M889.214,170.458H845.69a4.42,4.42,0,0,1-4.408-4.421V135.885h52.34v30.152A4.42,4.42,0,0,1,889.214,170.458Zm-47.526-34.166v29.745a4.013,4.013,0,0,0,4,4.015h43.524a4.013,4.013,0,0,0,4-4.015V136.292Z" transform="translate(-841.282 -135.885)" fill="#32293a"/>
        </g>
        <g id="Grupo_948641" data-name="Grupo 948641">
          <path id="Trazado_634005" data-name="Trazado 634005" d="M893.893,117.157v2.87H841.959v-2.87a4.212,4.212,0,0,1,4.205-4.218h43.524A4.212,4.212,0,0,1,893.893,117.157Z" transform="translate(-841.756 -112.736)" fill="#25c766"/>
          <path id="Trazado_634006" data-name="Trazado 634006" d="M893.622,119.757h-52.34v-3.074a4.42,4.42,0,0,1,4.408-4.421h43.524a4.42,4.42,0,0,1,4.408,4.421Zm-51.934-.407h51.528v-2.667a4.013,4.013,0,0,0-4-4.015H845.69a4.013,4.013,0,0,0-4,4.015Z" transform="translate(-841.282 -112.262)" fill="#25c766"/>
        </g>
        <g id="Grupo_948642" data-name="Grupo 948642" transform="translate(2.645 2.455)">
          <rect id="Rectángulo_34845" data-name="Rectángulo 34845" width="26.361" height="2.357" rx="1.179" transform="translate(0.203 0.203)" fill="#fffdf7"/>
          <path id="Trazado_634007" data-name="Trazado 634007" d="M875.485,123.209H851.476a1.382,1.382,0,0,1,0-2.764h24.009a1.382,1.382,0,0,1,0,2.764Zm-24.009-2.357a.975.975,0,0,0,0,1.951h24.009a.975.975,0,0,0,0-1.951Z" transform="translate(-850.097 -120.445)" fill="#32293a"/>
        </g>
        <g id="Grupo_948643" data-name="Grupo 948643" transform="translate(46.092 2.338)">
          <path id="Trazado_634008" data-name="Trazado 634008" d="M995.577,122.026a1.292,1.292,0,1,1,1.292,1.295A1.293,1.293,0,0,1,995.577,122.026Z" transform="translate(-995.374 -120.528)" fill="#fffdf7"/>
          <path id="Trazado_634009" data-name="Trazado 634009" d="M996.4,123.049a1.5,1.5,0,1,1,1.495-1.5A1.5,1.5,0,0,1,996.4,123.049Zm0-2.59a1.092,1.092,0,1,0,1.089,1.092A1.092,1.092,0,0,0,996.4,120.46Z" transform="translate(-994.901 -120.053)" fill="#32293a"/>
        </g>
        <g id="Grupo_948644" data-name="Grupo 948644" transform="translate(42.926 2.789)">
          <path id="Trazado_634010" data-name="Trazado 634010" d="M985.024,123.078a.842.842,0,1,1,.842.844A.843.843,0,0,1,985.024,123.078Z" transform="translate(-984.821 -122.031)" fill="#fffdf7"/>
          <path id="Trazado_634011" data-name="Trazado 634011" d="M985.393,123.651a1.047,1.047,0,1,1,1.044-1.047A1.047,1.047,0,0,1,985.393,123.651Zm0-1.687a.64.64,0,1,0,.639.64A.64.64,0,0,0,985.393,121.964Z" transform="translate(-984.348 -121.557)" fill="#32293a"/>
        </g>
        <rect id="Rectángulo_34846" data-name="Rectángulo 34846" width="20.788" height="11.213" rx="5.606" transform="translate(4.028 11.316)" fill="#e0feec"/>
        <rect id="Rectángulo_34847" data-name="Rectángulo 34847" width="20.788" height="11.213" rx="5.606" transform="translate(4.028 26.107)" fill="#e0feec"/>
        <rect id="Rectángulo_34848" data-name="Rectángulo 34848" width="20.788" height="11.213" rx="5.606" transform="translate(27.68 11.316)" fill="#e0feec"/>
        <rect id="Rectángulo_34849" data-name="Rectángulo 34849" width="20.788" height="11.213" rx="5.606" transform="translate(27.68 26.107)" fill="#e0feec"/>
      </g>
      <path id="Trazado_634012" data-name="Trazado 634012" d="M818.513,155.264l3.3,2.285,14.764-12.833a3.1,3.1,0,0,1,3.149-.518l8.571,3.394a.477.477,0,0,1,.247.669,1.853,1.853,0,0,1-.78.869,2.543,2.543,0,0,1-1.371.092l.785,1.881a.5.5,0,0,1-.332.68,1.727,1.727,0,0,1-1.751-.33c-.079.49-1.48.928-2.108.588-.339.562-1.471.431-1.995,0a12.967,12.967,0,0,1-1.013-1.165,3.4,3.4,0,0,1-2.877,2.977c-.611.675-8.113,7.886-12.117,11.728a4.934,4.934,0,0,1-5.574.879l-5.928-2.879Z" transform="translate(-762.99 -118.028)" fill="#f4c7a8"/>
      <g id="Grupo_948646" data-name="Grupo 948646" transform="translate(64.639 25.75)">
        <path id="Trazado_634013" data-name="Trazado 634013" d="M860.828,162.577a.2.2,0,0,1-.141-.35c3.959-3.8,8.779-8.451,9.263-8.986a.2.2,0,0,1,.124-.065,3.189,3.189,0,0,0,2.7-2.789.2.2,0,0,1,.362-.113,12.056,12.056,0,0,0,.983,1.133,1.333,1.333,0,0,0,1.019.225.825.825,0,0,0,.589-.343.2.2,0,0,1,.171-.1.165.165,0,0,1,.173.093.8.8,0,0,0,.867.243,1.4,1.4,0,0,0,.954-.584.2.2,0,0,1,.348-.106,1.486,1.486,0,0,0,1.442.3.386.386,0,0,0,.26-.2.37.37,0,0,0,.013-.315l-.75-1.8a.2.2,0,0,1,.259-.268,1.621,1.621,0,0,0,1.206-.083,1.422,1.422,0,0,0,.635-.679.361.361,0,0,0,.029-.3.379.379,0,0,0-.219-.228l-8.464-3.351a2.9,2.9,0,0,0-2.944.484l-8.449,7.343a.2.2,0,1,1-.265-.307l8.45-7.345a3.3,3.3,0,0,1,3.356-.553l8.464,3.351a.785.785,0,0,1,.452.473.772.772,0,0,1-.06.64,1.823,1.823,0,0,1-.8.837,1.939,1.939,0,0,1-1.126.194l.6,1.437a.777.777,0,0,1-.027.659.79.79,0,0,1-.532.408,1.987,1.987,0,0,1-1.617-.232,2.093,2.093,0,0,1-1.131.625,1.259,1.259,0,0,1-1.116-.218,1.339,1.339,0,0,1-.7.325,1.726,1.726,0,0,1-1.345-.311,7.963,7.963,0,0,1-.753-.834,3.669,3.669,0,0,1-2.909,2.68c-.707.745-5.378,5.248-9.232,8.952A.2.2,0,0,1,860.828,162.577Z" transform="translate(-860.625 -143.302)" fill="#32293a"/>
      </g>
      <g id="Grupo_948653" data-name="Grupo 948653" transform="translate(45.1 109.692)">
        <rect id="Rectángulo_34850" data-name="Rectángulo 34850" width="8.378" height="7.188" transform="translate(1.683)" fill="#f4c7a8"/>
        <path id="Trazado_634014" data-name="Trazado 634014" d="M795.931,434.409v-.6a1.178,1.178,0,0,1,1.177-1.179h.392a1.177,1.177,0,0,1,1.05.646l.555,1.1a1.177,1.177,0,0,0,1.05.646h3.388a1.176,1.176,0,0,0,.956-.492l1.874-2.62a1.177,1.177,0,0,1,.957-.492h0a1.449,1.449,0,0,1,.865.38c3.25,2.508,6.754,4.989,10.156,7.207a2.806,2.806,0,0,1,1.316,1.329l.843,2.5h-24.5Z" transform="translate(-795.803 -428.913)" fill="#25c766"/>
        <g id="Grupo_948647" data-name="Grupo 948647" transform="translate(0 13.717)">
          <path id="Trazado_634015" data-name="Trazado 634015" d="M819.454,472.3h-22.99a.962.962,0,0,1-.96-.962v-2.349a.2.2,0,1,1,.406,0v2.349a.556.556,0,0,0,.554.556h22.99a.556.556,0,0,0,.554-.556v-2.349a.2.2,0,1,1,.406,0v2.349A.962.962,0,0,1,819.454,472.3Z" transform="translate(-795.504 -468.788)" fill="#32293a"/>
        </g>
        <g id="Grupo_948648" data-name="Grupo 948648" transform="translate(0.128 8.873)">
          <path id="Trazado_634016" data-name="Trazado 634016" d="M800.761,457.8l-2.507-3.855a1.963,1.963,0,0,0-1.651-.9h-.672v-.407h.672a2.368,2.368,0,0,1,1.991,1.081l2.507,3.856Z" transform="translate(-795.931 -452.643)" fill="#32293a"/>
        </g>
        <g id="Grupo_948649" data-name="Grupo 948649" transform="translate(12.107 3.96)">
          <path id="Trazado_634017" data-name="Trazado 634017" d="M841.886,443.423a1.182,1.182,0,0,1-.651-.2l-4.839-3.172a1.2,1.2,0,0,1-.31-1.709l1.521-2.079.327.24-1.52,2.079a.792.792,0,0,0,.2,1.128l4.839,3.172a.789.789,0,0,0,1.094-.232l1.245-1.926.34.221-1.245,1.926a1.187,1.187,0,0,1-.755.52A1.219,1.219,0,0,1,841.886,443.423Z" transform="translate(-835.854 -436.268)" fill="#32293a"/>
        </g>
        <g id="Grupo_948650" data-name="Grupo 948650" transform="translate(13.436 5.073)">
          <path id="Trazado_634018" data-name="Trazado 634018" d="M842.856,440.655l-1.9,2.705Z" transform="translate(-840.757 -440.452)" fill="#ffcc38"/>
          <path id="Trazado_634019" data-name="Trazado 634019" d="M840.487,443.09a.2.2,0,0,1-.166-.32l1.9-2.706a.2.2,0,1,1,.332.233l-1.9,2.706A.2.2,0,0,1,840.487,443.09Z" transform="translate(-840.284 -439.978)" fill="#32293a"/>
        </g>
        <g id="Grupo_948651" data-name="Grupo 948651" transform="translate(14.954 6.144)">
          <path id="Trazado_634020" data-name="Trazado 634020" d="M847.916,444.225l-1.9,2.706Z" transform="translate(-845.817 -444.022)" fill="#ffcc38"/>
          <path id="Trazado_634021" data-name="Trazado 634021" d="M845.547,446.66a.2.2,0,0,1-.166-.32l1.9-2.706a.2.2,0,1,1,.332.233l-1.9,2.706A.2.2,0,0,1,845.547,446.66Z" transform="translate(-845.344 -443.548)" fill="#32293a"/>
        </g>
        <g id="Grupo_948652" data-name="Grupo 948652" transform="translate(16.501 7.15)">
          <path id="Trazado_634022" data-name="Trazado 634022" d="M853.072,447.579l-1.9,2.706Z" transform="translate(-850.973 -447.376)" fill="#ffcc38"/>
          <path id="Trazado_634023" data-name="Trazado 634023" d="M850.7,450.014a.2.2,0,0,1-.166-.32l1.9-2.705a.2.2,0,1,1,.332.233l-1.9,2.706A.2.2,0,0,1,850.7,450.014Z" transform="translate(-850.501 -446.902)" fill="#32293a"/>
        </g>
      </g>
      <g id="Grupo_948660" data-name="Grupo 948660" transform="translate(15.455 109.642)">
        <path id="Trazado_634024" data-name="Trazado 634024" d="M708.941,430.089h-8.378l2.028-7.188h8.378Z" transform="translate(-699.404 -422.901)" fill="#f4c7a8"/>
        <path id="Trazado_634025" data-name="Trazado 634025" d="M697.129,434.239v-.6a1.178,1.178,0,0,1,1.177-1.18h.392a1.176,1.176,0,0,1,1.05.646l.555,1.1a1.177,1.177,0,0,0,1.05.646h3.387a1.177,1.177,0,0,0,.957-.492l1.874-2.62a1.177,1.177,0,0,1,.957-.492h0a1.447,1.447,0,0,1,.865.38c3.249,2.508,6.754,4.989,10.156,7.207a2.807,2.807,0,0,1,1.316,1.329l.843,2.5H697.2Z" transform="translate(-697.001 -428.743)" fill="#25c766"/>
        <g id="Grupo_948654" data-name="Grupo 948654" transform="translate(0 13.717)">
          <path id="Trazado_634026" data-name="Trazado 634026" d="M720.652,472.133H697.662a.962.962,0,0,1-.96-.962v-2.349a.2.2,0,1,1,.406,0v2.349a.556.556,0,0,0,.555.556h22.989a.556.556,0,0,0,.555-.556v-2.349a.2.2,0,1,1,.406,0v2.349A.962.962,0,0,1,720.652,472.133Z" transform="translate(-696.702 -468.618)" fill="#32293a"/>
        </g>
        <g id="Grupo_948655" data-name="Grupo 948655" transform="translate(0.128 8.873)">
          <path id="Trazado_634027" data-name="Trazado 634027" d="M701.958,457.632l-2.506-3.856a1.963,1.963,0,0,0-1.651-.9h-.672v-.407h.672a2.369,2.369,0,0,1,1.991,1.081l2.507,3.856Z" transform="translate(-697.129 -452.473)" fill="#32293a"/>
        </g>
        <g id="Grupo_948656" data-name="Grupo 948656" transform="translate(12.107 3.96)">
          <path id="Trazado_634028" data-name="Trazado 634028" d="M743.083,443.253a1.185,1.185,0,0,1-.651-.2l-4.839-3.172a1.2,1.2,0,0,1-.31-1.709l1.52-2.079.327.24-1.52,2.079a.791.791,0,0,0,.2,1.128l4.839,3.172a.788.788,0,0,0,1.094-.232l1.245-1.926.34.221-1.245,1.926a1.195,1.195,0,0,1-1,.546Z" transform="translate(-737.052 -436.098)" fill="#32293a"/>
        </g>
        <g id="Grupo_948657" data-name="Grupo 948657" transform="translate(13.436 5.073)">
          <path id="Trazado_634029" data-name="Trazado 634029" d="M744.054,440.485l-1.9,2.706Z" transform="translate(-741.955 -440.282)" fill="#ffcc38"/>
          <path id="Trazado_634030" data-name="Trazado 634030" d="M741.685,442.92a.2.2,0,0,1-.166-.32l1.9-2.705a.2.2,0,1,1,.332.233l-1.9,2.706A.2.2,0,0,1,741.685,442.92Z" transform="translate(-741.482 -439.808)" fill="#32293a"/>
        </g>
        <g id="Grupo_948658" data-name="Grupo 948658" transform="translate(14.954 6.144)">
          <path id="Trazado_634031" data-name="Trazado 634031" d="M749.114,444.056l-1.9,2.706Z" transform="translate(-747.015 -443.853)" fill="#ffcc38"/>
          <path id="Trazado_634032" data-name="Trazado 634032" d="M746.744,446.49a.2.2,0,0,1-.117-.037.2.2,0,0,1-.049-.283l1.9-2.706a.2.2,0,1,1,.332.234l-1.9,2.705A.2.2,0,0,1,746.744,446.49Z" transform="translate(-746.541 -443.379)" fill="#32293a"/>
        </g>
        <g id="Grupo_948659" data-name="Grupo 948659" transform="translate(16.501 7.15)">
          <path id="Trazado_634033" data-name="Trazado 634033" d="M754.27,447.409l-1.9,2.706Z" transform="translate(-752.171 -447.206)" fill="#ffcc38"/>
          <path id="Trazado_634034" data-name="Trazado 634034" d="M751.9,449.844a.2.2,0,0,1-.166-.32l1.9-2.706a.2.2,0,1,1,.332.233l-1.9,2.706A.2.2,0,0,1,751.9,449.844Z" transform="translate(-751.698 -446.732)" fill="#32293a"/>
        </g>
      </g>
      <path id="Trazado_634035" data-name="Trazado 634035" d="M724.217,236.337l-2.681,12.7,15.67,12.907a6.794,6.794,0,0,1,2.488,5.257v26.036a.772.772,0,0,1-.771.773H727.414a.772.772,0,0,1-.771-.773V270.982l-8.541-7.367-6.952,29.238a.771.771,0,0,1-.75.593H698.983a.772.772,0,0,1-.751-.949l8.629-36.885-3.959-4.4,2.808-14.873Z" transform="translate(-682.304 -182.673)" fill="#32293a"/>
      <path id="Trazado_634036" data-name="Trazado 634036" d="M723.782,157.232l-17.881.076a5.441,5.441,0,0,0-3.206,1.062l-7.821,5.578,5.785,8.208,6.039-3.97-3.324,12.781H721.88l2.9-11.61,5.683,3.5,5.028-8.318-8.309-6.133A5.44,5.44,0,0,0,723.782,157.232Z" transform="translate(-679.968 -127.303)" fill="#25c766"/>
      <path id="Trazado_634037" data-name="Trazado 634037" d="M757.45,129.458a5.137,5.137,0,0,1-5.174,4.815c-2.772-.02-4.738-3.346-4.649-4.773.029-.022,1.412-.918,2.144-1.392a1.447,1.447,0,0,0,.6-.8l1.26-4.14c-1.915.18-1.8-2.988.155-2.3,2.4.844,4.891-3.337,4.891-3.337.6,1.669,3.753,2.467,4.289,2.432-.6,2.263-2.2,6.781-4.541,5.76,0,0-.221.655-.422,1.242a1.455,1.455,0,0,0,.4,1.554Z" transform="translate(-716.891 -99.515)" fill="#f4c7a8"/>
      <path id="Trazado_634038" data-name="Trazado 634038" d="M706.174,265.122l-2.151-3.279a2.142,2.142,0,0,1,.611-2.962l9.824-6.473a2.131,2.131,0,0,1,2.955.612l2.151,3.279a2.141,2.141,0,0,1-.611,2.962l-9.824,6.473A2.13,2.13,0,0,1,706.174,265.122Z" transform="translate(-686.126 -193.676)" fill="#32293a"/>
      <g id="Grupo_948661" data-name="Grupo 948661" transform="translate(17.344 58.179)">
        <path id="Trazado_634039" data-name="Trazado 634039" d="M707.49,265.817a2.337,2.337,0,0,1-1.957-1.054l-2.151-3.279a2.348,2.348,0,0,1,.669-3.243l9.824-6.473a2.337,2.337,0,0,1,3.237.67l2.151,3.279a2.347,2.347,0,0,1-.669,3.243l-9.824,6.473A2.316,2.316,0,0,1,707.49,265.817Zm-1.618-1.278a1.931,1.931,0,0,0,2.675.554l9.824-6.473a1.94,1.94,0,0,0,.552-2.68l-2.151-3.279a1.931,1.931,0,0,0-2.675-.554l-9.824,6.473a1.941,1.941,0,0,0-.553,2.68Z" transform="translate(-702.999 -251.384)" fill="#faf5ff"/>
      </g>
      <path id="Trazado_634040" data-name="Trazado 634040" d="M682.574,194.517l2.694,4.775,5.455,2.327-1.66,1.094s4.64,7.164,4.663,7.144c.57.949-1.313,2.438-2.045,1.468a1.124,1.124,0,0,1-1.969,1.042c.628,1.008-1.162,2.386-2.108,1.164.88,1.2-1.122,2.173-2.084,1.111-.6-.667-5.965-7.077-5.965-7.077l-5.48-9.492-3.575-6.3a7.063,7.063,0,0,1,2.378-9.465l4.29-2.7,5.785,8.208-3.061,2.025Z" transform="translate(-662.261 -142.971)" fill="#f4c7a8"/>
      <g id="Grupo_948662" data-name="Grupo 948662" transform="translate(22.803 56.118)">
        <path id="Trazado_634041" data-name="Trazado 634041" d="M726.852,247.247a.2.2,0,0,1-.079-.016l-5.455-2.327a.2.2,0,0,1,.159-.374l5.455,2.327a.2.2,0,0,1-.08.39Z" transform="translate(-721.194 -244.514)" fill="#faf5ff"/>
      </g>
      <g id="Grupo_948663" data-name="Grupo 948663" transform="translate(10.207 52.427)">
        <path id="Trazado_634042" data-name="Trazado 634042" d="M692.263,251.66a.2.2,0,0,1-.15-.067c-.6-.663-5.751-6.821-5.97-7.083l-5.5-9.522-1.4-2.473a.2.2,0,0,1,.353-.2l1.4,2.472,5.478,9.492c.033.035,5.345,6.385,5.939,7.042a.2.2,0,0,1-.15.34Z" transform="translate(-679.212 -232.212)" fill="#32293a"/>
      </g>
      <g id="Grupo_948664" data-name="Grupo 948664" transform="translate(23.055 58.444)">
        <path id="Trazado_634043" data-name="Trazado 634043" d="M723.284,266.151a1.6,1.6,0,0,1-1.2-.519.2.2,0,1,1,.3-.273,1.254,1.254,0,0,0,1.683.124.654.654,0,0,0,.088-.978l.323-.245a.978.978,0,0,0,1.408.185.854.854,0,0,0,.368-1.117l.339-.223a.87.87,0,0,0,1.2.269.858.858,0,0,0,.419-1.114l-.681-1.565,1.029,1.361c.288.381.8.236,1.158,0,.452-.307.782-.853.552-1.236l.013-.008c-.257-.314-1.1-1.613-4.673-7.13l-.11-.17,1.829-1.2a.2.2,0,1,1,.222.339l-1.492.983c1.693,2.613,4.119,6.347,4.493,6.891h.011l.053.088c.368.612-.072,1.375-.673,1.783a1.421,1.421,0,0,1-1.25.25,1.373,1.373,0,0,1-1.936,1.14,1.534,1.534,0,0,1-2.019,1.188,1.047,1.047,0,0,1-.413.832A1.661,1.661,0,0,1,723.284,266.151Z" transform="translate(-722.033 -252.268)" fill="#faf5ff"/>
      </g>
      <g id="Grupo_948665" data-name="Grupo 948665" transform="translate(16.917 45.684)">
        <path id="Trazado_634044" data-name="Trazado 634044" d="M707.665,220.581a.2.2,0,0,1-.176-.1L701.6,210.045a.2.2,0,1,1,.353-.2l5.886,10.433a.2.2,0,0,1-.076.277A.2.2,0,0,1,707.665,220.581Z" transform="translate(-701.577 -209.741)" fill="#32293a"/>
      </g>
      <g id="Grupo_948666" data-name="Grupo 948666" transform="translate(26.123 64.01)">
        <path id="Trazado_634045" data-name="Trazado 634045" d="M735.553,275.365a.2.2,0,0,1-.162-.082l-3.094-4.14a.2.2,0,1,1,.325-.244l3.093,4.14a.2.2,0,0,1-.04.284A.2.2,0,0,1,735.553,275.365Z" transform="translate(-732.257 -270.819)" fill="#32293a"/>
      </g>
      <g id="Grupo_948667" data-name="Grupo 948667" transform="translate(24.35 65.154)">
        <path id="Trazado_634046" data-name="Trazado 634046" d="M729.448,279.075a.2.2,0,0,1-.164-.085l-2.9-4.039a.2.2,0,1,1,.329-.237l2.9,4.039a.2.2,0,0,1-.164.322Z" transform="translate(-726.348 -274.63)" fill="#32293a"/>
      </g>
      <g id="Grupo_948668" data-name="Grupo 948668" transform="translate(22.266 66.31)">
        <path id="Trazado_634047" data-name="Trazado 634047" d="M722.478,282.938a.2.2,0,0,1-.165-.086l-2.873-4.047a.2.2,0,1,1,.33-.236l2.873,4.047a.2.2,0,0,1-.047.284A.2.2,0,0,1,722.478,282.938Z" transform="translate(-719.402 -278.485)" fill="#32293a"/>
      </g>
      <g id="Grupo_948669" data-name="Grupo 948669" transform="translate(30.593 62.619)">
        <path id="Trazado_634048" data-name="Trazado 634048" d="M748.1,268.077a.948.948,0,0,1-.23-1.867.945.945,0,0,1,1.147.689.947.947,0,0,1-.917,1.178Zm0-1.489a.544.544,0,0,0-.133.017h0a.541.541,0,1,0,.409.061A.531.531,0,0,0,748.1,266.587Zm-.182-.181h0Z" transform="translate(-747.157 -266.181)" fill="#faf5ff"/>
      </g>
      <g id="Grupo_948670" data-name="Grupo 948670" transform="translate(35.306 59.507)">
        <path id="Trazado_634049" data-name="Trazado 634049" d="M771.766,267.033a.2.2,0,0,1-.128-.046l-8.775-7.212.658-3.8a.2.2,0,1,1,.4.069l-.617,3.564,8.591,7.062a.2.2,0,0,1-.129.36Z" transform="translate(-762.863 -255.81)" fill="#faf5ff"/>
      </g>
      <g id="Grupo_948671" data-name="Grupo 948671" transform="translate(25.256 71.492)">
        <path id="Trazado_634050" data-name="Trazado 634050" d="M750.158,314.525a.2.2,0,0,1-.135-.052l-20.588-18.365a.2.2,0,0,1,.27-.3l20.588,18.365a.2.2,0,0,1-.135.355Z" transform="translate(-729.368 -295.754)" fill="#faf5ff"/>
      </g>
      <g id="Grupo_948672" data-name="Grupo 948672" transform="translate(14.703 31.816)">
        <path id="Trazado_634051" data-name="Trazado 634051" d="M700.186,176.76a.2.2,0,0,1-.166-.086l-5.785-8.208a.2.2,0,0,1,.048-.283l6.487-4.627a.2.2,0,0,1,.235.331l-6.323,4.509,5.553,7.879,7.576-5.218a.2.2,0,0,1,.23.335l-7.74,5.332A.2.2,0,0,1,700.186,176.76Z" transform="translate(-694.198 -163.519)" fill="#32293a"/>
      </g>
      <g id="Grupo_948673" data-name="Grupo 948673" transform="translate(43.138 34.912)">
        <path id="Trazado_634052" data-name="Trazado 634052" d="M789.168,186.751a.2.2,0,0,1-.2-.246l1.664-7.854a2.474,2.474,0,0,0-.217-1.726c-1.468-2.781-1.462-2.822-1.449-2.913a.2.2,0,0,1,.4-.013c.028.071.215.476,1.408,2.736a2.879,2.879,0,0,1,.254,2.006l-1.663,7.849A.2.2,0,0,1,789.168,186.751Z" transform="translate(-788.965 -173.838)" fill="#32293a"/>
      </g>
      <g id="Grupo_948674" data-name="Grupo 948674" transform="translate(74.672 29.486)">
        <path id="Trazado_634053" data-name="Trazado 634053" d="M896.443,159.311l-.121-.388s1.686-.53,2.992-.923c.549-.165.664-.939.6-1.3a.22.22,0,0,0-.2-.181l-5.458-.361a.2.2,0,0,1,.026-.406l5.458.361a.626.626,0,0,1,.578.517,1.56,1.56,0,0,1-.885,1.756C898.126,158.782,896.444,159.311,896.443,159.311Z" transform="translate(-894.063 -155.756)" fill="#32293a"/>
      </g>
      <g id="Grupo_948675" data-name="Grupo 948675" transform="translate(80.53 30.245)">
        <path id="Trazado_634054" data-name="Trazado 634054" d="M916.463,159.437a.2.2,0,0,1-.054-.008l-2.673-.746a.2.2,0,0,1,.109-.392l2.673.746a.2.2,0,0,1-.054.4Z" transform="translate(-913.587 -158.284)" fill="#32293a"/>
      </g>
      <g id="Grupo_948676" data-name="Grupo 948676" transform="translate(80.63 31.209)">
        <path id="Trazado_634055" data-name="Trazado 634055" d="M915.4,163.917a.2.2,0,0,1-.172-.095l-1.273-2.012a.2.2,0,1,1,.343-.217l1.273,2.012a.2.2,0,0,1-.063.281A.2.2,0,0,1,915.4,163.917Z" transform="translate(-913.922 -161.498)" fill="#32293a"/>
      </g>
      <g id="Grupo_948677" data-name="Grupo 948677" transform="translate(78.916 32.041)">
        <path id="Trazado_634056" data-name="Trazado 634056" d="M909.292,166.445a.2.2,0,0,1-.182-.113l-.88-1.768a.2.2,0,1,1,.363-.182l.88,1.768a.2.2,0,0,1-.091.272A.2.2,0,0,1,909.292,166.445Z" transform="translate(-908.209 -164.27)" fill="#32293a"/>
      </g>
      <g id="Grupo_948678" data-name="Grupo 948678" transform="translate(44.366 37.033)">
        <path id="Trazado_634057" data-name="Trazado 634057" d="M799.188,189.633a.2.2,0,0,1-.1-.029l-5.926-3.529a.2.2,0,0,1,.207-.35l5.753,3.426,4.924-8.145a.2.2,0,0,1,.278-.068l5.272,3.211a.2.2,0,0,1-.211.347l-5.1-3.105-4.923,8.143A.2.2,0,0,1,799.188,189.633Z" transform="translate(-793.06 -180.909)" fill="#32293a"/>
      </g>
      <g id="Grupo_948679" data-name="Grupo 948679" transform="translate(48.186 31.83)">
        <path id="Trazado_634058" data-name="Trazado 634058" d="M813.127,169.177a.2.2,0,0,1-.119-.039l-7.133-5.2a.2.2,0,0,1,.239-.329l7.134,5.2a.2.2,0,0,1-.119.368Z" transform="translate(-805.791 -163.568)" fill="#32293a"/>
      </g>
      <g id="Grupo_948685" data-name="Grupo 948685" transform="translate(68.905 37.709)">
        <path id="Trazado_634059" data-name="Trazado 634059" d="M904.764,211.49l-10.39,6.329a5.615,5.615,0,0,1-5.855-.007l-10.313-6.318a5.642,5.642,0,0,1-2.583-5.907l3.407-17.209a5.628,5.628,0,0,1,5.517-4.54h13.891a5.628,5.628,0,0,1,5.517,4.54l3.4,17.2A5.642,5.642,0,0,1,904.764,211.49Z" transform="translate(-875.313 -183.635)" fill="#25c766"/>
        <g id="Grupo_948680" data-name="Grupo 948680" transform="translate(0 10.256)">
          <path id="Trazado_634060" data-name="Trazado 634060" d="M888.049,241.465a.2.2,0,0,1-.106-.03l-10.313-6.318A5.866,5.866,0,0,1,874.954,229l2.276-11.493a.2.2,0,0,1,.238-.16.2.2,0,0,1,.159.239l-2.275,11.493a5.459,5.459,0,0,0,2.49,5.694l10.313,6.318a.2.2,0,0,1-.106.377Z" transform="translate(-874.843 -217.341)" fill="#32293a"/>
        </g>
        <g id="Grupo_948681" data-name="Grupo 948681" transform="translate(22.622 11.519)">
          <path id="Trazado_634061" data-name="Trazado 634061" d="M950.442,242.127a.2.2,0,0,1-.105-.377l6.626-4.036a5.457,5.457,0,0,0,2.5-5.7l-2.023-10.219a.2.2,0,1,1,.4-.079l2.023,10.219a5.864,5.864,0,0,1-2.689,6.127l-6.626,4.036A.2.2,0,0,1,950.442,242.127Z" transform="translate(-950.239 -221.551)" fill="#32293a"/>
        </g>
        <g id="Grupo_948682" data-name="Grupo 948682" transform="translate(5.21 0)">
          <path id="Trazado_634062" data-name="Trazado 634062" d="M916.107,190.467a.2.2,0,0,1-.2-.164l-.467-2.361a5.439,5.439,0,0,0-5.319-4.376H896.231a5.4,5.4,0,0,0-3.682,1.445.2.2,0,1,1-.276-.3,5.808,5.808,0,0,1,3.958-1.554h13.892a5.845,5.845,0,0,1,5.716,4.7l.467,2.361a.2.2,0,0,1-.2.243Z" transform="translate(-892.209 -183.16)" fill="#32293a"/>
        </g>
        <g id="Grupo_948683" data-name="Grupo 948683" transform="translate(11.662 11.28)">
          <path id="Trazado_634063" data-name="Trazado 634063" d="M914.385,225.813a4.37,4.37,0,1,1,4.37,4.379A4.375,4.375,0,0,1,914.385,225.813Z" transform="translate(-914.182 -221.231)" fill="#fffdf7"/>
          <path id="Trazado_634064" data-name="Trazado 634064" d="M918.282,229.921a4.583,4.583,0,1,1,4.573-4.583A4.583,4.583,0,0,1,918.282,229.921Zm0-8.759a4.176,4.176,0,1,0,4.167,4.176A4.176,4.176,0,0,0,918.282,221.163Z" transform="translate(-913.709 -220.756)" fill="#32293a"/>
        </g>
        <g id="Grupo_948684" data-name="Grupo 948684" transform="translate(14.059 10.592)">
          <path id="Trazado_634065" data-name="Trazado 634065" d="M923.836,225.685a.2.2,0,0,1-.143-.06l-1.934-1.938a.2.2,0,1,1,.287-.287l1.791,1.794,6.659-6.674a.2.2,0,0,1,.287.287l-6.8,6.817A.2.2,0,0,1,923.836,225.685Z" transform="translate(-921.699 -218.461)" fill="#32293a"/>
        </g>
      </g>
      <g id="Grupo_948686" data-name="Grupo 948686" transform="translate(42.019 21.199)">
        <path id="Trazado_634066" data-name="Trazado 634066" d="M785.524,130.993l-.288-.286s.266-.268.433-.434a1.291,1.291,0,0,1-.03-1.387,1.453,1.453,0,0,1,1.391-.743.2.2,0,0,1,.186.219.2.2,0,0,1-.218.187,1.057,1.057,0,0,0-1.007.538.888.888,0,0,0,.014.957.407.407,0,0,1-.052.519C785.788,130.727,785.524,130.993,785.524,130.993Z" transform="translate(-785.236 -128.137)" fill="#32293a"/>
      </g>
      <g id="Grupo_948687" data-name="Grupo 948687" transform="translate(38.88 20.521)">
        <path id="Trazado_634067" data-name="Trazado 634067" d="M774.976,126.785a.2.2,0,0,1-.13-.047.2.2,0,0,1-.026-.286,1.542,1.542,0,0,1,2.159-.253.2.2,0,1,1-.212.346,1.158,1.158,0,0,0-1.635.168A.2.2,0,0,1,774.976,126.785Z" transform="translate(-774.774 -125.877)" fill="#32293a"/>
      </g>
      <path id="Trazado_634068" data-name="Trazado 634068" d="M777.612,130.4a.409.409,0,1,1-.277-.576A.457.457,0,0,1,777.612,130.4Z" transform="translate(-737.326 -108.113)" fill="#32293a"/>
      <path id="Trazado_634069" data-name="Trazado 634069" d="M787.414,131.753a.409.409,0,1,1-.277-.576A.457.457,0,0,1,787.414,131.753Z" transform="translate(-744.187 -109.06)" fill="#32293a"/>
      <g id="Grupo_948688" data-name="Grupo 948688" transform="translate(40.391 24.159)">
        <path id="Trazado_634070" data-name="Trazado 634070" d="M780.495,138.68a.763.763,0,0,1-.281-.057.691.691,0,0,1-.39-.347.2.2,0,0,1,.379-.145.371.371,0,0,0,.181.121.256.256,0,0,0,.181.008.2.2,0,1,1,.178.365A.556.556,0,0,1,780.495,138.68Z" transform="translate(-779.81 -138.001)" fill="#32293a"/>
      </g>
      <g id="Grupo_948689" data-name="Grupo 948689" transform="translate(38.148 25.473)">
        <path id="Trazado_634071" data-name="Trazado 634071" d="M773.841,143.444a.206.206,0,0,1-.052-.007,2.882,2.882,0,0,1-1.4-.716.2.2,0,1,1,.3-.275,2.506,2.506,0,0,0,1.207.6.2.2,0,0,1-.052.4Z" transform="translate(-772.334 -142.381)" fill="#32293a"/>
      </g>
      <g id="Grupo_948690" data-name="Grupo 948690" transform="translate(35.485 29.74)">
        <path id="Trazado_634072" data-name="Trazado 634072" d="M763.662,161.85a.2.2,0,0,1,0-.407,4.5,4.5,0,0,0,3.248-1.372,4.811,4.811,0,0,0,1.421-3.265.2.2,0,0,1,.2-.2h0a.2.2,0,0,1,.2.2,5.161,5.161,0,0,1-1.539,3.554A4.9,4.9,0,0,1,763.662,161.85Z" transform="translate(-763.459 -156.601)" fill="#32293a"/>
      </g>
      <g id="Grupo_948691" data-name="Grupo 948691" transform="translate(81.131 92.688)">
        <path id="Trazado_634073" data-name="Trazado 634073" d="M915.795,382.608a.2.2,0,0,1-.154-.335c.722-.849,1.4-1.8,2.113-2.8,2.835-3.984,6.049-8.5,13.138-7.2,9.935,1.825,15.863,1.449,18.734-5.746a.2.2,0,1,1,.376.151c-2.961,7.418-9.276,7.815-19.184,5.995-6.837-1.254-9.834,2.96-12.735,7.036-.721,1.012-1.4,1.969-2.135,2.831A.2.2,0,0,1,915.795,382.608Z" transform="translate(-915.592 -366.397)" fill="#32293a"/>
      </g>
      <g id="Grupo_948692" data-name="Grupo 948692" transform="translate(10.065 12.249)">
        <path id="Trazado_634074" data-name="Trazado 634074" d="M678.943,110.224h-.009a.2.2,0,0,1-.193-.212,12.984,12.984,0,0,1,5.087-9.313,11.822,11.822,0,0,1,10.2-2.017.2.2,0,0,1-.093.4,11.434,11.434,0,0,0-9.863,1.945,12.565,12.565,0,0,0-4.927,9.008A.2.2,0,0,1,678.943,110.224Z" transform="translate(-678.74 -98.305)" fill="#32293a"/>
      </g>
      <g id="Grupo_948693" data-name="Grupo 948693" transform="translate(115.257 75.875)">
        <path id="Trazado_634075" data-name="Trazado 634075" d="M1031.534,314.789a2.211,2.211,0,0,1-2.089-1.5,2.216,2.216,0,0,1,1.384-2.8,2.206,2.206,0,0,1,2.8,1.387h0a2.212,2.212,0,0,1-2.093,2.921Zm0-4.02a1.807,1.807,0,0,0-.8,3.425,1.8,1.8,0,0,0,2.506-2.2h0a1.805,1.805,0,0,0-1.705-1.228Z" transform="translate(-1029.329 -310.362)" fill="#32293a"/>
      </g>
      <g id="Grupo_948694" data-name="Grupo 948694" transform="translate(55.844 0)">
        <path id="Trazado_634076" data-name="Trazado 634076" d="M832.859,60.58a1.548,1.548,0,1,1,.5-.082A1.561,1.561,0,0,1,832.859,60.58Zm0-2.691a1.142,1.142,0,1,0,1.08.777h0A1.142,1.142,0,0,0,832.859,57.889Z" transform="translate(-831.314 -57.483)" fill="#32293a"/>
      </g>
      <g id="Grupo_948695" data-name="Grupo 948695" transform="translate(0.009 70.328)">
        <path id="Trazado_634077" data-name="Trazado 634077" d="M647.6,296.643a2.385,2.385,0,1,1,2.251-3.147h0a2.382,2.382,0,0,1-2.251,3.147Zm0-4.362a1.979,1.979,0,1,0,1.868,1.345h0a1.977,1.977,0,0,0-1.868-1.345Z" transform="translate(-645.223 -291.874)" fill="#32293a"/>
      </g>
      <g id="Grupo_948696" data-name="Grupo 948696" transform="translate(0 63.872)">
        <path id="Trazado_634078" data-name="Trazado 634078" d="M646.231,272.438a1.041,1.041,0,1,1,.984-1.374h0a1.041,1.041,0,0,1-.651,1.319A1.044,1.044,0,0,1,646.231,272.438Zm0-1.675a.634.634,0,1,0,.6.431h0a.632.632,0,0,0-.6-.431Z" transform="translate(-645.194 -270.357)" fill="#32293a"/>
      </g>
      <g id="Grupo_948697" data-name="Grupo 948697" transform="translate(112.566 69.264)">
        <path id="Trazado_634079" data-name="Trazado 634079" d="M1021.618,290.854a1.263,1.263,0,1,1,1.192-1.666h0a1.26,1.26,0,0,1-1.192,1.666Zm0-2.119a.856.856,0,1,0,.273,1.667.856.856,0,0,0,.105-1.578A.849.849,0,0,0,1021.618,288.735Z" transform="translate(-1020.357 -288.329)" fill="#32293a"/>
      </g>
    </g>
  </g>
</svg>
