<svg xmlns="http://www.w3.org/2000/svg" width="352.766" height="612.718" viewBox="0 0 352.766 612.718">
  <g id="Grupo_950139" data-name="Grupo 950139" transform="translate(-88.678 -1020.191)">
    <g id="Grupo_948807" data-name="Grupo 948807">
      <g id="Grupo_948805" data-name="Grupo 948805">
        <path id="Trazado_634328" data-name="Trazado 634328" d="M424.4,1436.776a1.659,1.659,0,0,1,1.074,2.925l-15.3,12.976,15.3,12.975a1.659,1.659,0,1,1-2.146,2.531l-18.286-15.506,18.286-15.507A1.655,1.655,0,0,1,424.4,1436.776Z" fill="#40327b"/>
        <path id="Trazado_634329" data-name="Trazado 634329" d="M373.571,1150.323h65.872v302.354H409.571" fill="none" stroke="#40327b" stroke-miterlimit="10" stroke-width="4"/>
      </g>
      <g id="Grupo_948806" data-name="Grupo 948806">
        <path id="Trazado_634330" data-name="Trazado 634330" d="M105.718,1166.223a1.659,1.659,0,0,1-1.074-2.924l15.3-12.976-15.3-12.975a1.659,1.659,0,0,1,2.146-2.531l18.287,15.506L106.79,1165.83A1.652,1.652,0,0,1,105.718,1166.223Z" fill="#40327b"/>
        <path id="Trazado_634331" data-name="Trazado 634331" d="M156.55,1452.677H90.678V1150.323H120.55" fill="none" stroke="#40327b" stroke-miterlimit="10" stroke-width="4"/>
      </g>
    </g>
    <g id="Grupo_948810" data-name="Grupo 948810">
      <path id="Trazado_634337" data-name="Trazado 634337" d="M373.926,1077.629a1.66,1.66,0,0,1-1.66-1.66v-32.451H158.959v29.9a1.659,1.659,0,1,1-3.318,0V1040.2H375.585v35.77A1.66,1.66,0,0,1,373.926,1077.629Z" fill="#40327b"/>
      <path id="Trazado_634338" data-name="Trazado 634338" d="M265.613,1020.191a129.98,129.98,0,1,0,129.981,129.98A129.98,129.98,0,0,0,265.613,1020.191Z" fill="#3795a3"/>
      <path id="Trazado_634339" data-name="Trazado 634339" d="M157.3,1125.932a1.659,1.659,0,0,1-1.659-1.66v-50.855a1.659,1.659,0,0,1,3.318,0v50.855A1.66,1.66,0,0,1,157.3,1125.932Z" fill="#40327b"/>
      <g id="Grupo_948809" data-name="Grupo 948809">
        <path id="Trazado_634340" data-name="Trazado 634340" d="M375.585,1260.144H155.641V1176.07a1.659,1.659,0,0,1,3.318,0v80.755H372.266V1075.969a1.66,1.66,0,0,1,3.319,0Z" fill="#40327b"/>
      </g>
      <path id="Trazado_635173" data-name="Trazado 635173" d="M-67.285,0V-11.2h3.094q5.922,0,5.922,5.461a5.5,5.5,0,0,1-1.645,4.168A6.1,6.1,0,0,1-64.316,0Zm1.313-10.016v8.828H-64.3a4.745,4.745,0,0,0,3.43-1.18,4.422,4.422,0,0,0,1.227-3.344q0-4.3-4.578-4.3ZM-49.809-3.68h-5.648a2.992,2.992,0,0,0,.719,2.063,2.478,2.478,0,0,0,1.891.727,3.931,3.931,0,0,0,2.484-.891v1.2a4.643,4.643,0,0,1-2.789.766A3.381,3.381,0,0,1-55.816-.9a4.461,4.461,0,0,1-.969-3.066,4.375,4.375,0,0,1,1.059-3.043A3.394,3.394,0,0,1-53.1-8.187a3.008,3.008,0,0,1,2.43,1.016,4.234,4.234,0,0,1,.859,2.82Zm-1.312-1.086a2.607,2.607,0,0,0-.535-1.727,1.823,1.823,0,0,0-1.465-.617,2.07,2.07,0,0,0-1.539.648,2.943,2.943,0,0,0-.781,1.7ZM-44.16-.078a2.47,2.47,0,0,1-1.2.25q-2.1,0-2.1-2.344V-6.906h-1.375V-8h1.375V-9.953l1.281-.414V-8h2.016v1.094h-2.016V-2.4A1.869,1.869,0,0,0-45.9-1.25,1.091,1.091,0,0,0-45-.906a1.347,1.347,0,0,0,.836-.266Zm8.141-3.6h-5.648a2.992,2.992,0,0,0,.719,2.063,2.478,2.478,0,0,0,1.891.727,3.931,3.931,0,0,0,2.484-.891v1.2a4.643,4.643,0,0,1-2.789.766A3.381,3.381,0,0,1-42.027-.9,4.461,4.461,0,0,1-43-3.969a4.375,4.375,0,0,1,1.059-3.043,3.394,3.394,0,0,1,2.629-1.176,3.008,3.008,0,0,1,2.43,1.016,4.234,4.234,0,0,1,.859,2.82Zm-1.312-1.086a2.607,2.607,0,0,0-.535-1.727,1.823,1.823,0,0,0-1.465-.617,2.07,2.07,0,0,0-1.539.648,2.943,2.943,0,0,0-.781,1.7Zm8.7,4.4a4.163,4.163,0,0,1-2.187.555A3.622,3.622,0,0,1-33.578-.926a4.035,4.035,0,0,1-1.051-2.887A4.435,4.435,0,0,1-33.5-6.988a3.963,3.963,0,0,1,3.023-1.2,4.209,4.209,0,0,1,1.859.391v1.313a3.258,3.258,0,0,0-1.906-.625,2.576,2.576,0,0,0-2.012.879,3.335,3.335,0,0,0-.785,2.309A3.176,3.176,0,0,0-32.578-1.7a2.545,2.545,0,0,0,1.98.813,3.211,3.211,0,0,0,1.969-.7Zm7.391,0a4.163,4.163,0,0,1-2.187.555A3.622,3.622,0,0,1-26.187-.926a4.035,4.035,0,0,1-1.051-2.887,4.435,4.435,0,0,1,1.133-3.176,3.963,3.963,0,0,1,3.023-1.2,4.209,4.209,0,0,1,1.859.391v1.313a3.258,3.258,0,0,0-1.906-.625,2.576,2.576,0,0,0-2.012.879,3.335,3.335,0,0,0-.785,2.309A3.176,3.176,0,0,0-25.187-1.7a2.545,2.545,0,0,0,1.98.813,3.211,3.211,0,0,0,1.969-.7Zm2.594-9.664a.812.812,0,0,1-.586-.234.791.791,0,0,1-.242-.594.8.8,0,0,1,.242-.6.8.8,0,0,1,.586-.238.827.827,0,0,1,.6.238.8.8,0,0,1,.246.6.792.792,0,0,1-.246.586A.82.82,0,0,1-18.645-10.031ZM-18.02,0H-19.3V-8h1.281Zm5.938.188A3.711,3.711,0,0,1-14.914-.934a4.153,4.153,0,0,1-1.059-2.973,4.326,4.326,0,0,1,1.1-3.148,3.96,3.96,0,0,1,2.977-1.133A3.588,3.588,0,0,1-9.1-7.086a4.368,4.368,0,0,1,1,3.055A4.3,4.3,0,0,1-9.18-.965,3.791,3.791,0,0,1-12.082.188Zm.094-7.3a2.437,2.437,0,0,0-1.953.84,3.449,3.449,0,0,0-.719,2.316,3.262,3.262,0,0,0,.727,2.242,2.469,2.469,0,0,0,1.945.82,2.342,2.342,0,0,0,1.91-.8A3.492,3.492,0,0,0-9.41-3.984,3.552,3.552,0,0,0-10.078-6.3,2.332,2.332,0,0,0-11.988-7.109Zm1.875-4.969L-12.16-9.516h-.992l1.742-2.562ZM.59,0H-.691V-4.562q0-2.547-1.859-2.547a2.017,2.017,0,0,0-1.59.723A2.679,2.679,0,0,0-4.77-4.562V0H-6.051V-8H-4.77v1.328h.031A2.887,2.887,0,0,1-2.113-8.187,2.448,2.448,0,0,1-.105-7.34a3.776,3.776,0,0,1,.7,2.449ZM13.754-8l-3.68,9.281Q9.09,3.766,7.309,3.766a2.932,2.932,0,0,1-.836-.1V2.516a2.375,2.375,0,0,0,.758.141A1.57,1.57,0,0,0,8.684,1.5L9.324-.016,6.2-8H7.621L9.785-1.844q.039.117.164.609H10q.039-.187.156-.594L12.426-8ZM25.238,0H23.957V-1.25h-.031A2.682,2.682,0,0,1,21.465.188a2.63,2.63,0,0,1-1.871-.633,2.192,2.192,0,0,1-.676-1.68q0-2.242,2.641-2.609l2.4-.336q0-2.039-1.648-2.039a3.938,3.938,0,0,0-2.609.984V-7.437a4.958,4.958,0,0,1,2.719-.75q2.82,0,2.82,2.984ZM23.957-4.047l-1.93.266a3.133,3.133,0,0,0-1.344.441,1.273,1.273,0,0,0-.453,1.121,1.221,1.221,0,0,0,.418.957,1.615,1.615,0,0,0,1.113.371,2.056,2.056,0,0,0,1.574-.668,2.387,2.387,0,0,0,.621-1.691ZM34.293,0H33.012V-4.562q0-2.547-1.859-2.547a2.017,2.017,0,0,0-1.59.723,2.679,2.679,0,0,0-.629,1.824V0H27.652V-8h1.281v1.328h.031A2.887,2.887,0,0,1,31.59-8.187,2.448,2.448,0,0,1,33.6-7.34a3.776,3.776,0,0,1,.7,2.449Zm8.141,0H41.152V-1.25h-.031A2.682,2.682,0,0,1,38.66.188a2.63,2.63,0,0,1-1.871-.633,2.192,2.192,0,0,1-.676-1.68q0-2.242,2.641-2.609l2.4-.336q0-2.039-1.648-2.039a3.938,3.938,0,0,0-2.609.984V-7.437a4.958,4.958,0,0,1,2.719-.75q2.82,0,2.82,2.984ZM41.152-4.047l-1.93.266a3.133,3.133,0,0,0-1.344.441,1.273,1.273,0,0,0-.453,1.121,1.221,1.221,0,0,0,.418.957,1.615,1.615,0,0,0,1.113.371,2.056,2.056,0,0,0,1.574-.668,2.387,2.387,0,0,0,.621-1.691Zm.172-8.031L39.277-9.516h-.992l1.742-2.562ZM46.129,0H44.848V-11.844h1.281Zm3.25-10.031a.812.812,0,0,1-.586-.234.791.791,0,0,1-.242-.594.8.8,0,0,1,.242-.6.8.8,0,0,1,.586-.238.827.827,0,0,1,.6.238.8.8,0,0,1,.246.6.792.792,0,0,1-.246.586A.82.82,0,0,1,49.379-10.031ZM50,0H48.723V-8H50Zm2.109-.289V-1.664a3.792,3.792,0,0,0,2.3.773q1.688,0,1.688-1.125a.976.976,0,0,0-.145-.543,1.44,1.44,0,0,0-.391-.395,3.007,3.007,0,0,0-.578-.309q-.332-.137-.715-.285a9.207,9.207,0,0,1-.934-.426,2.82,2.82,0,0,1-.672-.484,1.8,1.8,0,0,1-.406-.613,2.17,2.17,0,0,1-.137-.8,1.912,1.912,0,0,1,.258-1,2.286,2.286,0,0,1,.688-.727,3.206,3.206,0,0,1,.98-.441,4.349,4.349,0,0,1,1.137-.148,4.59,4.59,0,0,1,1.859.359v1.3a3.624,3.624,0,0,0-2.031-.578,2.374,2.374,0,0,0-.648.082,1.587,1.587,0,0,0-.5.23,1.065,1.065,0,0,0-.32.355.936.936,0,0,0-.113.457,1.1,1.1,0,0,0,.113.523,1.152,1.152,0,0,0,.332.375,2.538,2.538,0,0,0,.531.3q.312.133.711.289a9.894,9.894,0,0,1,.953.418A3.269,3.269,0,0,1,56.8-3.6a1.893,1.893,0,0,1,.457.621,2,2,0,0,1,.16.836,1.971,1.971,0,0,1-.262,1.031,2.243,2.243,0,0,1-.7.727,3.2,3.2,0,0,1-1.008.43,4.976,4.976,0,0,1-1.2.141A4.539,4.539,0,0,1,52.113-.289Zm7.93-9.742a.812.812,0,0,1-.586-.234.791.791,0,0,1-.242-.594.8.8,0,0,1,.242-.6.8.8,0,0,1,.586-.238.827.827,0,0,1,.6.238.8.8,0,0,1,.246.6.792.792,0,0,1-.246.586A.82.82,0,0,1,60.043-10.031ZM60.668,0H59.387V-8h1.281Zm2.109-.289V-1.664a3.792,3.792,0,0,0,2.3.773q1.688,0,1.688-1.125a.976.976,0,0,0-.145-.543,1.44,1.44,0,0,0-.391-.395,3.007,3.007,0,0,0-.578-.309q-.332-.137-.715-.285a9.207,9.207,0,0,1-.934-.426,2.82,2.82,0,0,1-.672-.484,1.8,1.8,0,0,1-.406-.613,2.17,2.17,0,0,1-.137-.8,1.912,1.912,0,0,1,.258-1,2.286,2.286,0,0,1,.688-.727,3.206,3.206,0,0,1,.98-.441,4.349,4.349,0,0,1,1.137-.148,4.59,4.59,0,0,1,1.859.359v1.3a3.624,3.624,0,0,0-2.031-.578,2.374,2.374,0,0,0-.648.082,1.587,1.587,0,0,0-.5.23,1.065,1.065,0,0,0-.32.355.936.936,0,0,0-.113.457,1.1,1.1,0,0,0,.113.523,1.152,1.152,0,0,0,.332.375,2.538,2.538,0,0,0,.531.3q.313.133.711.289a9.9,9.9,0,0,1,.953.418,3.269,3.269,0,0,1,.719.484,1.893,1.893,0,0,1,.457.621,2,2,0,0,1,.16.836,1.971,1.971,0,0,1-.262,1.031,2.243,2.243,0,0,1-.7.727,3.2,3.2,0,0,1-1.008.43,4.976,4.976,0,0,1-1.2.141A4.539,4.539,0,0,1,62.777-.289Z" transform="translate(265.202 1216.544)" fill="#fff"/>
      <g id="Grupo_948513" data-name="Grupo 948513">
        <g id="Grupo_948512" data-name="Grupo 948512">
          <g id="Grupo_948511" data-name="Grupo 948511">
            <g id="Grupo_948505" data-name="Grupo 948505">
              <rect id="Rectángulo_34822" data-name="Rectángulo 34822" width="54.096" height="96.211" rx="3" transform="translate(239.341 1079.905)" fill="#242d3c"/>
              <path id="Rectángulo_34822_-_Contorno" data-name="Rectángulo 34822 - Contorno" d="M241.233,1078.79h50.3a3.014,3.014,0,0,1,3.018,3.007v92.423a3.014,3.014,0,0,1-3.011,3.011H241.233a3.014,3.014,0,0,1-3.01-3.01V1081.8A3.014,3.014,0,0,1,241.233,1078.79ZM291.541,1175a.782.782,0,0,0,.781-.781V1081.8a.782.782,0,0,0-.781-.781H241.233a.783.783,0,0,0-.777.781v92.423a.782.782,0,0,0,.777.777Z" fill="#252425"/>
              <rect id="Rectángulo_34823" data-name="Rectángulo 34823" width="54.096" height="80.055" transform="translate(239.341 1088.911)" fill="#fff"/>
              <path id="Rectángulo_34823_-_Contorno" data-name="Rectángulo 34823 - Contorno" d="M238.153,1087.723h56.471v82.43H238.153Zm54.1,2.378H240.531v77.677h51.72Z" fill="#252425"/>
              <g id="Grupo_948504" data-name="Grupo 948504">
                <path id="Trazado_633771" data-name="Trazado 633771" d="M271.027,1083.875a.8.8,0,0,1-.8.8H259.894a.8.8,0,0,1-.8-.8h0a.8.8,0,0,1,.8-.8h10.338A.8.8,0,0,1,271.027,1083.875Z" fill="#fff"/>
                <path id="Trazado_633772" data-name="Trazado 633772" d="M273.678,1083.743a.928.928,0,1,1-.928-.928.928.928,0,0,1,.928.928Z" fill="#fff"/>
              </g>
              <path id="Trazado_633773" data-name="Trazado 633773" d="M239.341,1088.915v80.055h54.1Z" fill="#c6c6c5"/>
            </g>
            <g id="Grupo_948506" data-name="Grupo 948506">
              <rect id="Rectángulo_34824" data-name="Rectángulo 34824" width="42.624" height="30.292" rx="3" transform="translate(245.077 1112.864)" fill="#583ae2"/>
              <path id="Rectángulo_34824_-_Contorno" data-name="Rectángulo 34824 - Contorno" d="M249.625,1112.361h33.526a5.05,5.05,0,0,1,5.051,5.051v21.2a5.051,5.051,0,0,1-5.051,5.047H249.625a5.051,5.051,0,0,1-5.051-5.051h0v-21.2a5.051,5.051,0,0,1,5.051-5.051Zm33.526,30.292a4.049,4.049,0,0,0,4.045-4.045v-21.2a4.049,4.049,0,0,0-4.045-4.044H249.625a4.05,4.05,0,0,0-4.044,4.044v21.2a4.05,4.05,0,0,0,4.044,4.044Z" fill="#252425"/>
              <rect id="Rectángulo_34825" data-name="Rectángulo 34825" width="42.624" height="5.552" transform="translate(245.077 1121.565)" fill="#252425"/>
              <rect id="Rectángulo_34826" data-name="Rectángulo 34826" width="23.816" height="1.087" transform="translate(248.687 1130.642)" fill="#fff"/>
              <rect id="Rectángulo_34827" data-name="Rectángulo 34827" width="16.515" height="1.086" transform="translate(248.687 1133.331)" fill="#fff"/>
              <rect id="Rectángulo_34828" data-name="Rectángulo 34828" width="28.243" height="1.087" transform="translate(248.687 1136.072)" fill="#fff"/>
            </g>
            <g id="Grupo_948509" data-name="Grupo 948509">
              <path id="Trazado_633774" data-name="Trazado 633774" d="M307.979,1148.339a17.1,17.1,0,1,1-17.1-17.1,17.1,17.1,0,0,1,17.1,17.1Z" fill="#bee7ed"/>
              <path id="Trazado_633774_-_Contorno" data-name="Trazado 633774 - Contorno" d="M290.884,1130.74a17.542,17.542,0,1,1-6.851,1.383A17.543,17.543,0,0,1,290.884,1130.74Zm0,34.191a16.593,16.593,0,1,0-16.593-16.593h0a16.612,16.612,0,0,0,16.593,16.594Z" fill="#252425"/>
              <g id="Grupo_948508" data-name="Grupo 948508">
                <g id="Grupo_948507" data-name="Grupo 948507">
                  <path id="Trazado_633775" data-name="Trazado 633775" d="M297.383,1145.24h-13v-3.723a6.069,6.069,0,0,1,6.061-6.062h.876a6.068,6.068,0,0,1,6.061,6.062Zm-11.1-.657h9.2v-3.066a4.168,4.168,0,0,0-4.163-4.163h-.876a4.168,4.168,0,0,0-4.163,4.163Z" fill="#353c45"/>
                  <path id="Trazado_633775_-_Contorno" data-name="Trazado 633775 - Contorno" d="M297.69,1145.546H284.077v-4.031a6.376,6.376,0,0,1,6.368-6.368h.876a6.375,6.375,0,0,1,6.368,6.368Zm-13-.613h12.385v-3.418a5.76,5.76,0,0,0-5.754-5.755h-.876a5.762,5.762,0,0,0-5.754,5.755Zm11.1-.043h-9.816v-3.375a4.475,4.475,0,0,1,4.47-4.47h.876a4.475,4.475,0,0,1,4.47,4.47Zm-9.2-.614h8.588v-2.761a3.86,3.86,0,0,0-3.856-3.855h-.876a3.861,3.861,0,0,0-3.856,3.855Z" fill="#252425"/>
                </g>
                <path id="Rectángulo_34829" data-name="Rectángulo 34829" d="M285.931,1144.459h9.906a3.429,3.429,0,0,1,3.429,3.429v9.908a3.429,3.429,0,0,1-3.429,3.429h-9.906a3.43,3.43,0,0,1-3.43-3.43v-9.906a3.43,3.43,0,0,1,3.43-3.43Z" fill="#00b0c2"/>
                <path id="Rectángulo_34829_-_Contorno" data-name="Rectángulo 34829 - Contorno" d="M283.968,1144.152H297.8a1.775,1.775,0,0,1,1.773,1.773v13.833a1.774,1.774,0,0,1-1.773,1.773H283.967a1.776,1.776,0,0,1-1.773-1.773v-13.832A1.776,1.776,0,0,1,283.968,1144.152Zm13.832,16.766a1.16,1.16,0,0,0,1.159-1.159v-13.834a1.161,1.161,0,0,0-1.159-1.155H283.968a1.162,1.162,0,0,0-1.156,1.156v13.832a1.161,1.161,0,0,0,1.159,1.159Z" fill="#252425"/>
                <path id="Trazado_633776" data-name="Trazado 633776" d="M292.652,1153.172a6.827,6.827,0,0,0,5.115,1.11.232.232,0,0,1,.035-.005v-7.082a1.153,1.153,0,0,0-1.153-1.153h-4.813a4.991,4.991,0,0,0,.686,7.026C292.565,1153.1,292.608,1153.138,292.652,1153.172Z" fill="#fff" opacity="0.5" style="isolation: isolate"/>
                <path id="Trazado_633777" data-name="Trazado 633777" d="M295.858,1160.115a10.7,10.7,0,0,1-6.533-1.468,8.691,8.691,0,0,1-3.791-5.539c-.489-2.277-.5-6.348,1.047-8.648h-2.617a1.468,1.468,0,0,0-1.467,1.466v13.836a1.469,1.469,0,0,0,1.467,1.468H297.8a1.468,1.468,0,0,0,1.467-1.468v-.377A12.647,12.647,0,0,1,295.858,1160.115Z" fill="#c6c6c5"/>
                <path id="Trazado_633778" data-name="Trazado 633778" d="M292.442,1151.149a1.558,1.558,0,1,0-2.055,1.477l-.535,3.465h2.065l-.571-3.453A1.559,1.559,0,0,0,292.442,1151.149Z" fill="#005a62"/>
                <path id="Trazado_633778_-_Contorno" data-name="Trazado 633778 - Contorno" d="M290.884,1149.286a1.865,1.865,0,0,1,.8,3.547l.59,3.565h-2.785l.553-3.582a1.865,1.865,0,0,1,.838-3.531Zm.67,6.5-.556-3.36.256-.079a1.253,1.253,0,1,0-.769-.01l.245.083-.52,3.367Z" fill="#252425"/>
              </g>
            </g>
            <g id="Grupo_948510" data-name="Grupo 948510">
              <rect id="Rectángulo_34830" data-name="Rectángulo 34830" width="8.362" height="5.438" transform="matrix(0.325, -0.946, 0.946, 0.325, 224.948, 1143.406)" fill="#364359"/>
              <path id="Rectángulo_34830_-_Contorno" data-name="Rectángulo 34830 - Contorno" d="M223.651,1144.039l3.382-9.835,7.073,2.432-3.382,9.835Zm4.649-7.244-2.055,5.978,3.215,1.105,2.056-5.977Z" fill="#252425"/>
              <path id="Trazado_633779" data-name="Trazado 633779" d="M252.77,1121.136a16.349,16.349,0,1,1-10.145-20.776h0A16.349,16.349,0,0,1,252.77,1121.136Z" fill="#8acfe4" opacity="0.5" style="isolation: isolate"/>
              <path id="Trazado_633780" data-name="Trazado 633780" d="M244.537,1094.8a22.23,22.23,0,1,0,13.794,28.25h0A22.232,22.232,0,0,0,244.537,1094.8Zm-12.544,36.481a16.348,16.348,0,1,1,20.776-10.144,16.348,16.348,0,0,1-20.776,10.144Z" fill="#364359"/>
              <path id="Trazado_633780_-_Contorno" data-name="Trazado 633780 - Contorno" d="M237.307,1092.564h0a23.3,23.3,0,1,1-7.042,1.1,23.305,23.305,0,0,1,7.042-1.1Zm0,44.471a21.238,21.238,0,1,0-6.9-1.158,21.239,21.239,0,0,0,6.9,1.158Zm0-38.589a17.4,17.4,0,1,1-5.261.819,17.4,17.4,0,0,1,5.261-.819Zm0,32.706a15.352,15.352,0,1,0-4.986-.837,15.352,15.352,0,0,0,4.986.837Z" fill="#252425"/>
              <path id="Trazado_633781" data-name="Trazado 633781" d="M222.718,1174.87a1.843,1.843,0,0,1-2.342,1.146h0l-6.729-2.313a1.843,1.843,0,0,1-1.145-2.343h0l9.606-27.938a1.844,1.844,0,0,1,2.345-1.145h0l6.729,2.314a1.845,1.845,0,0,1,1.146,2.343h0Z" fill="#45bbcc"/>
              <path id="Trazado_633781_-_Contorno" data-name="Trazado 633781 - Contorno" d="M220.974,1177.134a2.87,2.87,0,0,1-.932-.156l-6.729-2.314a2.865,2.865,0,0,1-1.779-3.639v0l9.606-27.938a2.867,2.867,0,0,1,2.709-1.934,2.815,2.815,0,0,1,.932.157l6.729,2.313a2.864,2.864,0,0,1,1.778,3.641h0l-9.607,27.938A2.866,2.866,0,0,1,220.974,1177.134Zm2.877-33.943a.824.824,0,0,0-.78.558l-9.61,27.939a.822.822,0,0,0,.51,1.046h0l6.729,2.314a.822.822,0,0,0,1.046-.505l0-.007,9.607-27.937a.823.823,0,0,0-.51-1.048h0l-6.73-2.314a.817.817,0,0,0-.264-.05Z" fill="#252425"/>
              <path id="Trazado_633782" data-name="Trazado 633782" d="M217.988,1164.731a67.785,67.785,0,0,1,3.245-10.092c.7-1.889,1.334-3.812,2.176-5.645a16.485,16.485,0,0,1,3.924-5.73l-2.882-.991a1.845,1.845,0,0,0-2.345,1.145h0l-9.606,27.938a1.845,1.845,0,0,0,1.144,2.344h0l6.433,2.213A13.956,13.956,0,0,1,217.988,1164.731Z" fill="#c6c6c5"/>
              <path id="Trazado_633783" data-name="Trazado 633783" d="M248.464,1112.831a4.72,4.72,0,1,1-2.929-6,4.72,4.72,0,0,1,2.929,6Z" fill="#fff"/>
              <path id="Trazado_633783_-_Contorno" data-name="Trazado 633783 - Contorno" d="M244,1116.608a5.314,5.314,0,1,1,5.022-3.585A5.312,5.312,0,0,1,244,1116.608Zm0-9.442a4.132,4.132,0,1,0,1.343.226,4.132,4.132,0,0,0-1.343-.226Z" fill="#252425"/>
            </g>
          </g>
        </g>
        <rect id="Rectángulo_34831" data-name="Rectángulo 34831" width="105" height="110" transform="translate(207.43 1074.51)" fill="none"/>
      </g>
    </g>
    <g id="Grupo_948811" data-name="Grupo 948811">
      <path id="Trazado_634341" data-name="Trazado 634341" d="M155.641,1560.193V1340.249h33.3a1.659,1.659,0,1,1,0,3.318H158.959v213.308H188.94a1.659,1.659,0,1,1,0,3.318Z" fill="#40327b"/>
      <path id="Trazado_634342" data-name="Trazado 634342" d="M395.594,1450.221A129.981,129.981,0,1,0,265.613,1580.2,129.982,129.982,0,0,0,395.594,1450.221Z" fill="#45bbcc"/>
      <path id="Trazado_634343" data-name="Trazado 634343" d="M187.281,1558.534a1.659,1.659,0,0,1,1.659-1.659h78.332v72.013a1.659,1.659,0,1,1-3.318,0v-68.695H188.94A1.659,1.659,0,0,1,187.281,1558.534Z" fill="#40327b"/>
      <path id="Trazado_634344" data-name="Trazado 634344" d="M187.281,1341.908a1.659,1.659,0,0,1,1.66-1.659H375.585v219.944h-94.6a1.659,1.659,0,1,1,0-3.318h91.283V1343.567H188.941A1.66,1.66,0,0,1,187.281,1341.908Z" fill="#40327b"/>
      <path id="Trazado_634345" data-name="Trazado 634345" d="M249.713,1613.55a1.659,1.659,0,0,1,2.924-1.074l12.976,15.3,12.975-15.3a1.66,1.66,0,0,1,2.531,2.147l-15.506,18.286-15.506-18.286A1.651,1.651,0,0,1,249.713,1613.55Z" fill="#40327b"/>
      <path id="Trazado_635174" data-name="Trazado 635174" d="M-80.539-.469a6.571,6.571,0,0,1-3.094.656,4.989,4.989,0,0,1-3.828-1.539A5.679,5.679,0,0,1-88.9-5.391a5.952,5.952,0,0,1,1.617-4.344,5.489,5.489,0,0,1,4.1-1.656,6.576,6.576,0,0,1,2.641.461v1.4A5.355,5.355,0,0,0-83.2-10.2a4.076,4.076,0,0,0-3.129,1.289,4.856,4.856,0,0,0-1.2,3.445A4.621,4.621,0,0,0-86.4-2.207,3.815,3.815,0,0,0-83.461-.992a5.518,5.518,0,0,0,2.922-.75Zm5.453.656A3.711,3.711,0,0,1-77.918-.934a4.153,4.153,0,0,1-1.059-2.973,4.326,4.326,0,0,1,1.1-3.148A3.96,3.96,0,0,1-74.9-8.187a3.588,3.588,0,0,1,2.793,1.1,4.368,4.368,0,0,1,1,3.055A4.3,4.3,0,0,1-72.184-.965,3.791,3.791,0,0,1-75.086.188Zm.094-7.3a2.437,2.437,0,0,0-1.953.84,3.449,3.449,0,0,0-.719,2.316,3.262,3.262,0,0,0,.727,2.242,2.469,2.469,0,0,0,1.945.82,2.342,2.342,0,0,0,1.91-.8,3.492,3.492,0,0,0,.668-2.289A3.552,3.552,0,0,0-73.082-6.3,2.332,2.332,0,0,0-74.992-7.109ZM-62.414,0H-63.7V-4.562q0-2.547-1.859-2.547a2.017,2.017,0,0,0-1.59.723,2.679,2.679,0,0,0-.629,1.824V0h-1.281V-8h1.281v1.328h.031a2.887,2.887,0,0,1,2.625-1.516,2.448,2.448,0,0,1,2.008.848,3.776,3.776,0,0,1,.7,2.449Zm6.125-.078a2.47,2.47,0,0,1-1.2.25q-2.1,0-2.1-2.344V-6.906h-1.375V-8h1.375V-9.953l1.281-.414V-8h2.016v1.094H-58.3V-2.4a1.869,1.869,0,0,0,.273,1.148,1.091,1.091,0,0,0,.906.344,1.347,1.347,0,0,0,.836-.266Zm8.141-3.6H-53.8a2.992,2.992,0,0,0,.719,2.063,2.478,2.478,0,0,0,1.891.727A3.931,3.931,0,0,0-48.7-1.781v1.2a4.643,4.643,0,0,1-2.789.766A3.381,3.381,0,0,1-54.156-.9a4.461,4.461,0,0,1-.969-3.066,4.375,4.375,0,0,1,1.059-3.043,3.394,3.394,0,0,1,2.629-1.176,3.008,3.008,0,0,1,2.43,1.016,4.234,4.234,0,0,1,.859,2.82Zm-1.312-1.086A2.607,2.607,0,0,0-50-6.492a1.823,1.823,0,0,0-1.465-.617A2.07,2.07,0,0,0-53-6.461a2.943,2.943,0,0,0-.781,1.7ZM-39.57,0h-1.281V-4.562q0-2.547-1.859-2.547a2.017,2.017,0,0,0-1.59.723,2.679,2.679,0,0,0-.629,1.824V0h-1.281V-8h1.281v1.328h.031a2.887,2.887,0,0,1,2.625-1.516,2.448,2.448,0,0,1,2.008.848,3.776,3.776,0,0,1,.7,2.449ZM-31.7-.367a4.163,4.163,0,0,1-2.187.555A3.622,3.622,0,0,1-36.652-.926,4.035,4.035,0,0,1-37.7-3.812,4.435,4.435,0,0,1-36.57-6.988a3.963,3.963,0,0,1,3.023-1.2,4.209,4.209,0,0,1,1.859.391v1.313a3.258,3.258,0,0,0-1.906-.625,2.576,2.576,0,0,0-2.012.879,3.335,3.335,0,0,0-.785,2.309A3.176,3.176,0,0,0-35.652-1.7a2.545,2.545,0,0,0,1.98.813,3.211,3.211,0,0,0,1.969-.7Zm2.594-9.664a.812.812,0,0,1-.586-.234.791.791,0,0,1-.242-.594.8.8,0,0,1,.242-.6.8.8,0,0,1,.586-.238.827.827,0,0,1,.6.238.8.8,0,0,1,.246.6.792.792,0,0,1-.246.586A.82.82,0,0,1-29.109-10.031ZM-28.484,0h-1.281V-8h1.281Zm5.938.188A3.711,3.711,0,0,1-25.379-.934a4.153,4.153,0,0,1-1.059-2.973,4.326,4.326,0,0,1,1.1-3.148,3.96,3.96,0,0,1,2.977-1.133,3.588,3.588,0,0,1,2.793,1.1,4.368,4.368,0,0,1,1,3.055A4.3,4.3,0,0,1-19.645-.965,3.791,3.791,0,0,1-22.547.188Zm.094-7.3a2.437,2.437,0,0,0-1.953.84,3.449,3.449,0,0,0-.719,2.316A3.262,3.262,0,0,0-24.4-1.711a2.469,2.469,0,0,0,1.945.82,2.342,2.342,0,0,0,1.91-.8,3.492,3.492,0,0,0,.668-2.289A3.552,3.552,0,0,0-20.543-6.3,2.332,2.332,0,0,0-22.453-7.109Zm1.875-4.969-2.047,2.563h-.992l1.742-2.562ZM-9.875,0h-1.281V-4.562q0-2.547-1.859-2.547a2.017,2.017,0,0,0-1.59.723,2.679,2.679,0,0,0-.629,1.824V0h-1.281V-8h1.281v1.328h.031a2.887,2.887,0,0,1,2.625-1.516,2.448,2.448,0,0,1,2.008.848,3.776,3.776,0,0,1,.7,2.449Zm3.586-1.781-1.25,3.844h-.914l.914-3.844ZM6.82-3.68H1.172a2.992,2.992,0,0,0,.719,2.063,2.478,2.478,0,0,0,1.891.727,3.931,3.931,0,0,0,2.484-.891v1.2A4.643,4.643,0,0,1,3.477.188,3.381,3.381,0,0,1,.813-.9,4.461,4.461,0,0,1-.156-3.969,4.375,4.375,0,0,1,.9-7.012,3.394,3.394,0,0,1,3.531-8.187a3.008,3.008,0,0,1,2.43,1.016,4.234,4.234,0,0,1,.859,2.82ZM5.508-4.766a2.607,2.607,0,0,0-.535-1.727,1.823,1.823,0,0,0-1.465-.617,2.07,2.07,0,0,0-1.539.648,2.943,2.943,0,0,0-.781,1.7ZM12.93-6.7a1.567,1.567,0,0,0-.969-.258,1.635,1.635,0,0,0-1.371.773,3.576,3.576,0,0,0-.551,2.109V0H8.758V-8h1.281v1.648h.031a2.793,2.793,0,0,1,.836-1.316,1.906,1.906,0,0,1,1.258-.473,2.092,2.092,0,0,1,.766.109Zm5.563,0a1.567,1.567,0,0,0-.969-.258,1.635,1.635,0,0,0-1.371.773A3.576,3.576,0,0,0,15.6-4.078V0H14.32V-8H15.6v1.648h.031a2.793,2.793,0,0,1,.836-1.316,1.906,1.906,0,0,1,1.258-.473,2.092,2.092,0,0,1,.766.109ZM25.609,0H24.328V-1.25H24.3A2.682,2.682,0,0,1,21.836.188a2.63,2.63,0,0,1-1.871-.633,2.192,2.192,0,0,1-.676-1.68q0-2.242,2.641-2.609l2.4-.336q0-2.039-1.648-2.039a3.938,3.938,0,0,0-2.609.984V-7.437a4.958,4.958,0,0,1,2.719-.75q2.82,0,2.82,2.984ZM24.328-4.047l-1.93.266a3.133,3.133,0,0,0-1.344.441A1.273,1.273,0,0,0,20.6-2.219a1.221,1.221,0,0,0,.418.957,1.615,1.615,0,0,0,1.113.371,2.056,2.056,0,0,0,1.574-.668,2.387,2.387,0,0,0,.621-1.691ZM34.852,0H33.57V-1.359h-.031A2.958,2.958,0,0,1,30.789.188a2.988,2.988,0,0,1-2.41-1.074,4.407,4.407,0,0,1-.9-2.926,4.794,4.794,0,0,1,1-3.18,3.3,3.3,0,0,1,2.664-1.2,2.564,2.564,0,0,1,2.4,1.3h.031v-4.953h1.281ZM33.57-3.617V-4.8a2.289,2.289,0,0,0-.641-1.641A2.149,2.149,0,0,0,31.3-7.109a2.212,2.212,0,0,0-1.844.859,3.766,3.766,0,0,0-.672,2.375,3.387,3.387,0,0,0,.645,2.184,2.107,2.107,0,0,0,1.73.8A2.188,2.188,0,0,0,32.9-1.664,2.882,2.882,0,0,0,33.57-3.617ZM38.1-10.031a.812.812,0,0,1-.586-.234.791.791,0,0,1-.242-.594.8.8,0,0,1,.242-.6A.8.8,0,0,1,38.1-11.7a.827.827,0,0,1,.6.238.8.8,0,0,1,.246.6.792.792,0,0,1-.246.586A.82.82,0,0,1,38.1-10.031ZM38.727,0H37.445V-8h1.281Zm8.047-.367a4.163,4.163,0,0,1-2.187.555A3.622,3.622,0,0,1,41.824-.926a4.035,4.035,0,0,1-1.051-2.887,4.435,4.435,0,0,1,1.133-3.176,3.963,3.963,0,0,1,3.023-1.2,4.209,4.209,0,0,1,1.859.391v1.313a3.258,3.258,0,0,0-1.906-.625,2.576,2.576,0,0,0-2.012.879,3.335,3.335,0,0,0-.785,2.309A3.176,3.176,0,0,0,42.824-1.7a2.545,2.545,0,0,0,1.98.813,3.211,3.211,0,0,0,1.969-.7ZM54.438,0H53.156V-1.25h-.031A2.682,2.682,0,0,1,50.664.188a2.63,2.63,0,0,1-1.871-.633,2.192,2.192,0,0,1-.676-1.68q0-2.242,2.641-2.609l2.4-.336q0-2.039-1.648-2.039a3.938,3.938,0,0,0-2.609.984V-7.437a4.958,4.958,0,0,1,2.719-.75q2.82,0,2.82,2.984ZM53.156-4.047l-1.93.266a3.133,3.133,0,0,0-1.344.441,1.273,1.273,0,0,0-.453,1.121,1.221,1.221,0,0,0,.418.957,1.615,1.615,0,0,0,1.113.371,2.056,2.056,0,0,0,1.574-.668,2.387,2.387,0,0,0,.621-1.691ZM62.3-.367a4.163,4.163,0,0,1-2.187.555A3.622,3.622,0,0,1,57.355-.926,4.035,4.035,0,0,1,56.3-3.812a4.435,4.435,0,0,1,1.133-3.176,3.963,3.963,0,0,1,3.023-1.2A4.209,4.209,0,0,1,62.32-7.8v1.313a3.258,3.258,0,0,0-1.906-.625A2.576,2.576,0,0,0,58.4-6.23a3.335,3.335,0,0,0-.785,2.309A3.176,3.176,0,0,0,58.355-1.7a2.545,2.545,0,0,0,1.98.813,3.211,3.211,0,0,0,1.969-.7ZM64.9-10.031a.812.812,0,0,1-.586-.234.791.791,0,0,1-.242-.594.8.8,0,0,1,.242-.6A.8.8,0,0,1,64.9-11.7a.827.827,0,0,1,.6.238.8.8,0,0,1,.246.6.792.792,0,0,1-.246.586A.82.82,0,0,1,64.9-10.031ZM65.523,0H64.242V-8h1.281Zm5.938.188A3.711,3.711,0,0,1,68.629-.934,4.153,4.153,0,0,1,67.57-3.906a4.326,4.326,0,0,1,1.1-3.148,3.96,3.96,0,0,1,2.977-1.133,3.588,3.588,0,0,1,2.793,1.1,4.368,4.368,0,0,1,1,3.055A4.3,4.3,0,0,1,74.363-.965,3.791,3.791,0,0,1,71.461.188Zm.094-7.3a2.437,2.437,0,0,0-1.953.84,3.449,3.449,0,0,0-.719,2.316,3.262,3.262,0,0,0,.727,2.242,2.469,2.469,0,0,0,1.945.82,2.342,2.342,0,0,0,1.91-.8,3.492,3.492,0,0,0,.668-2.289A3.552,3.552,0,0,0,73.465-6.3,2.332,2.332,0,0,0,71.555-7.109Zm1.875-4.969L71.383-9.516h-.992l1.742-2.562ZM84.133,0H82.852V-4.562q0-2.547-1.859-2.547a2.017,2.017,0,0,0-1.59.723,2.679,2.679,0,0,0-.629,1.824V0H77.492V-8h1.281v1.328H78.8A2.887,2.887,0,0,1,81.43-8.187a2.448,2.448,0,0,1,2.008.848,3.776,3.776,0,0,1,.7,2.449Zm-128.3,11.2-3.68,9.281q-.984,2.484-2.766,2.484a2.931,2.931,0,0,1-.836-.1V21.716a2.375,2.375,0,0,0,.758.141A1.57,1.57,0,0,0-49.242,20.7l.641-1.516L-51.727,11.2H-50.3l2.164,6.156q.039.117.164.609h.047q.039-.187.156-.594L-45.5,11.2Zm9.93,1.3a1.567,1.567,0,0,0-.969-.258,1.635,1.635,0,0,0-1.371.773,3.576,3.576,0,0,0-.551,2.109V19.2h-1.281v-8h1.281v1.648h.031a2.794,2.794,0,0,1,.836-1.316,1.906,1.906,0,0,1,1.258-.473,2.092,2.092,0,0,1,.766.109Zm7.82,3.023H-32.07a2.992,2.992,0,0,0,.719,2.063,2.478,2.478,0,0,0,1.891.727,3.931,3.931,0,0,0,2.484-.891v1.2a4.643,4.643,0,0,1-2.789.766A3.381,3.381,0,0,1-32.43,18.3a4.461,4.461,0,0,1-.969-3.066,4.375,4.375,0,0,1,1.059-3.043,3.394,3.394,0,0,1,2.629-1.176,3.008,3.008,0,0,1,2.43,1.016,4.234,4.234,0,0,1,.859,2.82Zm-1.312-1.086a2.607,2.607,0,0,0-.535-1.727,1.823,1.823,0,0,0-1.465-.617,2.07,2.07,0,0,0-1.539.648,2.943,2.943,0,0,0-.781,1.7Zm8.7,4.4a4.163,4.163,0,0,1-2.187.555,3.622,3.622,0,0,1-2.762-1.113,4.035,4.035,0,0,1-1.051-2.887A4.435,4.435,0,0,1-23.9,12.212a3.963,3.963,0,0,1,3.023-1.2,4.209,4.209,0,0,1,1.859.391v1.313a3.258,3.258,0,0,0-1.906-.625,2.576,2.576,0,0,0-2.012.879,3.335,3.335,0,0,0-.785,2.309A3.176,3.176,0,0,0-22.98,17.5a2.545,2.545,0,0,0,1.98.813,3.211,3.211,0,0,0,1.969-.7Zm8.406.367h-1.281V17.934h-.031a2.631,2.631,0,0,1-2.469,1.453q-2.859,0-2.859-3.406V11.2h1.273v4.578q0,2.531,1.938,2.531a1.96,1.96,0,0,0,1.543-.691,2.645,2.645,0,0,0,.605-1.809V11.2h1.281Zm3.9-1.156h-.031V22.88H-8.039V11.2h1.281v1.406h.031a3.03,3.03,0,0,1,2.766-1.594,2.93,2.93,0,0,1,2.414,1.074A4.449,4.449,0,0,1-.68,14.966a4.959,4.959,0,0,1-.977,3.215,3.251,3.251,0,0,1-2.672,1.207A2.676,2.676,0,0,1-6.727,18.044Zm-.031-3.227v1.117a2.379,2.379,0,0,0,.645,1.684,2.14,2.14,0,0,0,1.637.691,2.145,2.145,0,0,0,1.824-.891,4.086,4.086,0,0,0,.66-2.477,3.225,3.225,0,0,0-.617-2.094,2.043,2.043,0,0,0-1.672-.758,2.27,2.27,0,0,0-1.8.777A2.854,2.854,0,0,0-6.758,14.817Zm14.555.7H2.148a2.992,2.992,0,0,0,.719,2.063,2.478,2.478,0,0,0,1.891.727,3.931,3.931,0,0,0,2.484-.891v1.2a4.643,4.643,0,0,1-2.789.766A3.381,3.381,0,0,1,1.789,18.3,4.461,4.461,0,0,1,.82,15.231a4.375,4.375,0,0,1,1.059-3.043,3.394,3.394,0,0,1,2.629-1.176,3.008,3.008,0,0,1,2.43,1.016,4.234,4.234,0,0,1,.859,2.82ZM6.484,14.434a2.607,2.607,0,0,0-.535-1.727,1.823,1.823,0,0,0-1.465-.617,2.07,2.07,0,0,0-1.539.648,2.943,2.943,0,0,0-.781,1.7ZM13.906,12.5a1.567,1.567,0,0,0-.969-.258,1.635,1.635,0,0,0-1.371.773,3.576,3.576,0,0,0-.551,2.109V19.2H9.734v-8h1.281v1.648h.031a2.793,2.793,0,0,1,.836-1.316,1.906,1.906,0,0,1,1.258-.473,2.092,2.092,0,0,1,.766.109Zm7.117,6.7H19.742V17.95h-.031a2.682,2.682,0,0,1-2.461,1.438,2.63,2.63,0,0,1-1.871-.633,2.192,2.192,0,0,1-.676-1.68q0-2.242,2.641-2.609l2.4-.336q0-2.039-1.648-2.039a3.938,3.938,0,0,0-2.609.984V11.763a4.958,4.958,0,0,1,2.719-.75q2.82,0,2.82,2.984Zm-1.281-4.047-1.93.266a3.133,3.133,0,0,0-1.344.441,1.273,1.273,0,0,0-.453,1.121,1.221,1.221,0,0,0,.418.957,1.615,1.615,0,0,0,1.113.371,2.056,2.056,0,0,0,1.574-.668,2.387,2.387,0,0,0,.621-1.691Zm9.148,3.68a4.163,4.163,0,0,1-2.187.555,3.622,3.622,0,0,1-2.762-1.113,4.035,4.035,0,0,1-1.051-2.887,4.435,4.435,0,0,1,1.133-3.176,3.963,3.963,0,0,1,3.023-1.2,4.209,4.209,0,0,1,1.859.391v1.313A3.258,3.258,0,0,0,27,12.091a2.576,2.576,0,0,0-2.012.879,3.335,3.335,0,0,0-.785,2.309,3.176,3.176,0,0,0,.738,2.219,2.545,2.545,0,0,0,1.98.813,3.211,3.211,0,0,0,1.969-.7Zm2.594-9.664a.812.812,0,0,1-.586-.234.791.791,0,0,1-.242-.594.821.821,0,0,1,.828-.836.827.827,0,0,1,.6.238.835.835,0,0,1,0,1.184A.82.82,0,0,1,31.484,9.169ZM32.109,19.2H30.828v-8h1.281Zm5.938.188a3.711,3.711,0,0,1-2.832-1.121,4.153,4.153,0,0,1-1.059-2.973,4.326,4.326,0,0,1,1.1-3.148,3.96,3.96,0,0,1,2.977-1.133,3.588,3.588,0,0,1,2.793,1.1,4.368,4.368,0,0,1,1,3.055,4.3,4.3,0,0,1-1.082,3.066A3.791,3.791,0,0,1,38.047,19.388Zm.094-7.3a2.437,2.437,0,0,0-1.953.84,3.449,3.449,0,0,0-.719,2.316,3.262,3.262,0,0,0,.727,2.242,2.469,2.469,0,0,0,1.945.82,2.342,2.342,0,0,0,1.91-.8,3.492,3.492,0,0,0,.668-2.289,3.552,3.552,0,0,0-.668-2.312A2.332,2.332,0,0,0,38.141,12.091Zm1.875-4.969L37.969,9.684h-.992l1.742-2.562ZM50.719,19.2H49.438V14.638q0-2.547-1.859-2.547a2.017,2.017,0,0,0-1.59.723,2.679,2.679,0,0,0-.629,1.824V19.2H44.078v-8h1.281v1.328h.031a2.887,2.887,0,0,1,2.625-1.516,2.448,2.448,0,0,1,2.008.848,3.776,3.776,0,0,1,.7,2.449Z" transform="translate(270.169 1504.649)"/>
      <g id="Grupo_948513-2" data-name="Grupo 948513">
        <rect id="Rectángulo_34831-2" data-name="Rectángulo 34831" width="105" height="110" transform="translate(212.397 1362.615)" fill="none"/>
        <g id="Grupo_948513-3" data-name="Grupo 948513" transform="translate(-532.69 1005.823)">
          <rect id="Rectángulo_34831-3" data-name="Rectángulo 34831" width="97.104" height="101.727" transform="translate(749.035 359.429)" fill="none"/>
          <g id="recuperacion" transform="translate(749.465 363.33)">
            <circle id="Elipse_5422" data-name="Elipse 5422" cx="42.541" cy="42.541" r="42.541" transform="translate(5.581 5.58)" fill="#adc4e6"/>
            <path id="Trazado_634293" data-name="Trazado 634293" d="M59.812,27,55,35.02h9.624Z" transform="translate(30.015 13.102)" fill="#526273"/>
            <path id="Trazado_634294" data-name="Trazado 634294" d="M14.483,58.8c-3.081-.966-4.1-1.989-5.07-5.07a.32.32,0,0,0-.61,0c-.966,3.081-1.989,4.1-5.07,5.07a.32.32,0,0,0,0,.61c3.081.966,4.1,1.989,5.07,5.07a.32.32,0,0,0,.61,0c.966-3.081,1.989-4.1,5.07-5.07A.32.32,0,0,0,14.483,58.8Z" transform="translate(-1.088 29.115)" fill="#ffecb3"/>
            <path id="Trazado_634295" data-name="Trazado 634295" d="M64.483,8.8c-3.081-.966-4.1-1.989-5.07-5.07a.32.32,0,0,0-.61,0c-.966,3.081-1.989,4.1-5.07,5.07a.32.32,0,0,0,0,.61c3.081.966,4.1,1.989,5.07,5.07a.32.32,0,0,0,.61,0c.966-3.081,1.989-4.1,5.07-5.07a.32.32,0,0,0,0-.61Z" transform="translate(29.115 -1.088)" fill="#ffecb3"/>
            <circle id="Elipse_5423" data-name="Elipse 5423" cx="29.593" cy="29.593" r="29.593" transform="translate(18.528 18.528)" fill="#eaeaea"/>
            <path id="Trazado_634296" data-name="Trazado 634296" d="M56.289,30.624H46.665V21H30.624v9.624H21V46.665h9.624v9.624H46.665V46.665h9.624Z" transform="translate(9.477 9.477)" fill="#ff8088"/>
            <path id="Trazado_634297" data-name="Trazado 634297" d="M21.6,48.873h8.02v8.02a1.6,1.6,0,0,0,1.6,1.6H47.269a1.6,1.6,0,0,0,1.6-1.6v-8.02h8.02a1.6,1.6,0,0,0,1.6-1.6V31.228a1.6,1.6,0,0,0-1.6-1.6h-8.02V21.6a1.6,1.6,0,0,0-1.6-1.6H31.228a1.6,1.6,0,0,0-1.6,1.6v8.02H21.6a1.6,1.6,0,0,0-1.6,1.6V47.269A1.6,1.6,0,0,0,21.6,48.873Zm1.6-16.041h8.02a1.6,1.6,0,0,0,1.6-1.6v-8.02H45.665v8.02a1.6,1.6,0,0,0,1.6,1.6h8.02V45.665h-8.02a1.6,1.6,0,0,0-1.6,1.6v8.02H32.832v-8.02a1.6,1.6,0,0,0-1.6-1.6h-8.02Z" transform="translate(8.873 8.873)"/>
            <path id="Trazado_634298" data-name="Trazado 634298" d="M13,43.477A30.477,30.477,0,1,0,43.477,13,30.511,30.511,0,0,0,13,43.477ZM43.477,16.208A27.269,27.269,0,1,1,16.208,43.477,27.3,27.3,0,0,1,43.477,16.208Z" transform="translate(4.645 4.645)"/>
            <path id="Trazado_634299" data-name="Trazado 634299" d="M35.252,5.178l-.367,3.186A40.134,40.134,0,0,1,59.193,20.439l2.315-2.222A43.332,43.332,0,0,0,35.252,5.178Z" transform="translate(17.865 -0.08)"/>
            <path id="Trazado_634300" data-name="Trazado 634300" d="M34.292,5.032c-1.1-.043-2.226-.043-3.33,0l.122,3.2c1.023-.037,2.063-.037,3.086,0Z" transform="translate(15.495 -0.188)"/>
            <path id="Trazado_634301" data-name="Trazado 634301" d="M8.208,48.2A40.062,40.062,0,0,1,43.68,8.364l-.367-3.186a43.314,43.314,0,0,0,0,86.048l.367-3.186A40.062,40.062,0,0,1,8.208,48.2Z" transform="translate(-0.188 -0.08)"/>
            <path id="Trazado_634302" data-name="Trazado 634302" d="M31.084,56.982l-.122,3.2c.552.022,1.107.032,1.665.032s1.113-.01,1.665-.032l-.122-3.2c-1.023.038-2.063.038-3.086,0Z" transform="translate(15.495 31.212)"/>
            <path id="Trazado_634303" data-name="Trazado 634303" d="M73.338,26.758a1.668,1.668,0,0,0-2.751,0l-4.812,8.02a1.6,1.6,0,0,0,1.376,2.43h3.133a40.029,40.029,0,0,1-35.4,38.234l.367,3.186A43.26,43.26,0,0,0,73.53,37.208h3.245a1.6,1.6,0,0,0,1.375-2.43ZM69.983,34l1.979-3.3L73.942,34Z" transform="translate(17.865 12.518)"/>
            <path id="Trazado_634304" data-name="Trazado 634304" d="M16.863,58.474c-3.725-1.03-4.268-1.572-5.3-5.3a1.6,1.6,0,0,0-3.093,0c-1.028,3.725-1.572,4.268-5.3,5.3a1.6,1.6,0,0,0,0,3.093c3.725,1.03,4.268,1.572,5.3,5.3a1.6,1.6,0,0,0,3.093,0c1.028-3.725,1.572-4.268,5.3-5.3a1.6,1.6,0,0,0,0-3.093ZM10.02,62.1A6.317,6.317,0,0,0,7.938,60.02a6.317,6.317,0,0,0,2.082-2.082A6.317,6.317,0,0,0,12.1,60.02,6.317,6.317,0,0,0,10.02,62.1Z" transform="translate(-2 28.203)"/>
            <path id="Trazado_634305" data-name="Trazado 634305" d="M66.863,8.474c-3.725-1.03-4.268-1.572-5.3-5.3a1.6,1.6,0,0,0-3.093,0c-1.028,3.725-1.572,4.268-5.3,5.3a1.6,1.6,0,0,0,0,3.093c3.725,1.03,4.268,1.572,5.3,5.3a1.6,1.6,0,0,0,3.093,0c1.028-3.725,1.572-4.268,5.3-5.3a1.6,1.6,0,0,0,0-3.093ZM60.02,12.1a6.317,6.317,0,0,0-2.082-2.082A6.317,6.317,0,0,0,60.02,7.938,6.317,6.317,0,0,0,62.1,10.02,6.317,6.317,0,0,0,60.02,12.1Z" transform="translate(28.203 -2)"/>
          </g>
        </g>
      </g>
    </g>
  </g>
</svg>
