<svg xmlns="http://www.w3.org/2000/svg" width="67" height="72" viewBox="0 0 67 72">
  <g id="Grupo_950129" data-name="Grupo 950129" transform="translate(9423 3522)">
    <rect id="Rectángulo_34191" data-name="Rectángulo 34191" width="67" height="72" rx="5" transform="translate(-9423 -3522)" fill="#fff"/>
    <g id="cerrar-con-llave" transform="translate(-9416.782 -3512.779)">
      <path id="Trazado_633262" data-name="Trazado 633262" d="M41.872,12.936v7.673H36.756V12.936a6.82,6.82,0,0,0-13.641,0v7.673H18V12.936a11.936,11.936,0,0,1,23.872,0Z" transform="translate(-2.654 -0.147)" fill="#cacae5"/>
      <path id="Trazado_633263" data-name="Trazado 633263" d="M39.5,17.726a16.425,16.425,0,0,0-2.142-9.12,8.609,8.609,0,0,0-7.623-4.19c-7.937.119-9.3,6.815-10.031,14.139,0,.794-.743,1.031-1.705,1.06v1.5h5.115V13.681a6.982,6.982,0,0,1,6.351-7.046,6.829,6.829,0,0,1,7.29,6.8v7.673h5.115V19.38q-.394.013-.79.018A1.566,1.566,0,0,1,39.5,17.726Z" transform="translate(-2.654 -0.651)" fill="#7876ab"/>
      <path id="Trazado_633264" data-name="Trazado 633264" d="M40.987,24A5.119,5.119,0,0,1,46.1,29.115V52.134a5.119,5.119,0,0,1-5.115,5.115H17.115A5.119,5.119,0,0,1,12,52.134V29.115A5.119,5.119,0,0,1,17.115,24H40.987Z" transform="translate(-1.769 -3.539)" fill="#ffc32c"/>
      <path id="Trazado_633265" data-name="Trazado 633265" d="M40.987,24A5.119,5.119,0,0,1,46.1,29.115V52.134a5.119,5.119,0,0,1-5.115,5.115H17.115A5.119,5.119,0,0,1,12,52.134V29.115A5.119,5.119,0,0,1,17.115,24H40.987Z" transform="translate(-1.769 -3.539)" fill="#ffc32c"/>
      <path id="Trazado_633266" data-name="Trazado 633266" d="M46.141,29.154V52.173a5.119,5.119,0,0,1-5.115,5.115H17.154a5.113,5.113,0,0,1-4.894-3.632,5.039,5.039,0,0,0,1.483.222H37.615a5.119,5.119,0,0,0,5.115-5.115V25.743a5.039,5.039,0,0,0-.222-1.483,5.113,5.113,0,0,1,3.632,4.894Z" transform="translate(-1.808 -3.577)" fill="#ffa300"/>
      <g id="Grupo_948311" data-name="Grupo 948311" transform="translate(0.853 18.756)">
        <circle id="Elipse_5388" data-name="Elipse 5388" cx="2" cy="2" r="2" transform="translate(2.147 -0.193)" fill="#ffc32c"/>
        <ellipse id="Elipse_5389" data-name="Elipse 5389" cx="1.5" cy="2" rx="1.5" ry="2" transform="translate(0.147 11.807)" fill="#ffc32c"/>
        <circle id="Elipse_5390" data-name="Elipse 5390" cx="1.5" cy="1.5" r="1.5" transform="translate(2.147 29.807)" fill="#ffc32c"/>
        <circle id="Elipse_5391" data-name="Elipse 5391" cx="1.5" cy="1.5" r="1.5" transform="translate(48.147 29.807)" fill="#ffc32c"/>
        <circle id="Elipse_5392" data-name="Elipse 5392" cx="2" cy="2" r="2" transform="translate(49.147 11.807)" fill="#ffc32c"/>
        <ellipse id="Elipse_5393" data-name="Elipse 5393" cx="1.5" cy="2" rx="1.5" ry="2" transform="translate(47.147 -0.193)" fill="#ffc32c"/>
      </g>
      <path id="Trazado_633267" data-name="Trazado 633267" d="M34.852,49.462a1.292,1.292,0,0,1-1.262,1.569H29.072a1.292,1.292,0,0,1-1.262-1.569l1.756-7.9a3.842,3.842,0,0,1-2.046-4.084,3.869,3.869,0,0,1,7.682.656A3.851,3.851,0,0,1,33.1,41.559Z" transform="translate(-4.049 -5.052)" fill="#7876ab"/>
      <path id="Trazado_633268" data-name="Trazado 633268" d="M19.576,28.039l-2.715,1.7a.563.563,0,0,1-.86-.477v-1.7A.562.562,0,0,1,16.562,27h2.715A.562.562,0,0,1,19.576,28.039Z" transform="translate(-2.359 -3.981)" fill="#ffedc5"/>
      <g id="Grupo_948312" data-name="Grupo 948312" transform="translate(0)">
        <path id="Trazado_633269" data-name="Trazado 633269" d="M35.9,37.989a4.72,4.72,0,1,0-7.448,3.832l-1.623,7.306a2.142,2.142,0,0,0,2.09,2.606h4.521a2.142,2.142,0,0,0,2.09-2.606l-1.623-7.3A4.684,4.684,0,0,0,35.9,37.989Zm-3.349,2.666a.852.852,0,0,0-.441.942l1.755,7.9a.438.438,0,0,1-.426.532H28.923A.438.438,0,0,1,28.5,49.5l1.755-7.9a.852.852,0,0,0-.441-.942,2.982,2.982,0,0,1-1.6-3.19,3.019,3.019,0,0,1,2.413-2.442,3.176,3.176,0,0,1,.564-.05,2.974,2.974,0,0,1,1.93.7,3,3,0,0,1-.564,4.978Z" transform="translate(-3.902 -4.905)" fill="#383455"/>
        <path id="Trazado_633270" data-name="Trazado 633270" d="M52.006,29.84A2.561,2.561,0,0,0,49.448,32.4a2.516,2.516,0,0,0,.257,1.1L47.39,35.808h-2.2V28.134h4.263a.853.853,0,0,0,.853-.853v-4.42a2.558,2.558,0,1,0-1.705,0v3.567h-3.41v-.853a5.972,5.972,0,0,0-5.115-5.9V12.788a12.788,12.788,0,1,0-25.577,0v6.889a5.972,5.972,0,0,0-5.115,5.9v.853H5.968V22.862a2.558,2.558,0,1,0-1.705,0v4.42a.853.853,0,0,0,.853.853H9.378v7.673h-2.2L4.859,33.493a2.516,2.516,0,0,0,.257-1.1,2.558,2.558,0,1,0-2.558,2.558,2.516,2.516,0,0,0,1.1-.257l2.565,2.565a.85.85,0,0,0,.6.25H9.378v7.673H8.526a.85.85,0,0,0-.6.25L5.358,48a2.516,2.516,0,0,0-1.1-.257A2.558,2.558,0,1,0,6.82,50.3a2.516,2.516,0,0,0-.257-1.1l2.315-2.315h.5V48.6a5.974,5.974,0,0,0,5.968,5.968H39.218A5.974,5.974,0,0,0,45.186,48.6V46.891h.5L48,49.206a2.516,2.516,0,0,0-.257,1.1A2.558,2.558,0,1,0,50.3,47.743a2.516,2.516,0,0,0-1.1.257l-2.564-2.564a.85.85,0,0,0-.6-.25h-.853V37.513h2.558a.85.85,0,0,0,.6-.25L50.911,34.7a2.516,2.516,0,0,0,1.1.257,2.558,2.558,0,0,0,0-5.115ZM49.448,19.609a.853.853,0,1,1-.853.853A.854.854,0,0,1,49.448,19.609Zm-44.333,0a.853.853,0,1,1-.853.853A.854.854,0,0,1,5.115,19.609ZM1.705,32.4a.853.853,0,1,1,.853.853A.854.854,0,0,1,1.705,32.4ZM4.263,51.154a.853.853,0,1,1,.853-.853A.854.854,0,0,1,4.263,51.154ZM51.154,50.3a.853.853,0,1,1-.853-.853A.854.854,0,0,1,51.154,50.3ZM27.282,1.705A11.1,11.1,0,0,1,38.365,12.788v6.82h-3.41v-6.82a7.673,7.673,0,0,0-15.346,0v6.82H16.2v-6.82A11.1,11.1,0,0,1,27.282,1.705Zm5.968,17.9H21.314v-6.82a5.968,5.968,0,1,1,11.936,0ZM43.481,48.6a4.268,4.268,0,0,1-4.263,4.263H15.346A4.268,4.268,0,0,1,11.083,48.6V25.577a4.268,4.268,0,0,1,4.263-4.263H39.218a4.268,4.268,0,0,1,4.263,4.263ZM52.006,33.25a.853.853,0,1,1,.853-.853A.854.854,0,0,1,52.006,33.25Z" transform="translate(0)" fill="#0d0d0e"/>
      </g>
    </g>
  </g>
</svg>
