<svg xmlns="http://www.w3.org/2000/svg" xmlns:xlink="http://www.w3.org/1999/xlink" width="85" height="85" viewBox="0 0 85 85">
  <defs>
    <clipPath id="clip-path">
      <rect id="Rectángulo_34871" data-name="Rectángulo 34871" width="85" height="85" transform="translate(200 12037)" fill="#2ff980"/>
    </clipPath>
  </defs>
  <g id="Enmascarar_grupo_127" data-name="Enmascarar grupo 127" transform="translate(-200 -12037)" clip-path="url(#clip-path)">
    <g id="organizacion_1_" data-name="organizacion(1)" transform="translate(205.121 12042.241)">
      <g id="Grupo_948849" data-name="Grupo 948849" transform="translate(2.174 2.174)">
        <g id="Grupo_948829" data-name="Grupo 948829" transform="translate(15.256 47.575)">
          <path id="Trazado_634368" data-name="Trazado 634368" d="M20.645,47.6a19.955,19.955,0,0,0,32.19-5.058,6.038,6.038,0,0,0,1.432,2.347,5.7,5.7,0,0,0,1.4,1.021L54.9,48.947l-2.253.645a8.207,8.207,0,0,0-5.962,7.9v3.1L42.93,62.138l-1.42-3.4a1.55,1.55,0,0,0-1.749-.9.041.041,0,0,1-.023.012,1.543,1.543,0,0,0-1.267,1.5V63.03H31.429V59.345a1.543,1.543,0,0,0-1.267-1.5.041.041,0,0,1-.023-.012,1.55,1.55,0,0,0-1.749.9l-1.42,3.4-3.755-1.549v-3.1a8.248,8.248,0,0,0-5.962-7.9L15,48.947l4.1-.681a3.417,3.417,0,0,0,1.549-.669Z" transform="translate(-15 -42.54)" fill="#fcd770"/>
        </g>
        <g id="Grupo_948830" data-name="Grupo 948830" transform="translate(6.748 10.796)">
          <path id="Trazado_634369" data-name="Trazado 634369" d="M31.9,19.649A19.984,19.984,0,0,0,16.892,34.107v.012a10.438,10.438,0,0,0-4.154-.857c-.27,0-.54.012-.8.035a1.511,1.511,0,0,0-.775-.728L7.75,31.15l2.7-6.5,3.4,1.408a1.54,1.54,0,0,0,1.878-.587.041.041,0,0,1,.012-.023,1.545,1.545,0,0,0-.164-1.972L12.972,20.87l4.976-4.976L20.553,18.5a1.545,1.545,0,0,0,1.972.164.041.041,0,0,1,.023-.012,1.54,1.54,0,0,0,.587-1.878l-1.408-3.4L26.984,11.2a7.869,7.869,0,0,0,.293,1.15,9.059,9.059,0,0,0,2.347,3.685l.833.8A5.939,5.939,0,0,0,31.9,19.649Z" transform="translate(-7.75 -11.2)" fill="#fcd770"/>
        </g>
        <g id="Grupo_948831" data-name="Grupo 948831" transform="translate(39.513 10.796)">
          <path id="Trazado_634370" data-name="Trazado 634370" d="M40.282,12.362a7.68,7.68,0,0,0,.305-1.162l5.257,2.171-1.408,3.4a1.54,1.54,0,0,0,.587,1.878.041.041,0,0,1,.023.012,1.545,1.545,0,0,0,1.972-.164l2.605-2.605L54.6,20.87l-2.605,2.605a1.545,1.545,0,0,0-.164,1.972.041.041,0,0,1,.012.023,1.54,1.54,0,0,0,1.878.587l3.4-1.408,2.7,6.5-1.22.5v.012h-.012a4.78,4.78,0,0,0-2.582-.751,4.844,4.844,0,0,0-2.852.927,4.956,4.956,0,0,0-1.784,2.417l-.059.176-.235.059a2.549,2.549,0,0,0-.282.082l-.012-.035A19.98,19.98,0,0,0,35.67,19.649a5.939,5.939,0,0,0,1.443-2.816l.27-.223a9.26,9.26,0,0,0,2.887-4.2Z" transform="translate(-35.67 -11.2)" fill="#fcd770"/>
        </g>
        <g id="Grupo_948832" data-name="Grupo 948832" transform="translate(25.818 0)">
          <path id="Trazado_634371" data-name="Trazado 634371" d="M42.3,14.005a9.26,9.26,0,0,1-2.887,4.2l-.27.223a5.53,5.53,0,0,0,.117-1.174V15.543a3.517,3.517,0,0,0-2.946-3.474l-2.089-.34a2.4,2.4,0,0,1-2.007-2.371V9.276l-.915.188a4.689,4.689,0,0,0-3.779,4.6v3.192a5.53,5.53,0,0,0,.117,1.174l-.833-.8a9.059,9.059,0,0,1-2.347-3.685,7.869,7.869,0,0,1-.293-1.15,9.092,9.092,0,0,1-.164-1.7v-1.08A8.013,8.013,0,0,1,32.015,2h2.746a8.013,8.013,0,0,1,8.015,8.015v1.08a9.092,9.092,0,0,1-.164,1.7,7.681,7.681,0,0,1-.305,1.162Z" transform="translate(-24 -2)" fill="#b27946"/>
        </g>
        <g id="Grupo_948833" data-name="Grupo 948833" transform="translate(11.735 32.859)">
          <path id="Trazado_634372" data-name="Trazado 634372" d="M22.562,40.562v6.407a3.5,3.5,0,0,1-1.4,2.8,3.417,3.417,0,0,1-1.549.669l-4.1.681-.763-3.039a5.853,5.853,0,0,0,3.11-5.175V40.562l-.763-.5A33.554,33.554,0,0,1,12,35.868V30A10.578,10.578,0,0,1,22.562,40.562Z" transform="translate(-12 -30)" fill="#656d78"/>
        </g>
        <g id="Grupo_948834" data-name="Grupo 948834" transform="translate(1.174 32.859)">
          <path id="Trazado_634373" data-name="Trazado 634373" d="M13.562,30v5.868a33.554,33.554,0,0,1-5.1,4.189l-.763.5v2.347a5.893,5.893,0,0,0,1.713,4.154,5.7,5.7,0,0,0,1.4,1.021l-.763,3.039-4.1-.681A3.517,3.517,0,0,1,3,46.969V40.562a10.555,10.555,0,0,1,9.764-10.527c.258-.023.528-.035.8-.035Z" transform="translate(-3 -30)" fill="#656d78"/>
        </g>
        <g id="Grupo_948835" data-name="Grupo 948835" transform="translate(50.462 34.032)">
          <path id="Trazado_634374" data-name="Trazado 634374" d="M50.175,36.3a3.519,3.519,0,0,0-2.828,3.45v1.807l-.622-.622a5.889,5.889,0,0,1,2.453-9.8,2.549,2.549,0,0,1,.282-.082L49.694,31a6.928,6.928,0,0,0,1.643,4.483,4.659,4.659,0,0,0,.469.493Z" transform="translate(-45 -31)" fill="#656d78"/>
        </g>
        <g id="Grupo_948836" data-name="Grupo 948836" transform="translate(55.156 30.512)">
          <path id="Trazado_634375" data-name="Trazado 634375" d="M56.288,28.751a4.853,4.853,0,0,1,2.042,2.593l.082.223a2.843,2.843,0,0,1,2.324,2.816v.141a4.031,4.031,0,0,1-2.347,3.661,3.928,3.928,0,0,1-1.7.376h-.305A4.442,4.442,0,0,1,55.7,38.5l-.915-.153A6.915,6.915,0,0,1,51.112,36.5,4.662,4.662,0,0,1,50.643,36,6.928,6.928,0,0,1,49,31.521l.059-.176a4.956,4.956,0,0,1,1.784-2.417A4.844,4.844,0,0,1,53.694,28a4.78,4.78,0,0,1,2.582.751Z" transform="translate(-49 -28)" fill="#656d78"/>
        </g>
        <g id="Grupo_948837" data-name="Grupo 948837" transform="translate(35.206 23.471)">
          <path id="Trazado_634376" data-name="Trazado 634376" d="M42.562,29.863v6.22H32V27.868L35.521,22l1.807.6a7.669,7.669,0,0,1,5.234,7.264Z" transform="translate(-32 -22)" fill="#ff826e"/>
        </g>
        <g id="Grupo_948838" data-name="Grupo 948838" transform="translate(24.644 23.471)">
          <path id="Trazado_634377" data-name="Trazado 634377" d="M33.562,27.868v8.215H23v-6.22A7.669,7.669,0,0,1,28.234,22.6l1.807-.6Z" transform="translate(-23 -22)" fill="#ff826e"/>
        </g>
        <g id="Grupo_948839" data-name="Grupo 948839" transform="translate(58.676 53.982)">
          <path id="Trazado_634378" data-name="Trazado 634378" d="M52,64.429V52.694L55.521,48l2.253.645a8.207,8.207,0,0,1,5.962,7.9v7.886Z" transform="translate(-52 -48)" fill="#4fc1e9"/>
        </g>
        <g id="Grupo_948840" data-name="Grupo 948840" transform="translate(46.941 53.982)">
          <path id="Trazado_634379" data-name="Trazado 634379" d="M53.735,52.694V64.429H42V56.543a8.207,8.207,0,0,1,5.962-7.9L50.215,48Z" transform="translate(-42 -48)" fill="#4fc1e9"/>
        </g>
        <g id="Grupo_948841" data-name="Grupo 948841" transform="translate(0 55.121)">
          <path id="Trazado_634380" data-name="Trazado 634380" d="M25.471,59.473v4.788H2V56.375a8.2,8.2,0,0,1,4.671-7.4l2.371,3.556,4.694,7.041,4.694-7.041L20.8,48.97a8.2,8.2,0,0,1,4.671,7.4Z" transform="translate(-2 -48.97)" fill="#5cd6b3"/>
        </g>
        <g id="Grupo_948842" data-name="Grupo 948842" transform="translate(7.041 58.676)">
          <path id="Trazado_634381" data-name="Trazado 634381" d="M17.388,52l-4.694,7.041L8,52Z" transform="translate(-8 -52)" fill="#e6e9ed"/>
        </g>
        <g id="Grupo_948843" data-name="Grupo 948843" transform="translate(4.671 50.943)">
          <path id="Trazado_634382" data-name="Trazado 634382" d="M20.109,49.588l-2.371,3.556H8.351L5.98,49.588a8.139,8.139,0,0,1,1.291-.493l2.253-.645.763-3.039a5.838,5.838,0,0,0,5.516,0l.763,3.039,2.253.645A8.14,8.14,0,0,1,20.109,49.588Z" transform="translate(-5.98 -45.41)" fill="#f0d0b4"/>
        </g>
        <g id="Grupo_948844" data-name="Grupo 948844" transform="translate(5.868 38.726)">
          <path id="Trazado_634383" data-name="Trazado 634383" d="M18.735,39.694v2.347a5.853,5.853,0,0,1-3.11,5.175,5.838,5.838,0,0,1-5.516,0,5.7,5.7,0,0,1-1.4-1.021A5.893,5.893,0,0,1,7,42.041V39.694l.763-.5A33.554,33.554,0,0,0,12.868,35a33.554,33.554,0,0,0,5.1,4.189Z" transform="translate(-7 -35)" fill="#f0d0b4"/>
        </g>
        <g id="Grupo_948845" data-name="Grupo 948845" transform="translate(55.156 50.943)">
          <path id="Trazado_634384" data-name="Trazado 634384" d="M49.763,45.41l2.758.692a5.757,5.757,0,0,0,2.758-.692l.763,3.039-3.521,4.694L49,48.449Z" transform="translate(-49 -45.41)" fill="#f0d0b4"/>
        </g>
        <g id="Grupo_948846" data-name="Grupo 948846" transform="translate(52.809 39.008)">
          <path id="Trazado_634385" data-name="Trazado 634385" d="M58.735,36.942V42a5.853,5.853,0,0,1-3.11,5.175,5.757,5.757,0,0,1-2.758.692l-2.758-.692a5.7,5.7,0,0,1-1.4-1.021,6.039,6.039,0,0,1-1.432-2.347A5.767,5.767,0,0,1,47,42V39.019a3.519,3.519,0,0,1,2.828-3.45l1.631-.329a6.915,6.915,0,0,0,3.673,1.854l.915.153a4.442,4.442,0,0,0,.681.059h.305a3.928,3.928,0,0,0,1.7-.376Z" transform="translate(-47 -35.24)" fill="#f0d0b4"/>
        </g>
        <g id="Grupo_948847" data-name="Grupo 948847" transform="translate(31.685 20.431)">
          <path id="Trazado_634386" data-name="Trazado 634386" d="M29.763,19.41l2.758.692a5.757,5.757,0,0,0,2.758-.692l.763,3.039-3.521,5.868L29,22.449Z" transform="translate(-29 -19.41)" fill="#f0d0b4"/>
        </g>
        <g id="Grupo_948848" data-name="Grupo 948848" transform="translate(29.338 7.276)">
          <path id="Trazado_634387" data-name="Trazado 634387" d="M38.735,14.467V16.18a5.53,5.53,0,0,1-.117,1.174,5.939,5.939,0,0,1-1.443,2.816,5.852,5.852,0,0,1-1.549,1.185,5.757,5.757,0,0,1-2.758.692l-2.758-.692a5.7,5.7,0,0,1-1.4-1.021,2.1,2.1,0,0,1-.153-.164,5.939,5.939,0,0,1-1.443-2.816A5.53,5.53,0,0,1,27,16.18V12.988a4.689,4.689,0,0,1,3.779-4.6l.915-.188v.082A2.4,2.4,0,0,0,33.7,10.653l2.089.34a3.517,3.517,0,0,1,2.946,3.474Z" transform="translate(-27 -8.2)" fill="#f0d0b4"/>
        </g>
      </g>
      <g id="Grupo_948850" data-name="Grupo 948850" transform="translate(1 1)">
        <path id="Trazado_634388" data-name="Trazado 634388" d="M66.95,55.672l-1.605-.459-.391-1.563a7.028,7.028,0,0,0,2.937-5.709V43.564a5.265,5.265,0,0,0,.816-.663,5.171,5.171,0,0,0,1.531-3.688v-.144a4.024,4.024,0,0,0-1.172-2.859,3.925,3.925,0,0,0-1.431-.921,6,6,0,0,0-.868-1.48l.6-.248-3.593-8.674-4.488,1.86a.385.385,0,0,1-.466-.187.376.376,0,0,1,.021-.48l3.435-3.436-6.639-6.637L52.2,19.442a.387.387,0,0,1-.5,0A.373.373,0,0,1,51.534,19l1.859-4.489-5.528-2.29c.029-.317.076-.63.076-.948V10.186A9.187,9.187,0,0,0,38.754,1H36a9.185,9.185,0,0,0-9.186,9.186v1.084c0,.318.047.631.076.947l-5.527,2.29L23.225,19a.385.385,0,0,1-.187.466.377.377,0,0,1-.48-.022L19.124,16l-6.639,6.637,3.436,3.436a.389.389,0,0,1,0,.5.379.379,0,0,1-.451.164l-4.489-1.86L7.393,33.56l2.482,1.028a11.746,11.746,0,0,0-7.7,11.007V52a4.667,4.667,0,0,0,3.619,4.551A9.414,9.414,0,0,0,1,64.7v9.06H26.818V69.552l3.223,1.334L31.9,66.4a.386.386,0,0,1,.461-.2.376.376,0,0,1,.325.353v4.858h9.388V66.553a.389.389,0,0,1,.353-.36.374.374,0,0,1,.433.2l1.859,4.489,3.223-1.333v4.207H73.759V64.7a9.429,9.429,0,0,0-6.809-9.027ZM63.1,55.9l-2.246,3-2.247-3,.3-1.2a6.9,6.9,0,0,0,3.895,0Zm2.448-7.958a4.694,4.694,0,1,1-9.388,0V44.959a2.354,2.354,0,0,1,1.887-2.3l1.043-.209A8.106,8.106,0,0,0,62.925,44.2l.913.153a5.458,5.458,0,0,0,.871.072h.32a5,5,0,0,0,.515-.05ZM17.975,59.676H9.843l-1.2-1.8,2.72-.778.6-2.4a6.915,6.915,0,0,0,3.895,0l.6,2.4,2.72.778Zm-1.564,2.347-2.5,3.752-2.5-3.752Zm-2.5-19.491a34.947,34.947,0,0,0,4.458,3.534l.236.156v1.719a4.694,4.694,0,0,1-9.388,0V46.222l.236-.157a34.834,34.834,0,0,0,4.458-3.532ZM18.3,54.82l-.292-1.169a7.032,7.032,0,0,0,2.937-5.71V44.966l-1.281-.854A32.345,32.345,0,0,1,15.082,40.4v-4.11A9.4,9.4,0,0,1,23.3,45.594V52a2.34,2.34,0,0,1-1.961,2.315Zm1.169-19.555A18.926,18.926,0,0,1,32.74,22.713q.257.227.535.427l-.4,1.595-1.2.4a8.869,8.869,0,0,0-3.45,2.132,8.771,8.771,0,0,0-2.586,6.243V40.9H49.115V33.509a8.771,8.771,0,0,0-2.586-6.243,8.881,8.881,0,0,0-3.451-2.133l-1.195-.4-.4-1.595q.278-.2.535-.427A18.852,18.852,0,0,1,55.4,35.661a7.047,7.047,0,0,0-1.873,11.315l.277.277v.688a7.052,7.052,0,0,0,.2,1.655,18.735,18.735,0,0,1-29.276,5.156A4.67,4.67,0,0,0,25.644,52V45.594a11.744,11.744,0,0,0-6.17-10.328Zm13.863-8.21,2.869,4.781v6.716H27.991V33.509a6.442,6.442,0,0,1,1.9-4.584,6.515,6.515,0,0,1,2.534-1.565Zm5.216,4.781,2.869-4.782.913.3a6.523,6.523,0,0,1,2.534,1.567,6.444,6.444,0,0,1,1.9,4.584v5.044H38.553Zm1.09-6.379L37.379,29.23l-2.264-3.774.317-1.266a6.9,6.9,0,0,0,3.894,0Zm2.43-8.028a4.694,4.694,0,0,1-9.388,0V14.236a3.531,3.531,0,0,1,2.593-3.4,3.57,3.57,0,0,0,2.741,2.214l2.091.349a2.34,2.34,0,0,1,1.962,2.315ZM54.066,43.456a4.62,4.62,0,0,1,2.257-5.632,8.054,8.054,0,0,0,1.019,2.6,4.7,4.7,0,0,0-3.275,3.029Zm13.825-4.389v.144a2.863,2.863,0,0,1-2.861,2.863h-.317a2.978,2.978,0,0,1-.488-.04l-.914-.153a5.735,5.735,0,0,1-4.8-5.494,3.712,3.712,0,0,1,6.4-1.158,4.05,4.05,0,0,0-2.385,2.056l-.372.744,2.1,1.05.372-.744a1.748,1.748,0,0,1,1.612-.955h0a1.64,1.64,0,0,1,1.17.486,1.693,1.693,0,0,1,.488,1.2ZM50.413,21.411a2.725,2.725,0,0,0,3.447-.311l1.776-1.776,3.32,3.319L57.179,24.42a2.767,2.767,0,0,0,3,4.495l2.32-.961,1.638,3.955a5.983,5.983,0,0,0-6.867,1.916A21.242,21.242,0,0,0,43.6,20.715a7,7,0,0,0,.568-1.452,10.392,10.392,0,0,0,3.221-4.7l2.935,1.215L49.365,18.1a2.737,2.737,0,0,0,1.048,3.314ZM29.165,10.186a6.839,6.839,0,0,1,6.841-6.839h2.75a6.837,6.837,0,0,1,6.839,6.839v1.084a7.858,7.858,0,0,1-1.2,4.171,4.669,4.669,0,0,0-3.9-4.354l-2.091-.349a1.23,1.23,0,0,1-.349-2.313l1.019-.509-1.049-2.1-1.02.509a3.563,3.563,0,0,0-1.814,2.128l-.14.027a5.886,5.886,0,0,0-4.716,5.755v1.151a7.747,7.747,0,0,1-1.174-4.117ZM12.781,33.251l-2.32-.961,1.8-4.336,2.321.961a2.768,2.768,0,0,0,3-4.5l-1.776-1.777,3.32-3.319L20.9,21.1a2.767,2.767,0,0,0,4.495-3l-.961-2.321,2.935-1.215a10.256,10.256,0,0,0,2.615,4.094l.6.568a6.99,6.99,0,0,0,.579,1.494A21.322,21.322,0,0,0,17.3,34.361a11.707,11.707,0,0,0-3.387-.5c-.079,0-.155.011-.234.012A2.684,2.684,0,0,0,12.781,33.251ZM4.521,52V45.594a9.4,9.4,0,0,1,8.215-9.307V40.4a32.509,32.509,0,0,1-4.586,3.715l-1.281.854v2.975A7.032,7.032,0,0,0,9.8,53.652L9.513,54.82l-3.03-.5A2.34,2.34,0,0,1,4.521,52Zm19.95,19.411H3.347V64.7a7.065,7.065,0,0,1,3.13-5.841l7.432,11.149,7.432-11.149a7.066,7.066,0,0,1,3.13,5.841Zm21.518-3.593L45.027,65.5a2.767,2.767,0,0,0-5.3,1.056v2.511H35.032V66.553a2.767,2.767,0,0,0-5.3-1.056l-.961,2.321-1.953-.807V64.7a9.415,9.415,0,0,0-4.792-8.148,4.706,4.706,0,0,0,.879-.3,21.075,21.075,0,0,0,32.33-4.077,7.055,7.055,0,0,0,1.512,1.479l-.391,1.563-1.6.459a9.426,9.426,0,0,0-6.81,9.026V67.01Zm4.3-3.119a7.071,7.071,0,0,1,5.107-6.77l1.48-.424,2.8,3.735V71.412H50.288Zm21.124,6.713H62.023V61.241l2.8-3.734,1.481.424A7.069,7.069,0,0,1,71.412,64.7Z" transform="translate(-1 -1)"/>
        <path id="Trazado_634389" data-name="Trazado 634389" d="M55,57h2.347v2.347H55Z" transform="translate(8.371 8.718)"/>
        <path id="Trazado_634390" data-name="Trazado 634390" d="M55,53h2.347v2.347H55Z" transform="translate(8.371 8.023)"/>
        <path id="Trazado_634391" data-name="Trazado 634391" d="M33,45h2.347v2.347H33Z" transform="translate(4.553 6.635)"/>
        <path id="Trazado_634392" data-name="Trazado 634392" d="M37,45h2.347v2.347H37Z" transform="translate(5.247 6.635)"/>
        <path id="Trazado_634393" data-name="Trazado 634393" d="M29,45h2.347v2.347H29Z" transform="translate(3.859 6.635)"/>
        <path id="Trazado_634394" data-name="Trazado 634394" d="M25,45h2.347v2.347H25Z" transform="translate(3.165 6.635)"/>
      </g>
    </g>
  </g>
</svg>
