<svg xmlns="http://www.w3.org/2000/svg" width="67" height="72" viewBox="0 0 67 72">
  <g id="Grupo_948246" data-name="Grupo 948246" transform="translate(-828 -8248)">
    <rect id="Rectángulo_34186" data-name="Rectángulo 34186" width="67" height="72" rx="5" transform="translate(828 8248)" fill="#fff"/>
    <g id="ojo" transform="translate(836.218 8257.706)">
      <g id="Grupo_948276" data-name="Grupo 948276" transform="translate(0.741 0.74)">
        <path id="Trazado_633169" data-name="Trazado 633169" d="M90.769,155.7s-5.942,7.174-14.146,9.93a19.415,19.415,0,0,1-6.188,1.062C59.2,166.688,50.1,155.7,50.1,155.7s9.1-10.991,20.334-10.991a19.4,19.4,0,0,1,6.19,1.063C84.828,148.525,90.769,155.7,90.769,155.7Z" transform="translate(-45.894 -131.155)" fill="#e5f5f9"/>
        <path id="Trazado_633170" data-name="Trazado 633170" d="M332.807,165.394s-5.942,7.174-14.146,9.93a41.908,41.908,0,0,0,9.775-9.93,41.89,41.89,0,0,0-9.773-9.928C326.866,158.222,332.807,165.394,332.807,165.394Z" transform="translate(-287.932 -140.853)" fill="#bfd5dd"/>
        <path id="Trazado_633171" data-name="Trazado 633171" d="M166.684,155.7a11,11,0,1,1-10.992-10.991A10.992,10.992,0,0,1,166.684,155.7Z" transform="translate(-131.152 -131.155)" fill="#5cd5ff"/>
        <path id="Trazado_633172" data-name="Trazado 633172" d="M251.3,155.7a11,11,0,0,1-12.711,10.857,10.992,10.992,0,0,0,0-21.714A11,11,0,0,1,251.3,155.7Z" transform="translate(-215.769 -131.155)" fill="#5ab5ff"/>
        <path id="Trazado_633173" data-name="Trazado 633173" d="M220.474,216.107a4.374,4.374,0,1,1-4.371-4.371A4.371,4.371,0,0,1,220.474,216.107Z" transform="translate(-191.562 -191.565)" fill="#51697a"/>
        <path id="Trazado_633174" data-name="Trazado 633174" d="M247.493,216.107a4.376,4.376,0,0,1-5.782,4.14,4.374,4.374,0,0,0,0-8.278,4.374,4.374,0,0,1,5.782,4.138Z" transform="translate(-218.581 -191.565)" fill="#354c5b"/>
        <g id="Grupo_948275" data-name="Grupo 948275">
          <g id="Grupo_948274" data-name="Grupo 948274">
            <g id="Grupo_948273" data-name="Grupo 948273">
              <g id="Grupo_948271" data-name="Grupo 948271">
                <path id="Trazado_633175" data-name="Trazado 633175" d="M19.188,8.973a1.48,1.48,0,0,1-1.48,1.48H12.059a1.6,1.6,0,0,0-1.594,1.594V17.7a1.481,1.481,0,0,1-2.962,0V12.048a4.56,4.56,0,0,1,4.556-4.556h5.649a1.481,1.481,0,0,1,1.48,1.481Z" transform="translate(-7.503 -7.492)" fill="#354c5b"/>
                <path id="Trazado_633176" data-name="Trazado 633176" d="M397.868,12.048V17.7a1.481,1.481,0,0,1-2.962,0V12.048a1.6,1.6,0,0,0-1.594-1.594h-5.649a1.481,1.481,0,0,1,0-2.962h5.649A4.56,4.56,0,0,1,397.868,12.048Z" transform="translate(-348.786 -7.492)" fill="#354c5b"/>
                <path id="Trazado_633177" data-name="Trazado 633177" d="M19.188,396.395a1.48,1.48,0,0,1-1.48,1.48H12.059A4.56,4.56,0,0,1,7.5,393.32v-5.648a1.481,1.481,0,0,1,2.962,0v5.648a1.6,1.6,0,0,0,1.594,1.594h5.649A1.48,1.48,0,0,1,19.188,396.395Z" transform="translate(-7.503 -348.793)" fill="#354c5b"/>
                <path id="Trazado_633178" data-name="Trazado 633178" d="M397.868,387.672v5.648a4.56,4.56,0,0,1-4.556,4.555h-5.649a1.48,1.48,0,0,1,0-2.961h5.649a1.6,1.6,0,0,0,1.594-1.594v-5.648a1.481,1.481,0,0,1,2.962,0Z" transform="translate(-348.786 -348.793)" fill="#354c5b"/>
              </g>
              <g id="Grupo_948272" data-name="Grupo 948272" transform="translate(1.48 1.481)">
                <path id="Trazado_633179" data-name="Trazado 633179" d="M32.7,396.395H25.248a2.755,2.755,0,0,1-2.755-2.755v-7.447a1.481,1.481,0,0,1,1.481,1.48v5.648a1.6,1.6,0,0,0,1.594,1.594h5.649A1.48,1.48,0,0,1,32.7,396.395Z" transform="translate(-22.493 -350.274)" fill="#51697a"/>
                <path id="Trazado_633180" data-name="Trazado 633180" d="M25.248,22.492H32.7a1.48,1.48,0,0,1-1.48,1.48H25.568a1.6,1.6,0,0,0-1.594,1.594v5.648a1.481,1.481,0,0,1-1.481,1.48V25.247A2.755,2.755,0,0,1,25.248,22.492Z" transform="translate(-22.493 -22.492)" fill="#51697a"/>
                <path id="Trazado_633181" data-name="Trazado 633181" d="M396.388,25.247v7.447a1.481,1.481,0,0,1-1.481-1.48V25.566a1.6,1.6,0,0,0-1.594-1.594h-5.649a1.48,1.48,0,0,1-1.48-1.48h7.449A2.755,2.755,0,0,1,396.388,25.247Z" transform="translate(-350.266 -22.492)" fill="#51697a"/>
                <path id="Trazado_633182" data-name="Trazado 633182" d="M396.388,386.192v7.447a2.755,2.755,0,0,1-2.755,2.755h-7.449a1.48,1.48,0,0,1,1.48-1.48h5.649a1.6,1.6,0,0,0,1.594-1.594v-5.648A1.481,1.481,0,0,1,396.388,386.192Z" transform="translate(-350.266 -350.274)" fill="#51697a"/>
              </g>
            </g>
          </g>
          <circle id="Elipse_5386" data-name="Elipse 5386" cx="2.229" cy="2.229" r="2.229" transform="translate(25.176 18.909)" fill="#fff"/>
        </g>
      </g>
      <g id="Grupo_948277" data-name="Grupo 948277" transform="translate(0 0)">
        <path id="Trazado_633183" data-name="Trazado 633183" d="M2.221,13.165a2.224,2.224,0,0,0,2.221-2.221V5.3A.854.854,0,0,1,5.3,4.442h5.649a2.221,2.221,0,1,0,0-4.442H5.3A5.3,5.3,0,0,0,0,5.3v5.648a2.224,2.224,0,0,0,2.221,2.221ZM1.481,5.3A3.819,3.819,0,0,1,5.3,1.481h5.649a.74.74,0,1,1,0,1.48H5.3A2.337,2.337,0,0,0,2.962,5.3v5.648a.74.74,0,0,1-1.48,0Z" transform="translate(0 0)"/>
        <path id="Trazado_633184" data-name="Trazado 633184" d="M386.548,0H380.9a2.221,2.221,0,1,0,0,4.442h5.649a.854.854,0,0,1,.853.853v5.648a2.221,2.221,0,0,0,4.443,0V5.3A5.3,5.3,0,0,0,386.548,0Zm3.815,10.944a.74.74,0,0,1-1.48,0V5.3a2.337,2.337,0,0,0-2.335-2.334H380.9a.74.74,0,1,1,0-1.48h5.649A3.819,3.819,0,0,1,390.363,5.3Z" transform="translate(-341.281 0)"/>
        <path id="Trazado_633185" data-name="Trazado 633185" d="M10.945,387.416H5.3a.854.854,0,0,1-.853-.853v-5.648a2.221,2.221,0,0,0-4.443,0v5.648a5.3,5.3,0,0,0,5.3,5.3h5.649a2.221,2.221,0,1,0,0-4.442Zm0,2.961H5.3a3.819,3.819,0,0,1-3.815-3.814v-5.648a.74.74,0,0,1,1.48,0v5.648A2.337,2.337,0,0,0,5.3,388.9h5.649a.74.74,0,1,1,0,1.48Z" transform="translate(0 -341.294)"/>
        <path id="Trazado_633186" data-name="Trazado 633186" d="M389.622,378.692a2.224,2.224,0,0,0-2.221,2.221v5.648a.854.854,0,0,1-.853.853H380.9a2.221,2.221,0,1,0,0,4.442h5.649a5.3,5.3,0,0,0,5.3-5.3v-5.648A2.224,2.224,0,0,0,389.622,378.692Zm.74,7.87a3.819,3.819,0,0,1-3.815,3.814H380.9a.74.74,0,1,1,0-1.48h5.649a2.337,2.337,0,0,0,2.335-2.335v-5.648a.74.74,0,0,1,1.48,0v5.648Z" transform="translate(-341.28 -341.294)"/>
        <path id="Trazado_633187" data-name="Trazado 633187" d="M84.576,149.407a.741.741,0,0,0,0-.945,35.556,35.556,0,0,0-3.742-3.726.741.741,0,0,0-.973,1.117,37.856,37.856,0,0,1,3.158,3.08,36.826,36.826,0,0,1-11.054,8.291,11.713,11.713,0,0,0,0-16.579,31.158,31.158,0,0,1,5.458,3.251A.741.741,0,0,0,78.3,142.7c-4.953-3.651-9.876-5.5-14.632-5.5-6,0-11.374,3.069-14.822,5.643a38.324,38.324,0,0,0-6.083,5.617.741.741,0,0,0,0,.945,38.314,38.314,0,0,0,6.083,5.617c3.447,2.574,8.817,5.643,14.822,5.643s11.374-3.069,14.822-5.643a38.321,38.321,0,0,0,6.083-5.617Zm-40.253-.472a39.125,39.125,0,0,1,5.442-4.924,31.337,31.337,0,0,1,5.612-3.366,11.7,11.7,0,0,0-3.438,8.289.741.741,0,0,0,1.481,0,10.251,10.251,0,1,1,10.319,10.25h-.068a10.165,10.165,0,0,1-6.114-2.022,10.341,10.341,0,0,1-3.662-5.134.741.741,0,1,0-1.412.447,11.644,11.644,0,0,0,2.873,4.739,31.353,31.353,0,0,1-5.592-3.357A39.117,39.117,0,0,1,44.322,148.934Z" transform="translate(-38.389 -123.652)"/>
        <path id="Trazado_633188" data-name="Trazado 633188" d="M209.348,202.945a5.116,5.116,0,0,0,4.948-6.4,2.969,2.969,0,1,0-4.524-3.806c-.141-.012-.283-.018-.424-.018a5.112,5.112,0,0,0,0,10.224Zm2.865-10a1.489,1.489,0,1,1-1.489,1.489A1.49,1.49,0,0,1,212.213,192.94Zm-2.962,1.263q-.008.112-.008.225a2.971,2.971,0,0,0,3.7,2.88,3.672,3.672,0,0,1,.037.524,3.631,3.631,0,1,1-3.727-3.629Z" transform="translate(-184.066 -172.551)"/>
      </g>
    </g>
  </g>
</svg>
