<svg xmlns="http://www.w3.org/2000/svg" width="179" height="179" viewBox="0 0 179 179">
  <g id="Grupo_948536" data-name="Grupo 948536" transform="translate(-1060 -17352)">
    <circle id="Elipse_5407" data-name="Elipse 5407" cx="89.5" cy="89.5" r="89.5" transform="translate(1060 17352)" fill="#fff"/>
    <g id="Grupo_948515" data-name="Grupo 948515" transform="translate(707)">
      <rect id="Rectángulo_34831" data-name="Rectángulo 34831" width="105" height="110" transform="translate(390 17388)" fill="none"/>
      <g id="proteger_2_" data-name="proteger(2)" transform="translate(373.321 17393.15)">
        <path id="Trazado_633845" data-name="Trazado 633845" d="M80.511,102.3l-4.361,2.292a2.4,2.4,0,0,1-2.229,0L69.561,102.3c-23.945-12.585-38.69-35.809-38.69-60.939V26.015a2.383,2.383,0,0,1,2.113-2.379c8.253-.871,14.815-6.779,15.861-14.252a2.41,2.41,0,0,1,2.377-2.1H98.85a2.41,2.41,0,0,1,2.377,2.1c1.046,7.473,7.608,13.382,15.861,14.252a2.383,2.383,0,0,1,2.113,2.379v15.35C119.2,66.493,104.456,89.717,80.511,102.3Z" transform="translate(-5.857 -5.857)" fill="#e1e6e9"/>
        <path id="Trazado_633846" data-name="Trazado 633846" d="M295.3,23.635c-8.254-.871-14.815-6.779-15.861-14.252a2.41,2.41,0,0,0-2.377-2.1h-3.243c.467,10.36,7.85,17.708,15.837,18.551a2.383,2.383,0,0,1,2.113,2.379v15.35c0,25.129-14.745,48.353-38.69,60.939l-.5.265a2.393,2.393,0,0,0,1.786-.175l4.361-2.292c23.945-12.585,38.69-35.809,38.69-60.939V26.014A2.383,2.383,0,0,0,295.3,23.635Z" transform="translate(-184.073 -5.857)" fill="#cbcbcb"/>
        <path id="Trazado_633847" data-name="Trazado 633847" d="M102.191,123.276a68.607,68.607,0,0,1-26.118-23.72,59.437,59.437,0,0,1-9.409-31.861V58.982A3.076,3.076,0,0,1,68.6,56.12,27,27,0,0,0,83.12,42.776a3.069,3.069,0,0,1,2.775-1.74h35.822a3.069,3.069,0,0,1,2.775,1.74A27,27,0,0,0,139.012,56.12a3.076,3.076,0,0,1,1.938,2.863v8.713a59.437,59.437,0,0,1-9.409,31.861,68.609,68.609,0,0,1-26.118,23.72l-.181.095a3.085,3.085,0,0,1-2.871,0Z" transform="translate(-34.629 -32.986)" fill="#2ff980"/>
        <path id="Trazado_633848" data-name="Trazado 633848" d="M291.206,56.119l-.151-.062-.251-.1q-.214-.089-.426-.18l-.244-.107q-.226-.1-.45-.205l-.2-.094q-.322-.153-.641-.313l-.047-.025q-.294-.149-.584-.305l-.2-.112c-.14-.077-.28-.155-.419-.234l-.23-.133q-.2-.115-.391-.232l-.225-.138c-.136-.084-.27-.169-.4-.255l-.2-.126q-.274-.18-.544-.365l-.04-.027q-.289-.2-.572-.407l-.176-.131q-.195-.144-.387-.292l-.2-.16q-.177-.139-.352-.281l-.2-.166q-.179-.148-.355-.3l-.181-.155q-.218-.19-.431-.385l-.089-.08q-.256-.235-.5-.476l-.142-.14q-.177-.174-.351-.35l-.176-.182q-.156-.161-.308-.325l-.178-.192q-.153-.167-.3-.337l-.162-.184c-.117-.135-.232-.272-.346-.409l-.1-.119q-.219-.267-.431-.539l-.107-.14q-.157-.2-.31-.411c-.049-.066-.1-.133-.145-.2q-.131-.182-.26-.366l-.148-.215q-.126-.185-.248-.372c-.046-.069-.091-.138-.136-.208-.091-.142-.18-.284-.268-.428-.032-.053-.066-.1-.1-.158q-.178-.294-.348-.593c-.024-.042-.047-.085-.07-.127q-.133-.237-.262-.477c-.038-.071-.074-.142-.111-.213q-.1-.2-.206-.4-.058-.116-.114-.233c-.029-.059-.059-.118-.087-.177a3.069,3.069,0,0,0-2.775-1.74H256v82.689a3.084,3.084,0,0,0,1.435-.354l.181-.095a68.606,68.606,0,0,0,26.118-23.72,59.437,59.437,0,0,0,9.409-31.861V58.981A3.075,3.075,0,0,0,291.206,56.119Z" transform="translate(-186.822 -32.985)" fill="#25c766"/>
        <path id="Trazado_633849" data-name="Trazado 633849" d="M291.206,56.119l-.151-.062-.251-.1q-.214-.089-.426-.18l-.244-.107q-.226-.1-.45-.205l-.2-.094q-.322-.153-.641-.313l-.047-.025q-.294-.149-.584-.305l-.2-.112c-.14-.077-.28-.155-.419-.234l-.23-.133q-.2-.115-.391-.232l-.225-.138c-.136-.084-.27-.169-.4-.255l-.2-.126q-.274-.18-.544-.365l-.04-.027q-.289-.2-.572-.407l-.176-.131q-.195-.144-.387-.292l-.2-.16q-.177-.139-.352-.281l-.2-.166q-.179-.148-.355-.3l-.181-.155q-.218-.19-.431-.385l-.089-.08q-.256-.235-.5-.476l-.142-.14q-.177-.174-.351-.35l-.176-.182q-.156-.161-.308-.325l-.178-.192q-.153-.167-.3-.337l-.162-.184c-.117-.135-.232-.272-.346-.409l-.1-.119q-.219-.267-.431-.539l-.107-.14q-.157-.2-.31-.411c-.049-.066-.1-.133-.145-.2q-.131-.182-.26-.366l-.148-.215q-.126-.185-.248-.372c-.046-.069-.091-.138-.136-.208-.091-.142-.18-.284-.268-.428-.032-.053-.066-.1-.1-.158q-.178-.294-.348-.593c-.024-.042-.047-.085-.07-.127q-.133-.237-.262-.477c-.038-.071-.074-.142-.111-.213q-.1-.2-.206-.4-.058-.116-.114-.233c-.029-.059-.059-.118-.087-.177a3.069,3.069,0,0,0-2.775-1.74h-4.957a27.512,27.512,0,0,1,2.179,3.287c.033.057.058.118.087.177l.114.233q.1.2.206.4c.037.071.074.142.111.213q.128.24.262.477c.024.042.046.085.07.127q.17.3.348.593c.032.053.065.105.1.158q.132.215.268.428c.045.07.09.138.136.208.082.125.164.249.248.372l.148.215q.128.184.26.366c.048.067.1.133.145.2.1.138.205.275.31.411.036.047.071.094.107.14q.212.272.431.539l.1.119c.114.137.229.274.346.409.053.062.108.123.162.184q.15.169.3.337l.178.192q.153.164.308.325l.176.182q.174.177.351.35l.142.14q.249.241.5.476l.089.08q.213.194.431.385l.181.155q.176.151.355.3l.2.166q.175.142.352.281l.2.16q.192.148.387.292l.176.131q.283.207.572.407l.04.027q.269.185.544.365l.2.126q.2.129.4.255l.225.138q.194.118.391.232l.23.133q.208.119.419.234l.2.112q.29.156.584.305l.047.025q.317.161.64.313l.2.094c.15.069.3.138.45.205l.244.107q.212.092.426.18l.251.1.151.062a3.076,3.076,0,0,1,1.938,2.863v8.713a59.437,59.437,0,0,1-9.409,31.861A73.2,73.2,0,0,1,256,123.643v.081a3.083,3.083,0,0,0,1.435-.354l.181-.095a68.606,68.606,0,0,0,26.118-23.72,59.437,59.437,0,0,0,9.409-31.861V58.981A3.075,3.075,0,0,0,291.206,56.119Z" transform="translate(-186.822 -32.985)" fill="#1e9690"/>
        <path id="Trazado_633850" data-name="Trazado 633850" d="M192.966,215.852H160.331a3.117,3.117,0,0,1-3.117-3.117V192.269a3.117,3.117,0,0,1,3.117-3.117h32.636a3.117,3.117,0,0,1,3.117,3.117v20.467A3.117,3.117,0,0,1,192.966,215.852Z" transform="translate(-107.415 -152.045)" fill="#636a75"/>
        <path id="Trazado_633851" data-name="Trazado 633851" d="M316.338,189.152H310.7a3.117,3.117,0,0,1,3.117,3.117v20.467a3.117,3.117,0,0,1-3.117,3.117h5.643a3.117,3.117,0,0,0,3.117-3.117V192.269A3.117,3.117,0,0,0,316.338,189.152Z" transform="translate(-230.787 -152.045)" fill="#515a66"/>
        <path id="Trazado_633852" data-name="Trazado 633852" d="M241.132,238.627v4.07a1.43,1.43,0,1,0,2.859,0v-4.07a3.348,3.348,0,1,0-2.859,0Z" transform="translate(-173.329 -186.692)"/>
        <path id="Trazado_633853" data-name="Trazado 633853" d="M95.67,118.684h0l.18.095a4.514,4.514,0,0,0,4.2,0l.181-.1a70.038,70.038,0,0,0,26.66-24.219,60.864,60.864,0,0,0,9.631-32.628V53.125a4.48,4.48,0,0,0-2.842-4.192A25.419,25.419,0,0,1,119.929,36.3a4.518,4.518,0,0,0-4.067-2.556H80.04A4.517,4.517,0,0,0,75.974,36.3,25.418,25.418,0,0,1,62.22,48.933a4.48,4.48,0,0,0-2.841,4.192v8.713A60.862,60.862,0,0,0,69.01,94.465,70.036,70.036,0,0,0,95.67,118.684ZM62.238,61.837V53.125a1.636,1.636,0,0,1,1.034-1.534A28.266,28.266,0,0,0,78.555,37.533a1.645,1.645,0,0,1,1.485-.925h35.822a1.645,1.645,0,0,1,1.485.925,28.269,28.269,0,0,0,15.283,14.059,1.636,1.636,0,0,1,1.034,1.534v8.713a58.01,58.01,0,0,1-9.186,31.1A67.179,67.179,0,0,1,98.9,116.154l-.181.095a1.655,1.655,0,0,1-1.541,0l-.18-.095A67.178,67.178,0,0,1,71.424,92.933,58.01,58.01,0,0,1,62.238,61.837Z" transform="translate(-28.773 -27.128)"/>
        <path id="Trazado_633854" data-name="Trazado 633854" d="M118.485,245.6a1.429,1.429,0,0,0-1.709,1.079c-4.354,19.26-17.613,35.963-36.378,45.826L76.037,294.8a.967.967,0,0,1-.9,0l-4.361-2.292c-18.795-9.879-32.061-26.61-36.4-45.905a1.429,1.429,0,1,0-2.789.627c4.519,20.114,18.317,37.54,37.855,47.809l4.361,2.292a3.824,3.824,0,0,0,3.559,0l4.361-2.292c19.507-10.253,33.3-27.649,37.837-47.726A1.43,1.43,0,0,0,118.485,245.6Z" transform="translate(-6.409 -197.328)"/>
        <path id="Trazado_633855" data-name="Trazado 633855" d="M111.381,16.357c-7.633-.805-13.635-6.163-14.6-13.029A3.861,3.861,0,0,0,92.993,0H45.364a3.861,3.861,0,0,0-3.792,3.328c-.961,6.866-6.963,12.223-14.6,13.029a3.8,3.8,0,0,0-3.393,3.8v15.35a65.8,65.8,0,0,0,.344,6.7,1.43,1.43,0,0,0,1.42,1.283,1.449,1.449,0,0,0,.148-.008,1.429,1.429,0,0,0,1.276-1.568,62.948,62.948,0,0,1-.329-6.41V20.157a.959.959,0,0,1,.834-.958C36.217,18.256,43.26,11.892,44.4,3.724a.978.978,0,0,1,.961-.865H92.992a.978.978,0,0,1,.961.865C95.1,11.892,102.139,18.256,111.08,19.2a.959.959,0,0,1,.834.958v15.35a62.972,62.972,0,0,1-.322,6.344,1.43,1.43,0,0,0,2.844.289,65.818,65.818,0,0,0,.336-6.633V20.157A3.8,3.8,0,0,0,111.381,16.357Z" transform="translate(0)"/>
        <path id="Trazado_633856" data-name="Trazado 633856" d="M187.109,126.235a4.551,4.551,0,0,0,4.546-4.546V101.222a4.551,4.551,0,0,0-4.546-4.546h-2.35V89.852a13.968,13.968,0,0,0-27.935,0v6.823h-2.35a4.551,4.551,0,0,0-4.546,4.546v20.467a4.551,4.551,0,0,0,4.546,4.546ZM159.682,89.853a11.109,11.109,0,0,1,22.217,0v6.823H159.682Zm-6.9,31.836V101.222a1.689,1.689,0,0,1,1.687-1.687h32.636a1.689,1.689,0,0,1,1.687,1.687v20.467a1.689,1.689,0,0,1-1.687,1.687H154.473A1.689,1.689,0,0,1,152.786,121.689Z" transform="translate(-101.558 -60.998)"/>
      </g>
    </g>
  </g>
</svg>
