<svg xmlns="http://www.w3.org/2000/svg" xmlns:xlink="http://www.w3.org/1999/xlink" width="85" height="85" viewBox="0 0 85 85">
  <defs>
    <clipPath id="clip-path">
      <rect id="Rectángulo_34584" data-name="Rectángulo 34584" width="85" height="85" transform="translate(285 14109)" fill="#2ff980" stroke="#707070" stroke-width="1"/>
    </clipPath>
  </defs>
  <g id="Grupo_127" data-name="Grupo 127" transform="translate(-285 -14109)" clip-path="url(#clip-path)">
    <g id="no-autorizado_1_" data-name="no-autorizado(1)" transform="translate(284.742 14108)">
      <path id="Trazado_633478" data-name="Trazado 633478" d="M73.919,48.613V2H10.855V48.613L4,63.694H80.774Z" transform="translate(0.371 0.371)" fill="#5a6d80"/>
      <path id="Trazado_633479" data-name="Trazado 633479" d="M9,2H72.065V48.613H9Z" transform="translate(2.226 0.371)" fill="#7cb4f8"/>
      <path id="Trazado_633480" data-name="Trazado 633480" d="M52.9,38.161H20L36.452,8Z" transform="translate(6.307 2.597)" fill="#d98d8e"/>
      <path id="Trazado_633481" data-name="Trazado 633481" d="M58.176,45.984A2.056,2.056,0,0,0,56.12,48.04V45.3a2.056,2.056,0,1,0-4.113,0V42.556a2.056,2.056,0,1,0-4.113,0v2.709a2.057,2.057,0,0,0-4.113.033V56.266L41.7,54.507a2.447,2.447,0,0,0-4.3.658A2.507,2.507,0,0,0,37.515,57L41.2,63.4a4.353,4.353,0,0,0,3.921,2.468v5.484H56.092V65.863a7.815,7.815,0,0,0,4.14-6.855V48.04a2.056,2.056,0,0,0-2.056-2.056Z" transform="translate(12.715 14.653)" fill="#e6c59a"/>
      <path id="Trazado_633482" data-name="Trazado 633482" d="M32.816,55.169a2.447,2.447,0,0,0-4.3-.658l-2.08,1.755V45.3a2.057,2.057,0,0,0-4.113-.033V42.556a2.056,2.056,0,0,0-4.113,0V45.3a2.056,2.056,0,0,0-4.113,0V48.04a2.056,2.056,0,0,0-4.113,0V59.008a7.815,7.815,0,0,0,4.14,6.855v5.484H25.088V65.863A4.353,4.353,0,0,0,29.009,63.4L32.693,57A2.507,2.507,0,0,0,32.816,55.169Z" transform="translate(2.59 14.653)" fill="#e6c59a"/>
      <path id="Trazado_633483" data-name="Trazado 633483" d="M4.371,65.435H11.2v8.226a9.068,9.068,0,0,0,4.14,7.614V86h2.742V80.516a1.371,1.371,0,0,0-.685-1.189,6.471,6.471,0,0,1-3.455-5.666V62.694a.685.685,0,0,1,1.371,0v4.113h2.742V59.952a.685.685,0,0,1,1.371,0v6.855h2.742v-9.6a.685.685,0,0,1,1.371,0v9.6h2.742V59.935a.686.686,0,1,1,1.371.016V70.919a1.371,1.371,0,0,0,2.257,1.047l2.08-1.76a1.382,1.382,0,0,0,.228-.245,1.056,1.056,0,0,1,.861-.444,1.041,1.041,0,0,1,1.024.717,1.134,1.134,0,0,1,0,.738l-3.728,6.472a2.993,2.993,0,0,1-2.694,1.7,1.371,1.371,0,0,0-1.371,1.371V86h2.742V81.723a5.644,5.644,0,0,0,3.737-2.989l3.735-6.489a3.869,3.869,0,0,0,.189-2.852,3.818,3.818,0,0,0-6.317-1.508v-2.45H55.124v2.45A3.818,3.818,0,0,0,48.8,69.4a3.91,3.91,0,0,0,.243,2.938l3.641,6.306a5.727,5.727,0,0,0,3.78,3.074V86H59.21V80.516a1.371,1.371,0,0,0-1.371-1.371,3.042,3.042,0,0,1-2.734-1.782l-3.633-6.3a1.13,1.13,0,0,1-.059-.823,1.076,1.076,0,0,1,1.889-.274,1.382,1.382,0,0,0,.228.245l2.08,1.76a1.371,1.371,0,0,0,2.257-1.054V59.952a.686.686,0,1,1,1.371-.016v6.871h2.742v-9.6a.685.685,0,0,1,1.371,0v9.6h2.742V59.952a.685.685,0,1,1,1.371,0v6.855h2.742V62.694a.685.685,0,1,1,1.371,0V73.661a6.471,6.471,0,0,1-3.455,5.666,1.371,1.371,0,0,0-.685,1.189V86h2.742V81.276a9.068,9.068,0,0,0,4.14-7.614V65.435h6.827A1.371,1.371,0,0,0,82.393,63.5L75.662,48.688V2.371A1.371,1.371,0,0,0,74.291,1H11.226A1.371,1.371,0,0,0,9.855,2.371V48.688L3.124,63.494a1.371,1.371,0,0,0,1.248,1.941ZM12.6,3.742H72.92V47.613H12.6Zm-.488,46.613h61.3l5.609,12.339h-4.7a3.407,3.407,0,0,0-4.176-3.34,3.427,3.427,0,0,0-3.367-2.83,3.356,3.356,0,0,0-.747.088,3.418,3.418,0,0,0-6.733,0,3.408,3.408,0,0,0-4.17,3.34v2.742H30.392V59.952a3.408,3.408,0,0,0-4.17-3.341,3.418,3.418,0,0,0-6.733,0,3.356,3.356,0,0,0-.747-.088,3.427,3.427,0,0,0-3.367,2.83A3.407,3.407,0,0,0,11.2,62.694H6.5Z" transform="translate(0 0)"/>
      <path id="Trazado_633484" data-name="Trazado 633484" d="M38.026,7.7a1.426,1.426,0,0,0-2.407,0L19.167,37.861a1.371,1.371,0,0,0,1.2,2.028h32.9a1.371,1.371,0,0,0,1.2-2.028ZM22.681,37.147,36.823,11.219,50.964,37.147Z" transform="translate(5.936 2.24)"/>
      <path id="Trazado_633485" data-name="Trazado 633485" d="M31,16h2.742v9.6H31Z" transform="translate(10.387 5.565)"/>
      <path id="Trazado_633486" data-name="Trazado 633486" d="M31,25h2.742v2.742H31Z" transform="translate(10.387 8.903)"/>
    </g>
  </g>
</svg>
