<svg xmlns="http://www.w3.org/2000/svg" width="292.25" height="311.58" viewBox="0 0 292.25 311.58">
  <g id="Grupo_948746" data-name="Grupo 948746" transform="translate(-980.983 -86.293)">
    <g id="Grupo_948746-2" data-name="Grupo 948746" transform="translate(980.983 249.131)">
      <path id="Trazado_634192" data-name="Trazado 634192" d="M995.241,373.838c-.018,0-.037,0-.055,0a.52.52,0,0,1-.462-.572c1.079-10.279,6.16-17.561,10.243-23.413.573-.822,1.122-1.584,1.638-2.3,2.969-4.126,4.761-6.617,4.061-10.376-.586-3.143-2.113-5.337-9.2-9.3-8.172-4.576-20.521-11.49-20.48-29.092a.521.521,0,0,1,.519-.519h0a.521.521,0,0,1,.518.522c-.041,16.991,11.988,23.725,19.947,28.18,7.408,4.146,9.084,6.628,9.717,10.023.782,4.2-1.215,6.973-4.24,11.176-.512.713-1.059,1.47-1.628,2.289-4.016,5.753-9.01,12.912-10.062,22.925A.52.52,0,0,1,995.241,373.838Z" transform="translate(-980.983 -298.257)" fill="#32293a"/>
    </g>
    <g id="Grupo_948747" data-name="Grupo 948747" transform="translate(1233.844 225.018)">
      <path id="Trazado_634193" data-name="Trazado 634193" d="M1336.443,354.72a.461.461,0,0,1-.1-.011.518.518,0,0,1-.407-.612c4.658-23.4-6.285-40.328-15.079-53.928-9.125-14.109-13.652-21.984-8.671-32.993a.519.519,0,1,1,.946.429c-4.758,10.516-.324,18.2,8.6,32,8.9,13.761,19.968,30.883,15.226,54.7A.52.52,0,0,1,1336.443,354.72Z" transform="translate(-1310.129 -266.87)" fill="#32293a"/>
    </g>
    <path id="Trazado_634194" data-name="Trazado 634194" d="M1133.3,387.908c-36.421,2.905-103.505-.721-119.575-35.2s11.916-38.929,11.119-59.9-29.717-15.912-29.665-37.879c.045-18.807,39.26-26.063,28.872-51.837s-12.2-69.03,15.546-82.941c19.8-9.925,48.471,22.531,83.121,14.249,30.564-7.305,68.255-37.034,99.007-20.485,28.379,15.273,36.311,67.412,8.782,111.937-16.032,33.812,33.547,50.883,21.875,93.449C1232.335,392.4,1160.315,385.751,1133.3,387.908Z" transform="translate(-3.289 -5.258)" fill="#e0feec"/>
    <g id="Grupo_948748" data-name="Grupo 948748" transform="translate(993.562 105.931)">
      <path id="Trazado_634195" data-name="Trazado 634195" d="M1094.549,112.533v72.772a9.066,9.066,0,0,1-9.052,9.079h-78.411a9.066,9.066,0,0,1-9.052-9.079V112.533Z" transform="translate(-997.514 -112.012)" fill="#fffdf7"/>
      <path id="Trazado_634196" data-name="Trazado 634196" d="M1085.34,194.748h-78.411a9.6,9.6,0,0,1-9.572-9.6V111.855h97.555v73.294A9.6,9.6,0,0,1,1085.34,194.748ZM998.4,112.9v72.253a8.555,8.555,0,0,0,8.533,8.558h78.411a8.555,8.555,0,0,0,8.533-8.558V112.9Z" transform="translate(-997.357 -111.855)" fill="#32293a"/>
    </g>
    <path id="Trazado_634197" data-name="Trazado 634197" d="M1094.549,101.752v6.178H998.034v-6.178a9.066,9.066,0,0,1,9.052-9.08H1085.5A9.066,9.066,0,0,1,1094.549,101.752Z" transform="translate(-3.952 -1.478)" fill="#25c766"/>
    <path id="Trazado_634198" data-name="Trazado 634198" d="M1094.912,108.293H997.357v-6.7a9.6,9.6,0,0,1,9.572-9.6h78.411a9.6,9.6,0,0,1,9.571,9.6ZM998.4,107.252h95.477v-5.658a8.555,8.555,0,0,0-8.533-8.558h-78.411a8.555,8.555,0,0,0-8.533,8.558Z" transform="translate(-3.795 -1.322)" fill="#32293a"/>
    <g id="Grupo_948749" data-name="Grupo 948749" transform="translate(999.255 95.959)">
      <rect id="Rectángulo_34864" data-name="Rectángulo 34864" width="56.744" height="5.074" rx="2.537" transform="translate(0.519 0.52)" fill="#fffdf7"/>
      <path id="Trazado_634199" data-name="Trazado 634199" d="M1059.5,104.99h-51.681a3.058,3.058,0,0,1,0-6.115H1059.5a3.058,3.058,0,0,1,0,6.115Zm-51.681-5.074a2.017,2.017,0,0,0,0,4.033H1059.5a2.017,2.017,0,0,0,0-4.033Z" transform="translate(-1004.768 -98.875)" fill="#32293a"/>
    </g>
    <g id="Grupo_948750" data-name="Grupo 948750" transform="translate(1077.503 95.705)">
      <path id="Trazado_634200" data-name="Trazado 634200" d="M1107.3,102.009a2.781,2.781,0,1,1,2.781,2.787A2.784,2.784,0,0,1,1107.3,102.009Z" transform="translate(-1106.779 -98.702)" fill="#fffdf7"/>
      <path id="Trazado_634201" data-name="Trazado 634201" d="M1109.922,105.16a3.308,3.308,0,1,1,3.3-3.308A3.307,3.307,0,0,1,1109.922,105.16Zm0-5.574a2.267,2.267,0,1,0,2.262,2.266A2.266,2.266,0,0,0,1109.922,99.586Z" transform="translate(-1106.622 -98.545)" fill="#32293a"/>
    </g>
    <g id="Grupo_948751" data-name="Grupo 948751" transform="translate(1070.688 96.676)">
      <path id="Trazado_634202" data-name="Trazado 634202" d="M1098.426,102.3a1.812,1.812,0,1,1,1.812,1.816A1.814,1.814,0,0,1,1098.426,102.3Z" transform="translate(-1097.907 -99.966)" fill="#fffdf7"/>
      <path id="Trazado_634203" data-name="Trazado 634203" d="M1100.082,104.482a2.337,2.337,0,1,1,2.331-2.337A2.336,2.336,0,0,1,1100.082,104.482Zm0-3.632a1.3,1.3,0,1,0,1.292,1.3A1.295,1.295,0,0,0,1100.082,100.85Z" transform="translate(-1097.751 -99.809)" fill="#32293a"/>
    </g>
    <path id="Rectángulo_34865" data-name="Rectángulo 34865" d="M8.451,0h58.8A8.45,8.45,0,0,1,75.7,8.45V18.7a8.45,8.45,0,0,1-8.45,8.45H8.45A8.45,8.45,0,0,1,0,18.7V8.451A8.451,8.451,0,0,1,8.451,0Z" transform="translate(1004.49 115.228)" fill="#e0feec"/>
    <path id="Rectángulo_34866" data-name="Rectángulo 34866" d="M8.451,0h58.8A8.45,8.45,0,0,1,75.7,8.45V18.7a8.451,8.451,0,0,1-8.451,8.451H8.451A8.451,8.451,0,0,1,0,18.7V8.451A8.451,8.451,0,0,1,8.451,0Z" transform="translate(1004.49 151.124)" fill="#e0feec"/>
    <g id="Grupo_948752" data-name="Grupo 948752" transform="translate(1003.971 166.197)">
      <path id="Trazado_634204" data-name="Trazado 634204" d="M1070.808,202.9H1016.12a5.226,5.226,0,0,1-5.214-5.225v-6.853a.519.519,0,1,1,1.039,0v6.853a4.185,4.185,0,0,0,4.175,4.184h54.688a.52.52,0,0,1,0,1.041Z" transform="translate(-1010.906 -190.303)" fill="#32293a"/>
    </g>
    <g id="Grupo_948753" data-name="Grupo 948753" transform="translate(1192.826 151.694)">
      <path id="Rectángulo_34867" data-name="Rectángulo 34867" d="M0,0H58.884A20.485,20.485,0,0,1,79.369,20.485v0A20.485,20.485,0,0,1,58.884,40.97H9.491A9.491,9.491,0,0,1,0,31.478V0A0,0,0,0,1,0,0Z" transform="translate(0.519 0.521)" fill="#fffdf7"/>
      <path id="Trazado_634205" data-name="Trazado 634205" d="M1316.185,213.436h-49.458a10.012,10.012,0,0,1-9.99-10.012v-32h59.448a21.005,21.005,0,0,1,0,42.011Zm-58.41-40.97v30.958a8.971,8.971,0,0,0,8.951,8.971h49.458a19.965,19.965,0,0,0,0-39.929Z" transform="translate(-1256.737 -171.425)" fill="#32293a"/>
    </g>
    <path id="Trazado_634206" data-name="Trazado 634206" d="M1166.233,385.35h21.451l-11.249-18.4h-21.451Z" transform="translate(-40.328 -65.046)" fill="#f4c7a8"/>
    <path id="Trazado_634207" data-name="Trazado 634207" d="M1178.618,382.953v-1.528a3.017,3.017,0,0,0-3.014-3.02h-1a3.013,3.013,0,0,0-2.688,1.654l-1.422,2.81a3.013,3.013,0,0,1-2.688,1.655h-8.673a3.013,3.013,0,0,1-2.45-1.261l-4.8-6.708a3.014,3.014,0,0,0-2.45-1.261h0a3.7,3.7,0,0,0-2.216.973c-8.32,6.42-17.293,12.773-26,18.454-1.408.918-2.831,1.808-3.369,3.4l-2.159,6.4h62.74Z" transform="translate(-31.22 -66.981)" fill="#25c766"/>
    <g id="Grupo_948754" data-name="Grupo 948754" transform="translate(1083.948 337.022)">
      <path id="Trazado_634208" data-name="Trazado 634208" d="M1178.427,413.341v6.016a1.941,1.941,0,0,1-1.939,1.943h-58.862a1.941,1.941,0,0,1-1.939-1.943v-6.016Z" transform="translate(-1115.168 -412.821)" fill="#fffdf7"/>
      <path id="Trazado_634209" data-name="Trazado 634209" d="M1176.332,421.664h-58.863a2.464,2.464,0,0,1-2.458-2.464v-6.015a.52.52,0,1,1,1.039,0V419.2a1.422,1.422,0,0,0,1.419,1.423h58.863a1.422,1.422,0,0,0,1.419-1.423v-6.015a.519.519,0,1,1,1.039,0V419.2A2.464,2.464,0,0,1,1176.332,421.664Z" transform="translate(-1115.011 -412.664)" fill="#32293a"/>
    </g>
    <g id="Grupo_948755" data-name="Grupo 948755" transform="translate(1134.162 324.619)">
      <path id="Trazado_634210" data-name="Trazado 634210" d="M1181.245,409.727l-.871-.569,6.418-9.872a6.063,6.063,0,0,1,5.1-2.768h1.72v1.041h-1.72a5.027,5.027,0,0,0-4.228,2.3Z" transform="translate(-1180.374 -396.519)" fill="#32293a"/>
    </g>
    <g id="Grupo_948756" data-name="Grupo 948756" transform="translate(1095.525 312.039)">
      <path id="Trazado_634211" data-name="Trazado 634211" d="M1135.84,398.465a3.111,3.111,0,0,1-.638-.067,3.037,3.037,0,0,1-1.933-1.331l-3.187-4.931.87-.566,3.188,4.931a2.018,2.018,0,0,0,2.8.592l12.39-8.121a2.028,2.028,0,0,0,.523-2.89l-3.893-5.322.838-.615,3.893,5.323a3.069,3.069,0,0,1-.792,4.375l-12.392,8.122A3.026,3.026,0,0,1,1135.84,398.465Z" transform="translate(-1130.081 -380.144)" fill="#32293a"/>
    </g>
    <g id="Grupo_948757" data-name="Grupo 948757" transform="translate(1107.433 314.889)">
      <path id="Trazado_634212" data-name="Trazado 634212" d="M1146.257,384.53l4.854,6.927Z" transform="translate(-1145.738 -384.011)" fill="#ffcc38"/>
      <path id="Trazado_634213" data-name="Trazado 634213" d="M1150.954,391.821a.518.518,0,0,1-.425-.222l-4.853-6.926a.519.519,0,1,1,.85-.6l4.853,6.926a.521.521,0,0,1-.126.725A.516.516,0,0,1,1150.954,391.821Z" transform="translate(-1145.582 -383.854)" fill="#32293a"/>
    </g>
    <g id="Grupo_948758" data-name="Grupo 948758" transform="translate(1103.545 317.632)">
      <path id="Trazado_634214" data-name="Trazado 634214" d="M1141.2,388.1l4.854,6.927Z" transform="translate(-1140.677 -387.581)" fill="#ffcc38"/>
      <path id="Trazado_634215" data-name="Trazado 634215" d="M1145.893,395.392a.519.519,0,0,1-.425-.222l-4.854-6.927a.519.519,0,1,1,.85-.6l4.854,6.927a.521.521,0,0,1-.425.82Z" transform="translate(-1140.52 -387.425)" fill="#32293a"/>
    </g>
    <g id="Grupo_948759" data-name="Grupo 948759" transform="translate(1099.585 320.209)">
      <path id="Trazado_634216" data-name="Trazado 634216" d="M1136.041,391.455l4.854,6.927Z" transform="translate(-1135.522 -390.935)" fill="#ffcc38"/>
      <path id="Trazado_634217" data-name="Trazado 634217" d="M1140.738,398.745a.517.517,0,0,1-.425-.221l-4.854-6.927a.519.519,0,1,1,.85-.6l4.854,6.927a.52.52,0,0,1-.425.819Z" transform="translate(-1135.365 -390.779)" fill="#32293a"/>
    </g>
    <g id="Grupo_948760" data-name="Grupo 948760" transform="translate(1204.394 162.658)">
      <path id="Trazado_634218" data-name="Trazado 634218" d="M1294.375,193.249h-17.013a.52.52,0,0,1,0-1.041h17.013a2.735,2.735,0,0,0,0-5.469h-22.061a.521.521,0,0,1,0-1.042h22.061a3.776,3.776,0,0,1,0,7.552Z" transform="translate(-1271.794 -185.697)" fill="#32293a"/>
    </g>
    <g id="Grupo_948761" data-name="Grupo 948761" transform="translate(1212.686 174.673)">
      <path id="Trazado_634219" data-name="Trazado 634219" d="M1296.876,208.888h-9.406a.52.52,0,0,1,0-1.041h9.406a2.735,2.735,0,0,0,0-5.47h-13.769a.52.52,0,0,1,0-1.041h13.769a3.776,3.776,0,0,1,0,7.552Z" transform="translate(-1282.588 -201.336)" fill="#32293a"/>
    </g>
    <g id="Grupo_948767" data-name="Grupo 948767" transform="translate(1153.718 348.441)">
      <rect id="Rectángulo_34868" data-name="Rectángulo 34868" width="21.451" height="22.432" transform="translate(5.83)" fill="#f4c7a8"/>
      <path id="Trazado_634220" data-name="Trazado 634220" d="M1210.351,440.77h.836a2.626,2.626,0,0,1,2.319,1.4l1.682,3.173h15.289l1.682-3.173a2.625,2.625,0,0,1,2.319-1.4h.836a3.706,3.706,0,0,1,3.7,3.712V468.55a4.3,4.3,0,0,1-4.3,4.307h-23.775a4.3,4.3,0,0,1-4.3-4.307V444.482A3.707,3.707,0,0,1,1210.351,440.77Z" transform="translate(-1206.019 -430.598)" fill="#25c766"/>
      <path id="Trazado_634221" data-name="Trazado 634221" d="M1232.592,444.005v-2a6.991,6.991,0,0,0-6.983-7h0a6.991,6.991,0,0,0-6.983,7v2Z" transform="translate(-1208.795 -429.263)" fill="#25c766"/>
      <g id="Grupo_948762" data-name="Grupo 948762" transform="translate(9.311 14.221)">
        <path id="Trazado_634222" data-name="Trazado 634222" d="M1218.625,446.719l2.194,15.523a3.3,3.3,0,0,0,3.267,2.842h3.045a3.3,3.3,0,0,0,3.266-2.842l2.194-15.523Z" transform="translate(-1218.106 -446.198)" fill="#25c766"/>
        <path id="Trazado_634223" data-name="Trazado 634223" d="M1226.974,465.448h-3.045a3.838,3.838,0,0,1-3.78-3.291l-2.194-15.522a.519.519,0,1,1,1.027-.146l2.194,15.522a2.8,2.8,0,0,0,2.753,2.4h3.045a2.8,2.8,0,0,0,2.753-2.395l2.194-15.523a.519.519,0,1,1,1.027.146l-2.194,15.523A3.836,3.836,0,0,1,1226.974,465.448Z" transform="translate(-1217.95 -446.04)" fill="#32293a"/>
      </g>
      <g id="Grupo_948763" data-name="Grupo 948763" transform="translate(9.937 18.66)">
        <path id="Trazado_634224" data-name="Trazado 634224" d="M1231.938,452.495h0Z" transform="translate(-1218.922 -451.975)" fill="#ffcc38"/>
        <path id="Trazado_634225" data-name="Trazado 634225" d="M1231.781,452.859h-12.5a.52.52,0,0,1,0-1.041h12.5a.52.52,0,0,1,0,1.041Z" transform="translate(-1218.765 -451.818)" fill="#32293a"/>
      </g>
      <g id="Grupo_948764" data-name="Grupo 948764" transform="translate(11.076 23.396)">
        <path id="Trazado_634226" data-name="Trazado 634226" d="M1231.144,458.661h0Z" transform="translate(-1220.404 -458.14)" fill="#ffcc38"/>
        <path id="Trazado_634227" data-name="Trazado 634227" d="M1230.988,459.025h-10.221a.521.521,0,0,1,0-1.042h10.221a.521.521,0,0,1,0,1.042Z" transform="translate(-1220.247 -457.983)" fill="#32293a"/>
      </g>
      <g id="Grupo_948765" data-name="Grupo 948765" transform="translate(11.543 28.198)">
        <path id="Trazado_634228" data-name="Trazado 634228" d="M1230.817,464.911h0Z" transform="translate(-1221.013 -464.391)" fill="#ffcc38"/>
        <path id="Trazado_634229" data-name="Trazado 634229" d="M1230.661,465.275h-9.286a.52.52,0,0,1,0-1.041h9.286a.52.52,0,0,1,0,1.041Z" transform="translate(-1220.856 -464.234)" fill="#32293a"/>
      </g>
      <g id="Grupo_948766" data-name="Grupo 948766" transform="translate(0 37.673)">
        <path id="Trazado_634230" data-name="Trazado 634230" d="M1234.422,488.114h-23.776a4.828,4.828,0,0,1-4.816-4.828v-6.2a.519.519,0,1,1,1.039,0v6.2a3.787,3.787,0,0,0,3.777,3.787h23.776a3.786,3.786,0,0,0,3.777-3.787v-6.2a.519.519,0,1,1,1.039,0v6.2A4.827,4.827,0,0,1,1234.422,488.114Z" transform="translate(-1205.83 -476.567)" fill="#32293a"/>
      </g>
    </g>
    <path id="Trazado_634231" data-name="Trazado 634231" d="M1166.184,237.517v10.45a3.834,3.834,0,0,1-3.83,3.838h-43.925a18.894,18.894,0,0,0-16.1,28.718l34.861,57.33a2.879,2.879,0,0,0,2.461,1.387h29.387a2.028,2.028,0,0,0,1.744-3.058l-30.021-50.833h41.133V383.84a2.885,2.885,0,0,0,2.882,2.888h26.705a2.884,2.884,0,0,0,2.882-2.9l-.844-146.306Z" transform="translate(-27.479 -35.049)" fill="#32293a"/>
    <path id="Trazado_634232" data-name="Trazado 634232" d="M1131.5,169.719l-9.092,8.022-15.195-16.591.943-10.41a10.969,10.969,0,0,0-6.669-11.107l-22.124-9.406.837,31.357,33.328,37.951a16.875,16.875,0,0,0,24.241,1.17l11.132-10.452Z" transform="translate(-22.802 -10.182)" fill="#f4c7a8"/>
    <g id="Grupo_948768" data-name="Grupo 948768" transform="translate(1171.361 212.698)">
      <path id="Trazado_634233" data-name="Trazado 634233" d="M1239.861,263.527l-.026,0a12.061,12.061,0,0,1-7.567-3.5,11.3,11.3,0,0,1-3.458-8.7.549.549,0,0,1,.544-.494.52.52,0,0,1,.493.545,10.267,10.267,0,0,0,3.148,7.907,11,11,0,0,0,6.891,3.2.52.52,0,0,1-.026,1.04Z" transform="translate(-1228.796 -250.833)" fill="#faf5ff"/>
    </g>
    <g id="Grupo_948769" data-name="Grupo 948769" transform="translate(1056.044 119.523)">
      <path id="Trazado_634234" data-name="Trazado 634234" d="M1105.435,190.858a.522.522,0,0,1-.39-.177l-25.389-28.911a.524.524,0,0,1-.13-.33l-.837-31.357a.52.52,0,0,1,.722-.493L1101.538,139a11.445,11.445,0,0,1,6.982,11.633l-.923,10.181,3.509,3.83a.52.52,0,0,1-.765.7l-3.665-4a.523.523,0,0,1-.134-.4l.944-10.41a10.409,10.409,0,0,0-6.352-10.579l-21.384-9.092.81,30.361,25.265,28.769a.523.523,0,0,1-.047.735A.515.515,0,0,1,1105.435,190.858Z" transform="translate(-1078.69 -129.548)" fill="#32293a"/>
    </g>
    <g id="Grupo_948770" data-name="Grupo 948770" transform="translate(1013.435 86.293)">
      <path id="Trazado_634235" data-name="Trazado 634235" d="M1079.41,122.755a17.015,17.015,0,0,0-17.1-4.407l-30.642-30.709a2.267,2.267,0,0,0-3.775.946L1024,101.418a2.279,2.279,0,0,0,.567,2.269l4.338,4.348a1.341,1.341,0,0,0,1.056.389l3.369-.268a1.343,1.343,0,0,1,1.433,1.539l-.444,2.995a1.345,1.345,0,0,0,.379,1.149l5.191,5.2a1.342,1.342,0,0,0,1.116.383l1.941-.244a1.344,1.344,0,0,1,1.495,1.533l-.275,1.843a1.347,1.347,0,0,0,.379,1.15l6.294,6.308a17.058,17.058,0,1,0,28.572-7.261Zm-7.1,15.18a4.768,4.768,0,1,1,4.758-4.769A4.764,4.764,0,0,1,1072.308,137.934Z" transform="translate(-1023.382 -86.45)" fill="#ff9b38"/>
      <path id="Trazado_634236" data-name="Trazado 634236" d="M1067.055,152.154A17.375,17.375,0,0,1,1054.648,147a17.652,17.652,0,0,1-4.548-16.986l-6.081-6.094a1.87,1.87,0,0,1-.525-1.595l.274-1.842a.818.818,0,0,0-.225-.7.8.8,0,0,0-.69-.242l-1.943.244a1.892,1.892,0,0,1-1.547-.532l-5.193-5.2a1.882,1.882,0,0,1-.524-1.594l.445-2.995a.815.815,0,0,0-.212-.684.806.806,0,0,0-.668-.26l-3.367.268a1.856,1.856,0,0,1-1.465-.54l-4.338-4.348a2.8,2.8,0,0,1-.7-2.787l3.889-12.833a2.786,2.786,0,0,1,4.639-1.163L1062.3,117.6a17.5,17.5,0,0,1,17.327,4.629h0a17.652,17.652,0,0,1,.519,24.076,17.423,17.423,0,0,1-12.611,5.838C1067.373,152.152,1067.213,152.154,1067.055,152.154Zm-24.093-33.662a1.864,1.864,0,0,1,1.834,2.143l-.274,1.841a.828.828,0,0,0,.231.705l6.295,6.309a.517.517,0,0,1,.133.51,16.613,16.613,0,0,0,4.2,16.262,16.506,16.506,0,0,0,23.988-.648,16.814,16.814,0,0,0-.489-22.653,16.472,16.472,0,0,0-16.584-4.272.523.523,0,0,1-.517-.131l-30.642-30.709a1.747,1.747,0,0,0-2.91.731l-3.89,12.833a1.751,1.751,0,0,0,.437,1.749l4.339,4.349a.793.793,0,0,0,.646.238l3.369-.267a1.864,1.864,0,0,1,1.989,2.133l-.445,3a.825.825,0,0,0,.233.7l5.192,5.2a.8.8,0,0,0,.683.234l1.942-.244A1.91,1.91,0,0,1,1042.962,118.492Zm29.189,19.805a5.289,5.289,0,1,1,5.277-5.289A5.289,5.289,0,0,1,1072.151,138.3Zm0-9.537a4.248,4.248,0,1,0,4.238,4.248A4.248,4.248,0,0,0,1072.151,128.76Z" transform="translate(-1023.225 -86.293)" fill="#32293a"/>
    </g>
    <path id="Trazado_634237" data-name="Trazado 634237" d="M1184.287,156.621c-.284.189-6.718.136-11.3.074a11.611,11.611,0,0,0-7.959,3.012l-17.793,16.129,17.4,20.534,12.6-10.97v33.368h47.331V195.593l1.287,1.9,20.6-11.035-16.71-24.652a11.631,11.631,0,0,0-9.6-5.109Z" transform="translate(-38.531 -16.3)" fill="#25c766"/>
    <path id="Trazado_634238" data-name="Trazado 634238" d="M1195.035,116.193c-2.99-4.984-1.865-13.124,10.264-13.718s12.419,6.248,12.419,6.248c3.53-.627,11.623,9.512.473,17.414s-16.272-3.792-16.272-3.792Z" transform="translate(-49.287 -3.742)" fill="#32293a"/>
    <path id="Trazado_634239" data-name="Trazado 634239" d="M1196.42,147.465c0,4.2,4.121,11.382,12.966,11.382s9.671-9.978,9.671-11.47c0,.064-2.614-2.7-4.018-4.188a3.192,3.192,0,0,1-.87-2.2v-5.814c7.07.681,6.657-10.579-2.374-7.463a13.263,13.263,0,0,1-3.13-2.557,4.431,4.431,0,0,1-.3-5.4,8.031,8.031,0,0,1,3.427-3.021c-4.111,1.14-13.4,3.179-17.383.97-.877,5.21-2.468,17.878,5.97,20.676,0,.658-.111,2.292-.19,3.35a3.207,3.207,0,0,1-.664,1.725Z" transform="translate(-49.298 -7.056)" fill="#f4c7a8"/>
    <g id="Grupo_948771" data-name="Grupo 948771" transform="translate(1144.392 113.318)">
      <path id="Trazado_634240" data-name="Trazado 634240" d="M1195.6,131.006l-1.38-.99a1.231,1.231,0,0,1-.511-.818,1.634,1.634,0,0,1,.329-1.2,5.506,5.506,0,0,0,1.212-4.255,1.847,1.847,0,0,0-1.064-1.278.521.521,0,0,1,.427-.95,2.89,2.89,0,0,1,1.642,1.964,6.465,6.465,0,0,1-1.378,5.134.616.616,0,0,0-.141.42.2.2,0,0,0,.09.137l1.38.989Z" transform="translate(-1193.691 -121.471)" fill="#32293a"/>
    </g>
    <g id="Grupo_948772" data-name="Grupo 948772" transform="translate(1151.387 115.013)">
      <path id="Trazado_634241" data-name="Trazado 634241" d="M1207.14,126.694a.518.518,0,0,1-.458-.277c-.946-1.791-1.967-1.906-3.216-1.532a.514.514,0,0,1-.647-.349.52.52,0,0,1,.348-.648c1.977-.592,3.385.055,4.432,2.041a.521.521,0,0,1-.216.7A.512.512,0,0,1,1207.14,126.694Z" transform="translate(-1202.796 -123.678)" fill="#32293a"/>
    </g>
    <path id="Trazado_634242" data-name="Trazado 634242" d="M1205.838,129.763a1.046,1.046,0,1,1-.792-1.433A1.172,1.172,0,0,1,1205.838,129.763Z" transform="translate(-51.643 -9.74)" fill="#32293a"/>
    <path id="Trazado_634243" data-name="Trazado 634243" d="M1195.546,127.572a1.046,1.046,0,1,1-.792-1.433A1.171,1.171,0,0,1,1195.546,127.572Z" transform="translate(-49.257 -9.232)" fill="#32293a"/>
    <g id="Grupo_948773" data-name="Grupo 948773" transform="translate(1146.509 127.976)">
      <path id="Trazado_634244" data-name="Trazado 634244" d="M1202.513,144.4a7.178,7.178,0,0,1-5.973-3.035.519.519,0,1,1,.852-.594c.662.953,3.236,3.9,8.587,1.891a.52.52,0,0,1,.364.975A10.879,10.879,0,0,1,1202.513,144.4Z" transform="translate(-1196.447 -140.551)" fill="#32293a"/>
    </g>
    <g id="Grupo_948774" data-name="Grupo 948774" transform="translate(1146.603 130.808)">
      <path id="Trazado_634245" data-name="Trazado 634245" d="M1197.088,154.359a.512.512,0,0,1-.343-.131.521.521,0,0,1-.047-.734l3.056-3.474a2.815,2.815,0,0,0,.7-1.792l.078-3.482a.52.52,0,1,1,1.04.023l-.078,3.482a3.868,3.868,0,0,1-.958,2.457l-3.056,3.474A.517.517,0,0,1,1197.088,154.359Z" transform="translate(-1196.569 -144.238)" fill="#32293a"/>
    </g>
    <g id="Grupo_948775" data-name="Grupo 948775" transform="translate(1146.409 124.65)">
      <path id="Trazado_634246" data-name="Trazado 634246" d="M1198.691,138.066a2.888,2.888,0,0,1-2.263-1,.52.52,0,0,1,.814-.647,1.986,1.986,0,0,0,2.278.409.52.52,0,0,1,.555.879A2.617,2.617,0,0,1,1198.691,138.066Z" transform="translate(-1196.316 -136.222)" fill="#32293a"/>
    </g>
    <g id="Grupo_948776" data-name="Grupo 948776" transform="translate(1060.101 130.795)">
      <path id="Trazado_634247" data-name="Trazado 634247" d="M1101.975,152.107s-12.912-6.278-14.828-7.045-3.153,1.312-2.129,3.552,7.2,9.411,7.2,9.411a6.421,6.421,0,0,0,2.629,8.863Z" transform="translate(-1084.128 -144.378)" fill="#f4c7a8"/>
      <path id="Trazado_634248" data-name="Trazado 634248" d="M1094.685,167.251a.512.512,0,0,1-.235-.057,6.729,6.729,0,0,1-3.471-4.211,7.1,7.1,0,0,1,.446-5.053c-1.164-1.365-6.1-7.2-7.035-9.256a3.438,3.438,0,0,1,.3-3.8,2.17,2.17,0,0,1,2.494-.451c1.911.765,14.332,6.8,14.86,7.06a.52.52,0,0,1-.453.936c-.13-.062-12.916-6.279-14.793-7.029a1.149,1.149,0,0,0-1.355.2,2.431,2.431,0,0,0-.11,2.649c.984,2.147,7.055,9.217,7.117,9.289a.523.523,0,0,1,.049.612,5.91,5.91,0,0,0-.519,4.561,5.624,5.624,0,0,0,2.94,3.566.52.52,0,0,1-.234.984Z" transform="translate(-1083.971 -144.22)" fill="#32293a"/>
    </g>
    <g id="Grupo_948777" data-name="Grupo 948777" transform="translate(1138.15 158.215)">
      <path id="Trazado_634249" data-name="Trazado 634249" d="M1186.085,214.293a.52.52,0,0,1-.519-.521V180.433a.519.519,0,1,1,1.039,0v33.339A.52.52,0,0,1,1186.085,214.293Z" transform="translate(-1185.566 -179.913)" fill="#32293a"/>
    </g>
    <g id="Grupo_948778" data-name="Grupo 948778" transform="translate(1108.182 139.959)">
      <path id="Trazado_634250" data-name="Trazado 634250" d="M1163.948,196.782a.517.517,0,0,1-.4-.19l-16.871-20.534a.52.52,0,0,1,.062-.725l19.02-16.439a11.276,11.276,0,0,1,7.37-2.745h6.755a.52.52,0,0,1,0,1.041h-6.755a10.242,10.242,0,0,0-6.693,2.492L1147.8,175.789l16.548,20.142a.52.52,0,0,1-.4.851Z" transform="translate(-1146.557 -156.149)" fill="#32293a"/>
    </g>
    <g id="Grupo_948779" data-name="Grupo 948779" transform="translate(1093.836 161.277)">
      <path id="Trazado_634251" data-name="Trazado 634251" d="M1136.294,193.368a.516.516,0,0,1-.378-.164l-7.893-8.428a.52.52,0,1,1,.756-.713l7.893,8.429a.52.52,0,0,1-.023.735A.513.513,0,0,1,1136.294,193.368Z" transform="translate(-1127.883 -183.899)" fill="#32293a"/>
    </g>
    <g id="Grupo_948780" data-name="Grupo 948780" transform="translate(1021.781 96.331)">
      <path id="Trazado_634252" data-name="Trazado 634252" d="M1060.31,125.434a.513.513,0,0,1-.362-.148l-25.7-25.034a.52.52,0,0,1,.724-.746l25.7,25.034a.52.52,0,0,1-.361.893Z" transform="translate(-1034.09 -99.36)" fill="#32293a"/>
    </g>
    <path id="Trazado_634253" data-name="Trazado 634253" d="M1240.837,206.492l9.546,13.612-17.133,27.74s-14.225,1.459-17.219,1.451-1.052,4.36,2.516,5.081a61.367,61.367,0,0,0,7.853.923s-12.044,15.029-14,18.03,2.05,5.289,5.076,2.166,12.092-14.575,12.092-14.575-8.193,15.761-9.411,18.481c-.887,1.981,3.019,5.493,5.6,1.662s9.712-16.58,9.712-16.58-5.845,14.007-6.242,15.9,3.182,3.77,4.888,1.286,7.929-15.319,7.929-15.319-2.064,9.2-2.584,11.506,3.3,2.5,4.3-.128,9.533-22,9.533-22l20.209-32.451a9.743,9.743,0,0,0-.247-10.675l-11.821-17.155Z" transform="translate(-53.515 -25.301)" fill="#f4c7a8"/>
    <g id="Grupo_948781" data-name="Grupo 948781" transform="translate(1189.319 197.465)">
      <path id="Trazado_634254" data-name="Trazado 634254" d="M1252.69,287.238a.52.52,0,0,1-.416-.832,2.606,2.606,0,0,0,.339-.621c1-2.613,9.194-21.229,9.542-22.019l20.245-32.516a.519.519,0,1,1,.88.552l-20.21,32.45c-.05.128-8.5,19.316-9.487,21.905a3.652,3.652,0,0,1-.479.873A.517.517,0,0,1,1252.69,287.238Z" transform="translate(-1252.171 -231.005)" fill="#32293a"/>
    </g>
    <g id="Grupo_948782" data-name="Grupo 948782" transform="translate(1185.38 240.94)">
      <path id="Trazado_634255" data-name="Trazado 634255" d="M1249.219,301.522a2.62,2.62,0,0,1-1.1-.226,1.825,1.825,0,0,1-1.016-2.195l2.583-11.506,1.013.228-2.583,11.507a.805.805,0,0,0,.439,1.02,2.248,2.248,0,0,0,2.528-.829.52.52,0,1,1,.831.624A3.4,3.4,0,0,1,1249.219,301.522Z" transform="translate(-1247.045 -287.595)" fill="#32293a"/>
    </g>
    <g id="Grupo_948783" data-name="Grupo 948783" transform="translate(1175.166 238.664)">
      <path id="Trazado_634256" data-name="Trazado 634256" d="M1237.007,304.052a3.588,3.588,0,0,1-1.4-.29,2.652,2.652,0,0,1-1.816-2.814c.4-1.921,6.031-15.422,6.27-16a.519.519,0,1,1,.957.4c-2.015,4.829-5.906,14.348-6.212,15.809-.141.676.5,1.339,1.21,1.643a2.153,2.153,0,0,0,2.743-.758c.794-1.157,3.518-6.443,5.8-11a.52.52,0,1,1,.929.467c-1.116,2.228-4.838,9.617-5.876,11.127A3.072,3.072,0,0,1,1237.007,304.052Z" transform="translate(-1233.749 -284.633)" fill="#32293a"/>
    </g>
    <g id="Grupo_948784" data-name="Grupo 948784" transform="translate(1165.995 235.101)">
      <path id="Trazado_634257" data-name="Trazado 634257" d="M1225.342,302.89a3.431,3.431,0,0,1-1.669-.447c-1.469-.819-2.227-2.461-1.69-3.66,1.21-2.7,9.089-17.865,9.424-18.509a.519.519,0,1,1,.92.481c-.082.157-8.2,15.779-9.4,18.454-.311.694.273,1.781,1.248,2.325.584.326,2.083.861,3.453-1.167,1.009-1.5,2.829-4.527,5.411-9.01a.519.519,0,1,1,.9.52c-2.594,4.5-4.428,7.556-5.451,9.072A3.8,3.8,0,0,1,1225.342,302.89Z" transform="translate(-1221.81 -279.995)" fill="#32293a"/>
    </g>
    <g id="Grupo_948785" data-name="Grupo 948785" transform="translate(1157.846 212.057)">
      <path id="Trazado_634258" data-name="Trazado 634258" d="M1214.189,290.159a3.243,3.243,0,0,1-2.037-.677,2.713,2.713,0,0,1-.344-3.8c1.713-2.627,10.881-14.132,13.4-17.288a58.693,58.693,0,0,1-6.926-.871c-2.637-.533-4.56-2.947-4.394-4.589a1.742,1.742,0,0,1,1.972-1.523h.036c2.766,0,14.964-1.228,16.885-1.423l6.021-9.748a.519.519,0,1,1,.883.548l-6.156,9.966a.517.517,0,0,1-.389.244c-.58.059-14.2,1.453-17.245,1.453h-.036c-.879,0-.922.426-.939.587-.106,1.057,1.377,3.021,3.568,3.464a60.993,60.993,0,0,0,7.775.913.522.522,0,0,1,.381.846c-.121.151-12.051,15.043-13.972,17.99a1.7,1.7,0,0,0,.124,2.414c.892.717,2.649.648,4.144-.895,1.324-1.367,4.09-4.639,7.994-9.464a.519.519,0,1,1,.806.655c-2.736,3.38-6.355,7.779-8.056,9.534A4.927,4.927,0,0,1,1214.189,290.159Z" transform="translate(-1211.204 -249.998)" fill="#32293a"/>
    </g>
    <g id="Grupo_948786" data-name="Grupo 948786" transform="translate(1185.372 202.244)">
      <path id="Trazado_634259" data-name="Trazado 634259" d="M1247.553,248.079a.521.521,0,0,1-.442-.794l6.06-9.813a.519.519,0,1,1,.882.548l-6.059,9.813A.518.518,0,0,1,1247.553,248.079Z" transform="translate(-1247.034 -237.225)" fill="#32293a"/>
    </g>
    <g id="Grupo_948787" data-name="Grupo 948787" transform="translate(1175.975 163.655)">
      <path id="Trazado_634260" data-name="Trazado 634260" d="M1246.15,205.051a.522.522,0,0,1-.444-.25c-3.773-6.2-10.021-16.262-10.728-16.893a.525.525,0,0,1-.049-.733.515.515,0,0,1,.725-.057c.956.818,8.572,13.259,10.684,16.722l20.165-10.8a.52.52,0,0,1,.49.917l-20.6,11.034A.516.516,0,0,1,1246.15,205.051Z" transform="translate(-1234.802 -186.994)" fill="#32293a"/>
    </g>
    <g id="Grupo_948788" data-name="Grupo 948788" transform="translate(1144.943 236.385)">
      <path id="Trazado_634261" data-name="Trazado 634261" d="M1203.6,311.52a.52.52,0,0,1-.519-.52V290.6l-8.514-8.039a.52.52,0,1,1,.712-.757l8.841,8.347V311A.52.52,0,0,1,1203.6,311.52Z" transform="translate(-1194.408 -281.666)" fill="#faf5ff"/>
    </g>
    <g id="Grupo_948789" data-name="Grupo 948789" transform="translate(1039.2 344.981)">
      <path id="Rectángulo_34869" data-name="Rectángulo 34869" d="M7.037,0h75.42A7.038,7.038,0,0,1,89.5,7.038V44.814a7.038,7.038,0,0,1-7.038,7.038H7.037A7.037,7.037,0,0,1,0,44.814V7.037A7.037,7.037,0,0,1,7.037,0Z" transform="translate(0.519 0.52)" fill="#fffdf7"/>
      <path id="Trazado_634262" data-name="Trazado 634262" d="M1141.378,475.916h-78.694a5.933,5.933,0,0,1-5.921-5.932V428.957a5.934,5.934,0,0,1,5.921-5.933h78.694a5.933,5.933,0,0,1,5.92,5.933v41.027A5.932,5.932,0,0,1,1141.378,475.916Zm-78.694-51.851a4.892,4.892,0,0,0-4.881,4.892v41.027a4.891,4.891,0,0,0,4.881,4.891h78.694a4.891,4.891,0,0,0,4.881-4.891V428.957a4.892,4.892,0,0,0-4.881-4.892Z" transform="translate(-1056.763 -423.024)" fill="#32293a"/>
    </g>
    <g id="Grupo_948790" data-name="Grupo 948790" transform="translate(1158.344 127.786)">
      <path id="Trazado_634263" data-name="Trazado 634263" d="M1212.371,164.781a.52.52,0,0,1,0-1.041c6.429,0,10.3-3.99,10.374-10.688l-3.793-3.837a3.533,3.533,0,0,1-1.016-2.531l.1-5.869a.52.52,0,0,1,.519-.512h.009a.52.52,0,0,1,.51.529l-.1,5.869a2.49,2.49,0,0,0,.714,1.781l3.945,3.991a.521.521,0,0,1,.151.366C1223.786,160.205,1219.412,164.781,1212.371,164.781Z" transform="translate(-1211.852 -140.304)" fill="#32293a"/>
    </g>
    <path id="Trazado_634264" data-name="Trazado 634264" d="M1317.8,194.849a11.85,11.85,0,1,1,11.85,11.875A11.863,11.863,0,0,1,1317.8,194.849Z" transform="translate(-78.064 -22.407)" fill="#1c954d"/>
    <path id="Trazado_634265" data-name="Trazado 634265" d="M1329.5,207.088a12.4,12.4,0,1,1,12.37-12.4A12.4,12.4,0,0,1,1329.5,207.088Zm0-23.751a11.355,11.355,0,1,0,11.331,11.355A11.355,11.355,0,0,0,1329.5,183.337Z" transform="translate(-77.907 -22.25)" fill="#32293a"/>
    <g id="Grupo_948791" data-name="Grupo 948791" transform="translate(1247.202 162.391)">
      <path id="Trazado_634266" data-name="Trazado 634266" d="M1332.071,199.132l-4.4-4.411a.519.519,0,1,1,.733-.736l3.668,3.676L1344.2,185.5a.52.52,0,0,1,.736.735Z" transform="translate(-1327.517 -185.348)" fill="#32293a"/>
    </g>
    <g id="Grupo_948792" data-name="Grupo 948792" transform="translate(1211.028 101.703)">
      <path id="Trazado_634267" data-name="Trazado 634267" d="M1285.168,115.851a4.749,4.749,0,1,1,1.669-.306A4.723,4.723,0,0,1,1285.168,115.851Zm0-8.459a3.707,3.707,0,1,0,1.306,7.178h0a3.709,3.709,0,0,0-1.306-7.178Z" transform="translate(-1280.43 -106.352)" fill="#32293a"/>
    </g>
    <g id="Grupo_948793" data-name="Grupo 948793" transform="translate(1232.508 336.77)">
      <path id="Trazado_634268" data-name="Trazado 634268" d="M1315.149,425.889a6.776,6.776,0,1,1,2.381-.437h0A6.733,6.733,0,0,1,1315.149,425.889Zm2.2-.924h0Zm-2.192-11.588a5.733,5.733,0,1,0,2.01,11.1h0a5.735,5.735,0,0,0-2.01-11.1Z" transform="translate(-1308.391 -412.335)" fill="#32293a"/>
    </g>
    <g id="Grupo_948794" data-name="Grupo 948794" transform="translate(992.636 215.186)">
      <path id="Trazado_634269" data-name="Trazado 634269" d="M999.94,261.652a3.79,3.79,0,0,1-1.334-7.336,3.777,3.777,0,0,1,4.867,2.214,3.8,3.8,0,0,1-2.207,4.88h0A3.757,3.757,0,0,1,999.94,261.652Zm1.143-.729h0Zm-1.146-5.809a2.75,2.75,0,0,0-2.569,3.717,2.742,2.742,0,1,0,2.569-3.717Z" transform="translate(-996.152 -254.072)" fill="#32293a"/>
    </g>
    <g id="Grupo_948795" data-name="Grupo 948795" transform="translate(1199.407 88.299)">
      <path id="Trazado_634270" data-name="Trazado 634270" d="M1268.2,94.694a2.891,2.891,0,1,1,1.014-.184h0A2.864,2.864,0,0,1,1268.2,94.694Zm0-4.75a1.829,1.829,0,0,0-.649.119,1.853,1.853,0,0,0,1.3,3.472h0a1.855,1.855,0,0,0-.652-3.591Z" transform="translate(-1265.304 -88.904)" fill="#32293a"/>
    </g>
  </g>
</svg>
