<svg xmlns="http://www.w3.org/2000/svg" width="259.962" height="312.668" viewBox="0 0 259.962 312.668">
  <g id="Grupo_948808" data-name="Grupo 948808" transform="translate(-135.632 -703.39)">
    <path id="Trazado_634332" data-name="Trazado 634332" d="M155.641,943.343V723.4h33.3a1.659,1.659,0,0,1,0,3.319H158.959V940.024H188.94a1.66,1.66,0,1,1,0,3.319Z" fill="#40327b"/>
    <path id="Trazado_634333" data-name="Trazado 634333" d="M395.594,833.371a129.981,129.981,0,1,0-129.981,129.98A129.981,129.981,0,0,0,395.594,833.371Z" fill="#45bbcc"/>
    <path id="Trazado_634334" data-name="Trazado 634334" d="M187.281,941.683a1.659,1.659,0,0,1,1.659-1.659h78.332v72.014a1.659,1.659,0,0,1-3.318,0v-68.7H188.94A1.66,1.66,0,0,1,187.281,941.683Z" fill="#40327b"/>
    <path id="Trazado_634335" data-name="Trazado 634335" d="M187.281,725.058a1.66,1.66,0,0,1,1.66-1.66H375.585V943.343h-94.6a1.66,1.66,0,1,1,0-3.319h91.283V726.717H188.941A1.66,1.66,0,0,1,187.281,725.058Z" fill="#40327b"/>
    <path id="Trazado_634336" data-name="Trazado 634336" d="M249.713,996.7a1.659,1.659,0,0,1,2.924-1.074l12.976,15.3,12.975-15.3a1.659,1.659,0,0,1,2.531,2.146l-15.506,18.286-15.506-18.286A1.648,1.648,0,0,1,249.713,996.7Z" fill="#40327b"/>
    <g id="Grupo_948515" data-name="Grupo 948515">
      <rect id="Rectángulo_34831" data-name="Rectángulo 34831" width="105" height="110" transform="translate(213.786 760.774)" fill="none"/>
      <g id="proteger">
        <path id="Trazado_633845" data-name="Trazado 633845" d="M271.761,862.368,267.4,864.66a2.4,2.4,0,0,1-2.229,0l-4.36-2.292c-23.945-12.585-38.69-35.809-38.69-60.939V786.083a2.382,2.382,0,0,1,2.113-2.379c8.253-.871,14.815-6.779,15.861-14.252a2.409,2.409,0,0,1,2.377-2.1H290.1a2.409,2.409,0,0,1,2.377,2.1c1.046,7.473,7.608,13.382,15.861,14.252a2.382,2.382,0,0,1,2.113,2.379v15.35C310.45,826.561,295.706,849.785,271.761,862.368Z" fill="#e1e6e9"/>
        <path id="Trazado_633846" data-name="Trazado 633846" d="M308.334,783.7c-8.254-.871-14.815-6.779-15.861-14.252a2.409,2.409,0,0,0-2.377-2.1h-3.243c.467,10.36,7.85,17.708,15.837,18.551a2.382,2.382,0,0,1,2.113,2.379v15.35c0,25.129-14.745,48.353-38.69,60.939l-.5.265a2.4,2.4,0,0,0,1.786-.175l4.361-2.292c23.945-12.585,38.69-35.809,38.69-60.939V786.082A2.384,2.384,0,0,0,308.334,783.7Z" fill="#cbcbcb"/>
        <path id="Trazado_633847" data-name="Trazado 633847" d="M264.669,856.215a68.61,68.61,0,0,1-26.118-23.72,59.436,59.436,0,0,1-9.409-31.861v-8.713a3.075,3.075,0,0,1,1.936-2.862,27.005,27.005,0,0,0,14.52-13.344,3.067,3.067,0,0,1,2.775-1.74H284.2a3.067,3.067,0,0,1,2.775,1.74,27,27,0,0,0,14.52,13.344,3.075,3.075,0,0,1,1.938,2.863v8.713a59.436,59.436,0,0,1-9.409,31.861,68.616,68.616,0,0,1-26.118,23.72l-.181.095a3.087,3.087,0,0,1-2.871,0Z" fill="#2ff980"/>
        <path id="Trazado_633848" data-name="Trazado 633848" d="M301.491,789.059,301.34,789l-.251-.1-.426-.18-.244-.107q-.227-.1-.45-.2l-.2-.094c-.215-.1-.428-.207-.641-.313l-.047-.025c-.2-.1-.391-.2-.584-.3l-.2-.112q-.21-.116-.419-.234l-.23-.133c-.133-.077-.264-.154-.391-.232l-.225-.138c-.136-.084-.27-.169-.4-.255l-.2-.126q-.275-.18-.544-.365l-.04-.027c-.193-.134-.384-.269-.572-.407l-.176-.131c-.13-.1-.259-.194-.387-.292l-.2-.16c-.118-.093-.236-.187-.352-.281l-.2-.166c-.119-.1-.238-.2-.355-.3l-.181-.155c-.146-.127-.289-.255-.431-.385l-.089-.08q-.256-.236-.5-.476l-.142-.14q-.177-.174-.351-.35l-.176-.182c-.1-.108-.207-.216-.308-.325l-.178-.192q-.153-.168-.3-.337l-.162-.184c-.117-.135-.232-.272-.346-.409l-.1-.119q-.219-.267-.431-.539l-.107-.14q-.157-.2-.31-.411c-.049-.066-.1-.133-.145-.2-.088-.122-.174-.244-.26-.366l-.148-.215q-.126-.186-.248-.372c-.046-.069-.091-.138-.136-.208-.091-.142-.18-.284-.268-.428-.032-.053-.066-.1-.1-.158q-.178-.294-.348-.593c-.024-.042-.047-.085-.07-.127q-.133-.237-.262-.477c-.038-.071-.074-.142-.111-.213-.067-.134-.135-.267-.206-.4-.039-.078-.077-.155-.114-.233-.029-.059-.059-.118-.087-.177a3.066,3.066,0,0,0-2.775-1.74H266.285v82.689a3.093,3.093,0,0,0,1.435-.354l.181-.095a68.609,68.609,0,0,0,26.118-23.72,59.436,59.436,0,0,0,9.409-31.861v-8.716A3.075,3.075,0,0,0,301.491,789.059Z" fill="#25c766"/>
        <path id="Trazado_633849" data-name="Trazado 633849" d="M301.491,789.059,301.34,789l-.251-.1-.426-.18-.244-.107q-.227-.1-.45-.2l-.2-.094c-.215-.1-.428-.207-.641-.313l-.047-.025c-.2-.1-.391-.2-.584-.3l-.2-.112q-.21-.116-.419-.234l-.23-.133c-.133-.077-.264-.154-.391-.232l-.225-.138c-.136-.084-.27-.169-.4-.255l-.2-.126q-.275-.18-.544-.365l-.04-.027c-.193-.134-.384-.269-.572-.407l-.176-.131c-.13-.1-.259-.194-.387-.292l-.2-.16c-.118-.093-.236-.187-.352-.281l-.2-.166c-.119-.1-.238-.2-.355-.3l-.181-.155c-.146-.127-.289-.255-.431-.385l-.089-.08q-.256-.236-.5-.476l-.142-.14q-.177-.174-.351-.35l-.176-.182c-.1-.108-.207-.216-.308-.325l-.178-.192q-.153-.168-.3-.337l-.162-.184c-.117-.135-.232-.272-.346-.409l-.1-.119q-.219-.267-.431-.539l-.107-.14q-.157-.2-.31-.411c-.049-.066-.1-.133-.145-.2-.088-.122-.174-.244-.26-.366l-.148-.215q-.126-.186-.248-.372c-.046-.069-.091-.138-.136-.208-.091-.142-.18-.284-.268-.428-.032-.053-.066-.1-.1-.158q-.178-.294-.348-.593c-.024-.042-.047-.085-.07-.127q-.133-.237-.262-.477c-.038-.071-.074-.142-.111-.213-.067-.134-.135-.267-.206-.4-.039-.078-.077-.155-.114-.233-.029-.059-.059-.118-.087-.177a3.066,3.066,0,0,0-2.775-1.74h-4.957a27.482,27.482,0,0,1,2.179,3.287c.033.057.058.118.087.177l.114.233c.067.133.135.266.206.4l.111.213q.127.24.262.477c.024.042.046.085.07.127.113.2.229.4.348.593.032.053.065.105.1.158q.132.215.268.428c.045.07.09.138.136.208.082.125.164.249.248.372l.148.215q.127.183.26.366c.048.067.1.133.145.2.1.138.2.275.31.411.036.047.071.094.107.14q.211.272.431.539l.1.119c.114.137.229.274.346.409.053.062.108.123.162.184l.3.337.178.192c.1.109.2.217.308.325l.176.182c.116.118.233.234.351.35l.142.14c.166.16.332.319.5.476l.089.08c.142.129.285.257.431.385l.181.155q.176.15.355.3l.2.166c.116.094.234.188.352.281l.2.16c.128.1.257.2.387.292l.176.131c.188.138.379.273.572.407l.04.027c.179.123.361.245.544.365l.2.126c.133.086.267.171.4.255l.225.138c.129.078.26.156.391.232l.23.133c.139.079.278.157.419.234l.2.112c.193.1.388.2.584.3l.047.025c.211.107.425.211.64.313l.2.094c.15.069.3.138.45.2l.244.107q.211.092.426.18l.251.1.151.062a3.075,3.075,0,0,1,1.938,2.863v8.713a59.436,59.436,0,0,1-9.409,31.861,73.211,73.211,0,0,1-22.181,22.54v.081a3.093,3.093,0,0,0,1.435-.354l.181-.095a68.61,68.61,0,0,0,26.118-23.72,59.436,59.436,0,0,0,9.409-31.861v-8.713A3.075,3.075,0,0,0,301.491,789.059Z" fill="#1e9690"/>
        <path id="Trazado_633850" data-name="Trazado 633850" d="M282.658,829.732H250.023a3.117,3.117,0,0,1-3.117-3.117h0V806.149a3.116,3.116,0,0,1,3.117-3.117h32.636a3.117,3.117,0,0,1,3.117,3.117h0v20.467a3.118,3.118,0,0,1-3.118,3.116Z" fill="#636a75"/>
        <path id="Trazado_633851" data-name="Trazado 633851" d="M282.658,803.032H277.02a3.117,3.117,0,0,1,3.117,3.117h0v20.467a3.118,3.118,0,0,1-3.117,3.117h5.643a3.118,3.118,0,0,0,3.117-3.117h0V806.149a3.117,3.117,0,0,0-3.117-3.117Z" fill="#515a66"/>
        <path id="Trazado_633852" data-name="Trazado 633852" d="M264.91,817.86v4.07a1.43,1.43,0,0,0,2.859.076c0-.026,0-.051,0-.076v-4.07a3.348,3.348,0,1,0-2.859,0Z"/>
        <path id="Trazado_633853" data-name="Trazado 633853" d="M264,857.481h0l.18.095a4.514,4.514,0,0,0,4.2,0l.181-.1a70.038,70.038,0,0,0,26.66-24.219,60.872,60.872,0,0,0,9.631-32.628v-8.707a4.48,4.48,0,0,0-2.842-4.192A25.418,25.418,0,0,1,288.263,775.1a4.517,4.517,0,0,0-4.067-2.556H248.374a4.515,4.515,0,0,0-4.066,2.556,25.423,25.423,0,0,1-13.754,12.633,4.479,4.479,0,0,0-2.841,4.192v8.713a60.866,60.866,0,0,0,9.631,32.627A70.038,70.038,0,0,0,264,857.481Zm-33.432-56.847v-8.712a1.635,1.635,0,0,1,1.034-1.534,28.271,28.271,0,0,0,15.283-14.058,1.642,1.642,0,0,1,1.485-.925H284.2a1.645,1.645,0,0,1,1.485.925,28.269,28.269,0,0,0,15.283,14.059A1.636,1.636,0,0,1,302,791.923v8.713a58.011,58.011,0,0,1-9.186,31.1,67.186,67.186,0,0,1-25.578,23.215l-.181.1a1.659,1.659,0,0,1-1.541,0l-.18-.1a67.182,67.182,0,0,1-25.574-23.221A58.008,58.008,0,0,1,230.572,800.634Z"/>
        <path id="Trazado_633854" data-name="Trazado 633854" d="M309.183,814.2a1.429,1.429,0,0,0-1.709,1.078h0c-4.354,19.26-17.613,35.963-36.378,45.826l-4.361,2.295a.968.968,0,0,1-.9,0l-4.361-2.292c-18.795-9.879-32.061-26.61-36.4-45.9a1.429,1.429,0,0,0-2.789.627c4.519,20.114,18.317,37.54,37.855,47.809l4.361,2.292a3.828,3.828,0,0,0,3.559,0l4.361-2.292c19.507-10.253,33.3-27.649,37.837-47.726a1.43,1.43,0,0,0-1.075-1.713Z"/>
        <path id="Trazado_633855" data-name="Trazado 633855" d="M308.488,782.282c-7.633-.8-13.635-6.163-14.6-13.029a3.86,3.86,0,0,0-3.788-3.328H242.471a3.861,3.861,0,0,0-3.792,3.328c-.961,6.866-6.963,12.223-14.6,13.029a3.8,3.8,0,0,0-3.393,3.8v15.35a65.765,65.765,0,0,0,.344,6.7,1.43,1.43,0,0,0,1.42,1.283,1.467,1.467,0,0,0,.148-.008,1.43,1.43,0,0,0,1.276-1.567h0a62.667,62.667,0,0,1-.329-6.41V786.082a.959.959,0,0,1,.834-.958c8.945-.943,15.988-7.307,17.128-15.475a.978.978,0,0,1,.961-.865H290.1a.978.978,0,0,1,.961.865c1.147,8.168,8.186,14.532,17.127,15.476a.959.959,0,0,1,.834.958v15.35a63.121,63.121,0,0,1-.322,6.344,1.43,1.43,0,0,0,2.844.289,65.9,65.9,0,0,0,.336-6.633V786.082A3.8,3.8,0,0,0,308.488,782.282Z"/>
        <path id="Trazado_633856" data-name="Trazado 633856" d="M282.658,831.162a4.552,4.552,0,0,0,4.546-4.546V806.149a4.551,4.551,0,0,0-4.546-4.546h-2.35v-6.824a13.968,13.968,0,0,0-27.935,0V801.6h-2.35a4.55,4.55,0,0,0-4.546,4.546v20.467a4.551,4.551,0,0,0,4.546,4.546ZM255.231,794.78a11.109,11.109,0,0,1,22.217,0V801.6H255.231Zm-6.9,31.836V806.149a1.689,1.689,0,0,1,1.687-1.687h32.636a1.689,1.689,0,0,1,1.687,1.687v20.467a1.689,1.689,0,0,1-1.687,1.687H250.022a1.689,1.689,0,0,1-1.687-1.687Z"/>
      </g>
    </g>
    <path id="Trazado_635172" data-name="Trazado 635172" d="M2.781-4.234V0H1.469V-11.2H4.547a4.063,4.063,0,0,1,2.785.875A3.124,3.124,0,0,1,8.32-7.859a3.4,3.4,0,0,1-1.1,2.609A4.194,4.194,0,0,1,4.258-4.234Zm0-5.781v4.594H4.156A3.074,3.074,0,0,0,6.23-6.043,2.2,2.2,0,0,0,6.945-7.8q0-2.219-2.625-2.219ZM14.43-6.7a1.567,1.567,0,0,0-.969-.258,1.635,1.635,0,0,0-1.371.773,3.576,3.576,0,0,0-.551,2.109V0H10.258V-8h1.281v1.648h.031a2.793,2.793,0,0,1,.836-1.316,1.906,1.906,0,0,1,1.258-.473,2.092,2.092,0,0,1,.766.109ZM22.25-3.68H16.6a2.992,2.992,0,0,0,.719,2.063,2.478,2.478,0,0,0,1.891.727A3.931,3.931,0,0,0,21.7-1.781v1.2a4.643,4.643,0,0,1-2.789.766A3.381,3.381,0,0,1,16.242-.9a4.461,4.461,0,0,1-.969-3.066,4.375,4.375,0,0,1,1.059-3.043,3.394,3.394,0,0,1,2.629-1.176,3.008,3.008,0,0,1,2.43,1.016,4.234,4.234,0,0,1,.859,2.82ZM20.938-4.766A2.607,2.607,0,0,0,20.4-6.492a1.823,1.823,0,0,0-1.465-.617,2.07,2.07,0,0,0-1.539.648,2.943,2.943,0,0,0-.781,1.7ZM25.5-1.156h-.031V3.68H24.188V-8h1.281v1.406H25.5a3.03,3.03,0,0,1,2.766-1.594A2.93,2.93,0,0,1,30.68-7.113a4.449,4.449,0,0,1,.867,2.879A4.959,4.959,0,0,1,30.57-1.02,3.251,3.251,0,0,1,27.9.188,2.676,2.676,0,0,1,25.5-1.156Zm-.031-3.227v1.117a2.379,2.379,0,0,0,.645,1.684,2.14,2.14,0,0,0,1.637.691,2.145,2.145,0,0,0,1.824-.891,4.086,4.086,0,0,0,.66-2.477,3.225,3.225,0,0,0-.617-2.094,2.043,2.043,0,0,0-1.672-.758,2.27,2.27,0,0,0-1.8.777A2.854,2.854,0,0,0,25.469-4.383ZM39.32,0H38.039V-1.25h-.031A2.682,2.682,0,0,1,35.547.188a2.63,2.63,0,0,1-1.871-.633A2.192,2.192,0,0,1,33-2.125q0-2.242,2.641-2.609l2.4-.336q0-2.039-1.648-2.039a3.938,3.938,0,0,0-2.609.984V-7.437a4.958,4.958,0,0,1,2.719-.75q2.82,0,2.82,2.984ZM38.039-4.047l-1.93.266a3.133,3.133,0,0,0-1.344.441,1.273,1.273,0,0,0-.453,1.121,1.221,1.221,0,0,0,.418.957,1.615,1.615,0,0,0,1.113.371,2.056,2.056,0,0,0,1.574-.668,2.387,2.387,0,0,0,.621-1.691ZM45.906-6.7a1.567,1.567,0,0,0-.969-.258,1.635,1.635,0,0,0-1.371.773,3.576,3.576,0,0,0-.551,2.109V0H41.734V-8h1.281v1.648h.031a2.794,2.794,0,0,1,.836-1.316,1.906,1.906,0,0,1,1.258-.473,2.092,2.092,0,0,1,.766.109ZM53.023,0H51.742V-1.25h-.031A2.682,2.682,0,0,1,49.25.188a2.63,2.63,0,0,1-1.871-.633,2.192,2.192,0,0,1-.676-1.68q0-2.242,2.641-2.609l2.4-.336q0-2.039-1.648-2.039a3.938,3.938,0,0,0-2.609.984V-7.437a4.958,4.958,0,0,1,2.719-.75q2.82,0,2.82,2.984ZM51.742-4.047l-1.93.266a3.133,3.133,0,0,0-1.344.441,1.273,1.273,0,0,0-.453,1.121,1.221,1.221,0,0,0,.418.957,1.615,1.615,0,0,0,1.113.371,2.056,2.056,0,0,0,1.574-.668,2.387,2.387,0,0,0,.621-1.691Zm9.148,3.68A4.163,4.163,0,0,1,58.7.188,3.622,3.622,0,0,1,55.941-.926a4.035,4.035,0,0,1-1.051-2.887,4.435,4.435,0,0,1,1.133-3.176,3.963,3.963,0,0,1,3.023-1.2,4.209,4.209,0,0,1,1.859.391v1.313A3.258,3.258,0,0,0,59-7.109a2.576,2.576,0,0,0-2.012.879A3.335,3.335,0,0,0,56.2-3.922,3.176,3.176,0,0,0,56.941-1.7a2.545,2.545,0,0,0,1.98.813,3.211,3.211,0,0,0,1.969-.7Zm2.594-9.664a.812.812,0,0,1-.586-.234.791.791,0,0,1-.242-.594.8.8,0,0,1,.242-.6.8.8,0,0,1,.586-.238.827.827,0,0,1,.6.238.8.8,0,0,1,.246.6.792.792,0,0,1-.246.586A.82.82,0,0,1,63.484-10.031ZM64.109,0H62.828V-8h1.281Zm5.938.188A3.711,3.711,0,0,1,67.215-.934a4.153,4.153,0,0,1-1.059-2.973,4.326,4.326,0,0,1,1.1-3.148,3.96,3.96,0,0,1,2.977-1.133,3.588,3.588,0,0,1,2.793,1.1,4.368,4.368,0,0,1,1,3.055A4.3,4.3,0,0,1,72.949-.965,3.791,3.791,0,0,1,70.047.188Zm.094-7.3a2.437,2.437,0,0,0-1.953.84,3.449,3.449,0,0,0-.719,2.316A3.262,3.262,0,0,0,68.2-1.711a2.469,2.469,0,0,0,1.945.82,2.342,2.342,0,0,0,1.91-.8,3.492,3.492,0,0,0,.668-2.289A3.552,3.552,0,0,0,72.051-6.3,2.332,2.332,0,0,0,70.141-7.109Zm1.875-4.969L69.969-9.516h-.992l1.742-2.562ZM82.719,0H81.438V-4.562q0-2.547-1.859-2.547a2.017,2.017,0,0,0-1.59.723,2.679,2.679,0,0,0-.629,1.824V0H76.078V-8h1.281v1.328h.031a2.887,2.887,0,0,1,2.625-1.516,2.448,2.448,0,0,1,2.008.848,3.776,3.776,0,0,1,.7,2.449Z" transform="translate(222.25 902.849)"/>
  </g>
</svg>
