<svg xmlns="http://www.w3.org/2000/svg" xmlns:xlink="http://www.w3.org/1999/xlink" width="85" height="85" viewBox="0 0 85 85">
  <defs>
    <clipPath id="clip-path">
      <rect id="Rectángulo_34042" data-name="Rectángulo 34042" width="85" height="85" transform="translate(600 14109)" fill="#2ff980" stroke="#707070" stroke-width="1"/>
    </clipPath>
  </defs>
  <g id="Enmascarar_grupo_87" data-name="Enmascarar grupo 87" transform="translate(-600 -14109)" clip-path="url(#clip-path)">
    <g id="autenticacion" transform="translate(601.76 14110.675)">
      <g id="Grupo_948409" data-name="Grupo 948409" transform="translate(2.289 2.409)">
        <g id="Grupo_948394" data-name="Grupo 948394" transform="translate(19.341 70.223)">
          <path id="Trazado_633445" data-name="Trazado 633445" d="M46.657,56.46c5.429.683,9.026,1.9,9.026,3.275,0,2.14-8.665,3.868-19.341,3.868S17,61.876,17,59.735c0-1.38,3.6-2.592,9.026-3.275v1.986H46.657Z" transform="translate(-17 -56.46)" fill="#969faa"/>
        </g>
        <g id="Grupo_948395" data-name="Grupo 948395" transform="translate(28.368 64.472)">
          <path id="Trazado_633446" data-name="Trazado 633446" d="M44.631,57.751v1.986H24V52H44.631Z" transform="translate(-24 -52)" fill="#aab2bd"/>
        </g>
        <g id="Grupo_948396" data-name="Grupo 948396" transform="translate(0 54.156)">
          <path id="Trazado_633447" data-name="Trazado 633447" d="M79.366,44v5.158a5.156,5.156,0,0,1-5.158,5.158H7.158A5.156,5.156,0,0,1,2,49.158V44Z" transform="translate(-2 -44)" fill="#ccd1d9"/>
        </g>
        <g id="Grupo_948397" data-name="Grupo 948397" transform="translate(0 15.473)">
          <path id="Trazado_633448" data-name="Trazado 633448" d="M61.314,39.789a9.548,9.548,0,0,0,4.81-1.3l6.37-5.2a25.985,25.985,0,0,0,3.327-4.565,26.727,26.727,0,0,0,3.546-13.294V52.683H2V19.158A5.156,5.156,0,0,1,7.158,14h36.1v1.431A26.6,26.6,0,0,0,50.135,33.29a26.029,26.029,0,0,0,6.37,5.2,9.548,9.548,0,0,0,4.81,1.3Z" transform="translate(-2 -14)" fill="#69d6f4"/>
        </g>
        <g id="Grupo_948398" data-name="Grupo 948398" transform="translate(5.158 33.525)">
          <path id="Trazado_633449" data-name="Trazado 633449" d="M6,28H36.946v7.737H6Z" transform="translate(-6 -28)" fill="#fcd770"/>
        </g>
        <g id="Grupo_948399" data-name="Grupo 948399" transform="translate(5.158 20.631)">
          <path id="Trazado_633450" data-name="Trazado 633450" d="M6,18H36.946v7.737H6Z" transform="translate(-6 -18)" fill="#ff826e"/>
        </g>
        <g id="Grupo_948400" data-name="Grupo 948400" transform="translate(41.262)">
          <path id="Trazado_633451" data-name="Trazado 633451" d="M64.508,7.158a17.577,17.577,0,0,1-6.744-1.341,16.977,16.977,0,0,1-1.547-.735A17.613,17.613,0,0,1,52.052,2,17.626,17.626,0,0,1,46.34,5.817,17.577,17.577,0,0,1,39.6,7.158a5.591,5.591,0,0,0-5.6,5.6V18.9a26.6,26.6,0,0,0,6.873,17.859,9.218,9.218,0,0,1,6.241-6.151,9.908,9.908,0,0,1,1.07-.245l.877-2.618a2.579,2.579,0,0,1-2.166-2.54V23.92H44.315a2.57,2.57,0,0,1-1.676-4.526A7.4,7.4,0,0,1,49.151,8.447h5.8a7.4,7.4,0,0,1,6.512,10.947,1.284,1.284,0,0,1,.142.129,2.521,2.521,0,0,1,.761,1.818,2.586,2.586,0,0,1-2.579,2.579H57.21V25.21a2.579,2.579,0,0,1-2.166,2.54l.877,2.618a9.908,9.908,0,0,1,1.07.245,9.218,9.218,0,0,1,6.241,6.151A25.985,25.985,0,0,0,66.558,32.2,26.727,26.727,0,0,0,70.1,18.9V12.754a5.591,5.591,0,0,0-5.6-5.6Z" transform="translate(-34 -2)" fill="#aab2bd"/>
        </g>
        <g id="Grupo_948401" data-name="Grupo 948401" transform="translate(48.135 28.613)">
          <path id="Trazado_633452" data-name="Trazado 633452" d="M54.378,31.682l1.07-7.492a9.218,9.218,0,0,1,6.241,6.151l-6.37,5.2a9.532,9.532,0,0,1-9.619,0,26.029,26.029,0,0,1-6.37-5.2,9.218,9.218,0,0,1,6.241-6.151l1.07,7.492,3.868-3.868Z" transform="translate(-39.33 -24.19)" fill="#fcd770"/>
        </g>
        <g id="Grupo_948402" data-name="Grupo 948402" transform="translate(59.314 28.368)">
          <path id="Trazado_633453" data-name="Trazado 633453" d="M52.939,24.245l-1.07,7.492L48,27.868,51.868,24A9.907,9.907,0,0,1,52.939,24.245Z" transform="translate(-48 -24)" fill="#ffc729"/>
        </g>
        <g id="Grupo_948403" data-name="Grupo 948403" transform="translate(54.375 28.368)">
          <path id="Trazado_633454" data-name="Trazado 633454" d="M49.109,27.868,45.24,31.737l-1.07-7.492A9.907,9.907,0,0,1,45.24,24Z" transform="translate(-44.17 -24)" fill="#ffc729"/>
        </g>
        <g id="Grupo_948404" data-name="Grupo 948404" transform="translate(48.998 6.447)">
          <path id="Trazado_633455" data-name="Trazado 633455" d="M60.631,14.414a7.417,7.417,0,0,1-.9,3.533,2.5,2.5,0,0,0-1.676-.632H55.473a6.227,6.227,0,0,1-4.4-1.818l-.761-.761-.761.761a6.227,6.227,0,0,1-4.4,1.818H42.579a2.5,2.5,0,0,0-1.676.632A7.4,7.4,0,0,1,47.414,7h5.8a7.4,7.4,0,0,1,7.414,7.414Z" transform="translate(-40 -7)" fill="#b27946"/>
        </g>
        <g id="Grupo_948405" data-name="Grupo 948405" transform="translate(64.472 16.763)">
          <path id="Trazado_633456" data-name="Trazado 633456" d="M56.4,15.761a2.521,2.521,0,0,1,.761,1.818,2.586,2.586,0,0,1-2.579,2.579H52V15h2.579a2.5,2.5,0,0,1,1.676.632A1.285,1.285,0,0,1,56.4,15.761Z" transform="translate(-52 -15)" fill="#f0d0b4"/>
        </g>
        <g id="Grupo_948406" data-name="Grupo 948406" transform="translate(55.446 25.75)">
          <path id="Trazado_633457" data-name="Trazado 633457" d="M51.447,22.009a2.134,2.134,0,0,0,.413-.039l.877,2.618-3.868,3.868L45,24.588l.877-2.618a2.134,2.134,0,0,0,.413.039Z" transform="translate(-45 -21.97)" fill="#f0d0b4"/>
        </g>
        <g id="Grupo_948407" data-name="Grupo 948407" transform="translate(54.156 14.184)">
          <path id="Trazado_633458" data-name="Trazado 633458" d="M49.918,13.761a6.227,6.227,0,0,0,4.4,1.818v6.447a2.579,2.579,0,0,1-2.166,2.54,2.134,2.134,0,0,1-.413.039H46.579a2.134,2.134,0,0,1-.413-.039A2.579,2.579,0,0,1,44,22.026V15.579a6.227,6.227,0,0,0,4.4-1.818L49.158,13Z" transform="translate(-44 -13)" fill="#f0d0b4"/>
        </g>
        <g id="Grupo_948408" data-name="Grupo 948408" transform="translate(48.998 16.763)">
          <path id="Trazado_633459" data-name="Trazado 633459" d="M45.158,15v5.158H42.579a2.579,2.579,0,0,1,0-5.158Z" transform="translate(-40 -15)" fill="#f0d0b4"/>
        </g>
      </g>
      <g id="Grupo_948410" data-name="Grupo 948410" transform="translate(1 0.586)">
        <path id="Trazado_633460" data-name="Trazado 633460" d="M74.055,6.278A16.212,16.212,0,0,1,62.515,1.5L61.6.586l-.912.912a16.212,16.212,0,0,1-11.54,4.78,6.9,6.9,0,0,0-6.889,6.889v3.426H7.447A6.454,6.454,0,0,0,1,23.04V61.723A6.454,6.454,0,0,0,7.447,68.17h21.92v3.345c-9,1.317-9.026,3.616-9.026,4.392,0,5.013,18.519,5.158,20.631,5.158S61.6,80.92,61.6,75.907c0-.776-.027-3.075-9.026-4.392V68.17H74.5a6.454,6.454,0,0,0,6.447-6.447V13.167a6.9,6.9,0,0,0-6.889-6.889ZM58.866,75.912c-1.275.979-7.311,2.574-17.893,2.574s-16.618-1.6-17.893-2.574c.575-.42,2.336-1.184,6.289-1.792v1.787h23.21V74.12C56.529,74.728,58.291,75.493,58.866,75.912ZM50,73.328H31.946V68.17H50Zm24.5-7.737H7.447a3.873,3.873,0,0,1-3.868-3.868V57.855H78.366v3.868A3.873,3.873,0,0,1,74.5,65.591Zm3.868-10.315H3.579V23.04a3.873,3.873,0,0,1,3.868-3.868H42.262v.138A28.082,28.082,0,0,0,56.148,43.485a10.566,10.566,0,0,0,7.774,1.2l1-.272a10.84,10.84,0,0,0,2.134-.93A28.027,28.027,0,0,0,78.367,30.979v24.3ZM55.156,23.04H53.867a1.289,1.289,0,1,1,0-2.579h1.289Zm0-5.158H53.867a3.833,3.833,0,0,0-1.016.152A6.085,6.085,0,0,1,58.7,10.146H64.51a6.086,6.086,0,0,1,5.846,7.89,3.79,3.79,0,0,0-1.016-.153H66.761a4.905,4.905,0,0,1-3.491-1.445L61.6,14.77l-1.667,1.667a4.905,4.905,0,0,1-3.491,1.445Zm12.894,2.579H69.34a1.289,1.289,0,1,1,0,2.579H68.051Zm-2.579,5.158a1.292,1.292,0,0,1-1.289,1.289H59.024a1.292,1.292,0,0,1-1.289-1.289V20.352A7.449,7.449,0,0,0,61.6,18.412a7.44,7.44,0,0,0,3.868,1.939Zm-1.79,3.868.313.941L61.6,32.822,59.21,30.429l.313-.941Zm1.256,3.648-.378,2.643-1.133-1.133Zm-5.158,1.51-1.133,1.133-.378-2.643ZM61.6,36.468l4.545,4.545c-.132.08-.255.166-.388.244a8.38,8.38,0,0,1-8.313,0c-.133-.077-.258-.165-.388-.244Zm5.983-3.639a7.9,7.9,0,0,1,3.707,4.046,25.266,25.266,0,0,1-4.85,3.952Zm-11.966,0,1.142,8a25.266,25.266,0,0,1-4.85-3.952A7.9,7.9,0,0,1,55.62,32.83ZM78.366,19.31a25.463,25.463,0,0,1-5.244,15.437,10.446,10.446,0,0,0-6.661-5.084l-.254-.763a3.856,3.856,0,0,0,1.844-3.28H69.34a3.866,3.866,0,0,0,3.2-6.036A8.68,8.68,0,0,0,64.508,7.567H58.7a8.68,8.68,0,0,0-8.032,12.016,3.866,3.866,0,0,0,3.2,6.036h1.289A3.858,3.858,0,0,0,57,28.9l-.254.763a10.446,10.446,0,0,0-6.661,5.084A25.462,25.462,0,0,1,44.841,19.31V13.167a4.316,4.316,0,0,1,4.311-4.311A18.762,18.762,0,0,0,61.6,4.176,18.757,18.757,0,0,0,74.055,8.856a4.316,4.316,0,0,1,4.311,4.311V19.31Z" transform="translate(-1 -0.586)"/>
        <circle id="Elipse_5396" data-name="Elipse 5396" cx="1.289" cy="1.289" r="1.289" transform="translate(33.525 59.848)"/>
        <circle id="Elipse_5397" data-name="Elipse 5397" cx="1.289" cy="1.289" r="1.289" transform="translate(38.683 59.848)"/>
        <circle id="Elipse_5398" data-name="Elipse 5398" cx="1.289" cy="1.289" r="1.289" transform="translate(43.841 59.848)"/>
        <path id="Trazado_633461" data-name="Trazado 633461" d="M5,27.315H38.525V17H5Zm30.946-2.579H15.315V19.579H35.946ZM7.579,19.579h5.158v5.158H7.579Z" transform="translate(0.158 4.165)"/>
        <path id="Trazado_633462" data-name="Trazado 633462" d="M5,37.315H38.525V27H5Zm30.946-2.579H15.315V29.579H35.946ZM7.579,29.579h5.158v5.158H7.579Z" transform="translate(0.158 7.059)"/>
      </g>
    </g>
  </g>
</svg>
