<svg xmlns="http://www.w3.org/2000/svg" width="1240" height="352.766" viewBox="0 0 1240 352.766">
  <g id="Grupo_948800" data-name="Grupo 948800" transform="translate(-44 -256.681)">
    <path id="Trazado_634271" data-name="Trazado 634271" d="M283.953,545.062H64.008v-33.3a1.66,1.66,0,0,1,3.319,0v29.982H280.634V511.763a1.66,1.66,0,1,1,3.319,0Z" fill="#40327b"/>
    <path id="Trazado_634272" data-name="Trazado 634272" d="M173.981,305.109A129.981,129.981,0,1,0,303.961,435.09,129.981,129.981,0,0,0,173.981,305.109Z" fill="#45bbcc"/>
    <path id="Trazado_634273" data-name="Trazado 634273" d="M282.294,513.422a1.66,1.66,0,0,1-1.66-1.659V433.431h72.014a1.659,1.659,0,1,1,0,3.318h-68.7v75.014A1.659,1.659,0,0,1,282.294,513.422Z" fill="#40327b"/>
    <path id="Trazado_634274" data-name="Trazado 634274" d="M65.668,513.422a1.66,1.66,0,0,1-1.66-1.66V325.118H283.953v94.6a1.66,1.66,0,1,1-3.319,0V328.436H67.327V511.762A1.66,1.66,0,0,1,65.668,513.422Z" fill="#40327b"/>
    <path id="Trazado_634275" data-name="Trazado 634275" d="M337.31,450.99a1.659,1.659,0,0,1-1.074-2.924l15.3-12.976-15.3-12.975a1.659,1.659,0,1,1,2.147-2.531l18.286,15.506L338.383,450.6A1.653,1.653,0,0,1,337.31,450.99Z" fill="#40327b"/>
    <path id="Trazado_634276" data-name="Trazado 634276" d="M1262.332,362.548a1.66,1.66,0,0,1-1.659-1.66V328.436H1047.366v29.9a1.659,1.659,0,0,1-3.319,0V325.118h219.944v35.77A1.659,1.659,0,0,1,1262.332,362.548Z" fill="#40327b"/>
    <path id="Trazado_634277" data-name="Trazado 634277" d="M1154.019,305.109A129.981,129.981,0,1,0,1284,435.09,129.981,129.981,0,0,0,1154.019,305.109Z" fill="#3795a3"/>
    <path id="Trazado_634278" data-name="Trazado 634278" d="M1045.706,410.85a1.659,1.659,0,0,1-1.659-1.659V358.336a1.659,1.659,0,1,1,3.319,0v50.855A1.659,1.659,0,0,1,1045.706,410.85Z" fill="#40327b"/>
    <g id="Grupo_948796" data-name="Grupo 948796">
      <path id="Trazado_634279" data-name="Trazado 634279" d="M1263.991,545.062H1044.047V460.989a1.659,1.659,0,0,1,3.319,0v80.755h213.307V360.888a1.659,1.659,0,1,1,3.318,0Z" fill="#40327b"/>
    </g>
    <g id="Grupo_948797" data-name="Grupo 948797">
      <path id="Trazado_634280" data-name="Trazado 634280" d="M789.289,273.722a1.659,1.659,0,0,1,2.925-1.074l12.975,15.3,12.976-15.3a1.659,1.659,0,1,1,2.531,2.146L805.189,293.08l-15.506-18.286A1.65,1.65,0,0,1,789.289,273.722Z" fill="#414042" stroke="#40327b" stroke-width="1"/>
      <path id="Trazado_634281" data-name="Trazado 634281" d="M502.836,324.554V258.681H805.189v29.872" fill="none" stroke="#40327b" stroke-miterlimit="10" stroke-width="4"/>
    </g>
    <g id="Grupo_948798" data-name="Grupo 948798">
      <path id="Trazado_634282" data-name="Trazado 634282" d="M518.736,592.407a1.66,1.66,0,0,1-2.925,1.074l-12.975-15.3-12.976,15.3a1.659,1.659,0,0,1-2.531-2.146l15.507-18.287,15.506,18.287A1.653,1.653,0,0,1,518.736,592.407Z" fill="#414042" stroke="#40327b" stroke-width="1"/>
      <path id="Trazado_634283" data-name="Trazado 634283" d="M805.189,541.575v65.872H502.836V577.575" fill="none" stroke="#40327b" stroke-miterlimit="10" stroke-width="4"/>
    </g>
    <path id="Trazado_634284" data-name="Trazado 634284" d="M614.544,362.548a1.66,1.66,0,0,1-1.659-1.66V328.436H399.577v29.9a1.659,1.659,0,0,1-3.318,0V325.118H616.2v35.77A1.66,1.66,0,0,1,614.544,362.548Z" fill="#40327b"/>
    <path id="Trazado_634285" data-name="Trazado 634285" d="M506.231,305.109A129.981,129.981,0,1,0,636.212,435.09,129.982,129.982,0,0,0,506.231,305.109Z" fill="#3795a3"/>
    <path id="Trazado_634286" data-name="Trazado 634286" d="M397.918,410.85a1.659,1.659,0,0,1-1.659-1.659V358.336a1.659,1.659,0,1,1,3.318,0v50.855A1.659,1.659,0,0,1,397.918,410.85Z" fill="#40327b"/>
    <g id="Grupo_948799" data-name="Grupo 948799">
      <path id="Trazado_634287" data-name="Trazado 634287" d="M616.2,545.062H396.259V460.989a1.659,1.659,0,1,1,3.318,0v80.755H612.885V360.888a1.659,1.659,0,0,1,3.318,0Z" fill="#40327b" stroke="#40327b" stroke-width="1"/>
    </g>
    <path id="Trazado_634288" data-name="Trazado 634288" d="M915.161,545.062H695.217v-33.3a1.66,1.66,0,0,1,3.319,0v29.982H911.843V511.763a1.659,1.659,0,1,1,3.318,0Z" fill="#40327b"/>
    <path id="Trazado_634289" data-name="Trazado 634289" d="M805.189,305.109A129.981,129.981,0,1,0,935.17,435.09,129.982,129.982,0,0,0,805.189,305.109Z" fill="#45bbcc"/>
    <path id="Trazado_634290" data-name="Trazado 634290" d="M913.5,513.422a1.659,1.659,0,0,1-1.659-1.659V433.431h72.013a1.659,1.659,0,0,1,0,3.318h-68.7v75.014A1.659,1.659,0,0,1,913.5,513.422Z" fill="#40327b"/>
    <path id="Trazado_634291" data-name="Trazado 634291" d="M696.876,513.422a1.66,1.66,0,0,1-1.659-1.66V325.118H915.161v94.6a1.659,1.659,0,1,1-3.318,0V328.436H698.536V511.762A1.66,1.66,0,0,1,696.876,513.422Z" fill="#40327b"/>
    <path id="Trazado_634292" data-name="Trazado 634292" d="M968.519,450.99a1.659,1.659,0,0,1-1.074-2.924l15.3-12.976-15.3-12.975a1.659,1.659,0,1,1,2.146-2.531l18.286,15.506L969.591,450.6A1.65,1.65,0,0,1,968.519,450.99Z" fill="#40327b"/>
    <g id="Grupo_948515" data-name="Grupo 948515">
      <rect id="Rectángulo_34831" data-name="Rectángulo 34831" width="105" height="110" transform="translate(121.481 359.388)" fill="none"/>
      <g id="proteger">
        <path id="Trazado_633845" data-name="Trazado 633845" d="M179.456,460.981l-4.361,2.292a2.4,2.4,0,0,1-2.229,0l-4.36-2.292c-23.945-12.585-38.69-35.809-38.69-60.939V384.7a2.383,2.383,0,0,1,2.113-2.379c8.253-.871,14.815-6.779,15.861-14.252a2.411,2.411,0,0,1,2.377-2.1h47.628a2.411,2.411,0,0,1,2.377,2.1c1.046,7.473,7.608,13.382,15.861,14.252a2.383,2.383,0,0,1,2.113,2.379v15.35C218.145,425.174,203.4,448.4,179.456,460.981Z" fill="#e1e6e9"/>
        <path id="Trazado_633846" data-name="Trazado 633846" d="M216.029,382.316c-8.254-.871-14.815-6.779-15.861-14.252a2.411,2.411,0,0,0-2.377-2.1h-3.243c.467,10.36,7.85,17.708,15.837,18.551a2.383,2.383,0,0,1,2.113,2.379v15.35c0,25.129-14.745,48.353-38.69,60.939l-.5.265a2.39,2.39,0,0,0,1.786-.175l4.361-2.292c23.945-12.585,38.69-35.809,38.69-60.939V384.7A2.384,2.384,0,0,0,216.029,382.316Z" fill="#cbcbcb"/>
        <path id="Trazado_633847" data-name="Trazado 633847" d="M172.364,454.828a68.6,68.6,0,0,1-26.118-23.72,59.434,59.434,0,0,1-9.409-31.861v-8.713a3.076,3.076,0,0,1,1.936-2.862,27,27,0,0,0,14.52-13.344,3.07,3.07,0,0,1,2.775-1.74H191.89a3.071,3.071,0,0,1,2.775,1.74,27,27,0,0,0,14.52,13.344,3.077,3.077,0,0,1,1.938,2.863v8.713a59.434,59.434,0,0,1-9.409,31.861,68.616,68.616,0,0,1-26.118,23.72l-.181.1a3.082,3.082,0,0,1-2.871,0Z" fill="#2ff980"/>
        <path id="Trazado_633848" data-name="Trazado 633848" d="M209.186,387.672l-.151-.062-.251-.1q-.214-.089-.426-.18l-.244-.107c-.151-.066-.3-.135-.45-.2l-.2-.094q-.323-.153-.641-.313l-.047-.025q-.294-.148-.584-.3l-.2-.112q-.21-.115-.419-.234l-.23-.133c-.134-.076-.264-.154-.391-.232l-.225-.138c-.136-.084-.27-.169-.4-.255l-.2-.126c-.183-.12-.364-.241-.544-.365l-.04-.027q-.289-.2-.572-.407l-.176-.131q-.2-.144-.387-.292l-.2-.16c-.118-.092-.236-.186-.352-.281l-.2-.166q-.18-.147-.355-.3l-.181-.155c-.146-.126-.289-.255-.431-.385l-.089-.08q-.257-.234-.5-.476l-.142-.14c-.118-.116-.235-.232-.351-.35l-.176-.182q-.156-.16-.308-.325l-.178-.192q-.153-.166-.3-.337l-.162-.184c-.117-.135-.232-.272-.346-.409l-.1-.119c-.146-.178-.29-.357-.431-.539l-.107-.14q-.157-.2-.31-.411c-.049-.066-.1-.133-.145-.2-.088-.121-.174-.243-.26-.366l-.148-.215q-.126-.185-.248-.372c-.046-.069-.091-.138-.136-.208-.091-.142-.18-.284-.268-.428-.032-.053-.066-.1-.1-.158-.119-.2-.235-.393-.348-.593-.024-.042-.047-.085-.07-.127q-.134-.237-.262-.477c-.038-.071-.074-.142-.111-.213q-.1-.2-.206-.4c-.039-.077-.077-.155-.114-.233-.029-.059-.059-.118-.087-.177a3.071,3.071,0,0,0-2.775-1.74H173.98V455.28a3.081,3.081,0,0,0,1.435-.354l.181-.1a68.6,68.6,0,0,0,26.118-23.72,59.434,59.434,0,0,0,9.409-31.861v-8.716A3.076,3.076,0,0,0,209.186,387.672Z" fill="#25c766"/>
        <path id="Trazado_633849" data-name="Trazado 633849" d="M209.186,387.672l-.151-.062-.251-.1q-.214-.089-.426-.18l-.244-.107c-.151-.066-.3-.135-.45-.2l-.2-.094q-.323-.153-.641-.313l-.047-.025q-.294-.148-.584-.3l-.2-.112q-.21-.115-.419-.234l-.23-.133c-.134-.076-.264-.154-.391-.232l-.225-.138c-.136-.084-.27-.169-.4-.255l-.2-.126c-.183-.12-.364-.241-.544-.365l-.04-.027q-.289-.2-.572-.407l-.176-.131q-.2-.144-.387-.292l-.2-.16c-.118-.092-.236-.186-.352-.281l-.2-.166q-.18-.147-.355-.3l-.181-.155c-.146-.126-.289-.255-.431-.385l-.089-.08q-.257-.234-.5-.476l-.142-.14c-.118-.116-.235-.232-.351-.35l-.176-.182q-.156-.16-.308-.325l-.178-.192q-.153-.166-.3-.337l-.162-.184c-.117-.135-.232-.272-.346-.409l-.1-.119c-.146-.178-.29-.357-.431-.539l-.107-.14q-.157-.2-.31-.411c-.049-.066-.1-.133-.145-.2-.088-.121-.174-.243-.26-.366l-.148-.215q-.126-.185-.248-.372c-.046-.069-.091-.138-.136-.208-.091-.142-.18-.284-.268-.428-.032-.053-.066-.1-.1-.158-.119-.2-.235-.393-.348-.593-.024-.042-.047-.085-.07-.127q-.134-.237-.262-.477c-.038-.071-.074-.142-.111-.213q-.1-.2-.206-.4c-.039-.077-.077-.155-.114-.233-.029-.059-.059-.118-.087-.177a3.071,3.071,0,0,0-2.775-1.74h-4.957a27.563,27.563,0,0,1,2.179,3.287c.033.057.058.118.087.177l.114.233c.066.133.135.267.206.4l.111.213q.127.24.262.477c.024.042.046.085.07.127q.169.3.348.593c.032.053.065.105.1.158.088.144.177.286.268.428.045.07.09.138.136.208.082.125.164.249.248.372l.148.215q.127.184.26.366c.048.067.1.133.145.2.1.138.205.275.31.411.036.047.071.094.107.14.141.182.285.361.431.539l.1.119c.114.137.229.274.346.409.053.062.108.123.162.184l.3.337.178.192c.1.11.2.218.308.325l.176.182q.174.177.351.35l.142.14c.166.161.332.32.5.476l.089.08c.142.13.285.258.431.385l.181.155q.176.152.355.3l.2.166c.116.1.234.189.352.281l.2.16q.192.148.387.292l.176.131q.282.207.572.407l.04.027c.179.124.36.245.544.365l.2.126q.2.129.4.255l.225.138q.193.119.391.232l.23.133q.207.12.419.234l.2.112q.289.156.584.3l.047.025q.316.162.64.313l.2.094c.15.069.3.138.45.2l.244.107q.212.093.426.18l.251.1.151.062a3.077,3.077,0,0,1,1.938,2.863V400.8a59.434,59.434,0,0,1-9.409,31.861A73.2,73.2,0,0,1,173.98,455.2v.081a3.081,3.081,0,0,0,1.435-.354l.181-.1a68.6,68.6,0,0,0,26.118-23.72,59.434,59.434,0,0,0,9.409-31.861v-8.713A3.076,3.076,0,0,0,209.186,387.672Z" fill="#1e9690"/>
        <path id="Trazado_633850" data-name="Trazado 633850" d="M190.353,428.345H157.718a3.116,3.116,0,0,1-3.117-3.117h0V404.762a3.117,3.117,0,0,1,3.117-3.117h32.636a3.118,3.118,0,0,1,3.117,3.117h0v20.467a3.117,3.117,0,0,1-3.118,3.116Z" fill="#636a75"/>
        <path id="Trazado_633851" data-name="Trazado 633851" d="M190.353,401.645h-5.638a3.118,3.118,0,0,1,3.117,3.117h0v20.467a3.117,3.117,0,0,1-3.117,3.117h5.643a3.117,3.117,0,0,0,3.117-3.117h0V404.762a3.118,3.118,0,0,0-3.117-3.117Z" fill="#515a66"/>
        <path id="Trazado_633852" data-name="Trazado 633852" d="M172.6,416.473v4.07a1.43,1.43,0,1,0,2.859.076v-4.146a3.348,3.348,0,1,0-2.859,0Z"/>
        <path id="Trazado_633853" data-name="Trazado 633853" d="M171.7,456.094h0l.18.1a4.514,4.514,0,0,0,4.2,0l.181-.1a70.045,70.045,0,0,0,26.66-24.219,60.867,60.867,0,0,0,9.631-32.628v-8.707a4.481,4.481,0,0,0-2.842-4.192,25.418,25.418,0,0,1-13.751-12.633,4.517,4.517,0,0,0-4.067-2.556H156.069A4.517,4.517,0,0,0,152,373.71a25.42,25.42,0,0,1-13.754,12.633,4.479,4.479,0,0,0-2.841,4.192v8.713a60.858,60.858,0,0,0,9.631,32.627A70.038,70.038,0,0,0,171.7,456.094Zm-33.432-56.847v-8.712A1.634,1.634,0,0,1,139.3,389a28.267,28.267,0,0,0,15.283-14.058,1.644,1.644,0,0,1,1.485-.925h35.822a1.646,1.646,0,0,1,1.485.925A28.265,28.265,0,0,0,208.659,389a1.637,1.637,0,0,1,1.034,1.534v8.713a58.017,58.017,0,0,1-9.186,31.1,67.177,67.177,0,0,1-25.578,23.215l-.181.1a1.653,1.653,0,0,1-1.541,0l-.18-.1a67.182,67.182,0,0,1-25.574-23.221A58,58,0,0,1,138.267,399.247Z"/>
        <path id="Trazado_633854" data-name="Trazado 633854" d="M216.878,412.81a1.429,1.429,0,0,0-1.709,1.079h0c-4.354,19.26-17.613,35.963-36.378,45.826l-4.361,2.3a.968.968,0,0,1-.9,0l-4.361-2.292c-18.8-9.879-32.061-26.61-36.4-45.9a1.429,1.429,0,0,0-2.789.627c4.519,20.114,18.317,37.54,37.855,47.809l4.361,2.292a3.822,3.822,0,0,0,3.559,0l4.361-2.292c19.507-10.253,33.3-27.649,37.837-47.726a1.43,1.43,0,0,0-1.075-1.713Z"/>
        <path id="Trazado_633855" data-name="Trazado 633855" d="M216.183,380.895c-7.633-.8-13.635-6.163-14.6-13.029a3.862,3.862,0,0,0-3.788-3.328H150.166a3.86,3.86,0,0,0-3.792,3.328c-.961,6.866-6.963,12.223-14.6,13.029a3.8,3.8,0,0,0-3.393,3.8v15.35a65.466,65.466,0,0,0,.344,6.7,1.43,1.43,0,0,0,1.42,1.283,1.466,1.466,0,0,0,.148-.008,1.429,1.429,0,0,0,1.276-1.567h0a62.653,62.653,0,0,1-.329-6.41V384.7a.959.959,0,0,1,.834-.958c8.945-.943,15.988-7.307,17.128-15.475a.978.978,0,0,1,.961-.865h47.631a.978.978,0,0,1,.961.865c1.147,8.168,8.186,14.532,17.127,15.476a.959.959,0,0,1,.834.958v15.35a63.1,63.1,0,0,1-.322,6.344,1.43,1.43,0,0,0,2.844.289,66.2,66.2,0,0,0,.336-6.633V384.7A3.8,3.8,0,0,0,216.183,380.895Z"/>
        <path id="Trazado_633856" data-name="Trazado 633856" d="M190.353,429.775a4.551,4.551,0,0,0,4.546-4.546V404.762a4.552,4.552,0,0,0-4.546-4.546H188v-6.824a13.968,13.968,0,0,0-27.935,0v6.823h-2.35a4.551,4.551,0,0,0-4.546,4.546v20.467a4.55,4.55,0,0,0,4.546,4.546Zm-27.427-36.382a11.109,11.109,0,0,1,22.217,0v6.823H162.926Zm-6.9,31.836V404.762a1.689,1.689,0,0,1,1.687-1.687h32.636a1.689,1.689,0,0,1,1.687,1.687v20.467a1.689,1.689,0,0,1-1.687,1.687H157.717a1.689,1.689,0,0,1-1.687-1.687Z"/>
      </g>
    </g>
    <path id="Trazado_635168" data-name="Trazado 635168" d="M2.781-4.234V0H1.469V-11.2H4.547a4.063,4.063,0,0,1,2.785.875A3.124,3.124,0,0,1,8.32-7.859a3.4,3.4,0,0,1-1.1,2.609A4.194,4.194,0,0,1,4.258-4.234Zm0-5.781v4.594H4.156A3.074,3.074,0,0,0,6.23-6.043,2.2,2.2,0,0,0,6.945-7.8q0-2.219-2.625-2.219ZM14.43-6.7a1.567,1.567,0,0,0-.969-.258,1.635,1.635,0,0,0-1.371.773,3.576,3.576,0,0,0-.551,2.109V0H10.258V-8h1.281v1.648h.031a2.793,2.793,0,0,1,.836-1.316,1.906,1.906,0,0,1,1.258-.473,2.092,2.092,0,0,1,.766.109ZM22.25-3.68H16.6a2.992,2.992,0,0,0,.719,2.063,2.478,2.478,0,0,0,1.891.727A3.931,3.931,0,0,0,21.7-1.781v1.2a4.643,4.643,0,0,1-2.789.766A3.381,3.381,0,0,1,16.242-.9a4.461,4.461,0,0,1-.969-3.066,4.375,4.375,0,0,1,1.059-3.043,3.394,3.394,0,0,1,2.629-1.176,3.008,3.008,0,0,1,2.43,1.016,4.234,4.234,0,0,1,.859,2.82ZM20.938-4.766A2.607,2.607,0,0,0,20.4-6.492a1.823,1.823,0,0,0-1.465-.617,2.07,2.07,0,0,0-1.539.648,2.943,2.943,0,0,0-.781,1.7ZM25.5-1.156h-.031V3.68H24.188V-8h1.281v1.406H25.5a3.03,3.03,0,0,1,2.766-1.594A2.93,2.93,0,0,1,30.68-7.113a4.449,4.449,0,0,1,.867,2.879A4.959,4.959,0,0,1,30.57-1.02,3.251,3.251,0,0,1,27.9.188,2.676,2.676,0,0,1,25.5-1.156Zm-.031-3.227v1.117a2.379,2.379,0,0,0,.645,1.684,2.14,2.14,0,0,0,1.637.691,2.145,2.145,0,0,0,1.824-.891,4.086,4.086,0,0,0,.66-2.477,3.225,3.225,0,0,0-.617-2.094,2.043,2.043,0,0,0-1.672-.758,2.27,2.27,0,0,0-1.8.777A2.854,2.854,0,0,0,25.469-4.383ZM39.32,0H38.039V-1.25h-.031A2.682,2.682,0,0,1,35.547.188a2.63,2.63,0,0,1-1.871-.633A2.192,2.192,0,0,1,33-2.125q0-2.242,2.641-2.609l2.4-.336q0-2.039-1.648-2.039a3.938,3.938,0,0,0-2.609.984V-7.437a4.958,4.958,0,0,1,2.719-.75q2.82,0,2.82,2.984ZM38.039-4.047l-1.93.266a3.133,3.133,0,0,0-1.344.441,1.273,1.273,0,0,0-.453,1.121,1.221,1.221,0,0,0,.418.957,1.615,1.615,0,0,0,1.113.371,2.056,2.056,0,0,0,1.574-.668,2.387,2.387,0,0,0,.621-1.691ZM45.906-6.7a1.567,1.567,0,0,0-.969-.258,1.635,1.635,0,0,0-1.371.773,3.576,3.576,0,0,0-.551,2.109V0H41.734V-8h1.281v1.648h.031a2.794,2.794,0,0,1,.836-1.316,1.906,1.906,0,0,1,1.258-.473,2.092,2.092,0,0,1,.766.109ZM53.023,0H51.742V-1.25h-.031A2.682,2.682,0,0,1,49.25.188a2.63,2.63,0,0,1-1.871-.633,2.192,2.192,0,0,1-.676-1.68q0-2.242,2.641-2.609l2.4-.336q0-2.039-1.648-2.039a3.938,3.938,0,0,0-2.609.984V-7.437a4.958,4.958,0,0,1,2.719-.75q2.82,0,2.82,2.984ZM51.742-4.047l-1.93.266a3.133,3.133,0,0,0-1.344.441,1.273,1.273,0,0,0-.453,1.121,1.221,1.221,0,0,0,.418.957,1.615,1.615,0,0,0,1.113.371,2.056,2.056,0,0,0,1.574-.668,2.387,2.387,0,0,0,.621-1.691Zm9.148,3.68A4.163,4.163,0,0,1,58.7.188,3.622,3.622,0,0,1,55.941-.926a4.035,4.035,0,0,1-1.051-2.887,4.435,4.435,0,0,1,1.133-3.176,3.963,3.963,0,0,1,3.023-1.2,4.209,4.209,0,0,1,1.859.391v1.313A3.258,3.258,0,0,0,59-7.109a2.576,2.576,0,0,0-2.012.879A3.335,3.335,0,0,0,56.2-3.922,3.176,3.176,0,0,0,56.941-1.7a2.545,2.545,0,0,0,1.98.813,3.211,3.211,0,0,0,1.969-.7Zm2.594-9.664a.812.812,0,0,1-.586-.234.791.791,0,0,1-.242-.594.8.8,0,0,1,.242-.6.8.8,0,0,1,.586-.238.827.827,0,0,1,.6.238.8.8,0,0,1,.246.6.792.792,0,0,1-.246.586A.82.82,0,0,1,63.484-10.031ZM64.109,0H62.828V-8h1.281Zm5.938.188A3.711,3.711,0,0,1,67.215-.934a4.153,4.153,0,0,1-1.059-2.973,4.326,4.326,0,0,1,1.1-3.148,3.96,3.96,0,0,1,2.977-1.133,3.588,3.588,0,0,1,2.793,1.1,4.368,4.368,0,0,1,1,3.055A4.3,4.3,0,0,1,72.949-.965,3.791,3.791,0,0,1,70.047.188Zm.094-7.3a2.437,2.437,0,0,0-1.953.84,3.449,3.449,0,0,0-.719,2.316A3.262,3.262,0,0,0,68.2-1.711a2.469,2.469,0,0,0,1.945.82,2.342,2.342,0,0,0,1.91-.8,3.492,3.492,0,0,0,.668-2.289A3.552,3.552,0,0,0,72.051-6.3,2.332,2.332,0,0,0,70.141-7.109Zm1.875-4.969L69.969-9.516h-.992l1.742-2.562ZM82.719,0H81.438V-4.562q0-2.547-1.859-2.547a2.017,2.017,0,0,0-1.59.723,2.679,2.679,0,0,0-.629,1.824V0H76.078V-8h1.281v1.328h.031a2.887,2.887,0,0,1,2.625-1.516,2.448,2.448,0,0,1,2.008.848,3.776,3.776,0,0,1,.7,2.449Z" transform="translate(129.945 501.462)"/>
    <path id="Trazado_635169" data-name="Trazado 635169" d="M-67.285,0V-11.2h3.094q5.922,0,5.922,5.461a5.5,5.5,0,0,1-1.645,4.168A6.1,6.1,0,0,1-64.316,0Zm1.313-10.016v8.828H-64.3a4.745,4.745,0,0,0,3.43-1.18,4.422,4.422,0,0,0,1.227-3.344q0-4.3-4.578-4.3ZM-49.809-3.68h-5.648a2.992,2.992,0,0,0,.719,2.063,2.478,2.478,0,0,0,1.891.727,3.931,3.931,0,0,0,2.484-.891v1.2a4.643,4.643,0,0,1-2.789.766A3.381,3.381,0,0,1-55.816-.9a4.461,4.461,0,0,1-.969-3.066,4.375,4.375,0,0,1,1.059-3.043A3.394,3.394,0,0,1-53.1-8.187a3.008,3.008,0,0,1,2.43,1.016,4.234,4.234,0,0,1,.859,2.82Zm-1.312-1.086a2.607,2.607,0,0,0-.535-1.727,1.823,1.823,0,0,0-1.465-.617,2.07,2.07,0,0,0-1.539.648,2.943,2.943,0,0,0-.781,1.7ZM-44.16-.078a2.47,2.47,0,0,1-1.2.25q-2.1,0-2.1-2.344V-6.906h-1.375V-8h1.375V-9.953l1.281-.414V-8h2.016v1.094h-2.016V-2.4A1.869,1.869,0,0,0-45.9-1.25,1.091,1.091,0,0,0-45-.906a1.347,1.347,0,0,0,.836-.266Zm8.141-3.6h-5.648a2.992,2.992,0,0,0,.719,2.063,2.478,2.478,0,0,0,1.891.727,3.931,3.931,0,0,0,2.484-.891v1.2a4.643,4.643,0,0,1-2.789.766A3.381,3.381,0,0,1-42.027-.9,4.461,4.461,0,0,1-43-3.969a4.375,4.375,0,0,1,1.059-3.043,3.394,3.394,0,0,1,2.629-1.176,3.008,3.008,0,0,1,2.43,1.016,4.234,4.234,0,0,1,.859,2.82Zm-1.312-1.086a2.607,2.607,0,0,0-.535-1.727,1.823,1.823,0,0,0-1.465-.617,2.07,2.07,0,0,0-1.539.648,2.943,2.943,0,0,0-.781,1.7Zm8.7,4.4a4.163,4.163,0,0,1-2.187.555A3.622,3.622,0,0,1-33.578-.926a4.035,4.035,0,0,1-1.051-2.887A4.435,4.435,0,0,1-33.5-6.988a3.963,3.963,0,0,1,3.023-1.2,4.209,4.209,0,0,1,1.859.391v1.313a3.258,3.258,0,0,0-1.906-.625,2.576,2.576,0,0,0-2.012.879,3.335,3.335,0,0,0-.785,2.309A3.176,3.176,0,0,0-32.578-1.7a2.545,2.545,0,0,0,1.98.813,3.211,3.211,0,0,0,1.969-.7Zm7.391,0a4.163,4.163,0,0,1-2.187.555A3.622,3.622,0,0,1-26.187-.926a4.035,4.035,0,0,1-1.051-2.887,4.435,4.435,0,0,1,1.133-3.176,3.963,3.963,0,0,1,3.023-1.2,4.209,4.209,0,0,1,1.859.391v1.313a3.258,3.258,0,0,0-1.906-.625,2.576,2.576,0,0,0-2.012.879,3.335,3.335,0,0,0-.785,2.309A3.176,3.176,0,0,0-25.187-1.7a2.545,2.545,0,0,0,1.98.813,3.211,3.211,0,0,0,1.969-.7Zm2.594-9.664a.812.812,0,0,1-.586-.234.791.791,0,0,1-.242-.594.8.8,0,0,1,.242-.6.8.8,0,0,1,.586-.238.827.827,0,0,1,.6.238.8.8,0,0,1,.246.6.792.792,0,0,1-.246.586A.82.82,0,0,1-18.645-10.031ZM-18.02,0H-19.3V-8h1.281Zm5.938.188A3.711,3.711,0,0,1-14.914-.934a4.153,4.153,0,0,1-1.059-2.973,4.326,4.326,0,0,1,1.1-3.148,3.96,3.96,0,0,1,2.977-1.133A3.588,3.588,0,0,1-9.1-7.086a4.368,4.368,0,0,1,1,3.055A4.3,4.3,0,0,1-9.18-.965,3.791,3.791,0,0,1-12.082.188Zm.094-7.3a2.437,2.437,0,0,0-1.953.84,3.449,3.449,0,0,0-.719,2.316,3.262,3.262,0,0,0,.727,2.242,2.469,2.469,0,0,0,1.945.82,2.342,2.342,0,0,0,1.91-.8A3.492,3.492,0,0,0-9.41-3.984,3.552,3.552,0,0,0-10.078-6.3,2.332,2.332,0,0,0-11.988-7.109Zm1.875-4.969L-12.16-9.516h-.992l1.742-2.562ZM.59,0H-.691V-4.562q0-2.547-1.859-2.547a2.017,2.017,0,0,0-1.59.723A2.679,2.679,0,0,0-4.77-4.562V0H-6.051V-8H-4.77v1.328h.031A2.887,2.887,0,0,1-2.113-8.187,2.448,2.448,0,0,1-.105-7.34a3.776,3.776,0,0,1,.7,2.449ZM13.754-8l-3.68,9.281Q9.09,3.766,7.309,3.766a2.932,2.932,0,0,1-.836-.1V2.516a2.375,2.375,0,0,0,.758.141A1.57,1.57,0,0,0,8.684,1.5L9.324-.016,6.2-8H7.621L9.785-1.844q.039.117.164.609H10q.039-.187.156-.594L12.426-8ZM25.238,0H23.957V-1.25h-.031A2.682,2.682,0,0,1,21.465.188a2.63,2.63,0,0,1-1.871-.633,2.192,2.192,0,0,1-.676-1.68q0-2.242,2.641-2.609l2.4-.336q0-2.039-1.648-2.039a3.938,3.938,0,0,0-2.609.984V-7.437a4.958,4.958,0,0,1,2.719-.75q2.82,0,2.82,2.984ZM23.957-4.047l-1.93.266a3.133,3.133,0,0,0-1.344.441,1.273,1.273,0,0,0-.453,1.121,1.221,1.221,0,0,0,.418.957,1.615,1.615,0,0,0,1.113.371,2.056,2.056,0,0,0,1.574-.668,2.387,2.387,0,0,0,.621-1.691ZM34.293,0H33.012V-4.562q0-2.547-1.859-2.547a2.017,2.017,0,0,0-1.59.723,2.679,2.679,0,0,0-.629,1.824V0H27.652V-8h1.281v1.328h.031A2.887,2.887,0,0,1,31.59-8.187,2.448,2.448,0,0,1,33.6-7.34a3.776,3.776,0,0,1,.7,2.449Zm8.141,0H41.152V-1.25h-.031A2.682,2.682,0,0,1,38.66.188a2.63,2.63,0,0,1-1.871-.633,2.192,2.192,0,0,1-.676-1.68q0-2.242,2.641-2.609l2.4-.336q0-2.039-1.648-2.039a3.938,3.938,0,0,0-2.609.984V-7.437a4.958,4.958,0,0,1,2.719-.75q2.82,0,2.82,2.984ZM41.152-4.047l-1.93.266a3.133,3.133,0,0,0-1.344.441,1.273,1.273,0,0,0-.453,1.121,1.221,1.221,0,0,0,.418.957,1.615,1.615,0,0,0,1.113.371,2.056,2.056,0,0,0,1.574-.668,2.387,2.387,0,0,0,.621-1.691Zm.172-8.031L39.277-9.516h-.992l1.742-2.562ZM46.129,0H44.848V-11.844h1.281Zm3.25-10.031a.812.812,0,0,1-.586-.234.791.791,0,0,1-.242-.594.8.8,0,0,1,.242-.6.8.8,0,0,1,.586-.238.827.827,0,0,1,.6.238.8.8,0,0,1,.246.6.792.792,0,0,1-.246.586A.82.82,0,0,1,49.379-10.031ZM50,0H48.723V-8H50Zm2.109-.289V-1.664a3.792,3.792,0,0,0,2.3.773q1.688,0,1.688-1.125a.976.976,0,0,0-.145-.543,1.44,1.44,0,0,0-.391-.395,3.007,3.007,0,0,0-.578-.309q-.332-.137-.715-.285a9.207,9.207,0,0,1-.934-.426,2.82,2.82,0,0,1-.672-.484,1.8,1.8,0,0,1-.406-.613,2.17,2.17,0,0,1-.137-.8,1.912,1.912,0,0,1,.258-1,2.286,2.286,0,0,1,.688-.727,3.206,3.206,0,0,1,.98-.441,4.349,4.349,0,0,1,1.137-.148,4.59,4.59,0,0,1,1.859.359v1.3a3.624,3.624,0,0,0-2.031-.578,2.374,2.374,0,0,0-.648.082,1.587,1.587,0,0,0-.5.23,1.065,1.065,0,0,0-.32.355.936.936,0,0,0-.113.457,1.1,1.1,0,0,0,.113.523,1.152,1.152,0,0,0,.332.375,2.538,2.538,0,0,0,.531.3q.312.133.711.289a9.894,9.894,0,0,1,.953.418A3.269,3.269,0,0,1,56.8-3.6a1.893,1.893,0,0,1,.457.621,2,2,0,0,1,.16.836,1.971,1.971,0,0,1-.262,1.031,2.243,2.243,0,0,1-.7.727,3.2,3.2,0,0,1-1.008.43,4.976,4.976,0,0,1-1.2.141A4.539,4.539,0,0,1,52.113-.289Zm7.93-9.742a.812.812,0,0,1-.586-.234.791.791,0,0,1-.242-.594.8.8,0,0,1,.242-.6.8.8,0,0,1,.586-.238.827.827,0,0,1,.6.238.8.8,0,0,1,.246.6.792.792,0,0,1-.246.586A.82.82,0,0,1,60.043-10.031ZM60.668,0H59.387V-8h1.281Zm2.109-.289V-1.664a3.792,3.792,0,0,0,2.3.773q1.688,0,1.688-1.125a.976.976,0,0,0-.145-.543,1.44,1.44,0,0,0-.391-.395,3.007,3.007,0,0,0-.578-.309q-.332-.137-.715-.285a9.207,9.207,0,0,1-.934-.426,2.82,2.82,0,0,1-.672-.484,1.8,1.8,0,0,1-.406-.613,2.17,2.17,0,0,1-.137-.8,1.912,1.912,0,0,1,.258-1,2.286,2.286,0,0,1,.688-.727,3.206,3.206,0,0,1,.98-.441,4.349,4.349,0,0,1,1.137-.148,4.59,4.59,0,0,1,1.859.359v1.3a3.624,3.624,0,0,0-2.031-.578,2.374,2.374,0,0,0-.648.082,1.587,1.587,0,0,0-.5.23,1.065,1.065,0,0,0-.32.355.936.936,0,0,0-.113.457,1.1,1.1,0,0,0,.113.523,1.152,1.152,0,0,0,.332.375,2.538,2.538,0,0,0,.531.3q.313.133.711.289a9.9,9.9,0,0,1,.953.418,3.269,3.269,0,0,1,.719.484,1.893,1.893,0,0,1,.457.621,2,2,0,0,1,.16.836,1.971,1.971,0,0,1-.262,1.031,2.243,2.243,0,0,1-.7.727,3.2,3.2,0,0,1-1.008.43,4.976,4.976,0,0,1-1.2.141A4.539,4.539,0,0,1,62.777-.289Z" transform="translate(505.82 501.462)" fill="#fff"/>
    <g id="Grupo_948513" data-name="Grupo 948513">
      <g id="Grupo_948512" data-name="Grupo 948512">
        <g id="Grupo_948511" data-name="Grupo 948511">
          <g id="Grupo_948505" data-name="Grupo 948505">
            <rect id="Rectángulo_34822" data-name="Rectángulo 34822" width="54.096" height="96.211" rx="3" transform="translate(479.959 364.824)" fill="#242d3c"/>
            <path id="Rectángulo_34822_-_Contorno" data-name="Rectángulo 34822 - Contorno" d="M481.851,363.709h50.3a3.013,3.013,0,0,1,3.018,3.007v92.423a3.013,3.013,0,0,1-3.011,3.011H481.851a3.015,3.015,0,0,1-3.01-3.01V366.716A3.014,3.014,0,0,1,481.851,363.709Zm50.308,96.207a.782.782,0,0,0,.781-.781V366.716a.781.781,0,0,0-.781-.781H481.851a.783.783,0,0,0-.777.781v92.423a.782.782,0,0,0,.777.777Z" fill="#252425"/>
            <rect id="Rectángulo_34823" data-name="Rectángulo 34823" width="54.096" height="80.055" transform="translate(479.959 373.83)" fill="#fff"/>
            <path id="Rectángulo_34823_-_Contorno" data-name="Rectángulo 34823 - Contorno" d="M478.771,372.642h56.471v82.43H478.771Zm54.1,2.378H481.149V452.7h51.72Z" fill="#252425"/>
            <g id="Grupo_948504" data-name="Grupo 948504">
              <path id="Trazado_633771" data-name="Trazado 633771" d="M511.645,368.794a.8.8,0,0,1-.795.8H500.512a.8.8,0,0,1-.8-.8h0a.8.8,0,0,1,.8-.8H510.85A.8.8,0,0,1,511.645,368.794Z" fill="#fff"/>
              <path id="Trazado_633772" data-name="Trazado 633772" d="M514.3,368.662a.928.928,0,1,1-.928-.928.927.927,0,0,1,.928.928Z" fill="#fff"/>
            </g>
            <path id="Trazado_633773" data-name="Trazado 633773" d="M479.959,373.834v80.055h54.1Z" fill="#c6c6c5"/>
          </g>
          <g id="Grupo_948506" data-name="Grupo 948506">
            <rect id="Rectángulo_34824" data-name="Rectángulo 34824" width="42.624" height="30.292" rx="3" transform="translate(485.695 397.783)" fill="#583ae2"/>
            <path id="Rectángulo_34824_-_Contorno" data-name="Rectángulo 34824 - Contorno" d="M490.243,397.28h33.526a5.05,5.05,0,0,1,5.051,5.051v21.2a5.051,5.051,0,0,1-5.051,5.047H490.243a5.052,5.052,0,0,1-5.051-5.051h0v-21.2a5.051,5.051,0,0,1,5.051-5.051Zm33.526,30.292a4.049,4.049,0,0,0,4.045-4.045v-21.2a4.048,4.048,0,0,0-4.045-4.044H490.243a4.05,4.05,0,0,0-4.044,4.044v21.2a4.05,4.05,0,0,0,4.044,4.044Z" fill="#252425"/>
            <rect id="Rectángulo_34825" data-name="Rectángulo 34825" width="42.624" height="5.552" transform="translate(485.695 406.484)" fill="#252425"/>
            <rect id="Rectángulo_34826" data-name="Rectángulo 34826" width="23.816" height="1.087" transform="translate(489.305 415.561)" fill="#fff"/>
            <rect id="Rectángulo_34827" data-name="Rectángulo 34827" width="16.515" height="1.086" transform="translate(489.305 418.25)" fill="#fff"/>
            <rect id="Rectángulo_34828" data-name="Rectángulo 34828" width="28.243" height="1.087" transform="translate(489.305 420.991)" fill="#fff"/>
          </g>
          <g id="Grupo_948509" data-name="Grupo 948509">
            <path id="Trazado_633774" data-name="Trazado 633774" d="M548.6,433.258a17.1,17.1,0,1,1-17.1-17.1,17.1,17.1,0,0,1,17.1,17.1Z" fill="#bee7ed"/>
            <path id="Trazado_633774_-_Contorno" data-name="Trazado 633774 - Contorno" d="M531.5,415.659a17.542,17.542,0,1,1-6.851,1.383A17.542,17.542,0,0,1,531.5,415.659Zm0,34.191a16.593,16.593,0,1,0-16.593-16.593h0A16.613,16.613,0,0,0,531.5,449.851Z" fill="#252425"/>
            <g id="Grupo_948508" data-name="Grupo 948508">
              <g id="Grupo_948507" data-name="Grupo 948507">
                <path id="Trazado_633775" data-name="Trazado 633775" d="M538,430.159H525v-3.723a6.069,6.069,0,0,1,6.061-6.062h.876A6.068,6.068,0,0,1,538,426.436Zm-11.1-.657h9.2v-3.066a4.168,4.168,0,0,0-4.163-4.163h-.876a4.168,4.168,0,0,0-4.163,4.163Z" fill="#353c45"/>
                <path id="Trazado_633775_-_Contorno" data-name="Trazado 633775 - Contorno" d="M538.308,430.465H524.7v-4.031a6.375,6.375,0,0,1,6.368-6.368h.876a6.374,6.374,0,0,1,6.368,6.368Zm-13-.613h12.385v-3.418a5.759,5.759,0,0,0-5.754-5.755h-.876a5.762,5.762,0,0,0-5.754,5.755Zm11.1-.043h-9.816v-3.375a4.475,4.475,0,0,1,4.47-4.47h.876a4.474,4.474,0,0,1,4.47,4.47Zm-9.2-.614H535.8v-2.761a3.859,3.859,0,0,0-3.856-3.855h-.876a3.859,3.859,0,0,0-3.855,3.855Z" fill="#252425"/>
              </g>
              <path id="Rectángulo_34829" data-name="Rectángulo 34829" d="M526.549,429.378h9.906a3.429,3.429,0,0,1,3.429,3.429v9.908a3.429,3.429,0,0,1-3.429,3.429h-9.906a3.43,3.43,0,0,1-3.43-3.43v-9.906a3.43,3.43,0,0,1,3.43-3.43Z" fill="#00b0c2"/>
              <path id="Rectángulo_34829_-_Contorno" data-name="Rectángulo 34829 - Contorno" d="M524.586,429.071h13.832a1.774,1.774,0,0,1,1.773,1.773v13.833a1.775,1.775,0,0,1-1.773,1.773H524.585a1.777,1.777,0,0,1-1.773-1.773V430.845A1.776,1.776,0,0,1,524.586,429.071Zm13.832,16.766a1.16,1.16,0,0,0,1.159-1.159V430.844a1.161,1.161,0,0,0-1.159-1.155H524.586a1.162,1.162,0,0,0-1.156,1.156v13.832a1.162,1.162,0,0,0,1.159,1.159Z" fill="#252425"/>
              <path id="Trazado_633776" data-name="Trazado 633776" d="M533.27,438.091a6.828,6.828,0,0,0,5.115,1.11.224.224,0,0,1,.035,0v-7.082a1.153,1.153,0,0,0-1.153-1.153h-4.813a4.991,4.991,0,0,0,.686,7.026C533.183,438.022,533.226,438.057,533.27,438.091Z" fill="#fff" opacity="0.5" style="isolation: isolate"/>
              <path id="Trazado_633777" data-name="Trazado 633777" d="M536.476,445.034a10.7,10.7,0,0,1-6.533-1.468,8.691,8.691,0,0,1-3.791-5.539c-.489-2.278-.5-6.348,1.047-8.648h-2.617a1.468,1.468,0,0,0-1.467,1.466v13.836a1.469,1.469,0,0,0,1.467,1.468h13.832a1.468,1.468,0,0,0,1.467-1.468V444.3A12.641,12.641,0,0,1,536.476,445.034Z" fill="#c6c6c5"/>
              <path id="Trazado_633778" data-name="Trazado 633778" d="M533.06,436.068a1.558,1.558,0,1,0-2.055,1.477l-.535,3.465h2.065l-.571-3.453A1.56,1.56,0,0,0,533.06,436.068Z" fill="#005a62"/>
              <path id="Trazado_633778_-_Contorno" data-name="Trazado 633778 - Contorno" d="M531.5,434.2a1.865,1.865,0,0,1,.8,3.547l.59,3.565h-2.785l.553-3.582a1.865,1.865,0,0,1,.838-3.531Zm.67,6.5-.556-3.36.256-.079a1.252,1.252,0,1,0-.769-.01l.245.083-.52,3.366Z" fill="#252425"/>
            </g>
          </g>
          <g id="Grupo_948510" data-name="Grupo 948510">
            <rect id="Rectángulo_34830" data-name="Rectángulo 34830" width="8.362" height="5.438" transform="matrix(0.325, -0.946, 0.946, 0.325, 465.566, 428.325)" fill="#364359"/>
            <path id="Rectángulo_34830_-_Contorno" data-name="Rectángulo 34830 - Contorno" d="M464.269,428.958l3.382-9.835,7.073,2.432-3.382,9.835Zm4.65-7.244-2.056,5.977,3.215,1.106,2.056-5.977Z" fill="#252425"/>
            <path id="Trazado_633779" data-name="Trazado 633779" d="M493.388,406.055a16.349,16.349,0,1,1-10.145-20.776h0A16.349,16.349,0,0,1,493.388,406.055Z" fill="#8acfe4" opacity="0.5" style="isolation: isolate"/>
            <path id="Trazado_633780" data-name="Trazado 633780" d="M485.155,379.717a22.23,22.23,0,1,0,13.794,28.25h0A22.23,22.23,0,0,0,485.155,379.717ZM472.611,416.2a16.348,16.348,0,1,1,20.776-10.144A16.348,16.348,0,0,1,472.611,416.2Z" fill="#364359"/>
            <path id="Trazado_633780_-_Contorno" data-name="Trazado 633780 - Contorno" d="M477.925,377.483h0a23.3,23.3,0,1,1-7.042,1.1,23.305,23.305,0,0,1,7.042-1.1Zm0,44.471a21.238,21.238,0,1,0-6.9-1.158,21.239,21.239,0,0,0,6.9,1.158Zm0-38.589a17.4,17.4,0,1,1-5.261.819,17.4,17.4,0,0,1,5.261-.819Zm0,32.706a15.352,15.352,0,1,0-4.986-.837,15.352,15.352,0,0,0,4.986.837Z" fill="#252425"/>
            <path id="Trazado_633781" data-name="Trazado 633781" d="M463.336,459.789a1.844,1.844,0,0,1-2.342,1.146h0l-6.729-2.313a1.844,1.844,0,0,1-1.145-2.343h0l9.606-27.938a1.844,1.844,0,0,1,2.345-1.145h0l6.729,2.314a1.843,1.843,0,0,1,1.146,2.342v0Z" fill="#45bbcc"/>
            <path id="Trazado_633781_-_Contorno" data-name="Trazado 633781 - Contorno" d="M461.592,462.053a2.871,2.871,0,0,1-.932-.156l-6.729-2.314a2.864,2.864,0,0,1-1.778-3.639v0L461.759,428a2.867,2.867,0,0,1,2.709-1.934,2.785,2.785,0,0,1,.932.157l6.729,2.313a2.864,2.864,0,0,1,1.778,3.641h0L464.3,460.119A2.866,2.866,0,0,1,461.592,462.053Zm2.877-33.943a.825.825,0,0,0-.78.558l-9.61,27.939a.822.822,0,0,0,.51,1.046h0l6.729,2.314a.822.822,0,0,0,1.046-.5l0-.008,9.607-27.937a.823.823,0,0,0-.51-1.047h0l-6.73-2.314a.793.793,0,0,0-.264-.05Z" fill="#252425"/>
            <path id="Trazado_633782" data-name="Trazado 633782" d="M458.606,449.65a67.867,67.867,0,0,1,3.245-10.092c.7-1.889,1.334-3.812,2.176-5.645a16.489,16.489,0,0,1,3.924-5.73l-2.882-.991a1.844,1.844,0,0,0-2.344,1.144h0l-9.606,27.938a1.845,1.845,0,0,0,1.144,2.344h0l6.433,2.213A13.956,13.956,0,0,1,458.606,449.65Z" fill="#c6c6c5"/>
            <path id="Trazado_633783" data-name="Trazado 633783" d="M489.082,397.75a4.72,4.72,0,1,1-2.929-6,4.72,4.72,0,0,1,2.929,6Z" fill="#fff"/>
            <path id="Trazado_633783_-_Contorno" data-name="Trazado 633783 - Contorno" d="M484.619,401.527a5.314,5.314,0,1,1,5.022-3.585A5.312,5.312,0,0,1,484.619,401.527Zm0-9.442a4.132,4.132,0,1,0,1.343.226,4.132,4.132,0,0,0-1.343-.226Z" fill="#252425"/>
          </g>
        </g>
      </g>
      <rect id="Rectángulo_34831-2" data-name="Rectángulo 34831" width="105" height="110" transform="translate(448.048 359.429)" fill="none"/>
    </g>
    <path id="Trazado_635170" data-name="Trazado 635170" d="M-80.539-.469a6.571,6.571,0,0,1-3.094.656,4.989,4.989,0,0,1-3.828-1.539A5.679,5.679,0,0,1-88.9-5.391a5.952,5.952,0,0,1,1.617-4.344,5.489,5.489,0,0,1,4.1-1.656,6.576,6.576,0,0,1,2.641.461v1.4A5.355,5.355,0,0,0-83.2-10.2a4.076,4.076,0,0,0-3.129,1.289,4.856,4.856,0,0,0-1.2,3.445A4.621,4.621,0,0,0-86.4-2.207,3.815,3.815,0,0,0-83.461-.992a5.518,5.518,0,0,0,2.922-.75Zm5.453.656A3.711,3.711,0,0,1-77.918-.934a4.153,4.153,0,0,1-1.059-2.973,4.326,4.326,0,0,1,1.1-3.148A3.96,3.96,0,0,1-74.9-8.187a3.588,3.588,0,0,1,2.793,1.1,4.368,4.368,0,0,1,1,3.055A4.3,4.3,0,0,1-72.184-.965,3.791,3.791,0,0,1-75.086.188Zm.094-7.3a2.437,2.437,0,0,0-1.953.84,3.449,3.449,0,0,0-.719,2.316,3.262,3.262,0,0,0,.727,2.242,2.469,2.469,0,0,0,1.945.82,2.342,2.342,0,0,0,1.91-.8,3.492,3.492,0,0,0,.668-2.289A3.552,3.552,0,0,0-73.082-6.3,2.332,2.332,0,0,0-74.992-7.109ZM-62.414,0H-63.7V-4.562q0-2.547-1.859-2.547a2.017,2.017,0,0,0-1.59.723,2.679,2.679,0,0,0-.629,1.824V0h-1.281V-8h1.281v1.328h.031a2.887,2.887,0,0,1,2.625-1.516,2.448,2.448,0,0,1,2.008.848,3.776,3.776,0,0,1,.7,2.449Zm6.125-.078a2.47,2.47,0,0,1-1.2.25q-2.1,0-2.1-2.344V-6.906h-1.375V-8h1.375V-9.953l1.281-.414V-8h2.016v1.094H-58.3V-2.4a1.869,1.869,0,0,0,.273,1.148,1.091,1.091,0,0,0,.906.344,1.347,1.347,0,0,0,.836-.266Zm8.141-3.6H-53.8a2.992,2.992,0,0,0,.719,2.063,2.478,2.478,0,0,0,1.891.727A3.931,3.931,0,0,0-48.7-1.781v1.2a4.643,4.643,0,0,1-2.789.766A3.381,3.381,0,0,1-54.156-.9a4.461,4.461,0,0,1-.969-3.066,4.375,4.375,0,0,1,1.059-3.043,3.394,3.394,0,0,1,2.629-1.176,3.008,3.008,0,0,1,2.43,1.016,4.234,4.234,0,0,1,.859,2.82Zm-1.312-1.086A2.607,2.607,0,0,0-50-6.492a1.823,1.823,0,0,0-1.465-.617A2.07,2.07,0,0,0-53-6.461a2.943,2.943,0,0,0-.781,1.7ZM-39.57,0h-1.281V-4.562q0-2.547-1.859-2.547a2.017,2.017,0,0,0-1.59.723,2.679,2.679,0,0,0-.629,1.824V0h-1.281V-8h1.281v1.328h.031a2.887,2.887,0,0,1,2.625-1.516,2.448,2.448,0,0,1,2.008.848,3.776,3.776,0,0,1,.7,2.449ZM-31.7-.367a4.163,4.163,0,0,1-2.187.555A3.622,3.622,0,0,1-36.652-.926,4.035,4.035,0,0,1-37.7-3.812,4.435,4.435,0,0,1-36.57-6.988a3.963,3.963,0,0,1,3.023-1.2,4.209,4.209,0,0,1,1.859.391v1.313a3.258,3.258,0,0,0-1.906-.625,2.576,2.576,0,0,0-2.012.879,3.335,3.335,0,0,0-.785,2.309A3.176,3.176,0,0,0-35.652-1.7a2.545,2.545,0,0,0,1.98.813,3.211,3.211,0,0,0,1.969-.7Zm2.594-9.664a.812.812,0,0,1-.586-.234.791.791,0,0,1-.242-.594.8.8,0,0,1,.242-.6.8.8,0,0,1,.586-.238.827.827,0,0,1,.6.238.8.8,0,0,1,.246.6.792.792,0,0,1-.246.586A.82.82,0,0,1-29.109-10.031ZM-28.484,0h-1.281V-8h1.281Zm5.938.188A3.711,3.711,0,0,1-25.379-.934a4.153,4.153,0,0,1-1.059-2.973,4.326,4.326,0,0,1,1.1-3.148,3.96,3.96,0,0,1,2.977-1.133,3.588,3.588,0,0,1,2.793,1.1,4.368,4.368,0,0,1,1,3.055A4.3,4.3,0,0,1-19.645-.965,3.791,3.791,0,0,1-22.547.188Zm.094-7.3a2.437,2.437,0,0,0-1.953.84,3.449,3.449,0,0,0-.719,2.316A3.262,3.262,0,0,0-24.4-1.711a2.469,2.469,0,0,0,1.945.82,2.342,2.342,0,0,0,1.91-.8,3.492,3.492,0,0,0,.668-2.289A3.552,3.552,0,0,0-20.543-6.3,2.332,2.332,0,0,0-22.453-7.109Zm1.875-4.969-2.047,2.563h-.992l1.742-2.562ZM-9.875,0h-1.281V-4.562q0-2.547-1.859-2.547a2.017,2.017,0,0,0-1.59.723,2.679,2.679,0,0,0-.629,1.824V0h-1.281V-8h1.281v1.328h.031a2.887,2.887,0,0,1,2.625-1.516,2.448,2.448,0,0,1,2.008.848,3.776,3.776,0,0,1,.7,2.449Zm3.586-1.781-1.25,3.844h-.914l.914-3.844ZM6.82-3.68H1.172a2.992,2.992,0,0,0,.719,2.063,2.478,2.478,0,0,0,1.891.727,3.931,3.931,0,0,0,2.484-.891v1.2A4.643,4.643,0,0,1,3.477.188,3.381,3.381,0,0,1,.813-.9,4.461,4.461,0,0,1-.156-3.969,4.375,4.375,0,0,1,.9-7.012,3.394,3.394,0,0,1,3.531-8.187a3.008,3.008,0,0,1,2.43,1.016,4.234,4.234,0,0,1,.859,2.82ZM5.508-4.766a2.607,2.607,0,0,0-.535-1.727,1.823,1.823,0,0,0-1.465-.617,2.07,2.07,0,0,0-1.539.648,2.943,2.943,0,0,0-.781,1.7ZM12.93-6.7a1.567,1.567,0,0,0-.969-.258,1.635,1.635,0,0,0-1.371.773,3.576,3.576,0,0,0-.551,2.109V0H8.758V-8h1.281v1.648h.031a2.793,2.793,0,0,1,.836-1.316,1.906,1.906,0,0,1,1.258-.473,2.092,2.092,0,0,1,.766.109Zm5.563,0a1.567,1.567,0,0,0-.969-.258,1.635,1.635,0,0,0-1.371.773A3.576,3.576,0,0,0,15.6-4.078V0H14.32V-8H15.6v1.648h.031a2.793,2.793,0,0,1,.836-1.316,1.906,1.906,0,0,1,1.258-.473,2.092,2.092,0,0,1,.766.109ZM25.609,0H24.328V-1.25H24.3A2.682,2.682,0,0,1,21.836.188a2.63,2.63,0,0,1-1.871-.633,2.192,2.192,0,0,1-.676-1.68q0-2.242,2.641-2.609l2.4-.336q0-2.039-1.648-2.039a3.938,3.938,0,0,0-2.609.984V-7.437a4.958,4.958,0,0,1,2.719-.75q2.82,0,2.82,2.984ZM24.328-4.047l-1.93.266a3.133,3.133,0,0,0-1.344.441A1.273,1.273,0,0,0,20.6-2.219a1.221,1.221,0,0,0,.418.957,1.615,1.615,0,0,0,1.113.371,2.056,2.056,0,0,0,1.574-.668,2.387,2.387,0,0,0,.621-1.691ZM34.852,0H33.57V-1.359h-.031A2.958,2.958,0,0,1,30.789.188a2.988,2.988,0,0,1-2.41-1.074,4.407,4.407,0,0,1-.9-2.926,4.794,4.794,0,0,1,1-3.18,3.3,3.3,0,0,1,2.664-1.2,2.564,2.564,0,0,1,2.4,1.3h.031v-4.953h1.281ZM33.57-3.617V-4.8a2.289,2.289,0,0,0-.641-1.641A2.149,2.149,0,0,0,31.3-7.109a2.212,2.212,0,0,0-1.844.859,3.766,3.766,0,0,0-.672,2.375,3.387,3.387,0,0,0,.645,2.184,2.107,2.107,0,0,0,1.73.8A2.188,2.188,0,0,0,32.9-1.664,2.882,2.882,0,0,0,33.57-3.617ZM38.1-10.031a.812.812,0,0,1-.586-.234.791.791,0,0,1-.242-.594.8.8,0,0,1,.242-.6A.8.8,0,0,1,38.1-11.7a.827.827,0,0,1,.6.238.8.8,0,0,1,.246.6.792.792,0,0,1-.246.586A.82.82,0,0,1,38.1-10.031ZM38.727,0H37.445V-8h1.281Zm8.047-.367a4.163,4.163,0,0,1-2.187.555A3.622,3.622,0,0,1,41.824-.926a4.035,4.035,0,0,1-1.051-2.887,4.435,4.435,0,0,1,1.133-3.176,3.963,3.963,0,0,1,3.023-1.2,4.209,4.209,0,0,1,1.859.391v1.313a3.258,3.258,0,0,0-1.906-.625,2.576,2.576,0,0,0-2.012.879,3.335,3.335,0,0,0-.785,2.309A3.176,3.176,0,0,0,42.824-1.7a2.545,2.545,0,0,0,1.98.813,3.211,3.211,0,0,0,1.969-.7ZM54.438,0H53.156V-1.25h-.031A2.682,2.682,0,0,1,50.664.188a2.63,2.63,0,0,1-1.871-.633,2.192,2.192,0,0,1-.676-1.68q0-2.242,2.641-2.609l2.4-.336q0-2.039-1.648-2.039a3.938,3.938,0,0,0-2.609.984V-7.437a4.958,4.958,0,0,1,2.719-.75q2.82,0,2.82,2.984ZM53.156-4.047l-1.93.266a3.133,3.133,0,0,0-1.344.441,1.273,1.273,0,0,0-.453,1.121,1.221,1.221,0,0,0,.418.957,1.615,1.615,0,0,0,1.113.371,2.056,2.056,0,0,0,1.574-.668,2.387,2.387,0,0,0,.621-1.691ZM62.3-.367a4.163,4.163,0,0,1-2.187.555A3.622,3.622,0,0,1,57.355-.926,4.035,4.035,0,0,1,56.3-3.812a4.435,4.435,0,0,1,1.133-3.176,3.963,3.963,0,0,1,3.023-1.2A4.209,4.209,0,0,1,62.32-7.8v1.313a3.258,3.258,0,0,0-1.906-.625A2.576,2.576,0,0,0,58.4-6.23a3.335,3.335,0,0,0-.785,2.309A3.176,3.176,0,0,0,58.355-1.7a2.545,2.545,0,0,0,1.98.813,3.211,3.211,0,0,0,1.969-.7ZM64.9-10.031a.812.812,0,0,1-.586-.234.791.791,0,0,1-.242-.594.8.8,0,0,1,.242-.6A.8.8,0,0,1,64.9-11.7a.827.827,0,0,1,.6.238.8.8,0,0,1,.246.6.792.792,0,0,1-.246.586A.82.82,0,0,1,64.9-10.031ZM65.523,0H64.242V-8h1.281Zm5.938.188A3.711,3.711,0,0,1,68.629-.934,4.153,4.153,0,0,1,67.57-3.906a4.326,4.326,0,0,1,1.1-3.148,3.96,3.96,0,0,1,2.977-1.133,3.588,3.588,0,0,1,2.793,1.1,4.368,4.368,0,0,1,1,3.055A4.3,4.3,0,0,1,74.363-.965,3.791,3.791,0,0,1,71.461.188Zm.094-7.3a2.437,2.437,0,0,0-1.953.84,3.449,3.449,0,0,0-.719,2.316,3.262,3.262,0,0,0,.727,2.242,2.469,2.469,0,0,0,1.945.82,2.342,2.342,0,0,0,1.91-.8,3.492,3.492,0,0,0,.668-2.289A3.552,3.552,0,0,0,73.465-6.3,2.332,2.332,0,0,0,71.555-7.109Zm1.875-4.969L71.383-9.516h-.992l1.742-2.562ZM84.133,0H82.852V-4.562q0-2.547-1.859-2.547a2.017,2.017,0,0,0-1.59.723,2.679,2.679,0,0,0-.629,1.824V0H77.492V-8h1.281v1.328H78.8A2.887,2.887,0,0,1,81.43-8.187a2.448,2.448,0,0,1,2.008.848,3.776,3.776,0,0,1,.7,2.449Zm-128.3,11.2-3.68,9.281q-.984,2.484-2.766,2.484a2.931,2.931,0,0,1-.836-.1V21.716a2.375,2.375,0,0,0,.758.141A1.57,1.57,0,0,0-49.242,20.7l.641-1.516L-51.727,11.2H-50.3l2.164,6.156q.039.117.164.609h.047q.039-.187.156-.594L-45.5,11.2Zm9.93,1.3a1.567,1.567,0,0,0-.969-.258,1.635,1.635,0,0,0-1.371.773,3.576,3.576,0,0,0-.551,2.109V19.2h-1.281v-8h1.281v1.648h.031a2.794,2.794,0,0,1,.836-1.316,1.906,1.906,0,0,1,1.258-.473,2.092,2.092,0,0,1,.766.109Zm7.82,3.023H-32.07a2.992,2.992,0,0,0,.719,2.063,2.478,2.478,0,0,0,1.891.727,3.931,3.931,0,0,0,2.484-.891v1.2a4.643,4.643,0,0,1-2.789.766A3.381,3.381,0,0,1-32.43,18.3a4.461,4.461,0,0,1-.969-3.066,4.375,4.375,0,0,1,1.059-3.043,3.394,3.394,0,0,1,2.629-1.176,3.008,3.008,0,0,1,2.43,1.016,4.234,4.234,0,0,1,.859,2.82Zm-1.312-1.086a2.607,2.607,0,0,0-.535-1.727,1.823,1.823,0,0,0-1.465-.617,2.07,2.07,0,0,0-1.539.648,2.943,2.943,0,0,0-.781,1.7Zm8.7,4.4a4.163,4.163,0,0,1-2.187.555,3.622,3.622,0,0,1-2.762-1.113,4.035,4.035,0,0,1-1.051-2.887A4.435,4.435,0,0,1-23.9,12.212a3.963,3.963,0,0,1,3.023-1.2,4.209,4.209,0,0,1,1.859.391v1.313a3.258,3.258,0,0,0-1.906-.625,2.576,2.576,0,0,0-2.012.879,3.335,3.335,0,0,0-.785,2.309A3.176,3.176,0,0,0-22.98,17.5a2.545,2.545,0,0,0,1.98.813,3.211,3.211,0,0,0,1.969-.7Zm8.406.367h-1.281V17.934h-.031a2.631,2.631,0,0,1-2.469,1.453q-2.859,0-2.859-3.406V11.2h1.273v4.578q0,2.531,1.938,2.531a1.96,1.96,0,0,0,1.543-.691,2.645,2.645,0,0,0,.605-1.809V11.2h1.281Zm3.9-1.156h-.031V22.88H-8.039V11.2h1.281v1.406h.031a3.03,3.03,0,0,1,2.766-1.594,2.93,2.93,0,0,1,2.414,1.074A4.449,4.449,0,0,1-.68,14.966a4.959,4.959,0,0,1-.977,3.215,3.251,3.251,0,0,1-2.672,1.207A2.676,2.676,0,0,1-6.727,18.044Zm-.031-3.227v1.117a2.379,2.379,0,0,0,.645,1.684,2.14,2.14,0,0,0,1.637.691,2.145,2.145,0,0,0,1.824-.891,4.086,4.086,0,0,0,.66-2.477,3.225,3.225,0,0,0-.617-2.094,2.043,2.043,0,0,0-1.672-.758,2.27,2.27,0,0,0-1.8.777A2.854,2.854,0,0,0-6.758,14.817Zm14.555.7H2.148a2.992,2.992,0,0,0,.719,2.063,2.478,2.478,0,0,0,1.891.727,3.931,3.931,0,0,0,2.484-.891v1.2a4.643,4.643,0,0,1-2.789.766A3.381,3.381,0,0,1,1.789,18.3,4.461,4.461,0,0,1,.82,15.231a4.375,4.375,0,0,1,1.059-3.043,3.394,3.394,0,0,1,2.629-1.176,3.008,3.008,0,0,1,2.43,1.016,4.234,4.234,0,0,1,.859,2.82ZM6.484,14.434a2.607,2.607,0,0,0-.535-1.727,1.823,1.823,0,0,0-1.465-.617,2.07,2.07,0,0,0-1.539.648,2.943,2.943,0,0,0-.781,1.7ZM13.906,12.5a1.567,1.567,0,0,0-.969-.258,1.635,1.635,0,0,0-1.371.773,3.576,3.576,0,0,0-.551,2.109V19.2H9.734v-8h1.281v1.648h.031a2.793,2.793,0,0,1,.836-1.316,1.906,1.906,0,0,1,1.258-.473,2.092,2.092,0,0,1,.766.109Zm7.117,6.7H19.742V17.95h-.031a2.682,2.682,0,0,1-2.461,1.438,2.63,2.63,0,0,1-1.871-.633,2.192,2.192,0,0,1-.676-1.68q0-2.242,2.641-2.609l2.4-.336q0-2.039-1.648-2.039a3.938,3.938,0,0,0-2.609.984V11.763a4.958,4.958,0,0,1,2.719-.75q2.82,0,2.82,2.984Zm-1.281-4.047-1.93.266a3.133,3.133,0,0,0-1.344.441,1.273,1.273,0,0,0-.453,1.121,1.221,1.221,0,0,0,.418.957,1.615,1.615,0,0,0,1.113.371,2.056,2.056,0,0,0,1.574-.668,2.387,2.387,0,0,0,.621-1.691Zm9.148,3.68a4.163,4.163,0,0,1-2.187.555,3.622,3.622,0,0,1-2.762-1.113,4.035,4.035,0,0,1-1.051-2.887,4.435,4.435,0,0,1,1.133-3.176,3.963,3.963,0,0,1,3.023-1.2,4.209,4.209,0,0,1,1.859.391v1.313A3.258,3.258,0,0,0,27,12.091a2.576,2.576,0,0,0-2.012.879,3.335,3.335,0,0,0-.785,2.309,3.176,3.176,0,0,0,.738,2.219,2.545,2.545,0,0,0,1.98.813,3.211,3.211,0,0,0,1.969-.7Zm2.594-9.664a.812.812,0,0,1-.586-.234.791.791,0,0,1-.242-.594.821.821,0,0,1,.828-.836.827.827,0,0,1,.6.238.835.835,0,0,1,0,1.184A.82.82,0,0,1,31.484,9.169ZM32.109,19.2H30.828v-8h1.281Zm5.938.188a3.711,3.711,0,0,1-2.832-1.121,4.153,4.153,0,0,1-1.059-2.973,4.326,4.326,0,0,1,1.1-3.148,3.96,3.96,0,0,1,2.977-1.133,3.588,3.588,0,0,1,2.793,1.1,4.368,4.368,0,0,1,1,3.055,4.3,4.3,0,0,1-1.082,3.066A3.791,3.791,0,0,1,38.047,19.388Zm.094-7.3a2.437,2.437,0,0,0-1.953.84,3.449,3.449,0,0,0-.719,2.316,3.262,3.262,0,0,0,.727,2.242,2.469,2.469,0,0,0,1.945.82,2.342,2.342,0,0,0,1.91-.8,3.492,3.492,0,0,0,.668-2.289,3.552,3.552,0,0,0-.668-2.312A2.332,2.332,0,0,0,38.141,12.091Zm1.875-4.969L37.969,9.684h-.992l1.742-2.562ZM50.719,19.2H49.438V14.638q0-2.547-1.859-2.547a2.017,2.017,0,0,0-1.59.723,2.679,2.679,0,0,0-.629,1.824V19.2H44.078v-8h1.281v1.328h.031a2.887,2.887,0,0,1,2.625-1.516,2.448,2.448,0,0,1,2.008.848,3.776,3.776,0,0,1,.7,2.449Z" transform="translate(806.807 501.462)"/>
    <g id="Grupo_948513-2" data-name="Grupo 948513">
      <rect id="Rectángulo_34831-3" data-name="Rectángulo 34831" width="105" height="110" transform="translate(749.035 359.429)" fill="none"/>
      <g id="recuperacion" transform="translate(747.5 361.647)">
        <circle id="Elipse_5422" data-name="Elipse 5422" cx="46" cy="46" r="46" transform="translate(8.035 8.034)" fill="#adc4e6"/>
        <path id="Trazado_634293" data-name="Trazado 634293" d="M60.2,27,55,35.673H65.407Z" transform="translate(38.929 18.363)" fill="#526273"/>
        <path id="Trazado_634294" data-name="Trazado 634294" d="M15.376,59.234c-3.332-1.044-4.439-2.151-5.483-5.483a.346.346,0,0,0-.659,0C8.19,57.083,7.083,58.19,3.751,59.234a.346.346,0,0,0,0,.659c3.332,1.044,4.439,2.151,5.483,5.483a.346.346,0,0,0,.659,0c1.044-3.332,2.151-4.439,5.483-5.483A.346.346,0,0,0,15.376,59.234Z" transform="translate(1.109 37.834)" fill="#ffecb3"/>
        <path id="Trazado_634295" data-name="Trazado 634295" d="M65.376,9.234c-3.332-1.044-4.439-2.151-5.483-5.483a.346.346,0,0,0-.659,0C58.19,7.083,57.083,8.19,53.751,9.234a.346.346,0,0,0,0,.659c3.332,1.044,4.439,2.151,5.483,5.483a.346.346,0,0,0,.659,0c1.044-3.332,2.151-4.439,5.483-5.483a.346.346,0,0,0,0-.659Z" transform="translate(37.834 1.109)" fill="#ffecb3"/>
        <circle id="Elipse_5423" data-name="Elipse 5423" cx="32" cy="32" r="32" transform="translate(22.035 22.034)" fill="#eaeaea"/>
        <path id="Trazado_634296" data-name="Trazado 634296" d="M59.159,31.407H48.752V21H31.407V31.407H21V48.752H31.407V59.159H48.752V48.752H59.159Z" transform="translate(13.956 13.956)" fill="#ff8088"/>
        <path id="Trazado_634297" data-name="Trazado 634297" d="M21.735,51.221h8.673v8.673a1.734,1.734,0,0,0,1.735,1.735H49.487a1.734,1.734,0,0,0,1.735-1.735V51.221h8.673a1.734,1.734,0,0,0,1.735-1.735V32.142a1.734,1.734,0,0,0-1.735-1.735H51.221V21.735A1.734,1.734,0,0,0,49.487,20H32.142a1.734,1.734,0,0,0-1.735,1.735v8.673H21.735A1.734,1.734,0,0,0,20,32.142V49.487A1.734,1.734,0,0,0,21.735,51.221Zm1.735-17.345h8.673a1.734,1.734,0,0,0,1.735-1.735V23.469H47.752v8.673a1.734,1.734,0,0,0,1.735,1.735h8.673V47.752H49.487a1.734,1.734,0,0,0-1.735,1.735v8.673H33.876V49.487a1.734,1.734,0,0,0-1.735-1.735H23.469Z" transform="translate(13.221 13.221)"/>
        <path id="Trazado_634298" data-name="Trazado 634298" d="M13,45.956A32.956,32.956,0,1,0,45.956,13,32.992,32.992,0,0,0,13,45.956ZM45.956,16.469A29.487,29.487,0,1,1,16.469,45.956,29.52,29.52,0,0,1,45.956,16.469Z" transform="translate(8.08 8.08)"/>
        <path id="Trazado_634299" data-name="Trazado 634299" d="M35.282,5.178l-.4,3.445A43.4,43.4,0,0,1,61.17,21.68l2.5-2.4a46.856,46.856,0,0,0-28.39-14.1Z" transform="translate(24.154 2.334)"/>
        <path id="Trazado_634300" data-name="Trazado 634300" d="M34.563,5.035c-1.193-.047-2.407-.047-3.6,0L31.094,8.5c1.107-.04,2.231-.04,3.337,0Z" transform="translate(21.273 2.203)"/>
        <path id="Trazado_634301" data-name="Trazado 634301" d="M8.469,51.7A43.32,43.32,0,0,1,46.826,8.623l-.4-3.445a46.836,46.836,0,0,0,0,93.046l.4-3.445A43.32,43.32,0,0,1,8.469,51.7Z" transform="translate(2.204 2.334)"/>
        <path id="Trazado_634302" data-name="Trazado 634302" d="M31.094,56.982l-.132,3.466c.6.024,1.2.035,1.8.035s1.2-.01,1.8-.035l-.132-3.466c-1.107.042-2.231.042-3.337,0Z" transform="translate(21.273 40.384)"/>
        <path id="Trazado_634303" data-name="Trazado 634303" d="M76.465,26.817a1.8,1.8,0,0,0-2.975,0l-5.2,8.673a1.734,1.734,0,0,0,1.488,2.628h3.387A43.284,43.284,0,0,1,34.885,79.461l.4,3.445a46.778,46.778,0,0,0,41.39-44.788h3.509a1.734,1.734,0,0,0,1.486-2.628Zm-3.627,7.831,2.14-3.568,2.14,3.568Z" transform="translate(24.154 17.653)"/>
        <path id="Trazado_634304" data-name="Trazado 634304" d="M18.072,59c-4.028-1.114-4.616-1.7-5.727-5.729a1.735,1.735,0,0,0-3.344,0C7.889,57.3,7.3,57.887,3.273,59a1.735,1.735,0,0,0,0,3.344C7.3,63.458,7.889,64.044,9,68.074a1.735,1.735,0,0,0,3.344,0c1.112-4.028,1.7-4.616,5.727-5.729a1.735,1.735,0,0,0,0-3.344Zm-7.4,3.923a6.83,6.83,0,0,0-2.251-2.251,6.83,6.83,0,0,0,2.251-2.251,6.83,6.83,0,0,0,2.251,2.251,6.83,6.83,0,0,0-2.251,2.251Z" transform="translate(0 36.725)"/>
        <path id="Trazado_634305" data-name="Trazado 634305" d="M68.072,9c-4.027-1.114-4.616-1.7-5.727-5.729a1.735,1.735,0,0,0-3.344,0C57.889,7.3,57.3,7.887,53.273,9a1.735,1.735,0,0,0,0,3.344c4.028,1.114,4.616,1.7,5.727,5.729a1.735,1.735,0,0,0,3.344,0c1.112-4.028,1.7-4.616,5.727-5.729a1.735,1.735,0,0,0,0-3.344Zm-7.4,3.923a6.83,6.83,0,0,0-2.251-2.251,6.83,6.83,0,0,0,2.251-2.251,6.83,6.83,0,0,0,2.251,2.251A6.83,6.83,0,0,0,60.673,12.924Z" transform="translate(36.725)"/>
      </g>
    </g>
    <path id="Trazado_635171" data-name="Trazado 635171" d="M-58.875,0h-1.453l-1.187-3.141h-4.75L-67.383,0h-1.461l4.3-11.2h1.359Zm-3.07-4.32L-63.7-9.094a4.571,4.571,0,0,1-.172-.75h-.031a4.184,4.184,0,0,1-.18.75L-65.828-4.32Zm10,3.953a4.163,4.163,0,0,1-2.187.555A3.622,3.622,0,0,1-56.895-.926a4.035,4.035,0,0,1-1.051-2.887,4.435,4.435,0,0,1,1.133-3.176,3.963,3.963,0,0,1,3.023-1.2A4.209,4.209,0,0,1-51.93-7.8v1.313a3.258,3.258,0,0,0-1.906-.625,2.576,2.576,0,0,0-2.012.879,3.335,3.335,0,0,0-.785,2.309A3.176,3.176,0,0,0-55.895-1.7a2.545,2.545,0,0,0,1.98.813,3.211,3.211,0,0,0,1.969-.7Zm5.648.289a2.47,2.47,0,0,1-1.2.25q-2.1,0-2.1-2.344V-6.906h-1.375V-8h1.375V-9.953l1.281-.414V-8H-46.3v1.094h-2.016V-2.4a1.869,1.869,0,0,0,.273,1.148,1.091,1.091,0,0,0,.906.344,1.347,1.347,0,0,0,.836-.266Zm2.367-9.953a.812.812,0,0,1-.586-.234.791.791,0,0,1-.242-.594.8.8,0,0,1,.242-.6.8.8,0,0,1,.586-.238.827.827,0,0,1,.6.238.8.8,0,0,1,.246.6.792.792,0,0,1-.246.586A.82.82,0,0,1-43.93-10.031ZM-43.3,0h-1.281V-8H-43.3Zm8.883-8-3.187,8h-1.258L-41.9-8h1.406l2.031,5.813A5.217,5.217,0,0,1-38.18-1.07h.031a5.283,5.283,0,0,1,.25-1.086L-35.773-8Zm2.031-2.031a.812.812,0,0,1-.586-.234.791.791,0,0,1-.242-.594.8.8,0,0,1,.242-.6.8.8,0,0,1,.586-.238.827.827,0,0,1,.6.238.8.8,0,0,1,.246.6.792.792,0,0,1-.246.586A.82.82,0,0,1-32.391-10.031ZM-31.766,0h-1.281V-8h1.281Zm9.422,0h-1.281V-1.359h-.031A2.958,2.958,0,0,1-26.406.188a2.988,2.988,0,0,1-2.41-1.074,4.407,4.407,0,0,1-.9-2.926,4.794,4.794,0,0,1,1-3.18,3.3,3.3,0,0,1,2.664-1.2,2.564,2.564,0,0,1,2.4,1.3h.031v-4.953h1.281Zm-1.281-3.617V-4.8a2.289,2.289,0,0,0-.641-1.641,2.149,2.149,0,0,0-1.625-.672,2.212,2.212,0,0,0-1.844.859,3.766,3.766,0,0,0-.672,2.375,3.387,3.387,0,0,0,.645,2.184,2.107,2.107,0,0,0,1.73.8,2.188,2.188,0,0,0,1.738-.773A2.882,2.882,0,0,0-23.625-3.617ZM-14.023,0H-15.3V-1.25h-.031A2.682,2.682,0,0,1-17.8.188a2.63,2.63,0,0,1-1.871-.633,2.192,2.192,0,0,1-.676-1.68q0-2.242,2.641-2.609l2.4-.336q0-2.039-1.648-2.039a3.938,3.938,0,0,0-2.609.984V-7.437a4.958,4.958,0,0,1,2.719-.75q2.82,0,2.82,2.984ZM-15.3-4.047l-1.93.266a3.133,3.133,0,0,0-1.344.441,1.273,1.273,0,0,0-.453,1.121,1.221,1.221,0,0,0,.418.957A1.615,1.615,0,0,0-17.5-.891a2.056,2.056,0,0,0,1.574-.668A2.387,2.387,0,0,0-15.3-3.25ZM-4.781,0H-6.062V-1.359h-.031A2.958,2.958,0,0,1-8.844.188a2.988,2.988,0,0,1-2.41-1.074,4.407,4.407,0,0,1-.9-2.926,4.794,4.794,0,0,1,1-3.18,3.3,3.3,0,0,1,2.664-1.2,2.564,2.564,0,0,1,2.4,1.3h.031v-4.953h1.281ZM-6.062-3.617V-4.8A2.289,2.289,0,0,0-6.7-6.437a2.149,2.149,0,0,0-1.625-.672,2.212,2.212,0,0,0-1.844.859,3.766,3.766,0,0,0-.672,2.375A3.387,3.387,0,0,0-10.2-1.691a2.107,2.107,0,0,0,1.73.8A2.188,2.188,0,0,0-6.73-1.664,2.882,2.882,0,0,0-6.062-3.617Zm9.57,2.461H3.477V3.68H2.2V-8H3.477v1.406h.031A3.03,3.03,0,0,1,6.273-8.187,2.93,2.93,0,0,1,8.688-7.113a4.449,4.449,0,0,1,.867,2.879A4.959,4.959,0,0,1,8.578-1.02,3.251,3.251,0,0,1,5.906.188,2.676,2.676,0,0,1,3.508-1.156ZM3.477-4.383v1.117a2.379,2.379,0,0,0,.645,1.684,2.14,2.14,0,0,0,1.637.691,2.145,2.145,0,0,0,1.824-.891,4.086,4.086,0,0,0,.66-2.477,3.225,3.225,0,0,0-.617-2.094,2.043,2.043,0,0,0-1.672-.758,2.27,2.27,0,0,0-1.8.777A2.854,2.854,0,0,0,3.477-4.383ZM14.945.188A3.711,3.711,0,0,1,12.113-.934a4.153,4.153,0,0,1-1.059-2.973,4.326,4.326,0,0,1,1.1-3.148,3.96,3.96,0,0,1,2.977-1.133,3.588,3.588,0,0,1,2.793,1.1,4.368,4.368,0,0,1,1,3.055A4.3,4.3,0,0,1,17.848-.965,3.791,3.791,0,0,1,14.945.188Zm.094-7.3a2.437,2.437,0,0,0-1.953.84,3.449,3.449,0,0,0-.719,2.316,3.262,3.262,0,0,0,.727,2.242,2.469,2.469,0,0,0,1.945.82,2.342,2.342,0,0,0,1.91-.8,3.492,3.492,0,0,0,.668-2.289A3.552,3.552,0,0,0,16.949-6.3,2.332,2.332,0,0,0,15.039-7.109Zm5.453,6.82V-1.664a3.792,3.792,0,0,0,2.3.773q1.688,0,1.688-1.125a.976.976,0,0,0-.145-.543,1.44,1.44,0,0,0-.391-.395,3.007,3.007,0,0,0-.578-.309q-.332-.137-.715-.285a9.207,9.207,0,0,1-.934-.426,2.82,2.82,0,0,1-.672-.484,1.8,1.8,0,0,1-.406-.613,2.17,2.17,0,0,1-.137-.8,1.912,1.912,0,0,1,.258-1,2.286,2.286,0,0,1,.688-.727,3.206,3.206,0,0,1,.98-.441,4.349,4.349,0,0,1,1.137-.148,4.59,4.59,0,0,1,1.859.359v1.3A3.624,3.624,0,0,0,23.4-7.109a2.374,2.374,0,0,0-.648.082,1.587,1.587,0,0,0-.5.23,1.065,1.065,0,0,0-.32.355.936.936,0,0,0-.113.457,1.1,1.1,0,0,0,.113.523,1.152,1.152,0,0,0,.332.375,2.538,2.538,0,0,0,.531.3q.313.133.711.289a9.9,9.9,0,0,1,.953.418,3.269,3.269,0,0,1,.719.484,1.893,1.893,0,0,1,.457.621,2,2,0,0,1,.16.836,1.971,1.971,0,0,1-.262,1.031,2.243,2.243,0,0,1-.7.727,3.2,3.2,0,0,1-1.008.43,4.976,4.976,0,0,1-1.2.141A4.539,4.539,0,0,1,20.492-.289Zm10.984.211a2.47,2.47,0,0,1-1.2.25q-2.1,0-2.1-2.344V-6.906H26.8V-8H28.18V-9.953l1.281-.414V-8h2.016v1.094H29.461V-2.4a1.869,1.869,0,0,0,.273,1.148,1.091,1.091,0,0,0,.906.344,1.347,1.347,0,0,0,.836-.266Zm8.141-3.6H33.969a2.992,2.992,0,0,0,.719,2.063,2.478,2.478,0,0,0,1.891.727,3.931,3.931,0,0,0,2.484-.891v1.2a4.643,4.643,0,0,1-2.789.766A3.381,3.381,0,0,1,33.609-.9a4.461,4.461,0,0,1-.969-3.066A4.375,4.375,0,0,1,33.7-7.012a3.394,3.394,0,0,1,2.629-1.176,3.008,3.008,0,0,1,2.43,1.016,4.234,4.234,0,0,1,.859,2.82ZM38.3-4.766a2.607,2.607,0,0,0-.535-1.727A1.823,1.823,0,0,0,36.3-7.109a2.07,2.07,0,0,0-1.539.648,2.943,2.943,0,0,0-.781,1.7ZM45.727-6.7a1.567,1.567,0,0,0-.969-.258,1.635,1.635,0,0,0-1.371.773,3.576,3.576,0,0,0-.551,2.109V0H41.555V-8h1.281v1.648h.031A2.794,2.794,0,0,1,43.7-7.668a1.906,1.906,0,0,1,1.258-.473,2.092,2.092,0,0,1,.766.109Zm2.047-3.328a.812.812,0,0,1-.586-.234.791.791,0,0,1-.242-.594.8.8,0,0,1,.242-.6.8.8,0,0,1,.586-.238.827.827,0,0,1,.6.238.8.8,0,0,1,.246.6.792.792,0,0,1-.246.586A.82.82,0,0,1,47.773-10.031ZM48.4,0H47.117V-8H48.4Zm5.938.188A3.711,3.711,0,0,1,51.5-.934a4.153,4.153,0,0,1-1.059-2.973,4.326,4.326,0,0,1,1.1-3.148,3.96,3.96,0,0,1,2.977-1.133,3.588,3.588,0,0,1,2.793,1.1,4.368,4.368,0,0,1,1,3.055A4.3,4.3,0,0,1,57.238-.965,3.791,3.791,0,0,1,54.336.188Zm.094-7.3a2.437,2.437,0,0,0-1.953.84,3.449,3.449,0,0,0-.719,2.316,3.262,3.262,0,0,0,.727,2.242,2.469,2.469,0,0,0,1.945.82,2.342,2.342,0,0,0,1.91-.8,3.492,3.492,0,0,0,.668-2.289A3.552,3.552,0,0,0,56.34-6.3,2.332,2.332,0,0,0,54.43-7.109ZM64.539-6.7a1.567,1.567,0,0,0-.969-.258,1.635,1.635,0,0,0-1.371.773,3.576,3.576,0,0,0-.551,2.109V0H60.367V-8h1.281v1.648h.031a2.794,2.794,0,0,1,.836-1.316,1.906,1.906,0,0,1,1.258-.473,2.092,2.092,0,0,1,.766.109ZM-33.59,19.2h-1.281V17.95H-34.9a2.682,2.682,0,0,1-2.461,1.438,2.63,2.63,0,0,1-1.871-.633,2.192,2.192,0,0,1-.676-1.68q0-2.242,2.641-2.609l2.4-.336q0-2.039-1.648-2.039a3.938,3.938,0,0,0-2.609.984V11.763a4.958,4.958,0,0,1,2.719-.75q2.82,0,2.82,2.984Zm-1.281-4.047-1.93.266a3.133,3.133,0,0,0-1.344.441,1.273,1.273,0,0,0-.453,1.121,1.221,1.221,0,0,0,.418.957,1.615,1.615,0,0,0,1.113.371,2.056,2.056,0,0,0,1.574-.668,2.387,2.387,0,0,0,.621-1.691Zm4.977,4.047h-1.281V7.356h1.281Zm7.633-10.031a.812.812,0,0,1-.586-.234.791.791,0,0,1-.242-.594.8.8,0,0,1,.242-.6.8.8,0,0,1,.586-.238.827.827,0,0,1,.6.238.8.8,0,0,1,.246.6.792.792,0,0,1-.246.586A.82.82,0,0,1-22.262,9.169Zm.625,10.031h-1.281v-8h1.281Zm9.234,0h-1.281V14.638q0-2.547-1.859-2.547a2.017,2.017,0,0,0-1.59.723,2.679,2.679,0,0,0-.629,1.824V19.2h-1.281v-8h1.281v1.328h.031a2.887,2.887,0,0,1,2.625-1.516,2.448,2.448,0,0,1,2.008.848,3.776,3.776,0,0,1,.7,2.449Zm7.867-.367a4.163,4.163,0,0,1-2.187.555,3.622,3.622,0,0,1-2.762-1.113,4.035,4.035,0,0,1-1.051-2.887A4.435,4.435,0,0,1-9.4,12.212a3.963,3.963,0,0,1,3.023-1.2A4.209,4.209,0,0,1-4.52,11.4v1.313a3.258,3.258,0,0,0-1.906-.625,2.576,2.576,0,0,0-2.012.879,3.335,3.335,0,0,0-.785,2.309A3.176,3.176,0,0,0-8.484,17.5a2.545,2.545,0,0,0,1.98.813,3.211,3.211,0,0,0,1.969-.7Zm2.594-9.664a.812.812,0,0,1-.586-.234.791.791,0,0,1-.242-.594.8.8,0,0,1,.242-.6A.8.8,0,0,1-1.941,7.5a.827.827,0,0,1,.6.238.8.8,0,0,1,.246.6.792.792,0,0,1-.246.586A.82.82,0,0,1-1.941,9.169ZM-1.316,19.2H-2.6v-8h1.281Zm9.422,0H6.824V17.841H6.793a2.958,2.958,0,0,1-2.75,1.547,2.988,2.988,0,0,1-2.41-1.074,4.407,4.407,0,0,1-.9-2.926,4.794,4.794,0,0,1,1-3.18,3.3,3.3,0,0,1,2.664-1.2,2.564,2.564,0,0,1,2.4,1.3h.031V7.356H8.105ZM6.824,15.583V14.4a2.289,2.289,0,0,0-.641-1.641,2.149,2.149,0,0,0-1.625-.672,2.212,2.212,0,0,0-1.844.859,3.766,3.766,0,0,0-.672,2.375,3.387,3.387,0,0,0,.645,2.184,2.107,2.107,0,0,0,1.73.8,2.188,2.188,0,0,0,1.738-.773A2.882,2.882,0,0,0,6.824,15.583Zm10.3-.062H11.48a2.992,2.992,0,0,0,.719,2.063,2.478,2.478,0,0,0,1.891.727,3.931,3.931,0,0,0,2.484-.891v1.2a4.643,4.643,0,0,1-2.789.766,3.381,3.381,0,0,1-2.664-1.09,4.461,4.461,0,0,1-.969-3.066,4.375,4.375,0,0,1,1.059-3.043,3.394,3.394,0,0,1,2.629-1.176,3.008,3.008,0,0,1,2.43,1.016,4.234,4.234,0,0,1,.859,2.82Zm-1.312-1.086a2.607,2.607,0,0,0-.535-1.727,1.823,1.823,0,0,0-1.465-.617,2.07,2.07,0,0,0-1.539.648,2.943,2.943,0,0,0-.781,1.7ZM25.707,19.2H24.426V14.638q0-2.547-1.859-2.547a2.017,2.017,0,0,0-1.59.723,2.679,2.679,0,0,0-.629,1.824V19.2H19.066v-8h1.281v1.328h.031A2.887,2.887,0,0,1,23,11.013a2.448,2.448,0,0,1,2.008.848,3.776,3.776,0,0,1,.7,2.449Zm6.125-.078a2.47,2.47,0,0,1-1.2.25q-2.1,0-2.1-2.344V12.294H27.16V11.2h1.375V9.247l1.281-.414V11.2h2.016v1.094H29.816V16.8a1.869,1.869,0,0,0,.273,1.148,1.091,1.091,0,0,0,.906.344,1.347,1.347,0,0,0,.836-.266Zm8.141-3.6H34.324a2.992,2.992,0,0,0,.719,2.063,2.478,2.478,0,0,0,1.891.727,3.931,3.931,0,0,0,2.484-.891v1.2a4.643,4.643,0,0,1-2.789.766,3.381,3.381,0,0,1-2.664-1.09A4.461,4.461,0,0,1,33,15.231a4.375,4.375,0,0,1,1.059-3.043,3.394,3.394,0,0,1,2.629-1.176,3.008,3.008,0,0,1,2.43,1.016,4.234,4.234,0,0,1,.859,2.82ZM38.66,14.434a2.607,2.607,0,0,0-.535-1.727,1.823,1.823,0,0,0-1.465-.617,2.07,2.07,0,0,0-1.539.648,2.943,2.943,0,0,0-.781,1.7Z" transform="translate(1155.318 501.462)" fill="#fff"/>
    <g id="Grupo_948513-3" data-name="Grupo 948513">
      <rect id="Rectángulo_34831-4" data-name="Rectángulo 34831" width="105" height="110" transform="translate(1097.546 359.429)" fill="none"/>
      <g id="work_time" data-name="work time" transform="translate(1099 363.682)">
        <circle id="Elipse_5424" data-name="Elipse 5424" cx="29" cy="29" r="29" transform="translate(40 40)" fill="#e3f5f8"/>
        <path id="Trazado_634306" data-name="Trazado 634306" d="M73.033,54.4a29.4,29.4,0,0,1-29.4,29.4c-.539,0-1.094-.016-1.633-.049a29.4,29.4,0,0,0,0-58.7c.539-.033,1.094-.049,1.633-.049A29.4,29.4,0,0,1,73.033,54.4Z" transform="translate(25.333 14.567)" fill="#bee7ed"/>
        <path id="Trazado_634307" data-name="Trazado 634307" d="M71.133,19.333l-3.234.8,1.715,2.858-4.622,4.622L62.134,25.9l-.8,3.234H54.8L54,25.9l-2.858,1.715-4.622-4.622,1.715-2.858L45,19.333V12.8l3.234-.8L46.519,9.141l4.622-4.622L54,6.234,54.8,3h6.533l.8,3.234,2.858-1.715,4.622,4.622L67.9,12l3.234.8Z" transform="translate(27.233 0.633)" fill="#c4baf5"/>
        <circle id="Elipse_5425" data-name="Elipse 5425" cx="5" cy="5" r="5" transform="translate(80 12)" fill="#ffde55"/>
        <path id="Trazado_634308" data-name="Trazado 634308" d="M51.085,36.908a21.374,21.374,0,0,1-1.6,3.887l2.319,3.25,2.058,2.891-6.925,6.925L44.046,51.8,40.8,49.485a21.373,21.373,0,0,1-3.887,1.6l-1.241,7.448h-9.8l-1.241-7.448a21.373,21.373,0,0,1-3.887-1.6L14.6,53.862,7.671,46.937,12.049,40.8a23.711,23.711,0,0,1-1.6-3.887L3,35.667v-9.8l7.448-1.241a27.662,27.662,0,0,1,1.6-3.887L7.671,14.6,14.6,7.671l6.141,4.377a21.374,21.374,0,0,1,3.887-1.6L25.867,3h9.8l1.241,7.448a21.374,21.374,0,0,1,3.887,1.6l6.141-4.377L53.862,14.6l-4.377,6.141a21.373,21.373,0,0,1,1.6,3.887l7.448,1.241v9.8Z" transform="translate(0.633 0.633)" fill="#583ae2"/>
        <path id="Trazado_634309" data-name="Trazado 634309" d="M31.333,22.433,23.167,40.4V28.967H15L23.167,11V22.433Z" transform="translate(8.233 5.7)" fill="#ffde55"/>
        <path id="Trazado_634310" data-name="Trazado 634310" d="M29.133,61.333l-3.234.8,1.715,2.858-4.622,4.622L20.134,67.9l-.8,3.234H12.8L12,67.9,9.141,69.614,4.519,64.992l1.715-2.858L3,61.333V54.8L6.234,54,4.519,51.141l4.622-4.622L12,48.234,12.8,45h6.533l.8,3.234,2.858-1.715,4.622,4.622L25.9,54l3.234.8Z" transform="translate(0.633 27.233)" fill="#c4baf5"/>
        <circle id="Elipse_5426" data-name="Elipse 5426" cx="5" cy="5" r="5" transform="translate(12 80)" fill="#ffde55"/>
        <path id="Trazado_634311" data-name="Trazado 634311" d="M38.667,5.267H52.494V2h-14.7a1.633,1.633,0,0,0-1.359.727l-3.267,4.9L35.886,9.44Z" transform="translate(19.74 0)"/>
        <path id="Trazado_634312" data-name="Trazado 634312" d="M32.826,61.618H19v3.267H33.7a1.633,1.633,0,0,0,1.359-.727l3.267-4.9-2.718-1.813Z" transform="translate(10.767 35.115)"/>
        <path id="Trazado_634313" data-name="Trazado 634313" d="M68.967,37.933a30.672,30.672,0,0,0-16.1,4.541l-.848-1.187a23.031,23.031,0,0,0,.949-2.3l6.468-1.078A1.633,1.633,0,0,0,60.8,36.3V26.5a1.633,1.633,0,0,0-1.364-1.61l-6.468-1.078a23.03,23.03,0,0,0-.949-2.3l3.809-5.333a1.633,1.633,0,0,0-.175-2.1l-6.93-6.93a1.633,1.633,0,0,0-2.1-.175l-5.333,3.809a23.03,23.03,0,0,0-2.3-.941L37.91,3.372A1.633,1.633,0,0,0,36.3,2H26.5a1.633,1.633,0,0,0-1.61,1.364L23.812,9.832a23.031,23.031,0,0,0-2.3.949L16.181,6.972a1.633,1.633,0,0,0-2.1.175l-6.93,6.93a1.633,1.633,0,0,0-.175,2.1L10.8,21.538a21.648,21.648,0,0,0-.936,2.269l-6.5,1.083A1.633,1.633,0,0,0,2,26.5v9.8a1.633,1.633,0,0,0,1.364,1.61l6.5,1.083a24.254,24.254,0,0,0,.92,2.287L6.972,46.619a1.633,1.633,0,0,0,.175,2.1l6.93,6.93a1.633,1.633,0,0,0,2.1.175l5.333-3.809a23.03,23.03,0,0,0,2.3.949l1.078,6.468A1.633,1.633,0,0,0,26.5,60.8h9.8a1.633,1.633,0,0,0,1.61-1.364l1.078-6.468a23.029,23.029,0,0,0,2.3-.949l1.187.848a30.672,30.672,0,0,0-4.541,16.1A31.033,31.033,0,1,0,68.967,37.933ZM40.658,48.676a19.545,19.545,0,0,1-3.593,1.483,1.633,1.633,0,0,0-1.143,1.3l-1,6.079H27.883l-1.013-6.079a1.633,1.633,0,0,0-1.143-1.3,19.545,19.545,0,0,1-3.593-1.483,1.633,1.633,0,0,0-1.722.109L15.4,52.365l-4.964-4.972,3.58-5.014a1.633,1.633,0,0,0,.109-1.722,22.07,22.07,0,0,1-1.508-3.667,1.633,1.633,0,0,0-1.269-1.062L5.267,34.917V27.883l6.079-1.013a1.633,1.633,0,0,0,1.269-1.062,26.787,26.787,0,0,1,1.547-3.739,1.633,1.633,0,0,0-.147-1.65l-3.58-5.014,4.972-4.972,5.014,3.58a1.633,1.633,0,0,0,1.722.109,19.545,19.545,0,0,1,3.593-1.483,1.633,1.633,0,0,0,1.143-1.3l1-6.079h7.033l1.013,6.079a1.633,1.633,0,0,0,1.143,1.3,19.545,19.545,0,0,1,3.593,1.483,1.633,1.633,0,0,0,1.722-.109l5.014-3.58,4.972,4.972-3.58,5.014a1.633,1.633,0,0,0-.109,1.722,19.544,19.544,0,0,1,1.483,3.593,1.633,1.633,0,0,0,1.3,1.143l6.079,1.013v7.033l-6.079,1.013a1.633,1.633,0,0,0-1.3,1.143,19.544,19.544,0,0,1-1.483,3.593,1.633,1.633,0,0,0,.109,1.722l3.58,5.014L47.4,52.382,42.387,48.8a1.633,1.633,0,0,0-1.73-.126ZM70.6,96.65V91.833H67.333V96.65A27.757,27.757,0,0,1,41.283,70.6H46.1V67.333H41.26a27.355,27.355,0,0,1,3.874-12.565l1.485,1.06a1.633,1.633,0,0,0,2.1-.175l6.93-6.93a1.633,1.633,0,0,0,.175-2.1l-1.06-1.485A27.355,27.355,0,0,1,67.333,41.26V46.1H70.6V41.283a27.757,27.757,0,0,1,26.05,26.05H91.833V70.6H96.65A27.757,27.757,0,0,1,70.6,96.65Z" transform="translate(0 0)"/>
        <path id="Trazado_634314" data-name="Trazado 634314" d="M45.267,31H42V50.6a1.633,1.633,0,0,0,1.633,1.633H56.7V48.967H45.267Z" transform="translate(25.333 18.367)"/>
        <path id="Trazado_634315" data-name="Trazado 634315" d="M31.966,21.433H25.433v-9.8a1.633,1.633,0,0,0-3.12-.676L14.147,28.923a1.633,1.633,0,0,0,1.486,2.31h6.533v9.8a1.633,1.633,0,0,0,1.287,1.6,1.674,1.674,0,0,0,.346.036,1.633,1.633,0,0,0,1.486-.957l8.167-17.967a1.633,1.633,0,0,0-1.486-2.31ZM25.433,33.492V29.6A1.633,1.633,0,0,0,23.8,27.966H18.17l4-8.792v3.892A1.633,1.633,0,0,0,23.8,24.7h5.63Z" transform="translate(7.6 5.067)"/>
        <path id="Trazado_634316" data-name="Trazado 634316" d="M19,6h3.267V9.267H19Z" transform="translate(10.767 2.533)"/>
        <path id="Trazado_634317" data-name="Trazado 634317" d="M0,0H3.267V3.267H0Z" transform="translate(14.073 16.386) rotate(-45)"/>
        <path id="Trazado_634318" data-name="Trazado 634318" d="M6,19H9.267v3.267H6Z" transform="translate(2.533 10.767)"/>
        <path id="Trazado_634319" data-name="Trazado 634319" d="M0,0H3.267V3.267H0Z" transform="translate(14.069 46.409) rotate(-45)"/>
        <path id="Trazado_634320" data-name="Trazado 634320" d="M19,32h3.267v3.267H19Z" transform="translate(10.767 19)"/>
        <path id="Trazado_634321" data-name="Trazado 634321" d="M0,0H3.267V3.267H0Z" transform="translate(44.093 46.414) rotate(-45)"/>
        <path id="Trazado_634322" data-name="Trazado 634322" d="M32,19h3.267v3.267H32Z" transform="translate(19 10.767)"/>
        <path id="Trazado_634323" data-name="Trazado 634323" d="M0,0H3.267V3.267H0Z" transform="translate(44.098 16.391) rotate(-45)"/>
        <path id="Trazado_634324" data-name="Trazado 634324" d="M55.533,7a6.533,6.533,0,1,0,6.533,6.533A6.533,6.533,0,0,0,55.533,7Zm0,9.8A3.267,3.267,0,1,1,58.8,13.533,3.267,3.267,0,0,1,55.533,16.8Z" transform="translate(29.767 3.167)"/>
        <path id="Trazado_634325" data-name="Trazado 634325" d="M72.164,11.849l-1.093-.273.58-.965a1.633,1.633,0,0,0-.247-2L66.785,4a1.633,1.633,0,0,0-2-.247l-.965.58-.273-1.093A1.633,1.633,0,0,0,61.967,2H55.433a1.633,1.633,0,0,0-1.584,1.236l-.273,1.093-.965-.58a1.633,1.633,0,0,0-2,.247L46,8.615a1.633,1.633,0,0,0-.247,2l.58.965-1.093.273A1.633,1.633,0,0,0,44,13.433v6.533a1.633,1.633,0,0,0,1.236,1.584l1.093.273-.58.965a1.633,1.633,0,0,0,.247,2L50.615,29.4a1.633,1.633,0,0,0,2,.247l.965-.58.273,1.093A1.633,1.633,0,0,0,55.433,31.4h6.533a1.633,1.633,0,0,0,1.584-1.236l.273-1.093.965.58a1.633,1.633,0,0,0,2-.247L71.4,24.785a1.633,1.633,0,0,0,.247-2l-.58-.965,1.093-.273A1.633,1.633,0,0,0,73.4,19.967V13.433a1.633,1.633,0,0,0-1.236-1.584Zm-2.03,6.842-1.994.49a1.633,1.633,0,0,0-1,2.425l1.057,1.762-2.816,2.816-1.762-1.057a1.633,1.633,0,0,0-2.425,1l-.5,2H56.709l-.49-1.994a1.633,1.633,0,0,0-2.426-1l-1.762,1.057-2.816-2.816,1.057-1.762a1.633,1.633,0,0,0-1-2.426l-2-.5V14.709l1.994-.49a1.633,1.633,0,0,0,1-2.426l-1.057-1.762,2.816-2.816,1.762,1.057a1.633,1.633,0,0,0,2.425-1l.49-1.993h3.982l.49,1.993a1.633,1.633,0,0,0,2.425,1l1.762-1.057,2.816,2.816L67.12,11.793a1.633,1.633,0,0,0,1,2.426l1.994.49Z" transform="translate(26.6)"/>
        <path id="Trazado_634326" data-name="Trazado 634326" d="M13.533,49a6.533,6.533,0,1,0,6.533,6.533A6.533,6.533,0,0,0,13.533,49Zm0,9.8A3.267,3.267,0,1,1,16.8,55.533,3.267,3.267,0,0,1,13.533,58.8Z" transform="translate(3.167 29.767)"/>
        <path id="Trazado_634327" data-name="Trazado 634327" d="M29.651,64.789l-.58-.965,1.093-.273A1.633,1.633,0,0,0,31.4,61.967V55.433a1.633,1.633,0,0,0-1.236-1.584l-1.093-.273.58-.965a1.633,1.633,0,0,0-.247-2L24.785,46a1.633,1.633,0,0,0-2-.247l-.965.58-.273-1.093A1.633,1.633,0,0,0,19.967,44H13.433a1.633,1.633,0,0,0-1.584,1.236l-.273,1.093-.965-.58a1.633,1.633,0,0,0-2,.247L4,50.615a1.633,1.633,0,0,0-.247,2l.58.965-1.093.273A1.633,1.633,0,0,0,2,55.433v6.533a1.633,1.633,0,0,0,1.236,1.584l1.093.273-.58.965a1.633,1.633,0,0,0,.247,2L8.615,71.4a1.633,1.633,0,0,0,2,.247l.965-.58.273,1.093A1.633,1.633,0,0,0,13.433,73.4h6.533a1.633,1.633,0,0,0,1.584-1.236l.273-1.093.965.58a1.633,1.633,0,0,0,2-.247L29.4,66.785a1.633,1.633,0,0,0,.247-2Zm-1.517-4.1-1.994.49a1.633,1.633,0,0,0-1,2.426l1.057,1.762-2.816,2.816-1.762-1.057a1.633,1.633,0,0,0-2.426,1l-.5,2H14.709l-.49-1.994a1.633,1.633,0,0,0-2.426-1l-1.762,1.057L7.207,65.377l1.057-1.762a1.633,1.633,0,0,0-1-2.425l-1.994-.5V56.709l1.994-.49a1.633,1.633,0,0,0,1-2.426L7.207,52.031l2.816-2.816,1.762,1.057a1.633,1.633,0,0,0,2.425-1l.49-1.993h3.982l.49,1.993a1.633,1.633,0,0,0,2.425,1l1.762-1.057,2.816,2.816L25.12,53.793a1.633,1.633,0,0,0,1,2.426l1.994.49Z" transform="translate(0 26.6)"/>
      </g>
    </g>
  </g>
</svg>
