<svg xmlns="http://www.w3.org/2000/svg" width="295" height="293" viewBox="0 0 295 293">
  <g id="Grupo_948605" data-name="Grupo 948605" transform="translate(-285 -17859)">
    <g id="Grupo_948604" data-name="Grupo 948604" transform="translate(-1075.632 17913.266)">
      <path id="Trazado_633857" data-name="Trazado 633857" d="M1396.275,143.39c3.376-21.881,41.02-26.28,34.108-65.87-5.2-29.794,35.873-83.841,64.285-78.367,21.586,4.158,10.944,27.818,26.444,34.961,9.649,4.447,14.047-8.124,26.77-3.451,14.973,5.5,8.773,36.914,34.894,51.444,24.024,13.362,42.177,8.495,48.566,25.854,7.222,19.623-14.362,24.346-10.759,37.756,4.47,16.639,20.557,15.084,17.172,34.022-6.712,37.553-77.593,50.8-121.635,50.8S1389.986,184.139,1396.275,143.39Z" transform="translate(-5.099 -17.424)" fill="#e6e1fb"/>
      <g id="Grupo_948538" data-name="Grupo 948538" transform="translate(1567.186 -10.239)">
        <rect id="Rectángulo_34833" data-name="Rectángulo 34833" width="34.127" height="34.201" rx="15.157" transform="translate(0.419 0.42)" fill="#fffdf7"/>
        <path id="Trazado_633858" data-name="Trazado 633858" d="M1705.444,47.382H1690.1a9.831,9.831,0,0,1-9.808-9.831V22.171a9.831,9.831,0,0,1,9.808-9.831h15.348a9.831,9.831,0,0,1,9.809,9.831V37.552A9.831,9.831,0,0,1,1705.444,47.382ZM1690.1,13.18a8.99,8.99,0,0,0-8.97,8.99V37.552a8.99,8.99,0,0,0,8.97,8.99h15.348a8.991,8.991,0,0,0,8.971-8.99V22.171a8.991,8.991,0,0,0-8.971-8.99Z" transform="translate(-1680.288 -12.34)" fill="#32293a"/>
      </g>
      <path id="Trazado_633859" data-name="Trazado 633859" d="M1640.531,82.414c-2.615-3.358-.031-8.543,4.868-9.273s9.6,3.427,10.795,7.933c3.408-.861,6.446,4.292,5.153,7.221,2.716,5.615-5.73,10.041-5.73,10.041s-8.112-1.072-8.163-1.279S1640.531,82.414,1640.531,82.414Z" transform="translate(-97.607 -45.64)" fill="#32293a"/>
      <g id="Grupo_948561" data-name="Grupo 948561" transform="translate(1390.686 -8.351)">
        <g id="Grupo_948539" data-name="Grupo 948539" transform="translate(11.576)">
          <path id="Trazado_633860" data-name="Trazado 633860" d="M1485,20.04l-2.912,29.638a59.532,59.532,0,0,1-25.084,41.563l-5.047,3.508a3.527,3.527,0,0,1-4.036-.006l-5-3.5a59.534,59.534,0,0,1-24.936-41.46l-2.925-29.746a3.537,3.537,0,0,1,3.505-3.977c3.572,0,58.312.19,62.928,0A3.5,3.5,0,0,1,1485,20.04Z" transform="translate(-1414.616 -15.641)" fill="#583ae2"/>
          <path id="Trazado_633861" data-name="Trazado 633861" d="M1449.689,95.54a3.944,3.944,0,0,1-2.263-.709l-5-3.5a60.047,60.047,0,0,1-25.112-41.751l-2.927-29.758a3.957,3.957,0,0,1,3.923-4.437c.638,0,2.9.006,6.222.015,15.831.042,52.9.142,56.69-.015a3.752,3.752,0,0,1,2.906,1.225,4.022,4.022,0,0,1,1.033,3.218l-2.911,29.633a60.026,60.026,0,0,1-25.262,41.867l-5.048,3.508A3.94,3.94,0,0,1,1449.689,95.54Zm-31.378-79.313a3.117,3.117,0,0,0-3.09,3.5l2.927,29.757a59.2,59.2,0,0,0,24.759,41.157l5,3.5a3.123,3.123,0,0,0,3.557,0l5.047-3.508a59.184,59.184,0,0,0,24.907-41.269l2.912-29.639a3.187,3.187,0,0,0-.817-2.55,2.872,2.872,0,0,0-2.256-.955c-3.8.156-40.891.058-56.727.016C1421.213,16.233,1418.949,16.227,1418.312,16.227Z" transform="translate(-1414.359 -15.384)" fill="#32293a"/>
        </g>
        <g id="Grupo_948540" data-name="Grupo 948540" transform="translate(0 24.931)">
          <rect id="Rectángulo_34834" data-name="Rectángulo 34834" width="93.148" height="20.47" rx="10.235" transform="translate(0.419 0.42)" fill="#342287"/>
          <path id="Trazado_633862" data-name="Trazado 633862" d="M1479.047,76.9h-72.722a10.656,10.656,0,0,1,0-21.311h72.722a10.656,10.656,0,0,1,0,21.311Zm-72.722-20.471a9.815,9.815,0,0,0,0,19.63h72.722a9.815,9.815,0,0,0,0-19.63Z" transform="translate(-1395.693 -55.584)" fill="#32293a"/>
        </g>
        <g id="Grupo_948560" data-name="Grupo 948560" transform="translate(6.926 32.959)">
          <g id="Grupo_948541" data-name="Grupo 948541" transform="translate(0.365 0.366)">
            <path id="Trazado_633863" data-name="Trazado 633863" d="M1407.449,71.51a2.386,2.386,0,1,1,2.385,2.391A2.388,2.388,0,0,1,1407.449,71.51Z" transform="translate(-1407.449 -69.119)" fill="#fffdf7"/>
            <path id="Trazado_633864" data-name="Trazado 633864" d="M1424.617,71.51A2.386,2.386,0,1,1,1427,73.9,2.388,2.388,0,0,1,1424.617,71.51Z" transform="translate(-1413.97 -69.119)" fill="#fffdf7"/>
            <path id="Trazado_633865" data-name="Trazado 633865" d="M1441.785,71.51a2.386,2.386,0,1,1,2.386,2.391A2.388,2.388,0,0,1,1441.785,71.51Z" transform="translate(-1420.49 -69.119)" fill="#fffdf7"/>
            <path id="Trazado_633866" data-name="Trazado 633866" d="M1458.953,71.51a2.386,2.386,0,1,1,2.386,2.391A2.388,2.388,0,0,1,1458.953,71.51Z" transform="translate(-1427.011 -69.119)" fill="#fffdf7"/>
            <path id="Trazado_633867" data-name="Trazado 633867" d="M1476.121,71.51a2.386,2.386,0,1,1,2.386,2.391A2.389,2.389,0,0,1,1476.121,71.51Z" transform="translate(-1433.532 -69.119)" fill="#fffdf7"/>
            <path id="Trazado_633868" data-name="Trazado 633868" d="M1493.29,71.51a2.386,2.386,0,1,1,2.385,2.391A2.388,2.388,0,0,1,1493.29,71.51Z" transform="translate(-1440.053 -69.119)" fill="#fffdf7"/>
            <path id="Trazado_633869" data-name="Trazado 633869" d="M1510.458,71.51a2.386,2.386,0,1,1,2.385,2.391A2.388,2.388,0,0,1,1510.458,71.51Z" transform="translate(-1446.574 -69.119)" fill="#fffdf7"/>
            <ellipse id="Elipse_5412" data-name="Elipse 5412" cx="2.385" cy="2.391" rx="2.385" ry="2.391" transform="translate(74.532 0)" fill="#fffdf7"/>
          </g>
          <g id="Grupo_948550" data-name="Grupo 948550">
            <g id="Grupo_948542" data-name="Grupo 948542">
              <path id="Trazado_633870" data-name="Trazado 633870" d="M1407.449,71.51a2.386,2.386,0,1,1,2.385,2.391A2.388,2.388,0,0,1,1407.449,71.51Z" transform="translate(-1407.084 -68.753)" fill="#fffdf7"/>
              <path id="Trazado_633871" data-name="Trazado 633871" d="M1409.611,74.042a2.757,2.757,0,1,1,2.75-2.757A2.756,2.756,0,0,1,1409.611,74.042Zm0-4.782a2.025,2.025,0,1,0,2.021,2.025A2.025,2.025,0,0,0,1409.611,69.261Z" transform="translate(-1406.86 -68.529)" fill="#32293a"/>
            </g>
            <g id="Grupo_948543" data-name="Grupo 948543" transform="translate(10.649)">
              <path id="Trazado_633872" data-name="Trazado 633872" d="M1424.617,71.51A2.386,2.386,0,1,1,1427,73.9,2.388,2.388,0,0,1,1424.617,71.51Z" transform="translate(-1424.253 -68.753)" fill="#fffdf7"/>
              <path id="Trazado_633873" data-name="Trazado 633873" d="M1426.779,74.042a2.757,2.757,0,1,1,2.75-2.757A2.756,2.756,0,0,1,1426.779,74.042Zm0-4.782a2.025,2.025,0,1,0,2.021,2.025A2.025,2.025,0,0,0,1426.779,69.261Z" transform="translate(-1424.03 -68.529)" fill="#32293a"/>
            </g>
            <g id="Grupo_948544" data-name="Grupo 948544" transform="translate(21.295)">
              <path id="Trazado_633874" data-name="Trazado 633874" d="M1441.785,71.51a2.386,2.386,0,1,1,2.386,2.391A2.388,2.388,0,0,1,1441.785,71.51Z" transform="translate(-1441.42 -68.753)" fill="#fffdf7"/>
              <path id="Trazado_633875" data-name="Trazado 633875" d="M1443.947,74.042a2.757,2.757,0,1,1,2.75-2.757A2.756,2.756,0,0,1,1443.947,74.042Zm0-4.782a2.025,2.025,0,1,0,2.021,2.025A2.025,2.025,0,0,0,1443.947,69.261Z" transform="translate(-1441.197 -68.529)" fill="#32293a"/>
            </g>
            <g id="Grupo_948545" data-name="Grupo 948545" transform="translate(31.942)">
              <path id="Trazado_633876" data-name="Trazado 633876" d="M1458.953,71.51a2.386,2.386,0,1,1,2.386,2.391A2.388,2.388,0,0,1,1458.953,71.51Z" transform="translate(-1458.589 -68.753)" fill="#fffdf7"/>
              <path id="Trazado_633877" data-name="Trazado 633877" d="M1461.116,74.042a2.757,2.757,0,1,1,2.75-2.757A2.756,2.756,0,0,1,1461.116,74.042Zm0-4.782a2.025,2.025,0,1,0,2.021,2.025A2.025,2.025,0,0,0,1461.116,69.261Z" transform="translate(-1458.365 -68.529)" fill="#32293a"/>
            </g>
            <g id="Grupo_948546" data-name="Grupo 948546" transform="translate(42.59)">
              <path id="Trazado_633878" data-name="Trazado 633878" d="M1476.121,71.51a2.386,2.386,0,1,1,2.386,2.391A2.389,2.389,0,0,1,1476.121,71.51Z" transform="translate(-1475.756 -68.753)" fill="#fffdf7"/>
              <path id="Trazado_633879" data-name="Trazado 633879" d="M1478.284,74.042a2.757,2.757,0,1,1,2.75-2.757A2.756,2.756,0,0,1,1478.284,74.042Zm0-4.782a2.025,2.025,0,1,0,2.021,2.025A2.025,2.025,0,0,0,1478.284,69.261Z" transform="translate(-1475.533 -68.529)" fill="#32293a"/>
            </g>
            <g id="Grupo_948547" data-name="Grupo 948547" transform="translate(53.238)">
              <path id="Trazado_633880" data-name="Trazado 633880" d="M1493.29,71.51a2.386,2.386,0,1,1,2.385,2.391A2.388,2.388,0,0,1,1493.29,71.51Z" transform="translate(-1492.925 -68.753)" fill="#fffdf7"/>
              <path id="Trazado_633881" data-name="Trazado 633881" d="M1495.451,74.042a2.757,2.757,0,1,1,2.751-2.757A2.756,2.756,0,0,1,1495.451,74.042Zm0-4.782a2.025,2.025,0,1,0,2.022,2.025A2.025,2.025,0,0,0,1495.451,69.261Z" transform="translate(-1492.702 -68.529)" fill="#32293a"/>
            </g>
            <g id="Grupo_948548" data-name="Grupo 948548" transform="translate(63.885)">
              <path id="Trazado_633882" data-name="Trazado 633882" d="M1510.458,71.51a2.386,2.386,0,1,1,2.385,2.391A2.388,2.388,0,0,1,1510.458,71.51Z" transform="translate(-1510.094 -68.753)" fill="#fffdf7"/>
              <path id="Trazado_633883" data-name="Trazado 633883" d="M1512.619,74.042a2.757,2.757,0,1,1,2.751-2.757A2.756,2.756,0,0,1,1512.619,74.042Zm0-4.782a2.025,2.025,0,1,0,2.021,2.025A2.024,2.024,0,0,0,1512.619,69.261Z" transform="translate(-1509.87 -68.529)" fill="#32293a"/>
            </g>
            <g id="Grupo_948549" data-name="Grupo 948549" transform="translate(74.532)">
              <ellipse id="Elipse_5413" data-name="Elipse 5413" cx="2.385" cy="2.391" rx="2.385" ry="2.391" transform="translate(0.365 0.366)" fill="#fffdf7"/>
              <path id="Trazado_633884" data-name="Trazado 633884" d="M1529.788,74.042a2.757,2.757,0,1,1,2.749-2.757A2.757,2.757,0,0,1,1529.788,74.042Zm0-4.782a2.025,2.025,0,1,0,2.02,2.025A2.025,2.025,0,0,0,1529.788,69.261Z" transform="translate(-1527.037 -68.529)" fill="#32293a"/>
            </g>
          </g>
          <g id="Grupo_948559" data-name="Grupo 948559">
            <g id="Grupo_948551" data-name="Grupo 948551">
              <path id="Trazado_633885" data-name="Trazado 633885" d="M1407.449,71.51a2.386,2.386,0,1,1,2.385,2.391A2.388,2.388,0,0,1,1407.449,71.51Z" transform="translate(-1407.084 -68.753)" fill="#fffdf7"/>
              <path id="Trazado_633886" data-name="Trazado 633886" d="M1409.611,74.042a2.757,2.757,0,1,1,2.75-2.757A2.756,2.756,0,0,1,1409.611,74.042Zm0-4.782a2.025,2.025,0,1,0,2.021,2.025A2.025,2.025,0,0,0,1409.611,69.261Z" transform="translate(-1406.86 -68.529)" fill="#32293a"/>
            </g>
            <g id="Grupo_948552" data-name="Grupo 948552" transform="translate(10.649)">
              <path id="Trazado_633887" data-name="Trazado 633887" d="M1424.617,71.51A2.386,2.386,0,1,1,1427,73.9,2.388,2.388,0,0,1,1424.617,71.51Z" transform="translate(-1424.253 -68.753)" fill="#fffdf7"/>
              <path id="Trazado_633888" data-name="Trazado 633888" d="M1426.779,74.042a2.757,2.757,0,1,1,2.75-2.757A2.756,2.756,0,0,1,1426.779,74.042Zm0-4.782a2.025,2.025,0,1,0,2.021,2.025A2.025,2.025,0,0,0,1426.779,69.261Z" transform="translate(-1424.03 -68.529)" fill="#32293a"/>
            </g>
            <g id="Grupo_948553" data-name="Grupo 948553" transform="translate(21.295)">
              <path id="Trazado_633889" data-name="Trazado 633889" d="M1441.785,71.51a2.386,2.386,0,1,1,2.386,2.391A2.388,2.388,0,0,1,1441.785,71.51Z" transform="translate(-1441.42 -68.753)" fill="#fffdf7"/>
              <path id="Trazado_633890" data-name="Trazado 633890" d="M1443.947,74.042a2.757,2.757,0,1,1,2.75-2.757A2.756,2.756,0,0,1,1443.947,74.042Zm0-4.782a2.025,2.025,0,1,0,2.021,2.025A2.025,2.025,0,0,0,1443.947,69.261Z" transform="translate(-1441.197 -68.529)" fill="#32293a"/>
            </g>
            <g id="Grupo_948554" data-name="Grupo 948554" transform="translate(31.942)">
              <path id="Trazado_633891" data-name="Trazado 633891" d="M1458.953,71.51a2.386,2.386,0,1,1,2.386,2.391A2.388,2.388,0,0,1,1458.953,71.51Z" transform="translate(-1458.589 -68.753)" fill="#fffdf7"/>
              <path id="Trazado_633892" data-name="Trazado 633892" d="M1461.116,74.042a2.757,2.757,0,1,1,2.75-2.757A2.756,2.756,0,0,1,1461.116,74.042Zm0-4.782a2.025,2.025,0,1,0,2.021,2.025A2.025,2.025,0,0,0,1461.116,69.261Z" transform="translate(-1458.365 -68.529)" fill="#32293a"/>
            </g>
            <g id="Grupo_948555" data-name="Grupo 948555" transform="translate(42.59)">
              <path id="Trazado_633893" data-name="Trazado 633893" d="M1476.121,71.51a2.386,2.386,0,1,1,2.386,2.391A2.389,2.389,0,0,1,1476.121,71.51Z" transform="translate(-1475.756 -68.753)" fill="#fffdf7"/>
              <path id="Trazado_633894" data-name="Trazado 633894" d="M1478.284,74.042a2.757,2.757,0,1,1,2.75-2.757A2.756,2.756,0,0,1,1478.284,74.042Zm0-4.782a2.025,2.025,0,1,0,2.021,2.025A2.025,2.025,0,0,0,1478.284,69.261Z" transform="translate(-1475.533 -68.529)" fill="#32293a"/>
            </g>
            <g id="Grupo_948556" data-name="Grupo 948556" transform="translate(53.238)">
              <path id="Trazado_633895" data-name="Trazado 633895" d="M1493.29,71.51a2.386,2.386,0,1,1,2.385,2.391A2.388,2.388,0,0,1,1493.29,71.51Z" transform="translate(-1492.925 -68.753)" fill="#fffdf7"/>
              <path id="Trazado_633896" data-name="Trazado 633896" d="M1495.451,74.042a2.757,2.757,0,1,1,2.751-2.757A2.756,2.756,0,0,1,1495.451,74.042Zm0-4.782a2.025,2.025,0,1,0,2.022,2.025A2.025,2.025,0,0,0,1495.451,69.261Z" transform="translate(-1492.702 -68.529)" fill="#32293a"/>
            </g>
            <g id="Grupo_948557" data-name="Grupo 948557" transform="translate(63.885)">
              <path id="Trazado_633897" data-name="Trazado 633897" d="M1510.458,71.51a2.386,2.386,0,1,1,2.385,2.391A2.388,2.388,0,0,1,1510.458,71.51Z" transform="translate(-1510.094 -68.753)" fill="#fffdf7"/>
              <path id="Trazado_633898" data-name="Trazado 633898" d="M1512.619,74.042a2.757,2.757,0,1,1,2.751-2.757A2.756,2.756,0,0,1,1512.619,74.042Zm0-4.782a2.025,2.025,0,1,0,2.021,2.025A2.024,2.024,0,0,0,1512.619,69.261Z" transform="translate(-1509.87 -68.529)" fill="#32293a"/>
            </g>
            <g id="Grupo_948558" data-name="Grupo 948558" transform="translate(74.532)">
              <ellipse id="Elipse_5414" data-name="Elipse 5414" cx="2.385" cy="2.391" rx="2.385" ry="2.391" transform="translate(0.365 0.366)" fill="#fffdf7"/>
              <path id="Trazado_633899" data-name="Trazado 633899" d="M1529.788,74.042a2.757,2.757,0,1,1,2.749-2.757A2.757,2.757,0,0,1,1529.788,74.042Zm0-4.782a2.025,2.025,0,1,0,2.02,2.025A2.025,2.025,0,0,0,1529.788,69.261Z" transform="translate(-1527.037 -68.529)" fill="#32293a"/>
            </g>
          </g>
        </g>
      </g>
      <g id="Grupo_948562" data-name="Grupo 948562" transform="translate(1495.678 157.854)">
        <path id="Rectángulo_34835" data-name="Rectángulo 34835" d="M14.269,0h98.225a14.269,14.269,0,0,1,14.269,14.269V53.878a14.269,14.269,0,0,1-14.269,14.269H14.268A14.268,14.268,0,0,1,0,53.878V14.269A14.269,14.269,0,0,1,14.269,0Z" transform="translate(0.419 0.42)" fill="#c4baf5"/>
        <path id="Trazado_633900" data-name="Trazado 633900" d="M1683.329,352.365H1574.245a9.28,9.28,0,0,1-9.26-9.279v-50.43a9.28,9.28,0,0,1,9.26-9.279h109.083a9.28,9.28,0,0,1,9.259,9.279v50.43A9.28,9.28,0,0,1,1683.329,352.365Zm-109.083-68.147a8.439,8.439,0,0,0-8.42,8.438v50.43a8.439,8.439,0,0,0,8.42,8.439h109.083a8.439,8.439,0,0,0,8.42-8.439v-50.43a8.439,8.439,0,0,0-8.42-8.438Z" transform="translate(-1564.986 -283.378)" fill="#32293a"/>
      </g>
      <g id="Grupo_948569" data-name="Grupo 948569" transform="translate(1382.509 142.914)">
        <path id="Trazado_633901" data-name="Trazado 633901" d="M1440.183,274.29l12.7,11.8,10.083-10.892-12.7-11.8Z" transform="translate(-1404.415 -260.849)" fill="#f4c7a8"/>
        <path id="Trazado_633902" data-name="Trazado 633902" d="M1438.233,284.159l.837-.9a2.441,2.441,0,0,0-.129-3.446l-.593-.552a2.43,2.43,0,0,0-2.5-.5l-2.381.881a2.43,2.43,0,0,1-2.5-.5l-5.133-4.772a2.442,2.442,0,0,1-.76-2.094l.835-6.611a2.442,2.442,0,0,0-.759-2.094h0a2.993,2.993,0,0,0-1.844-.643c-8.441-.778-17.232-1.955-25.5-3.386-1.336-.231-2.666-.487-3.858.161l-4.784,2.6L1426.3,296.82Z" transform="translate(-1385.039 -259.288)" fill="#583ae2"/>
        <g id="Grupo_948563" data-name="Grupo 948563" transform="translate(0 2.591)">
          <path id="Trazado_633903" data-name="Trazado 633903" d="M1419.329,302.888a1.974,1.974,0,0,1-1.349-.53l-34.837-32.388a1.994,1.994,0,0,1-.105-2.81l3.3-3.56a.42.42,0,0,1,.615.571l-3.3,3.561a1.151,1.151,0,0,0,.062,1.623l34.835,32.387a1.148,1.148,0,0,0,1.621-.061l3.3-3.561a.42.42,0,0,1,.615.572l-3.3,3.56A1.977,1.977,0,0,1,1419.329,302.888Z" transform="translate(-1382.509 -263.466)" fill="#32293a"/>
        </g>
        <g id="Grupo_948564" data-name="Grupo 948564" transform="translate(33.699 27.727)">
          <path id="Trazado_633904" data-name="Trazado 633904" d="M1437.049,307.27l-.2-.815,9.206-2.311a4.89,4.89,0,0,1,4.534,1.167l1.019.946-.569.616-1.019-.947a4.059,4.059,0,0,0-3.76-.967Z" transform="translate(-1436.846 -303.995)" fill="#32293a"/>
        </g>
        <g id="Grupo_948565" data-name="Grupo 948565" transform="translate(17.226 1.098)">
          <path id="Trazado_633905" data-name="Trazado 633905" d="M1424.544,270.642a2.507,2.507,0,0,1-.422-.036l-11.783-2.011a2.473,2.473,0,0,1-2.016-2.864l.814-4.672.825.145-.814,4.672a1.633,1.633,0,0,0,1.332,1.892l11.783,2.011a1.63,1.63,0,0,0,1.892-1.422l.613-5.292.833.1-.613,5.291a2.471,2.471,0,0,1-2.444,2.19Z" transform="translate(-1410.285 -261.058)" fill="#32293a"/>
        </g>
        <g id="Grupo_948566" data-name="Grupo 948566" transform="translate(28.815 2.413)">
          <path id="Trazado_633906" data-name="Trazado 633906" d="M1430.569,263.856l-.922,6.771Z" transform="translate(-1429.228 -263.436)" fill="#ffcc38"/>
          <path id="Trazado_633907" data-name="Trazado 633907" d="M1429.391,270.79a.442.442,0,0,1-.057,0,.42.42,0,0,1-.359-.473l.922-6.77a.419.419,0,1,1,.831.113l-.922,6.77A.421.421,0,0,1,1429.391,270.79Z" transform="translate(-1428.971 -263.178)" fill="#32293a"/>
        </g>
        <g id="Grupo_948567" data-name="Grupo 948567" transform="translate(25.011 1.897)">
          <path id="Trazado_633908" data-name="Trazado 633908" d="M1424.436,263.025l-.922,6.771Z" transform="translate(-1423.095 -262.604)" fill="#ffcc38"/>
          <path id="Trazado_633909" data-name="Trazado 633909" d="M1423.259,269.958a.365.365,0,0,1-.058,0,.419.419,0,0,1-.359-.473l.921-6.771a.419.419,0,1,1,.831.113l-.921,6.771A.421.421,0,0,1,1423.259,269.958Z" transform="translate(-1422.839 -262.346)" fill="#32293a"/>
        </g>
        <g id="Grupo_948568" data-name="Grupo 948568" transform="translate(21.255 1.243)">
          <path id="Trazado_633910" data-name="Trazado 633910" d="M1418.38,261.97l-.922,6.771Z" transform="translate(-1417.039 -261.55)" fill="#ffcc38"/>
          <path id="Trazado_633911" data-name="Trazado 633911" d="M1417.2,268.9a.354.354,0,0,1-.058,0,.42.42,0,0,1-.359-.473l.922-6.77a.424.424,0,0,1,.473-.36.419.419,0,0,1,.359.473l-.922,6.771A.421.421,0,0,1,1417.2,268.9Z" transform="translate(-1416.782 -261.292)" fill="#32293a"/>
        </g>
      </g>
      <g id="Grupo_948576" data-name="Grupo 948576" transform="translate(1420.91 191.228)">
        <path id="Trazado_633912" data-name="Trazado 633912" d="M1491.138,352.049h17.317l3.046-14.857h-17.317Z" transform="translate(-1462.169 -337.192)" fill="#f4c7a8"/>
        <path id="Trazado_633913" data-name="Trazado 633913" d="M1495.907,351.722v-1.233a2.436,2.436,0,0,0-2.434-2.439h-.809a2.433,2.433,0,0,0-2.171,1.336l-1.147,2.268a2.433,2.433,0,0,1-2.17,1.336h-7a2.433,2.433,0,0,1-1.978-1.018l-3.873-5.415a2.431,2.431,0,0,0-1.978-1.018h0a3,3,0,0,0-1.789.785c-6.717,5.183-13.96,10.312-20.992,14.9-1.137.742-2.285,1.46-2.72,2.747l-1.743,5.167h50.649Z" transform="translate(-1444.684 -340.362)" fill="#583ae2"/>
        <g id="Grupo_948570" data-name="Grupo 948570" transform="translate(0 28.353)">
          <path id="Trazado_633914" data-name="Trazado 633914" d="M1493.931,390.174h-47.518a1.989,1.989,0,0,1-1.985-1.988v-4.857a.419.419,0,1,1,.839,0v4.857a1.148,1.148,0,0,0,1.146,1.148h47.518a1.148,1.148,0,0,0,1.146-1.148v-4.857a.419.419,0,1,1,.839,0v4.857A1.989,1.989,0,0,1,1493.931,390.174Z" transform="translate(-1444.428 -382.909)" fill="#32293a"/>
        </g>
        <g id="Grupo_948571" data-name="Grupo 948571" transform="translate(40.537 18.34)">
          <path id="Trazado_633915" data-name="Trazado 633915" d="M1510.494,377.427l-.7-.459,5.181-7.969a4.892,4.892,0,0,1,4.115-2.235h1.389v.84h-1.389a4.057,4.057,0,0,0-3.413,1.854Z" transform="translate(-1509.791 -366.764)" fill="#32293a"/>
        </g>
        <g id="Grupo_948572" data-name="Grupo 948572" transform="translate(9.346 8.185)">
          <path id="Trazado_633916" data-name="Trazado 633916" d="M1464.147,365.179a2.525,2.525,0,0,1-.517-.054,2.451,2.451,0,0,1-1.559-1.075l-2.574-3.981.7-.457,2.573,3.981a1.63,1.63,0,0,0,2.262.479l10-6.556a1.637,1.637,0,0,0,.422-2.333l-3.142-4.3.677-.5,3.142,4.3a2.478,2.478,0,0,1-.641,3.532l-10,6.557A2.447,2.447,0,0,1,1464.147,365.179Z" transform="translate(-1459.497 -350.389)" fill="#32293a"/>
        </g>
        <g id="Grupo_948573" data-name="Grupo 948573" transform="translate(18.958 10.485)">
          <path id="Trazado_633917" data-name="Trazado 633917" d="M1475.673,354.776l3.918,5.592Z" transform="translate(-1475.253 -354.356)" fill="#ffcc38"/>
          <path id="Trazado_633918" data-name="Trazado 633918" d="M1479.335,360.531a.421.421,0,0,1-.344-.179l-3.919-5.592a.42.42,0,1,1,.687-.483l3.919,5.593a.42.42,0,0,1-.343.662Z" transform="translate(-1474.996 -354.099)" fill="#32293a"/>
        </g>
        <g id="Grupo_948574" data-name="Grupo 948574" transform="translate(15.82 12.7)">
          <path id="Trazado_633919" data-name="Trazado 633919" d="M1470.613,358.347l3.918,5.592Z" transform="translate(-1470.194 -357.927)" fill="#ffcc38"/>
          <path id="Trazado_633920" data-name="Trazado 633920" d="M1474.274,364.1a.417.417,0,0,1-.343-.179l-3.918-5.593a.419.419,0,1,1,.686-.483l3.918,5.593a.42.42,0,0,1-.344.661Z" transform="translate(-1469.937 -357.67)" fill="#32293a"/>
        </g>
        <g id="Grupo_948575" data-name="Grupo 948575" transform="translate(12.623 14.78)">
          <path id="Trazado_633921" data-name="Trazado 633921" d="M1465.457,361.7l3.918,5.592Z" transform="translate(-1465.038 -361.28)" fill="#ffcc38"/>
          <path id="Trazado_633922" data-name="Trazado 633922" d="M1469.119,367.455a.418.418,0,0,1-.343-.179l-3.918-5.592a.419.419,0,1,1,.686-.482l3.918,5.592a.42.42,0,0,1-.344.661Z" transform="translate(-1464.782 -361.023)" fill="#32293a"/>
        </g>
      </g>
      <path id="Trazado_633923" data-name="Trazado 633923" d="M1540.025,194.994l-3.722,11.353-29.04-14.84a19.333,19.333,0,0,0-23.444,3.617l-36.4,38.469a1.363,1.363,0,0,0,.087,1.956l18.713,16.555a1.355,1.355,0,0,0,1.946-.156l12.58-15.312-9.437,46.477a1.359,1.359,0,0,0,1.309,1.632l25.563.393a1.359,1.359,0,0,0,1.349-1.077l7.757-36.423,49.6.008a16.023,16.023,0,0,0,14.891-10.129l8.237-26.948Z" transform="translate(-24.513 -89.704)" fill="#32293a"/>
      <path id="Trazado_633924" data-name="Trazado 633924" d="M1673.233,200.27l21.147,40.221L1685.121,249h13.5s1.954,13.1,2.609,17.121,5.376,4.243,5.379.608c0,1.981,1.65,3.639,3.1,3.192,1.133-.349,2.143-1.989,2.141-5.773-.121,2.679,5.252,2.143,4.712-2.57.356,2.044,4.109,2.035,4.193-2.009.048-2.308-.04-5.8-.113-8.077a7.364,7.364,0,0,0-1.41-4.1l-6.34-8.7L1693.3,191.752Z" transform="translate(-110.422 -90.723)" fill="#f4c7a8"/>
      <g id="Grupo_948577" data-name="Grupo 948577" transform="translate(1569.672 116.935)">
        <path id="Trazado_633925" data-name="Trazado 633925" d="M1713.642,279.687a3.326,3.326,0,0,1-2.251-.857,3.009,3.009,0,0,1-.551-.674,2.544,2.544,0,0,1-2.039,1.3c-1.577.126-3.375-1.043-3.781-3.526-.588-3.6-2.238-14.637-2.557-16.769h-13.141a.421.421,0,0,1-.284-.73l9.022-8.286-13.716-26.087a.419.419,0,1,1,.74-.392l13.867,26.374a.421.421,0,0,1-.087.506l-8.465,7.775h12.425a.421.421,0,0,1,.415.358c.02.13,1.96,13.144,2.608,17.115.323,1.98,1.671,2.93,2.886,2.824.8-.064,1.659-.663,1.66-2.148a.42.42,0,0,1,.419-.42h0a.42.42,0,0,1,.419.42,2.3,2.3,0,0,0,.724,1.743,2.544,2.544,0,0,0,1.916.626,1.558,1.558,0,0,0,1.121-.571c.62-.745.841-2.246.64-4.34a.421.421,0,0,1,.375-.458.435.435,0,0,1,.459.373,1.566,1.566,0,0,0,.856,1.359,1.862,1.862,0,0,0,1.822-.316,3.69,3.69,0,0,0,1.2-3.52.419.419,0,0,1,.83-.12,1.241,1.241,0,0,0,1.4.99c.878-.066,1.918-.875,1.962-2.936.05-2.391-.05-6.072-.114-8.054a6.912,6.912,0,0,0-1.329-3.866l-6.341-8.7a.381.381,0,0,1-.048-.086l-12.778-30.612a.419.419,0,1,1,.772-.324l12.759,30.566,6.312,8.659a7.751,7.751,0,0,1,1.491,4.335c.064,1.99.164,5.688.114,8.1-.052,2.455-1.411,3.655-2.737,3.756a2.215,2.215,0,0,1-1.454-.375,4.04,4.04,0,0,1-1.542,2.864,2.7,2.7,0,0,1-2.656.409,2.167,2.167,0,0,1-.45-.266,5.078,5.078,0,0,1-.9,3.1,2.394,2.394,0,0,1-1.693.87C1713.845,279.683,1713.743,279.687,1713.642,279.687Z" transform="translate(-1684.296 -217.399)" fill="#32293a"/>
      </g>
      <path id="Trazado_633926" data-name="Trazado 633926" d="M1539.233,101.7,1500.2,87.27s-8.476-5.825-9.807-6.248-3.656.16-3.711,1.43c-2.466-1.591-4.953-.432-5.172.99-2.423-1.163-4.807.628-4.787,2.247,0,0-9.366-5.512-11.042-6.549s-5.382,1.244-3.379,3.312c2.888,2.982,15.414,12.51,15.414,12.51l-3.6,3.944s-1.773-2.3-3.868-2.165a5.362,5.362,0,0,0-2.27.629.876.876,0,0,0-.276,1.313c1.262,1.578,3.873,4.309,5.546,6.028a3.312,3.312,0,0,0,3.562.782l8.578-3.28,46.757,19.951Z" transform="translate(-30.086 -47.852)" fill="#f4c7a8"/>
      <g id="Grupo_948578" data-name="Grupo 948578" transform="translate(1431.215 30.602)">
        <path id="Trazado_633927" data-name="Trazado 633927" d="M1493.671,106.016a.417.417,0,0,1-.164-.034l-8.39-3.58-8.419,3.221a3.733,3.733,0,0,1-4.012-.882c-1.859-1.908-4.334-4.509-5.574-6.059a1.28,1.28,0,0,1-.255-1.049,1.312,1.312,0,0,1,.657-.894,5.78,5.78,0,0,1,2.445-.68c1.77-.111,3.266,1.265,3.9,1.953l2.976-3.257c-2.123-1.621-12.461-9.554-15.095-12.273a2.072,2.072,0,0,1-.177-2.924c.9-1.123,2.832-1.807,4.076-1.038,1.423.879,8.5,5.048,10.5,6.231a3.277,3.277,0,0,1,1.4-1.745,3.946,3.946,0,0,1,3.441-.389,2.707,2.707,0,0,1,1.38-1.281,4.385,4.385,0,0,1,3.8.222,1.949,1.949,0,0,1,.632-.693,4.387,4.387,0,0,1,3.46-.505c1.331.424,8.818,5.549,9.874,6.273l15.894,5.876a.42.42,0,0,1-.29.788L1499.8,87.4a.452.452,0,0,1-.093-.048c-3.387-2.327-8.764-5.9-9.7-6.2a3.556,3.556,0,0,0-2.726.393.875.875,0,0,0-.439.654.419.419,0,0,1-.646.336,3.686,3.686,0,0,0-3.484-.441,1.681,1.681,0,0,0-1.047,1.142.419.419,0,0,1-.6.314,3.1,3.1,0,0,0-3.072.157,2.182,2.182,0,0,0-1.114,1.706.422.422,0,0,1-.21.368.417.417,0,0,1-.422,0c-.094-.055-9.39-5.526-11.051-6.553a2.655,2.655,0,0,0-2.982.85,1.234,1.234,0,0,0,.125,1.812c2.833,2.925,15.241,12.373,15.366,12.468a.416.416,0,0,1,.164.3.425.425,0,0,1-.108.322l-3.6,3.944a.412.412,0,0,1-.326.135.417.417,0,0,1-.315-.162c-.017-.022-1.656-2.132-3.51-2a4.952,4.952,0,0,0-2.094.578.477.477,0,0,0-.239.322.435.435,0,0,0,.088.36c1.283,1.6,4.008,4.445,5.519,6a2.9,2.9,0,0,0,3.112.683l8.578-3.281a.416.416,0,0,1,.314.006l8.546,3.646a.42.42,0,0,1-.164.807Z" transform="translate(-1461.044 -78.194)" fill="#32293a"/>
      </g>
      <path id="Trazado_633928" data-name="Trazado 633928" d="M1633.795,167.289l-5.078,15.4-39.992-15.574,6.541-23.1-20-7.882,7.094-20.462L1634.91,132.1a16.718,16.718,0,0,1,9.94,8.44l11.238,22.314-20.065,8.518Z" transform="translate(-73.212 -61.828)" fill="#2ff980"/>
      <path id="Trazado_633929" data-name="Trazado 633929" d="M1649.406,119.89c-1.532,3.924-8.412,9.632-14.46,7.069s-7.043-7.56-5.149-13.345l3-.783a5.919,5.919,0,0,0,4.2-4.122l.559-1.979s-3.765-.166-3.564-5.6,2.525-12.986,2.525-12.986a17.19,17.19,0,0,0,8.976,2.952c-1.229,3.024.883,4.258,1.922,4.662-.615,2.33-.648,4.181,2.1,5.183,3.5-.987,4.584,1.266,4.276,3.125-.247,1.49-1.816,3.493-4.8,1.966l-1.686,6.375a5.936,5.936,0,0,0,.438,4.19Z" transform="translate(-93.595 -51.371)" fill="#f4c7a8"/>
      <g id="Grupo_948579" data-name="Grupo 948579" transform="translate(1517.775 73.146)">
        <path id="Trazado_633930" data-name="Trazado 633930" d="M1601.035,169.885a.4.4,0,0,1-.11-.015.421.421,0,0,1-.294-.516l6.075-22.252a.419.419,0,1,1,.809.222l-6.075,22.252A.419.419,0,0,1,1601.035,169.885Z" transform="translate(-1600.616 -146.793)" fill="#32293a"/>
      </g>
      <g id="Grupo_948580" data-name="Grupo 948580" transform="translate(1552.719 82.64)">
        <path id="Trazado_633931" data-name="Trazado 633931" d="M1667.052,189.428a.421.421,0,0,1-.365-.213l-9.672-17.036a.419.419,0,1,1,.729-.416l9.488,16.711,19.3-8.194-9.261-17.564a.419.419,0,1,1,.74-.393l9.475,17.969a.42.42,0,0,1-.207.583l-20.065,8.519A.418.418,0,0,1,1667.052,189.428Z" transform="translate(-1656.961 -162.1)" fill="#32293a"/>
      </g>
      <g id="Grupo_948581" data-name="Grupo 948581" transform="translate(1501.525 53.332)">
        <path id="Trazado_633932" data-name="Trazado 633932" d="M1594.942,144.124a.42.42,0,0,1-.153-.029l-20.375-8.03,7.358-21.221,13.134,3.918a.42.42,0,0,1-.239.806l-12.365-3.69-6.831,19.7,19.626,7.734a.42.42,0,0,1-.154.811Z" transform="translate(-1574.414 -114.843)" fill="#32293a"/>
      </g>
      <g id="Grupo_948582" data-name="Grupo 948582" transform="translate(1455.905 34.019)">
        <path id="Trazado_633933" data-name="Trazado 633933" d="M1507.286,88.51a.423.423,0,0,1-.231-.069l-6.012-3.968a.42.42,0,0,1,.462-.7l6.011,3.967a.421.421,0,0,1-.231.772Z" transform="translate(-1500.855 -83.702)" fill="#32293a"/>
      </g>
      <g id="Grupo_948583" data-name="Grupo 948583" transform="translate(1451.003 35.169)">
        <path id="Trazado_633934" data-name="Trazado 633934" d="M1500.034,90.962a.417.417,0,0,1-.236-.074l-6.664-4.565a.419.419,0,1,1,.473-.693l6.665,4.565a.421.421,0,0,1-.237.767Z" transform="translate(-1492.95 -85.557)" fill="#32293a"/>
      </g>
      <g id="Grupo_948584" data-name="Grupo 948584" transform="translate(1445.281 36.865)">
        <path id="Trazado_633935" data-name="Trazado 633935" d="M1490.8,93.864a.42.42,0,0,1-.243-.078l-6.661-4.731a.42.42,0,0,1,.484-.686l6.661,4.732a.42.42,0,0,1-.242.763Z" transform="translate(-1483.724 -88.292)" fill="#32293a"/>
      </g>
      <g id="Grupo_948585" data-name="Grupo 948585" transform="translate(1455.814 130.632)">
        <path id="Trazado_633936" data-name="Trazado 633936" d="M1579.569,266.76h-2.5a14.644,14.644,0,0,1-6.936-1.754l-13.338-6.458-29.534-15.955a18.942,18.942,0,0,0-8.915-2.269h-.051a16.484,16.484,0,0,0-16.079,12.707l-.682,2.851a.42.42,0,1,1-.816-.2l.682-2.851a17.322,17.322,0,0,1,16.9-13.351h.053a19.779,19.779,0,0,1,9.31,2.37l29.518,15.947,13.338,6.458a13.818,13.818,0,0,0,6.554,1.661h2.5a12.291,12.291,0,0,0,11.626-8.326l2.382-6.975a.419.419,0,1,1,.793.272l-2.382,6.975A13.128,13.128,0,0,1,1579.569,266.76Z" transform="translate(-1500.707 -239.484)" fill="#faf5ff"/>
      </g>
      <g id="Grupo_948586" data-name="Grupo 948586" transform="translate(1536.845 121.037)">
        <path id="Trazado_633937" data-name="Trazado 633937" d="M1636.91,236.786a.421.421,0,0,1-.177-.04,9.659,9.659,0,0,1-4.523-12.49.419.419,0,1,1,.76.356c-2.328,4.99.957,9.893,4.118,11.374a.42.42,0,0,1-.177.8Z" transform="translate(-1631.364 -224.014)" fill="#faf5ff"/>
      </g>
      <g id="Grupo_948587" data-name="Grupo 948587" transform="translate(1604.912 160.146)">
        <path id="Trazado_633938" data-name="Trazado 633938" d="M1742.346,298.2a.419.419,0,0,1-.417-.387l-.809-10.285a.419.419,0,0,1,.385-.452.4.4,0,0,1,.45.386l.809,10.285a.419.419,0,0,1-.384.452Z" transform="translate(-1741.118 -287.074)" fill="#32293a"/>
      </g>
      <g id="Grupo_948588" data-name="Grupo 948588" transform="translate(1599.919 160.302)">
        <path id="Trazado_633939" data-name="Trazado 633939" d="M1734.576,300.865a.42.42,0,0,1-.417-.385l-1.09-12.7a.419.419,0,1,1,.835-.071l1.09,12.7a.419.419,0,0,1-.381.455Z" transform="translate(-1733.068 -287.325)" fill="#32293a"/>
      </g>
      <g id="Grupo_948589" data-name="Grupo 948589" transform="translate(1594.56 160.146)">
        <path id="Trazado_633940" data-name="Trazado 633940" d="M1726.057,303.352a.419.419,0,0,1-.417-.387l-1.211-15.437a.42.42,0,0,1,.385-.452.412.412,0,0,1,.451.386l1.211,15.437a.42.42,0,0,1-.385.452Z" transform="translate(-1724.427 -287.074)" fill="#32293a"/>
      </g>
      <g id="Grupo_948590" data-name="Grupo 948590" transform="translate(1540.189 51.442)">
        <path id="Trazado_633941" data-name="Trazado 633941" d="M1643.064,116.622c-3.531,0-5.647-1.448-6.3-4.312a.419.419,0,0,1,.316-.5.415.415,0,0,1,.5.316c.606,2.675,2.664,3.861,6.33,3.63a.42.42,0,0,1,.053.838C1643.657,116.612,1643.354,116.622,1643.064,116.622Z" transform="translate(-1636.757 -111.796)" fill="#32293a"/>
      </g>
      <g id="Grupo_948591" data-name="Grupo 948591" transform="translate(1534.797 55.229)">
        <path id="Trazado_633942" data-name="Trazado 633942" d="M1631.4,136.809a.417.417,0,0,1-.275-.1c-5.358-4.686-2.076-11.894-2.042-11.966a.417.417,0,0,1,.281-.23l2.983-.728a4.971,4.971,0,0,0,3.514-3.176l.863-2.424a.419.419,0,1,1,.79.282l-.863,2.424a5.81,5.81,0,0,1-4.106,3.709l-2.781.679c-.466,1.113-2.574,6.873,1.912,10.8a.42.42,0,0,1-.275.737Z" transform="translate(-1628.062 -117.902)" fill="#32293a"/>
      </g>
      <g id="Grupo_948592" data-name="Grupo 948592" transform="translate(1540.977 40.374)">
        <path id="Trazado_633943" data-name="Trazado 633943" d="M1639.258,100.862a.419.419,0,0,1-.344-.179l-.711-1.018a.981.981,0,0,1-.122-.883.949.949,0,0,1,.633-.607c.53-.158,1.452-.514,1.664-1.127a1.488,1.488,0,0,0-.111-1.172,2.294,2.294,0,0,0-1.32-1.1.42.42,0,0,1,.239-.806,3.129,3.129,0,0,1,1.827,1.526,2.3,2.3,0,0,1,.157,1.83,3.168,3.168,0,0,1-2.218,1.658.117.117,0,0,0-.079.078.139.139,0,0,0,.017.123l.712,1.019a.422.422,0,0,1-.1.585A.415.415,0,0,1,1639.258,100.862Z" transform="translate(-1638.027 -93.949)" fill="#32293a"/>
      </g>
      <g id="Grupo_948593" data-name="Grupo 948593" transform="translate(1546.954 43.357)">
        <path id="Trazado_633944" data-name="Trazado 633944" d="M1650.969,101.59a.42.42,0,0,1-.406-.316,2.13,2.13,0,0,0-2.391-1.634.42.42,0,0,1-.177-.821,2.959,2.959,0,0,1,3.38,2.246.421.421,0,0,1-.3.512A.439.439,0,0,1,1650.969,101.59Z" transform="translate(-1647.665 -98.76)" fill="#32293a"/>
      </g>
      <path id="Trazado_633945" data-name="Trazado 633945" d="M1640.127,99.259a.845.845,0,1,1-.471-1.235A.945.945,0,0,1,1640.127,99.259Z" transform="translate(-97.229 -55.111)" fill="#32293a"/>
      <path id="Trazado_633946" data-name="Trazado 633946" d="M1649.013,103.249a.845.845,0,1,1-.471-1.235A.944.944,0,0,1,1649.013,103.249Z" transform="translate(-100.604 -56.627)" fill="#32293a"/>
      <g id="Grupo_948594" data-name="Grupo 948594" transform="translate(1575.697 -1.266)">
        <path id="Trazado_633947" data-name="Trazado 633947" d="M1702.753,42.719a2.415,2.415,0,0,1-1.8-.806l-5.65-6.318a2.42,2.42,0,1,1,3.6-3.234l3.711,4.15,6.223-8.082a2.419,2.419,0,1,1,3.828,2.96l-8,10.387a2.419,2.419,0,0,1-1.825.941Z" transform="translate(-1694.267 -27.065)" fill="#2ff980"/>
        <path id="Trazado_633948" data-name="Trazado 633948" d="M1702.5,42.882a2.837,2.837,0,0,1-2.112-.946l-5.651-6.318a2.85,2.85,0,0,1,.219-4.014,2.772,2.772,0,0,1,2.05-.722,2.812,2.812,0,0,1,1.956.941l3.374,3.774,5.917-7.682a2.839,2.839,0,0,1,4.491,3.474l-8,10.386a2.826,2.826,0,0,1-2.141,1.1Zm-5.652-11.165a1.978,1.978,0,0,0-1.332.512,2.007,2.007,0,0,0-.156,2.827l5.651,6.319a2,2,0,0,0,1.488.666v.42l.07-.422a1.992,1.992,0,0,0,1.512-.778l8-10.387a2,2,0,1,0-3.165-2.448l-6.224,8.082a.42.42,0,0,1-.317.163.432.432,0,0,1-.327-.139l-3.711-4.15a1.983,1.983,0,0,0-1.379-.663C1696.919,31.718,1696.881,31.717,1696.845,31.717Z" transform="translate(-1694.011 -26.808)" fill="#32293a"/>
      </g>
      <g id="Grupo_948595" data-name="Grupo 948595" transform="translate(1541.358 49.095)">
        <path id="Trazado_633949" data-name="Trazado 633949" d="M1640.649,110.113a2.02,2.02,0,0,1-1.25-.431,1.819,1.819,0,0,1-.758-1.256.421.421,0,0,1,.42-.413h.008a.419.419,0,0,1,.412.419,1.245,1.245,0,0,0,.5.636,1.21,1.21,0,0,0,1.047.149.42.42,0,0,1,.228.808A2.246,2.246,0,0,1,1640.649,110.113Z" transform="translate(-1638.642 -108.012)" fill="#32293a"/>
      </g>
      <g id="Grupo_948596" data-name="Grupo 948596" transform="translate(1598.454 65.518)">
        <path id="Trazado_633950" data-name="Trazado 633950" d="M1761.277,202.188a.415.415,0,0,1-.3-.123c-5.867-5.879-6.449-10.655-1.945-15.97,9.085-10.723,11.032-21.272,5.954-32.251-5.55-12-22.275-15.83-31.26-17.887-1.022-.234-1.936-.443-2.708-.636a.42.42,0,0,1,.2-.815c.768.193,1.674.4,2.691.633,9.125,2.088,26.112,5.976,31.835,18.351,5.156,11.15,3.112,22.3-6.077,33.149-4.207,4.966-3.658,9.263,1.9,14.832a.42.42,0,0,1-.3.718Z" transform="translate(-1730.705 -134.493)" fill="#32293a"/>
      </g>
      <g id="Grupo_948597" data-name="Grupo 948597" transform="translate(1486.628 -25.53)">
        <path id="Trazado_633951" data-name="Trazado 633951" d="M1581.96,21.965a.415.415,0,0,1-.164-.034c-4.6-1.957-6.475-7.756-8.643-14.471-.453-1.4-.922-2.852-1.432-4.328-3.861-11.15-10.288-15.6-20.863-14.421a.417.417,0,0,1-.463-.371.42.42,0,0,1,.37-.463c11.021-1.227,17.735,3.391,21.747,14.981.514,1.482.984,2.938,1.438,4.346,2.1,6.519,3.921,12.149,8.173,13.956a.421.421,0,0,1-.164.807Z" transform="translate(-1550.393 12.316)" fill="#32293a"/>
      </g>
      <g id="Grupo_948598" data-name="Grupo 948598" transform="translate(1408.026 97.781)">
        <path id="Trazado_633952" data-name="Trazado 633952" d="M1426.672,192.565a3.025,3.025,0,1,1,3.018-3.025A3.025,3.025,0,0,1,1426.672,192.565Zm0-5.21a2.185,2.185,0,1,0,2.179,2.184A2.185,2.185,0,0,0,1426.672,187.355Z" transform="translate(-1423.653 -186.515)" fill="#32293a"/>
      </g>
      <g id="Grupo_948599" data-name="Grupo 948599" transform="translate(1616.84 43.917)">
        <path id="Trazado_633953" data-name="Trazado 633953" d="M1762.8,104.571a2.455,2.455,0,1,1,2.449-2.455A2.455,2.455,0,0,1,1762.8,104.571Zm0-4.069a1.614,1.614,0,1,0,1.61,1.614A1.615,1.615,0,0,0,1762.8,100.5Z" transform="translate(-1760.351 -99.662)" fill="#32293a"/>
      </g>
      <g id="Grupo_948600" data-name="Grupo 948600" transform="translate(1470.559 -35.303)">
        <path id="Trazado_633954" data-name="Trazado 633954" d="M1526.933-23.165a2.455,2.455,0,0,1-2.45-2.455,2.455,2.455,0,0,1,2.45-2.455,2.455,2.455,0,0,1,2.449,2.455A2.455,2.455,0,0,1,1526.933-23.165Zm0-4.069a1.615,1.615,0,0,0-1.612,1.614A1.615,1.615,0,0,0,1526.933-24a1.615,1.615,0,0,0,1.611-1.614A1.615,1.615,0,0,0,1526.933-27.234Z" transform="translate(-1524.483 28.074)" fill="#32293a"/>
      </g>
      <g id="Grupo_948601" data-name="Grupo 948601" transform="translate(1481.491 -47.107)">
        <path id="Trazado_633955" data-name="Trazado 633955" d="M1546.674-37.962a4.573,4.573,0,0,1-4.563-4.573,4.573,4.573,0,0,1,4.563-4.572,4.572,4.572,0,0,1,4.562,4.572A4.573,4.573,0,0,1,1546.674-37.962Zm0-8.3a3.732,3.732,0,0,0-3.723,3.732,3.732,3.732,0,0,0,3.723,3.732,3.732,3.732,0,0,0,3.724-3.732A3.732,3.732,0,0,0,1546.674-46.267Z" transform="translate(-1542.111 47.107)" fill="#32293a"/>
      </g>
      <g id="Grupo_948602" data-name="Grupo 948602" transform="translate(1395.319 83.408)">
        <path id="Trazado_633956" data-name="Trazado 633956" d="M1408.208,173.449a5.055,5.055,0,1,1,5.043-5.054A5.055,5.055,0,0,1,1408.208,173.449Zm0-9.269a4.214,4.214,0,1,0,4.2,4.215A4.215,4.215,0,0,0,1408.208,164.179Z" transform="translate(-1403.164 -163.339)" fill="#32293a"/>
      </g>
      <g id="Grupo_948603" data-name="Grupo 948603" transform="translate(1504.218 112.567)">
        <path id="Trazado_633957" data-name="Trazado 633957" d="M1598.152,220.566a.426.426,0,0,1-.185-.043l-18.976-9.369a.42.42,0,0,1,.371-.754l18.976,9.369a.42.42,0,0,1-.186.8Z" transform="translate(-1578.756 -210.356)" fill="#faf5ff"/>
      </g>
    </g>
    <rect id="Rectángulo_34836" data-name="Rectángulo 34836" width="295" height="293" transform="translate(285 17859)" fill="none"/>
  </g>
</svg>
