<svg xmlns="http://www.w3.org/2000/svg" width="292.285" height="350.791" viewBox="0 0 292.285 350.791">
  <g id="Grupo_950093" data-name="Grupo 950093" transform="translate(-2411.875 -116.125)">
    <path id="Trazado_633338" data-name="Trazado 633338" d="M2602.854,141.775c25.517,11.72,25.41,28.715,38.146,46.2,13.256,18.2,44.7,21.433,48.66,40.67,3.948,19.2-21.383,19.41-21.383,45.938s39.883,79.706,28.367,118.818c-11.416,38.771-53.646,61.45-129.4,56.505-75.534-4.93-139.337-46.814-139.337-97.892,0-41.747,39.6-37.124,51.207-56.255,15.554-25.639-18.192-56.947,13.667-100.788C2527.662,146.979,2570.256,126.8,2602.854,141.775Z" transform="translate(-3.633 -4.712)" fill="#b6fdd3"/>
    <g id="Grupo_948331" data-name="Grupo 948331" transform="translate(2423.752 422.799)">
      <rect id="Rectángulo_34587" data-name="Rectángulo 34587" width="134.689" height="43.07" rx="8.692" transform="translate(0.522 0.524)" fill="#fffdf7"/>
      <path id="Trazado_633339" data-name="Trazado 633339" d="M2555.729,556.78H2434.47a7.254,7.254,0,0,1-7.237-7.254v-29.61a7.254,7.254,0,0,1,7.237-7.253h121.259a7.254,7.254,0,0,1,7.239,7.253v29.61A7.254,7.254,0,0,1,2555.729,556.78ZM2434.47,513.711a6.206,6.206,0,0,0-6.192,6.206v29.61a6.206,6.206,0,0,0,6.192,6.206h121.259a6.206,6.206,0,0,0,6.193-6.206v-29.61a6.206,6.206,0,0,0-6.193-6.206Z" transform="translate(-2427.233 -512.663)" fill="#32293a"/>
    </g>
    <g id="Grupo_948332" data-name="Grupo 948332" transform="translate(2639.443 282.562)">
      <path id="Rectángulo_34588" data-name="Rectángulo 34588" d="M18.217,0H45.455A18.216,18.216,0,0,1,63.671,18.216V45.593A18.216,18.216,0,0,1,45.455,63.81H18.217A18.217,18.217,0,0,1,0,45.593V18.217A18.217,18.217,0,0,1,18.217,0Z" transform="translate(0.523 0.524)" fill="#fffdf7"/>
      <path id="Trazado_633340" data-name="Trazado 633340" d="M2756.248,396.19h-35.524a14.628,14.628,0,0,1-14.6-14.627v-35.6a14.629,14.629,0,0,1,14.6-14.628h35.524a14.628,14.628,0,0,1,14.6,14.628v35.6A14.628,14.628,0,0,1,2756.248,396.19Zm-35.524-63.809a13.581,13.581,0,0,0-13.551,13.58v35.6a13.58,13.58,0,0,0,13.551,13.579h35.524a13.58,13.58,0,0,0,13.55-13.579v-35.6a13.581,13.581,0,0,0-13.55-13.58Z" transform="translate(-2706.127 -331.333)" fill="#32293a"/>
    </g>
    <g id="Grupo_948339" data-name="Grupo 948339" transform="translate(2446.594 135.632)">
      <path id="Trazado_633341" data-name="Trazado 633341" d="M2569.051,200.17v64.36a9.051,9.051,0,0,1-9.037,9.065h-93.535a9.051,9.051,0,0,1-9.038-9.065V200.17Z" transform="translate(-2456.92 -154.678)" fill="#fffdf7"/>
      <path id="Trazado_633342" data-name="Trazado 633342" d="M2569.051,189.538v6.168H2457.442v-6.168a9.051,9.051,0,0,1,9.038-9.065h93.535A9.051,9.051,0,0,1,2569.051,189.538Z" transform="translate(-2456.92 -150.215)" fill="#2ff980"/>
      <g id="Grupo_948333" data-name="Grupo 948333" transform="translate(0 44.967)">
        <path id="Trazado_633343" data-name="Trazado 633343" d="M2559.861,273.964h-93.535a9.584,9.584,0,0,1-9.559-9.588V199.492h31.419a.524.524,0,0,1,0,1.048h-30.374v63.836a8.536,8.536,0,0,0,8.513,8.54h93.535a8.536,8.536,0,0,0,8.514-8.54V200.54h-27.859a.524.524,0,0,1,0-1.048h28.905v64.884A9.585,9.585,0,0,1,2559.861,273.964Z" transform="translate(-2456.767 -199.492)" fill="#32293a"/>
      </g>
      <g id="Grupo_948334" data-name="Grupo 948334" transform="translate(0 29.735)">
        <path id="Trazado_633344" data-name="Trazado 633344" d="M2488.186,196.076h-31.419v-6.692a9.584,9.584,0,0,1,9.559-9.588h16.631a.524.524,0,0,1,0,1.048h-16.631a8.537,8.537,0,0,0-8.513,8.54v5.644h30.374a.524.524,0,0,1,0,1.048Z" transform="translate(-2456.767 -179.796)" fill="#32293a"/>
      </g>
      <g id="Grupo_948335" data-name="Grupo 948335" transform="translate(83.226 29.735)">
        <path id="Trazado_633345" data-name="Trazado 633345" d="M2593.809,196.076h-28.9a.524.524,0,0,1,0-1.048h27.859v-5.644a8.537,8.537,0,0,0-8.514-8.54h-14.4a.524.524,0,0,1,0-1.048h14.4a9.586,9.586,0,0,1,9.56,9.588Z" transform="translate(-2564.381 -179.796)" fill="#32293a"/>
      </g>
      <rect id="Rectángulo_34589" data-name="Rectángulo 34589" width="95.504" height="24.097" rx="7.57" transform="translate(8.742 54.139)" fill="#e0feec"/>
      <rect id="Rectángulo_34590" data-name="Rectángulo 34590" width="95.504" height="24.097" rx="7.57" transform="translate(8.742 86.463)" fill="#e0feec"/>
      <g id="Grupo_948336" data-name="Grupo 948336" transform="translate(30.206 0)">
        <ellipse id="Elipse_5394" data-name="Elipse 5394" cx="26.739" cy="26.797" rx="26.739" ry="26.797" transform="translate(0.523 0.524)" fill="#fffdf7"/>
        <path id="Trazado_633346" data-name="Trazado 633346" d="M2523.086,195.99a27.321,27.321,0,1,1,27.261-27.321A27.323,27.323,0,0,1,2523.086,195.99Zm0-53.594a26.273,26.273,0,1,0,26.215,26.273A26.274,26.274,0,0,0,2523.086,142.4Z" transform="translate(-2495.824 -141.348)" fill="#32293a"/>
      </g>
      <g id="Grupo_948337" data-name="Grupo 948337" transform="translate(40.5 28.245)">
        <path id="Trazado_633347" data-name="Trazado 633347" d="M2542.069,184.921a2.792,2.792,0,0,1,.323,3.616,19.717,19.717,0,0,1-32.037.309,2.793,2.793,0,0,1,.264-3.619,22.21,22.21,0,0,1,31.45-.305Z" transform="translate(-2509.288 -178.023)" fill="#25c766"/>
        <path id="Trazado_633348" data-name="Trazado 633348" d="M2526.1,197.284a20.354,20.354,0,0,1-16.32-8.281,3.316,3.316,0,0,1,.312-4.3,22.73,22.73,0,0,1,32.19-.312h0a3.315,3.315,0,0,1,.384,4.292A20.339,20.339,0,0,1,2526.1,197.284Zm.244-18.367a21.517,21.517,0,0,0-15.505,6.523,2.269,2.269,0,0,0-.218,2.942,19.2,19.2,0,0,0,31.191-.3,2.269,2.269,0,0,0-.264-2.939h0A21.546,21.546,0,0,0,2526.345,178.917Z" transform="translate(-2509.135 -177.869)" fill="#32293a"/>
      </g>
      <g id="Grupo_948338" data-name="Grupo 948338" transform="translate(50.423 11.233)">
        <path id="Trazado_633349" data-name="Trazado 633349" d="M2522.642,163.086a6.522,6.522,0,1,1,6.522,6.536A6.529,6.529,0,0,1,2522.642,163.086Z" transform="translate(-2522.119 -156.026)" fill="#25c766"/>
        <path id="Trazado_633350" data-name="Trazado 633350" d="M2529.01,169.992a7.06,7.06,0,1,1,7.044-7.06A7.06,7.06,0,0,1,2529.01,169.992Zm0-13.072a6.012,6.012,0,1,0,6,6.011A6.012,6.012,0,0,0,2529.01,156.92Z" transform="translate(-2521.966 -155.872)" fill="#32293a"/>
      </g>
    </g>
    <path id="Trazado_633351" data-name="Trazado 633351" d="M2661.024,187.055c2.752,4.542-2.377,8.257-5.169,11.211-7.454,7.885-14.569-6.871-14.569-6.871l-7.425-8.491c-4.273-7.288,1.589-11.548,12.568-10.526,5.08.473,8.851,3.222,9.908,8.111C2657.075,183.9,2659.749,184.952,2661.024,187.055Z" transform="translate(-49.989 -12.714)" fill="#32293a"/>
    <g id="Grupo_948345" data-name="Grupo 948345" transform="translate(2582.514 411.472)">
      <rect id="Rectángulo_34591" data-name="Rectángulo 34591" width="21.595" height="22.582" transform="translate(6.294)" fill="#f4c7a8"/>
      <path id="Trazado_633352" data-name="Trazado 633352" d="M2661.909,511.259h-.841a2.643,2.643,0,0,0-2.335,1.407l-1.694,3.194h-15.392l-1.694-3.194a2.642,2.642,0,0,0-2.334-1.407h-.841a3.73,3.73,0,0,0-3.728,3.736v24.23a4.33,4.33,0,0,0,4.325,4.336h23.935a4.331,4.331,0,0,0,4.326-4.336V515A3.731,3.731,0,0,0,2661.909,511.259Z" transform="translate(-2632.637 -501.018)" fill="#2ff980"/>
      <path id="Trazado_633353" data-name="Trazado 633353" d="M2645.028,514.555v-2.01a7.038,7.038,0,0,1,7.03-7.046h0a7.038,7.038,0,0,1,7.03,7.046v2.01Z" transform="translate(-2635.351 -499.713)" fill="#2ff980"/>
      <g id="Grupo_948340" data-name="Grupo 948340" transform="translate(9.154 14.318)">
        <path id="Trazado_633354" data-name="Trazado 633354" d="M2659.088,517.208l-2.208,15.627a3.324,3.324,0,0,1-3.289,2.862h-3.066a3.324,3.324,0,0,1-3.288-2.862l-2.209-15.627Z" transform="translate(-2644.506 -516.685)" fill="#2ff980"/>
        <path id="Trazado_633355" data-name="Trazado 633355" d="M2653.438,536.067h-3.066a3.863,3.863,0,0,1-3.8-3.313l-2.209-15.626a.522.522,0,1,1,1.034-.147l2.209,15.627a2.812,2.812,0,0,0,2.77,2.411h3.066a2.813,2.813,0,0,0,2.771-2.411l2.209-15.627a.522.522,0,1,1,1.034.147l-2.209,15.627A3.862,3.862,0,0,1,2653.438,536.067Z" transform="translate(-2644.353 -516.531)" fill="#32293a"/>
      </g>
      <g id="Grupo_948341" data-name="Grupo 948341" transform="translate(10.002 18.784)">
        <path id="Trazado_633356" data-name="Trazado 633356" d="M2646.125,522.984h0Z" transform="translate(-2645.602 -522.46)" fill="#ffcc38"/>
        <path id="Trazado_633357" data-name="Trazado 633357" d="M2658.552,523.354h-12.58a.524.524,0,0,1,0-1.048h12.58a.524.524,0,0,1,0,1.048Z" transform="translate(-2645.449 -522.306)" fill="#32293a"/>
      </g>
      <g id="Grupo_948342" data-name="Grupo 948342" transform="translate(11.147 23.554)">
        <path id="Trazado_633358" data-name="Trazado 633358" d="M2647.606,529.15h0Z" transform="translate(-2647.082 -528.626)" fill="#ffcc38"/>
        <path id="Trazado_633359" data-name="Trazado 633359" d="M2657.742,529.521h-10.291a.524.524,0,0,1,0-1.048h10.291a.524.524,0,0,1,0,1.048Z" transform="translate(-2646.929 -528.473)" fill="#32293a"/>
      </g>
      <g id="Grupo_948343" data-name="Grupo 948343" transform="translate(11.618 28.387)">
        <path id="Trazado_633360" data-name="Trazado 633360" d="M2648.215,535.4h0Z" transform="translate(-2647.692 -534.876)" fill="#ffcc38"/>
        <path id="Trazado_633361" data-name="Trazado 633361" d="M2657.409,535.77h-9.347a.524.524,0,0,1,0-1.048h9.347a.524.524,0,0,1,0,1.048Z" transform="translate(-2647.539 -534.722)" fill="#32293a"/>
      </g>
      <g id="Grupo_948344" data-name="Grupo 948344" transform="translate(0 37.925)">
        <path id="Trazado_633362" data-name="Trazado 633362" d="M2661.3,558.68h-23.935a4.86,4.86,0,0,1-4.848-4.86v-6.24a.523.523,0,1,1,1.045,0v6.24a3.812,3.812,0,0,0,3.8,3.811H2661.3a3.812,3.812,0,0,0,3.8-3.811v-6.24a.523.523,0,1,1,1.046,0v6.24A4.861,4.861,0,0,1,2661.3,558.68Z" transform="translate(-2632.516 -547.055)" fill="#32293a"/>
      </g>
    </g>
    <path id="Trazado_633363" data-name="Trazado 633363" d="M2587,246.753l-6.03,7.237,17.521,15.717,6.45-7.934Z" transform="translate(-38.321 -29.603)" fill="#f4c7a8"/>
    <g id="Grupo_948352" data-name="Grupo 948352" transform="translate(2474.959 379.429)">
      <rect id="Rectángulo_34592" data-name="Rectángulo 34592" width="21.595" height="18.528" transform="translate(59.867 18.528) rotate(180)" fill="#f4c7a8"/>
      <path id="Trazado_633364" data-name="Trazado 633364" d="M2557.473,472.643V471.1a3.038,3.038,0,0,0-3.034-3.041h-1.009a3.033,3.033,0,0,0-2.706,1.666l-1.432,2.829a3.033,3.033,0,0,1-2.706,1.666h-8.731a3.033,3.033,0,0,1-2.466-1.269l-4.83-6.753a3.032,3.032,0,0,0-2.466-1.269h0a3.727,3.727,0,0,0-2.23.979c-8.376,6.463-17.408,12.859-26.178,18.577-1.418.924-2.85,1.82-3.391,3.425l-2.173,6.443h63.16Z" transform="translate(-2493.597 -458.477)" fill="#2ff980"/>
      <g id="Grupo_948346" data-name="Grupo 948346" transform="translate(0 35.356)">
        <path id="Trazado_633365" data-name="Trazado 633365" d="M2555.175,511.363h-59.257a2.48,2.48,0,0,1-2.474-2.48v-6.056a.523.523,0,1,1,1.045,0v6.056a1.432,1.432,0,0,0,1.428,1.432h59.257a1.431,1.431,0,0,0,1.429-1.432v-6.056a.523.523,0,1,1,1.046,0v6.056A2.481,2.481,0,0,1,2555.175,511.363Z" transform="translate(-2493.444 -502.302)" fill="#32293a"/>
      </g>
      <g id="Grupo_948347" data-name="Grupo 948347" transform="translate(50.55 22.87)">
        <path id="Trazado_633366" data-name="Trazado 633366" d="M2559.683,499.454l-.876-.572,6.462-9.937a6.1,6.1,0,0,1,5.131-2.787h1.732V487.2H2570.4a5.058,5.058,0,0,0-4.255,2.312Z" transform="translate(-2558.807 -486.157)" fill="#32293a"/>
      </g>
      <g id="Grupo_948348" data-name="Grupo 948348" transform="translate(11.655 10.207)">
        <path id="Trazado_633367" data-name="Trazado 633367" d="M2514.312,488.227a3.147,3.147,0,0,1-.643-.067,3.055,3.055,0,0,1-1.946-1.341l-3.21-4.964.877-.57,3.209,4.964a2.031,2.031,0,0,0,2.818.6l12.475-8.176a2.04,2.04,0,0,0,.526-2.909L2524.5,470.4l.844-.619,3.92,5.358a3.09,3.09,0,0,1-.8,4.406l-12.473,8.175A3.048,3.048,0,0,1,2514.312,488.227Z" transform="translate(-2508.514 -469.783)" fill="#32293a"/>
      </g>
      <g id="Grupo_948349" data-name="Grupo 948349" transform="translate(23.642 13.076)">
        <path id="Trazado_633368" data-name="Trazado 633368" d="M2524.69,474.169l4.886,6.974Z" transform="translate(-2524.167 -473.646)" fill="#ffcc38"/>
        <path id="Trazado_633369" data-name="Trazado 633369" d="M2529.423,481.514a.521.521,0,0,1-.428-.224l-4.886-6.974a.523.523,0,1,1,.855-.6l4.886,6.974a.524.524,0,0,1-.428.825Z" transform="translate(-2524.014 -473.493)" fill="#32293a"/>
      </g>
      <g id="Grupo_948350" data-name="Grupo 948350" transform="translate(19.729 15.838)">
        <path id="Trazado_633370" data-name="Trazado 633370" d="M2519.63,477.74l4.886,6.974Z" transform="translate(-2519.107 -477.217)" fill="#ffcc38"/>
        <path id="Trazado_633371" data-name="Trazado 633371" d="M2524.363,485.085a.523.523,0,0,1-.428-.224l-4.886-6.974a.523.523,0,1,1,.855-.6l4.886,6.974a.524.524,0,0,1-.428.825Z" transform="translate(-2518.954 -477.064)" fill="#32293a"/>
      </g>
      <g id="Grupo_948351" data-name="Grupo 948351" transform="translate(15.741 18.432)">
        <path id="Trazado_633372" data-name="Trazado 633372" d="M2514.474,481.094l4.886,6.974Z" transform="translate(-2513.951 -480.571)" fill="#ffcc38"/>
        <path id="Trazado_633373" data-name="Trazado 633373" d="M2519.208,488.438a.521.521,0,0,1-.428-.223l-4.887-6.974a.523.523,0,1,1,.855-.6l4.887,6.974a.523.523,0,0,1-.428.824Z" transform="translate(-2513.798 -480.418)" fill="#32293a"/>
      </g>
    </g>
    <path id="Trazado_633374" data-name="Trazado 633374" d="M2626.766,221.783l-9.644-3.675a12.3,12.3,0,0,0-13.747,3.53l-14.606,18.44,17.941,15.02,6.74-7v29.156h43.886V258.931l3.387,6.011,21.623-9.224-15.193-26.625a9.657,9.657,0,0,0-9.953-4.749l-13.054,2.145Z" transform="translate(-40.088 -22.929)" fill="#2ff980"/>
    <path id="Trazado_633375" data-name="Trazado 633375" d="M2601.226,294.824v14.242l-54.1,29.151a23.435,23.435,0,0,0-12.306,20.634v61.54a2.883,2.883,0,0,0,2.916,2.886l29.2-.359a2.884,2.884,0,0,0,2.845-2.886V368.485l40.559-23.552.993,109.035a2.884,2.884,0,0,0,2.881,2.861h28.011a2.884,2.884,0,0,0,2.881-2.887V294.824Z" transform="translate(-27.863 -40.497)" fill="#32293a"/>
    <path id="Trazado_633376" data-name="Trazado 633376" d="M2655.609,219.381c-.4,6.409-7.3,12.664-14.132,11.075s-7.315-11.854-4.489-15.685a18.853,18.853,0,0,0,2.089-.814,3.893,3.893,0,0,0,2.367-3.315l.166-2.369c-5.22,1.06-11.7-6.148-7.7-22.239,2.092,3.312,10.387,5.169,13.6,3.487.169,3.869,3.306,4.143,3.306,4.143l-.224,4.938c5.467-2.179,8.221,4.732,3.033,6.551.029.056-.473,4.706-.7,6.827a3.9,3.9,0,0,0,.308,1.988Z" transform="translate(-50.036 -15.843)" fill="#f4c7a8"/>
    <g id="Grupo_948353" data-name="Grupo 948353" transform="translate(2493.792 198.815)">
      <path id="Trazado_633377" data-name="Trazado 633377" d="M2644.92,333.9l-4.939,5.53a11.183,11.183,0,0,1-15.816.878l-101.97-91.47a11.242,11.242,0,0,1-.875-15.85l4.938-5.53a11.184,11.184,0,0,1,15.816-.878l101.97,91.469A11.243,11.243,0,0,1,2644.92,333.9Z" transform="translate(-2517.947 -223.199)" fill="#fffdf7"/>
      <path id="Trazado_633378" data-name="Trazado 633378" d="M2631.478,343.537a11.667,11.667,0,0,1-7.813-2.988l-101.971-91.47a11.781,11.781,0,0,1-.915-16.59l4.939-5.53a11.705,11.705,0,0,1,16.553-.918l101.97,91.469a11.765,11.765,0,0,1,.917,16.59l-4.939,5.53A11.685,11.685,0,0,1,2631.478,343.537Zm-97.012-119.444c-.2,0-.4.005-.6.016a10.6,10.6,0,0,0-7.366,3.547l-4.94,5.53a10.731,10.731,0,0,0,.836,15.111l101.971,91.469a10.674,10.674,0,0,0,15.078-.837l4.939-5.53a10.717,10.717,0,0,0-.837-15.11l-101.971-91.47A10.586,10.586,0,0,0,2534.466,224.094Zm110.3,109.657h0Z" transform="translate(-2517.796 -223.046)" fill="#32293a"/>
    </g>
    <g id="Grupo_948363" data-name="Grupo 948363" transform="translate(2504.731 210.733)">
      <g id="Grupo_948354" data-name="Grupo 948354">
        <path id="Trazado_633379" data-name="Trazado 633379" d="M2532.617,242.374a3.234,3.234,0,1,1,3.234,3.241A3.237,3.237,0,0,1,2532.617,242.374Z" transform="translate(-2532.094 -238.61)" fill="#fffdf7"/>
        <path id="Trazado_633380" data-name="Trazado 633380" d="M2535.7,239.5a2.717,2.717,0,1,0,2.711,2.718A2.717,2.717,0,0,0,2535.7,239.5Zm0,6.482a3.765,3.765,0,1,1,3.757-3.765A3.765,3.765,0,0,1,2535.7,245.986Z" transform="translate(-2531.941 -238.456)" fill="#32293a"/>
      </g>
      <g id="Grupo_948355" data-name="Grupo 948355" transform="translate(12.621 11.304)">
        <path id="Trazado_633381" data-name="Trazado 633381" d="M2548.936,256.991a3.234,3.234,0,1,1,3.234,3.241A3.237,3.237,0,0,1,2548.936,256.991Z" transform="translate(-2548.413 -253.227)" fill="#fffdf7"/>
        <path id="Trazado_633382" data-name="Trazado 633382" d="M2552.017,254.121a2.717,2.717,0,1,0,2.711,2.718A2.718,2.718,0,0,0,2552.017,254.121Zm0,6.482a3.765,3.765,0,1,1,3.756-3.765A3.766,3.766,0,0,1,2552.017,260.6Z" transform="translate(-2548.26 -253.073)" fill="#32293a"/>
      </g>
      <g id="Grupo_948356" data-name="Grupo 948356" transform="translate(25.242 22.609)">
        <path id="Trazado_633383" data-name="Trazado 633383" d="M2565.256,271.609a3.234,3.234,0,1,1,3.234,3.24A3.237,3.237,0,0,1,2565.256,271.609Z" transform="translate(-2564.732 -267.844)" fill="#fffdf7"/>
        <path id="Trazado_633384" data-name="Trazado 633384" d="M2568.336,268.739a2.717,2.717,0,1,0,2.711,2.717A2.717,2.717,0,0,0,2568.336,268.739Zm0,6.482a3.765,3.765,0,1,1,3.757-3.765A3.766,3.766,0,0,1,2568.336,275.22Z" transform="translate(-2564.579 -267.69)" fill="#32293a"/>
      </g>
      <g id="Grupo_948357" data-name="Grupo 948357" transform="translate(37.863 33.913)">
        <path id="Trazado_633385" data-name="Trazado 633385" d="M2581.575,286.226a3.234,3.234,0,1,1,3.234,3.24A3.237,3.237,0,0,1,2581.575,286.226Z" transform="translate(-2581.052 -282.461)" fill="#fffdf7"/>
        <path id="Trazado_633386" data-name="Trazado 633386" d="M2584.656,283.356a2.717,2.717,0,1,0,2.711,2.717A2.717,2.717,0,0,0,2584.656,283.356Zm0,6.482a3.765,3.765,0,1,1,3.756-3.765A3.765,3.765,0,0,1,2584.656,289.837Z" transform="translate(-2580.899 -282.307)" fill="#32293a"/>
      </g>
      <g id="Grupo_948358" data-name="Grupo 948358" transform="translate(50.484 45.219)">
        <path id="Trazado_633387" data-name="Trazado 633387" d="M2597.9,300.843a3.234,3.234,0,1,1,3.233,3.241A3.238,3.238,0,0,1,2597.9,300.843Z" transform="translate(-2597.371 -297.078)" fill="#fffdf7"/>
        <path id="Trazado_633388" data-name="Trazado 633388" d="M2600.975,297.973a2.717,2.717,0,1,0,2.711,2.717A2.717,2.717,0,0,0,2600.975,297.973Zm0,6.482a3.765,3.765,0,1,1,3.757-3.765A3.765,3.765,0,0,1,2600.975,304.455Z" transform="translate(-2597.218 -296.925)" fill="#32293a"/>
      </g>
      <g id="Grupo_948359" data-name="Grupo 948359" transform="translate(63.105 56.523)">
        <path id="Trazado_633389" data-name="Trazado 633389" d="M2614.214,315.46a3.234,3.234,0,1,1,3.234,3.241A3.238,3.238,0,0,1,2614.214,315.46Z" transform="translate(-2613.69 -311.695)" fill="#fffdf7"/>
        <path id="Trazado_633390" data-name="Trazado 633390" d="M2617.295,312.59a2.717,2.717,0,1,0,2.71,2.717A2.717,2.717,0,0,0,2617.295,312.59Zm0,6.482a3.765,3.765,0,1,1,3.756-3.765A3.766,3.766,0,0,1,2617.295,319.072Z" transform="translate(-2613.537 -311.542)" fill="#32293a"/>
      </g>
      <g id="Grupo_948360" data-name="Grupo 948360" transform="translate(75.726 67.828)">
        <path id="Trazado_633391" data-name="Trazado 633391" d="M2630.533,330.077a3.234,3.234,0,1,1,3.234,3.241A3.238,3.238,0,0,1,2630.533,330.077Z" transform="translate(-2630.01 -326.313)" fill="#fffdf7"/>
        <path id="Trazado_633392" data-name="Trazado 633392" d="M2633.614,327.207a2.717,2.717,0,1,0,2.711,2.718A2.718,2.718,0,0,0,2633.614,327.207Zm0,6.482a3.765,3.765,0,1,1,3.757-3.765A3.766,3.766,0,0,1,2633.614,333.689Z" transform="translate(-2629.857 -326.159)" fill="#32293a"/>
      </g>
      <g id="Grupo_948361" data-name="Grupo 948361" transform="translate(88.347 79.132)">
        <path id="Trazado_633393" data-name="Trazado 633393" d="M2646.853,344.694a3.234,3.234,0,1,1,3.234,3.241A3.237,3.237,0,0,1,2646.853,344.694Z" transform="translate(-2646.329 -340.93)" fill="#fffdf7"/>
        <path id="Trazado_633394" data-name="Trazado 633394" d="M2649.934,341.824a2.717,2.717,0,1,0,2.711,2.718A2.718,2.718,0,0,0,2649.934,341.824Zm0,6.482a3.765,3.765,0,1,1,3.757-3.765A3.766,3.766,0,0,1,2649.934,348.306Z" transform="translate(-2646.176 -340.776)" fill="#32293a"/>
      </g>
      <g id="Grupo_948362" data-name="Grupo 948362" transform="translate(100.968 90.436)">
        <path id="Trazado_633395" data-name="Trazado 633395" d="M2663.172,359.312a3.234,3.234,0,1,1,3.234,3.241A3.237,3.237,0,0,1,2663.172,359.312Z" transform="translate(-2662.648 -355.547)" fill="#fffdf7"/>
        <path id="Trazado_633396" data-name="Trazado 633396" d="M2666.253,356.441a2.717,2.717,0,1,0,2.712,2.718A2.718,2.718,0,0,0,2666.253,356.441Zm0,6.482a3.765,3.765,0,1,1,3.757-3.765A3.766,3.766,0,0,1,2666.253,362.923Z" transform="translate(-2662.495 -355.393)" fill="#32293a"/>
      </g>
    </g>
    <path id="Trazado_633397" data-name="Trazado 633397" d="M2666.106,276.2l4.343,8.984-36.6,21.539s-12.175-3.366-14.208-3.967-3.059,2.449-1,3.967c1.526,1.124,6.009,5.029,6.009,5.029s-9.175,8.542-11.309,10.494c-2.62,2.4,1.569,7.226,4.377,4.906-2.708,2.445,2.387,6.215,4.769,4.009-2.228,2.123,2.54,6.219,4.827,3.564-1.6,2.44,2.895,4.535,4.823,2.613s16.6-15.754,16.6-15.754L2690,297.935a12.125,12.125,0,0,0,4.926-15.687l-7.2-15.272Z" transform="translate(-45.47 -34.186)" fill="#f4c7a8"/>
    <path id="Trazado_633398" data-name="Trazado 633398" d="M2566.285,292.656l-4.247,4.4a11.7,11.7,0,0,1-17.655-.925l-14.049-17.982a8.841,8.841,0,0,1-1.325-2.38l-5.247-14.232a5.923,5.923,0,0,1,1.252-6.124c3.479-3.675,9.389-9.987,10.265-10.987,1.966-2.244,4.992,1,3.6,3.184-.006.089,1.943-1.982,1.943-1.982,1.288-1.541,5.18.474,3.288,3.533l-1.515,2.723c2.287-2.615,5.879-.2,4.253,2.958a26.094,26.094,0,0,1-2.111,3.336c1.817-2.319,5.274.528,3.8,2.943s-3.318,5.967-3.318,5.967c4.237,1.1,3.947,5.788,3.257,9.541Z" transform="translate(-25.273 -28.904)" fill="#f4c7a8"/>
    <g id="Grupo_948364" data-name="Grupo 948364" transform="translate(2566.517 267.968)">
      <path id="Trazado_633399" data-name="Trazado 633399" d="M2630,348.924a4.362,4.362,0,0,1-2.7-.939,2.529,2.529,0,0,1-1-1.732,3.149,3.149,0,0,1-1.786.082,4.477,4.477,0,0,1-3.194-2.878,2.533,2.533,0,0,1-.09-.865,3.883,3.883,0,0,1-1.944-.135,4.348,4.348,0,0,1-2.966-2.889,2.423,2.423,0,0,1-.011-1,3.986,3.986,0,0,1-3.4-1.474c-1.165-1.346-1.688-3.46-.088-4.925,1.857-1.7,9.047-8.388,10.881-10.093-1.166-1.009-4.325-3.728-5.536-4.62a3.055,3.055,0,0,1-1.06-3.786,2.053,2.053,0,0,1,2.513-1.107c1.858.551,12.352,3.454,13.986,3.906l4.354-2.561a.523.523,0,1,1,.528.9l-4.544,2.674a.527.527,0,0,1-.4.053c-.123-.034-12.2-3.373-14.218-3.971a1.02,1.02,0,0,0-1.281.568,2.008,2.008,0,0,0,.741,2.476c1.525,1.125,5.859,4.9,6.043,5.056a.524.524,0,0,1,.013.779s-9.179,8.545-11.314,10.5c-1.083.991-.67,2.49.173,3.464.865,1,2.334,1.629,3.521.65a.523.523,0,0,1,.682.793,1.512,1.512,0,0,0-.566,1.5,3.32,3.32,0,0,0,2.258,2.113,2.385,2.385,0,0,0,2.372-.374.523.523,0,0,1,.714.764,1.262,1.262,0,0,0-.357,1.33,3.415,3.415,0,0,0,2.417,2.135,1.96,1.96,0,0,0,2.012-.622.523.523,0,0,1,.833.63,1.292,1.292,0,0,0,.367,1.852,2.933,2.933,0,0,0,3.65.1c1.912-1.906,16.468-15.627,16.615-15.765a.562.562,0,0,1,.1-.073l23.461-13.448a.523.523,0,0,1,.52.909L2648.9,332.316c-.9.848-14.7,13.86-16.548,15.7A3.275,3.275,0,0,1,2630,348.924Z" transform="translate(-2611.831 -312.463)" fill="#32293a"/>
    </g>
    <g id="Grupo_948365" data-name="Grupo 948365" transform="translate(2497.595 214.239)">
      <path id="Trazado_633400" data-name="Trazado 633400" d="M2544.229,296.5a.521.521,0,0,1-.411-.2l-14.049-17.981a9.36,9.36,0,0,1-1.4-2.522l-5.247-14.233a6.41,6.41,0,0,1,1.362-6.665c3.556-3.753,9.384-9.981,10.253-10.972a2.453,2.453,0,0,1,3.5-.368,3.485,3.485,0,0,1,1.345,2.3c.231-.241.473-.5.706-.744a2.6,2.6,0,0,1,3.453-.076,2.988,2.988,0,0,1,.657,4.244l-.509.916a3.016,3.016,0,0,1,2.433.411,3.211,3.211,0,0,1,.833,4.319c-.312.608-.663,1.2-.99,1.71a2.914,2.914,0,0,1,1.7.544,3.018,3.018,0,0,1,.954,4.057c-1.106,1.806-2.431,4.286-3.008,5.38,4.544,1.64,3.771,7.036,3.376,9.236l3.42,3.067a.523.523,0,0,1-.7.78l-3.638-3.263a.523.523,0,0,1-.165-.486c.92-5.008-.091-7.713-3.182-8.514a.523.523,0,0,1-.347-.294.528.528,0,0,1,.013-.454c.019-.036,1.868-3.6,3.337-6a1.958,1.958,0,0,0-.66-2.649,1.574,1.574,0,0,0-2.281.3.523.523,0,0,1-.827-.64,25.869,25.869,0,0,0,2.063-3.259,2.073,2.073,0,1,0-3.4-2.373.523.523,0,0,1-.849-.6l1.514-2.723a1.96,1.96,0,0,0-.368-2.864c-.638-.461-1.605-.622-2.061-.077-2.166,2.3-2.167,2.3-2.554,2.128a.528.528,0,0,1-.313-.517.514.514,0,0,1,.081-.247,2.162,2.162,0,0,0-.674-2.779,1.43,1.43,0,0,0-2.09.222c-.875,1-6.718,7.243-10.278,11a5.369,5.369,0,0,0-1.142,5.581l5.248,14.233a8.309,8.309,0,0,0,1.246,2.239l14.048,17.981a.523.523,0,0,1-.411.847Z" transform="translate(-2522.714 -242.99)" fill="#32293a"/>
    </g>
    <g id="Grupo_948366" data-name="Grupo 948366" transform="translate(2571.731 287.536)">
      <path id="Trazado_633401" data-name="Trazado 633401" d="M2619.095,343.718a.52.52,0,0,1-.376-.161.526.526,0,0,1,.013-.741l5.083-4.9a.523.523,0,0,1,.726.754l-5.083,4.906A.523.523,0,0,1,2619.095,343.718Z" transform="translate(-2618.573 -337.765)" fill="#32293a"/>
    </g>
    <g id="Grupo_948367" data-name="Grupo 948367" transform="translate(2576.345 291.553)">
      <path id="Trazado_633402" data-name="Trazado 633402" d="M2625.062,348.912a.52.52,0,0,1-.376-.161.525.525,0,0,1,.013-.741l5.082-4.906a.524.524,0,0,1,.726.755l-5.082,4.906A.523.523,0,0,1,2625.062,348.912Z" transform="translate(-2624.54 -342.958)" fill="#32293a"/>
    </g>
    <g id="Grupo_948368" data-name="Grupo 948368" transform="translate(2581.069 295.034)">
      <path id="Trazado_633403" data-name="Trazado 633403" d="M2631.17,353.744a.524.524,0,0,1-.377-.887l5.012-5.236a.523.523,0,1,1,.754.725l-5.011,5.236A.52.52,0,0,1,2631.17,353.744Z" transform="translate(-2630.647 -347.46)" fill="#32293a"/>
    </g>
    <g id="Grupo_948369" data-name="Grupo 948369" transform="translate(2504.763 218.183)">
      <path id="Trazado_633404" data-name="Trazado 633404" d="M2532.5,258.4a.524.524,0,0,1-.389-.875l8.317-9.265a.524.524,0,0,1,.778.7l-8.317,9.265A.522.522,0,0,1,2532.5,258.4Z" transform="translate(-2531.982 -248.089)" fill="#32293a"/>
    </g>
    <g id="Grupo_948370" data-name="Grupo 948370" transform="translate(2509.477 222.457)">
      <path id="Trazado_633405" data-name="Trazado 633405" d="M2538.6,264.465a.524.524,0,0,1-.418-.838l7.321-9.8a.523.523,0,1,1,.837.627l-7.321,9.8A.522.522,0,0,1,2538.6,264.465Z" transform="translate(-2538.077 -253.615)" fill="#32293a"/>
    </g>
    <g id="Grupo_948371" data-name="Grupo 948371" transform="translate(2513.23 228.751)">
      <path id="Trazado_633406" data-name="Trazado 633406" d="M2543.452,270.584a.524.524,0,0,1-.421-.834l5.708-7.783a.523.523,0,1,1,.842.62l-5.708,7.783A.52.52,0,0,1,2543.452,270.584Z" transform="translate(-2542.93 -261.753)" fill="#32293a"/>
    </g>
    <g id="Grupo_948372" data-name="Grupo 948372" transform="translate(2610.486 207.414)">
      <path id="Trazado_633407" data-name="Trazado 633407" d="M2678.835,269.289a.52.52,0,0,1-.449-.257l-9.628-16.253a.523.523,0,1,1,.9-.535l9.4,15.86,20.661-8.814-13.871-24.34a.523.523,0,1,1,.907-.52l14.163,24.851a.522.522,0,0,1-.249.742l-21.623,9.224A.516.516,0,0,1,2678.835,269.289Z" transform="translate(-2668.684 -234.165)" fill="#32293a"/>
    </g>
    <g id="Grupo_948373" data-name="Grupo 948373" transform="translate(2573.186 211.993)">
      <path id="Trazado_633408" data-name="Trazado 633408" d="M2620.978,269.37a.523.523,0,0,1-.523-.524V240.609a.523.523,0,1,1,1.045,0v28.237A.524.524,0,0,1,2620.978,269.37Z" transform="translate(-2620.455 -240.085)" fill="#32293a"/>
    </g>
    <g id="Grupo_948374" data-name="Grupo 948374" transform="translate(2548.159 193.969)">
      <path id="Trazado_633409" data-name="Trazado 633409" d="M2606.558,255.5a.517.517,0,0,1-.335-.122l-17.942-15.019a.525.525,0,0,1-.067-.737l15.5-18.643a12.574,12.574,0,0,1,13.868-3.37l9.223,3.564a.524.524,0,0,1-.376.978l-9.223-3.564a11.522,11.522,0,0,0-12.7,3.077l-15.151,18.228,17.167,14.372,6.4-6.648a.523.523,0,1,1,.752.728l-6.74,7A.522.522,0,0,1,2606.558,255.5Z" transform="translate(-2588.094 -216.78)" fill="#32293a"/>
    </g>
    <g id="Grupo_948375" data-name="Grupo 948375" transform="translate(2582.551 173.286)">
      <path id="Trazado_633410" data-name="Trazado 633410" d="M2634.173,199.236a.522.522,0,0,1-.38-.164l-.858-.906a1.368,1.368,0,0,1-.352-1.169,1.325,1.325,0,0,1,.717-.963,3.066,3.066,0,0,0,1.619-1.576c.6-1.834-1.343-3.1-1.95-3.442a.523.523,0,0,1,.513-.913c2.091,1.181,3,2.93,2.431,4.678a3.962,3.962,0,0,1-2.148,2.189.282.282,0,0,0-.152.207.307.307,0,0,0,.08.266l.858.906a.524.524,0,0,1-.379.885Z" transform="translate(-2632.564 -190.036)" fill="#32293a"/>
    </g>
    <path id="Trazado_633411" data-name="Trazado 633411" d="M2635.532,195.839a1.054,1.054,0,1,1-.715-1.485A1.179,1.179,0,0,1,2635.532,195.839Z" transform="translate(-50.223 -17.724)" fill="#32293a"/>
    <path id="Trazado_633412" data-name="Trazado 633412" d="M2645.306,199.458a1.054,1.054,0,1,1-.716-1.484A1.178,1.178,0,0,1,2645.306,199.458Z" transform="translate(-52.438 -18.544)" fill="#32293a"/>
    <g id="Grupo_948376" data-name="Grupo 948376" transform="translate(2591.478 176.01)">
      <path id="Trazado_633413" data-name="Trazado 633413" d="M2647.924,196.955a.522.522,0,0,1-.517-.461,2.02,2.02,0,0,0-.866-1.428,2.4,2.4,0,0,0-1.8-.423.524.524,0,0,1-.23-1.022,3.466,3.466,0,0,1,2.628.589,3.025,3.025,0,0,1,1.3,2.157.523.523,0,0,1-.455.584A.592.592,0,0,1,2647.924,196.955Z" transform="translate(-2644.106 -193.558)" fill="#32293a"/>
    </g>
    <g id="Grupo_948377" data-name="Grupo 948377" transform="translate(2586.038 190.38)">
      <path id="Trazado_633414" data-name="Trazado 633414" d="M2642.662,214.938a8.188,8.188,0,0,1-5.4-1.874.524.524,0,0,1,.672-.8c1.327,1.115,3.717,2.235,7.553,1.246a.524.524,0,0,1,.261,1.015A12.364,12.364,0,0,1,2642.662,214.938Z" transform="translate(-2637.073 -212.139)" fill="#32293a"/>
    </g>
    <g id="Grupo_948378" data-name="Grupo 948378" transform="translate(2584.384 185.072)">
      <path id="Trazado_633415" data-name="Trazado 633415" d="M2636.88,207.4a2.024,2.024,0,0,1-.738-.144,1.793,1.793,0,0,1-1.208-1.434.523.523,0,0,1,.5-.546.5.5,0,0,1,.543.5.887.887,0,0,0,.549.5.833.833,0,0,0,.944-.183.523.523,0,0,1,.733.746A1.871,1.871,0,0,1,2636.88,207.4Z" transform="translate(-2634.934 -205.275)" fill="#32293a"/>
    </g>
    <g id="Grupo_948379" data-name="Grupo 948379" transform="translate(2591.478 188.786)">
      <path id="Trazado_633416" data-name="Trazado 633416" d="M2646.577,236.77a8.784,8.784,0,0,1-2.07-.244.524.524,0,0,1-.385-.633.518.518,0,0,1,.629-.386,9.3,9.3,0,0,0,7.536-1.753,12.909,12.909,0,0,0,5.378-8.83l-2.268-4.554a4.614,4.614,0,0,1-.46-2.546l.758-7.278a.531.531,0,0,1,.573-.466.522.522,0,0,1,.466.575l-.759,7.279a3.569,3.569,0,0,0,.356,1.969l2.337,4.694a.518.518,0,0,1,.052.29,13.954,13.954,0,0,1-5.833,9.725A11.008,11.008,0,0,1,2646.577,236.77Z" transform="translate(-2644.107 -210.078)" fill="#32293a"/>
    </g>
    <g id="Grupo_948380" data-name="Grupo 948380" transform="translate(2620.114 241.491)">
      <path id="Trazado_633417" data-name="Trazado 633417" d="M2687.07,290.441a.524.524,0,0,1-.47-.295l-5.413-11.167a.523.523,0,0,1,.94-.459l5.412,11.167a.525.525,0,0,1-.242.7A.516.516,0,0,1,2687.07,290.441Z" transform="translate(-2681.135 -278.227)" fill="#32293a"/>
    </g>
    <g id="Grupo_948381" data-name="Grupo 948381" transform="translate(2559.78 231.646)">
      <path id="Trazado_633418" data-name="Trazado 633418" d="M2603.643,274.317a.524.524,0,0,1-.405-.855l6.32-7.772a.523.523,0,1,1,.81.661l-6.319,7.773A.525.525,0,0,1,2603.643,274.317Z" transform="translate(-2603.121 -265.497)" fill="#32293a"/>
    </g>
    <g id="Grupo_948382" data-name="Grupo 948382" transform="translate(2532.656 317.643)">
      <path id="Trazado_633419" data-name="Trazado 633419" d="M2568.571,392.39a.524.524,0,0,1-.262-.978l25.3-14.649a.524.524,0,0,1,.524.906l-25.3,14.649A.531.531,0,0,1,2568.571,392.39Z" transform="translate(-2568.048 -376.694)" fill="#faf5ff"/>
    </g>
    <g id="Grupo_948383" data-name="Grupo 948383" transform="translate(2590.304 192.127)">
      <path id="Trazado_633420" data-name="Trazado 633420" d="M2643.113,219.566a.484.484,0,0,1-.075-.005.524.524,0,0,1-.443-.593l.587-4.121a.531.531,0,0,1,.592-.445.524.524,0,0,1,.443.593l-.588,4.121A.524.524,0,0,1,2643.113,219.566Z" transform="translate(-2642.589 -214.398)" fill="#32293a"/>
    </g>
    <g id="Grupo_948384" data-name="Grupo 948384" transform="translate(2659.415 308.148)">
      <path id="Trazado_633421" data-name="Trazado 633421" d="M2755.359,384.408l-9.177,5.6a2.871,2.871,0,0,1-2.994,0l-9.178-5.6a2.886,2.886,0,0,1-1.382-2.465V367.979a2.882,2.882,0,0,1,2.879-2.885h18.355a2.883,2.883,0,0,1,2.879,2.885v13.964A2.886,2.886,0,0,1,2755.359,384.408Z" transform="translate(-2732.105 -364.57)" fill="#25c766"/>
      <path id="Trazado_633422" data-name="Trazado 633422" d="M2744.531,390.8a3.4,3.4,0,0,1-1.769-.5l-9.177-5.6a3.432,3.432,0,0,1-1.633-2.913V367.826a3.41,3.41,0,0,1,3.4-3.41h18.355a3.41,3.41,0,0,1,3.4,3.41V381.79a3.432,3.432,0,0,1-1.633,2.913h0l-9.178,5.6A3.391,3.391,0,0,1,2744.531,390.8Zm-9.177-25.337a2.361,2.361,0,0,0-2.356,2.362V381.79a2.379,2.379,0,0,0,1.131,2.018l9.178,5.6a2.345,2.345,0,0,0,2.451,0l9.178-5.6a2.378,2.378,0,0,0,1.13-2.018V367.826a2.361,2.361,0,0,0-2.356-2.362Z" transform="translate(-2731.952 -364.416)" fill="#32293a"/>
    </g>
    <g id="Grupo_948385" data-name="Grupo 948385" transform="translate(2669.275 315.483)">
      <path id="Trazado_633423" data-name="Trazado 633423" d="M2749.588,376.689a2.111,2.111,0,0,1-.8,1.659v3.6a1.308,1.308,0,0,1-2.234.93,1.329,1.329,0,0,1-.383-.93v-3.6a2.109,2.109,0,1,1,3.417-1.653Z" transform="translate(-2744.854 -374.054)" fill="#ff9b38"/>
      <path id="Trazado_633424" data-name="Trazado 633424" d="M2747.33,383.629a1.82,1.82,0,0,1-1.3-.538,1.853,1.853,0,0,1-.536-1.3v-3.367a2.627,2.627,0,1,1,3.664.007v3.36A1.836,1.836,0,0,1,2747.33,383.629Zm0-8.68a1.589,1.589,0,0,0-.984,2.832.522.522,0,0,1,.2.408v3.6a.8.8,0,0,0,.23.56.785.785,0,0,0,1.34-.56v-3.6a.526.526,0,0,1,.2-.41,1.59,1.59,0,0,0-.98-2.835Z" transform="translate(-2744.701 -373.901)" fill="#32293a"/>
    </g>
    <g id="Grupo_948386" data-name="Grupo 948386" transform="translate(2663.695 296.676)">
      <path id="Trazado_633425" data-name="Trazado 633425" d="M2753.38,361.982a.523.523,0,0,1-.523-.524v-7.872a2.954,2.954,0,0,0-2.948-2.954h-8.43a2.954,2.954,0,0,0-2.948,2.954v7.872a.523.523,0,1,1-1.045,0v-7.872a4,4,0,0,1,3.993-4h8.43a4,4,0,0,1,3.993,4v7.872A.524.524,0,0,1,2753.38,361.982Z" transform="translate(-2737.486 -349.583)" fill="#32293a"/>
    </g>
    <g id="Grupo_948387" data-name="Grupo 948387" transform="translate(2411.875 289.989)">
      <path id="Trazado_633426" data-name="Trazado 633426" d="M2422.007,427.013a.52.52,0,0,1-.455-.267c-6.608-11.741-12.728-26.361-8.007-45.775,5.025-20.679,29.61-32.344,42.816-38.611,1.021-.485,1.983-.942,2.875-1.372a.523.523,0,1,1,.454.944c-.893.432-1.857.889-2.881,1.374-13.966,6.627-37.34,17.72-42.248,37.913-4.635,19.06,1.393,33.45,7.9,45.013a.525.525,0,0,1-.2.714A.533.533,0,0,1,2422.007,427.013Z" transform="translate(-2411.875 -340.936)" fill="#32293a"/>
    </g>
    <g id="Grupo_948388" data-name="Grupo 948388" transform="translate(2659.867 189.866)">
      <path id="Trazado_633427" data-name="Trazado 633427" d="M2752.258,275.313a.524.524,0,0,1-.3-.955c12.579-8.718,16.9-19.9,12.828-33.244-4.053-13.292-16.106-19.9-26.741-25.734-1.794-.983-3.557-1.95-5.25-2.929a.524.524,0,0,1,.522-.909c1.688.976,3.444,1.94,5.23,2.919,10.81,5.928,23.062,12.648,27.238,26.347,4.216,13.826-.236,25.4-13.232,34.411A.524.524,0,0,1,2752.258,275.313Z" transform="translate(-2732.536 -211.474)" fill="#32293a"/>
    </g>
    <g id="Grupo_948389" data-name="Grupo 948389" transform="translate(2560.913 124.387)">
      <path id="Trazado_633428" data-name="Trazado 633428" d="M2610.714,139.1a6.143,6.143,0,1,1,1.968-.326A6.085,6.085,0,0,1,2610.714,139.1Zm0-11.244a5.1,5.1,0,1,0,4.821,3.465A5.048,5.048,0,0,0,2610.716,127.858Z" transform="translate(-2604.585 -126.808)" fill="#32293a"/>
    </g>
    <g id="Grupo_948390" data-name="Grupo 948390" transform="translate(2688.007 420.166)">
      <path id="Trazado_633429" data-name="Trazado 633429" d="M2775.062,521.552a6.146,6.146,0,0,1-1.969-11.966,6.143,6.143,0,1,1,1.969,11.966Zm0-11.244a5.094,5.094,0,1,0,2.251.531A5.1,5.1,0,0,0,2775.061,510.308Z" transform="translate(-2768.922 -509.259)" fill="#32293a"/>
    </g>
    <g id="Grupo_948391" data-name="Grupo 948391" transform="translate(2680.392 403.9)">
      <path id="Trazado_633430" data-name="Trazado 633430" d="M2762.739,495.56a3.667,3.667,0,0,1-1.175-7.139,3.656,3.656,0,0,1,4.636,2.3h0a3.663,3.663,0,0,1-3.462,4.84Zm0-6.286a2.629,2.629,0,0,0-.841.139,2.618,2.618,0,0,0,1.675,4.96,2.624,2.624,0,0,0,1.639-3.319h0a2.616,2.616,0,0,0-2.473-1.781Z" transform="translate(-2759.075 -488.226)" fill="#32293a"/>
    </g>
    <g id="Grupo_948392" data-name="Grupo 948392" transform="translate(2584.022 116.125)">
      <path id="Trazado_633431" data-name="Trazado 633431" d="M2637.528,122.268a3.072,3.072,0,1,1,2.9-4.054h0a3.07,3.07,0,0,1-2.9,4.054Zm.006-5.094a2.023,2.023,0,1,0,1.909,1.376h0a2.02,2.02,0,0,0-1.909-1.376Z" transform="translate(-2634.466 -116.125)" fill="#32293a"/>
    </g>
  </g>
</svg>
