<svg xmlns="http://www.w3.org/2000/svg" width="67" height="72" viewBox="0 0 67 72">
  <g id="Grupo_948252" data-name="Grupo 948252" transform="translate(-828 -8248)">
    <rect id="Rectángulo_34186" data-name="Rectángulo 34186" width="67" height="72" rx="5" transform="translate(828 8248)" fill="#fff"/>
    <g id="privado" transform="translate(832.801 8236.543)">
      <path id="Trazado_633235" data-name="Trazado 633235" d="M52.733,41.075c0-.021,0-.041,0-.061a13.516,13.516,0,0,0-26.192-4.69,5.412,5.412,0,0,0-8.116,4.69c0,.008,0,.017,0,.025A11.687,11.687,0,0,0,7.5,52.7h0A11.686,11.686,0,0,0,19.186,64.386h3.465V56.135H48.065v8.251H51.53A11.686,11.686,0,0,0,63.216,52.7h0A11.688,11.688,0,0,0,52.733,41.075Z" transform="translate(-6.659 -6.658)" fill="#d1e7f8"/>
      <g id="Grupo_948306" data-name="Grupo 948306" transform="translate(0.841 20.841)">
        <path id="Trazado_633236" data-name="Trazado 633236" d="M215.861,185H204.6l-3.936,3.936v7.043h3.568v-5.565l1.845-1.845h8.306l1.845,1.845v5.565H219.8v-7.043Z" transform="translate(-179.009 -167.343)" fill="#9bc9ff"/>
        <path id="Trazado_633237" data-name="Trazado 633237" d="M180.284,35.6a5.386,5.386,0,0,1,2.7.724,13.529,13.529,0,0,1,11-8.721,13.533,13.533,0,0,0-14.073,8.01C180.033,35.6,180.158,35.6,180.284,35.6Z" transform="translate(-160.581 -27.499)" fill="#9bc9ff"/>
        <rect id="Rectángulo_34569" data-name="Rectángulo 34569" width="3.363" height="8.252" transform="translate(40.565 28.636)" fill="#9bc9ff"/>
        <path id="Trazado_633238" data-name="Trazado 633238" d="M10.863,116.862h0A11.686,11.686,0,0,1,21.79,105.2c0-.008,0-.017,0-.025a5.416,5.416,0,0,1,3.73-5.146,5.415,5.415,0,0,0-7.093,5.146c0,.008,0,.017,0,.025A11.686,11.686,0,0,0,7.5,116.862h0a11.686,11.686,0,0,0,11.686,11.686h3.363A11.686,11.686,0,0,1,10.863,116.862Z" transform="translate(-7.5 -91.661)" fill="#9bc9ff"/>
      </g>
      <path id="Trazado_633239" data-name="Trazado 633239" d="M164.827,305.531H145.893l-3.24-3.24V282.935h25.414v19.356Z" transform="translate(-126.661 -233.459)" fill="#ffb655"/>
      <path id="Trazado_633240" data-name="Trazado 633240" d="M247.287,325.33a3.427,3.427,0,1,0-5.09,3v5.023h3.325v-5.023A3.425,3.425,0,0,0,247.287,325.33Z" transform="translate(-213.48 -268.058)" fill="#ff7956"/>
      <path id="Trazado_633241" data-name="Trazado 633241" d="M185.861,185H174.6l-3.936,3.936v7.043h3.568v-5.565l1.845-1.845h8.306l1.845,1.845v5.565H189.8v-7.043Z" transform="translate(-151.532 -146.503)" fill="#e0e0e2"/>
      <g id="Grupo_948307" data-name="Grupo 948307" transform="translate(15.992 49.476)">
        <path id="Trazado_633242" data-name="Trazado 633242" d="M232.287,325.33a3.427,3.427,0,1,0-5.09,3v5.023h3.325v-5.023A3.425,3.425,0,0,0,232.287,325.33Z" transform="translate(-216.154 -317.535)" fill="#ff7956"/>
        <path id="Trazado_633243" data-name="Trazado 633243" d="M146.015,302.292V282.936h-3.363v19.356l3.24,3.24h3.363Z" transform="translate(-142.652 -282.936)" fill="#ff7956"/>
      </g>
      <g id="Grupo_948308" data-name="Grupo 948308" transform="translate(19.132 38.497)">
        <path id="Trazado_633244" data-name="Trazado 633244" d="M296.409,216.829h-3.363l1.845,1.845v5.565h3.363v-5.565Z" transform="translate(-279.326 -213.261)" fill="#c6c5ca"/>
        <path id="Trazado_633245" data-name="Trazado 633245" d="M177.963,185H174.6l-3.936,3.936v7.043h3.363v-7.043Z" transform="translate(-170.664 -185)" fill="#c6c5ca"/>
      </g>
      <path id="Trazado_633246" data-name="Trazado 633246" d="M227.116,325.33a3.428,3.428,0,0,1,2.586-3.323,3.427,3.427,0,0,0-2.5,6.319v5.023h1.682v-5.023A3.425,3.425,0,0,1,227.116,325.33Z" transform="translate(-200.162 -268.059)" fill="#ff3f62"/>
      <g id="Grupo_948309" data-name="Grupo 948309" transform="translate(32.56 22.803)">
        <path id="Trazado_633247" data-name="Trazado 633247" d="M400.256,297.894v1.682a9.768,9.768,0,0,0,7.849-3.989l-1.357-.994A8.08,8.08,0,0,1,400.256,297.894Z" transform="translate(-387.945 -266.612)" fill="#fff"/>
        <path id="Trazado_633248" data-name="Trazado 633248" d="M463.049,275.942l1.47.816a9.7,9.7,0,0,0,.735-1.685l-1.6-.523A8.025,8.025,0,0,1,463.049,275.942Z" transform="translate(-443.699 -248.816)" fill="#fff"/>
        <path id="Trazado_633249" data-name="Trazado 633249" d="M472.552,252.3h-1.682a8.1,8.1,0,0,1-.143,1.513l1.652.316A9.763,9.763,0,0,0,472.552,252.3Z" transform="translate(-450.517 -229.057)" fill="#fff"/>
        <path id="Trazado_633250" data-name="Trazado 633250" d="M313.645,48.5l-.435,1.624a9.816,9.816,0,0,1,1.458.517l.686-1.535A11.533,11.533,0,0,0,313.645,48.5Z" transform="translate(-310.658 -48.103)" fill="#fff"/>
        <path id="Trazado_633251" data-name="Trazado 633251" d="M290.443,45v1.682a9.938,9.938,0,0,1,1.543.12l.262-1.661A11.615,11.615,0,0,0,290.443,45Z" transform="translate(-290.443 -45)" fill="#fff"/>
        <path id="Trazado_633252" data-name="Trazado 633252" d="M335.262,58.81l-.843,1.455A9.916,9.916,0,0,1,339.36,68.8l1.682,0A11.6,11.6,0,0,0,335.262,58.81Z" transform="translate(-329.489 -57.262)" fill="#fff"/>
      </g>
      <path id="Trazado_633253" data-name="Trazado 633253" d="M45.822,299.962l1.081-1.288a8.126,8.126,0,0,1-1.068-1.083l-1.3,1.063A9.808,9.808,0,0,0,45.822,299.962Z" transform="translate(-39.54 -246.472)"/>
      <path id="Trazado_633254" data-name="Trazado 633254" d="M67.093,313.33a8.043,8.043,0,0,1-1.349-.7l-.912,1.413a9.72,9.72,0,0,0,1.632.846Z" transform="translate(-57.564 -259.825)"/>
      <path id="Trazado_633255" data-name="Trazado 633255" d="M33.069,279.482a8.051,8.051,0,0,1-.681-1.358l-1.568.607a9.718,9.718,0,0,0,.823,1.643Z" transform="translate(-27.366 -229.187)"/>
      <path id="Trazado_633256" data-name="Trazado 633256" d="M25.12,256.195a9.708,9.708,0,0,0,.27,1.818l1.632-.4a8.018,8.018,0,0,1-.223-1.5Z" transform="translate(-22.304 -209.638)"/>
      <path id="Trazado_633257" data-name="Trazado 633257" d="M135.152,295.981l3.732,3.732h19.63l3.732-3.732V275.436h-27.1Zm1.682-18.864h23.732v18.167l-2.747,2.747H139.581l-2.747-2.747Z" transform="translate(-120.001 -226.8)"/>
      <rect id="Rectángulo_34570" data-name="Rectángulo 34570" width="1.682" height="1.682" transform="translate(28.727 68.429)"/>
      <rect id="Rectángulo_34571" data-name="Rectángulo 34571" width="1.682" height="1.682" transform="translate(34.332 68.429)"/>
      <rect id="Rectángulo_34572" data-name="Rectángulo 34572" width="1.682" height="1.682" transform="translate(31.529 68.429)"/>
      <rect id="Rectángulo_34573" data-name="Rectángulo 34573" width="1.682" height="6.956" transform="translate(17.954 59.235)"/>
      <g id="Grupo_948310" data-name="Grupo 948310" transform="translate(37.762 52.279)">
        <rect id="Rectángulo_34574" data-name="Rectángulo 34574" width="1.682" height="1.682" fill="#fff"/>
        <rect id="Rectángulo_34575" data-name="Rectángulo 34575" width="1.682" height="1.682" transform="translate(0 2.803)" fill="#fff"/>
        <rect id="Rectángulo_34576" data-name="Rectángulo 34576" width="1.682" height="6.323" transform="translate(0 5.605)" fill="#fff"/>
      </g>
      <path id="Trazado_633258" data-name="Trazado 633258" d="M163.164,181.928v5.15h1.682v-4.453l3.443-3.443h10.565l3.443,3.443v4.453h1.682v-5.15l-4.428-4.428H167.592Z" transform="translate(-144.873 -139.844)"/>
      <path id="Trazado_633259" data-name="Trazado 633259" d="M208.671,215.339v-3.672l-2.338-2.338h-9l-2.338,2.338v3.672h1.682v-2.975l1.353-1.353h7.609l1.353,1.353v2.975Z" transform="translate(-173.133 -168.104)"/>
      <path id="Trazado_633260" data-name="Trazado 633260" d="M219.7,322.126v5.4h5.007v-5.4a4.267,4.267,0,1,0-5.007,0Zm2.5-6.041a2.586,2.586,0,0,1,1.254,4.847l-.432.24v4.676H221.38v-4.677l-.432-.24a2.586,2.586,0,0,1,1.254-4.847Z" transform="translate(-193.503 -261.4)"/>
      <rect id="Rectángulo_34577" data-name="Rectángulo 34577" width="6.172" height="1.682" transform="translate(25.952 45.833)"/>
      <path id="Trazado_633261" data-name="Trazado 633261" d="M54.146,37.621A12.5,12.5,0,0,0,46.9,33.678a14.358,14.358,0,0,0-27.46-5.155,6.254,6.254,0,0,0-8.469,5.088,12.527,12.527,0,0,0,1.557,24.957H13.75V56.887H12.527A10.845,10.845,0,0,1,11.8,35.221h4.834V33.539H12.68a4.572,4.572,0,0,1,6.782-3.146l.863.5.346-.935a12.676,12.676,0,0,1,24.563,4.4l0,.82.759.078A10.846,10.846,0,0,1,44.87,56.887H43.648v1.682H44.87a12.527,12.527,0,0,0,9.275-20.947Z" transform="translate(0 0)"/>
    </g>
  </g>
</svg>
