<svg xmlns="http://www.w3.org/2000/svg" width="400" height="187" viewBox="0 0 400 187">
  <g id="Grupo_948477" data-name="Grupo 948477" transform="translate(-1020 -15418)">
    <g id="Grupo_948476" data-name="Grupo 948476" transform="translate(1020 15418)">
      <path id="hacker-working-in-the-darkness" d="M0,0H81.907c12.2,51.512,44.58,88.339,82.613,88.339A58.748,58.748,0,0,0,176,87.2V208.6a111.6,111.6,0,0,1-11.479.6C82.362,209.2,14.048,118.946,0,0Z" transform="translate(400) rotate(90)" fill="#2ff980" style="mix-blend-mode: multiply;isolation: isolate"/>
    </g>
    <g id="Grupo_82913" data-name="Grupo 82913" transform="translate(842.003 15212.15)">
      <g id="Grupo_82809" data-name="Grupo 82809" transform="translate(210.497 205.912)">
        <path id="Trazado_120718" data-name="Trazado 120718" d="M238.765,392.85s-22.75-34.418,2.027-74.913,58.053-20.13,56.443-67.261,68.773-51.7,93.645-38.036,46.833,5.837,76.541,6.791c48.181,1.546,61.669,49.087,48.311,72.224-18.953,32.827,59.376,36.687,14.287,101.2Z" transform="translate(-229.229 -205.912)" fill="#daf1f5"/>
      </g>
      <g id="Grupo_82810" data-name="Grupo 82810" transform="translate(357.133 242.184)">
        <path id="Trazado_120719" data-name="Trazado 120719" d="M1416.185,542.165l6.126-.673a1.366,1.366,0,0,1,1.284.619q.529.827,1.135,1.621a22.926,22.926,0,0,0,2.417,2.714,1.348,1.348,0,0,1,.328,1.484l-2.366,5.991a1.323,1.323,0,0,0,.647,1.68l5.269,2.628a1.308,1.308,0,0,0,1.679-.46l3.2-4.99a1.313,1.313,0,0,1,1.472-.565,23.806,23.806,0,0,0,7.468.765,1.356,1.356,0,0,1,1.355.945l1.072,3.445a1.37,1.37,0,0,0,1.554.929l5.734-1.143a1.2,1.2,0,0,0,.331-.109,1.315,1.315,0,0,0,.737-1.34l-.5-4.577-.124-1.115a23.534,23.534,0,0,0,2.784-1.828,23.89,23.89,0,0,0,3.27-3.01,1.314,1.314,0,0,1,1.467-.349l4.824,1.911a1.362,1.362,0,0,0,1.72-.661l2.01-4.028.573-1.156a1.379,1.379,0,0,0-.485-1.778l-4.169-2.682a1.312,1.312,0,0,1-.584-1.432,23.627,23.627,0,0,0,.651-5.013,4.148,4.148,0,0,0,.014-.425.714.714,0,0,1,.009-.143,1.344,1.344,0,0,1,.951-1.148l5.59-1.752a1,1,0,0,0,.182-.072,1.367,1.367,0,0,0,.741-1.479l-1.131-5.718a1.36,1.36,0,0,0-1.48-1.087l-6.39.7a1.314,1.314,0,0,1-1.317-.7,24.032,24.032,0,0,0-1.991-3.065q-.6-.786-1.251-1.507a1.386,1.386,0,0,1-.258-1.436l2.272-5.759a1.322,1.322,0,0,0-.639-1.669l-5.217-2.592a1.382,1.382,0,0,0-1.784.489l-2.537,3.948a1.357,1.357,0,0,1-1.581.555,23.757,23.757,0,0,0-7.2-1.315,1.349,1.349,0,0,1-1.268-.953l-1.577-5.039a1.4,1.4,0,0,0-1.595-.949l-5.7,1.124a1.334,1.334,0,0,0-1.069,1.459l.026.267.58,5.317a1.363,1.363,0,0,1-.741,1.369l-.005,0a23.616,23.616,0,0,0-3.539,2.235c-.6.461-1.173.946-1.726,1.452a1.338,1.338,0,0,1-1.409.271l-4.9-1.94a1.384,1.384,0,0,0-1.75.667l-2.584,5.194a1.493,1.493,0,0,0-.133.457,1.378,1.378,0,0,0,.613,1.292l3.336,2.133a1.376,1.376,0,0,1,.62,1.2,1.461,1.461,0,0,1-.07.374,23.667,23.667,0,0,0-1.229,9.277,1.332,1.332,0,0,1-.719,1.276,1.355,1.355,0,0,1-.213.086l-4.528,1.416a1.355,1.355,0,0,0-.924,1.55l.025.133,1.1,5.574A1.379,1.379,0,0,0,1416.185,542.165Zm39.232-17.281a15.829,15.829,0,0,1,.823,2.831,12.442,12.442,0,0,1-.9,6.72c-.093.189-.189.373-.286.556-6.024,11.107-21.726,8.851-24.278-3.708a12.906,12.906,0,0,1,.477-5.861,8.4,8.4,0,0,1,.472-1.155,14.629,14.629,0,0,1,2.935-4.014A12.766,12.766,0,0,1,1455.416,524.884Z" transform="translate(-1413.535 -498.859)" fill="#b5e4eb"/>
      </g>
      <g id="Grupo_82811" data-name="Grupo 82811" transform="translate(435.653 248.564)">
        <path id="Trazado_120720" data-name="Trazado 120720" d="M2049.357,577.281l3.8-.418a.848.848,0,0,1,.8.384q.329.514.7,1.007a14.259,14.259,0,0,0,1.5,1.686.837.837,0,0,1,.2.921l-1.469,3.721a.822.822,0,0,0,.4,1.043l3.272,1.632a.812.812,0,0,0,1.042-.286l1.99-3.1a.816.816,0,0,1,.914-.351,14.791,14.791,0,0,0,4.638.475.842.842,0,0,1,.842.587l.666,2.14a.851.851,0,0,0,.965.577l3.561-.71a.734.734,0,0,0,.206-.068.816.816,0,0,0,.458-.832l-.309-2.842-.077-.693a14.651,14.651,0,0,0,1.729-1.135,14.874,14.874,0,0,0,2.03-1.869.816.816,0,0,1,.911-.217l3,1.187a.845.845,0,0,0,1.068-.41l1.249-2.5.356-.718a.856.856,0,0,0-.3-1.1l-2.589-1.665a.815.815,0,0,1-.363-.889,14.68,14.68,0,0,0,.4-3.113,2.594,2.594,0,0,0,.009-.264.428.428,0,0,1,.006-.089.834.834,0,0,1,.59-.713l3.472-1.088a.629.629,0,0,0,.113-.044.85.85,0,0,0,.46-.918l-.7-3.551a.844.844,0,0,0-.919-.675l-3.968.437a.816.816,0,0,1-.818-.432,14.882,14.882,0,0,0-1.237-1.9q-.372-.488-.777-.936a.86.86,0,0,1-.16-.892l1.411-3.576a.822.822,0,0,0-.4-1.037l-3.24-1.61a.858.858,0,0,0-1.107.3l-1.575,2.452a.843.843,0,0,1-.982.345,14.752,14.752,0,0,0-4.473-.816.838.838,0,0,1-.788-.592l-.979-3.129a.867.867,0,0,0-.99-.589l-3.538.7a.829.829,0,0,0-.664.906l.017.166.36,3.3a.846.846,0,0,1-.46.85l0,0a14.654,14.654,0,0,0-2.2,1.388c-.375.286-.729.587-1.072.9a.831.831,0,0,1-.875.168l-3.041-1.2a.859.859,0,0,0-1.086.414l-1.605,3.225a.92.92,0,0,0-.083.284.855.855,0,0,0,.381.8l2.071,1.324a.855.855,0,0,1,.385.746.919.919,0,0,1-.043.233,14.693,14.693,0,0,0-.763,5.761.828.828,0,0,1-.446.792.853.853,0,0,1-.132.054l-2.812.879a.841.841,0,0,0-.573.963l.016.083.681,3.462A.856.856,0,0,0,2049.357,577.281Zm24.363-10.731a9.841,9.841,0,0,1,.511,1.758,7.729,7.729,0,0,1-.562,4.173c-.057.117-.118.231-.177.346a7.985,7.985,0,0,1-14.78-5.943,5.2,5.2,0,0,1,.293-.717,9.079,9.079,0,0,1,1.822-2.493A7.928,7.928,0,0,1,2073.719,566.55Z" transform="translate(-2047.711 -550.388)" fill="#40327b"/>
      </g>
      <g id="Grupo_82812" data-name="Grupo 82812" transform="translate(412.922 230.936)">
        <path id="Trazado_120721" data-name="Trazado 120721" d="M1866.318,429.3l2.6-.872a.608.608,0,0,1,.617.148q.308.309.646.6a10.194,10.194,0,0,0,1.307.951.6.6,0,0,1,.283.613l-.461,2.827a.588.588,0,0,0,.44.669l2.538.643a.581.581,0,0,0,.686-.359l.92-2.471a.584.584,0,0,1,.586-.385,10.583,10.583,0,0,0,3.317-.374.6.6,0,0,1,.678.283l.792,1.4a.609.609,0,0,0,.763.257l2.383-1.039a.533.533,0,0,0,.134-.079.585.585,0,0,0,.194-.652l-.649-1.942-.159-.473a10.5,10.5,0,0,0,1.037-1.057,10.638,10.638,0,0,0,1.136-1.617.584.584,0,0,1,.6-.291l2.277.374a.605.605,0,0,0,.685-.45l.492-1.94.14-.556a.613.613,0,0,0-.379-.727l-2.064-.771a.583.583,0,0,1-.389-.567,10.519,10.519,0,0,0-.192-2.239,1.851,1.851,0,0,0-.034-.186.307.307,0,0,1-.01-.063.6.6,0,0,1,.3-.589l2.263-1.29a.448.448,0,0,0,.073-.048.607.607,0,0,0,.182-.713l-1.032-2.378a.6.6,0,0,0-.746-.332l-2.71.91a.585.585,0,0,1-.638-.178,10.651,10.651,0,0,0-1.155-1.143q-.335-.285-.686-.537a.616.616,0,0,1-.248-.6l.443-2.717a.588.588,0,0,0-.436-.665l-2.512-.633a.614.614,0,0,0-.729.381l-.729,1.955a.6.6,0,0,1-.635.391,10.561,10.561,0,0,0-3.254.11.6.6,0,0,1-.641-.294l-1.162-2.04a.621.621,0,0,0-.783-.261l-2.369,1.027a.593.593,0,0,0-.327.735l.037.114.755,2.255a.606.606,0,0,1-.192.665l0,0a10.513,10.513,0,0,0-1.326,1.306c-.219.257-.42.522-.613.794a.6.6,0,0,1-.586.251l-2.311-.38a.615.615,0,0,0-.7.455l-.632,2.5a.65.65,0,0,0-.015.211.612.612,0,0,0,.388.5l1.651.611a.612.612,0,0,1,.383.463.663.663,0,0,1,.005.169,10.526,10.526,0,0,0,.343,4.147.592.592,0,0,1-.191.622.633.633,0,0,1-.084.058l-1.833,1.043a.6.6,0,0,0-.255.761l.024.055,1,2.318A.613.613,0,0,0,1866.318,429.3Zm15.411-11.219a7.045,7.045,0,0,1,.626,1.152,5.534,5.534,0,0,1,.243,3.005c-.022.091-.047.18-.072.269a5.718,5.718,0,0,1-11.246-1.907,3.758,3.758,0,0,1,.1-.547,6.5,6.5,0,0,1,.9-2.022A5.677,5.677,0,0,1,1881.729,418.082Z" transform="translate(-1864.124 -408.018)" fill="#583ae2"/>
      </g>
      <g id="Grupo_82841" data-name="Grupo 82841" transform="translate(296.389 275.452)">
        <g id="Grupo_82824" data-name="Grupo 82824" transform="translate(0)">
          <g id="Grupo_82813" data-name="Grupo 82813" transform="translate(60.354 38.954)">
            <path id="Trazado_120722" data-name="Trazado 120722" d="M1416.562,1082.851l-6.127,72.851s-.642,4.416,2.643,4.424c5.4.013,26.882,0,26.882,0s-4.065-.919-4.016-2.988c.058-2.438,7.161-74.977,7.161-74.977Z" transform="translate(-1410.385 -1082.162)" fill="#32256a"/>
          </g>
          <g id="Grupo_82814" data-name="Grupo 82814" transform="translate(62.119 37.632)">
            <path id="Trazado_120723" data-name="Trazado 120723" d="M1454.477,1149.48c-1.062,0-21.859.038-27.119-.029-2.292-.028-2.694-2.038-2.713-3.339a6.509,6.509,0,0,1,.069-1.085l.159-1.893.406-4.826.359-4.264.461-5.479.388-4.624,4.353-51.766,26.544-.689s-2.992,30.357-5.108,52.455c-.236,2.462-.461,4.823-.669,7.026q-.1,1.055-.2,2.061c-.2,2.091-.376,4.011-.532,5.706-.082.893-.159,1.724-.227,2.484-.27,2.98-.428,4.883-.431,5.245a3.061,3.061,0,0,0,.052.59C1450.713,1149.375,1454.078,1149.48,1454.477,1149.48Z" transform="translate(-1424.645 -1071.486)" fill="#4d3e8d"/>
          </g>
          <g id="Grupo_82815" data-name="Grupo 82815" transform="translate(2.069 0)">
            <path id="Trazado_120724" data-name="Trazado 120724" d="M939.642,767.552,954.566,827.5l2.043,8.21,6.951,27.922H1092.7l-25.62-96.08Z" transform="translate(-939.642 -767.552)" fill="#4d3e8d"/>
          </g>
          <g id="Grupo_82816" data-name="Grupo 82816">
            <path id="Trazado_120725" data-name="Trazado 120725" d="M925,767.551l-2.068.689,23.237,97.476,2.75-2.085Z" transform="translate(-922.935 -767.551)" fill="#32256a"/>
          </g>
          <g id="Grupo_82817" data-name="Grupo 82817" transform="translate(23.237 96.08)">
            <path id="Trazado_120726" data-name="Trazado 120726" d="M1110.614,1545.63h128.344l3.544-2.085H1113.364Z" transform="translate(-1110.614 -1543.545)" fill="#40327b"/>
          </g>
          <g id="Grupo_82818" data-name="Grupo 82818" transform="translate(68.308 115.626)">
            <rect id="Rectángulo_34323" data-name="Rectángulo 34323" width="27.788" height="1.32" transform="translate(27.788 1.32) rotate(180)" fill="#4d3e8d"/>
          </g>
          <g id="Grupo_82819" data-name="Grupo 82819" transform="translate(62.755 98.165)">
            <path id="Trazado_120727" data-name="Trazado 120727" d="M1456.057,1560.383l-.144,1.01-26.134,5.28.359-4.264.171-2.025Z" transform="translate(-1429.78 -1560.383)" fill="#32256a"/>
          </g>
          <g id="Grupo_82820" data-name="Grupo 82820" transform="translate(62.12 107.364)">
            <path id="Trazado_120728" data-name="Trazado 120728" d="M1454.483,1642.945c-1.062,0-21.859.038-27.119-.029-2.292-.028-2.694-2.038-2.713-3.339l26.01-4.893c-.27,2.98-.428,4.883-.431,5.245a3.062,3.062,0,0,0,.052.59C1450.718,1642.84,1454.084,1642.945,1454.483,1642.945Z" transform="translate(-1424.651 -1634.684)" fill="#40327b"/>
          </g>
          <g id="Grupo_82821" data-name="Grupo 82821" transform="translate(2.068)">
            <path id="Trazado_120729" data-name="Trazado 120729" d="M939.641,767.551h127.437l20.677,77.218H958.864Z" transform="translate(-939.641 -767.551)" fill="#40327b"/>
          </g>
          <g id="Grupo_82822" data-name="Grupo 82822" transform="translate(7.347 4.136)">
            <path id="Trazado_120730" data-name="Trazado 120730" d="M1119.1,870.695H999.776l-4.264-16.986-1.65-6.572-.673-2.68L988.808,827l-.227-.909-2.317-9.227-1.036-4.128-.884-3.522-2.073-8.256h117.6l2.276,8.256.97,3.522,1.138,4.128,7.5,27.2h0l.636,2.3.3,1.07,5.177,18.777Z" transform="translate(-982.271 -800.959)" fill="#583ae2"/>
          </g>
          <g id="Grupo_82823" data-name="Grupo 82823" transform="translate(21.292 77.218)">
            <path id="Trazado_120731" data-name="Trazado 120731" d="M1143.315,1391.2l-43.677,19.087L1094.9,1391.2Z" transform="translate(-1094.898 -1391.203)" fill="#40327b"/>
          </g>
        </g>
        <g id="Grupo_82840" data-name="Grupo 82840" transform="translate(51.347 12.394)">
          <g id="Grupo_82829" data-name="Grupo 82829" transform="translate(8.162)">
            <g id="Grupo_82826" data-name="Grupo 82826" transform="translate(0.041 0.04)">
              <g id="Grupo_82825" data-name="Grupo 82825">
                <path id="Trazado_120732" data-name="Trazado 120732" d="M1424.745,903.337c-9.749,0-18.995-7.931-20.612-17.68s5-17.68,14.748-17.68,18.995,7.931,20.611,17.68S1434.494,903.337,1424.745,903.337Zm-5.359-32.311c-8.068,0-13.543,6.564-12.2,14.631s8.99,14.631,17.058,14.631,13.543-6.564,12.2-14.631S1427.455,871.026,1419.387,871.026Z" transform="translate(-1403.891 -867.978)" fill="#e6f0ff"/>
              </g>
            </g>
            <g id="Grupo_82828" data-name="Grupo 82828">
              <g id="Grupo_82827" data-name="Grupo 82827">
                <path id="Trazado_120733" data-name="Trazado 120733" d="M1424.463,903.092c-9.771,0-19.038-7.949-20.659-17.72s5.01-17.72,14.781-17.72a21.773,21.773,0,0,1,20.659,17.72,1.291,1.291,0,0,1-1.3,1.564,1.922,1.922,0,0,1-1.824-1.564,17.928,17.928,0,0,0-17.011-14.591c-8.045,0-13.506,6.545-12.171,14.591s8.965,14.591,17.011,14.591a1.922,1.922,0,0,1,1.824,1.564A1.292,1.292,0,0,1,1424.463,903.092Z" transform="translate(-1403.56 -867.652)" fill="#2ff980"/>
              </g>
            </g>
          </g>
          <g id="Grupo_82837" data-name="Grupo 82837" transform="translate(0 47.337)">
            <g id="Grupo_82830" data-name="Grupo 82830" transform="translate(0 0)">
              <path id="Trazado_120734" data-name="Trazado 120734" d="M1400.249,1251.652l.28,1.691a1.388,1.388,0,0,1-1.4,1.677H1339.9a2.066,2.066,0,0,1-1.955-1.677l-.28-1.691a1.387,1.387,0,0,1,1.4-1.677h59.231A2.066,2.066,0,0,1,1400.249,1251.652Z" transform="translate(-1337.641 -1249.975)" fill="#e6f0ff"/>
            </g>
            <g id="Grupo_82836" data-name="Grupo 82836">
              <g id="Grupo_82831" data-name="Grupo 82831" transform="translate(0 0)">
                <path id="Trazado_120735" data-name="Trazado 120735" d="M1381.114,1249.975l.837,5.045H1339.9a2.066,2.066,0,0,1-1.955-1.677l-.28-1.691a1.387,1.387,0,0,1,1.4-1.677Z" transform="translate(-1337.641 -1249.975)" fill="#2ff980"/>
              </g>
              <g id="Grupo_82832" data-name="Grupo 82832" transform="translate(22.225)">
                <path id="Trazado_120736" data-name="Trazado 120736" d="M1529.66,1249.975l-3.816,5.045h-8.705l3.816-5.045Z" transform="translate(-1517.139 -1249.975)" fill="#25d26a"/>
              </g>
              <g id="Grupo_82833" data-name="Grupo 82833" transform="translate(36.241)">
                <path id="Trazado_120737" data-name="Trazado 120737" d="M1637.577,1249.975l.837,5.045h-8.069l3.816-5.045Z" transform="translate(-1630.345 -1249.975)" fill="#25d26a"/>
              </g>
              <g id="Grupo_82834" data-name="Grupo 82834" transform="translate(8.208)">
                <path id="Trazado_120738" data-name="Trazado 120738" d="M1416.453,1249.975l-3.816,5.045h-8.706l3.816-5.045Z" transform="translate(-1403.932 -1249.975)" fill="#25d26a"/>
              </g>
              <g id="Grupo_82835" data-name="Grupo 82835" transform="translate(0 0)">
                <path id="Trazado_120739" data-name="Trazado 120739" d="M1344.354,1249.975l-3.816,5.045h-.638a2.066,2.066,0,0,1-1.955-1.677l-.28-1.691a1.387,1.387,0,0,1,1.4-1.677Z" transform="translate(-1337.641 -1249.975)" fill="#25d26a"/>
              </g>
            </g>
          </g>
          <g id="Grupo_82838" data-name="Grupo 82838" transform="translate(16.068 14.249)">
            <path id="Trazado_120740" data-name="Trazado 120740" d="M1470.885,984.659h-3.3l-.168-1.013h4.614l.145.872-2.02,5.693h-1.294Z" transform="translate(-1467.416 -983.534)" fill="#e6f0ff"/>
            <path id="Trazado_120741" data-name="Trazado 120741" d="M1515.161,986.133c-.311-1.876.581-3.4,2.307-3.4a3.744,3.744,0,0,1,3.414,3.4c.311,1.876-.581,3.4-2.307,3.4A3.736,3.736,0,0,1,1515.161,986.133Zm4.53,0c-.215-1.294-1.056-2.354-2.069-2.354s-1.489,1.032-1.27,2.354c.215,1.294,1.047,2.354,2.069,2.354S1519.908,987.446,1519.69,986.133Z" transform="translate(-1509.195 -982.738)" fill="#e6f0ff"/>
            <path id="Trazado_120742" data-name="Trazado 120742" d="M1567.314,984.72a1.317,1.317,0,0,1,1.278-1.679,1.93,1.93,0,0,1,1.817,1.679,1.317,1.317,0,0,1-1.278,1.679A1.93,1.93,0,0,1,1567.314,984.72Zm2.26,0a1.043,1.043,0,0,0-.881-.957c-.441,0-.632.431-.545.957a1.035,1.035,0,0,0,.881.957C1569.47,985.676,1569.661,985.245,1569.574,984.72Zm2.941-1.6h.928l-3.713,6.565h-.928Zm-.678,4.962a1.317,1.317,0,0,1,1.279-1.679,1.93,1.93,0,0,1,1.816,1.679,1.317,1.317,0,0,1-1.278,1.679A1.93,1.93,0,0,1,1571.838,988.078Zm2.26,0a1.043,1.043,0,0,0-.881-.957c-.441,0-.632.432-.545.957a1.035,1.035,0,0,0,.881.956C1573.994,989.034,1574.185,988.6,1574.1,988.078Z" transform="translate(-1554.922 -983.003)" fill="#e6f0ff"/>
          </g>
          <g id="Grupo_82839" data-name="Grupo 82839" transform="translate(24.466 43.264)">
            <path id="Trazado_120743" data-name="Trazado 120743" d="M1535.238,1217.772h.355l.282,1.7h1.064l.053.324h-1.419Z" transform="translate(-1535.238 -1217.685)" fill="#e6f0ff"/>
            <path id="Trazado_120744" data-name="Trazado 120744" d="M1550.065,1222.33a.659.659,0,0,1,.683-.8.971.971,0,0,1,.945.8.659.659,0,0,1-.686.795A.969.969,0,0,1,1550.065,1222.33Zm1.277,0a.579.579,0,0,0-.55-.491.382.382,0,0,0-.378.491.581.581,0,0,0,.547.491A.383.383,0,0,0,1551.343,1222.33Z" transform="translate(-1548.22 -1220.98)" fill="#e6f0ff"/>
            <path id="Trazado_120745" data-name="Trazado 120745" d="M1566.647,1223.151l-.031-.188a.516.516,0,0,1-.458.22.6.6,0,0,1-.623-.477c-.056-.338.18-.5.536-.5a1.384,1.384,0,0,1,.433.064l0-.029a.385.385,0,0,0-.43-.327.956.956,0,0,0-.421.1l-.142-.28a1.178,1.178,0,0,1,.56-.127.714.714,0,0,1,.778.645l.15.9Zm-.1-.639a1.085,1.085,0,0,0-.36-.061c-.22,0-.335.09-.309.243a.307.307,0,0,0,.332.225c.231,0,.383-.13.351-.321Z" transform="translate(-1561.758 -1221.041)" fill="#e6f0ff"/>
            <path id="Trazado_120746" data-name="Trazado 120746" d="M1579.124,1218.416a.605.605,0,0,1,.577-.792.762.762,0,0,1,.565.269l-.136-.821h.35l.35,2.11h-.35l-.042-.255a.5.5,0,0,1-.473.286A.9.9,0,0,1,1579.124,1218.416Zm1.234,0a.562.562,0,0,0-.523-.489c-.24,0-.409.185-.358.494a.557.557,0,0,0,.52.489A.383.383,0,0,0,1580.359,1218.416Z" transform="translate(-1573.678 -1217.072)" fill="#e6f0ff"/>
            <path id="Trazado_120747" data-name="Trazado 120747" d="M1593.767,1217.212h.376l.055.332h-.376Zm.108.567h.35l.253,1.527h-.35Z" transform="translate(-1586.52 -1217.195)" fill="#e6f0ff"/>
            <path id="Trazado_120748" data-name="Trazado 120748" d="M1601.155,1221.564h.35l.039.237a.45.45,0,0,1,.432-.269.638.638,0,0,1,.641.587l.161.971h-.35l-.144-.867a.389.389,0,0,0-.388-.373c-.2,0-.32.141-.281.379l.143.861h-.35Z" transform="translate(-1592.993 -1220.98)" fill="#e6f0ff"/>
            <path id="Trazado_120749" data-name="Trazado 120749" d="M1616.1,1223.376l.086-.263a1.132,1.132,0,0,0,.57.162c.312,0,.456-.162.405-.468l-.02-.119a.527.527,0,0,1-.491.28.842.842,0,0,1-.813-.72.57.57,0,0,1,.575-.717.789.789,0,0,1,.578.26l-.038-.229h.35l.2,1.214a.693.693,0,0,1-.1.575.741.741,0,0,1-.593.205A1.481,1.481,0,0,1,1616.1,1223.376Zm.972-1.127a.523.523,0,0,0-.518-.422.343.343,0,0,0-.363.425.509.509,0,0,0,.5.422A.355.355,0,0,0,1617.069,1222.249Z" transform="translate(-1605.846 -1220.98)" fill="#e6f0ff"/>
          </g>
        </g>
      </g>
      <g id="Grupo_82867" data-name="Grupo 82867" transform="translate(247.479 316.464)">
        <g id="Grupo_82862" data-name="Grupo 82862" transform="translate(0 0)">
          <g id="Grupo_82842" data-name="Grupo 82842" transform="translate(31.518)">
            <path id="Trazado_120750" data-name="Trazado 120750" d="M794.126,1102.041a2.994,2.994,0,0,0-3.339-3.255,4.272,4.272,0,0,1,1.672.9,4.3,4.3,0,0,0-4.845.731c-2.525,2.093-.956,7.341-1.724,8.338s-3.757,1.2-3.392,4.418,9.488,7.258,8.9,9.924c0,0,3.575-5.256,1.019-7.654a4.738,4.738,0,0,1,1.373,2.569s.338-2.724-1.4-3.6a6.4,6.4,0,0,1-2.657-4.095C789.875,1109.814,794.126,1102.041,794.126,1102.041Z" transform="translate(-782.469 -1098.785)" fill="#2c3a64"/>
          </g>
          <g id="Grupo_82843" data-name="Grupo 82843" transform="translate(35.741 18.886)">
            <path id="Trazado_120751" data-name="Trazado 120751" d="M820.429,1251.316s2.717,11.242,5.385,13.489c1.6,1.351,6.371,4.451,6.371,4.451l-1.983.72s-6.612-2.233-8.092-3.974-5.534-10.462-5.534-10.462Z" transform="translate(-816.575 -1251.316)" fill="#ffb27d"/>
          </g>
          <g id="Grupo_82844" data-name="Grupo 82844" transform="translate(38.621 36.547)">
            <path id="Trazado_120752" data-name="Trazado 120752" d="M856.414,1398.348l-.639-1.582a4.485,4.485,0,0,0-4.159-2.806h-11.78v39.387h48.731v-31.912H860.991A4.936,4.936,0,0,1,856.414,1398.348Z" transform="translate(-839.836 -1393.961)" fill="#583ae2"/>
          </g>
          <g id="Grupo_82845" data-name="Grupo 82845" transform="translate(12.362 28.009)">
            <path id="Trazado_120753" data-name="Trazado 120753" d="M629.444,1335.627c.024.043.049.088.075.132.595,1.033,1.959,3.566,3.461,6.337.711,1.315,1.455,2.684,2.161,3.972,1.216,2.223,2.323,4.2,2.968,5.248.657,1.064,1.14,1.811,1.335,2.11l0,0a.494.494,0,0,1,.063.308,16.141,16.141,0,0,0,.043,2.787,21.38,21.38,0,0,0,6.986,13.848l1.808.267s-2.558-9.478-3.312-14.835a10.306,10.306,0,0,1-.138-2.124,22.186,22.186,0,0,0-.583-5.8,129.865,129.865,0,0,0-3.7-13.422c-.084-.262-2.627-9.458-2.627-9.458-2.134,1.865-9.916,2.635-9.916,2.635S626.754,1330.843,629.444,1335.627Z" transform="translate(-627.75 -1325)" fill="#2f539b"/>
          </g>
          <g id="Grupo_82846" data-name="Grupo 82846" transform="translate(29.166 71.736)">
            <path id="Trazado_120754" data-name="Trazado 120754" d="M771.058,1682.363h-7.545a4.144,4.144,0,0,1,.213-2.022c.378-.837.916-.864.069-2.176a4.6,4.6,0,0,0,3.111.551,9.237,9.237,0,0,0,1.308,1.991C768.707,1681.062,770.906,1680.935,771.058,1682.363Z" transform="translate(-763.472 -1678.165)" fill="#233862"/>
          </g>
          <g id="Grupo_82847" data-name="Grupo 82847" transform="translate(14.056 34.187)">
            <path id="Trazado_120755" data-name="Trazado 120755" d="M641.433,1379.347c.024.043.049.088.075.132.595,1.033,3.81,6.973,5.313,9.744a40.181,40.181,0,0,1-.53-14.325Z" transform="translate(-641.433 -1374.898)" fill="#233862"/>
          </g>
          <g id="Grupo_82848" data-name="Grupo 82848" transform="translate(36.263 2.745)">
            <path id="Trazado_120756" data-name="Trazado 120756" d="M826.675,1121.007a30.242,30.242,0,0,0-4.53,2.215c-2.044,2.267-1.461,5.226-.292,5.255.75.018.6,1.265.6,1.265l8.357-3.535S829.808,1120.339,826.675,1121.007Z" transform="translate(-820.791 -1120.954)" fill="#2c3a64"/>
          </g>
          <g id="Grupo_82849" data-name="Grupo 82849" transform="translate(34.941 17.198)">
            <path id="Trazado_120757" data-name="Trazado 120757" d="M814.51,1237.682a10.706,10.706,0,0,1,1.113,4.6,8,8,0,0,1-5.51,3.033S813.532,1237.68,814.51,1237.682Z" transform="translate(-810.113 -1237.682)" fill="#aec3ff"/>
          </g>
          <g id="Grupo_82850" data-name="Grupo 82850" transform="translate(1 26.434)">
            <path id="Trazado_120758" data-name="Trazado 120758" d="M554.925,1317.054l.026-1.411c-2.812.355-9.694-3.36-9.694-3.36s-2.941,1.956-3.344,7.543c-.2,2.727-1.44,14.259-1.577,17.7-.05,1.248-.067,2.139-.073,2.495a.005.005,0,0,1,0,0,.491.491,0,0,1-.119.291,16.1,16.1,0,0,0-1.523,2.335c-4.29,7.982-2.047,18.828-2.047,18.828l1-.253s3.627-11.243,6-16.107a10.174,10.174,0,0,1,1.074-1.838,22.187,22.187,0,0,0,2.758-5.134C549.151,1333.965,554.925,1317.054,554.925,1317.054Z" transform="translate(-535.987 -1312.283)" fill="#2f539b"/>
          </g>
          <g id="Grupo_82851" data-name="Grupo 82851" transform="translate(0 71.682)">
            <path id="Trazado_120759" data-name="Trazado 120759" d="M535.5,1681.979h-7.545a4.144,4.144,0,0,1,.213-2.022c.378-.837.969-1.217.827-2.23a2.717,2.717,0,0,0,2.351.9,8.28,8.28,0,0,0,1.309,1.7C533.146,1680.677,535.344,1680.551,535.5,1681.979Z" transform="translate(-527.91 -1677.726)" fill="#233862"/>
          </g>
          <g id="Grupo_82852" data-name="Grupo 82852" transform="translate(9.969 12.922)">
            <path id="Trazado_120760" data-name="Trazado 120760" d="M632.891,1216.678c-1.014.173.165.978-1.228,1.13a25.2,25.2,0,0,0-5.105.792,1.152,1.152,0,0,0-.735.6c-.465,1.4-3.411,3.8-3.411,3.8-13.137-.6-13.984-6.453-13.984-6.453,8.526-8.281,15.78-12.794,21.775-13.353a10.668,10.668,0,0,1,4.348.457c2.1.934,3.246,3.774,3.246,3.774S636.741,1216.021,632.891,1216.678Z" transform="translate(-608.428 -1203.147)" fill="#aec3ff"/>
          </g>
          <g id="Grupo_82853" data-name="Grupo 82853" transform="translate(27.181 16.895)">
            <path id="Trazado_120761" data-name="Trazado 120761" d="M753.458,1245.927a25.18,25.18,0,0,0-5.105.793c-3.1-6.182,2.654-11.481,2.654-11.481S753.023,1243.448,753.458,1245.927Z" transform="translate(-747.435 -1235.239)" fill="#94b0ed"/>
          </g>
          <g id="Grupo_82854" data-name="Grupo 82854" transform="translate(28.854 15.78)">
            <path id="Trazado_120762" data-name="Trazado 120762" d="M767.013,1226.239s-4.989-.272-5.875,2.86,1.663,15.634,2.212,16.925c1,2.349,6.044,9.346,6.044,9.346l1.617-.838s-3.247-10.243-3.972-11.256C765.9,1241.684,768.506,1227.6,767.013,1226.239Z" transform="translate(-760.952 -1226.233)" fill="#ffb27d"/>
          </g>
          <g id="Grupo_82855" data-name="Grupo 82855" transform="translate(37.079 43.861)">
            <path id="Trazado_120763" data-name="Trazado 120763" d="M829.215,1453.249a7.37,7.37,0,0,1,.753.773c.336.41.04.558,1,2.415,0,0-.049.258-.259.211s-.937-.767-1.31-.715c0,0-.267.22-.3.948a17.54,17.54,0,0,1-.148,2.469c-.118.283-.984-1.186-1.41-2.247-.374-.931-.01-4.07-.01-4.07Z" transform="translate(-827.382 -1453.031)" fill="#ffb27d"/>
          </g>
          <g id="Grupo_82856" data-name="Grupo 82856" transform="translate(28.056 14.855)">
            <path id="Trazado_120764" data-name="Trazado 120764" d="M754.5,1226.741c.013.073,4.721.866,7.666-.628,0,0,2.46-7.707-1.055-7.338s-5.6,1.476-5.686,3.159A32.4,32.4,0,0,1,754.5,1226.741Z" transform="translate(-754.503 -1218.761)" fill="#aec3ff"/>
          </g>
          <g id="Grupo_82857" data-name="Grupo 82857" transform="translate(35.975 10.956)">
            <path id="Trazado_120765" data-name="Trazado 120765" d="M818.469,1190.277a3.134,3.134,0,0,0,.947,2.195c.625.644,1.529,1.146,2.164.512a6.884,6.884,0,0,0,.982-1.186c.549-.943,1.2-1.906,1.2-1.906l-2.824-2.474-.169-.148a7.2,7.2,0,0,1-2.1,2.387A.656.656,0,0,0,818.469,1190.277Z" transform="translate(-818.463 -1187.269)" fill="#ffb27d"/>
          </g>
          <g id="Grupo_82858" data-name="Grupo 82858" transform="translate(38.399 11.103)">
            <path id="Trazado_120766" data-name="Trazado 120766" d="M840.919,1190.937s-.653.961-1.2,1.905c-1.755-1.082-1.757-3.255-1.622-4.38Z" transform="translate(-838.044 -1188.462)" fill="#ed985f"/>
          </g>
          <g id="Grupo_82859" data-name="Grupo 82859" transform="translate(38.282 6.058)">
            <path id="Trazado_120767" data-name="Trazado 120767" d="M840.17,1156.47s-4.262-2.371-2.744-5,1.99-4.709,4.775-3.306,2.73,2.709,2.437,3.71S841.317,1157.019,840.17,1156.47Z" transform="translate(-837.099 -1147.71)" fill="#ffb27d"/>
          </g>
          <g id="Grupo_82860" data-name="Grupo 82860" transform="translate(37.834 5.701)">
            <path id="Trazado_120768" data-name="Trazado 120768" d="M842.187,1147.815c-.2-1.168-.789-1.28-1.2-1.2a3.408,3.408,0,0,0-4.145-1.587,5.8,5.8,0,0,1-3.359,2.017s.495.92,2.532,1.49a3.482,3.482,0,0,0,2.01-.161,11.374,11.374,0,0,1-2.892,1.09c2.685.246,5.24-2.209,5.5-2.472a3.823,3.823,0,0,1,.211,1.759c-.177.791-.879,2.224-.45,2.41C840.4,1151.16,842.48,1149.567,842.187,1147.815Z" transform="translate(-833.481 -1144.831)" fill="#2c3a64"/>
          </g>
          <g id="Grupo_82861" data-name="Grupo 82861" transform="translate(51.503 36.75)">
            <path id="Trazado_120769" data-name="Trazado 120769" d="M944.5,1395.68s-1.189.892-.293,1.475,2.5.741,2.5.358C946.733,1396.229,946.093,1395.316,944.5,1395.68Z" transform="translate(-943.874 -1395.6)" fill="#ffb27d"/>
          </g>
        </g>
        <g id="Grupo_82863" data-name="Grupo 82863" transform="translate(47.031 49.021)">
          <path id="Trazado_120770" data-name="Trazado 120770" d="M912.116,1509.9H937.3c1.038,0,1.838-1.587,1.851-2.71.041-3.528-3.745-9.164-12.326-6.669,0,0-2.422-6.536-10.931-5.744-5,.465-7.781,5.563-8.116,10.107A4.548,4.548,0,0,0,912.116,1509.9Z" transform="translate(-907.759 -1494.708)" fill="#826be9"/>
        </g>
        <g id="Grupo_82866" data-name="Grupo 82866" transform="translate(56.673 55.456)">
          <g id="Grupo_82864" data-name="Grupo 82864" transform="translate(3.614 3.427)">
            <rect id="Rectángulo_34324" data-name="Rectángulo 34324" width="4.877" height="11.204" transform="translate(4.877 11.204) rotate(180)" fill="#2ff980"/>
          </g>
          <g id="Grupo_82865" data-name="Grupo 82865">
            <path id="Trazado_120771" data-name="Trazado 120771" d="M997.734,1552.365h-12.1l6.052-5.689Z" transform="translate(-985.629 -1546.676)" fill="#2ff980"/>
          </g>
        </g>
      </g>
      <g id="Grupo_82870" data-name="Grupo 82870" transform="translate(412.24 319.297)">
        <g id="Grupo_82868" data-name="Grupo 82868">
          <path id="Trazado_120772" data-name="Trazado 120772" d="M1870.5,1127.543l-6.363,1.462-3.161,5.713-2.364-13.047Z" transform="translate(-1858.615 -1121.671)" fill="#d5cef8"/>
        </g>
        <g id="Grupo_82869" data-name="Grupo 82869" transform="translate(4.253 6.077)">
          <rect id="Rectángulo_34325" data-name="Rectángulo 34325" width="1.163" height="6.726" transform="matrix(0.799, -0.602, 0.602, 0.799, 0, 0.7)" fill="#d5cef8"/>
        </g>
      </g>
      <g id="Grupo_82896" data-name="Grupo 82896" transform="translate(305.709 234.039)">
        <g id="Grupo_82891" data-name="Grupo 82891">
          <g id="Grupo_82871" data-name="Grupo 82871" transform="translate(19.066 51.77)">
            <path id="Trazado_120773" data-name="Trazado 120773" d="M1152.386,857.87a.744.744,0,0,0-.133.8.007.007,0,0,0,0,0,4.942,4.942,0,0,0,1.562,1.714c.094.076.178.145.251.209l.056.051.043.039c.686.633.428.778,1.661,2.062,1.406,1.463,2.375,1.49,2.65,1.356.233-.114-.24-.89-.765-1.762l-.077-.127c-.07-.116-.139-.234-.209-.35-.615-1.05-.457-1.542-.311-3.1.119-1.269,1.975-7.093,1.975-7.093l-2.695-.464s-.812,4.637-1.706,5.351c-.478.381-1.013.385-1.473.668l-.1.06A3.542,3.542,0,0,0,1152.386,857.87Z" transform="translate(-1152.194 -851.198)" fill="#ffb27d"/>
          </g>
          <g id="Grupo_82872" data-name="Grupo 82872" transform="translate(19.066 57.849)">
            <path id="Trazado_120774" data-name="Trazado 120774" d="M1152.386,900.888a.744.744,0,0,0-.133.8.007.007,0,0,0,0,0,5.723,5.723,0,0,0,1.564,1.708c.093.077.175.148.248.214l.056.051.043.039c.686.633.428.778,1.661,2.062,1.406,1.463,2.375,1.49,2.65,1.356.233-.114-.24-.89-.765-1.762a5.994,5.994,0,0,1-2.507-1.847c-.816-1.041-1.37-2.369-1.925-3.183l-.158-.03A3.541,3.541,0,0,0,1152.386,900.888Z" transform="translate(-1152.194 -900.295)" fill="#233862"/>
          </g>
          <g id="Grupo_82873" data-name="Grupo 82873" transform="translate(38.833 50.95)">
            <path id="Trazado_120775" data-name="Trazado 120775" d="M1314,850.382c.167.832,1.352.693,2.677.369s1.01.061,2.9-.148,2.457-.912,2.514-1.192c.052-.249-.88-.337-1.879-.452-.126-.014-.252-.03-.378-.045a8.159,8.159,0,0,1-2.979-1.467,11.975,11.975,0,0,1-2.419-2.874l-2.586.2s1.357,2.061,1.882,2.957a3.124,3.124,0,0,1,.254,1.762A3.32,3.32,0,0,0,1314,850.382Z" transform="translate(-1311.848 -844.573)" fill="#ffb27d"/>
          </g>
          <g id="Grupo_82874" data-name="Grupo 82874" transform="translate(40.949 55.336)">
            <path id="Trazado_120776" data-name="Trazado 120776" d="M1331.654,881.794c1.325-.324,1.01.061,2.9-.148s2.457-.912,2.514-1.192c.052-.249-.88-.336-1.88-.452l-.009.019a5.314,5.314,0,0,1-2.7.839c-1.279.031-2.634-.335-3.517-.321a3.319,3.319,0,0,0,.02.884C1329.144,882.256,1330.33,882.117,1331.654,881.794Z" transform="translate(-1328.938 -880.002)" fill="#233862"/>
          </g>
          <g id="Grupo_82875" data-name="Grupo 82875" transform="translate(22.208 36.079)">
            <path id="Trazado_120777" data-name="Trazado 120777" d="M1186.443,728.612l-2.417,6.5-3.156,8.493a5.109,5.109,0,0,1-1.677-.153,7.267,7.267,0,0,1-1.621-.789s.876-9.119,2.511-14.354a9.324,9.324,0,0,1,1.406-3.042C1184.024,722.276,1186.443,728.612,1186.443,728.612Z" transform="translate(-1177.572 -724.467)" fill="#94b0ed"/>
          </g>
          <g id="Grupo_82876" data-name="Grupo 82876" transform="translate(5.24 28.594)">
            <path id="Trazado_120778" data-name="Trazado 120778" d="M1063.911,665.32c-1.376-.444-4.966-.007-8.86.7a2.642,2.642,0,0,1-2.727-1.232h0l-9.8-.765s-3.234,7.172-1.464,11.741a1.719,1.719,0,0,0,1.713,1.1h0s5.922.008,7.816.008c4.874,0,10.315-3.35,11.019-3.491,1.152-.23,1.613,2.074,2.765,4.493s10.829,10.714,10.829,10.714a8.523,8.523,0,0,0,2.1-.216,2.068,2.068,0,0,0,.9-.57S1067.483,666.472,1063.911,665.32Z" transform="translate(-1040.53 -664.021)" fill="#aec3ff"/>
          </g>
          <g id="Grupo_82877" data-name="Grupo 82877" transform="translate(0.036)">
            <path id="Trazado_120779" data-name="Trazado 120779" d="M1014.456,433.658a3.477,3.477,0,0,0-1.872-.487,5.191,5.191,0,0,1-.9-.055c-3.74-.549-5.993,4.885-6.125,6.526-.242,3.014-1.837,3.473-4.081,5.361-4.5,3.785-3.18,8.182-.72,9.817,1.476.98,4.078,0,4.078,0,.037.026,7.117-3.958,10.606-5.879C1020.672,448.2,1016.558,434.909,1014.456,433.658Z" transform="translate(-998.5 -433.077)" fill="#233862"/>
          </g>
          <g id="Grupo_82878" data-name="Grupo 82878" transform="translate(9.276 8.74)">
            <path id="Trazado_120780" data-name="Trazado 120780" d="M1077.9,509.154a4.614,4.614,0,0,1-2.875.088,5.125,5.125,0,0,1-1.9-2.276c.5-.023,1.04-.456,1.459-3.3l.211.076,3.55,1.277s-.257,1.139-.424,2.223C1077.783,508.153,1077.708,509.026,1077.9,509.154Z" transform="translate(-1073.127 -503.667)" fill="#ffb27d"/>
          </g>
          <g id="Grupo_82879" data-name="Grupo 82879" transform="translate(10.946 8.816)">
            <path id="Trazado_120781" data-name="Trazado 120781" d="M1090.168,505.555s-.142.615-.348,1.763a4.008,4.008,0,0,1-3.2-3.04Z" transform="translate(-1086.619 -504.278)" fill="#ed975d"/>
          </g>
          <g id="Grupo_82880" data-name="Grupo 82880" transform="translate(10.591 2.681)">
            <path id="Trazado_120782" data-name="Trazado 120782" d="M1088.181,463.274s-4.856-.652-4.4-3.67.13-5.135,3.25-4.846,3.548,1.53,3.642,2.574S1089.456,463.366,1088.181,463.274Z" transform="translate(-1083.748 -454.732)" fill="#ffb27d"/>
          </g>
          <g id="Grupo_82881" data-name="Grupo 82881" transform="translate(9.198 2.414)">
            <path id="Trazado_120783" data-name="Trazado 120783" d="M1080.632,453.791s-3.109,2.679-5.223,2.9-2.915-.463-2.915-.463a8.255,8.255,0,0,0,2-2.7,1.488,1.488,0,0,1,1.226-.877C1077.226,452.511,1080.088,452.452,1080.632,453.791Z" transform="translate(-1072.494 -452.577)" fill="#233862"/>
          </g>
          <g id="Grupo_82882" data-name="Grupo 82882" transform="translate(15.393 2.807)">
            <path id="Trazado_120784" data-name="Trazado 120784" d="M1122.528,456.327a7.653,7.653,0,0,1,1.368,1.751,5.876,5.876,0,0,1,.159,3.125s1.62-3.151.7-4.681A1.3,1.3,0,0,0,1122.528,456.327Z" transform="translate(-1122.528 -455.746)" fill="#233862"/>
          </g>
          <g id="Grupo_82883" data-name="Grupo 82883" transform="translate(5.108 11.926)">
            <path id="Trazado_120785" data-name="Trazado 120785" d="M1052.5,538.852c-.147,9.83-.04,7.776-1.116,8.709a4.128,4.128,0,0,1-1.946.422c-3.014.2-8.313-.3-8.514-.854-.7-1.927-.2-2.526-.785-5.477-.06-.314-.135-.654-.223-1.024-.484-2.027-.954-2.716.761-5.972,1.556-2.95,3.173-5.343,3.318-5.257,4.105,2.437,4.437.389,4.437.389S1052.572,534.057,1052.5,538.852Z" transform="translate(-1039.468 -529.397)" fill="#583ae2"/>
          </g>
          <g id="Grupo_82884" data-name="Grupo 82884" transform="translate(22.208 39.925)">
            <path id="Trazado_120786" data-name="Trazado 120786" d="M1184.026,762.335l-3.156,8.493a5.111,5.111,0,0,1-1.677-.153,7.267,7.267,0,0,1-1.621-.789s.876-9.119,2.511-14.354Z" transform="translate(-1177.572 -755.532)" fill="#aec3ff"/>
          </g>
          <g id="Grupo_82885" data-name="Grupo 82885" transform="translate(14.072 12.316)">
            <path id="Trazado_120787" data-name="Trazado 120787" d="M1111.865,532.549s4.224.716,4.72,2.535,2.129,12.858,2.129,12.858-1.191,1.163-2.183.171-3.122-10.329-3.122-10.329Z" transform="translate(-1111.865 -532.549)" fill="#583ae2"/>
          </g>
          <g id="Grupo_82886" data-name="Grupo 82886" transform="translate(5.779 20.087)">
            <path id="Trazado_120788" data-name="Trazado 120788" d="M1054.186,605.736c-3.014.2-8.313-.3-8.514-.854-.7-1.927-.2-2.526-.785-5.477l1.454-4.094s-.24,4.559,1.1,5.758,5.5,2.315,6.158,3.317A3.667,3.667,0,0,1,1054.186,605.736Z" transform="translate(-1044.887 -595.311)" fill="#40327b"/>
          </g>
          <g id="Grupo_82887" data-name="Grupo 82887" transform="translate(11.625 28.134)">
            <path id="Trazado_120789" data-name="Trazado 120789" d="M1092.1,660.763s2.974-.662,3.454-.4a6.983,6.983,0,0,1,1.8,1.559c.147.334-1.068-.254-1.464-.36a3.518,3.518,0,0,0-1.263.277,4.2,4.2,0,0,1-2.263.227Z" transform="translate(-1092.097 -660.302)" fill="#ffb27d"/>
          </g>
          <g id="Grupo_82888" data-name="Grupo 82888" transform="translate(0 11.926)">
            <path id="Trazado_120790" data-name="Trazado 120790" d="M1007.843,529.4s-3.993.246-5.375,2.174c-1.946,2.714-5.806,14.28-3.594,15.822,2.491,1.737,11.338.455,11.338.455a3.594,3.594,0,0,0-.115-2.042c-.41-.666-7.066-1.741-7.374-2.048s3.84-5.991,3.84-6.913S1007.843,529.4,1007.843,529.4Z" transform="translate(-998.21 -529.398)" fill="#583ae2"/>
          </g>
          <g id="Grupo_82889" data-name="Grupo 82889" transform="translate(15.222 29.024)">
            <path id="Trazado_120791" data-name="Trazado 120791" d="M1121.153,667.489a5.751,5.751,0,0,0,.827.9.61.61,0,0,0,.336.072l-.42-.756Z" transform="translate(-1121.153 -667.489)" fill="#ffb27d"/>
          </g>
          <g id="Grupo_82890" data-name="Grupo 82890" transform="translate(15.078 28.196)">
            <path id="Trazado_120792" data-name="Trazado 120792" d="M1119.99,660.8l1.812.88a.323.323,0,0,1-.3.116,4.329,4.329,0,0,1-.786-.216Z" transform="translate(-1119.99 -660.804)" fill="#ffb27d"/>
          </g>
        </g>
        <g id="Grupo_82895" data-name="Grupo 82895" transform="translate(11.625 19.962)">
          <g id="Grupo_82892" data-name="Grupo 82892" transform="translate(0 10.302)">
            <path id="Trazado_120793" data-name="Trazado 120793" d="M1111.02,677.507H1092.1v.418h18.755Z" transform="translate(-1092.097 -677.507)" fill="#233862"/>
          </g>
          <g id="Grupo_82893" data-name="Grupo 82893" transform="translate(4.425)">
            <path id="Trazado_120794" data-name="Trazado 120794" d="M1127.835,605.022h14.33l4.311-10.72h-14.308Z" transform="translate(-1127.835 -594.302)" fill="#233862"/>
          </g>
          <g id="Grupo_82894" data-name="Grupo 82894" transform="translate(13.745 4.678)">
            <path id="Trazado_120795" data-name="Trazado 120795" d="M1204.5,632.763a.5.5,0,0,0-.487-.682.978.978,0,0,0-.878.682.5.5,0,0,0,.487.682A.977.977,0,0,0,1204.5,632.763Z" transform="translate(-1203.112 -632.081)" fill="#fff"/>
          </g>
        </g>
      </g>
      <g id="Grupo_82911" data-name="Grupo 82911" transform="translate(454.61 291.999)">
        <g id="Grupo_82897" data-name="Grupo 82897" transform="translate(17.823 16.352)">
          <path id="Trazado_120796" data-name="Trazado 120796" d="M2344.759,1033.26s6.945,7.065,7.3,10-3.6,7.512-3.6,7.512Z" transform="translate(-2344.759 -1033.26)" fill="#40327b"/>
        </g>
        <g id="Grupo_82898" data-name="Grupo 82898" transform="translate(3.69 95.051)">
          <path id="Trazado_120797" data-name="Trazado 120797" d="M2240.783,1670.208s-.265,4.134-1.065,4.191c-.106.008-4.057,0-4.057,0l-5.043-.04a1.637,1.637,0,0,1,1.51-1.469c1.475-.253,3.944-1.284,4.841-3.23C2237.914,1667.611,2240.783,1670.208,2240.783,1670.208Z" transform="translate(-2230.619 -1668.872)" fill="#0e2644"/>
        </g>
        <g id="Grupo_82899" data-name="Grupo 82899" transform="translate(14.922 95.075)">
          <path id="Trazado_120798" data-name="Trazado 120798" d="M2331.5,1670.405s-.265,4.134-1.065,4.191c-.106.008-4.056,0-4.056,0l-5.043-.04a1.636,1.636,0,0,1,1.51-1.469c1.475-.254,3.944-1.284,4.841-3.23C2328.627,1667.808,2331.5,1670.405,2331.5,1670.405Z" transform="translate(-2321.332 -1669.069)" fill="#0e2644"/>
        </g>
        <g id="Grupo_82900" data-name="Grupo 82900" transform="translate(8.367 45.654)">
          <path id="Trazado_120799" data-name="Trazado 120799" d="M2268.388,1276.211s1.3,8.438,6.188,23.422,5.544,21.47,5.544,21.47l5.278-.137s.081-16.364-2.171-23.9-.43-27.146-.43-27.146Z" transform="translate(-2268.388 -1269.921)" fill="#163560"/>
        </g>
        <g id="Grupo_82901" data-name="Grupo 82901" transform="translate(5.805 46.08)">
          <path id="Trazado_120800" data-name="Trazado 120800" d="M2247.706,1273.355a204.761,204.761,0,0,0,1.951,28.323c2.165,15.612,1.405,22.235,1.405,22.235l5.267.187s3.181-15.606,2.3-23.419,4.369-26.8,4.369-26.8Z" transform="translate(-2247.7 -1273.355)" fill="#1c468a"/>
        </g>
        <g id="Grupo_82902" data-name="Grupo 82902" transform="translate(9.208 10.071)">
          <path id="Trazado_120801" data-name="Trazado 120801" d="M2282.045,988.814l-2.81,1.834-4.054-.765c.057-.327.327-1.684.574-2.912.015-.073.03-.145.044-.216.211-1.045.393-1.943.393-1.943l3.792-1.663,1.414-.62c0,.022-.112,1.161-.127,1.327A9.657,9.657,0,0,0,2282.045,988.814Z" transform="translate(-2275.181 -982.528)" fill="#ffb27d"/>
        </g>
        <g id="Grupo_82903" data-name="Grupo 82903" transform="translate(8.624 14.133)">
          <path id="Trazado_120802" data-name="Trazado 120802" d="M2272.1,1016.622c.079-.033,4.887-1.44,5.409-1.267s.829,1.184.829,1.184l-7.864,1.76A3.905,3.905,0,0,1,2272.1,1016.622Z" transform="translate(-2270.469 -1015.34)" fill="#40327b"/>
        </g>
        <g id="Grupo_82904" data-name="Grupo 82904" transform="translate(4.905 15.29)">
          <path id="Trazado_120803" data-name="Trazado 120803" d="M2258.649,1057.078c-.823,3.714-14.38,4.125-17.867.745-.4-.386-.413-2.174-.257-4.586.3-4.711,1.26-11.8,1.305-15.419a28.668,28.668,0,0,1,.589-5.16,41.9,41.9,0,0,1,1.733-6.175s6.626-2.126,7.864-1.759C2257.981,1026.491,2259.471,1053.364,2258.649,1057.078Z" transform="translate(-2240.433 -1024.682)" fill="#583ae2"/>
        </g>
        <g id="Grupo_82905" data-name="Grupo 82905" transform="translate(4.997 22.572)">
          <path id="Trazado_120804" data-name="Trazado 120804" d="M2241.172,1104.77c.3-4.712,1.26-11.8,1.3-15.419a28.69,28.69,0,0,1,.59-5.16l3.985-.694S2251.444,1100.376,2241.172,1104.77Z" transform="translate(-2241.172 -1083.496)" fill="#40327b"/>
        </g>
        <g id="Grupo_82906" data-name="Grupo 82906" transform="translate(6.028 36.665)">
          <path id="Trazado_120805" data-name="Trazado 120805" d="M2250.641,1197.934a.937.937,0,0,1-.3,1.084,1.817,1.817,0,0,0-.813,1.656c.13.516,1.378,1.36,1.812,1.226s1.317-.812,1.223-1.084.6-2.387-.457-3.2A.853.853,0,0,0,2250.641,1197.934Z" transform="translate(-2249.501 -1197.316)" fill="#ffb27d"/>
        </g>
        <g id="Grupo_82907" data-name="Grupo 82907" transform="translate(0 16.366)">
          <path id="Trazado_120806" data-name="Trazado 120806" d="M2212.374,1033.369s-3.778.5-6.883,5.053-5.149,7.941-4.582,9.587,5.751,7.358,6.647,7.36a2.4,2.4,0,0,0,2.428-2.113s-3.285-5.832-2.563-6.652c.309-.35,4.4-3.607,5.028-1.976C2213.493,1047.325,2212.374,1033.369,2212.374,1033.369Z" transform="translate(-2200.814 -1033.369)" fill="#583ae2"/>
        </g>
        <g id="Grupo_82908" data-name="Grupo 82908" transform="translate(9.782 10.69)">
          <path id="Trazado_120807" data-name="Trazado 120807" d="M2285.047,988.292c-.835,1.407-3.937,2.619-5.231,3.064.015-.073.03-.145.044-.216.211-1.045.394-1.943.394-1.943l3.792-1.663C2284.882,987.524,2285.392,987.713,2285.047,988.292Z" transform="translate(-2279.816 -987.533)" fill="#fca56b"/>
        </g>
        <g id="Grupo_82909" data-name="Grupo 82909" transform="translate(8.034 2.084)">
          <path id="Trazado_120808" data-name="Trazado 120808" d="M2266.458,928.061s6.1,1.917,7.233-1.9,2.687-6.138-1.158-7.523-5.038-.155-5.727,1.026S2264.9,927.464,2266.458,928.061Z" transform="translate(-2265.701 -918.025)" fill="#ffb27d"/>
        </g>
        <g id="Grupo_82910" data-name="Grupo 82910" transform="translate(8.809)">
          <path id="Trazado_120809" data-name="Trazado 120809" d="M2272.53,904.549s.38,4.444,1.3,4.253,1.753-.332,1.615,1.007-1.415,2.883,1.417,3.126,6.918-7.051,6.143-8.436C2280.768,900.5,2269.3,899.675,2272.53,904.549Z" transform="translate(-2271.959 -901.192)" fill="#163560"/>
        </g>
      </g>
    </g>
    <g id="Elipse_5403" data-name="Elipse 5403" transform="translate(1033 15543)" fill="none" stroke="#40327b" stroke-width="15" style="mix-blend-mode: multiply;isolation: isolate">
      <ellipse cx="29.5" cy="30" rx="29.5" ry="30" stroke="none"/>
      <ellipse cx="29.5" cy="30" rx="22" ry="22.5" fill="none"/>
    </g>
    <ellipse id="Elipse_5404" data-name="Elipse 5404" cx="9.5" cy="9.5" rx="9.5" ry="9.5" transform="translate(1020 15546)" fill="#583ae2" style="mix-blend-mode: multiply;isolation: isolate"/>
  </g>
</svg>
