<svg xmlns="http://www.w3.org/2000/svg" width="179" height="179" viewBox="0 0 179 179">
  <g id="Grupo_948527" data-name="Grupo 948527" transform="translate(-1060 -17352)">
    <circle id="Elipse_5407" data-name="Elipse 5407" cx="89.5" cy="89.5" r="89.5" transform="translate(1060 17352)" fill="#fff"/>
    <g id="Grupo_948515" data-name="Grupo 948515" transform="translate(707)">
      <rect id="Rectángulo_34831" data-name="Rectángulo 34831" width="105" height="110" transform="translate(390 17388)" fill="none"/>
      <g id="almacenamiento-del-servidor" transform="translate(391.656 17391.313)">
        <g id="Grupo_948525" data-name="Grupo 948525" transform="translate(2.592 2.592)">
          <g id="Grupo_948516" data-name="Grupo 948516" transform="translate(7.959 0)">
            <path id="Trazado_633793" data-name="Trazado 633793" d="M54.752,41.427V8.367A6.365,6.365,0,0,0,48.385,2H13.367A6.365,6.365,0,0,0,7,8.367V79.995a14.3,14.3,0,0,1,6.367-11.906V60.894A1.6,1.6,0,0,1,14.959,59.3H34.664a18.75,18.75,0,0,1,9.773-3.152,27.11,27.11,0,0,1,1.051-3.215,25.629,25.629,0,0,1,1.56-3.183,25.209,25.209,0,0,1,7.72-8.309Z" transform="translate(-7 -2)" fill="#fcd770"/>
          </g>
          <g id="Grupo_948517" data-name="Grupo 948517" transform="translate(14.326 6.367)">
            <path id="Trazado_633794" data-name="Trazado 633794" d="M11,17.142V7.592A1.6,1.6,0,0,1,12.592,6H44.426a1.6,1.6,0,0,1,1.592,1.592v9.55a1.6,1.6,0,0,1-1.592,1.592H12.592A1.6,1.6,0,0,1,11,17.142Z" transform="translate(-11 -6)" fill="#b4dd7f"/>
          </g>
          <g id="Grupo_948518" data-name="Grupo 948518" transform="translate(14.326 31.835)">
            <path id="Trazado_633795" data-name="Trazado 633795" d="M46.018,23.592v9.55a1.6,1.6,0,0,1-1.592,1.592H12.592A1.6,1.6,0,0,1,11,33.142v-9.55A1.6,1.6,0,0,1,12.592,22H44.426A1.6,1.6,0,0,1,46.018,23.592Z" transform="translate(-11 -22)" fill="#b4dd7f"/>
          </g>
          <g id="Grupo_948519" data-name="Grupo 948519" transform="translate(14.326 57.302)">
            <path id="Trazado_633796" data-name="Trazado 633796" d="M12.592,38H32.3a19.118,19.118,0,0,0-6.813,7.959,14.075,14.075,0,0,0-6.526-1.592A14.231,14.231,0,0,0,11,46.786V39.592A1.6,1.6,0,0,1,12.592,38Z" transform="translate(-11 -38)" fill="#b4dd7f"/>
          </g>
          <g id="Grupo_948520" data-name="Grupo 948520" transform="translate(45.396 35.018)">
            <path id="Trazado_633797" data-name="Trazado 633797" d="M77.221,36.718A25.443,25.443,0,0,0,40.85,28.425a25.209,25.209,0,0,0-7.72,8.309,25.629,25.629,0,0,0-1.56,3.183,27.112,27.112,0,0,0-1.051,3.215,6.134,6.134,0,0,1,.764-.032A19.125,19.125,0,0,1,42.506,46.73a19.753,19.753,0,0,1,3.024,2.738A18.994,18.994,0,0,1,50.385,62.2a11.1,11.1,0,0,1,11,9.471,9.6,9.6,0,0,1,.143,1.671,6.155,6.155,0,0,1-.048.764h.016A25.51,25.51,0,0,0,77.205,62.2a25.483,25.483,0,0,0,.016-25.484Z" transform="translate(-30.52 -24)" fill="#69d6f4"/>
          </g>
          <g id="Grupo_948521" data-name="Grupo 948521" transform="translate(0 54.119)">
            <path id="Trazado_633798" data-name="Trazado 633798" d="M62.406,42.367A18.994,18.994,0,0,1,67.261,55.1a11.1,11.1,0,0,1,11,9.471,9.6,9.6,0,0,1,.143,1.671,6.153,6.153,0,0,1-.048.764A11.089,11.089,0,0,1,67.261,77.385H9.959a7.959,7.959,0,1,1,0-15.917c.032,0,.064.016.1.016v-.016a13.15,13.15,0,0,1-.1-1.592A14.337,14.337,0,0,1,24.284,45.55a14.075,14.075,0,0,1,6.526,1.592,19.118,19.118,0,0,1,6.813-7.959A18.75,18.75,0,0,1,47.4,36.032,6.134,6.134,0,0,1,48.16,36a19.125,19.125,0,0,1,11.222,3.629A19.752,19.752,0,0,1,62.406,42.367Z" transform="translate(-2 -36)" fill="#e6e9ed"/>
          </g>
          <g id="Grupo_948522" data-name="Grupo 948522" transform="translate(51.547 79.383)">
            <ellipse id="Elipse_5409" data-name="Elipse 5409" cx="3" cy="3.5" rx="3" ry="3.5" transform="translate(-0.139 -0.287)" fill="#ff826e"/>
          </g>
          <g id="Grupo_948523" data-name="Grupo 948523" transform="translate(37.63 79.383)">
            <circle id="Elipse_5410" data-name="Elipse 5410" cx="3.5" cy="3.5" r="3.5" transform="translate(-0.222 -0.287)" fill="#ff826e"/>
          </g>
          <g id="Grupo_948524" data-name="Grupo 948524" transform="translate(24.978 79.383)">
            <ellipse id="Elipse_5411" data-name="Elipse 5411" cx="3" cy="3.5" rx="3" ry="3.5" transform="translate(0.431 -0.287)" fill="#ff826e"/>
          </g>
        </g>
        <g id="Grupo_948526" data-name="Grupo 948526" transform="translate(1 1)">
          <path id="Trazado_633799" data-name="Trazado 633799" d="M63.289,16.953l1.99,2.486,9.512-7.61-9.512-7.61-1.99,2.486L67.7,10.237H42v3.183H67.7Z" transform="translate(23.261 0.905)"/>
          <path id="Trazado_633800" data-name="Trazado 633800" d="M51.9,24.953l-4.415-3.532h25.7V18.237h-25.7L51.9,14.705l-1.99-2.486L40.4,19.829l9.512,7.61Z" transform="translate(22.313 5.639)"/>
          <path id="Trazado_633801" data-name="Trazado 633801" d="M99.687,63.077A27.043,27.043,0,0,0,59.894,39.213V8.959A7.968,7.968,0,0,0,51.935,1H16.917A7.968,7.968,0,0,0,8.959,8.959v71.76A9.551,9.551,0,0,0,10.55,99.687h57.3A12.741,12.741,0,0,0,80.414,88.941,27.009,27.009,0,0,0,99.687,63.077ZM69.379,74.219a20.526,20.526,0,0,0-3.218-9.55H83.743a44.817,44.817,0,0,1-1.308,9.55ZM81.463,77.4a25.011,25.011,0,0,1-2.009,4.331,12.793,12.793,0,0,0-3.2-4.331ZM50.344,45.568H18.509v-9.55H50.344Zm31.112,3.183H63.779c2.064-5.788,5.31-9.55,8.848-9.55s6.771,3.8,8.828,9.55Zm-21.054,0H53.564a23.866,23.866,0,0,1,10.943-8.116A26.085,26.085,0,0,0,60.4,48.752Zm-8.855,3.183h7.989a46.911,46.911,0,0,0-.95,5.69,20.52,20.52,0,0,0-8.468-2.442A23.837,23.837,0,0,1,51.547,51.935Zm11.268,0H82.431a45.147,45.147,0,0,1,1.3,9.55H63.641a21.049,21.049,0,0,0-2.021-1.856A44.335,44.335,0,0,1,62.815,51.935Zm33.608,9.55H86.912a48.413,48.413,0,0,0-1.2-9.55h8.013A23.682,23.682,0,0,1,96.422,61.486Zm-9.5,3.183h9.511a23.773,23.773,0,0,1-2.706,9.55H85.693A48.422,48.422,0,0,0,86.926,64.669Zm4.758-15.917H84.827a26.51,26.51,0,0,0-4.084-8.1,23.951,23.951,0,0,1,10.942,8.1Zm-38.157-4.8V36.018a3.187,3.187,0,0,0-3.183-3.183H18.509a3.187,3.187,0,0,0-3.183,3.183v9.55a3.187,3.187,0,0,0,3.183,3.183h31.2a27.171,27.171,0,0,0-1.719,3.183H12.142V29.651H56.71V41.228A26.911,26.911,0,0,0,53.527,43.956ZM16.917,4.183H51.935A4.781,4.781,0,0,1,56.71,8.959V26.468H12.142V8.959A4.781,4.781,0,0,1,16.917,4.183ZM12.142,55.119H46.815c-.011.035-.021.072-.032.107a20.672,20.672,0,0,0-9,3.077H18.509a3.187,3.187,0,0,0-3.183,3.183v6.4a16.008,16.008,0,0,0-3.183,3.193Zm21.714,6.367a20.7,20.7,0,0,0-3.179,4.283,15.83,15.83,0,0,0-12.169.239V61.486Zm34,35.018H10.55A6.364,6.364,0,0,1,10.4,83.778l.245,0,.759,0,1.02,0-.2-1.768a13.142,13.142,0,0,1-.084-1.425A12.749,12.749,0,0,1,24.876,67.852a12.581,12.581,0,0,1,5.8,1.41l1.479.759.7-1.511a17.5,17.5,0,0,1,33.407,7.3V77.4h1.592a9.55,9.55,0,0,1,0,19.1Zm12.88-11a26.613,26.613,0,0,0,4.073-8.1h6.9A23.827,23.827,0,0,1,80.733,85.5Z" transform="translate(-1 -1)"/>
          <path id="Trazado_633802" data-name="Trazado 633802" d="M30.792,42.366,30,39.283a14.287,14.287,0,0,0-3.359,1.339l1.542,2.784A11.2,11.2,0,0,1,30.792,42.366Z" transform="translate(14.172 21.653)"/>
          <path id="Trazado_633803" data-name="Trazado 633803" d="M31,39v3.183A11.155,11.155,0,0,1,42.142,53.326a11.586,11.586,0,0,1-.086,1.4l3.158.385A14.327,14.327,0,0,0,31,39Z" transform="translate(16.752 21.486)"/>
          <path id="Trazado_633804" data-name="Trazado 633804" d="M10,54.55a9.466,9.466,0,0,0,.8,3.82L13.712,57.1a6.371,6.371,0,0,1,5.838-8.912V45A9.56,9.56,0,0,0,10,54.55Z" transform="translate(4.326 25.036)"/>
          <path id="Trazado_633805" data-name="Trazado 633805" d="M21.775,51a4.775,4.775,0,1,0,4.775,4.775A4.781,4.781,0,0,0,21.775,51Zm0,6.367a1.592,1.592,0,1,1,1.592-1.592A1.593,1.593,0,0,1,21.775,57.367Z" transform="translate(8.468 28.586)"/>
          <path id="Trazado_633806" data-name="Trazado 633806" d="M29.775,51a4.775,4.775,0,1,0,4.775,4.775A4.781,4.781,0,0,0,29.775,51Zm0,6.367a1.592,1.592,0,1,1,1.592-1.592A1.593,1.593,0,0,1,29.775,57.367Z" transform="translate(13.201 28.586)"/>
          <path id="Trazado_633807" data-name="Trazado 633807" d="M37.775,51a4.775,4.775,0,1,0,4.775,4.775A4.781,4.781,0,0,0,37.775,51Zm0,6.367a1.592,1.592,0,1,1,1.592-1.592A1.593,1.593,0,0,1,37.775,57.367Z" transform="translate(17.935 28.586)"/>
          <path id="Trazado_633808" data-name="Trazado 633808" d="M13.183,20.917H45.018A3.187,3.187,0,0,0,48.2,17.734V8.183A3.187,3.187,0,0,0,45.018,5H13.183A3.187,3.187,0,0,0,10,8.183v9.55A3.187,3.187,0,0,0,13.183,20.917Zm0-12.734H45.018l0,9.55H13.183Z" transform="translate(4.326 1.367)"/>
          <path id="Trazado_633809" data-name="Trazado 633809" d="M14,9h3.183v3.183H14Z" transform="translate(6.692 3.734)"/>
          <path id="Trazado_633810" data-name="Trazado 633810" d="M18,9h3.183v3.183H18Z" transform="translate(9.059 3.734)"/>
          <path id="Trazado_633811" data-name="Trazado 633811" d="M28,25h3.183v3.183H28Z" transform="translate(14.977 13.201)"/>
          <path id="Trazado_633812" data-name="Trazado 633812" d="M24,25h3.183v3.183H24Z" transform="translate(12.61 13.201)"/>
        </g>
      </g>
    </g>
  </g>
</svg>
