<svg xmlns="http://www.w3.org/2000/svg" width="259.962" height="259.962" viewBox="0 0 259.962 259.962">
  <g id="Grupo_948813" data-name="Grupo 948813" transform="translate(-135.221 -1637.407)">
    <path id="Trazado_634346" data-name="Trazado 634346" d="M373.515,1694.845a1.659,1.659,0,0,1-1.659-1.659v-32.452H158.549v29.9a1.66,1.66,0,0,1-3.319,0v-33.218H375.174v35.77A1.658,1.658,0,0,1,373.515,1694.845Z" fill="#40327b"/>
    <path id="Trazado_634347" data-name="Trazado 634347" d="M265.2,1637.407a129.981,129.981,0,1,0,129.981,129.981A129.982,129.982,0,0,0,265.2,1637.407Z" fill="#3795a3"/>
    <path id="Trazado_634348" data-name="Trazado 634348" d="M156.889,1743.148a1.659,1.659,0,0,1-1.659-1.659v-50.855a1.66,1.66,0,1,1,3.319,0v50.855A1.659,1.659,0,0,1,156.889,1743.148Z" fill="#40327b"/>
    <g id="Grupo_948812" data-name="Grupo 948812">
      <path id="Trazado_634349" data-name="Trazado 634349" d="M375.174,1877.36H155.23v-84.073a1.66,1.66,0,0,1,3.319,0v80.755H371.856V1693.186a1.659,1.659,0,1,1,3.318,0Z" fill="#40327b"/>
    </g>
    <path id="Trazado_635175" data-name="Trazado 635175" d="M-58.875,0h-1.453l-1.187-3.141h-4.75L-67.383,0h-1.461l4.3-11.2h1.359Zm-3.07-4.32L-63.7-9.094a4.571,4.571,0,0,1-.172-.75h-.031a4.184,4.184,0,0,1-.18.75L-65.828-4.32Zm10,3.953a4.163,4.163,0,0,1-2.187.555A3.622,3.622,0,0,1-56.895-.926a4.035,4.035,0,0,1-1.051-2.887,4.435,4.435,0,0,1,1.133-3.176,3.963,3.963,0,0,1,3.023-1.2A4.209,4.209,0,0,1-51.93-7.8v1.313a3.258,3.258,0,0,0-1.906-.625,2.576,2.576,0,0,0-2.012.879,3.335,3.335,0,0,0-.785,2.309A3.176,3.176,0,0,0-55.895-1.7a2.545,2.545,0,0,0,1.98.813,3.211,3.211,0,0,0,1.969-.7Zm5.648.289a2.47,2.47,0,0,1-1.2.25q-2.1,0-2.1-2.344V-6.906h-1.375V-8h1.375V-9.953l1.281-.414V-8H-46.3v1.094h-2.016V-2.4a1.869,1.869,0,0,0,.273,1.148,1.091,1.091,0,0,0,.906.344,1.347,1.347,0,0,0,.836-.266Zm2.367-9.953a.812.812,0,0,1-.586-.234.791.791,0,0,1-.242-.594.8.8,0,0,1,.242-.6.8.8,0,0,1,.586-.238.827.827,0,0,1,.6.238.8.8,0,0,1,.246.6.792.792,0,0,1-.246.586A.82.82,0,0,1-43.93-10.031ZM-43.3,0h-1.281V-8H-43.3Zm8.883-8-3.187,8h-1.258L-41.9-8h1.406l2.031,5.813A5.217,5.217,0,0,1-38.18-1.07h.031a5.283,5.283,0,0,1,.25-1.086L-35.773-8Zm2.031-2.031a.812.812,0,0,1-.586-.234.791.791,0,0,1-.242-.594.8.8,0,0,1,.242-.6.8.8,0,0,1,.586-.238.827.827,0,0,1,.6.238.8.8,0,0,1,.246.6.792.792,0,0,1-.246.586A.82.82,0,0,1-32.391-10.031ZM-31.766,0h-1.281V-8h1.281Zm9.422,0h-1.281V-1.359h-.031A2.958,2.958,0,0,1-26.406.188a2.988,2.988,0,0,1-2.41-1.074,4.407,4.407,0,0,1-.9-2.926,4.794,4.794,0,0,1,1-3.18,3.3,3.3,0,0,1,2.664-1.2,2.564,2.564,0,0,1,2.4,1.3h.031v-4.953h1.281Zm-1.281-3.617V-4.8a2.289,2.289,0,0,0-.641-1.641,2.149,2.149,0,0,0-1.625-.672,2.212,2.212,0,0,0-1.844.859,3.766,3.766,0,0,0-.672,2.375,3.387,3.387,0,0,0,.645,2.184,2.107,2.107,0,0,0,1.73.8,2.188,2.188,0,0,0,1.738-.773A2.882,2.882,0,0,0-23.625-3.617ZM-14.023,0H-15.3V-1.25h-.031A2.682,2.682,0,0,1-17.8.188a2.63,2.63,0,0,1-1.871-.633,2.192,2.192,0,0,1-.676-1.68q0-2.242,2.641-2.609l2.4-.336q0-2.039-1.648-2.039a3.938,3.938,0,0,0-2.609.984V-7.437a4.958,4.958,0,0,1,2.719-.75q2.82,0,2.82,2.984ZM-15.3-4.047l-1.93.266a3.133,3.133,0,0,0-1.344.441,1.273,1.273,0,0,0-.453,1.121,1.221,1.221,0,0,0,.418.957A1.615,1.615,0,0,0-17.5-.891a2.056,2.056,0,0,0,1.574-.668A2.387,2.387,0,0,0-15.3-3.25ZM-4.781,0H-6.062V-1.359h-.031A2.958,2.958,0,0,1-8.844.188a2.988,2.988,0,0,1-2.41-1.074,4.407,4.407,0,0,1-.9-2.926,4.794,4.794,0,0,1,1-3.18,3.3,3.3,0,0,1,2.664-1.2,2.564,2.564,0,0,1,2.4,1.3h.031v-4.953h1.281ZM-6.062-3.617V-4.8A2.289,2.289,0,0,0-6.7-6.437a2.149,2.149,0,0,0-1.625-.672,2.212,2.212,0,0,0-1.844.859,3.766,3.766,0,0,0-.672,2.375A3.387,3.387,0,0,0-10.2-1.691a2.107,2.107,0,0,0,1.73.8A2.188,2.188,0,0,0-6.73-1.664,2.882,2.882,0,0,0-6.062-3.617Zm9.57,2.461H3.477V3.68H2.2V-8H3.477v1.406h.031A3.03,3.03,0,0,1,6.273-8.187,2.93,2.93,0,0,1,8.688-7.113a4.449,4.449,0,0,1,.867,2.879A4.959,4.959,0,0,1,8.578-1.02,3.251,3.251,0,0,1,5.906.188,2.676,2.676,0,0,1,3.508-1.156ZM3.477-4.383v1.117a2.379,2.379,0,0,0,.645,1.684,2.14,2.14,0,0,0,1.637.691,2.145,2.145,0,0,0,1.824-.891,4.086,4.086,0,0,0,.66-2.477,3.225,3.225,0,0,0-.617-2.094,2.043,2.043,0,0,0-1.672-.758,2.27,2.27,0,0,0-1.8.777A2.854,2.854,0,0,0,3.477-4.383ZM14.945.188A3.711,3.711,0,0,1,12.113-.934a4.153,4.153,0,0,1-1.059-2.973,4.326,4.326,0,0,1,1.1-3.148,3.96,3.96,0,0,1,2.977-1.133,3.588,3.588,0,0,1,2.793,1.1,4.368,4.368,0,0,1,1,3.055A4.3,4.3,0,0,1,17.848-.965,3.791,3.791,0,0,1,14.945.188Zm.094-7.3a2.437,2.437,0,0,0-1.953.84,3.449,3.449,0,0,0-.719,2.316,3.262,3.262,0,0,0,.727,2.242,2.469,2.469,0,0,0,1.945.82,2.342,2.342,0,0,0,1.91-.8,3.492,3.492,0,0,0,.668-2.289A3.552,3.552,0,0,0,16.949-6.3,2.332,2.332,0,0,0,15.039-7.109Zm5.453,6.82V-1.664a3.792,3.792,0,0,0,2.3.773q1.688,0,1.688-1.125a.976.976,0,0,0-.145-.543,1.44,1.44,0,0,0-.391-.395,3.007,3.007,0,0,0-.578-.309q-.332-.137-.715-.285a9.207,9.207,0,0,1-.934-.426,2.82,2.82,0,0,1-.672-.484,1.8,1.8,0,0,1-.406-.613,2.17,2.17,0,0,1-.137-.8,1.912,1.912,0,0,1,.258-1,2.286,2.286,0,0,1,.688-.727,3.206,3.206,0,0,1,.98-.441,4.349,4.349,0,0,1,1.137-.148,4.59,4.59,0,0,1,1.859.359v1.3A3.624,3.624,0,0,0,23.4-7.109a2.374,2.374,0,0,0-.648.082,1.587,1.587,0,0,0-.5.23,1.065,1.065,0,0,0-.32.355.936.936,0,0,0-.113.457,1.1,1.1,0,0,0,.113.523,1.152,1.152,0,0,0,.332.375,2.538,2.538,0,0,0,.531.3q.313.133.711.289a9.9,9.9,0,0,1,.953.418,3.269,3.269,0,0,1,.719.484,1.893,1.893,0,0,1,.457.621,2,2,0,0,1,.16.836,1.971,1.971,0,0,1-.262,1.031,2.243,2.243,0,0,1-.7.727,3.2,3.2,0,0,1-1.008.43,4.976,4.976,0,0,1-1.2.141A4.539,4.539,0,0,1,20.492-.289Zm10.984.211a2.47,2.47,0,0,1-1.2.25q-2.1,0-2.1-2.344V-6.906H26.8V-8H28.18V-9.953l1.281-.414V-8h2.016v1.094H29.461V-2.4a1.869,1.869,0,0,0,.273,1.148,1.091,1.091,0,0,0,.906.344,1.347,1.347,0,0,0,.836-.266Zm8.141-3.6H33.969a2.992,2.992,0,0,0,.719,2.063,2.478,2.478,0,0,0,1.891.727,3.931,3.931,0,0,0,2.484-.891v1.2a4.643,4.643,0,0,1-2.789.766A3.381,3.381,0,0,1,33.609-.9a4.461,4.461,0,0,1-.969-3.066A4.375,4.375,0,0,1,33.7-7.012a3.394,3.394,0,0,1,2.629-1.176,3.008,3.008,0,0,1,2.43,1.016,4.234,4.234,0,0,1,.859,2.82ZM38.3-4.766a2.607,2.607,0,0,0-.535-1.727A1.823,1.823,0,0,0,36.3-7.109a2.07,2.07,0,0,0-1.539.648,2.943,2.943,0,0,0-.781,1.7ZM45.727-6.7a1.567,1.567,0,0,0-.969-.258,1.635,1.635,0,0,0-1.371.773,3.576,3.576,0,0,0-.551,2.109V0H41.555V-8h1.281v1.648h.031A2.794,2.794,0,0,1,43.7-7.668a1.906,1.906,0,0,1,1.258-.473,2.092,2.092,0,0,1,.766.109Zm2.047-3.328a.812.812,0,0,1-.586-.234.791.791,0,0,1-.242-.594.8.8,0,0,1,.242-.6.8.8,0,0,1,.586-.238.827.827,0,0,1,.6.238.8.8,0,0,1,.246.6.792.792,0,0,1-.246.586A.82.82,0,0,1,47.773-10.031ZM48.4,0H47.117V-8H48.4Zm5.938.188A3.711,3.711,0,0,1,51.5-.934a4.153,4.153,0,0,1-1.059-2.973,4.326,4.326,0,0,1,1.1-3.148,3.96,3.96,0,0,1,2.977-1.133,3.588,3.588,0,0,1,2.793,1.1,4.368,4.368,0,0,1,1,3.055A4.3,4.3,0,0,1,57.238-.965,3.791,3.791,0,0,1,54.336.188Zm.094-7.3a2.437,2.437,0,0,0-1.953.84,3.449,3.449,0,0,0-.719,2.316,3.262,3.262,0,0,0,.727,2.242,2.469,2.469,0,0,0,1.945.82,2.342,2.342,0,0,0,1.91-.8,3.492,3.492,0,0,0,.668-2.289A3.552,3.552,0,0,0,56.34-6.3,2.332,2.332,0,0,0,54.43-7.109ZM64.539-6.7a1.567,1.567,0,0,0-.969-.258,1.635,1.635,0,0,0-1.371.773,3.576,3.576,0,0,0-.551,2.109V0H60.367V-8h1.281v1.648h.031a2.794,2.794,0,0,1,.836-1.316,1.906,1.906,0,0,1,1.258-.473,2.092,2.092,0,0,1,.766.109ZM-33.59,19.2h-1.281V17.95H-34.9a2.682,2.682,0,0,1-2.461,1.438,2.63,2.63,0,0,1-1.871-.633,2.192,2.192,0,0,1-.676-1.68q0-2.242,2.641-2.609l2.4-.336q0-2.039-1.648-2.039a3.938,3.938,0,0,0-2.609.984V11.763a4.958,4.958,0,0,1,2.719-.75q2.82,0,2.82,2.984Zm-1.281-4.047-1.93.266a3.133,3.133,0,0,0-1.344.441,1.273,1.273,0,0,0-.453,1.121,1.221,1.221,0,0,0,.418.957,1.615,1.615,0,0,0,1.113.371,2.056,2.056,0,0,0,1.574-.668,2.387,2.387,0,0,0,.621-1.691Zm4.977,4.047h-1.281V7.356h1.281Zm7.633-10.031a.812.812,0,0,1-.586-.234.791.791,0,0,1-.242-.594.8.8,0,0,1,.242-.6.8.8,0,0,1,.586-.238.827.827,0,0,1,.6.238.8.8,0,0,1,.246.6.792.792,0,0,1-.246.586A.82.82,0,0,1-22.262,9.169Zm.625,10.031h-1.281v-8h1.281Zm9.234,0h-1.281V14.638q0-2.547-1.859-2.547a2.017,2.017,0,0,0-1.59.723,2.679,2.679,0,0,0-.629,1.824V19.2h-1.281v-8h1.281v1.328h.031a2.887,2.887,0,0,1,2.625-1.516,2.448,2.448,0,0,1,2.008.848,3.776,3.776,0,0,1,.7,2.449Zm7.867-.367a4.163,4.163,0,0,1-2.187.555,3.622,3.622,0,0,1-2.762-1.113,4.035,4.035,0,0,1-1.051-2.887A4.435,4.435,0,0,1-9.4,12.212a3.963,3.963,0,0,1,3.023-1.2A4.209,4.209,0,0,1-4.52,11.4v1.313a3.258,3.258,0,0,0-1.906-.625,2.576,2.576,0,0,0-2.012.879,3.335,3.335,0,0,0-.785,2.309A3.176,3.176,0,0,0-8.484,17.5a2.545,2.545,0,0,0,1.98.813,3.211,3.211,0,0,0,1.969-.7Zm2.594-9.664a.812.812,0,0,1-.586-.234.791.791,0,0,1-.242-.594.8.8,0,0,1,.242-.6A.8.8,0,0,1-1.941,7.5a.827.827,0,0,1,.6.238.8.8,0,0,1,.246.6.792.792,0,0,1-.246.586A.82.82,0,0,1-1.941,9.169ZM-1.316,19.2H-2.6v-8h1.281Zm9.422,0H6.824V17.841H6.793a2.958,2.958,0,0,1-2.75,1.547,2.988,2.988,0,0,1-2.41-1.074,4.407,4.407,0,0,1-.9-2.926,4.794,4.794,0,0,1,1-3.18,3.3,3.3,0,0,1,2.664-1.2,2.564,2.564,0,0,1,2.4,1.3h.031V7.356H8.105ZM6.824,15.583V14.4a2.289,2.289,0,0,0-.641-1.641,2.149,2.149,0,0,0-1.625-.672,2.212,2.212,0,0,0-1.844.859,3.766,3.766,0,0,0-.672,2.375,3.387,3.387,0,0,0,.645,2.184,2.107,2.107,0,0,0,1.73.8,2.188,2.188,0,0,0,1.738-.773A2.882,2.882,0,0,0,6.824,15.583Zm10.3-.062H11.48a2.992,2.992,0,0,0,.719,2.063,2.478,2.478,0,0,0,1.891.727,3.931,3.931,0,0,0,2.484-.891v1.2a4.643,4.643,0,0,1-2.789.766,3.381,3.381,0,0,1-2.664-1.09,4.461,4.461,0,0,1-.969-3.066,4.375,4.375,0,0,1,1.059-3.043,3.394,3.394,0,0,1,2.629-1.176,3.008,3.008,0,0,1,2.43,1.016,4.234,4.234,0,0,1,.859,2.82Zm-1.312-1.086a2.607,2.607,0,0,0-.535-1.727,1.823,1.823,0,0,0-1.465-.617,2.07,2.07,0,0,0-1.539.648,2.943,2.943,0,0,0-.781,1.7ZM25.707,19.2H24.426V14.638q0-2.547-1.859-2.547a2.017,2.017,0,0,0-1.59.723,2.679,2.679,0,0,0-.629,1.824V19.2H19.066v-8h1.281v1.328h.031A2.887,2.887,0,0,1,23,11.013a2.448,2.448,0,0,1,2.008.848,3.776,3.776,0,0,1,.7,2.449Zm6.125-.078a2.47,2.47,0,0,1-1.2.25q-2.1,0-2.1-2.344V12.294H27.16V11.2h1.375V9.247l1.281-.414V11.2h2.016v1.094H29.816V16.8a1.869,1.869,0,0,0,.273,1.148,1.091,1.091,0,0,0,.906.344,1.347,1.347,0,0,0,.836-.266Zm8.141-3.6H34.324a2.992,2.992,0,0,0,.719,2.063,2.478,2.478,0,0,0,1.891.727,3.931,3.931,0,0,0,2.484-.891v1.2a4.643,4.643,0,0,1-2.789.766,3.381,3.381,0,0,1-2.664-1.09A4.461,4.461,0,0,1,33,15.231a4.375,4.375,0,0,1,1.059-3.043,3.394,3.394,0,0,1,2.629-1.176,3.008,3.008,0,0,1,2.43,1.016,4.234,4.234,0,0,1,.859,2.82ZM38.66,14.434a2.607,2.607,0,0,0-.535-1.727,1.823,1.823,0,0,0-1.465-.617,2.07,2.07,0,0,0-1.539.648,2.943,2.943,0,0,0-.781,1.7Z" transform="translate(266.501 1833.76)" fill="#fff"/>
    <g id="Grupo_948513" data-name="Grupo 948513">
      <rect id="Rectángulo_34831" data-name="Rectángulo 34831" width="105" height="110" transform="translate(208.729 1691.726)" fill="none"/>
      <g id="work_time" data-name="work time" transform="translate(210.039 1695.37)">
        <circle id="Elipse_5424" data-name="Elipse 5424" cx="29" cy="29" r="29" transform="translate(40 40)" fill="#e3f5f8"/>
        <path id="Trazado_634306" data-name="Trazado 634306" d="M73.033,54.4a29.4,29.4,0,0,1-29.4,29.4c-.539,0-1.094-.016-1.633-.049a29.4,29.4,0,0,0,0-58.7c.539-.033,1.094-.049,1.633-.049A29.4,29.4,0,0,1,73.033,54.4Z" transform="translate(25.333 14.567)" fill="#bee7ed"/>
        <path id="Trazado_634307" data-name="Trazado 634307" d="M71.133,19.333l-3.234.8,1.715,2.858-4.622,4.622L62.134,25.9l-.8,3.234H54.8L54,25.9l-2.858,1.715-4.622-4.622,1.715-2.858L45,19.333V12.8l3.234-.8L46.519,9.141l4.622-4.622L54,6.234,54.8,3h6.533l.8,3.234,2.858-1.715,4.622,4.622L67.9,12l3.234.8Z" transform="translate(27.233 0.633)" fill="#c4baf5"/>
        <circle id="Elipse_5425" data-name="Elipse 5425" cx="5" cy="5" r="5" transform="translate(80 12)" fill="#ffde55"/>
        <path id="Trazado_634308" data-name="Trazado 634308" d="M51.085,36.908a21.374,21.374,0,0,1-1.6,3.887l2.319,3.25,2.058,2.891-6.925,6.925L44.046,51.8,40.8,49.485a21.373,21.373,0,0,1-3.887,1.6l-1.241,7.448h-9.8l-1.241-7.448a21.373,21.373,0,0,1-3.887-1.6L14.6,53.862,7.671,46.937,12.049,40.8a23.711,23.711,0,0,1-1.6-3.887L3,35.667v-9.8l7.448-1.241a27.662,27.662,0,0,1,1.6-3.887L7.671,14.6,14.6,7.671l6.141,4.377a21.374,21.374,0,0,1,3.887-1.6L25.867,3h9.8l1.241,7.448a21.374,21.374,0,0,1,3.887,1.6l6.141-4.377L53.862,14.6l-4.377,6.141a21.373,21.373,0,0,1,1.6,3.887l7.448,1.241v9.8Z" transform="translate(0.633 0.633)" fill="#583ae2"/>
        <path id="Trazado_634309" data-name="Trazado 634309" d="M31.333,22.433,23.167,40.4V28.967H15L23.167,11V22.433Z" transform="translate(8.233 5.7)" fill="#ffde55"/>
        <path id="Trazado_634310" data-name="Trazado 634310" d="M29.133,61.333l-3.234.8,1.715,2.858-4.622,4.622L20.134,67.9l-.8,3.234H12.8L12,67.9,9.141,69.614,4.519,64.992l1.715-2.858L3,61.333V54.8L6.234,54,4.519,51.141l4.622-4.622L12,48.234,12.8,45h6.533l.8,3.234,2.858-1.715,4.622,4.622L25.9,54l3.234.8Z" transform="translate(0.633 27.233)" fill="#c4baf5"/>
        <circle id="Elipse_5426" data-name="Elipse 5426" cx="5" cy="5" r="5" transform="translate(12 80)" fill="#ffde55"/>
        <path id="Trazado_634311" data-name="Trazado 634311" d="M38.667,5.267H52.494V2h-14.7a1.633,1.633,0,0,0-1.359.727l-3.267,4.9L35.886,9.44Z" transform="translate(19.74 0)"/>
        <path id="Trazado_634312" data-name="Trazado 634312" d="M32.826,61.618H19v3.267H33.7a1.633,1.633,0,0,0,1.359-.727l3.267-4.9-2.718-1.813Z" transform="translate(10.767 35.115)"/>
        <path id="Trazado_634313" data-name="Trazado 634313" d="M68.967,37.933a30.672,30.672,0,0,0-16.1,4.541l-.848-1.187a23.031,23.031,0,0,0,.949-2.3l6.468-1.078A1.633,1.633,0,0,0,60.8,36.3V26.5a1.633,1.633,0,0,0-1.364-1.61l-6.468-1.078a23.03,23.03,0,0,0-.949-2.3l3.809-5.333a1.633,1.633,0,0,0-.175-2.1l-6.93-6.93a1.633,1.633,0,0,0-2.1-.175l-5.333,3.809a23.03,23.03,0,0,0-2.3-.941L37.91,3.372A1.633,1.633,0,0,0,36.3,2H26.5a1.633,1.633,0,0,0-1.61,1.364L23.812,9.832a23.031,23.031,0,0,0-2.3.949L16.181,6.972a1.633,1.633,0,0,0-2.1.175l-6.93,6.93a1.633,1.633,0,0,0-.175,2.1L10.8,21.538a21.648,21.648,0,0,0-.936,2.269l-6.5,1.083A1.633,1.633,0,0,0,2,26.5v9.8a1.633,1.633,0,0,0,1.364,1.61l6.5,1.083a24.254,24.254,0,0,0,.92,2.287L6.972,46.619a1.633,1.633,0,0,0,.175,2.1l6.93,6.93a1.633,1.633,0,0,0,2.1.175l5.333-3.809a23.03,23.03,0,0,0,2.3.949l1.078,6.468A1.633,1.633,0,0,0,26.5,60.8h9.8a1.633,1.633,0,0,0,1.61-1.364l1.078-6.468a23.029,23.029,0,0,0,2.3-.949l1.187.848a30.672,30.672,0,0,0-4.541,16.1A31.033,31.033,0,1,0,68.967,37.933ZM40.658,48.676a19.545,19.545,0,0,1-3.593,1.483,1.633,1.633,0,0,0-1.143,1.3l-1,6.079H27.883l-1.013-6.079a1.633,1.633,0,0,0-1.143-1.3,19.545,19.545,0,0,1-3.593-1.483,1.633,1.633,0,0,0-1.722.109L15.4,52.365l-4.964-4.972,3.58-5.014a1.633,1.633,0,0,0,.109-1.722,22.07,22.07,0,0,1-1.508-3.667,1.633,1.633,0,0,0-1.269-1.062L5.267,34.917V27.883l6.079-1.013a1.633,1.633,0,0,0,1.269-1.062,26.787,26.787,0,0,1,1.547-3.739,1.633,1.633,0,0,0-.147-1.65l-3.58-5.014,4.972-4.972,5.014,3.58a1.633,1.633,0,0,0,1.722.109,19.545,19.545,0,0,1,3.593-1.483,1.633,1.633,0,0,0,1.143-1.3l1-6.079h7.033l1.013,6.079a1.633,1.633,0,0,0,1.143,1.3,19.545,19.545,0,0,1,3.593,1.483,1.633,1.633,0,0,0,1.722-.109l5.014-3.58,4.972,4.972-3.58,5.014a1.633,1.633,0,0,0-.109,1.722,19.544,19.544,0,0,1,1.483,3.593,1.633,1.633,0,0,0,1.3,1.143l6.079,1.013v7.033l-6.079,1.013a1.633,1.633,0,0,0-1.3,1.143,19.544,19.544,0,0,1-1.483,3.593,1.633,1.633,0,0,0,.109,1.722l3.58,5.014L47.4,52.382,42.387,48.8a1.633,1.633,0,0,0-1.73-.126ZM70.6,96.65V91.833H67.333V96.65A27.757,27.757,0,0,1,41.283,70.6H46.1V67.333H41.26a27.355,27.355,0,0,1,3.874-12.565l1.485,1.06a1.633,1.633,0,0,0,2.1-.175l6.93-6.93a1.633,1.633,0,0,0,.175-2.1l-1.06-1.485A27.355,27.355,0,0,1,67.333,41.26V46.1H70.6V41.283a27.757,27.757,0,0,1,26.05,26.05H91.833V70.6H96.65A27.757,27.757,0,0,1,70.6,96.65Z" transform="translate(0 0)"/>
        <path id="Trazado_634314" data-name="Trazado 634314" d="M45.267,31H42V50.6a1.633,1.633,0,0,0,1.633,1.633H56.7V48.967H45.267Z" transform="translate(25.333 18.367)"/>
        <path id="Trazado_634315" data-name="Trazado 634315" d="M31.966,21.433H25.433v-9.8a1.633,1.633,0,0,0-3.12-.676L14.147,28.923a1.633,1.633,0,0,0,1.486,2.31h6.533v9.8a1.633,1.633,0,0,0,1.287,1.6,1.674,1.674,0,0,0,.346.036,1.633,1.633,0,0,0,1.486-.957l8.167-17.967a1.633,1.633,0,0,0-1.486-2.31ZM25.433,33.492V29.6A1.633,1.633,0,0,0,23.8,27.966H18.17l4-8.792v3.892A1.633,1.633,0,0,0,23.8,24.7h5.63Z" transform="translate(7.6 5.067)"/>
        <path id="Trazado_634316" data-name="Trazado 634316" d="M19,6h3.267V9.267H19Z" transform="translate(10.767 2.533)"/>
        <path id="Trazado_634317" data-name="Trazado 634317" d="M0,0H3.267V3.267H0Z" transform="translate(14.073 16.386) rotate(-45)"/>
        <path id="Trazado_634318" data-name="Trazado 634318" d="M6,19H9.267v3.267H6Z" transform="translate(2.533 10.767)"/>
        <path id="Trazado_634319" data-name="Trazado 634319" d="M0,0H3.267V3.267H0Z" transform="translate(14.069 46.409) rotate(-45)"/>
        <path id="Trazado_634320" data-name="Trazado 634320" d="M19,32h3.267v3.267H19Z" transform="translate(10.767 19)"/>
        <path id="Trazado_634321" data-name="Trazado 634321" d="M0,0H3.267V3.267H0Z" transform="translate(44.093 46.414) rotate(-45)"/>
        <path id="Trazado_634322" data-name="Trazado 634322" d="M32,19h3.267v3.267H32Z" transform="translate(19 10.767)"/>
        <path id="Trazado_634323" data-name="Trazado 634323" d="M0,0H3.267V3.267H0Z" transform="translate(44.098 16.391) rotate(-45)"/>
        <path id="Trazado_634324" data-name="Trazado 634324" d="M55.533,7a6.533,6.533,0,1,0,6.533,6.533A6.533,6.533,0,0,0,55.533,7Zm0,9.8A3.267,3.267,0,1,1,58.8,13.533,3.267,3.267,0,0,1,55.533,16.8Z" transform="translate(29.767 3.167)"/>
        <path id="Trazado_634325" data-name="Trazado 634325" d="M72.164,11.849l-1.093-.273.58-.965a1.633,1.633,0,0,0-.247-2L66.785,4a1.633,1.633,0,0,0-2-.247l-.965.58-.273-1.093A1.633,1.633,0,0,0,61.967,2H55.433a1.633,1.633,0,0,0-1.584,1.236l-.273,1.093-.965-.58a1.633,1.633,0,0,0-2,.247L46,8.615a1.633,1.633,0,0,0-.247,2l.58.965-1.093.273A1.633,1.633,0,0,0,44,13.433v6.533a1.633,1.633,0,0,0,1.236,1.584l1.093.273-.58.965a1.633,1.633,0,0,0,.247,2L50.615,29.4a1.633,1.633,0,0,0,2,.247l.965-.58.273,1.093A1.633,1.633,0,0,0,55.433,31.4h6.533a1.633,1.633,0,0,0,1.584-1.236l.273-1.093.965.58a1.633,1.633,0,0,0,2-.247L71.4,24.785a1.633,1.633,0,0,0,.247-2l-.58-.965,1.093-.273A1.633,1.633,0,0,0,73.4,19.967V13.433a1.633,1.633,0,0,0-1.236-1.584Zm-2.03,6.842-1.994.49a1.633,1.633,0,0,0-1,2.425l1.057,1.762-2.816,2.816-1.762-1.057a1.633,1.633,0,0,0-2.425,1l-.5,2H56.709l-.49-1.994a1.633,1.633,0,0,0-2.426-1l-1.762,1.057-2.816-2.816,1.057-1.762a1.633,1.633,0,0,0-1-2.426l-2-.5V14.709l1.994-.49a1.633,1.633,0,0,0,1-2.426l-1.057-1.762,2.816-2.816,1.762,1.057a1.633,1.633,0,0,0,2.425-1l.49-1.993h3.982l.49,1.993a1.633,1.633,0,0,0,2.425,1l1.762-1.057,2.816,2.816L67.12,11.793a1.633,1.633,0,0,0,1,2.426l1.994.49Z" transform="translate(26.6)"/>
        <path id="Trazado_634326" data-name="Trazado 634326" d="M13.533,49a6.533,6.533,0,1,0,6.533,6.533A6.533,6.533,0,0,0,13.533,49Zm0,9.8A3.267,3.267,0,1,1,16.8,55.533,3.267,3.267,0,0,1,13.533,58.8Z" transform="translate(3.167 29.767)"/>
        <path id="Trazado_634327" data-name="Trazado 634327" d="M29.651,64.789l-.58-.965,1.093-.273A1.633,1.633,0,0,0,31.4,61.967V55.433a1.633,1.633,0,0,0-1.236-1.584l-1.093-.273.58-.965a1.633,1.633,0,0,0-.247-2L24.785,46a1.633,1.633,0,0,0-2-.247l-.965.58-.273-1.093A1.633,1.633,0,0,0,19.967,44H13.433a1.633,1.633,0,0,0-1.584,1.236l-.273,1.093-.965-.58a1.633,1.633,0,0,0-2,.247L4,50.615a1.633,1.633,0,0,0-.247,2l.58.965-1.093.273A1.633,1.633,0,0,0,2,55.433v6.533a1.633,1.633,0,0,0,1.236,1.584l1.093.273-.58.965a1.633,1.633,0,0,0,.247,2L8.615,71.4a1.633,1.633,0,0,0,2,.247l.965-.58.273,1.093A1.633,1.633,0,0,0,13.433,73.4h6.533a1.633,1.633,0,0,0,1.584-1.236l.273-1.093.965.58a1.633,1.633,0,0,0,2-.247L29.4,66.785a1.633,1.633,0,0,0,.247-2Zm-1.517-4.1-1.994.49a1.633,1.633,0,0,0-1,2.426l1.057,1.762-2.816,2.816-1.762-1.057a1.633,1.633,0,0,0-2.426,1l-.5,2H14.709l-.49-1.994a1.633,1.633,0,0,0-2.426-1l-1.762,1.057L7.207,65.377l1.057-1.762a1.633,1.633,0,0,0-1-2.425l-1.994-.5V56.709l1.994-.49a1.633,1.633,0,0,0,1-2.426L7.207,52.031l2.816-2.816,1.762,1.057a1.633,1.633,0,0,0,2.425-1l.49-1.993h3.982l.49,1.993a1.633,1.633,0,0,0,2.425,1l1.762-1.057,2.816,2.816L25.12,53.793a1.633,1.633,0,0,0,1,2.426l1.994.49Z" transform="translate(0 26.6)"/>
      </g>
    </g>
  </g>
</svg>
