<svg xmlns="http://www.w3.org/2000/svg" xmlns:xlink="http://www.w3.org/1999/xlink" width="85" height="85" viewBox="0 0 85 85">
  <defs>
    <clipPath id="clip-path">
      <rect id="Rectángulo_34586" data-name="Rectángulo 34586" width="85" height="85" transform="translate(285 14109)" fill="#2ff980" stroke="#707070" stroke-width="1"/>
    </clipPath>
  </defs>
  <g id="Grupo_128" data-name="Grupo 128" transform="translate(-285 -14109)" clip-path="url(#clip-path)">
    <g id="no-autorizado_2_" data-name="no-autorizado(2)" transform="translate(275.053 14110.994)">
      <path id="Trazado_633487" data-name="Trazado 633487" d="M134.19,83.63a.723.723,0,0,1,.722-.722h2.477v-7.47a10.391,10.391,0,0,1,9.822-10.365V37.864a1.432,1.432,0,0,0-.394-.986l-.054-.051a1.4,1.4,0,0,0-1-.4h-8.691a.722.722,0,0,1-.723-.723V28.259L96.14,28.252l-.452.458q-.012,5.3-.025,10.607H138.8a2.593,2.593,0,0,1,2.59,2.59V56.723a9.453,9.453,0,0,1-2.753,6.693L133.85,69.6a.722.722,0,0,1-.06.068,8.015,8.015,0,0,0-2.362,5.7v25.749h3.439a6.547,6.547,0,0,1-.678-2.915Z" transform="translate(-67.689 -23.799)" fill="#97e2ff"/>
      <path id="Trazado_633488" data-name="Trazado 633488" d="M80.078,12.132l40.213.007V10.9A1.8,1.8,0,0,0,119.9,9.78l-.019-.019c-.013-.013-.025-.026-.037-.04a1.788,1.788,0,0,0-1.357-.622H76.934a.359.359,0,0,0-.356.361V23.2H79.6q.012-5.3.025-10.607l.452-.458Z" transform="translate(-51.627 -7.679)" fill="#fff"/>
      <path id="Trazado_633489" data-name="Trazado 633489" d="M44.086,128.8v57.45H85.428a1.147,1.147,0,0,0,1.146-1.146V158.237a9.453,9.453,0,0,1,2.753-6.693l4.791-6.186a.738.738,0,0,1,.06-.068,8.014,8.014,0,0,0,2.362-5.7V126.772L46.19,126.7A2.1,2.1,0,0,0,44.086,128.8Zm12.556,40.814a.7.7,0,1,1-.779-1.165c4.387-2.932,6.124-6.28,6-11.553a.7.7,0,0,1,1.4-.034C63.4,162.608,61.42,166.421,56.642,169.615Zm5.931-18.207a.7.7,0,0,1-.641.755l-.057,0a.7.7,0,0,1-.7-.644c-.17-2.092.028-4.712,3.093-6.429a5.824,5.824,0,0,1,5.051-.326.7.7,0,0,1-.5,1.31,4.407,4.407,0,0,0-3.87.238C63.056,147.377,62.366,148.853,62.573,151.407ZM60.7,172.043a.7.7,0,1,1-.842-1.119,15.764,15.764,0,0,0,4.707-4.755,16.451,16.451,0,0,0,1.588-10.3l-.007-.038c-.249-1.382-.59-3.275.185-4.673a2.092,2.092,0,0,1,2.848-.806c2.422,1.154,3.329,3.757,3.664,5.738a.7.7,0,0,1-1.381.234c-.279-1.653-1.007-3.812-2.885-4.707a.727.727,0,0,0-1.02.221c-.533.961-.243,2.57-.032,3.745l.007.038a17.9,17.9,0,0,1-1.729,11.2A16.853,16.853,0,0,1,60.7,172.043Zm5.2.6a.7.7,0,0,1-.877-1.093,17.162,17.162,0,0,0,2.555-2.56,17.969,17.969,0,0,0,3.955-8.8.7.7,0,0,1,1.389.182,19.384,19.384,0,0,1-4.257,9.506A18.533,18.533,0,0,1,65.9,172.644Zm7.724-3.634A12.679,12.679,0,0,1,71.9,170.5a.7.7,0,0,1-.817-1.138,11.326,11.326,0,0,0,1.534-1.325c2.773-2.87,3.32-6.73,3.29-9.462a15.619,15.619,0,0,0-3.663-9.938.7.7,0,0,1,1.068-.907,17.025,17.025,0,0,1,4,10.83C77.353,162.854,76.079,166.468,73.623,169.01Zm3.2-20.4a.7.7,0,0,1-.939-.316,14.831,14.831,0,0,0-7.132-7.228.7.7,0,1,1,.539-1.293,16.017,16.017,0,0,1,7.848,7.9A.7.7,0,0,1,76.825,148.611ZM60.039,135.95a12.806,12.806,0,0,1,14.212,3.832.7.7,0,1,1-1.076.9,11.4,11.4,0,0,0-12.656-3.414.7.7,0,0,1-.48-1.316Zm4.611,3.086a.7.7,0,1,1,.116,1.4,6.5,6.5,0,0,0-5.723,3.95,12.463,12.463,0,0,0-.731,5.341,29.828,29.828,0,0,0,.411,3.577,21.834,21.834,0,0,1,.368,3.586,7.937,7.937,0,0,1-1.993,5.307,8.45,8.45,0,0,1-4.06,2.282.7.7,0,0,1-.274-1.374,7.147,7.147,0,0,0,3.26-1.808,6.948,6.948,0,0,0,1.379-2.443,6.865,6.865,0,0,0,.287-1.978,20.889,20.889,0,0,0-.351-3.355,30.92,30.92,0,0,1-.427-3.742,14.2,14.2,0,0,1,.837-5.932,7.958,7.958,0,0,1,6.9-4.809ZM51.633,150.357v-2.388a12.826,12.826,0,0,1,4.146-9.428.7.7,0,0,1,.947,1.032,11.421,11.421,0,0,0-3.693,8.4v8.469a.7.7,0,1,1-1.4,0Z" transform="translate(-24.279 -106.661)" fill="#ffde55"/>
      <path id="Trazado_633490" data-name="Trazado 633490" d="M384.715,402.143l-.017,0h-6.175a4.053,4.053,0,0,1,.508,7.031v4.376a.7.7,0,0,1-.7.7h-3.1a.7.7,0,0,1-.7-.7v-4.376a4.053,4.053,0,0,1,.508-7.031h-4.768l-.017,0-.017,0h-1.3a1.181,1.181,0,0,0-1.181,1.181v12.7a1.557,1.557,0,0,0,2.077,2.065h13.9a5.186,5.186,0,0,0,5.18-5.18V402.141h-4.178l-.017,0Z" transform="translate(-296.701 -338.495)" fill="#ffde55"/>
      <path id="Trazado_633491" data-name="Trazado 633491" d="M370.673,280.805a8.965,8.965,0,0,1,8.952-8.957c.054,0,.106,0,.16,0h.015a8.9,8.9,0,0,1,4.317,1.212,8.927,8.927,0,0,0-6.654-3.2h-.013l-.068,0-.094,0a8.942,8.942,0,0,0-8.93,8.935v7.47h2.314v-5.459Z" transform="translate(-297.213 -227.156)" fill="#fff"/>
      <path id="Trazado_633492" data-name="Trazado 633492" d="M392.1,282.426h-.009c-.054,0-.106,0-.16,0a8.965,8.965,0,0,0-8.952,8.957v5.459h1.084v-7.47a5.534,5.534,0,1,1,11.068,0v7.47h3.4v-7.47a5.835,5.835,0,0,0-6.424-6.942Z" transform="translate(-309.519 -237.728)" fill="#ff7d7d"/>
      <path id="Trazado_633493" data-name="Trazado 633493" d="M361.817,32.342h7.143l-7.143-7.223Z" transform="translate(-291.708 -21.162)" fill="#ff7d7d"/>
      <path id="Trazado_633494" data-name="Trazado 633494" d="M39.362,83.959a3.106,3.106,0,0,0-.776,1.379,2.931,2.931,0,0,0,.6.063h3.972V83h-1.54A3.113,3.113,0,0,0,39.362,83.959Z" transform="translate(-19.65 -69.882)" fill="#ff7d7d"/>
      <path id="Trazado_633495" data-name="Trazado 633495" d="M409.445,413.5a.7.7,0,0,1,.376.621V418.2h1.7v-4.074a.7.7,0,0,1,.376-.621,2.654,2.654,0,1,0-2.454,0Z" transform="translate(-330.594 -343.844)" fill="#ff7d7d"/>
      <path id="Trazado_633496" data-name="Trazado 633496" d="M398.952,304.87v7.47h3.386v-11.5A4.1,4.1,0,0,0,398.952,304.87Z" transform="translate(-322.964 -253.231)" fill="#97e2ff"/>
      <path id="Trazado_633497" data-name="Trazado 633497" d="M26.616,69.315a3.13,3.13,0,0,1,3.029-2.334h1.54V63.967h-4.12a2.7,2.7,0,0,0-2.7,2.793A2.767,2.767,0,0,0,26.616,69.315Z" transform="translate(-7.68 -53.859)" fill="#fff"/>
      <path id="Trazado_633498" data-name="Trazado 633498" d="M24.365,100.581v62.54a1.147,1.147,0,0,0,1.146,1.146h1.976v-57.45a2.1,2.1,0,0,1,2.1-2.1l50.349.072v-2a1.147,1.147,0,0,0-1.145-1.146H27.214A4.361,4.361,0,0,1,24.365,100.581Z" transform="translate(-7.68 -84.677)" fill="#fff"/>
      <path id="Trazado_633499" data-name="Trazado 633499" d="M369.927,382.6h-4.814a.08.08,0,0,1-.029,0h-9.594a.08.08,0,0,1-.029,0h-4.814a.08.08,0,0,1-.029,0h-2.465V396.46a5.189,5.189,0,0,0,3.408,4.868,5.178,5.178,0,0,1-.3-1.753v-12.7a1.181,1.181,0,0,1,1.181-1.181h1.3l.017,0,.017,0h4.768a.555.555,0,0,0,.22-.093,2.385,2.385,0,0,1,.39-.137,4.151,4.151,0,0,1,2.144-.034,3.943,3.943,0,0,1,.734.264H368.2l.017,0,.017,0h4.178V382.6h-2.46A.073.073,0,0,1,369.927,382.6Z" transform="translate(-280.206 -322.05)" fill="#fff"/>
      <g id="Grupo_948411" data-name="Grupo 948411" transform="translate(15.241 -0.023)">
        <path id="Trazado_633500" data-name="Trazado 633500" d="M92.932,59.108H90.455v-7.47A10.392,10.392,0,0,0,80.967,41.3V14.065a2.871,2.871,0,0,0-.811-2l-10.875-11-.005,0A3.237,3.237,0,0,0,66.861-.023H25.307a1.806,1.806,0,0,0-1.8,1.806v6.88h-4.12a4.149,4.149,0,0,0-4.143,4.283c0,.028,0,.056,0,.079a.761.761,0,0,0-.006.091V78.444a2.593,2.593,0,0,0,2.59,2.59H61.149a2.593,2.593,0,0,0,2.59-2.59V51.576a8.015,8.015,0,0,1,2.362-5.7.706.706,0,0,0,.06-.068l4.791-6.186A9.453,9.453,0,0,0,73.7,32.925V18.109a2.593,2.593,0,0,0-2.59-2.59H24.951V1.783a.359.359,0,0,1,.356-.361H66.86a1.787,1.787,0,0,1,1.357.622c.012.014.024.027.037.04l.019.019a1.794,1.794,0,0,1,.391,1.124V11.9a.722.722,0,0,0,.723.723h8.691a1.4,1.4,0,0,1,1,.4l.054.051a1.431,1.431,0,0,1,.394.986V41.274A10.391,10.391,0,0,0,69.7,51.639v7.47H67.223a.723.723,0,0,0-.722.722V74.41a6.547,6.547,0,0,0,.678,2.915l0,.01a6.664,6.664,0,0,0,2.4,2.672,6.591,6.591,0,0,0,3.542,1.029h13.9a6.632,6.632,0,0,0,6.625-6.625V59.831a.724.724,0,0,0-.722-.723ZM17.448,10.929a2.677,2.677,0,0,1,1.938-.821h4.12v5.411H19.534a2.93,2.93,0,0,1-.6-.063,2.767,2.767,0,0,1-2.25-2.555A2.69,2.69,0,0,1,17.448,10.929Zm53.666,6.034a1.147,1.147,0,0,1,1.145,1.146V32.925a8.014,8.014,0,0,1-2.362,5.7.74.74,0,0,0-.06.068l-4.791,6.186a9.453,9.453,0,0,0-2.753,6.693V78.445a1.147,1.147,0,0,1-1.146,1.146H17.831a1.147,1.147,0,0,1-1.146-1.146V15.9a4.361,4.361,0,0,0,2.849,1.059ZM70.109,11.18V3.957l7.143,7.223Zm1.036,40.458a8.943,8.943,0,0,1,8.93-8.935l.094,0,.067,0h.013a8.983,8.983,0,0,1,8.76,8.93v7.47h-3.4v-7.47a5.534,5.534,0,1,0-11.068,0v7.47h-3.4Zm13.022,0v7.47H75.989v-7.47a4.089,4.089,0,1,1,8.178,0Zm8.043,12.008V74.41a5.186,5.186,0,0,1-5.18,5.18h-13.9a5.18,5.18,0,0,1-5.18-5.18V60.553h2.465a.077.077,0,0,0,.029,0h4.814a.077.077,0,0,0,.029,0h9.594a.077.077,0,0,0,.029,0H89.72a.077.077,0,0,0,.029,0h2.46Z" transform="translate(-15.241 0.023)" fill="#070707"/>
        <path id="Trazado_633501" data-name="Trazado 633501" d="M399.166,403.73a4.043,4.043,0,0,0,1.8,3.371v4.376a.7.7,0,0,0,.7.7h3.1a.7.7,0,0,0,.7-.7V407.1a4.053,4.053,0,0,0-.508-7.031,4.055,4.055,0,0,0-5.8,3.66Zm4.055-2.654a2.653,2.653,0,0,1,1.227,5.006.7.7,0,0,0-.376.621v4.074h-1.7V406.7a.7.7,0,0,0-.376-.621,2.653,2.653,0,0,1,1.227-5.006Z" transform="translate(-338.384 -336.4)" fill="#070707"/>
        <path id="Trazado_633502" data-name="Trazado 633502" d="M92.456,219.117a.7.7,0,0,0,.7-.7v-8.469a11.422,11.422,0,0,1,3.693-8.4.7.7,0,1,0-.947-1.032,12.826,12.826,0,0,0-4.146,9.428v8.469A.7.7,0,0,0,92.456,219.117Z" transform="translate(-79.642 -168.615)" fill="#070707"/>
        <path id="Trazado_633503" data-name="Trazado 633503" d="M142.883,182.344a11.4,11.4,0,0,1,12.656,3.414.7.7,0,1,0,1.076-.9,12.806,12.806,0,0,0-14.212-3.832.7.7,0,1,0,.48,1.316Z" transform="translate(-121.883 -151.716)" fill="#070707"/>
        <path id="Trazado_633504" data-name="Trazado 633504" d="M198.151,209a.7.7,0,1,0-.539,1.293,14.832,14.832,0,0,1,7.132,7.228.7.7,0,0,0,.628.389.692.692,0,0,0,.311-.073.7.7,0,0,0,.316-.939,16.016,16.016,0,0,0-7.848-7.9Z" transform="translate(-168.376 -175.859)" fill="#070707"/>
        <path id="Trazado_633505" data-name="Trazado 633505" d="M100.059,215.346a30.879,30.879,0,0,0,.427,3.742,20.854,20.854,0,0,1,.351,3.355,6.876,6.876,0,0,1-.287,1.978,6.95,6.95,0,0,1-1.379,2.443,7.144,7.144,0,0,1-3.26,1.808.7.7,0,0,0,.136,1.388.718.718,0,0,0,.138-.014,8.449,8.449,0,0,0,4.06-2.282,7.937,7.937,0,0,0,1.993-5.307,21.87,21.87,0,0,0-.368-3.586,29.8,29.8,0,0,1-.411-3.577,12.46,12.46,0,0,1,.731-5.341,6.5,6.5,0,0,1,5.723-3.95.7.7,0,1,0-.116-1.4,7.957,7.957,0,0,0-6.9,4.808,14.187,14.187,0,0,0-.837,5.932Z" transform="translate(-82.665 -172.207)" fill="#070707"/>
        <path id="Trazado_633506" data-name="Trazado 633506" d="M214.289,258.139a.7.7,0,0,0-.08.987,15.621,15.621,0,0,1,3.663,9.938c.03,2.732-.517,6.592-3.29,9.462a11.323,11.323,0,0,1-1.534,1.325.7.7,0,1,0,.817,1.138,12.72,12.72,0,0,0,1.725-1.49c2.456-2.543,3.73-6.156,3.684-10.451a17.026,17.026,0,0,0-4-10.83A.7.7,0,0,0,214.289,258.139Z" transform="translate(-181.485 -217.128)" fill="#070707"/>
        <path id="Trazado_633507" data-name="Trazado 633507" d="M155.59,240.1a4.406,4.406,0,0,1,3.87-.238.7.7,0,1,0,.5-1.31,5.824,5.824,0,0,0-5.051.326c-3.065,1.717-3.263,4.338-3.093,6.429a.7.7,0,0,0,.7.644l.057,0a.7.7,0,0,0,.641-.755C153,242.643,153.692,241.167,155.59,240.1Z" transform="translate(-130.155 -200.427)" fill="#070707"/>
        <path id="Trazado_633508" data-name="Trazado 633508" d="M124.222,313.592a.7.7,0,0,0-1.4.034c.128,5.273-1.61,8.62-6,11.553a.7.7,0,1,0,.779,1.165C122.382,323.15,124.361,319.336,124.222,313.592Z" transform="translate(-100.481 -263.366)" fill="#070707"/>
        <path id="Trazado_633509" data-name="Trazado 633509" d="M182.23,334.375a.7.7,0,0,0-.786.6,17.971,17.971,0,0,1-3.955,8.8,17.167,17.167,0,0,1-2.555,2.56.7.7,0,1,0,.877,1.093,18.563,18.563,0,0,0,2.765-2.769,19.381,19.381,0,0,0,4.257-9.506.7.7,0,0,0-.6-.786Z" transform="translate(-149.432 -281.429)" fill="#070707"/>
        <path id="Trazado_633510" data-name="Trazado 633510" d="M149.9,280.036l-.007-.038c-.211-1.175-.5-2.784.032-3.745a.727.727,0,0,1,1.02-.221c1.878.895,2.606,3.053,2.885,4.707a.7.7,0,0,0,1.381-.234c-.335-1.981-1.242-4.585-3.664-5.738a2.092,2.092,0,0,0-2.848.806c-.774,1.4-.434,3.291-.185,4.673l.007.038a16.451,16.451,0,0,1-1.588,10.3,15.763,15.763,0,0,1-4.707,4.755.7.7,0,1,0,.842,1.119,16.867,16.867,0,0,0,5.1-5.217A17.9,17.9,0,0,0,149.9,280.036Z" transform="translate(-121.887 -231.051)" fill="#070707"/>
        <path id="Trazado_633511" data-name="Trazado 633511" d="M421.039,300.451a4.091,4.091,0,0,0-.7.061l.006,11.5h1.394v-11.5A4.125,4.125,0,0,0,421.039,300.451Z" transform="translate(-356.204 -252.881)" fill="#070707"/>
      </g>
    </g>
  </g>
</svg>
