<svg xmlns="http://www.w3.org/2000/svg" width="85" height="85" viewBox="0 0 85 85">
  <g id="exploracion-del-ojo" transform="translate(0)">
    <path id="Trazado_633432" data-name="Trazado 633432" d="M10,188.6S25.937,172,50.84,172s40.84,16.6,40.84,16.6-14.111,18.262-40.84,18.262S10,188.6,10,188.6Z" transform="translate(-8.34 -143.445)" fill="#f9f7f7"/>
    <path id="Trazado_633433" data-name="Trazado 633433" d="M175.844,189.432a19.9,19.9,0,0,0-8.356-16.222,55.9,55.9,0,0,0-23.132,0,19.925,19.925,0,0,0,.035,32.469,56.716,56.716,0,0,0,23.063,0A19.9,19.9,0,0,0,175.844,189.432Z" transform="translate(-113.422 -143.445)" fill="#76b3e5"/>
    <rect id="Rectángulo_34593" data-name="Rectángulo 34593" width="31" height="20" transform="translate(27 2)" fill="#ffcca9"/>
    <ellipse id="Elipse_5395" data-name="Elipse 5395" cx="7.5" cy="8" rx="7.5" ry="8" transform="translate(35 38)" fill="#6e6e6e"/>
    <g id="Grupo_948393" data-name="Grupo 948393" transform="translate(0)">
      <path id="Trazado_633434" data-name="Trazado 633434" d="M84.653,46.171a1.66,1.66,0,0,0-.116-2.165A56.6,56.6,0,0,0,73.1,35.422a61.09,61.09,0,0,0-30.6-8.528,58.074,58.074,0,0,0-15.715,2.191L15.273,17.574V9.961h9.795V21.582a1.66,1.66,0,0,0,1.66,1.66H58.271a1.66,1.66,0,0,0,1.66-1.66V1.66A1.66,1.66,0,0,0,58.271,0H26.728a1.66,1.66,0,0,0-1.66,1.66v4.98H13.613a1.66,1.66,0,0,0-1.66,1.66v9.961a1.66,1.66,0,0,0,.486,1.174L23.212,30.208A64.34,64.34,0,0,0,11.9,35.422,56.6,56.6,0,0,0,.462,44.007a1.66,1.66,0,0,0-.116,2.165,48.182,48.182,0,0,0,10.791,9.5A56.434,56.434,0,0,0,26,62.66l-7.837,7.888a1.661,1.661,0,0,0-.482,1.17V83.34A1.66,1.66,0,0,0,19.34,85H52.377a1.66,1.66,0,1,0,0-3.32H21V72.4l8.705-8.762a56.678,56.678,0,0,0,8.653,1.289h.005a20.369,20.369,0,0,0,4.135.147,57.642,57.642,0,0,0,8.768-.665l.032,0a1.652,1.652,0,0,0,.558-.1,56.386,56.386,0,0,0,22-8.647A48.176,48.176,0,0,0,84.653,46.171ZM28.388,3.32H56.611v16.6H28.388Zm19.2,27.14a54.828,54.828,0,0,1,5.814.875,18.316,18.316,0,0,1,5.913,7.546l-8.772,2.8a9.131,9.131,0,0,0-4.507-4.109Zm3.969,14.38,8.769-2.8a18.126,18.126,0,0,1-.376,9.309l-8.515-3.495A9.083,9.083,0,0,0,51.557,44.841ZM42.5,30.215c.585,0,1.162.013,1.737.031l-1.444,6.616a9.063,9.063,0,0,0-2.992.406l-3.51-6.689A53.592,53.592,0,0,1,42.5,30.215Zm-5.64,8.6a9.134,9.134,0,0,0-2.035,2.231l-8.511-3.493A18.3,18.3,0,0,1,31.6,31.334c.4-.082.8-.162,1.213-.237Zm-7.2,20.162a18.338,18.338,0,0,1-3.98-5.881l8.772-2.8a9.2,9.2,0,0,0,1.645,2.2Zm3.778-11.841-8.77,2.8a18.126,18.126,0,0,1,.377-9.309l8.515,3.494A9.088,9.088,0,0,0,33.442,47.132ZM3.949,45.27a58.846,58.846,0,0,1,9.729-7.039,60.853,60.853,0,0,1,11.577-5.208A21.7,21.7,0,0,0,22.6,37.647c-.025.047-.048.1-.068.145a1.714,1.714,0,0,0-.058.167A21.451,21.451,0,0,0,21.9,52.415c.01.043.02.085.034.128s.032.091.05.136a21.687,21.687,0,0,0,3.248,6.246,53.069,53.069,0,0,1-12.149-5.947A49.586,49.586,0,0,1,3.949,45.27ZM37.41,61.52c-1.7-.159-3.339-.393-4.912-.689l6.41-6.452.056.023Zm-.587-16.773a5.811,5.811,0,1,1,4.438,6.916A5.818,5.818,0,0,1,36.823,44.747ZM42.5,61.758c-.586,0-1.163-.012-1.737-.03l1.444-6.617c.1,0,.2.008.294.008a9.069,9.069,0,0,0,2.7-.412l3.514,6.7A54.578,54.578,0,0,1,42.5,61.758Zm5.64-8.6a9.132,9.132,0,0,0,2.035-2.23l8.512,3.493a18.3,18.3,0,0,1-5.314,6.235c-.389.08-.781.157-1.179.23Zm23.773-.183a53.048,53.048,0,0,1-12.15,5.948,21.691,21.691,0,0,0,2.657-4.654c.015-.031.033-.06.046-.092a1.654,1.654,0,0,0,.055-.156,21.455,21.455,0,0,0,.579-14.45c-.011-.048-.023-.1-.038-.144s-.029-.08-.045-.12a21.692,21.692,0,0,0-3.274-6.288,60.794,60.794,0,0,1,11.579,5.209A58.846,58.846,0,0,1,81.05,45.27,49.562,49.562,0,0,1,71.912,52.978Z" transform="translate(0)"/>
      <path id="Trazado_633435" data-name="Trazado 633435" d="M1.66,171.961a1.66,1.66,0,0,0,1.66-1.66v-4.98H8.3a1.66,1.66,0,0,0,0-3.32H1.66A1.66,1.66,0,0,0,0,163.66V170.3A1.66,1.66,0,0,0,1.66,171.961Z" transform="translate(0 -135.106)"/>
      <path id="Trazado_633436" data-name="Trazado 633436" d="M460.3,162H453.66a1.66,1.66,0,0,0,0,3.32h4.98v4.98a1.66,1.66,0,1,0,3.32,0V163.66A1.66,1.66,0,0,0,460.3,162Z" transform="translate(-376.961 -135.106)"/>
      <path id="Trazado_633437" data-name="Trazado 633437" d="M460.3,332a1.66,1.66,0,0,0-1.66,1.66v4.98h-4.98a1.66,1.66,0,1,0,0,3.32H460.3a1.66,1.66,0,0,0,1.66-1.66V333.66A1.66,1.66,0,0,0,460.3,332Z" transform="translate(-376.961 -276.883)"/>
      <path id="Trazado_633438" data-name="Trazado 633438" d="M8.3,338.641H3.32v-4.98a1.66,1.66,0,1,0-3.32,0V340.3a1.66,1.66,0,0,0,1.66,1.66H8.3a1.66,1.66,0,1,0,0-3.32Z" transform="translate(0 -276.883)"/>
      <path id="Trazado_633439" data-name="Trazado 633439" d="M187.66,43.32A1.66,1.66,0,1,0,186,41.66,1.663,1.663,0,0,0,187.66,43.32Z" transform="translate(-155.121 -33.359)"/>
      <path id="Trazado_633440" data-name="Trazado 633440" d="M240.941,40H227.66a1.66,1.66,0,1,0,0,3.32h13.281a1.66,1.66,0,1,0,0-3.32Z" transform="translate(-188.48 -33.359)"/>
      <path id="Trazado_633441" data-name="Trazado 633441" d="M207.582,80H187.66a1.66,1.66,0,1,0,0,3.32h19.922a1.66,1.66,0,1,0,0-3.32Z" transform="translate(-155.121 -66.719)"/>
      <path id="Trazado_633442" data-name="Trazado 633442" d="M188.16,452a1.66,1.66,0,0,0,0,3.32h9.961a1.66,1.66,0,0,0,0-3.32Z" transform="translate(-155.538 -376.961)"/>
      <path id="Trazado_633443" data-name="Trazado 633443" d="M291.314,452H288.16a1.66,1.66,0,0,0,0,3.32h3.154a1.66,1.66,0,0,0,0-3.32Z" transform="translate(-238.937 -376.961)"/>
      <path id="Trazado_633444" data-name="Trazado 633444" d="M207.916,412H188.16a1.66,1.66,0,0,0,0,3.32h19.756a1.66,1.66,0,0,0,0-3.32Z" transform="translate(-155.538 -343.602)"/>
    </g>
  </g>
</svg>
