<svg xmlns="http://www.w3.org/2000/svg" width="179" height="179" viewBox="0 0 179 179">
  <g id="Grupo_948529" data-name="Grupo 948529" transform="translate(-353 -17352)">
    <circle id="Elipse_5405" data-name="Elipse 5405" cx="89.5" cy="89.5" r="89.5" transform="translate(353 17352)" fill="#fff"/>
    <g id="Grupo_948513" data-name="Grupo 948513">
      <g id="Grupo_948512" data-name="Grupo 948512" transform="translate(-521.869 12498.453)">
        <g id="Grupo_948511" data-name="Grupo 948511" transform="translate(915.817 4893.827)">
          <g id="Grupo_948505" data-name="Grupo 948505" transform="translate(26.775 0)">
            <rect id="Rectángulo_34822" data-name="Rectángulo 34822" width="54.096" height="96.211" rx="3" transform="translate(1.188 1.115)" fill="#242d3c"/>
            <path id="Rectángulo_34822_-_Contorno" data-name="Rectángulo 34822 - Contorno" d="M.4-2.607h50.3A3.014,3.014,0,0,1,53.718.4V92.823a3.014,3.014,0,0,1-3.011,3.011H.4a3.014,3.014,0,0,1-3.01-3.01V.4A3.014,3.014,0,0,1,.4-2.607ZM50.708,93.6a.782.782,0,0,0,.781-.781V.4a.782.782,0,0,0-.781-.781H.4A.782.782,0,0,0-.377.4V92.823A.782.782,0,0,0,.4,93.6Z" transform="translate(2.68 2.607)" fill="#252425"/>
            <rect id="Rectángulo_34823" data-name="Rectángulo 34823" width="54.096" height="80.055" transform="translate(1.188 10.121)" fill="#fff"/>
            <path id="Rectángulo_34823_-_Contorno" data-name="Rectángulo 34823 - Contorno" d="M-2.778-2.778H53.693v82.43H-2.778ZM51.318-.4H-.4V77.277h51.72Z" transform="translate(2.778 11.711)" fill="#252425"/>
            <g id="Grupo_948504" data-name="Grupo 948504" transform="translate(20.945 4.025)">
              <path id="Trazado_633771" data-name="Trazado 633771" d="M1039.343,4904.653a.8.8,0,0,1-.795.8H1028.21a.8.8,0,0,1-.8-.8h0a.8.8,0,0,1,.8-.795h10.338a.8.8,0,0,1,.795.795Z" transform="translate(-1027.414 -4903.593)" fill="#fff"/>
              <path id="Trazado_633772" data-name="Trazado 633772" d="M1059.026,4904.167a.928.928,0,1,1-.928-.928A.928.928,0,0,1,1059.026,4904.167Z" transform="translate(-1044.446 -4903.239)" fill="#fff"/>
            </g>
            <path id="Trazado_633773" data-name="Trazado 633773" d="M981.21,4917.5v80.055h54.1Z" transform="translate(-980.022 -4907.375)" fill="#c6c6c5" style="mix-blend-mode: multiply;isolation: isolate"/>
          </g>
          <g id="Grupo_948506" data-name="Grupo 948506" transform="translate(33.196 33.571)">
            <rect id="Rectángulo_34824" data-name="Rectángulo 34824" width="42.624" height="30.292" rx="3" transform="translate(0.503 0.503)" fill="#583ae2"/>
            <path id="Rectángulo_34824_-_Contorno" data-name="Rectángulo 34824 - Contorno" d="M3.874-1.177H37.4a5.051,5.051,0,0,1,5.051,5.051v21.2A5.051,5.051,0,0,1,37.4,30.121H3.874A5.051,5.051,0,0,1-1.177,25.07V3.874A5.051,5.051,0,0,1,3.874-1.177ZM37.4,29.115a4.049,4.049,0,0,0,4.045-4.045V3.874A4.049,4.049,0,0,0,37.4-.17H3.874A4.049,4.049,0,0,0-.17,3.874v21.2a4.049,4.049,0,0,0,4.044,4.044Z" transform="translate(1.177 1.177)" fill="#252425"/>
            <rect id="Rectángulo_34825" data-name="Rectángulo 34825" width="42.624" height="5.552" transform="translate(0.503 9.204)" fill="#252425"/>
            <rect id="Rectángulo_34826" data-name="Rectángulo 34826" width="23.816" height="1.087" transform="translate(4.113 18.281)" fill="#fff"/>
            <rect id="Rectángulo_34827" data-name="Rectángulo 34827" width="16.515" height="1.086" transform="translate(4.113 20.97)" fill="#fff"/>
            <rect id="Rectángulo_34828" data-name="Rectángulo 34828" width="28.243" height="1.087" transform="translate(4.113 23.711)" fill="#fff"/>
          </g>
          <g id="Grupo_948509" data-name="Grupo 948509" transform="translate(61.907 51.95)">
            <path id="Trazado_633774" data-name="Trazado 633774" d="M1095.958,5033.587a17.1,17.1,0,1,1-17.1-17.1A17.1,17.1,0,0,1,1095.958,5033.587Z" transform="translate(-1061.264 -5015.988)" fill="#bee7ed"/>
            <path id="Trazado_633774_-_Contorno" data-name="Trazado 633774 - Contorno" d="M1078.189,5015.314a17.542,17.542,0,1,1-6.851,1.383A17.488,17.488,0,0,1,1078.189,5015.314Zm0,34.191a16.593,16.593,0,1,0-16.593-16.593A16.612,16.612,0,0,0,1078.189,5049.506Z" transform="translate(-1060.59 -5015.314)" fill="#252425"/>
            <g id="Grupo_948508" data-name="Grupo 948508" transform="translate(8.909 4.406)">
              <g id="Grupo_948507" data-name="Grupo 948507" transform="translate(1.883)">
                <path id="Trazado_633775" data-name="Trazado 633775" d="M1099.547,5036.123h-13V5032.4a6.068,6.068,0,0,1,6.061-6.062h.876a6.068,6.068,0,0,1,6.061,6.062Zm-11.1-.657h9.2V5032.4a4.168,4.168,0,0,0-4.163-4.163h-.876a4.168,4.168,0,0,0-4.163,4.163Z" transform="translate(-1086.241 -5026.029)" fill="#353c45"/>
                <path id="Trazado_633775_-_Contorno" data-name="Trazado 633775 - Contorno" d="M1099.443,5036.018H1085.83v-4.031a6.375,6.375,0,0,1,6.368-6.368h.876a6.375,6.375,0,0,1,6.368,6.368Zm-13-.613h12.385v-3.418a5.76,5.76,0,0,0-5.754-5.755h-.876a5.761,5.761,0,0,0-5.754,5.755Zm11.1-.043h-9.816v-3.375a4.475,4.475,0,0,1,4.47-4.47h.876a4.475,4.475,0,0,1,4.47,4.47Zm-9.2-.614h8.588v-2.761a3.86,3.86,0,0,0-3.856-3.855h-.876a3.86,3.86,0,0,0-3.856,3.855Z" transform="translate(-1085.83 -5025.618)" fill="#252425"/>
              </g>
              <path id="Rectángulo_34829" data-name="Rectángulo 34829" d="M3.43,0h9.906a3.429,3.429,0,0,1,3.429,3.429v9.908a3.429,3.429,0,0,1-3.429,3.429H3.43A3.43,3.43,0,0,1,0,13.336V3.43A3.43,3.43,0,0,1,3.43,0Z" transform="translate(0.307 9.313)" fill="#00b0c2"/>
              <path id="Rectángulo_34829_-_Contorno" data-name="Rectángulo 34829 - Contorno" d="M1.056-.718H14.888a1.775,1.775,0,0,1,1.773,1.773V14.888a1.775,1.775,0,0,1-1.773,1.773H1.055A1.776,1.776,0,0,1-.718,14.888V1.056A1.776,1.776,0,0,1,1.056-.718ZM14.888,16.048a1.16,1.16,0,0,0,1.159-1.159V1.055A1.161,1.161,0,0,0,14.888-.1H1.056A1.161,1.161,0,0,0-.1,1.056V14.888a1.161,1.161,0,0,0,1.159,1.159Z" transform="translate(0.718 9.724)" fill="#252425"/>
              <path id="Trazado_633776" data-name="Trazado 633776" d="M1103.26,5058.229a6.822,6.822,0,0,0,5.115,1.11.281.281,0,0,1,.035-.005v-7.082a1.153,1.153,0,0,0-1.153-1.153h-4.813A4.992,4.992,0,0,0,1103.26,5058.229Z" transform="translate(-1092.802 -5040.203)" fill="#fff" opacity="0.5" style="mix-blend-mode: soft-light;isolation: isolate"/>
              <path id="Trazado_633777" data-name="Trazado 633777" d="M1095.5,5063.053a10.7,10.7,0,0,1-6.533-1.468,8.693,8.693,0,0,1-3.791-5.539c-.489-2.278-.5-6.348,1.047-8.648h-2.617a1.467,1.467,0,0,0-1.467,1.466V5062.7a1.468,1.468,0,0,0,1.467,1.468h13.832a1.468,1.468,0,0,0,1.467-1.468v-.377A12.651,12.651,0,0,1,1095.5,5063.053Z" transform="translate(-1081.836 -5038.084)" fill="#c6c6c5" style="mix-blend-mode: multiply;isolation: isolate"/>
              <path id="Trazado_633778" data-name="Trazado 633778" d="M1101.219,5060.958a1.558,1.558,0,1,0-2.055,1.477l-.535,3.465h2.065l-.571-3.453A1.559,1.559,0,0,0,1101.219,5060.958Z" transform="translate(-1090.971 -5044.955)" fill="#005a62"/>
              <path id="Trazado_633778_-_Contorno" data-name="Trazado 633778 - Contorno" d="M1099.25,5058.683a1.865,1.865,0,0,1,.8,3.547l.59,3.565h-2.785l.553-3.582a1.865,1.865,0,0,1,.838-3.531Zm.67,6.5-.556-3.36.256-.079a1.252,1.252,0,1,0-.769-.01l.245.083-.52,3.366Z" transform="translate(-1090.56 -5044.543)" fill="#252425"/>
            </g>
          </g>
          <g id="Grupo_948510" data-name="Grupo 948510" transform="translate(0 13.774)">
            <rect id="Rectángulo_34830" data-name="Rectángulo 34830" width="8.362" height="5.438" transform="translate(13.57 50.842) rotate(-71.023)" fill="#364359"/>
            <path id="Rectángulo_34830_-_Contorno" data-name="Rectángulo 34830 - Contorno" d="M0,0H10.4V7.479H0ZM8.362,2.041H2.041v3.4H8.362Z" transform="translate(12.273 51.475) rotate(-71.023)" fill="#252425"/>
            <path id="Trazado_633779" data-name="Trazado 633779" d="M970.029,4963.85a16.349,16.349,0,1,1-10.145-20.776A16.349,16.349,0,0,1,970.029,4963.85Z" transform="translate(-928.637 -4935.278)" fill="#8acfe4" opacity="0.5"/>
            <path id="Trazado_633780" data-name="Trazado 633780" d="M953.922,4929.638a22.23,22.23,0,1,0,13.794,28.25A22.231,22.231,0,0,0,953.922,4929.638Zm-12.544,36.481a16.348,16.348,0,1,1,20.776-10.144A16.347,16.347,0,0,1,941.378,4966.119Z" transform="translate(-920.763 -4927.404)" fill="#364359"/>
            <path id="Trazado_633780_-_Contorno" data-name="Trazado 633780 - Contorno" d="M945.326,4926.039h0a23.305,23.305,0,1,1-7.042,1.1A23.2,23.2,0,0,1,945.327,4926.039Zm0,44.471a21.239,21.239,0,1,0-6.9-1.158A21.216,21.216,0,0,0,945.329,4970.51Zm0-38.589a17.4,17.4,0,1,1-5.261.819A17.31,17.31,0,0,1,945.326,4931.921Zm0,32.706a15.352,15.352,0,1,0-4.986-.837A15.334,15.334,0,0,0,945.329,4964.627Z" transform="translate(-919.397 -4926.039)" fill="#252425"/>
            <path id="Trazado_633781" data-name="Trazado 633781" d="M928.524,5074.747a1.844,1.844,0,0,1-2.345,1.145l-6.729-2.313a1.844,1.844,0,0,1-1.145-2.344l9.606-27.938a1.845,1.845,0,0,1,2.345-1.145l6.729,2.314a1.844,1.844,0,0,1,1.145,2.344Z" transform="translate(-917.184 -4992.441)" fill="#45bbcc"/>
            <path id="Trazado_633781_-_Contorno" data-name="Trazado 633781 - Contorno" d="M925.413,5075.646a2.866,2.866,0,0,1-.932-.156l-6.729-2.314a2.864,2.864,0,0,1-1.778-3.641l9.606-27.938a2.867,2.867,0,0,1,2.709-1.934,2.814,2.814,0,0,1,.932.157l6.729,2.313a2.865,2.865,0,0,1,1.778,3.641l-9.607,27.938A2.865,2.865,0,0,1,925.413,5075.646Zm2.877-33.943a.824.824,0,0,0-.78.558L917.9,5070.2a.823.823,0,0,0,.511,1.047l6.729,2.314a.821.821,0,0,0,1.048-.512l9.607-27.937a.824.824,0,0,0-.511-1.048l-6.73-2.314A.82.82,0,0,0,928.29,5041.7Z" transform="translate(-915.817 -4991.076)" fill="#252425"/>
            <path id="Trazado_633782" data-name="Trazado 633782" d="M923.794,5064.608a67.726,67.726,0,0,1,3.245-10.092c.7-1.889,1.334-3.812,2.176-5.645a16.481,16.481,0,0,1,3.924-5.73l-2.882-.991a1.845,1.845,0,0,0-2.345,1.145l-9.606,27.938a1.844,1.844,0,0,0,1.145,2.344l6.433,2.213A13.952,13.952,0,0,1,923.794,5064.608Z" transform="translate(-917.184 -4992.441)" fill="#c6c6c5" style="mix-blend-mode: multiply;isolation: isolate"/>
            <path id="Trazado_633783" data-name="Trazado 633783" d="M990.25,4965.059a4.72,4.72,0,1,1-2.929-6A4.72,4.72,0,0,1,990.25,4965.059Z" transform="translate(-953.164 -4944.792)" fill="#fff"/>
            <path id="Trazado_633783_-_Contorno" data-name="Trazado 633783 - Contorno" d="M984.993,4968.044a5.312,5.312,0,1,1,5.022-3.585A5.3,5.3,0,0,1,984.993,4968.044Zm0-9.442a4.132,4.132,0,1,0,1.343.226A4.13,4.13,0,0,0,984.992,4958.6Z" transform="translate(-952.37 -4944)" fill="#252425"/>
          </g>
        </g>
      </g>
      <rect id="Rectángulo_34831" data-name="Rectángulo 34831" width="105" height="110" transform="translate(390 17388)" fill="none"/>
    </g>
  </g>
</svg>
