<svg xmlns="http://www.w3.org/2000/svg" width="141.077" height="140.914" viewBox="0 0 141.077 140.914">
  <g id="Grupo_950106" data-name="Grupo 950106" transform="translate(9582 5536.37)">
    <g id="Grupo_949933" data-name="Grupo 949933" transform="translate(0 -108.85)">
      <g id="Grupo_949930" data-name="Grupo 949930" transform="translate(-989.121 1803.22)">
        <path id="Trazado_245634" data-name="Trazado 245634" d="M261.27,4760.1a71.451,71.451,0,1,0-71.452,71.452A71.179,71.179,0,0,0,261.27,4760.1Z" transform="translate(-8713.071 -11921.383)" fill="#462eb4"/>
        <path id="Trazado_245635" data-name="Trazado 245635" d="M145.624,4791.2l33.294,33.293c1.964.162,3.95.249,5.955.249a71.452,71.452,0,0,0,71.452-71.451q0-1.7-.079-3.379l-24.239-24.239Z" transform="translate(-8708.127 -11914.57)" fill="#342287"/>
        <g id="Grupo_84112" data-name="Grupo 84112" transform="translate(-8576.206 -7214.085)">
          <path id="Trazado_245636" data-name="Trazado 245636" d="M241.88,4757.627a54.561,54.561,0,1,0-54.56,54.559A54.351,54.351,0,0,0,241.88,4757.627Z" transform="translate(-134.152 -4704.586)" fill="#e6e1fb"/>
        </g>
      </g>
      <g id="proteger_1_" data-name="proteger(1)" transform="translate(-9587.785 -5392.401)">
        <path id="Trazado_245650" data-name="Trazado 245650" d="M84.655,74.346a5.826,5.826,0,0,1-3.686,0l-.166-.055-.16-.069A41.194,41.194,0,0,1,55.759,36.374V21.032a1.193,1.193,0,0,1,1.175-1.193l3.025-.045a8.18,8.18,0,0,0,8.094-8.105l.041-3.012A1.193,1.193,0,0,1,69.287,7.5H96.336a1.193,1.193,0,0,1,1.193,1.177l.042,3.012a8.18,8.18,0,0,0,8.094,8.105l3.025.045a1.193,1.193,0,0,1,1.175,1.193V36.375A41.223,41.223,0,0,1,84.98,74.222l-.16.069Z" transform="translate(-6.488 -6.487)" fill="#b6fdd3"/>
        <path id="Trazado_245651" data-name="Trazado 245651" d="M98.361,37.634a.175.175,0,0,0-.175.174,12.3,12.3,0,0,1-12.1,12.119.192.192,0,0,0-.19.192V62.437a37.153,37.153,0,0,0,22.427,34.11,1.755,1.755,0,0,0,1.11,0,37.153,37.153,0,0,0,22.427-34.11V50.119a.192.192,0,0,0-.191-.192,12.3,12.3,0,0,1-12.1-12.119.175.175,0,0,0-.175-.174Z" transform="translate(-32.55 -32.55)" fill="#e0feec"/>
        <path id="Trazado_245652" data-name="Trazado 245652" d="M243.3,49.927a12.3,12.3,0,0,1-12.1-12.119.175.175,0,0,0-.175-.174h-6.449a11.574,11.574,0,0,1,2.784,3.307,12.355,12.355,0,0,0,3.305,3.792,18.483,18.483,0,0,1,7.424,14.7v.306a37.153,37.153,0,0,1-22.427,34.11,1.756,1.756,0,0,1-.694.085,37.193,37.193,0,0,0,4.988,2.617,1.755,1.755,0,0,0,1.11,0,37.153,37.153,0,0,0,22.427-34.11V50.119A.192.192,0,0,0,243.3,49.927Z" transform="translate(-144.188 -32.55)" fill="#b6fdd3"/>
        <path id="Trazado_245653" data-name="Trazado 245653" d="M182.457,185.561l-11.168,10.975a.278.278,0,0,1-.388,0l-5.93-5.828a.278.278,0,0,0-.388,0l-3.642,3.579a.267.267,0,0,0,0,.382l9.96,9.788a.278.278,0,0,0,.388,0l15.2-14.936a.267.267,0,0,0,0-.382l-3.642-3.579A.278.278,0,0,0,182.457,185.561Z" transform="translate(-97.39 -160.423)" fill="#25c766"/>
        <path id="Trazado_245654" data-name="Trazado 245654" d="M163.7,190.784a1.3,1.3,0,0,0,1.809,0l3.62-3.558a1.013,1.013,0,1,0-1.42-1.445l-3.1,3.051-5.414-5.321a1.3,1.3,0,0,0-1.809,0l-3.641,3.579a1.28,1.28,0,0,0,0,1.827l9.96,9.788a1.3,1.3,0,0,0,1.809,0l15.2-14.936a1.28,1.28,0,0,0,0-1.827l-3.641-3.578a1.3,1.3,0,0,0-1.809,0l-4.1,4.028a1.013,1.013,0,1,0,1.42,1.445l3.583-3.521,2.584,2.54-14.141,13.9-8.9-8.749,2.584-2.54Z" transform="translate(-90.903 -153.949)"/>
        <path id="Trazado_245655" data-name="Trazado 245655" d="M83.017,0H62.8a2.215,2.215,0,0,0-2.206,2.176l-.041,3.012a7.171,7.171,0,0,1-7.1,7.106l-3.025.045a2.216,2.216,0,0,0-2.173,2.206V29.887a42.207,42.207,0,0,0,25.5,38.778l.16.069c.026.011.053.022.081.031l.166.055a6.837,6.837,0,0,0,4.327,0l.166-.055c.027-.009.054-.019.081-.031l.16-.069a42.205,42.205,0,0,0,25.5-38.777V14.546a2.216,2.216,0,0,0-2.173-2.206l-3.024-.045a7.172,7.172,0,0,1-7.1-7.106l-.042-3.012A2.215,2.215,0,0,0,89.849,0h-2.1a1.013,1.013,0,1,0,0,2.027h2.1a.18.18,0,0,1,.18.177l.042,3.012a9.188,9.188,0,0,0,9.092,9.1l3.024.045a.181.181,0,0,1,.177.18V29.888A40.18,40.18,0,0,1,78.092,66.8l-.12.052-.124.042a4.834,4.834,0,0,1-3.045,0l-.125-.041-.12-.052A40.181,40.181,0,0,1,50.285,29.888V14.546a.181.181,0,0,1,.177-.18l3.025-.045a9.188,9.188,0,0,0,9.091-9.1L62.62,2.2a.18.18,0,0,1,.18-.177H83.017a1.013,1.013,0,1,0,0-2.027Z" transform="translate(0)"/>
        <path id="Trazado_245656" data-name="Trazado 245656" d="M79.406,52.308a1.013,1.013,0,0,0-1.013,1.013V55.95a38.138,38.138,0,0,0,23.038,35.04c.027.011.054.022.081.031a2.786,2.786,0,0,0,1.751,0c.028-.009.055-.02.081-.031a38.138,38.138,0,0,0,23.038-35.04V43.632a1.211,1.211,0,0,0-1.188-1.2,11.223,11.223,0,0,1-11.105-11.12,1.194,1.194,0,0,0-1.188-1.173H91.875a1.194,1.194,0,0,0-1.188,1.173,11.223,11.223,0,0,1-11.106,11.12,1.211,1.211,0,0,0-1.188,1.2v4.961a1.013,1.013,0,1,0,2.027,0V44.417A13.311,13.311,0,0,0,92.676,32.161H112.1a13.311,13.311,0,0,0,12.257,12.257V55.95A36.114,36.114,0,0,1,102.59,89.109a.749.749,0,0,1-.4,0A36.114,36.114,0,0,1,80.42,55.95V53.322A1.013,1.013,0,0,0,79.406,52.308Z" transform="translate(-26.064 -26.063)"/>
      </g>
    </g>
  </g>
</svg>
