<svg xmlns="http://www.w3.org/2000/svg" width="338.838" height="224.171" viewBox="0 0 338.838 224.171">
  <g id="Grupo_950135" data-name="Grupo 950135" transform="translate(2189.324 8523.875)">
    <g id="Grupo_950089" data-name="Grupo 950089" transform="translate(-2175.514 -8494.875)">
      <path id="Trazado_635127" data-name="Trazado 635127" d="M0,65.943V0" transform="translate(9.924 2.562)" fill="none" stroke="#342287" stroke-width="3"/>
      <g id="Grupo_950076" data-name="Grupo 950076" transform="matrix(0.995, -0.105, 0.105, 0.995, 0, 1.808)">
        <path id="Trazado_633963" data-name="Trazado 633963" d="M.337,13.083a.863.863,0,0,0,1.21-.16L9.583,2.461l6.082,11.707a.863.863,0,1,0,1.531-.795L10.49.465A.863.863,0,0,0,9.041.337L.178,11.871a.865.865,0,0,0,.159,1.211Z" fill="#342287"/>
      </g>
    </g>
    <g id="Grupo_950085" data-name="Grupo 950085" transform="translate(-426.817 808.625)">
      <path id="Trazado_635127-2" data-name="Trazado 635127" d="M0,0V65.943" transform="translate(-1432.473 -9332.5)" fill="none" stroke="#342287" stroke-width="3"/>
      <g id="Grupo_950076-2" data-name="Grupo 950076" transform="matrix(0.995, 0.105, -0.105, 0.995, -1440.867, -9280.357)">
        <path id="Trazado_633963-2" data-name="Trazado 633963" d="M633.671,341.259a.863.863,0,0,1,1.21.16l8.036,10.462L649,340.174a.863.863,0,1,1,1.531.795l-6.706,12.908a.863.863,0,0,1-1.449.128l-8.862-11.534a.865.865,0,0,1,.159-1.211Z" transform="translate(-633.334 -339.707)" fill="#342287"/>
      </g>
    </g>
    <g id="Grupo_950081" data-name="Grupo 950081" transform="translate(9.359)">
      <path id="Rectángulo_34854" data-name="Rectángulo 34854" d="M0,0H165.5A29.5,29.5,0,0,1,195,29.5v0A29.5,29.5,0,0,1,165.5,59H0a0,0,0,0,1,0,0V0A0,0,0,0,1,0,0Z" transform="translate(-2056.697 -8416.119)" fill="#ab9df1"/>
      <text id="Respuestas" transform="translate(-2009.69 -8397.119)" fill="#12263f" font-size="14" font-family="SegoeUI-Bold, Segoe UI" font-weight="700"><tspan x="22.725" y="15">Respuestas</tspan></text>
      <g id="Grupo_950072" data-name="Grupo 950072" transform="translate(-986.69 606.353)">
        <path id="Trazado_633998" data-name="Trazado 633998" d="M744.586,666.411a86.983,86.983,0,1,1,80.8-92.753A86.654,86.654,0,0,1,744.586,666.411Z" transform="translate(-1866.188 -9572.676)" fill="#dfe0e3"/>
        <path id="Trazado_633999" data-name="Trazado 633999" d="M764.252,518.148,807.471,555.8q.543,3.557.8,7.214a86.982,86.982,0,0,1-80.8,92.753q-2.063.142-4.109.186L691.9,628.538Z" transform="translate(-1849.071 -9562.028)" fill="#cecaea"/>
        <g id="Grupo_948637" data-name="Grupo 948637" transform="translate(-1191.734 -9057.658)">
          <path id="Trazado_634000" data-name="Trazado 634000" d="M737.152,639.793a66.42,66.42,0,1,1,61.7-70.826A66.165,66.165,0,0,1,737.152,639.793Z" transform="translate(-668.128 -508.672)" fill="#e6e1fb"/>
        </g>
        <g id="reforzamiento" transform="translate(-1164 -9034.245)">
          <path id="Trazado_634154" data-name="Trazado 634154" d="M50.166,34.215a13.5,13.5,0,1,1-5.389.012l.049-.037h.012L47.5,38.867a8.592,8.592,0,1,0,8.592,8.592A8.586,8.586,0,0,0,47.5,38.867l2.651-4.652Z" transform="translate(7.506 7.549)" fill="#fcd770"/>
          <path id="Trazado_634155" data-name="Trazado 634155" d="M28,16.91v13.5a4.91,4.91,0,0,0,4.91,4.91H43.957l4.91,8.592,4.91-8.592H64.824a4.91,4.91,0,0,0,4.91-4.91V16.91A4.91,4.91,0,0,0,64.824,12H32.91A4.91,4.91,0,0,0,28,16.91Z" transform="translate(6.141 2.502)" fill="#e6e9ed"/>
          <path id="Trazado_634156" data-name="Trazado 634156" d="M69.734,44.5v7.365l-3.007.712A17.985,17.985,0,0,1,64.6,57.709l1.62,2.627-5.2,5.2-2.627-1.62a17.984,17.984,0,0,1-5.131,2.123l-.712,3.007H45.184l-.712-3.007a17.984,17.984,0,0,1-5.131-2.123l-2.627,1.62-5.2-5.2,1.62-2.627a17.985,17.985,0,0,1-2.124-5.131L28,51.867V44.5l3.007-.712a17.985,17.985,0,0,1,2.124-5.131l-1.62-2.627L36.543,31h7.414l2.234,3.916-.049.037a13.5,13.5,0,1,0,5.389-.012L53.777,31H61.19l5.033,5.033L64.6,38.659a17.985,17.985,0,0,1,2.123,5.131Z" transform="translate(6.141 6.824)" fill="#ffc729"/>
          <path id="Trazado_634157" data-name="Trazado 634157" d="M50.863,24.51v.945a2.462,2.462,0,0,1-2.455,2.455H43.5a2.462,2.462,0,0,1-2.455-2.455V24.51A4.794,4.794,0,0,0,40.81,23H51.121A4.486,4.486,0,0,0,50.863,24.51Z" transform="translate(9.055 5.004)" fill="#969faa"/>
          <path id="Trazado_634158" data-name="Trazado 634158" d="M57.824,13.593a11.485,11.485,0,0,1,.27,2.455,10.991,10.991,0,0,1-4.222,8.666A4.959,4.959,0,0,0,52.215,27.1H41.9a4.592,4.592,0,0,0-1.6-2.308,12.287,12.287,0,0,1-1.043-.908l-.405-.221a3.005,3.005,0,0,0,.822-2.087A3.07,3.07,0,0,0,36.614,18.5H36.27A11.143,11.143,0,0,1,36,16.085a10.564,10.564,0,0,1,.295-2.492,11.038,11.038,0,0,1,21.53,0Z" transform="translate(7.961 0.909)" fill="#ffeaa7"/>
          <ellipse id="Elipse_5418" data-name="Elipse 5418" cx="3.5" cy="3" rx="3.5" ry="3" transform="translate(52 14.102)" fill="#ff826e"/>
          <path id="Trazado_634159" data-name="Trazado 634159" d="M23.592,34V64.073a4.3,4.3,0,0,1-4.3,4.3,4.317,4.317,0,0,1-4.3-4.3V38.91h3.682V34Z" transform="translate(3.184 7.506)" fill="#838f9b"/>
          <path id="Trazado_634160" data-name="Trazado 634160" d="M16.592,38V63.163a4.3,4.3,0,0,1-4.3,4.3,4.317,4.317,0,0,1-4.3-4.3V38Z" transform="translate(1.592 8.416)" fill="#838f9b"/>
          <path id="Trazado_634161" data-name="Trazado 634161" d="M20.275,24V41.184H8V35.047h6.751a3.069,3.069,0,0,0,0-6.137H8V24Z" transform="translate(1.592 5.232)" fill="#e6e9ed"/>
          <path id="Trazado_634162" data-name="Trazado 634162" d="M44,16h.344a3.07,3.07,0,0,1,3.069,3.069,3.005,3.005,0,0,1-.822,2.087.534.534,0,0,1-.074.086,3.071,3.071,0,0,1-2.173.9h-17.8V38.094h-4.91V25.82H9.365v4.91h6.751a3.069,3.069,0,1,1,0,6.137H6.91A4.908,4.908,0,0,1,2,31.957V28.275A12.279,12.279,0,0,1,14.275,16H44Z" transform="translate(0.227 3.412)" fill="#45bbcc"/>
          <ellipse id="Elipse_5419" data-name="Elipse 5419" cx="8.5" cy="8" rx="8.5" ry="8" transform="translate(10 3.102)" fill="#f0d0b4"/>
          <path id="Trazado_634163" data-name="Trazado 634163" d="M77.1,32.914v-13.5a6.144,6.144,0,0,0-6.137-6.137H66.723A12.291,12.291,0,0,0,54.63,4.687a12.363,12.363,0,0,0-11.313,8.587H39.051a6.149,6.149,0,0,0-6.013,4.91h-8.38a9.813,9.813,0,1,0-12.671.244A13.517,13.517,0,0,0,1,31.686v3.682a6.144,6.144,0,0,0,6.137,6.137H8.365V71.579a5.5,5.5,0,0,0,9.82,3.43A5.5,5.5,0,0,0,28,71.579v-44.8h4.91v6.137a6.144,6.144,0,0,0,6.137,6.137h.668l-3.625,3.625L37.843,45.5a19.561,19.561,0,0,0-1.7,4.09l-3.234.761v9.309l3.234.761a19.5,19.5,0,0,0,1.7,4.09L36.094,67.34l6.583,6.583,2.826-1.75a19.512,19.512,0,0,0,4.09,1.7l.761,3.234h9.309l.761-3.234a19.511,19.511,0,0,0,4.09-1.7l2.826,1.75,6.583-6.583-1.749-2.827a19.457,19.457,0,0,0,1.7-4.09l3.234-.761V50.354l-3.234-.761a19.5,19.5,0,0,0-1.7-4.09l1.749-2.827L70.3,39.051h.668A6.144,6.144,0,0,0,77.1,32.914ZM54.7,7.142a9.81,9.81,0,0,1,6.373,17.521,6.286,6.286,0,0,0-1.733,2.114H56.236V21.692a4.91,4.91,0,1,0-2.455,0v5.084h-3.1a5.847,5.847,0,0,0-1.667-2.052c-.189-.146-.361-.313-.54-.473a4.262,4.262,0,0,0-3.2-6A9.767,9.767,0,0,1,54.7,7.142ZM51.31,29.232h7.4c0,.093-.016.185-.016.28v.948a1.229,1.229,0,0,1-1.227,1.227h-4.91a1.229,1.229,0,0,1-1.227-1.227v-.948C51.326,29.417,51.315,29.325,51.31,29.232Zm3.7-9.82a2.455,2.455,0,1,1,2.455-2.455A2.457,2.457,0,0,1,55.008,19.412ZM39.051,15.729H42.8A12.119,12.119,0,0,0,42.734,17c0,.4.032.79.07,1.183H35.595a3.677,3.677,0,0,1,3.457-2.455ZM10.82,10.82a7.365,7.365,0,1,1,7.365,7.365A7.372,7.372,0,0,1,10.82,10.82Zm5.524,30.686a4.3,4.3,0,1,0,0-8.592H10.82V30.459h9.82V45.188H10.82V41.506ZM13.888,74.647a3.072,3.072,0,0,1-3.069-3.069V47.643h6.137V71.579A3.072,3.072,0,0,1,13.888,74.647Zm8.592,0a3.072,3.072,0,0,1-3.069-3.069V47.643h3.682v-4.91h2.455V71.579A3.072,3.072,0,0,1,22.48,74.647Zm3.069-50.326V40.279H23.094V28H8.365v4.91H5.91v2.455H16.343a1.841,1.841,0,1,1,0,3.682H7.137a3.687,3.687,0,0,1-3.682-3.682V31.686A11.06,11.06,0,0,1,14.5,20.639H44.575a1.841,1.841,0,1,1,0,3.682Zm9.82,8.592V26.777h9.206a4.26,4.26,0,0,0,2.288-.674c.216.191.428.389.657.566a3.592,3.592,0,0,1,1.351,2.843v.948a3.687,3.687,0,0,0,3.682,3.682h4.91a3.687,3.687,0,0,0,3.682-3.682v-.948a3.707,3.707,0,0,1,1.448-2.918,12.193,12.193,0,0,0,4.689-9.637c0-.412-.021-.822-.06-1.227h3.743a3.687,3.687,0,0,1,3.682,3.682v13.5A3.687,3.687,0,0,1,70.965,36.6H59.206l-4.2,7.346L50.81,36.6H39.051A3.687,3.687,0,0,1,35.369,32.914Zm17.642,12.48a9.82,9.82,0,1,0,3.994,0l1.266-2.214a12.277,12.277,0,1,1-6.525,0Zm2,2.25a7.365,7.365,0,1,1-7.365,7.365A7.372,7.372,0,0,1,55.008,47.643Zm15.8-4.605L69.3,45.476l.39.642a17.062,17.062,0,0,1,1.987,4.792l.179.73,2.788.658v5.42l-2.789.657-.179.73A17.02,17.02,0,0,1,69.692,63.9l-.39.642,1.509,2.438L66.977,70.81,64.539,69.3l-.643.39A17.044,17.044,0,0,1,59.1,71.677l-.73.179-.655,2.791H52.3l-.657-2.79-.73-.179a17.059,17.059,0,0,1-4.792-1.985l-.643-.39-2.438,1.509L39.2,66.978l1.509-2.438-.39-.642a17.062,17.062,0,0,1-1.987-4.792l-.179-.73-2.788-.658V52.3l2.789-.657.179-.73a17.026,17.026,0,0,1,1.987-4.792l.39-.642-1.509-2.438,3.986-3.988h6.195l1.11,1.943a14.732,14.732,0,1,0,9.023,0l1.111-1.944h6.195Z" transform="translate(0)"/>
          <path id="Trazado_634164" data-name="Trazado 634164" d="M57,26h2.455v2.455H57Z" transform="translate(12.738 5.686)"/>
          <path id="Trazado_634165" data-name="Trazado 634165" d="M57,22h2.455v2.455H57Z" transform="translate(12.738 4.777)"/>
          <path id="Trazado_634166" data-name="Trazado 634166" d="M57,18h2.455v2.455H57Z" transform="translate(12.738 3.867)"/>
          <path id="Trazado_634167" data-name="Trazado 634167" d="M31,26h2.455v2.455H31Z" transform="translate(6.824 5.686)"/>
          <path id="Trazado_634168" data-name="Trazado 634168" d="M35,26h2.455v2.455H35Z" transform="translate(7.734 5.686)"/>
        </g>
      </g>
    </g>
  </g>
</svg>
