<svg xmlns="http://www.w3.org/2000/svg" xmlns:xlink="http://www.w3.org/1999/xlink" width="85" height="85" viewBox="0 0 85 85">
  <defs>
    <clipPath id="clip-path">
      <rect id="Rectángulo_34012" data-name="Rectángulo 34012" width="85" height="85" transform="translate(200 12037)" fill="#2ff980"/>
    </clipPath>
  </defs>
  <g id="Enmascarar_grupo_76" data-name="Enmascarar grupo 76" transform="translate(-200 -12037)" clip-path="url(#clip-path)">
    <g id="libro-guia" transform="translate(200 12037)">
      <g id="Grupo_80979" data-name="Grupo 80979">
        <path id="Trazado_114639" data-name="Trazado 114639" d="M9.335,16.226l-7.654-.831v60.9H42.416L9.335,67.961Z" fill="#ffce62"/>
      </g>
      <g id="Grupo_80980" data-name="Grupo 80980">
        <path id="Trazado_114640" data-name="Trazado 114640" d="M75.5,16.226l7.822-.831v60.9h-40.9L75.5,67.961Z" fill="#ffce62"/>
      </g>
      <g id="Grupo_80981" data-name="Grupo 80981">
        <path id="Trazado_114641" data-name="Trazado 114641" d="M42.416,27.213V67.475L9.335,58.891V10.146L40,18.491a11.349,11.349,0,0,0,2.413,8.723Z" fill="#f9f5f3"/>
      </g>
      <g id="Grupo_80982" data-name="Grupo 80982">
        <path id="Trazado_114642" data-name="Trazado 114642" d="M75.5,10.146V58.891L42.416,67.475V27.213A11.368,11.368,0,0,0,60.939,14.108Z" fill="#f9f5f3"/>
      </g>
      <g id="Grupo_80983" data-name="Grupo 80983">
        <path id="Trazado_114643" data-name="Trazado 114643" d="M9.335,58.89v9.07l33.081,8.33V67.476Z" fill="#a7bcce"/>
      </g>
      <g id="Grupo_80984" data-name="Grupo 80984">
        <path id="Trazado_114644" data-name="Trazado 114644" d="M75.5,58.89v9.07l-33.081,8.33V67.476Z" fill="#a7bcce"/>
      </g>
      <g id="Grupo_80985" data-name="Grupo 80985">
        <circle id="Elipse_4800" data-name="Elipse 4800" cx="11.367" cy="11.367" r="11.367" transform="translate(39.892 8.703)" fill="#a0c8ff"/>
      </g>
      <g id="Grupo_80986" data-name="Grupo 80986">
        <path id="Trazado_114645" data-name="Trazado 114645" d="M74.459,43.27a3.469,3.469,0,0,1-4.86,0l-8.21-8.21,4.86-4.86,8.21,8.21A3.436,3.436,0,0,1,74.459,43.27Z" fill="#ff7b7b"/>
      </g>
      <g id="Grupo_80987" data-name="Grupo 80987">
        <path id="Trazado_114646" data-name="Trazado 114646" d="M84.443,14.145a1.681,1.681,0,0,0-1.3-.422l-5.963.633v-4.21a1.7,1.7,0,0,0-2.123-1.622L61.643,12.173a13.029,13.029,0,0,0-19.611-1.33A12.969,12.969,0,0,0,38.74,16.4L24.76,12.6a1.681,1.681,0,1,0-.883,3.245l14.34,3.9a13.15,13.15,0,0,0,2.518,8.039V65.3L11.016,57.59V16.226s0,0,0-.007V10.146a1.681,1.681,0,0,0-3.363,0v4.205l-5.791-.628A1.7,1.7,0,0,0,0,15.4v60.9a1.681,1.681,0,0,0,1.681,1.681H83.319A1.681,1.681,0,0,0,85,76.291V15.4a1.682,1.682,0,0,0-.557-1.25ZM11.016,61.064l29.718,7.712v5.357L11.016,66.65ZM44.1,30.983a13.157,13.157,0,0,0,12.078,1.18,12.99,12.99,0,0,0,3.044-1.755l2.222,2.222L60.2,33.871a1.7,1.7,0,0,0,0,2.378l8.21,8.21a5.165,5.165,0,0,0,5.405,1.175V57.589L44.1,65.3Zm22.151,1.6L73.27,39.6a1.755,1.755,0,0,1-2.482,2.482L63.766,35.06ZM44.1,74.133V68.776l29.718-7.712V66.65ZM73.816,12.346V16.22s0,0,0,.005V35.389l-6.378-6.378a1.682,1.682,0,0,0-2.378,0l-1.241,1.241L61.6,28.032a12.978,12.978,0,0,0,1.769-12.842Zm-29.405.875A9.686,9.686,0,0,1,59.08,25.786,9.686,9.686,0,1,1,44.41,13.222ZM3.363,17.269l4.291.466V67.961a1.681,1.681,0,0,0,1.271,1.63l19.929,5.018H3.363ZM81.637,74.609H55.979l19.929-5.018a1.681,1.681,0,0,0,1.271-1.63V17.738l4.459-.473V74.609Z"/>
        <path id="Trazado_114647" data-name="Trazado 114647" d="M16.064,23.846l18.1,4.786a1.681,1.681,0,0,0,.859-3.251L16.923,20.6a1.681,1.681,0,0,0-.859,3.251Z"/>
        <path id="Trazado_114648" data-name="Trazado 114648" d="M16.064,33.418l18.1,4.786a1.681,1.681,0,0,0,.859-3.251l-18.1-4.786a1.681,1.681,0,0,0-.859,3.251Z"/>
        <path id="Trazado_114649" data-name="Trazado 114649" d="M16.064,42.989l18.1,4.786a1.681,1.681,0,0,0,.859-3.251l-18.1-4.786a1.681,1.681,0,0,0-.859,3.251Z"/>
        <path id="Trazado_114650" data-name="Trazado 114650" d="M16.064,52.561l9.847,2.6a1.681,1.681,0,0,0,.859-3.251l-9.847-2.6a1.681,1.681,0,0,0-.859,3.251Z"/>
        <path id="Trazado_114651" data-name="Trazado 114651" d="M50.149,47.831a1.681,1.681,0,0,0,.421-.054l8.807-2.269a1.681,1.681,0,0,0-.839-3.256L49.73,44.521a1.682,1.682,0,0,0,.418,3.31Z"/>
        <path id="Trazado_114652" data-name="Trazado 114652" d="M66.451,53.213a1.681,1.681,0,0,0-.847-3.254L49.726,54.094a1.681,1.681,0,1,0,.847,3.254Z"/>
        <path id="Trazado_114653" data-name="Trazado 114653" d="M16.186,13.663a1.682,1.682,0,1,0-.633-2,1.695,1.695,0,0,0,.633,2Z"/>
        <path id="Trazado_114654" data-name="Trazado 114654" d="M49.582,22.39v2.516a1.681,1.681,0,0,0,1.681,1.681h1.789a1.681,1.681,0,1,0,0-3.363h-.107V19.786a1.681,1.681,0,0,0-2.407-1.516l-1.982.949a1.681,1.681,0,0,0,1.027,3.171Z"/>
        <path id="Trazado_114655" data-name="Trazado 114655" d="M49.58,15.366a1.681,1.681,0,1,0,.91-2.2A1.7,1.7,0,0,0,49.58,15.366Z"/>
        <path id="Trazado_114656" data-name="Trazado 114656" d="M36.15,55.125a1.68,1.68,0,1,0-.688,2.085A1.693,1.693,0,0,0,36.15,55.125Z"/>
      </g>
    </g>
  </g>
</svg>
