<svg xmlns="http://www.w3.org/2000/svg" width="141.077" height="140.914" viewBox="0 0 141.077 140.914">
  <g id="Grupo_950107" data-name="Grupo 950107" transform="translate(9582 5427.521)">
    <g id="Grupo_949930" data-name="Grupo 949930" transform="translate(-989.121 1803.22)">
      <path id="Trazado_245634" data-name="Trazado 245634" d="M261.27,4760.1a71.451,71.451,0,1,0-71.452,71.452A71.179,71.179,0,0,0,261.27,4760.1Z" transform="translate(-8713.071 -11921.383)" fill="#462eb4"/>
      <path id="Trazado_245635" data-name="Trazado 245635" d="M145.624,4791.2l33.294,33.293c1.964.162,3.95.249,5.955.249a71.452,71.452,0,0,0,71.452-71.451q0-1.7-.079-3.379l-24.239-24.239Z" transform="translate(-8708.127 -11914.57)" fill="#342287"/>
      <g id="Grupo_84112" data-name="Grupo 84112" transform="translate(-8576.206 -7214.085)">
        <path id="Trazado_245636" data-name="Trazado 245636" d="M241.88,4757.627a54.561,54.561,0,1,0-54.56,54.559A54.351,54.351,0,0,0,241.88,4757.627Z" transform="translate(-134.152 -4704.586)" fill="#e6e1fb"/>
      </g>
    </g>
    <g id="usuario" transform="translate(-9543.335 -5388.937)">
      <path id="Trazado_245657" data-name="Trazado 245657" d="M51.542,52.7a28.6,28.6,0,0,1-17.623,7.749V61.2a2.046,2.046,0,0,1-4.092,0v-.754a28.492,28.492,0,0,1-14.62-5.273A28.683,28.683,0,0,1,3.3,33.919H2.546a2.046,2.046,0,0,1,0-4.092H3.3A28.65,28.65,0,0,1,29.827,3.3V2.546a2.046,2.046,0,0,1,4.092,0V3.3A28.65,28.65,0,0,1,60.446,29.827H61.2a2.046,2.046,0,0,1,0,4.092h-.754A28.564,28.564,0,0,1,51.542,52.7ZM31.873,15.914a11.595,11.595,0,0,1,7.394,20.525A19.84,19.84,0,0,1,50.435,47.944a24.45,24.45,0,0,0,5.906-14.026h-.6a2.046,2.046,0,1,1,0-4.092h.6A24.558,24.558,0,0,0,33.919,7.4V8a2.046,2.046,0,0,1-4.092,0V7.4A24.558,24.558,0,0,0,7.4,29.827H8a2.046,2.046,0,0,1,0,4.092H7.4a24.449,24.449,0,0,0,5.906,14.026A19.84,19.84,0,0,1,24.479,36.439a11.595,11.595,0,0,1,7.394-20.525Z" transform="translate(0 0)" fill="#25c766" fill-rule="evenodd"/>
      <path id="Trazado_245658" data-name="Trazado 245658" d="M51.542,52.7a28.6,28.6,0,0,1-17.623,7.749V61.2a2.046,2.046,0,0,1-4.092,0v-.754a28.492,28.492,0,0,1-14.62-5.273A28.683,28.683,0,0,1,3.3,33.919H2.546a2.046,2.046,0,0,1,0-4.092H3.3A28.65,28.65,0,0,1,29.827,3.3V2.546a2.046,2.046,0,0,1,4.092,0V3.3A28.65,28.65,0,0,1,60.446,29.827H61.2a2.046,2.046,0,0,1,0,4.092h-.754A28.564,28.564,0,0,1,51.542,52.7ZM31.873,35.01a7.5,7.5,0,1,0-7.5-7.5A7.5,7.5,0,0,0,31.873,35.01Zm0-19.1a11.595,11.595,0,0,1,7.394,20.525A19.84,19.84,0,0,1,50.435,47.944a24.45,24.45,0,0,0,5.906-14.026h-.6a2.046,2.046,0,1,1,0-4.092h.6A24.558,24.558,0,0,0,33.919,7.4V8a2.046,2.046,0,0,1-4.092,0V7.4A24.558,24.558,0,0,0,7.4,29.827H8a2.046,2.046,0,0,1,0,4.092H7.4a24.449,24.449,0,0,0,5.906,14.026A19.84,19.84,0,0,1,24.479,36.439a11.595,11.595,0,0,1,7.394-20.525Zm0,23.189A15.693,15.693,0,0,0,16.619,51.114a24.435,24.435,0,0,0,13.208,5.228v-.6a2.046,2.046,0,1,1,4.092,0v.6a24.435,24.435,0,0,0,13.208-5.228A15.693,15.693,0,0,0,31.873,39.1Z" transform="translate(0 0)" fill-rule="evenodd"/>
    </g>
  </g>
</svg>
