<svg xmlns="http://www.w3.org/2000/svg" width="67" height="72" viewBox="0 0 67 72">
  <g id="Grupo_948242" data-name="Grupo 948242" transform="translate(9423 3522)">
    <rect id="Rectángulo_34191" data-name="Rectángulo 34191" width="67" height="72" rx="5" transform="translate(-9423 -3522)" fill="#fff"/>
    <g id="ordenador-portatil" transform="translate(-9417.986 -3513.39)">
      <path id="Trazado_633159" data-name="Trazado 633159" d="M270.2,30.537a13.408,13.408,0,0,1-13.392-13.392V3.752h1.6A20.3,20.3,0,0,0,269.7.33l.5-.33.5.33A20.3,20.3,0,0,0,282,3.752h1.6V17.144A13.408,13.408,0,0,1,270.2,30.537Zm-11.607-25V17.144a11.607,11.607,0,1,0,23.214,0V5.536a22.073,22.073,0,0,1-11.607-3.4A22.074,22.074,0,0,1,258.594,5.536Z" transform="translate(-227.429)" fill="#45bbcc"/>
      <path id="Trazado_633160" data-name="Trazado 633160" d="M117.308,294.116H106.594a1.785,1.785,0,0,1-1.786-1.786V283.4a1.785,1.785,0,0,1,1.786-1.786h10.714a1.785,1.785,0,0,1,1.786,1.786v8.928A1.785,1.785,0,0,1,117.308,294.116Z" transform="translate(-92.393 -250.187)" fill="#45bbcc"/>
      <g id="Grupo_948270" data-name="Grupo 948270" transform="translate(0.808 4.222)">
        <path id="Trazado_633161" data-name="Trazado 633161" d="M39.2,417.616V419.4H54.378v2.678a2.682,2.682,0,0,1-2.678,2.678H5.272a2.682,2.682,0,0,1-2.678-2.678V419.4H17.772v-1.786H.808v4.464a4.469,4.469,0,0,0,4.464,4.464H51.7a4.469,4.469,0,0,0,4.464-4.464v-4.464Z" transform="translate(-0.808 -375.231)"/>
        <path id="Trazado_633162" data-name="Trazado 633162" d="M171.486,422.973h12.5a2.682,2.682,0,0,0,2.678-2.678v-2.678H168.808v2.678A2.682,2.682,0,0,0,171.486,422.973Zm-.893-3.571h14.285v.893a.894.894,0,0,1-.893.893h-12.5a.894.894,0,0,1-.893-.893Z" transform="translate(-150.059 -375.231)"/>
        <path id="Trazado_633163" data-name="Trazado 633163" d="M18.594,118.08a2.682,2.682,0,0,1,2.678-2.678H41.807v-1.786H21.272a4.469,4.469,0,0,0-4.464,4.464v27.678h1.786Z" transform="translate(-15.022 -105.158)"/>
        <rect id="Rectángulo_34558" data-name="Rectángulo 34558" width="1.786" height="16.964" transform="translate(51.784 23.636)" fill="#040303"/>
        <path id="Trazado_633164" data-name="Trazado 633164" d="M70.236,145.616H50.594a1.787,1.787,0,0,0-1.786,1.786v26.785h1.786V147.4H70.236Z" transform="translate(-43.451 -133.587)"/>
        <rect id="Rectángulo_34559" data-name="Rectángulo 34559" width="1.786" height="14.285" transform="translate(48.213 26.314)" fill="#040303"/>
        <path id="Trazado_633165" data-name="Trazado 633165" d="M298.629,60.575a9.833,9.833,0,0,0,9.821-9.821V40.865l-.791-.092a23.727,23.727,0,0,1-8.606-2.712l-.424-.229-.425.229a23.726,23.726,0,0,1-8.606,2.712l-.79.091v9.889A9.833,9.833,0,0,0,298.629,60.575Zm-8.035-18.131a25.491,25.491,0,0,0,8.035-2.587,25.468,25.468,0,0,0,8.035,2.587v8.31a8.035,8.035,0,0,1-16.071,0Z" transform="translate(-256.666 -37.832)" fill="#040303"/>
        <path id="Trazado_633166" data-name="Trazado 633166" d="M343.1,94.055l-1.462-1.023-5.721,8.172-2.833-2.125-1.071,1.429,4.31,3.232Z" transform="translate(-295.045 -86.871)" fill="#040303"/>
        <path id="Trazado_633167" data-name="Trazado 633167" d="M99.486,216.83H110.2a2.682,2.682,0,0,0,2.678-2.678v-8.928a2.675,2.675,0,0,0-1.786-2.514v-2.843a6.25,6.25,0,0,0-12.5,0v2.843a2.675,2.675,0,0,0-1.786,2.514v8.928A2.682,2.682,0,0,0,99.486,216.83Zm5.357-21.428a4.469,4.469,0,0,1,4.464,4.464v2.678h-8.928v-2.678A4.469,4.469,0,0,1,104.843,195.4Zm-6.25,9.821a.894.894,0,0,1,.893-.893H110.2a.894.894,0,0,1,.893.893v8.928a.894.894,0,0,1-.893.893H99.486a.894.894,0,0,1-.893-.893Z" transform="translate(-86.094 -176.23)"/>
        <path id="Trazado_633168" data-name="Trazado 633168" d="M146.594,310.809v1.95h1.786v-1.95a2.679,2.679,0,1,0-1.786,0Zm.893-3.407a.893.893,0,1,1-.893.893A.894.894,0,0,1,147.486,307.4Z" transform="translate(-128.737 -275.73)" fill="#040303"/>
        <rect id="Rectángulo_34560" data-name="Rectángulo 34560" width="1.786" height="1.786" transform="translate(7.143 45.957)" fill="#3f3a34"/>
        <rect id="Rectángulo_34561" data-name="Rectángulo 34561" width="1.786" height="1.786" transform="translate(10.714 45.957)" fill="#3f3a34"/>
        <rect id="Rectángulo_34562" data-name="Rectángulo 34562" width="1.786" height="1.786" transform="translate(14.285 45.957)" fill="#3f3a34"/>
      </g>
    </g>
  </g>
</svg>
