<svg xmlns="http://www.w3.org/2000/svg" width="293.619" height="311.878" viewBox="0 0 293.619 311.878">
  <g id="Grupo_83972" data-name="Grupo 83972" transform="translate(-869.992 62.009)">
    <path id="Trazado_114652" data-name="Trazado 114652" d="M907.775,90.747c18.74-24.114,31.916-46.242,16.487-65.358-16.487-20.428-4.122-56.8,31.908-50.07s71.46,27.5,123.169-7.227c23.146-15.774,47.358-8.767,55.1,6,18.115,34.548-47.161,61.7-22.3,88.259,30.934,33.047,28.828,58.088,2.458,85.514C1094.438,168.828,1126.51,181.6,1106,212c-21.089,31.254-118.953,33.783-164.033,3.762C896.673,185.6,881.751,124.233,907.775,90.747Z" transform="translate(-7.145 -6.039)" fill="#e6e1fb"/>
    <g id="Grupo_83913" data-name="Grupo 83913" transform="translate(869.992 77.109)">
      <path id="Rectángulo_34421" data-name="Rectángulo 34421" d="M19.822,0h88.909a0,0,0,0,1,0,0V56.743a0,0,0,0,1,0,0H19.822A19.822,19.822,0,0,1,0,36.921v-17.1A19.822,19.822,0,0,1,19.822,0Z" transform="translate(0.484 0.484)" fill="#c4baf5"/>
      <path id="Trazado_114653" data-name="Trazado 114653" d="M979.689,190.442H884.62a14.661,14.661,0,0,1-14.628-14.66V147.391a14.661,14.661,0,0,1,14.628-14.66h95.069ZM884.62,133.7a13.691,13.691,0,0,0-13.662,13.692v28.392a13.692,13.692,0,0,0,13.662,13.692h94.1V133.7Z" transform="translate(-869.992 -132.731)" fill="#32293a"/>
    </g>
    <g id="Grupo_83914" data-name="Grupo 83914" transform="translate(940.099 94.705)">
      <path id="Rectángulo_34422" data-name="Rectángulo 34422" d="M4.494,0H36.327a1.126,1.126,0,0,1,1.126,1.126V7.862a1.126,1.126,0,0,1-1.126,1.126H4.494A4.494,4.494,0,0,1,0,4.494v0A4.494,4.494,0,0,1,4.494,0Z" transform="translate(0.484 0.484)" fill="#fffdf7"/>
      <path id="Trazado_114654" data-name="Trazado 114654" d="M1004.943,167.318H973.1a4.978,4.978,0,0,1,0-9.956h31.845a1.61,1.61,0,0,1,1.607,1.609v6.737A1.61,1.61,0,0,1,1004.943,167.318ZM973.1,158.33a4.01,4.01,0,0,0,0,8.02h31.845a.642.642,0,0,0,.641-.642v-6.737a.642.642,0,0,0-.641-.642Z" transform="translate(-968.129 -157.362)" fill="#32293a"/>
    </g>
    <g id="Grupo_83915" data-name="Grupo 83915" transform="translate(940.099 108.721)">
      <path id="Rectángulo_34423" data-name="Rectángulo 34423" d="M4.494,0H36.327a1.126,1.126,0,0,1,1.126,1.126V7.862a1.126,1.126,0,0,1-1.126,1.126H4.494A4.494,4.494,0,0,1,0,4.494v0A4.494,4.494,0,0,1,4.494,0Z" transform="translate(0.484 0.484)" fill="#fff5d7"/>
      <path id="Trazado_114655" data-name="Trazado 114655" d="M1004.943,186.938H973.1a4.978,4.978,0,0,1,0-9.956h31.845a1.61,1.61,0,0,1,1.607,1.61v6.736A1.611,1.611,0,0,1,1004.943,186.938ZM973.1,177.951a4.01,4.01,0,0,0,0,8.02h31.845a.642.642,0,0,0,.641-.642v-6.736a.642.642,0,0,0-.641-.641Z" transform="translate(-968.129 -176.982)" fill="#32293a"/>
    </g>
    <g id="Grupo_83916" data-name="Grupo 83916" transform="translate(1068.958 -47.198)">
      <path id="Trazado_114656" data-name="Trazado 114656" d="M1242.872-40.6V21.977a8.8,8.8,0,0,1-8.786,8.813h-76.114a8.8,8.8,0,0,1-8.787-8.813V-40.6Z" transform="translate(-1148.701 41.084)" fill="#fffdf7"/>
      <path id="Trazado_114657" data-name="Trazado 114657" d="M1233.891,31.081h-76.114a9.3,9.3,0,0,1-9.27-9.3v-63.06h94.653v63.06A9.294,9.294,0,0,1,1233.891,31.081Zm-84.417-71.39V21.783a8.326,8.326,0,0,0,8.3,8.33h76.114a8.327,8.327,0,0,0,8.3-8.33V-40.309Z" transform="translate(-1148.508 41.277)" fill="#32293a"/>
    </g>
    <path id="Rectángulo_34424" data-name="Rectángulo 34424" d="M6.03,0H70.6A6.029,6.029,0,0,1,76.63,6.029v12.8A6.029,6.029,0,0,1,70.6,24.854H6.029A6.029,6.029,0,0,1,0,18.825V6.03A6.03,6.03,0,0,1,6.03,0Z" transform="translate(1078.152 -39.88)" fill="#e6e1fb"/>
    <path id="Rectángulo_34425" data-name="Rectángulo 34425" d="M6.029,0H70.6A6.029,6.029,0,0,1,76.63,6.029v12.8a6.03,6.03,0,0,1-6.03,6.03H6.029A6.029,6.029,0,0,1,0,18.825V6.029A6.029,6.029,0,0,1,6.029,0Z" transform="translate(1078.152 -8.107)" fill="#e6e1fb"/>
    <path id="Trazado_114658" data-name="Trazado 114658" d="M1242.872-52.519v6h-93.687v-6a8.8,8.8,0,0,1,8.787-8.813h76.114A8.8,8.8,0,0,1,1242.872-52.519Z" transform="translate(-79.743 -0.193)" fill="#583ae2"/>
    <path id="Trazado_114659" data-name="Trazado 114659" d="M1243.161-46.23h-94.653v-6.482a9.294,9.294,0,0,1,9.27-9.3h76.114a9.294,9.294,0,0,1,9.27,9.3Zm-93.687-.968H1242.2v-5.514a8.326,8.326,0,0,0-8.3-8.329h-76.114a8.326,8.326,0,0,0-8.3,8.329Z" transform="translate(-79.55 0)" fill="#32293a"/>
    <g id="Grupo_83917" data-name="Grupo 83917" transform="translate(1074.485 -56.878)">
      <path id="Rectángulo_34426" data-name="Rectángulo 34426" d="M2.463,0H52.619a2.462,2.462,0,0,1,2.462,2.462v0a2.462,2.462,0,0,1-2.462,2.462H2.463A2.463,2.463,0,0,1,0,2.463v0A2.463,2.463,0,0,1,2.463,0Z" transform="translate(0.483 0.484)" fill="#fffdf7"/>
      <path id="Trazado_114660" data-name="Trazado 114660" d="M1209.351-48.933h-50.167a2.947,2.947,0,0,1-2.94-2.947,2.947,2.947,0,0,1,2.94-2.947h50.167a2.947,2.947,0,0,1,2.94,2.947A2.947,2.947,0,0,1,1209.351-48.933Zm-50.167-4.926a1.979,1.979,0,0,0-1.974,1.979,1.979,1.979,0,0,0,1.974,1.979h50.167a1.979,1.979,0,0,0,1.974-1.979,1.978,1.978,0,0,0-1.974-1.979Z" transform="translate(-1156.244 54.827)" fill="#32293a"/>
    </g>
    <g id="Grupo_83918" data-name="Grupo 83918" transform="translate(1150.44 -57.124)">
      <path id="Trazado_114661" data-name="Trazado 114661" d="M1263.243-51.789a2.7,2.7,0,0,1,2.7-2.705,2.7,2.7,0,0,1,2.7,2.705,2.7,2.7,0,0,1-2.7,2.705A2.7,2.7,0,0,1,1263.243-51.789Z" transform="translate(-1262.76 54.978)" fill="#fffdf7"/>
      <path id="Trazado_114662" data-name="Trazado 114662" d="M1265.75-48.792a3.189,3.189,0,0,1-3.183-3.19,3.189,3.189,0,0,1,3.183-3.189,3.189,3.189,0,0,1,3.183,3.189A3.19,3.19,0,0,1,1265.75-48.792Zm0-5.411a2.222,2.222,0,0,0-2.217,2.221,2.222,2.222,0,0,0,2.217,2.222,2.222,2.222,0,0,0,2.217-2.222A2.221,2.221,0,0,0,1265.75-54.2Z" transform="translate(-1262.567 55.171)" fill="#32293a"/>
    </g>
    <g id="Grupo_83919" data-name="Grupo 83919" transform="translate(1143.823 -56.182)">
      <path id="Trazado_114663" data-name="Trazado 114663" d="M1253.981-51.412a1.761,1.761,0,0,1,1.759-1.762,1.761,1.761,0,0,1,1.76,1.762,1.761,1.761,0,0,1-1.76,1.763A1.761,1.761,0,0,1,1253.981-51.412Z" transform="translate(-1253.498 53.658)" fill="#fffdf7"/>
      <path id="Trazado_114664" data-name="Trazado 114664" d="M1255.547-49.358a2.247,2.247,0,0,1-2.242-2.247,2.247,2.247,0,0,1,2.242-2.247,2.246,2.246,0,0,1,2.241,2.247A2.247,2.247,0,0,1,1255.547-49.358Zm0-3.526a1.279,1.279,0,0,0-1.277,1.279,1.278,1.278,0,0,0,1.277,1.279,1.278,1.278,0,0,0,1.275-1.279A1.278,1.278,0,0,0,1255.547-52.884Z" transform="translate(-1253.305 53.852)" fill="#32293a"/>
    </g>
    <path id="Trazado_114665" data-name="Trazado 114665" d="M1030.591,8.688c-1.382.706-4.755.534-5.047-3.311s-3.813-2.51-3.86-5.6,2.988-1.842,4.033-6.681,5.521-3.483,7.473-4.934,5.1-7.567,10.183-5.854,6.512,8.18,3.968,13-10.468,12.815-10.468,12.815Z" transform="translate(-43.326 -12.573)" fill="#32293a"/>
    <g id="Grupo_83926" data-name="Grupo 83926" transform="translate(1012.509 203.759)">
      <path id="Trazado_114666" data-name="Trazado 114666" d="M1093.3,327.132H1073.35l4.828-17.114h19.947Z" transform="translate(-1070.593 -310.018)" fill="#f4c7a8"/>
      <path id="Trazado_114667" data-name="Trazado 114667" d="M1069.916,325.487v-1.42a2.806,2.806,0,0,1,2.8-2.809h.932a2.8,2.8,0,0,1,2.5,1.539l1.322,2.613a2.8,2.8,0,0,0,2.5,1.538h8.065a2.8,2.8,0,0,0,2.277-1.172l4.462-6.238a2.8,2.8,0,0,1,2.278-1.172h0a3.45,3.45,0,0,1,2.06.9c7.736,5.971,16.08,11.879,24.18,17.161,1.309.854,2.633,1.681,3.133,3.164l2.007,5.951h-58.341Z" transform="translate(-1069.612 -312.402)" fill="#583ae2"/>
      <g id="Grupo_83920" data-name="Grupo 83920" transform="translate(0 32.659)">
        <path id="Trazado_114668" data-name="Trazado 114668" d="M1126.511,364.1h-54.735a2.292,2.292,0,0,1-2.286-2.291v-5.594a.483.483,0,1,1,.967,0v5.594a1.323,1.323,0,0,0,1.319,1.323h54.735a1.323,1.323,0,0,0,1.32-1.323v-5.594a.483.483,0,1,1,.966,0v5.594A2.292,2.292,0,0,1,1126.511,364.1Z" transform="translate(-1069.49 -355.735)" fill="#32293a"/>
      </g>
      <g id="Grupo_83921" data-name="Grupo 83921" transform="translate(0.304 21.126)">
        <path id="Trazado_114669" data-name="Trazado 114669" d="M1081.415,351.872l-5.967-9.179a4.672,4.672,0,0,0-3.931-2.135h-1.6v-.968h1.6a5.64,5.64,0,0,1,4.74,2.574l5.968,9.18Z" transform="translate(-1069.916 -339.59)" fill="#32293a"/>
      </g>
      <g id="Grupo_83922" data-name="Grupo 83922" transform="translate(28.825 9.428)">
        <path id="Trazado_114670" data-name="Trazado 114670" d="M1124.2,340.252a2.814,2.814,0,0,1-1.55-.466l-11.523-7.553a2.85,2.85,0,0,1-.736-4.068l3.62-4.951.779.572-3.62,4.951a1.885,1.885,0,0,0,.485,2.686l11.524,7.553a1.876,1.876,0,0,0,2.6-.552l2.964-4.586.809.526-2.964,4.586a2.851,2.851,0,0,1-2.391,1.3Z" transform="translate(-1109.84 -323.215)" fill="#32293a"/>
      </g>
      <g id="Grupo_83923" data-name="Grupo 83923" transform="translate(31.989 12.078)">
        <path id="Trazado_114671" data-name="Trazado 114671" d="M1119.458,327.6l-4.513,6.442Z" transform="translate(-1114.462 -327.118)" fill="#ffcc38"/>
        <path id="Trazado_114672" data-name="Trazado 114672" d="M1114.752,334.335a.484.484,0,0,1-.4-.762l4.514-6.442a.483.483,0,1,1,.79.556l-4.514,6.442A.481.481,0,0,1,1114.752,334.335Z" transform="translate(-1114.269 -326.925)" fill="#32293a"/>
      </g>
      <g id="Grupo_83924" data-name="Grupo 83924" transform="translate(35.605 14.629)">
        <path id="Trazado_114673" data-name="Trazado 114673" d="M1124.519,331.173l-4.514,6.442Z" transform="translate(-1119.523 -330.689)" fill="#ffcc38"/>
        <path id="Trazado_114674" data-name="Trazado 114674" d="M1119.813,337.9a.483.483,0,0,1-.4-.762l4.513-6.442a.483.483,0,1,1,.789.557l-4.513,6.442A.481.481,0,0,1,1119.813,337.9Z" transform="translate(-1119.33 -330.496)" fill="#32293a"/>
      </g>
      <g id="Grupo_83925" data-name="Grupo 83925" transform="translate(39.288 17.025)">
        <path id="Trazado_114675" data-name="Trazado 114675" d="M1129.675,334.526l-4.514,6.442Z" transform="translate(-1124.678 -334.043)" fill="#ffcc38"/>
        <path id="Trazado_114676" data-name="Trazado 114676" d="M1124.968,341.259a.484.484,0,0,1-.4-.762l4.513-6.442a.483.483,0,1,1,.79.556l-4.513,6.442A.481.481,0,0,1,1124.968,341.259Z" transform="translate(-1124.485 -333.85)" fill="#32293a"/>
      </g>
    </g>
    <g id="Grupo_83932" data-name="Grupo 83932" transform="translate(975.671 204.1)">
      <rect id="Rectángulo_34427" data-name="Rectángulo 34427" width="19.947" height="20.859" transform="translate(5.814)" fill="#f4c7a8"/>
      <path id="Trazado_114677" data-name="Trazado 114677" d="M1045.115,323.736h-.776a2.441,2.441,0,0,0-2.157,1.3l-1.564,2.95H1026.4l-1.564-2.95a2.441,2.441,0,0,0-2.157-1.3h-.776a3.447,3.447,0,0,0-3.444,3.452v22.381a4,4,0,0,0,4,4h22.109a4,4,0,0,0,4-4V327.188A3.447,3.447,0,0,0,1045.115,323.736Z" transform="translate(-1018.076 -314.276)" fill="#583ae2"/>
      <path id="Trazado_114678" data-name="Trazado 114678" d="M1030.436,326.341v-1.857a6.5,6.5,0,0,1,6.494-6.508h0a6.5,6.5,0,0,1,6.494,6.508v1.857Z" transform="translate(-1021.497 -312.631)" fill="#583ae2"/>
      <g id="Grupo_83927" data-name="Grupo 83927" transform="translate(8.456 13.226)">
        <path id="Trazado_114679" data-name="Trazado 114679" d="M1043.423,329.685l-2.04,14.435a3.07,3.07,0,0,1-3.037,2.643h-2.832a3.07,3.07,0,0,1-3.037-2.643l-2.04-14.435Z" transform="translate(-1029.953 -329.201)" fill="#583ae2"/>
        <path id="Trazado_114680" data-name="Trazado 114680" d="M1038.152,347.053h-2.832a3.57,3.57,0,0,1-3.515-3.06l-2.04-14.434a.482.482,0,1,1,.955-.136l2.041,14.434a2.6,2.6,0,0,0,2.559,2.227h2.832a2.6,2.6,0,0,0,2.561-2.227l2.04-14.434a.482.482,0,1,1,.955.136l-2.04,14.434A3.57,3.57,0,0,1,1038.152,347.053Z" transform="translate(-1029.76 -329.008)" fill="#32293a"/>
      </g>
      <g id="Grupo_83928" data-name="Grupo 83928" transform="translate(9.239 17.351)">
        <path id="Trazado_114681" data-name="Trazado 114681" d="M1031.533,335.461h0Z" transform="translate(-1031.049 -334.977)" fill="#ffcc38"/>
        <path id="Trazado_114682" data-name="Trazado 114682" d="M1042.96,335.751h-11.62a.484.484,0,0,1,0-.968h11.62a.484.484,0,0,1,0,.968Z" transform="translate(-1030.856 -334.783)" fill="#32293a"/>
      </g>
      <g id="Grupo_83929" data-name="Grupo 83929" transform="translate(10.298 21.756)">
        <path id="Trazado_114683" data-name="Trazado 114683" d="M1033.014,341.627h0Z" transform="translate(-1032.531 -341.143)" fill="#ffcc38"/>
        <path id="Trazado_114684" data-name="Trazado 114684" d="M1042.326,341.917h-9.5a.484.484,0,0,1,0-.968h9.5a.484.484,0,0,1,0,.968Z" transform="translate(-1032.338 -340.949)" fill="#32293a"/>
      </g>
      <g id="Grupo_83930" data-name="Grupo 83930" transform="translate(10.733 26.222)">
        <path id="Trazado_114685" data-name="Trazado 114685" d="M1033.623,347.877h0Z" transform="translate(-1033.14 -347.393)" fill="#ffcc38"/>
        <path id="Trazado_114686" data-name="Trazado 114686" d="M1042.065,348.168h-8.635a.484.484,0,0,1,0-.968h8.635a.484.484,0,0,1,0,.968Z" transform="translate(-1032.947 -347.2)" fill="#32293a"/>
      </g>
      <g id="Grupo_83931" data-name="Grupo 83931" transform="translate(0 35.032)">
        <path id="Trazado_114687" data-name="Trazado 114687" d="M1044.511,370.269H1022.4a4.489,4.489,0,0,1-4.48-4.488v-5.764a.483.483,0,1,1,.967,0v5.764a3.52,3.52,0,0,0,3.513,3.52h22.108a3.52,3.52,0,0,0,3.513-3.52v-5.764a.483.483,0,1,1,.966,0v5.764A4.488,4.488,0,0,1,1044.511,370.269Z" transform="translate(-1017.923 -359.533)" fill="#32293a"/>
      </g>
    </g>
    <path id="Trazado_114688" data-name="Trazado 114688" d="M1017.616,122.984V259.155a1.333,1.333,0,0,0,1.331,1.334h29.885a1.333,1.333,0,0,0,1.331-1.334V167.608l22.536,32.456L1055,258.811a1.334,1.334,0,0,0,1.243,1.719l28.565.679a1.33,1.33,0,0,0,1.3-.929l17.714-55.842a19.625,19.625,0,0,0-2.235-16.6l-29.93-46.193a7.2,7.2,0,0,1-1.157-3.834l-.171-14.826Z" transform="translate(-42.164 -52.838)" fill="#32293a"/>
    <path id="Trazado_114689" data-name="Trazado 114689" d="M1119.254,20.8h14.428l4.248-33.547a8.033,8.033,0,0,1,5.4-6.607l24.963-8.36a.632.632,0,0,1,.8.381l.226.617,4.866-1.588a.561.561,0,0,1,.684.306,4.2,4.2,0,0,1-.02,3.183c1.384,2.375-.553,5.1-1.808,5.823.361,1.755.053,3.212-1.523,4.123s-13.085,8.14-13.085,8.14c.372,2.76-4.543,5.689-6.054,6.017.117,2.39.726,23.267,1.1,36.291a10.163,10.163,0,0,1-10.113,10.466l-24.114.088Z" transform="translate(-71.194 -9.62)" fill="#f4c7a8"/>
    <g id="Grupo_83933" data-name="Grupo 83933" transform="translate(1061.473 -38.432)">
      <path id="Trazado_114690" data-name="Trazado 114690" d="M1158.653,29.26a.484.484,0,0,1-.484-.469c-.525-18.092-.831-28.074-.909-29.67a.483.483,0,0,1,.38-.5c.6-.13,5.874-1.4,5.709-5.645a.481.481,0,0,1,.225-.429c.46-.29,11.283-7.123,12.847-8.029,1.257-.727,1.657-1.84,1.293-3.607a.486.486,0,0,1,.263-.533,4.02,4.02,0,0,0,1.8-5.177.485.485,0,0,1-.016-.389,3.788,3.788,0,0,0,.029-2.807l-4.959,1.544a.482.482,0,0,1-.6-.294l-.226-.617a.149.149,0,0,0-.189-.09l-24.968,8.361a7.594,7.594,0,0,0-5.074,6.209l-4.781,38.056a.482.482,0,1,1-.957-.121L1142.813-13A8.567,8.567,0,0,1,1148.538-20l24.965-8.36a1.122,1.122,0,0,1,1.406.672l.066.18,4.423-1.444a1.042,1.042,0,0,1,1.273.566,4.625,4.625,0,0,1,.061,3.367,5.057,5.057,0,0,1-2.007,6.1,3.818,3.818,0,0,1-1.822,4.28c-1.424.826-10.976,6.849-12.585,7.865-.031,4.274-4.592,5.849-6.077,6.248.1,2.485.4,12.324.894,29.29a.483.483,0,0,1-.469.5Z" transform="translate(-1138.03 29.006)" fill="#32293a"/>
    </g>
    <path id="Trazado_114691" data-name="Trazado 114691" d="M989.712,49.7,976.4,76.579l21.521,7.77,7.922-13.668V99.409h52.709V65.779h19.9V40.446l-74.207.191A16.271,16.271,0,0,0,989.712,49.7Z" transform="translate(-30.393 -29.263)" fill="#2ff980"/>
    <path id="Trazado_114692" data-name="Trazado 114692" d="M1035.748,28.368c0,4.9,4.223,12.558,14.124,12.558s10.689-7.892,10.547-12.615l-3.94-2.9a5.693,5.693,0,0,1-1.834-2.287l-2.622-5.946s6.464-1.249,5.7-7.147-6.62-12.4-6.62-12.4c-1.587,3.078-10.634,2.145-10.634,2.145-.241,2.848-3.45,2.637-3.14,4.587s2.082,6.232-1.2,6.211-5.761,3.775-3.514,5.808a4.407,4.407,0,0,0,5.869.388c.284,1.017.686,2.437,1.054,3.731a5.7,5.7,0,0,1-1.5,5.634Z" transform="translate(-46.203 -17.034)" fill="#f4c7a8"/>
    <path id="Trazado_114693" data-name="Trazado 114693" d="M1065.406,111.653l-8.8,3.08a5.077,5.077,0,0,1-6.471-3.128l-9.228-26.486a5.094,5.094,0,0,1,3.122-6.485l8.8-3.08a5.078,5.078,0,0,1,6.471,3.128l9.228,26.486A5.094,5.094,0,0,1,1065.406,111.653Z" transform="translate(-48.735 -39.209)" fill="#32293a"/>
    <g id="Grupo_83934" data-name="Grupo 83934" transform="translate(1001.379 64.441)">
      <path id="Trazado_114694" data-name="Trazado 114694" d="M1057.867,127.234a4.167,4.167,0,0,1-3.931-2.8.483.483,0,1,1,.912-.319,3.192,3.192,0,0,0,4.069,1.967l11.449-4.007A3.208,3.208,0,0,0,1072.33,118l-.823-2.36a.483.483,0,1,1,.911-.319l.823,2.36a4.173,4.173,0,0,1-2.556,5.311L1059.236,127A4.147,4.147,0,0,1,1057.867,127.234Z" transform="translate(-1053.909 -114.997)" fill="#faf5ff"/>
    </g>
    <path id="Trazado_114695" data-name="Trazado 114695" d="M972.891,89.421l-7.365,16.885a16.458,16.458,0,0,0,19.583,22.432l41.06-11.779s17.874-8.7,19.762-9.708c3-1.61,1.922-6.807-1.354-5.467,3.361-1.481,1.223-6.423-1.463-5.553,3.026-1.142,1.687-5.655-1.262-5.161,2.658-1.134.317-6.353-2.2-5.584.033.066-19.162,6.657-19.162,6.657l-1.56-4.475-8.52,11.277-18.705,5.167,2.706-6.922Z" transform="translate(-26.883 -42.106)" fill="#f4c7a8"/>
    <g id="Grupo_83935" data-name="Grupo 83935" transform="translate(958.02 42.821)">
      <path id="Trazado_114696" data-name="Trazado 114696" d="M998.008,127.714a.484.484,0,0,1-.132-.949L1034.35,116.3c.1-.057,17.809-8.673,19.667-9.669a3,3,0,0,0,1.259-3.822,1.551,1.551,0,0,0-2.2-.77.484.484,0,0,1-.376-.891,2.338,2.338,0,0,0,1.24-3.152,2.026,2.026,0,0,0-2.36-1.5.483.483,0,0,1-.319-.912,2.084,2.084,0,0,0,1.314-2.616,2.035,2.035,0,0,0-2.327-1.616.475.475,0,0,1-.542-.341.483.483,0,0,1,.274-.58c1.044-.446,1.009-1.725.66-2.683-.446-1.225-1.522-2.307-2.53-1.993l-.011-.034c-.869.411-4.345,1.607-19.136,6.686a.483.483,0,0,1-.612-.3l-1.262-3.623-7.975,10.558a.487.487,0,0,1-.257.175l-25.027,6.912a.484.484,0,0,1-.256-.933l24.868-6.869,8.421-11.147a.483.483,0,0,1,.842.132l1.4,4.021c7.33-2.517,17.953-6.184,18.63-6.467a.521.521,0,0,1,.094-.039c1.625-.492,3.128.962,3.718,2.587a3.4,3.4,0,0,1-.147,3.041A3.278,3.278,0,0,1,1052.9,95.6a3.665,3.665,0,0,1,1.569,5.36,2.482,2.482,0,0,1,1.679,1.438,3.994,3.994,0,0,1-1.677,5.086c-1.875,1.005-19.05,9.362-19.78,9.717l-36.552,10.494A.45.45,0,0,1,998.008,127.714Z" transform="translate(-993.215 -84.733)" fill="#32293a"/>
    </g>
    <g id="Grupo_83936" data-name="Grupo 83936" transform="translate(1003.155 48.481)">
      <path id="Trazado_114697" data-name="Trazado 114697" d="M1056.879,98.387a.484.484,0,0,1-.186-.93l11.331-4.763a.484.484,0,0,1,.373.892l-11.33,4.762A.479.479,0,0,1,1056.879,98.387Z" transform="translate(-1056.396 -92.657)" fill="#32293a"/>
    </g>
    <g id="Grupo_83937" data-name="Grupo 83937" transform="translate(1004.765 53.642)">
      <path id="Trazado_114698" data-name="Trazado 114698" d="M1059.132,105.214a.484.484,0,0,1-.178-.934l10.984-4.366a.484.484,0,0,1,.356.9l-10.984,4.366A.477.477,0,0,1,1059.132,105.214Z" transform="translate(-1058.65 -99.88)" fill="#32293a"/>
    </g>
    <g id="Grupo_83938" data-name="Grupo 83938" transform="translate(1006.223 59.195)">
      <path id="Trazado_114699" data-name="Trazado 114699" d="M1061.173,112.929a.484.484,0,0,1-.176-.934l10.989-4.307a.484.484,0,0,1,.352.9l-10.989,4.306A.475.475,0,0,1,1061.173,112.929Z" transform="translate(-1060.69 -107.654)" fill="#32293a"/>
    </g>
    <g id="Grupo_83939" data-name="Grupo 83939" transform="translate(974.969 31.933)">
      <path id="Trazado_114700" data-name="Trazado 114700" d="M1017.423,97.085a.484.484,0,0,1-.483-.484V69.977a.483.483,0,1,1,.967,0V96.6A.484.484,0,0,1,1017.423,97.085Z" transform="translate(-1016.94 -69.493)" fill="#32293a"/>
    </g>
    <g id="Grupo_83940" data-name="Grupo 83940" transform="translate(1027.385 31.933)">
      <path id="Trazado_114701" data-name="Trazado 114701" d="M1090.8,97.085a.484.484,0,0,1-.484-.484V69.977a.483.483,0,1,1,.967,0V96.6A.484.484,0,0,1,1090.8,97.085Z" transform="translate(-1090.313 -69.493)" fill="#32293a"/>
    </g>
    <g id="Grupo_83941" data-name="Grupo 83941" transform="translate(945.526 30.058)">
      <path id="Trazado_114702" data-name="Trazado 114702" d="M997.73,92.379a.492.492,0,0,1-.164-.029l-21.521-7.77a.491.491,0,0,1-.285-.275.485.485,0,0,1,.016-.4l8.306-16.773a.482.482,0,1,1,.864.429l-8.065,16.286,20.634,7.45,7.718-13.318a.483.483,0,0,1,.836.486l-7.921,13.668A.485.485,0,0,1,997.73,92.379Z" transform="translate(-975.725 -66.869)" fill="#32293a"/>
    </g>
    <g id="Grupo_83942" data-name="Grupo 83942" transform="translate(1084.937 -37.234)">
      <path id="Trazado_114703" data-name="Trazado 114703" d="M1171.359-16.425a.482.482,0,0,1-.442-.29.484.484,0,0,1,.248-.637c2.213-.972,7.635-3.365,10.188-4.575,2.916-1.382,2.572-3.563,2.108-4.74a.484.484,0,0,1,.272-.628.481.481,0,0,1,.626.272c.369.937,1.273,4.137-2.594,5.97-2.565,1.215-8,3.613-10.213,4.587A.481.481,0,0,1,1171.359-16.425Z" transform="translate(-1170.876 27.329)" fill="#32293a"/>
    </g>
    <g id="Grupo_83943" data-name="Grupo 83943" transform="translate(1093.786 -36.308)">
      <path id="Trazado_114704" data-name="Trazado 114704" d="M1183.745-17.34a.48.48,0,0,1-.424-.254.485.485,0,0,1,.194-.657c2.023-1.1,5.62-3.06,6.977-3.906a4.961,4.961,0,0,0,2.482-3.483.487.487,0,0,1,.564-.386.484.484,0,0,1,.384.565,5.99,5.99,0,0,1-2.92,4.126c-1.38.859-5,2.834-7.027,3.936A.489.489,0,0,1,1183.745-17.34Z" transform="translate(-1183.262 26.033)" fill="#32293a"/>
    </g>
    <g id="Grupo_83944" data-name="Grupo 83944" transform="translate(1094.292 -29.273)">
      <path id="Trazado_114705" data-name="Trazado 114705" d="M1184.454-10.993a.483.483,0,0,1-.417-.239.484.484,0,0,1,.173-.662l7.187-4.225a.483.483,0,0,1,.661.173.483.483,0,0,1-.172.662l-7.188,4.225A.482.482,0,0,1,1184.454-10.993Z" transform="translate(-1183.971 16.185)" fill="#32293a"/>
    </g>
    <g id="Grupo_83945" data-name="Grupo 83945" transform="translate(1078.201 -28.045)">
      <path id="Trazado_114706" data-name="Trazado 114706" d="M1170.516-1.891a.46.46,0,0,1-.054,0,.483.483,0,0,1-.427-.534,14.177,14.177,0,0,0-.155-4.278.485.485,0,0,1,.352-.552c.039-.01,3.948-1.068,5.438-2.873a2.675,2.675,0,0,0-.055-3.218.3.3,0,0,0-.341-.135l-13.2,4.165a.483.483,0,0,1-.606-.316.484.484,0,0,1,.314-.607l13.2-4.164a1.256,1.256,0,0,1,1.457.555,3.6,3.6,0,0,1-.025,4.338c-1.39,1.682-4.395,2.726-5.512,3.069a14.84,14.84,0,0,1,.092,4.123A.484.484,0,0,1,1170.516-1.891Z" transform="translate(-1161.447 14.466)" fill="#32293a"/>
    </g>
    <g id="Grupo_83946" data-name="Grupo 83946" transform="translate(1047.577 10.698)">
      <path id="Trazado_114707" data-name="Trazado 114707" d="M1119.061,66.069a.484.484,0,0,1-.483-.484V40.252a.484.484,0,0,1,.483-.484h14.428a.484.484,0,0,1,0,.968h-13.945V65.585A.484.484,0,0,1,1119.061,66.069Z" transform="translate(-1118.578 -39.768)" fill="#32293a"/>
    </g>
    <g id="Grupo_83947" data-name="Grupo 83947" transform="translate(1024.755 10.698)">
      <path id="Trazado_114708" data-name="Trazado 114708" d="M1109.937,40.736h-22.822a.484.484,0,0,1,0-.968h22.822a.484.484,0,0,1,0,.968Z" transform="translate(-1086.632 -39.768)" fill="#32293a"/>
    </g>
    <g id="Grupo_83948" data-name="Grupo 83948" transform="translate(1007.514 101.448)">
      <path id="Trazado_114709" data-name="Trazado 114709" d="M1062.981,198.135a.484.484,0,0,1-.483-.484l.054-17.749,6.61-12.837a.483.483,0,1,1,.857.444l-6.555,12.733v17.41A.484.484,0,0,1,1062.981,198.135Z" transform="translate(-1062.498 -166.801)" fill="#faf5ff"/>
    </g>
    <g id="Grupo_83949" data-name="Grupo 83949" transform="translate(1025.028 139.508)">
      <path id="Trazado_114710" data-name="Trazado 114710" d="M1095.639,232.668a.48.48,0,0,1-.4-.206l-8.142-11.624a.483.483,0,1,1,.79-.556l8.142,11.623a.484.484,0,0,1-.4.762Z" transform="translate(-1087.014 -220.078)" fill="#faf5ff"/>
    </g>
    <g id="Grupo_83950" data-name="Grupo 83950" transform="translate(984.611 84.223)">
      <path id="Trazado_114711" data-name="Trazado 114711" d="M1030.92,154a.484.484,0,0,1,0-.968c6.332,0,9.834-5.826,9.834-9.855a.483.483,0,1,1,.966,0C1041.72,148.293,1037.285,154,1030.92,154Z" transform="translate(-1030.437 -142.689)" fill="#faf5ff"/>
    </g>
    <g id="Grupo_83951" data-name="Grupo 83951" transform="translate(1003.155 39.944)">
      <path id="Trazado_114712" data-name="Trazado 114712" d="M1058.647,85.219a2.256,2.256,0,1,1,2.252-2.256A2.257,2.257,0,0,1,1058.647,85.219Zm0-3.545a1.288,1.288,0,1,0,1.287,1.289A1.288,1.288,0,0,0,1058.647,81.674Z" transform="translate(-1056.396 -80.706)" fill="#faf5ff"/>
    </g>
    <g id="Grupo_83952" data-name="Grupo 83952" transform="translate(1005.399 -17.626)">
      <path id="Trazado_114713" data-name="Trazado 114713" d="M1062.814,8.067a.47.47,0,0,1-.142-.021.484.484,0,0,1-.319-.6l.369-1.2a.257.257,0,0,0-.035-.224.228.228,0,0,0-.174-.1,3.163,3.163,0,0,1-2.441-1.161,2.807,2.807,0,0,1-.48-2.228,3.617,3.617,0,0,1,1.574-2.337.484.484,0,0,1,.51.823,2.651,2.651,0,0,0-1.135,1.694,1.84,1.84,0,0,0,.307,1.47,2.294,2.294,0,0,0,1.728.774,1.189,1.189,0,0,1,.906.517,1.221,1.221,0,0,1,.163,1.059l-.369,1.2A.482.482,0,0,1,1062.814,8.067Z" transform="translate(-1059.536 -0.12)" fill="#32293a"/>
    </g>
    <g id="Grupo_83953" data-name="Grupo 83953" transform="translate(1003.341 -5.115)">
      <path id="Trazado_114714" data-name="Trazado 114714" d="M1058.386,23.375a6.914,6.914,0,0,1-1.341-.133.484.484,0,0,1,.187-.95c3.74.737,6.279-2.266,6.992-4.334a.482.482,0,1,1,.911.316C1064.405,20.4,1061.994,23.375,1058.386,23.375Z" transform="translate(-1056.657 -17.632)" fill="#32293a"/>
    </g>
    <g id="Grupo_83954" data-name="Grupo 83954" transform="translate(997.176 -13.407)">
      <path id="Trazado_114715" data-name="Trazado 114715" d="M1048.51,9.706a.459.459,0,0,1-.069-.005.484.484,0,0,1-.409-.548,3.8,3.8,0,0,1,1.563-2.553,3.226,3.226,0,0,1,2.6-.488.484.484,0,0,1-.211.944,2.276,2.276,0,0,0-1.84.34,2.867,2.867,0,0,0-1.156,1.894A.482.482,0,0,1,1048.51,9.706Z" transform="translate(-1048.026 -6.025)" fill="#32293a"/>
    </g>
    <path id="Trazado_114716" data-name="Trazado 114716" d="M1054.173,10.168a1.092,1.092,0,0,1-.159,1.514,1.087,1.087,0,0,1-1.439-.49,1.092,1.092,0,0,1,.159-1.514A1.087,1.087,0,0,1,1054.173,10.168Z" transform="translate(-52.085 -20.44)" fill="#32293a"/>
    <path id="Trazado_114717" data-name="Trazado 114717" d="M1062.839,4.615a1.092,1.092,0,0,1-.16,1.514,1.086,1.086,0,0,1-1.438-.49,1.092,1.092,0,0,1,.159-1.514A1.087,1.087,0,0,1,1062.839,4.615Z" transform="translate(-54.56 -18.854)" fill="#32293a"/>
    <g id="Grupo_83955" data-name="Grupo 83955" transform="translate(1006.163 -7.858)">
      <path id="Trazado_114718" data-name="Trazado 114718" d="M1061.648,15.786a1.951,1.951,0,0,1-.74-.145.483.483,0,0,1,.362-.9.963.963,0,0,0,.817-.034.738.738,0,0,0,.382-.526.478.478,0,0,1,.566-.383.484.484,0,0,1,.382.567,1.705,1.705,0,0,1-.871,1.194A1.888,1.888,0,0,1,1061.648,15.786Z" transform="translate(-1060.606 -13.792)" fill="#32293a"/>
    </g>
    <g id="Grupo_83956" data-name="Grupo 83956" transform="translate(989.063 -0.749)">
      <path id="Trazado_114719" data-name="Trazado 114719" d="M1037.153,36.311a.476.476,0,0,1-.341-.142.484.484,0,0,1,0-.684l2.835-2.846a4.246,4.246,0,0,0,1.043-4.3l-1.259-3.963a.483.483,0,1,1,.92-.294l1.259,3.964a5.214,5.214,0,0,1-1.28,5.279l-2.835,2.845A.479.479,0,0,1,1037.153,36.311Z" transform="translate(-1036.67 -23.744)" fill="#32293a"/>
    </g>
    <g id="Grupo_83957" data-name="Grupo 83957" transform="translate(1003.611 -0.339)">
      <path id="Trazado_114720" data-name="Trazado 114720" d="M1057.518,49.033h0a.484.484,0,0,1,0-.969h0a8.444,8.444,0,0,0,6.3-2.453c3.053-3.123,3.316-8.3,3.337-9.442l-4.166-3.253a5.188,5.188,0,0,1-1.54-1.971L1058.8,25a.483.483,0,1,1,.882-.394l2.646,5.945a4.229,4.229,0,0,0,1.252,1.6l4.353,3.4a.485.485,0,0,1,.187.372c.005.266.094,6.57-3.613,10.365A9.379,9.379,0,0,1,1057.518,49.033Z" transform="translate(-1057.034 -24.318)" fill="#32293a"/>
    </g>
    <g id="Grupo_83961" data-name="Grupo 83961" transform="translate(1101.786 -34.526)">
      <g id="Grupo_83958" data-name="Grupo 83958" transform="translate(0 12.923)">
        <path id="Trazado_114721" data-name="Trazado 114721" d="M1224.72,10.047a14.792,14.792,0,1,1-24.4-11.26,14.6,14.6,0,0,1,4.571-2.685,14.868,14.868,0,0,1,10.075,0,14.6,14.6,0,0,1,4.571,2.685A14.776,14.776,0,0,1,1224.72,10.047Z" transform="translate(-1194.654 5.257)" fill="#25c766"/>
        <path id="Trazado_114722" data-name="Trazado 114722" d="M1209.735,25.163a15.308,15.308,0,0,1-9.922-26.936,15.044,15.044,0,0,1,4.721-2.77,15.409,15.409,0,0,1,10.4,0,15.026,15.026,0,0,1,4.723,2.773,15.307,15.307,0,0,1-9.924,26.934Zm0-29.648a14.311,14.311,0,0,0-4.874.851,14.058,14.058,0,0,0-4.418,2.6,14.31,14.31,0,1,0,18.587,0,14.061,14.061,0,0,0-4.421-2.6A14.315,14.315,0,0,0,1209.735-4.485Z" transform="translate(-1194.461 5.448)" fill="#32293a"/>
      </g>
      <g id="Grupo_83959" data-name="Grupo 83959" transform="translate(5.183)">
        <path id="Trazado_114723" data-name="Trazado 114723" d="M1221.609-13.24v6.862a14.6,14.6,0,0,0-4.571-2.685V-13.24A5.045,5.045,0,0,0,1212-18.28a5.045,5.045,0,0,0-5.038,5.039v4.178a14.6,14.6,0,0,0-4.571,2.685V-13.24A9.616,9.616,0,0,1,1212-22.861,9.616,9.616,0,0,1,1221.609-13.24Z" transform="translate(-1201.909 23.345)" fill="#2ff980"/>
        <path id="Trazado_114724" data-name="Trazado 114724" d="M1221.9-5.516l-.8-.69a14.06,14.06,0,0,0-4.418-2.6l-.319-.116v-4.517a4.56,4.56,0,0,0-4.555-4.556,4.56,4.56,0,0,0-4.554,4.556v4.517l-.319.116a14.058,14.058,0,0,0-4.418,2.6l-.8.69v-7.918a10.11,10.11,0,0,1,10.091-10.1,10.109,10.109,0,0,1,10.091,10.1ZM1211.807-22.57a9.14,9.14,0,0,0-9.125,9.136v5.851a15,15,0,0,1,3.6-2.009v-3.842a5.529,5.529,0,0,1,5.52-5.524,5.529,5.529,0,0,1,5.521,5.524v3.842a14.994,14.994,0,0,1,3.6,2.009v-5.851A9.141,9.141,0,0,0,1211.807-22.57Z" transform="translate(-1201.716 23.538)" fill="#32293a"/>
      </g>
      <g id="Grupo_83960" data-name="Grupo 83960" transform="translate(12.302 23.136)">
        <path id="Trazado_114725" data-name="Trazado 114725" d="M1217.338,12.021a2.5,2.5,0,0,1-.947,1.962v4.253a1.546,1.546,0,0,1-2.641,1.1,1.563,1.563,0,0,1-.454-1.1v-4.26a2.494,2.494,0,1,1,4.041-1.956Z" transform="translate(-1211.874 -9.042)" fill="#32293a"/>
        <path id="Trazado_114726" data-name="Trazado 114726" d="M1214.654,20.082a2.021,2.021,0,0,1-1.438-.6,2.06,2.06,0,0,1-.6-1.443V14a2.971,2.971,0,1,1,4.061.009v4.032A2.036,2.036,0,0,1,1214.654,20.082Zm0-10.265a2.014,2.014,0,0,0-1.247,3.59.482.482,0,0,1,.18.377v4.26a1.081,1.081,0,0,0,.312.759,1.064,1.064,0,0,0,1.817-.759V13.79a.485.485,0,0,1,.182-.379,2.015,2.015,0,0,0-1.244-3.595Z" transform="translate(-1211.681 -8.848)" fill="#32293a"/>
      </g>
    </g>
    <g id="Grupo_83964" data-name="Grupo 83964" transform="translate(883.76 90.693)">
      <g id="Grupo_83962" data-name="Grupo 83962">
        <path id="Trazado_114727" data-name="Trazado 114727" d="M927.739,167.55v-.179a7.664,7.664,0,0,0-13.275-5.249v-2.007a7.675,7.675,0,1,0-15.35,0v7.407h-1.5a7.692,7.692,0,0,0,0,15.383h29.59a7.688,7.688,0,0,0,.533-15.356Z" transform="translate(-889.458 -151.94)" fill="#462eb4"/>
        <path id="Trazado_114728" data-name="Trazado 114728" d="M927.014,183.2h-29.59a8.176,8.176,0,0,1,0-16.352h1.014v-6.923a8.158,8.158,0,1,1,16.316,0v.9A8.037,8.037,0,0,1,919.87,159a8.176,8.176,0,0,1,8.154,7.915,8.173,8.173,0,0,1-1.011,16.281Zm-29.59-15.384a7.208,7.208,0,0,0,0,14.416h29.59a7.2,7.2,0,0,0,.5-14.39.483.483,0,0,1-.449-.482v-.179a7.208,7.208,0,0,0-7.192-7.207,7.115,7.115,0,0,0-5.247,2.29.484.484,0,0,1-.836-.331v-2.007a7.192,7.192,0,1,0-14.384,0v7.407a.483.483,0,0,1-.483.484Z" transform="translate(-889.265 -151.746)" fill="#32293a"/>
      </g>
      <ellipse id="Elipse_4825" data-name="Elipse 4825" cx="5.389" cy="5.401" rx="5.389" ry="5.401" transform="translate(16.87 15.286)" fill="#fffdf7"/>
      <g id="Grupo_83963" data-name="Grupo 83963" transform="translate(19.344 13.953)">
        <path id="Trazado_114729" data-name="Trazado 114729" d="M919.21,180.652a.483.483,0,0,1-.341-.141l-2.384-2.39a.483.483,0,0,1,.683-.684l2.042,2.047,8.047-8.065a.483.483,0,0,1,.684.684l-8.388,8.408A.485.485,0,0,1,919.21,180.652Z" transform="translate(-916.343 -171.277)" fill="#32293a"/>
      </g>
    </g>
    <g id="Grupo_83965" data-name="Grupo 83965" transform="translate(1110.167 105.481)">
      <path id="Trazado_114730" data-name="Trazado 114730" d="M1211.28,255.638a.477.477,0,0,1-.144-.022.485.485,0,0,1-.318-.606c1.705-5.507.148-9.5-1.657-14.116-1.89-4.838-4.031-10.322-2.379-18.495,1.184-5.854,5.128-9.971,9.693-14.738,7.239-7.558,15.443-16.125,15.443-34.732a.483.483,0,1,1,.966,0c0,19-8.711,28.092-15.712,35.4-4.462,4.658-8.314,8.682-9.443,14.261-1.6,7.892.4,13.005,2.332,17.95,1.793,4.589,3.485,8.925,1.68,14.756A.485.485,0,0,1,1211.28,255.638Z" transform="translate(-1206.192 -172.446)" fill="#32293a"/>
    </g>
    <g id="Grupo_83966" data-name="Grupo 83966" transform="translate(900.387 -40.364)">
      <path id="Trazado_114731" data-name="Trazado 114731" d="M926.513,47.745l-.047,0a.485.485,0,0,1-.435-.528c.636-6.727-2.567-12.56-5.959-18.736-4.743-8.635-10.118-18.423-6.153-32.876,5.82-21.214,24.864-26.164,32.782-27.307a.485.485,0,0,1,.546.409.483.483,0,0,1-.409.548c-7.729,1.116-26.319,5.944-31.987,26.606-3.862,14.075,1.413,23.68,6.067,32.154,3.466,6.31,6.74,12.269,6.075,19.294A.484.484,0,0,1,926.513,47.745Z" transform="translate(-912.54 31.711)" fill="#32293a"/>
    </g>
    <g id="Grupo_83967" data-name="Grupo 83967" transform="translate(971.621 -57.439)">
      <path id="Trazado_114732" data-name="Trazado 114732" d="M1017.51-45.078a5.267,5.267,0,0,1-5.256-5.266,5.267,5.267,0,0,1,5.256-5.267,5.267,5.267,0,0,1,5.255,5.267A5.267,5.267,0,0,1,1017.51-45.078Zm0-9.566a4.3,4.3,0,0,0-4.29,4.3,4.3,4.3,0,0,0,4.29,4.3,4.3,4.3,0,0,0,4.289-4.3A4.3,4.3,0,0,0,1017.51-54.644Z" transform="translate(-1012.254 55.612)" fill="#32293a"/>
    </g>
    <g id="Grupo_83968" data-name="Grupo 83968" transform="translate(986.659 -46.604)">
      <path id="Trazado_114733" data-name="Trazado 114733" d="M1036.3-34.434a3.006,3.006,0,0,1-3-3.005,3.006,3.006,0,0,1,3-3.005,3.006,3.006,0,0,1,3,3.005A3.006,3.006,0,0,1,1036.3-34.434Zm0-5.043a2.037,2.037,0,0,0-2.033,2.037A2.037,2.037,0,0,0,1036.3-35.4a2.037,2.037,0,0,0,2.033-2.037A2.037,2.037,0,0,0,1036.3-39.477Z" transform="translate(-1033.304 40.445)" fill="#32293a"/>
    </g>
    <g id="Grupo_83969" data-name="Grupo 83969" transform="translate(909.587 185.927)">
      <path id="Trazado_114734" data-name="Trazado 114734" d="M930.19,294.623a4.784,4.784,0,1,1,4.773-4.783A4.783,4.783,0,0,1,930.19,294.623Zm0-8.6A3.815,3.815,0,1,0,934,289.84,3.815,3.815,0,0,0,930.19,286.025Z" transform="translate(-925.418 -285.056)" fill="#32293a"/>
    </g>
    <g id="Grupo_83970" data-name="Grupo 83970" transform="translate(892.906 181.902)">
      <path id="Trazado_114735" data-name="Trazado 114735" d="M904.894,285.087a2.833,2.833,0,1,1,2.826-2.833A2.833,2.833,0,0,1,904.894,285.087Zm0-4.7a1.864,1.864,0,1,0,1.86,1.865A1.865,1.865,0,0,0,904.894,280.39Z" transform="translate(-902.067 -279.422)" fill="#32293a"/>
    </g>
    <g id="Grupo_83971" data-name="Grupo 83971" transform="translate(1129.026 61.022)">
      <path id="Trazado_114736" data-name="Trazado 114736" d="M1235.419,115.877a2.833,2.833,0,1,1,2.826-2.833A2.833,2.833,0,0,1,1235.419,115.877Zm0-4.7a1.864,1.864,0,1,0,1.86,1.865A1.865,1.865,0,0,0,1235.419,111.18Z" transform="translate(-1232.592 -110.212)" fill="#32293a"/>
    </g>
  </g>
</svg>
