<svg xmlns="http://www.w3.org/2000/svg" width="67" height="72" viewBox="0 0 67 72">
  <g id="Grupo_81325" data-name="Grupo 81325" transform="translate(9423 3522)">
    <rect id="Rectángulo_34191" data-name="Rectángulo 34191" width="67" height="72" rx="5" transform="translate(-9423 -3522)" fill="#fff"/>
    <g id="red-mundial" transform="translate(-9416 -3513.025)">
      <g id="Grupo_948229" data-name="Grupo 948229" transform="translate(0.803 0.788)">
        <g id="Grupo_948226" data-name="Grupo 948226" transform="translate(0 5.806)">
          <g id="Grupo_948225" data-name="Grupo 948225">
            <path id="Trazado_633114" data-name="Trazado 633114" d="M60.706,66.521V97.2a4.918,4.918,0,0,1-4.912,4.924H12.413A4.918,4.918,0,0,1,7.5,97.2V66.521A4.918,4.918,0,0,1,12.413,61.6H55.794A4.918,4.918,0,0,1,60.706,66.521Z" transform="translate(-7.501 -61.597)" fill="#56788b"/>
            <path id="Trazado_633115" data-name="Trazado 633115" d="M445.674,66.521V97.2a4.918,4.918,0,0,1-4.912,4.924h-2.141a4.918,4.918,0,0,0,4.912-4.924V66.521a4.918,4.918,0,0,0-4.912-4.924h2.141A4.918,4.918,0,0,1,445.674,66.521Z" transform="translate(-392.469 -61.597)" fill="#415e6f"/>
            <path id="Trazado_633116" data-name="Trazado 633116" d="M84.22,91.838v27.624a1.738,1.738,0,0,1-1.736,1.741H39.157a1.738,1.738,0,0,1-1.736-1.741V91.838A1.738,1.738,0,0,1,39.157,90.1H82.484A1.738,1.738,0,0,1,84.22,91.838Z" transform="translate(-34.218 -87.046)" fill="#d9f0f4"/>
            <path id="Trazado_633117" data-name="Trazado 633117" d="M442.238,91.838v27.624A1.738,1.738,0,0,1,440.5,121.2h-2.141a1.738,1.738,0,0,0,1.736-1.741V91.838a1.738,1.738,0,0,0-1.736-1.741H440.5A1.738,1.738,0,0,1,442.238,91.838Z" transform="translate(-392.236 -87.046)" fill="#bae1e5"/>
            <path id="Trazado_633118" data-name="Trazado 633118" d="M208.919,447.044H196.092l2.108-6.888h8.61Z" transform="translate(-175.903 -399.63)" fill="#90abbd"/>
          </g>
        </g>
        <g id="Grupo_948228" data-name="Grupo 948228" transform="translate(9.04)">
          <path id="Trazado_633119" data-name="Trazado 633119" d="M127.16,24.973a17.61,17.61,0,0,1-17.609,17.609q-.54,0-1.071-.032a17.61,17.61,0,0,1,0-35.154q.532-.032,1.071-.032A17.609,17.609,0,0,1,127.16,24.973Z" transform="translate(-91.942 -7.364)" fill="#d9f0f4"/>
          <path id="Trazado_633120" data-name="Trazado 633120" d="M265.112,24.973A17.61,17.61,0,0,1,247.5,42.582q-.54,0-1.071-.032a17.61,17.61,0,0,0,0-35.154q.532-.032,1.071-.032A17.609,17.609,0,0,1,265.112,24.973Z" transform="translate(-229.893 -7.364)" fill="#bae1e5"/>
          <g id="Grupo_948227" data-name="Grupo 948227" transform="translate(0.63 6.684)">
            <ellipse id="Elipse_5379" data-name="Elipse 5379" cx="1.874" cy="1.873" rx="1.874" ry="1.873" fill="#ff6b81"/>
            <ellipse id="Elipse_5380" data-name="Elipse 5380" cx="1.874" cy="1.873" rx="1.874" ry="1.873" transform="translate(15.104 14.61)" fill="#ff6b81"/>
            <ellipse id="Elipse_5381" data-name="Elipse 5381" cx="1.874" cy="1.873" rx="1.874" ry="1.873" transform="translate(25.297 3.354)" fill="#ff6b81"/>
          </g>
        </g>
      </g>
      <g id="Grupo_948230" data-name="Grupo 948230" transform="translate(0)">
        <path id="Trazado_633121" data-name="Trazado 633121" d="M49.1,54.277H44.527a.8.8,0,0,0,0,1.606H49.1A4.119,4.119,0,0,1,53.2,60V90.667A4.119,4.119,0,0,1,49.1,94.786H5.715a4.119,4.119,0,0,1-4.109-4.119V84.983a.8.8,0,1,0-1.606,0v5.684a5.727,5.727,0,0,0,5.715,5.725h16.3l-1.617,5.28H16.838a.8.8,0,1,0,0,1.606H37.973a.8.8,0,1,0,0-1.606H34.412L32.8,96.392H49.1a5.726,5.726,0,0,0,5.715-5.725V60A5.727,5.727,0,0,0,49.1,54.277ZM32.733,101.672H22.078l1.617-5.28h7.422Z" transform="translate(0 -48.467)"/>
        <path id="Trazado_633122" data-name="Trazado 633122" d="M.8,82.052a.8.8,0,0,0,.8-.8V60a4.119,4.119,0,0,1,4.109-4.119H8.046a.8.8,0,1,0,0-1.606H5.715A5.726,5.726,0,0,0,0,60V81.249a.8.8,0,0,0,.8.8Z" transform="translate(0 -48.467)"/>
        <path id="Trazado_633123" data-name="Trazado 633123" d="M430.367,85.309a2.543,2.543,0,0,0-2.539-2.542h-2.858a.8.8,0,0,0,0,1.606h2.858a.936.936,0,0,1,.933.937v15.743a.8.8,0,1,0,1.606,0Z" transform="translate(-378.76 -73.907)"/>
        <path id="Trazado_633124" data-name="Trazado 633124" d="M78.328,112.923v-8.09a.8.8,0,1,0-1.606,0v8.09a.936.936,0,0,1-.933.937H32.463a.936.936,0,0,1-.933-.937V85.309a.936.936,0,0,1,.933-.937h1.512a.8.8,0,0,0,0-1.606H32.463a2.543,2.543,0,0,0-2.539,2.542v27.613a2.543,2.543,0,0,0,2.539,2.542H75.789A2.543,2.543,0,0,0,78.328,112.923Z" transform="translate(-26.721 -73.907)"/>
        <path id="Trazado_633125" data-name="Trazado 633125" d="M57.359,402.975a.8.8,0,1,0,0,1.606h3.28a.8.8,0,1,0,0-1.606Z" transform="translate(-50.502 -359.836)"/>
        <path id="Trazado_633126" data-name="Trazado 633126" d="M117.359,402.975a.8.8,0,1,0,0,1.606h3.28a.8.8,0,1,0,0-1.606Z" transform="translate(-104.078 -359.836)"/>
        <path id="Trazado_633127" data-name="Trazado 633127" d="M102.784,36.809a18.415,18.415,0,0,0,15.871-9.057.8.8,0,0,0-1.382-.817,16.906,16.906,0,0,1-3.711,4.364q-.99-.446-2.053-.8a25.249,25.249,0,0,0,2.807-11.289h5.264a16.719,16.719,0,0,1-.87,4.6.8.8,0,1,0,1.52.517A18.416,18.416,0,0,0,102.784,0a18.239,18.239,0,0,0-8.343,1.992A18.591,18.591,0,0,0,88.483,6.8a2.675,2.675,0,0,0-2.68,4.458A18.24,18.24,0,0,0,84.364,18.4,18.433,18.433,0,0,0,102.784,36.809Zm-16.8-17.6h5.264A25.249,25.249,0,0,0,94.06,30.5q-1.057.355-2.045.8A16.771,16.771,0,0,1,85.989,19.208Zm15.993,15.941a8.348,8.348,0,0,1-5.426-3.7,26.613,26.613,0,0,1,5.426-.7Zm1.606,0V30.755a26.613,26.613,0,0,1,5.426.7A8.348,8.348,0,0,1,103.587,35.148Zm-.8-10.117a1.07,1.07,0,1,1,1.072-1.07A1.072,1.072,0,0,1,102.784,25.031Zm-.8-3.622a2.675,2.675,0,0,0,0,5.105v2.635a27.99,27.99,0,0,0-6.345.878,23.365,23.365,0,0,1-2.777-10.819h9.123Zm-8.476,11q.687-.272,1.408-.5a14.146,14.146,0,0,0,1.757,2.147A16.792,16.792,0,0,1,93.506,32.408Zm17.738.517a16.659,16.659,0,0,1-2.351,1.133,14.135,14.135,0,0,0,1.762-2.152q.724.23,1.415.5-.405.269-.826.514Zm-1.312-2.9a27.99,27.99,0,0,0-6.345-.878V26.514a2.675,2.675,0,0,0,0-5.105v-2.2h9.123A23.367,23.367,0,0,1,109.932,30.027ZM103.587,1.662a8.456,8.456,0,0,1,5.422,3.7,26.61,26.61,0,0,1-5.422.7Zm-1.606,0V6.054a26.617,26.617,0,0,1-5.434-.7,8.4,8.4,0,0,1,5.434-3.694Zm1.606,6a27.99,27.99,0,0,0,6.344-.878,19.323,19.323,0,0,1,1.6,3.678,2.675,2.675,0,0,0,1.027,4.891c.081.741.133,1.493.154,2.25h-9.122Zm9.39,6.119a1.07,1.07,0,1,1,1.071-1.07A1.072,1.072,0,0,1,112.977,13.779Zm6.6,3.823h-5.264c-.022-.835-.08-1.667-.171-2.485a2.675,2.675,0,0,0-1.066-5.081,21.323,21.323,0,0,0-1.569-3.723q1.057-.355,2.045-.8A16.77,16.77,0,0,1,119.58,17.6ZM112.063,4.4q-.687.272-1.408.5a14.437,14.437,0,0,0-1.463-1.84q-.15-.159-.3-.31A16.781,16.781,0,0,1,112.063,4.4ZM95.169,3.423q.754-.383,1.533-.687A14.092,14.092,0,0,0,94.915,4.9q-.725-.23-1.416-.5a16.713,16.713,0,0,1,1.67-.975ZM87.68,8.287a1.07,1.07,0,1,1-1.071,1.07A1.072,1.072,0,0,1,87.68,8.287Zm0,3.745a2.674,2.674,0,0,0,2.122-4.3,16.975,16.975,0,0,1,2.206-2.217q.99.445,2.051.8a21.994,21.994,0,0,0-1.912,4.9.8.8,0,1,0,1.553.41A20.3,20.3,0,0,1,95.629,6.78a27.991,27.991,0,0,0,6.352.88V17.6H92.859c.024-.834.084-1.664.18-2.477a.8.8,0,1,0-1.595-.189c-.1.875-.168,1.768-.192,2.665H85.988A16.6,16.6,0,0,1,87.236,12a2.662,2.662,0,0,0,.444.037Z" transform="translate(-75.333)"/>
        <path id="Trazado_633128" data-name="Trazado 633128" d="M73.724,298.687H70.283a.8.8,0,0,0,0,1.606h3.441a.8.8,0,0,0,0-1.606Z" transform="translate(-62.042 -266.712)"/>
        <path id="Trazado_633129" data-name="Trazado 633129" d="M69.48,334.49a.8.8,0,0,0,.8.8h5.578a.8.8,0,1,0,0-1.606H70.283A.8.8,0,0,0,69.48,334.49Z" transform="translate(-62.042 -297.965)"/>
      </g>
    </g>
  </g>
</svg>
