<svg xmlns="http://www.w3.org/2000/svg" width="141.077" height="140.912" viewBox="0 0 141.077 140.912">
  <g id="Grupo_950104" data-name="Grupo 950104" transform="translate(8592.879 7230.74)">
    <path id="Trazado_245634" data-name="Trazado 245634" d="M261.27,4760.1a71.451,71.451,0,1,0-71.452,71.452A71.179,71.179,0,0,0,261.27,4760.1Z" transform="translate(-8713.071 -11921.383)" fill="#462eb4"/>
    <g id="Grupo_84112" data-name="Grupo 84112" transform="translate(-8576.206 -7214.085)">
      <path id="Trazado_245636" data-name="Trazado 245636" d="M241.88,4757.627a54.561,54.561,0,1,0-54.56,54.559A54.351,54.351,0,0,0,241.88,4757.627Z" transform="translate(-134.152 -4704.586)" fill="#e6e1fb"/>
    </g>
    <g id="responder" transform="translate(-8556.703 -7194.646)">
      <path id="Trazado_245659" data-name="Trazado 245659" d="M63.019,41.829V3.149A2.18,2.18,0,0,0,60.809,1H7.21A2.18,2.18,0,0,0,5,3.149v38.68Z" transform="translate(0.354 0.056)" fill="#c9efff"/>
      <path id="Trazado_245660" data-name="Trazado 245660" d="M1,51v5.372a2.149,2.149,0,0,0,2.149,2.149H65.466a2.149,2.149,0,0,0,2.149-2.149V51Z" transform="translate(0.056 3.778)" fill="#696e82"/>
      <path id="Trazado_245661" data-name="Trazado 245661" d="M27,51l2.149,4.3H35.6L37.744,51Z" transform="translate(1.991 3.778)" fill="#5b6172"/>
      <path id="Trazado_245662" data-name="Trazado 245662" d="M63.317,39H5.3L1,51.893H67.615Z" transform="translate(0.056 2.884)" fill="#7e849b"/>
      <path id="Trazado_245663" data-name="Trazado 245663" d="M32.489,8.149V25.34a2.149,2.149,0,0,1-2.149,2.149H24.43v4.3l-4.3-4.3H13.149A2.149,2.149,0,0,1,11,25.34V8.149A2.149,2.149,0,0,1,13.149,6H30.34A2.149,2.149,0,0,1,32.489,8.149Z" transform="translate(0.8 0.428)" fill="#f03a5a"/>
      <path id="Trazado_245664" data-name="Trazado 245664" d="M29,13.149V30.34a2.149,2.149,0,0,0,2.149,2.149h5.372v4.3l4.3-4.3H52.638a2.149,2.149,0,0,0,2.149-2.149V13.149A2.149,2.149,0,0,0,52.638,11H31.149A2.149,2.149,0,0,0,29,13.149Z" transform="translate(2.14 0.8)" fill="#50ec72"/>
      <path id="Trazado_245665" data-name="Trazado 245665" d="M58.743,50.777a2.15,2.15,0,0,0-2.51,2.119V49.673a2.149,2.149,0,0,0-4.3,0V47.524a2.149,2.149,0,0,0-4.3,0v2.264a2.229,2.229,0,0,0-1.788-2.235,2.15,2.15,0,0,0-2.51,2.12v7.521l-.678-1.05a2.3,2.3,0,0,0-3.929,2.389l3.533,6.182H58.382a20.35,20.35,0,0,0,2.149-9.1v-2.6A2.229,2.229,0,0,0,58.743,50.777Z" transform="translate(2.842 3.359)" fill="#ffd7aa"/>
      <path id="Trazado_245666" data-name="Trazado 245666" d="M26.615,55.978a2.3,2.3,0,0,0-3.746.166l-.678,1.05V49.673a2.15,2.15,0,0,0-2.51-2.12,2.229,2.229,0,0,0-1.788,2.235V47.524a2.149,2.149,0,0,0-4.3,0v2.149a2.149,2.149,0,0,0-4.3,0V52.9a2.15,2.15,0,0,0-2.51-2.119A2.229,2.229,0,0,0,5,53.011v2.6a20.348,20.348,0,0,0,2.148,9.1v0H23.265L26.8,58.532a2.3,2.3,0,0,0-.183-2.555Z" transform="translate(0.354 3.359)" fill="#ffd7aa"/>
      <path id="Trazado_245667" data-name="Trazado 245667" d="M18.056,14.085a.806.806,0,0,0,.806-.806,2.418,2.418,0,1,1,3.029,2.34,1.832,1.832,0,0,0-1.418,1.768v1.264a.806.806,0,1,0,1.612,0V17.387c0-.121.134-.188.213-.209a4.029,4.029,0,1,0-5.047-3.9.806.806,0,0,0,.806.806Z" transform="translate(1.265 0.67)"/>
      <circle id="Elipse_4849" data-name="Elipse 4849" cx="1.074" cy="1.074" r="1.074" transform="translate(21.47 21.47)"/>
      <path id="Trazado_245668" data-name="Trazado 245668" d="M13.2,28.35h6.651l4.061,4.061a.806.806,0,0,0,1.375-.569V28.35h4.3v2.417a2.958,2.958,0,0,0,2.955,2.955h4.566v3.492a.806.806,0,0,0,1.375.569l4.061-4.061H54.033a2.958,2.958,0,0,0,2.955-2.955V13.577a2.958,2.958,0,0,0-2.955-2.955H33.35V8.2A2.958,2.958,0,0,0,30.4,5.25H13.2A2.958,2.958,0,0,0,10.25,8.2V25.4A2.958,2.958,0,0,0,13.2,28.35ZM55.376,13.577V30.768a1.344,1.344,0,0,1-1.343,1.343H42.214a.806.806,0,0,0-.569.236L38.723,35.27V32.917a.806.806,0,0,0-.806-.806H32.545A1.344,1.344,0,0,1,31.2,30.768V13.577a1.344,1.344,0,0,1,1.343-1.343H54.033A1.344,1.344,0,0,1,55.376,13.577ZM11.862,8.2A1.344,1.344,0,0,1,13.2,6.862H30.4A1.344,1.344,0,0,1,31.739,8.2v2.543a2.949,2.949,0,0,0-2.149,2.829V26.739h-5.1a.806.806,0,0,0-.806.806V29.9l-2.922-2.922a.806.806,0,0,0-.569-.236H13.2A1.344,1.344,0,0,1,11.862,25.4Z" transform="translate(0.744 0.372)"/>
      <path id="Trazado_245669" data-name="Trazado 245669" d="M34.556,15.862H41a.806.806,0,0,0,0-1.612H34.556a.806.806,0,0,0,0,1.612Z" transform="translate(2.494 1.042)"/>
      <path id="Trazado_245670" data-name="Trazado 245670" d="M34.556,19.862H48.523a.806.806,0,1,0,0-1.612H34.556a.806.806,0,0,0,0,1.612Z" transform="translate(2.494 1.34)"/>
      <path id="Trazado_245671" data-name="Trazado 245671" d="M34.556,23.862H48.523a.806.806,0,1,0,0-1.612H34.556a.806.806,0,0,0,0,1.612Z" transform="translate(2.494 1.638)"/>
      <path id="Trazado_245672" data-name="Trazado 245672" d="M48.077,26.25H40.556a.806.806,0,0,0,0,1.612h7.521a.806.806,0,1,0,0-1.612Z" transform="translate(2.94 1.935)"/>
      <path id="Trazado_245673" data-name="Trazado 245673" d="M10.056,43.862H12.2a.806.806,0,1,0,0-1.612H10.056a.806.806,0,1,0,0,1.612Z" transform="translate(0.67 3.126)"/>
      <path id="Trazado_245674" data-name="Trazado 245674" d="M16.056,43.862H18.2a.806.806,0,1,0,0-1.612H16.056a.806.806,0,1,0,0,1.612Z" transform="translate(1.117 3.126)"/>
      <path id="Trazado_245675" data-name="Trazado 245675" d="M22.056,43.862H24.2a.806.806,0,1,0,0-1.612H22.056a.806.806,0,1,0,0,1.612Z" transform="translate(1.563 3.126)"/>
      <path id="Trazado_245676" data-name="Trazado 245676" d="M28.056,43.862H30.2a.806.806,0,0,0,0-1.612H28.056a.806.806,0,0,0,0,1.612Z" transform="translate(2.01 3.126)"/>
      <path id="Trazado_245677" data-name="Trazado 245677" d="M34.056,43.862H36.2a.806.806,0,1,0,0-1.612H34.056a.806.806,0,0,0,0,1.612Z" transform="translate(2.456 3.126)"/>
      <path id="Trazado_245678" data-name="Trazado 245678" d="M40.056,43.862H42.2a.806.806,0,1,0,0-1.612H40.056a.806.806,0,0,0,0,1.612Z" transform="translate(2.903 3.126)"/>
      <path id="Trazado_245679" data-name="Trazado 245679" d="M46.056,43.862H48.2a.806.806,0,1,0,0-1.612H46.056a.806.806,0,1,0,0,1.612Z" transform="translate(3.35 3.126)"/>
      <path id="Trazado_245680" data-name="Trazado 245680" d="M52.056,43.862H54.2a.806.806,0,0,0,0-1.612H52.056a.806.806,0,0,0,0,1.612Z" transform="translate(3.796 3.126)"/>
      <path id="Trazado_245681" data-name="Trazado 245681" d="M41.247,46.25H24.056a.806.806,0,0,0,0,1.612H41.247a.806.806,0,0,0,0-1.612Z" transform="translate(1.712 3.424)"/>
      <path id="Trazado_245682" data-name="Trazado 245682" d="M68.435,54.523,64.179,41.754V3.2A2.958,2.958,0,0,0,61.224.25H7.5A2.958,2.958,0,0,0,4.548,3.2V41.754L.291,54.523a1.533,1.533,0,0,0-.041.255V60.15A2.958,2.958,0,0,0,3.2,63.1H5.05a21.182,21.182,0,0,0,1.732,4.926.8.8,0,0,0,.721.446H23.619a.807.807,0,0,0,.7-.406L27.157,63.1H41.57l2.838,4.966a.807.807,0,0,0,.7.406H61.225a.8.8,0,0,0,.721-.446A21.193,21.193,0,0,0,63.677,63.1h1.845a2.958,2.958,0,0,0,2.955-2.955V54.778a1.552,1.552,0,0,0-.041-.255ZM7.5,1.862H61.224A1.344,1.344,0,0,1,62.567,3.2V41.078H6.159V3.2A1.344,1.344,0,0,1,7.5,1.862ZM5.934,42.69H62.793l3.761,11.282H63.47a2.869,2.869,0,0,0-1.755-1.035,2.964,2.964,0,0,0-1.834.287v-.6a2.958,2.958,0,0,0-2.955-2.955,2.917,2.917,0,0,0-1.388.362,2.942,2.942,0,0,0-5.82,0,2.756,2.756,0,0,0-.9-.321,2.956,2.956,0,0,0-3.445,2.915v1.343H23.35V52.629a2.956,2.956,0,0,0-3.445-2.915,2.752,2.752,0,0,0-.9.321,2.942,2.942,0,0,0-5.82,0,2.917,2.917,0,0,0-1.388-.362,2.958,2.958,0,0,0-2.955,2.955v.6a2.965,2.965,0,0,0-1.834-.287,2.869,2.869,0,0,0-1.755,1.035H2.173ZM41.121,58.438a3.091,3.091,0,0,0-.436,3.054H28.039a3.109,3.109,0,0,0-4.689-3.679V55.583h5.143l1.926,3.852a.8.8,0,0,0,.721.446h6.447a.8.8,0,0,0,.721-.446l1.926-3.852h5.143v2.231a3.114,3.114,0,0,0-4.254.624ZM30.295,55.583h8.137l-1.343,2.686H31.638ZM3.2,61.493A1.344,1.344,0,0,1,1.862,60.15V55.583h2.72a3.132,3.132,0,0,0-.034.384v2.6a21.035,21.035,0,0,0,.213,2.923Zm19.947,5.372H8.007a19.648,19.648,0,0,1-1.848-8.295v-2.6a1.42,1.42,0,0,1,1.112-1.44,1.344,1.344,0,0,1,1.574,1.324v1.074a.806.806,0,0,0,1.612,0v-4.3a1.343,1.343,0,0,1,2.686,0v4.3a.806.806,0,0,0,1.612,0V50.48a1.343,1.343,0,0,1,2.686,0v6.447a.806.806,0,0,0,1.612,0V52.744a1.42,1.42,0,0,1,1.112-1.44,1.344,1.344,0,0,1,1.574,1.324V60.15a.806.806,0,0,0,1.483.438l.678-1.05a1.494,1.494,0,0,1,2.552,1.552Zm37.567,0H45.575l-3.3-5.776a1.489,1.489,0,0,1,.118-1.66,1.512,1.512,0,0,1,1.245-.574,1.477,1.477,0,0,1,1.189.682l.678,1.05a.806.806,0,0,0,1.483-.438V52.629A1.344,1.344,0,0,1,48.562,51.3a1.42,1.42,0,0,1,1.112,1.44v4.182a.806.806,0,0,0,1.612,0V50.48a1.343,1.343,0,0,1,2.686,0v6.447a.806.806,0,0,0,1.612,0v-4.3a1.343,1.343,0,0,1,2.686,0v4.3a.806.806,0,0,0,1.612,0V55.852a1.344,1.344,0,0,1,1.574-1.324,1.42,1.42,0,0,1,1.112,1.44v2.6a19.657,19.657,0,0,1-1.848,8.3Zm6.146-6.715a1.344,1.344,0,0,1-1.343,1.343H63.965a21.035,21.035,0,0,0,.213-2.923v-2.6a3.133,3.133,0,0,0-.034-.384h2.72Z"/>
    </g>
  </g>
</svg>
