<svg xmlns="http://www.w3.org/2000/svg" xmlns:xlink="http://www.w3.org/1999/xlink" width="85" height="85" viewBox="0 0 85 85">
  <defs>
    <clipPath id="clip-path">
      <rect id="Rectángulo_34880" data-name="Rectángulo 34880" width="85" height="85" transform="translate(200 12037)" fill="#2ff980"/>
    </clipPath>
  </defs>
  <g id="Enmascarar_grupo_128" data-name="Enmascarar grupo 128" transform="translate(-200 -12037)" clip-path="url(#clip-path)">
    <g id="lista-de-verificacion_3_" data-name="lista-de-verificacion(3)" transform="translate(210.761 12043.886)">
      <path id="Trazado_634462" data-name="Trazado 634462" d="M13.333,10H60a3.333,3.333,0,0,1,3.333,3.333V75A3.333,3.333,0,0,1,60,78.33H13.333A3.333,3.333,0,0,1,10,75V13.333A3.333,3.333,0,0,1,13.333,10Zm0,0" transform="translate(-8.611 -8.612)" fill="#79b2ff"/>
      <path id="Trazado_634463" data-name="Trazado 634463" d="M81.989,50H92.22v57.219H50V50H60.231" transform="translate(-43.056 -43.057)" fill="#fff"/>
      <path id="Trazado_634464" data-name="Trazado 634464" d="M129.783,20h14.976a2.951,2.951,0,0,0,2.951-2.951V10H126.832v7.048A2.952,2.952,0,0,0,129.783,20Zm0,0" transform="translate(-109.218 -8.612)" fill="#ff6977"/>
      <path id="Trazado_634465" data-name="Trazado 634465" d="M129.783,20h14.976a2.951,2.951,0,0,0,2.951-2.951V10H126.832v7.048A2.952,2.952,0,0,0,129.783,20Zm0,0" transform="translate(-109.218 -8.612)" fill="#bdd9ff"/>
      <path id="Trazado_634466" data-name="Trazado 634466" d="M313.834,152.993l16.273-16.273a3.673,3.673,0,0,1,5.195,5.195l-16.273,16.273-9.364,4.169Zm0,0" transform="translate(-266.658 -116.807)" fill="#ffc15a"/>
      <path id="Trazado_634467" data-name="Trazado 634467" d="M319.028,265.753l-5.194-5.195-4.169,9.363Zm0,0" transform="translate(-266.658 -224.372)" fill="#98a1b3"/>
      <path id="Trazado_634468" data-name="Trazado 634468" d="M449.187,143.7l1.786-1.786a3.673,3.673,0,0,0-5.195-5.195l-1.786,1.785Zm0,0" transform="translate(-382.33 -116.806)" fill="#ff6977"/>
      <path id="Trazado_634469" data-name="Trazado 634469" d="M98,130h8.888v8.888H98Zm0,0" transform="translate(-84.39 -111.946)" fill="#cbe558"/>
      <path id="Trazado_634470" data-name="Trazado 634470" d="M98,240h8.888v8.888H98Zm0,0" transform="translate(-84.39 -206.669)" fill="#cbe558"/>
      <path id="Trazado_634471" data-name="Trazado 634471" d="M98,350h8.888v8.888H98Zm0,0" transform="translate(-84.39 -301.392)" fill="#ff6977"/>
      <path id="Trazado_634472" data-name="Trazado 634472" d="M193.389,452a1.389,1.389,0,1,0,.982.407A1.4,1.4,0,0,0,193.389,452Zm0,0" transform="translate(-165.335 -389.226)"/>
      <path id="Trazado_634473" data-name="Trazado 634473" d="M69.625,18.932a5.067,5.067,0,0,0-7.158,0L56.108,25.29V4.721A4.728,4.728,0,0,0,51.386,0H4.722A4.728,4.728,0,0,0,0,4.721V66.385a4.728,4.728,0,0,0,4.722,4.722H51.386a4.728,4.728,0,0,0,4.722-4.722V39.607L69.625,26.09a5.067,5.067,0,0,0,0-7.158ZM53.33,4.721V28.068l-2.778,2.778V6.944a1.389,1.389,0,0,0-1.389-1.389H39.882V2.777h11.5A1.947,1.947,0,0,1,53.33,4.721ZM45.747,42.809,47.622,38.6l2.337,2.337ZM37.1,2.777V8.436A1.564,1.564,0,0,1,35.542,10H20.566A1.564,1.564,0,0,1,19,8.436V2.777ZM51.386,68.329H4.722a1.947,1.947,0,0,1-1.944-1.944V4.721A1.947,1.947,0,0,1,4.722,2.777h11.5V5.555H6.944A1.389,1.389,0,0,0,5.555,6.943V64.163a1.389,1.389,0,0,0,1.389,1.389H22.5a1.389,1.389,0,1,0,0-2.778H8.333V8.332h7.893v.1a4.345,4.345,0,0,0,4.34,4.34H35.542a4.345,4.345,0,0,0,4.34-4.34v-.1h7.893V33.623L46.193,35.2a1.405,1.405,0,0,0-.286.417l-4.169,9.363a1.389,1.389,0,0,0,1.834,1.834l4.2-1.872V62.774H33.609a1.389,1.389,0,1,0,0,2.778H49.164a1.389,1.389,0,0,0,1.389-1.389V43.71l2.382-1.061a1.385,1.385,0,0,0,.4-.267v24a1.947,1.947,0,0,1-1.944,1.944ZM62.484,29.3,52.37,39.417,49.14,36.186,61.662,23.664l3.231,3.231Zm5.177-5.176-.8.8-3.23-3.23.8-.8a2.284,2.284,0,0,1,3.231,3.23Zm0,0"/>
      <path id="Trazado_634474" data-name="Trazado 634474" d="M98.277,120H89.389A1.389,1.389,0,0,0,88,121.389v8.888a1.389,1.389,0,0,0,1.389,1.389h8.888a1.389,1.389,0,0,0,1.389-1.389v-8.888A1.389,1.389,0,0,0,98.277,120Zm-1.389,8.888H90.778v-6.111h6.111Zm0,0" transform="translate(-75.779 -103.335)"/>
      <path id="Trazado_634475" data-name="Trazado 634475" d="M98.277,230H89.389A1.389,1.389,0,0,0,88,231.389v8.888a1.389,1.389,0,0,0,1.389,1.389h8.888a1.389,1.389,0,0,0,1.389-1.389v-8.888A1.389,1.389,0,0,0,98.277,230Zm-1.389,8.888H90.778v-6.111h6.111Zm0,0" transform="translate(-75.779 -198.058)"/>
      <path id="Trazado_634476" data-name="Trazado 634476" d="M98.277,340H89.389A1.389,1.389,0,0,0,88,341.389v8.888a1.389,1.389,0,0,0,1.389,1.389h8.888a1.389,1.389,0,0,0,1.389-1.389v-8.888A1.389,1.389,0,0,0,98.277,340Zm-1.389,8.888H90.778v-6.111h6.111Zm0,0" transform="translate(-75.779 -292.781)"/>
      <path id="Trazado_634477" data-name="Trazado 634477" d="M211.9,138.067a1.388,1.388,0,0,0,1.964,0l6.27-6.27a1.389,1.389,0,1,0-1.964-1.964l-5.288,5.288-2.108-2.108a1.389,1.389,0,1,0-1.964,1.964Zm0,0" transform="translate(-179.458 -111.452)"/>
      <path id="Trazado_634478" data-name="Trazado 634478" d="M211.9,248.07a1.388,1.388,0,0,0,1.964,0l6.27-6.27a1.389,1.389,0,1,0-1.964-1.964l-5.288,5.288-2.108-2.108a1.389,1.389,0,1,0-1.964,1.964Zm0,0" transform="translate(-179.458 -206.177)"/>
      <path id="Trazado_634479" data-name="Trazado 634479" d="M224.05,355.915l2.153,2.153a1.389,1.389,0,1,0,1.964-1.964l-2.153-2.153,2.153-2.153a1.389,1.389,0,0,0-1.964-1.964l-2.153,2.153-2.153-2.153a1.389,1.389,0,1,0-1.964,1.964l2.153,2.153-2.153,2.153a1.389,1.389,0,0,0,1.964,1.964Zm0,0" transform="translate(-189.039 -300.898)"/>
    </g>
  </g>
</svg>
