<svg id="aprendizaje" xmlns="http://www.w3.org/2000/svg" width="97.609" height="97.609" viewBox="0 0 97.609 97.609">
  <g id="Grupo_84040" data-name="Grupo 84040" transform="translate(1.574 1.574)">
    <g id="Grupo_84024" data-name="Grupo 84024" transform="translate(15.743 33.061)">
      <path id="Trazado_245582" data-name="Trazado 245582" d="M78.122,23v9.068a8.257,8.257,0,0,1-4.55,7.384,8.348,8.348,0,0,1-3.7.866H54.507l-4.723,7.872-7.872-3.149-7.872,3.149L29.7,41.184l-6.36,1.275A14.1,14.1,0,0,0,12,56.282V76.528A7.875,7.875,0,0,0,19.872,84.4h7.872V54.487a1.579,1.579,0,0,1,1.574-1.574H70.534A20.186,20.186,0,0,0,90.717,32.729V23Z" transform="translate(-12 -23)" fill="#b4dd7f"/>
    </g>
    <g id="Grupo_84025" data-name="Grupo 84025" transform="translate(33.439 50.379)">
      <path id="Trazado_245583" data-name="Trazado 245583" d="M35.457,38.723l-7.872,3.149L23.24,34.866,27.585,34Z" transform="translate(-23.24 -34)" fill="#a0d468"/>
    </g>
    <g id="Grupo_84026" data-name="Grupo 84026" transform="translate(45.656 50.379)">
      <path id="Trazado_245584" data-name="Trazado 245584" d="M43.595,34l-4.723,7.872L31,38.723,38.872,34Z" transform="translate(-31 -34)" fill="#a0d468"/>
    </g>
    <g id="Grupo_84027" data-name="Grupo 84027" transform="translate(31.487 88.163)">
      <path id="Trazado_245585" data-name="Trazado 245585" d="M59.784,58v4.723A1.579,1.579,0,0,1,58.21,64.3H22V58Z" transform="translate(-22 -58)" fill="#aab2bd"/>
    </g>
    <g id="Grupo_84028" data-name="Grupo 84028" transform="translate(31.487 62.974)">
      <path id="Trazado_245586" data-name="Trazado 245586" d="M59.784,42V67.189H22V43.574A1.579,1.579,0,0,1,23.574,42h36.21Z" transform="translate(-22 -42)" fill="#ccd1d9"/>
    </g>
    <g id="Grupo_84029" data-name="Grupo 84029" transform="translate(47.23 72.598)">
      <ellipse id="Elipse_4844" data-name="Elipse 4844" cx="3" cy="3.5" rx="3" ry="3.5" transform="translate(0.5 0.132)" fill="#ff826e"/>
    </g>
    <g id="Grupo_84030" data-name="Grupo 84030" transform="translate(78.717 11.02)">
      <path id="Trazado_245587" data-name="Trazado 245587" d="M55.149,18.446l.74-4.455a5.968,5.968,0,0,1,11.855.976V31.041H55.149l-1.307-1.307A6.3,6.3,0,0,1,52,25.279V21.595a3.158,3.158,0,0,1,3.149-3.149Z" transform="translate(-52 -9)" fill="#f0d0b4"/>
    </g>
    <g id="Grupo_84031" data-name="Grupo 84031" transform="translate(23.615)">
      <path id="Trazado_245588" data-name="Trazado 245588" d="M45.858,16.153a32.6,32.6,0,0,1-11.083-2.33l-.614-.236A7.921,7.921,0,0,0,23.3,20.939v4.676H21.723A4.683,4.683,0,0,0,18.5,26.89L17.5,22.907a17.042,17.042,0,0,1-.5-4.093A16.824,16.824,0,0,1,33.814,2H52.423a8.657,8.657,0,0,1,2.362,16.987,8.391,8.391,0,0,1-2.362.331h-1.59A5.47,5.47,0,0,1,45.858,16.153Z" transform="translate(-17 -2)" fill="#656d78"/>
    </g>
    <g id="Grupo_84032" data-name="Grupo 84032" transform="translate(60.675 23.615)">
      <path id="Trazado_245589" data-name="Trazado 245589" d="M42.839,17a4.723,4.723,0,0,1,0,9.446h-2.3a15.6,15.6,0,0,0,.724-4.723V17Z" transform="translate(-40.54 -17)" fill="#f0d0b4"/>
    </g>
    <g id="Grupo_84033" data-name="Grupo 84033" transform="translate(23.615 23.615)">
      <path id="Trazado_245590" data-name="Trazado 245590" d="M24.022,26.446h-2.3a4.723,4.723,0,0,1,0-9.446H23.3v4.723a15.6,15.6,0,0,0,.724,4.723Z" transform="translate(-17 -17)" fill="#f0d0b4"/>
    </g>
    <g id="Grupo_84034" data-name="Grupo 84034" transform="translate(37.784 42.743)">
      <path id="Trazado_245591" data-name="Trazado 245591" d="M40.216,29.15l1.527,7.636-7.872,4.723L26,36.786l1.527-7.636a15.71,15.71,0,0,0,12.689,0Z" transform="translate(-26 -29.15)" fill="#f0d0b4"/>
    </g>
    <g id="Grupo_84035" data-name="Grupo 84035" transform="translate(29.913 11.02)">
      <path id="Trazado_245592" data-name="Trazado 245592" d="M52.487,21.595v4.723a15.743,15.743,0,1,1-31.487,0v-9.4A7.921,7.921,0,0,1,31.863,9.567l.614.236a32.6,32.6,0,0,0,11.083,2.33A5.47,5.47,0,0,0,48.535,15.3h1.59a8.391,8.391,0,0,0,2.362-.331Z" transform="translate(-21 -9)" fill="#f0d0b4"/>
    </g>
    <g id="Grupo_84036" data-name="Grupo 84036" transform="translate(39.359 31.487)">
      <path id="Trazado_245593" data-name="Trazado 245593" d="M27,22H39.595A6.3,6.3,0,1,1,27,22Z" transform="translate(-27 -22)" fill="#ff826e"/>
    </g>
    <g id="Grupo_84037" data-name="Grupo 84037" transform="translate(4.786 46.002)">
      <path id="Trazado_245594" data-name="Trazado 245594" d="M14.36,31.22,13.1,37.486a1.571,1.571,0,0,1-1.543,1.259H7.842A1.571,1.571,0,0,1,6.3,37.486L5.04,31.22a9.456,9.456,0,0,0,9.32,0Z" transform="translate(-5.04 -31.22)" fill="#aab2bd"/>
    </g>
    <g id="Grupo_84038" data-name="Grupo 84038" transform="translate(0 28.338)">
      <path id="Trazado_245595" data-name="Trazado 245595" d="M11.446,38.892a9.312,9.312,0,0,1-4.66-1.228,9.446,9.446,0,1,1,9.32,0A9.312,9.312,0,0,1,11.446,38.892Z" transform="translate(-2 -20)" fill="#ffeaa7"/>
    </g>
    <g id="Grupo_84039" data-name="Grupo 84039" transform="translate(6.642 35.392)">
      <ellipse id="Elipse_4845" data-name="Elipse 4845" cx="3.5" cy="2.5" rx="3.5" ry="2.5" transform="translate(0.088 0.339)" fill="#fcd770"/>
    </g>
  </g>
  <g id="Grupo_84041" data-name="Grupo 84041" transform="translate(0 0)">
    <path id="Trazado_245596" data-name="Trazado 245596" d="M28.723,19.149A1.576,1.576,0,0,1,30.3,20.723h3.149a4.723,4.723,0,1,0-9.446,0h3.149A1.576,1.576,0,0,1,28.723,19.149Z" transform="translate(12.21 7.615)"/>
    <path id="Trazado_245597" data-name="Trazado 245597" d="M36.723,19.149A1.576,1.576,0,0,1,38.3,20.723h3.149a4.723,4.723,0,1,0-9.446,0h3.149A1.576,1.576,0,0,1,36.723,19.149Z" transform="translate(16.805 7.615)"/>
    <path id="Trazado_245598" data-name="Trazado 245598" d="M41.743,22.574V21H26v1.574a7.872,7.872,0,1,0,15.743,0ZM29.418,24.149h8.906a4.723,4.723,0,0,1-8.906,0Z" transform="translate(13.359 10.487)"/>
    <path id="Trazado_245599" data-name="Trazado 245599" d="M85.325,12.02a7.52,7.52,0,0,0-7.439,6.3l-.562,3.371a4.715,4.715,0,0,0-3.35,4.5v3.689a7.821,7.821,0,0,0,2.3,5.567l.844.842v8.421a6.671,6.671,0,0,1-6.669,6.67H51.65L50.612,46.2A17.411,17.411,0,0,0,58.6,37.21h1.2a6.3,6.3,0,1,0,0-12.595V20.676A10.231,10.231,0,0,0,55.869,1h-18.6A18.4,18.4,0,0,0,19.421,23.859l.8,3.2a6.235,6.235,0,0,0-1.351,3.849,6.3,6.3,0,0,0,6.3,6.3h1.2a17.4,17.4,0,0,0,7.99,8.986l-1.085,5.419L23.6,53.55A15.668,15.668,0,0,0,11,68.92V89.163a9.456,9.456,0,0,0,9.446,9.446H64.528a3.152,3.152,0,0,0,3.149-3.149V67.122h3.44a21.753,21.753,0,0,0,21.75-21.75V19.562a7.548,7.548,0,0,0-7.541-7.541Zm-8.2,14.169A1.576,1.576,0,0,1,78.7,24.615h3.149a1.574,1.574,0,0,1,0,3.149H80.271v3.149h1.574a4.723,4.723,0,1,0,0-9.446H80.554l.438-2.628a4.392,4.392,0,0,1,8.725.723v14.5H79.349l-.842-.842a4.692,4.692,0,0,1-1.384-3.341ZM52.3,54.528l-2.6,4.337L46.02,57.393l4.775-2.865ZM62.953,30.913A3.152,3.152,0,0,1,59.8,34.061h-.3a17.3,17.3,0,0,0,.3-3.149V27.764A3.152,3.152,0,0,1,62.953,30.913ZM25.169,34.061a3.149,3.149,0,0,1,0-6.3v3.149a17.3,17.3,0,0,0,.3,3.149Zm0-12.546v3.1a6.238,6.238,0,0,0-2.207.42l-.486-1.941A15.249,15.249,0,0,1,37.268,4.149h18.6a7.085,7.085,0,1,1,0,14.169H54.274a3.914,3.914,0,0,1-1.239-7.628l.97-.323L53.01,7.379l-.97.324a7.048,7.048,0,0,0-4.83,6.7c0,.2.043.4.06.594A31.033,31.033,0,0,1,38.8,12.945L38.19,12.7a9.5,9.5,0,0,0-13.021,8.816Zm3.149,9.4v-9.4a6.349,6.349,0,0,1,8.7-5.894l.611.246a34.208,34.208,0,0,0,10.724,2.365,7.052,7.052,0,0,0,5.92,3.235h1.595c.266,0,.526-.02.787-.039v9.485a14.169,14.169,0,1,1-28.338,0ZM42.487,48.23a17.276,17.276,0,0,0,5.164-.787l.946,4.731-6.11,3.667-6.11-3.667.946-4.731A17.276,17.276,0,0,0,42.487,48.23Zm-8.16,6.386,4.629,2.777-3.7,1.48L32.8,54.921ZM29.892,95.461V92.312H64.528v3.149Zm34.636-6.3H29.892V67.122H64.528Zm20.588-31.54a18.608,18.608,0,0,1-14,6.351H29.892a3.152,3.152,0,0,0-3.149,3.149V86.015h-6.3v3.149h6.3v6.3h-6.3a6.3,6.3,0,0,1-6.3-6.3V68.92A12.523,12.523,0,0,1,24.217,56.639L29.5,55.581l4.471,7.2,8.372-3.349.14.083.14-.083,8.393,3.356,4.953-8.257H70.453a9.891,9.891,0,0,0,4.391-1.036,9.764,9.764,0,0,0,5.427-8.782v-7.5h9.446v8.163a18.6,18.6,0,0,1-4.6,12.25Z" transform="translate(4.743 -1)"/>
    <path id="Trazado_245600" data-name="Trazado 245600" d="M35.723,56.446A4.723,4.723,0,1,0,31,51.723,4.729,4.729,0,0,0,35.723,56.446Zm0-6.3a1.574,1.574,0,1,1-1.574,1.574A1.576,1.576,0,0,1,35.723,50.149Z" transform="translate(16.23 25.42)"/>
    <path id="Trazado_245601" data-name="Trazado 245601" d="M18.085,39.213a11.02,11.02,0,1,0-12.129,0l1.119,5.6a3.156,3.156,0,0,0,3.087,2.53h3.715a3.156,3.156,0,0,0,3.087-2.53ZM4.149,30.02a7.872,7.872,0,1,1,9.446,7.713V34.454a4.723,4.723,0,1,0-3.149,0v3.279A7.886,7.886,0,0,1,4.149,30.02Zm6.3,0a1.574,1.574,0,1,1,1.574,1.574A1.576,1.576,0,0,1,10.446,30.02Zm-.283,14.169L9.47,40.731a10.641,10.641,0,0,0,5.1,0l-.693,3.459Z" transform="translate(-1 9.338)"/>
    <path id="Trazado_245602" data-name="Trazado 245602" d="M7,13h3.149v6.3H7Z" transform="translate(2.446 5.892)"/>
    <path id="Trazado_245603" data-name="Trazado 245603" d="M0,0H3.149V6.3H0Z" transform="translate(1.742 21.052) rotate(-22.514)"/>
    <path id="Trazado_245604" data-name="Trazado 245604" d="M0,0H6.3V3.149H0Z" transform="translate(14.995 25.667) rotate(-67.486)"/>
  </g>
</svg>
