<svg xmlns="http://www.w3.org/2000/svg" width="106" height="106" viewBox="0 0 106 106">
  <g id="Grupo_949839" data-name="Grupo 949839" transform="translate(-421 -2618)">
    <rect id="Rect치ngulo_34429" data-name="Rect치ngulo 34429" width="106" height="106" transform="translate(421 2618)" fill="none"/>
    <g id="evaluacion_1_" data-name="evaluacion(1)" transform="translate(434.623 2625.361)">
      <path id="Trazado_245487" data-name="Trazado 245487" d="M61.538,39.3V12.054A6.054,6.054,0,0,0,55.484,6H7.054A6.054,6.054,0,0,0,1,12.054V75.619a6.054,6.054,0,0,0,6.054,6.054H34.629Z" transform="translate(0.513 3.09)" fill="#936155"/>
      <path id="Trazado_245488" data-name="Trazado 245488" d="M53.43,43.3V11.513A1.513,1.513,0,0,0,51.917,10H6.513A1.513,1.513,0,0,0,5,11.513V72.052a1.513,1.513,0,0,0,1.513,1.513H35.269Z" transform="translate(2.567 5.144)" fill="#fff"/>
      <path id="Trazado_245489" data-name="Trazado 245489" d="M36.215,8.57v6.054A1.513,1.513,0,0,1,34.7,16.137H13.513A1.513,1.513,0,0,1,12,14.624V8.57a1.513,1.513,0,0,1,1.513-1.513h3.178a7.567,7.567,0,0,1,14.832,0H34.7A1.513,1.513,0,0,1,36.215,8.57Z" transform="translate(6.161 0.52)" fill="#d4edf8"/>
      <path id="Trazado_245490" data-name="Trazado 245490" d="M70.983,74.917H29.506A6.6,6.6,0,0,1,24,64.826L44.738,31.1a6.437,6.437,0,0,1,11.009,0L76.481,64.826a6.6,6.6,0,0,1-5.5,10.092Z" transform="translate(11.811 14.386)" fill="#f2be3a"/>
      <rect id="Rect치ngulo_34430" data-name="Rect치ngulo 34430" width="6.054" height="19.675" rx="2" transform="translate(59.025 51.467)" fill="#fff"/>
      <circle id="Elipse_4837" data-name="Elipse 4837" cx="3.027" cy="3.027" r="3.027" transform="translate(59.025 77.195)" fill="#fff"/>
      <g id="Grupo_84015" data-name="Grupo 84015" transform="translate(0 0)">
        <path id="Trazado_245491" data-name="Trazado 245491" d="M75.315,55.209a1.513,1.513,0,1,0-2.573,1.583L87.011,80a5.1,5.1,0,0,1,.109,5.223,4.908,4.908,0,0,1-4.327,2.562H41.317A4.905,4.905,0,0,1,37,85.223,5.1,5.1,0,0,1,37.1,80L57.838,46.272a4.925,4.925,0,0,1,8.43,0l2.745,4.466a1.513,1.513,0,1,0,2.573-1.583l-2.748-4.471a7.937,7.937,0,0,0-5.273-3.658V15.138A7.576,7.576,0,0,0,56,7.57H43.469a3.016,3.016,0,0,0-2.606-1.513h-2.03a9.081,9.081,0,0,0-17.129,0h-2.03A3.016,3.016,0,0,0,17.069,7.57h-9.5A7.576,7.576,0,0,0,0,15.138V78.7A7.576,7.576,0,0,0,7.567,86.27H34.142c.07.142.126.289.2.428a7.9,7.9,0,0,0,6.971,4.112H82.8A7.9,7.9,0,0,0,89.763,86.7a8.089,8.089,0,0,0-.174-8.283ZM60.538,15.138V41.027A7.843,7.843,0,0,0,57.511,42.3V16.651a3.027,3.027,0,0,0-3.027-3.027H43.89V10.6H56a4.54,4.54,0,0,1,4.54,4.54ZM19.675,9.084h3.178a1.513,1.513,0,0,0,1.485-1.211,6.054,6.054,0,0,1,11.862,0,1.513,1.513,0,0,0,1.485,1.211h3.178v6.054H19.675Zm21.188,9.081a3.016,3.016,0,0,0,2.606-1.513H54.484v29.3L35.263,77.189H9.081V16.651h7.988a3.016,3.016,0,0,0,2.606,1.513ZM7.567,83.243a4.54,4.54,0,0,1-4.54-4.54V15.138a4.54,4.54,0,0,1,4.54-4.54h9.081v3.027H9.081a3.027,3.027,0,0,0-3.027,3.027V77.189a3.027,3.027,0,0,0,3.027,3.027H33.694a8.021,8.021,0,0,0-.371,3.027Z" transform="translate(0 0.006)"/>
        <path id="Trazado_245492" data-name="Trazado 245492" d="M47.081,37.54a4.54,4.54,0,1,0-9.081,0V51.161a4.54,4.54,0,0,0,9.081,0ZM44.054,51.161a1.513,1.513,0,0,1-3.027,0V37.54a1.513,1.513,0,0,1,3.027,0Z" transform="translate(19.511 16.953)"/>
        <path id="Trazado_245493" data-name="Trazado 245493" d="M42.54,50a4.54,4.54,0,1,0,4.54,4.54A4.54,4.54,0,0,0,42.54,50Zm0,6.054a1.513,1.513,0,1,1,1.513-1.513A1.513,1.513,0,0,1,42.54,56.054Z" transform="translate(19.511 25.682)"/>
        <path id="Trazado_245494" data-name="Trazado 245494" d="M20.513,20.027H40.188a1.513,1.513,0,0,0,0-3.027H20.513a1.513,1.513,0,0,0,0,3.027Z" transform="translate(9.756 8.738)"/>
        <path id="Trazado_245495" data-name="Trazado 245495" d="M20.513,24.027h9.081a1.513,1.513,0,0,0,0-3.027H20.513a1.513,1.513,0,0,0,0,3.027Z" transform="translate(9.756 10.792)"/>
        <path id="Trazado_245496" data-name="Trazado 245496" d="M20.513,31.027H40.188a1.513,1.513,0,0,0,0-3.027H20.513a1.513,1.513,0,0,0,0,3.027Z" transform="translate(9.756 14.386)"/>
        <path id="Trazado_245497" data-name="Trazado 245497" d="M20.513,35.027h9.081a1.513,1.513,0,0,0,0-3.027H20.513a1.513,1.513,0,0,0,0,3.027Z" transform="translate(9.756 16.44)"/>
        <path id="Trazado_245498" data-name="Trazado 245498" d="M20.513,42.027H31.108a1.513,1.513,0,1,0,0-3.027H20.513a1.513,1.513,0,0,0,0,3.027Z" transform="translate(9.756 20.034)"/>
        <path id="Trazado_245499" data-name="Trazado 245499" d="M20.513,46.027h6.054a1.513,1.513,0,0,0,0-3.027H20.513a1.513,1.513,0,0,0,0,3.027Z" transform="translate(9.756 22.088)"/>
        <path id="Trazado_245500" data-name="Trazado 245500" d="M9.443,24.524a1.513,1.513,0,0,0,0,2.14l3.027,3.027a1.513,1.513,0,0,0,1.07.443,1.451,1.451,0,0,0,.242-.02,1.513,1.513,0,0,0,1.112-.817L20.949,17.19a1.514,1.514,0,1,0-2.709-1.353L13.126,26.067l-1.542-1.542a1.513,1.513,0,0,0-2.14,0Z" transform="translate(4.621 7.711)"/>
        <path id="Trazado_245501" data-name="Trazado 245501" d="M20.271,26.159a1.513,1.513,0,0,0-2.031.678L13.126,37.067l-1.542-1.542a1.513,1.513,0,1,0-2.14,2.14l3.027,3.027a1.513,1.513,0,0,0,1.07.443,1.451,1.451,0,0,0,.242-.02,1.513,1.513,0,0,0,1.112-.817L20.949,28.19A1.513,1.513,0,0,0,20.271,26.159Z" transform="translate(4.621 13.359)"/>
        <path id="Trazado_245502" data-name="Trazado 245502" d="M20.271,37.154a1.513,1.513,0,0,0-2.031.678L13.126,48.062,11.583,46.52a1.513,1.513,0,1,0-2.14,2.14l3.027,3.027a1.513,1.513,0,0,0,1.07.451,1.451,1.451,0,0,0,.242-.02,1.513,1.513,0,0,0,1.112-.817l6.054-12.108a1.513,1.513,0,0,0-.678-2.039Z" transform="translate(4.621 19.004)"/>
      </g>
    </g>
  </g>
</svg>
