<svg xmlns="http://www.w3.org/2000/svg" width="106" height="106" viewBox="0 0 106 106">
  <g id="Grupo_949841" data-name="Grupo 949841" transform="translate(-421 -2618)">
    <rect id="Rectángulo_34429" data-name="Rectángulo 34429" width="106" height="106" transform="translate(421 2618)" fill="none"/>
    <g id="plan-de-accion_1_" data-name="plan-de-accion(1)" transform="translate(437.664 2625.4)">
      <path id="Trazado_245503" data-name="Trazado 245503" d="M73.441,35.969H138.27v44.1H73.441Z" transform="translate(-69.203 -29.582)" fill="#f9f6f9"/>
      <path id="Trazado_245504" data-name="Trazado 245504" d="M73.441,267.124H138.27v3.06H73.441Z" transform="translate(-69.203 -219.694)" fill="#dddaec"/>
      <path id="Trazado_245505" data-name="Trazado 245505" d="M73.441,35.969H138.27v3.06H73.441Z" transform="translate(-69.203 -29.582)" fill="#dddaec"/>
      <path id="Trazado_245506" data-name="Trazado 245506" d="M127.264,7.5H57.524a.451.451,0,0,0-.451.451V12.1a.451.451,0,0,0,.451.451h69.74a.451.451,0,0,0,.451-.451V7.951A.451.451,0,0,0,127.264,7.5Z" transform="translate(-55.741 -6.168)" fill="#365e7d"/>
      <path id="Trazado_245507" data-name="Trazado 245507" d="M127.264,284.359H57.524a.451.451,0,0,0-.451.451v4.154a.451.451,0,0,0,.451.451h69.74a.451.451,0,0,0,.451-.451V284.81A.451.451,0,0,0,127.264,284.359Z" transform="translate(-55.741 -233.869)" fill="#365e7d"/>
      <path id="Trazado_245508" data-name="Trazado 245508" d="M435.931,7.5h-3.553a.451.451,0,0,1,.451.451V12.1a.451.451,0,0,1-.451.451h3.553a.451.451,0,0,0,.451-.451V7.951A.451.451,0,0,0,435.931,7.5Z" transform="translate(-364.409 -6.168)" fill="#2b4d66"/>
      <path id="Trazado_245509" data-name="Trazado 245509" d="M435.931,284.359h-3.553a.451.451,0,0,1,.451.451v4.154a.451.451,0,0,1-.451.451h3.553a.451.451,0,0,0,.451-.451V284.81A.451.451,0,0,0,435.931,284.359Z" transform="translate(-364.409 -233.869)" fill="#2b4d66"/>
      <path id="Trazado_245510" data-name="Trazado 245510" d="M192.5,318.59H163.461a2.322,2.322,0,0,1-2.322-2.322v-3.441h33.686v3.441A2.322,2.322,0,0,1,192.5,318.59Z" transform="translate(-141.33 -257.283)" fill="#4a80aa"/>
      <path id="Trazado_245511" data-name="Trazado 245511" d="M316.782,312.827v3.441a2.322,2.322,0,0,1-2.322,2.322H318.6a2.322,2.322,0,0,0,2.322-2.322v-3.441Z" transform="translate(-267.428 -257.283)" fill="#407093"/>
      <g id="Grupo_84016" data-name="Grupo 84016" transform="translate(14.651 61.307)">
        <path id="Trazado_245512" data-name="Trazado 245512" d="M136.6,373.553h-3.181a1.329,1.329,0,0,1-1.244-1.8l9.976-26.472h6.022l-10.329,27.409a1.329,1.329,0,0,1-1.244.861Z" transform="translate(-132.085 -345.283)" fill="#365e7d"/>
        <path id="Trazado_245513" data-name="Trazado 245513" d="M300.9,373.553h3.181a1.329,1.329,0,0,0,1.244-1.8l-9.976-26.472h-6.022l10.329,27.409A1.329,1.329,0,0,0,300.9,373.553Z" transform="translate(-261.407 -345.283)" fill="#365e7d"/>
        <path id="Trazado_245514" data-name="Trazado 245514" d="M243.4,369.752h-3.124a1.289,1.289,0,0,1-1.289-1.289v-23.18h5.7v23.18A1.29,1.29,0,0,1,243.4,369.752Z" transform="translate(-220.008 -345.283)" fill="#365e7d"/>
      </g>
      <path id="Trazado_245515" data-name="Trazado 245515" d="M182.641,348.164h6.022l1.086-2.881h-6.022Z" transform="translate(-159.014 -283.976)" fill="#2b4d66"/>
      <path id="Trazado_245516" data-name="Trazado 245516" d="M295.348,345.283h-6.022l1.086,2.881h6.022Z" transform="translate(-246.756 -283.976)" fill="#2b4d66"/>
      <path id="Trazado_245517" data-name="Trazado 245517" d="M238.989,345.283h5.7v2.881h-5.7Z" transform="translate(-205.357 -283.976)" fill="#2b4d66"/>
      <g id="Grupo_84020" data-name="Grupo 84020" transform="translate(26.899 11.333)">
        <g id="Grupo_84017" data-name="Grupo 84017" transform="translate(0)">
          <path id="Trazado_245518" data-name="Trazado 245518" d="M219.167,72.343H202.478a1.409,1.409,0,0,1-1.409-1.409v-5.7a1.409,1.409,0,0,1,1.409-1.409h16.689a1.409,1.409,0,0,1,1.409,1.409v5.7A1.409,1.409,0,0,1,219.167,72.343Z" transform="translate(-201.069 -63.825)" fill="#dd636e"/>
          <path id="Trazado_245519" data-name="Trazado 245519" d="M283.756,63.825h-4.029a1.423,1.423,0,0,1,1.511,1.313V71.03a1.423,1.423,0,0,1-1.511,1.313h4.029a1.423,1.423,0,0,0,1.512-1.313V65.138A1.423,1.423,0,0,0,283.756,63.825Z" transform="translate(-265.761 -63.825)" fill="#da4a54"/>
        </g>
        <g id="Grupo_84018" data-name="Grupo 84018" transform="translate(0 12.846)">
          <path id="Trazado_245520" data-name="Trazado 245520" d="M219.167,144.694H202.478a1.409,1.409,0,0,1-1.409-1.409v-5.7a1.409,1.409,0,0,1,1.409-1.409h16.689a1.409,1.409,0,0,1,1.409,1.409v5.7A1.409,1.409,0,0,1,219.167,144.694Z" transform="translate(-201.069 -136.175)" fill="#dd636e"/>
          <path id="Trazado_245521" data-name="Trazado 245521" d="M283.756,136.176h-4.029a1.423,1.423,0,0,1,1.511,1.313v5.892a1.423,1.423,0,0,1-1.511,1.313h4.029a1.423,1.423,0,0,0,1.512-1.313v-5.892A1.423,1.423,0,0,0,283.756,136.176Z" transform="translate(-265.761 -136.176)" fill="#da4a54"/>
        </g>
        <g id="Grupo_84019" data-name="Grupo 84019" transform="translate(0 25.692)">
          <path id="Trazado_245522" data-name="Trazado 245522" d="M219.167,217.044H202.478a1.409,1.409,0,0,1-1.409-1.409v-5.7a1.409,1.409,0,0,1,1.409-1.409h16.689a1.409,1.409,0,0,1,1.409,1.409v5.7A1.409,1.409,0,0,1,219.167,217.044Z" transform="translate(-201.069 -208.525)" fill="#dd636e"/>
          <path id="Trazado_245523" data-name="Trazado 245523" d="M283.756,208.526h-4.029a1.423,1.423,0,0,1,1.511,1.313v5.892a1.423,1.423,0,0,1-1.511,1.313h4.029a1.423,1.423,0,0,0,1.512-1.313v-5.892A1.423,1.423,0,0,0,283.756,208.526Z" transform="translate(-265.761 -208.526)" fill="#da4a54"/>
        </g>
      </g>
      <g id="Grupo_84021" data-name="Grupo 84021" transform="translate(0 0)">
        <path id="Trazado_245524" data-name="Trazado 245524" d="M118.64,40.313a1.331,1.331,0,0,0,1.332-1.332V7.718H121.1a1.784,1.784,0,0,0,1.782-1.782V1.782A1.784,1.784,0,0,0,121.1,0H65.146a1.332,1.332,0,1,0,0,2.663h55.068V5.055H52.236V2.663h7.585a1.332,1.332,0,1,0,0-2.663H51.355a1.784,1.784,0,0,0-1.782,1.782V5.936a1.784,1.784,0,0,0,1.782,1.782h1.124v41.44H51.355a1.784,1.784,0,0,0-1.782,1.782v4.154a1.784,1.784,0,0,0,1.782,1.782h16.7v2.11A3.657,3.657,0,0,0,71.7,62.639h.657L68.02,74.159a1.332,1.332,0,1,0,2.492.939l4.7-12.459h3.176L68.735,88.245l-3.179,0,2.949-7.826a1.332,1.332,0,1,0-2.492-.939L63.064,87.31a2.661,2.661,0,0,0,2.49,3.6h3.181a2.674,2.674,0,0,0,2.49-1.723l10-26.547h.644V84.487a2.624,2.624,0,0,0,2.621,2.621h3.124a2.624,2.624,0,0,0,2.621-2.621V62.639h.982l10,26.547a2.674,2.674,0,0,0,2.49,1.723H106.9a2.661,2.661,0,0,0,2.49-3.6l-9.3-24.671h.657a3.657,3.657,0,0,0,3.653-3.653v-2.11h16.7a1.784,1.784,0,0,0,1.782-1.782V50.94a1.784,1.784,0,0,0-1.782-1.782h-1.124V44.306a1.332,1.332,0,1,0-2.663,0v4.852H55.143V7.718h62.165V38.982A1.332,1.332,0,0,0,118.64,40.313ZM87.576,84.445H84.537V62.639h3.039Zm19.321,3.8h-3.179l-9.65-25.607h3.176Zm-5.159-29.26a.991.991,0,0,1-.99.99H71.7a.991.991,0,0,1-.99-.99v-2.11h31.023Zm18.477-7.164v2.392H52.236V51.821Z" transform="translate(-49.573 0)"/>
        <path id="Trazado_245525" data-name="Trazado 245525" d="M215.739,59.066A2.744,2.744,0,0,0,213,56.325H196.31a2.744,2.744,0,0,0-2.741,2.741v5.7a2.744,2.744,0,0,0,2.741,2.741H213a2.744,2.744,0,0,0,2.741-2.741Zm-2.663,5.7a.077.077,0,0,1-.077.077H196.31a.077.077,0,0,1-.077-.077v-5.7a.077.077,0,0,1,.077-.077H213a.077.077,0,0,1,.077.077Z" transform="translate(-168.002 -46.324)"/>
        <path id="Trazado_245526" data-name="Trazado 245526" d="M215.739,131.416A2.744,2.744,0,0,0,213,128.675H196.31a2.744,2.744,0,0,0-2.741,2.741v5.7a2.744,2.744,0,0,0,2.741,2.741H213a2.744,2.744,0,0,0,2.741-2.741Zm-2.663,5.7a.077.077,0,0,1-.077.077H196.31a.077.077,0,0,1-.077-.077v-5.7a.077.077,0,0,1,.077-.077H213a.077.077,0,0,1,.077.077Z" transform="translate(-168.002 -105.828)"/>
        <path id="Trazado_245527" data-name="Trazado 245527" d="M213,201.026H196.311a2.744,2.744,0,0,0-2.741,2.741v5.7a2.744,2.744,0,0,0,2.741,2.741H213a2.744,2.744,0,0,0,2.741-2.741v-5.7A2.744,2.744,0,0,0,213,201.026Zm.077,8.441a.077.077,0,0,1-.077.077H196.31a.077.077,0,0,1-.077-.077v-5.7a.077.077,0,0,1,.077-.077H213a.077.077,0,0,1,.077.077Z" transform="translate(-168.002 -165.333)"/>
        <path id="Trazado_245528" data-name="Trazado 245528" d="M130.582,110.763a1.332,1.332,0,0,0,1.875-.176l1.988-2.4a1.332,1.332,0,0,0,0-1.7l-1.988-2.4a1.332,1.332,0,0,0-2.051,1.7l.181.219h-4.176V82.976h6.014a1.332,1.332,0,1,0,0-2.663h-6.2a2.477,2.477,0,0,0-2.474,2.474v23.407a2.477,2.477,0,0,0,2.474,2.475h4.364l-.181.219A1.332,1.332,0,0,0,130.582,110.763Z" transform="translate(-110.578 -66.053)"/>
        <path id="Trazado_245529" data-name="Trazado 245529" d="M328.608,98.4a1.332,1.332,0,1,0,0,2.663h6.2a2.477,2.477,0,0,0,2.475-2.475V75.186a2.477,2.477,0,0,0-2.475-2.474h-4.365l.181-.219a1.332,1.332,0,0,0-2.051-1.7l-1.988,2.4a1.332,1.332,0,0,0,0,1.7l1.988,2.4a1.332,1.332,0,0,0,2.051-1.7l-.181-.219h4.176V98.4Z" transform="translate(-277.151 -57.828)"/>
      </g>
    </g>
  </g>
</svg>
