<svg xmlns="http://www.w3.org/2000/svg" width="106" height="106" viewBox="0 0 106 106">
  <g id="Grupo_949846" data-name="Grupo 949846" transform="translate(-421 -2618)">
    <rect id="Rectángulo_34429" data-name="Rectángulo 34429" width="106" height="106" transform="translate(421 2618)" fill="none"/>
    <g id="verificado_1_" data-name="verificado(1)" transform="translate(429.386 2625.143)">
      <g id="Grupo_84022" data-name="Grupo 84022" transform="translate(1.364 1.364)">
        <path id="Trazado_245530" data-name="Trazado 245530" d="M130.777,7.5v4.756l-13.505.915-14.338-.915V7.5Z" transform="translate(-87.213 -7.5)" fill="#7ca1b1"/>
        <path id="Trazado_245531" data-name="Trazado 245531" d="M224.7,7.5v4.754l-5.822.364V8.635A1.136,1.136,0,0,0,217.737,7.5H224.7Z" transform="translate(-181.131 -7.5)" fill="#678d98"/>
        <path id="Trazado_245532" data-name="Trazado 245532" d="M75.805,39.147v73.211a5.506,5.506,0,0,1-5.507,5.507H22.032a5.508,5.508,0,0,1-5.509-5.507V39.147a5.508,5.508,0,0,1,5.509-5.507h2.906l21.228,1.4L66.9,33.64h3.4a5.506,5.506,0,0,1,5.507,5.507Z" transform="translate(-16.523 -28.884)" fill="#5986cb"/>
        <path id="Trazado_245533" data-name="Trazado 245533" d="M302.35,39.143v73.211a5.506,5.506,0,0,1-5.507,5.507h-3.4a5.506,5.506,0,0,0,5.507-5.507V39.143c0-5.7-4.876-5.507-4.876-5.507h2.765A5.506,5.506,0,0,1,302.35,39.143Z" transform="translate(-243.067 -28.881)" fill="#4278c3"/>
        <path id="Trazado_245534" data-name="Trazado 245534" d="M95.074,36.405v69.454a2.765,2.765,0,0,1-2.765,2.765H49.572a2.764,2.764,0,0,1-2.765-2.765V36.405a2.765,2.765,0,0,1,2.765-2.765H92.308A2.767,2.767,0,0,1,95.074,36.405Z" transform="translate(-41.298 -28.884)" fill="#c8effe"/>
        <path id="Trazado_245535" data-name="Trazado 245535" d="M277.742,36.405v69.454a2.765,2.765,0,0,1-2.765,2.765H270.1a2.764,2.764,0,0,0,2.765-2.765V36.405A2.765,2.765,0,0,0,270.1,33.64h4.879A2.767,2.767,0,0,1,277.742,36.405Z" transform="translate(-223.965 -28.884)" fill="#99e6fc"/>
        <path id="Trazado_245536" data-name="Trazado 245536" d="M85.9,108.658h34.873v5.458H85.9Z" transform="translate(-73.282 -90.255)" fill="#7ca1b1"/>
        <path id="Trazado_245537" data-name="Trazado 245537" d="M253.408,155.674l-35.828-9.6a1.9,1.9,0,0,0-2.33,1.345l-13.883,51.814a1.9,1.9,0,0,0,1.345,2.33l35.828,9.6a1.9,1.9,0,0,0,2.33-1.345L254.753,158A1.9,1.9,0,0,0,253.408,155.674Z" transform="translate(-167.685 -120.81)" fill="#99e6fc"/>
        <path id="Trazado_245538" data-name="Trazado 245538" d="M230.08,115.272,216.2,167.085a1.9,1.9,0,0,1-2.329,1.346l-35.829-9.6a1.9,1.9,0,0,1-1.346-2.331l13.883-51.813a1.9,1.9,0,0,1,2.331-1.346l35.829,9.6A1.9,1.9,0,0,1,230.08,115.272Z" transform="translate(-147.501 -85.852)" fill="#eaf6ff"/>
        <path id="Trazado_245539" data-name="Trazado 245539" d="M371.72,151.842l-13.883,51.814A1.9,1.9,0,0,1,355.509,205l-5.742-1.539a1.9,1.9,0,0,0,2.331-1.346l13.883-51.812a1.9,1.9,0,0,0-1.328-2.325l5.723,1.534A1.9,1.9,0,0,1,371.72,151.842Z" transform="translate(-289.141 -122.423)" fill="#c8effe"/>
        <circle id="Elipse_4838" data-name="Elipse 4838" cx="13.41" cy="13.41" r="13.41" transform="translate(40.132 45.371)" fill="#46cc8d"/>
        <path id="Trazado_245540" data-name="Trazado 245540" d="M0,0H26.821V10.76H0Z" transform="translate(48.607 25.393) rotate(15.009)" fill="#5986cb"/>
      </g>
      <g id="Grupo_84023" data-name="Grupo 84023" transform="translate(0 0)">
        <path id="Trazado_245541" data-name="Trazado 245541" d="M79.766,183.377h7.609a1.364,1.364,0,1,0,0-2.729H79.766a1.364,1.364,0,1,0,0,2.729Z" transform="translate(-65.781 -147.784)"/>
        <path id="Trazado_245542" data-name="Trazado 245542" d="M87.375,378.611H79.766a1.364,1.364,0,1,0,0,2.729h7.609a1.364,1.364,0,1,0,0-2.729Z" transform="translate(-65.781 -309.732)"/>
        <path id="Trazado_245543" data-name="Trazado 245543" d="M98.449,36.432a3.245,3.245,0,0,0-1.984-1.522l-2.976-.8.8-2.975a3.308,3.308,0,0,0-2.309-4L71.037,21.525v-9.9a6.88,6.88,0,0,0-6.872-6.872H55.318V1.364A1.364,1.364,0,0,0,53.954,0H26.109a1.364,1.364,0,0,0-1.364,1.364V4.756H15.9a6.88,6.88,0,0,0-6.872,6.872V70.89a1.364,1.364,0,0,0,2.729,0V11.627A4.15,4.15,0,0,1,14.72,7.656a4.119,4.119,0,0,0-.187,1.23V78.34a4.135,4.135,0,0,0,4.13,4.13H43.49a3.244,3.244,0,0,0,1.573.964l20.172,5.405a4.159,4.159,0,0,1-1.07.141H15.9a4.148,4.148,0,0,1-4.143-4.143V77.318a1.364,1.364,0,1,0-2.729,0v7.518A6.88,6.88,0,0,0,15.9,91.709H64.165a6.836,6.836,0,0,0,4.73-1.889l12,3.214a3.266,3.266,0,0,0,4-2.31L98.775,38.911a3.244,3.244,0,0,0-.326-2.479ZM91.6,30.022a.537.537,0,0,1,.053.409L77.767,82.244a.539.539,0,0,1-.658.381l-35.829-9.6a.539.539,0,0,1-.381-.659L54.783,20.553a.565.565,0,0,1,.659-.381l35.829,9.6a.533.533,0,0,1,.325.25ZM51.071,23.861h-26.7V21.132H51.8ZM27.474,2.729H52.589V4.756H27.474Zm3.677,4.756h17.76V8.677a3.141,3.141,0,0,1-3.137,3.137H34.288a3.141,3.141,0,0,1-3.137-3.137ZM17.262,78.34V8.885a1.4,1.4,0,0,1,1.4-1.4h9.759V8.677a5.873,5.873,0,0,0,5.866,5.866H45.774A5.873,5.873,0,0,0,51.64,8.677V7.484H61.4a1.4,1.4,0,0,1,1.4,1.4v5.547a1.364,1.364,0,1,0,2.729,0V8.885a4.113,4.113,0,0,0-.187-1.23,4.15,4.15,0,0,1,2.966,3.972v9.167L56.149,17.536a3.293,3.293,0,0,0-3.175.867H23.012a1.364,1.364,0,0,0-1.364,1.364v5.458a1.364,1.364,0,0,0,1.364,1.364H50.34L46.246,41.868H23.012a1.364,1.364,0,1,0,0,2.729h22.5l-1.681,6.275H23.012a1.364,1.364,0,1,0,0,2.729H43.1l-1.681,6.275H23.012a1.364,1.364,0,0,0,0,2.729H40.69l-2.426,9.055a3.271,3.271,0,0,0,2.31,4l2.976.8-.8,2.975c-.027.1-.049.205-.066.307H18.663a1.4,1.4,0,0,1-1.4-1.4ZM96.139,38.2,82.256,90.018a.538.538,0,0,1-.659.38L45.769,80.8a.538.538,0,0,1-.38-.659l.8-2.975,30.217,8.1a3.265,3.265,0,0,0,4-2.311l12.38-46.2,2.976.8a.544.544,0,0,1,.38.659Z" transform="translate(-9.026 0)"/>
        <path id="Trazado_245544" data-name="Trazado 245544" d="M258.319,258.861a1.382,1.382,0,0,0-1.934-.64l-12.05,6.957-3.728-6.457a1.364,1.364,0,1,0-2.363,1.364l4.41,7.639a1.393,1.393,0,0,0,1.864.5l11.763-6.791a12.043,12.043,0,1,1-3.856-6.292,1.364,1.364,0,1,0,1.78-2.069,14.776,14.776,0,1,0-2.242,24.005C258.08,273.545,261.179,265.493,258.319,258.861Z" transform="translate(-189.67 -204.135)"/>
        <path id="Trazado_245545" data-name="Trazado 245545" d="M261.085,151.954a1.365,1.365,0,0,0,.828.636l25.907,6.942a1.392,1.392,0,0,0,1.671-.965l2.785-10.393a1.377,1.377,0,0,0-.965-1.671L265.4,139.561a1.365,1.365,0,0,0-1.671.965l-2.785,10.393A1.364,1.364,0,0,0,261.085,151.954Zm4.931-9.4,23.271,6.235-2.079,7.757-23.271-6.235Z" transform="translate(-215.079 -114.133)"/>
      </g>
    </g>
  </g>
</svg>
