<svg xmlns="http://www.w3.org/2000/svg" width="106" height="106" viewBox="0 0 106 106">
  <g id="Grupo_949838" data-name="Grupo 949838" transform="translate(-421.54 -2618.54)">
    <rect id="Rectángulo_34429" data-name="Rectángulo 34429" width="106" height="106" transform="translate(421.54 2618.54)" fill="none"/>
    <g id="descubrir" transform="translate(429.688 2626.197)">
      <g id="Filled_14_" transform="translate(1.308 1.308)">
        <path id="Trazado_245454" data-name="Trazado 245454" d="M0,0H6.977V6.977H0Z" transform="translate(44.993 49.937) rotate(-45)" fill="#c8d1da"/>
        <circle id="Elipse_4835" data-name="Elipse 4835" cx="27.908" cy="27.908" r="27.908" fill="#757575"/>
        <circle id="Elipse_4836" data-name="Elipse 4836" cx="22.675" cy="22.675" r="22.675" transform="translate(5.233 5.233)" fill="#c8d1da"/>
        <path id="Trazado_245455" data-name="Trazado 245455" d="M60.175,172.559A22.707,22.707,0,0,1,37.652,152.5a22.675,22.675,0,1,0,45.047,0A22.707,22.707,0,0,1,60.175,172.559Z" transform="translate(-32.267 -127.209)" fill="#92a2b5"/>
        <path id="Trazado_245456" data-name="Trazado 245456" d="M107.5,161.454l13.954-6.977-6.977-6.977Z" transform="translate(-90.058 -123.081)" fill="#bdedd4"/>
        <path id="Trazado_245457" data-name="Trazado 245457" d="M147.5,114.477l6.977,6.977,6.977-13.954Z" transform="translate(-123.081 -90.058)" fill="#fcf5be"/>
        <path id="Trazado_245458" data-name="Trazado 245458" d="M316.653,316.653a6.977,6.977,0,0,1-9.867,0l-27.134-27.134,9.867-9.867,27.134,27.134a6.977,6.977,0,0,1,0,9.867Z" transform="translate(-232.182 -232.182)" fill="#ed9c87"/>
        <path id="Trazado_245459" data-name="Trazado 245459" d="M318.558,341.229a6.977,6.977,0,0,1-9.867,0l-25.47-25.47-3.569,3.569,27.134,27.134a6.975,6.975,0,0,0,11.9-5.362C318.641,341.143,318.6,341.187,318.558,341.229Z" transform="translate(-232.182 -261.991)" fill="#e46a4a"/>
      </g>
      <g id="Grupo_84014" data-name="Grupo 84014" transform="translate(10.465 10.465)">
        <path id="Trazado_245460" data-name="Trazado 245460" d="M160,60h2.616v2.616H160Z" transform="translate(-142.558 -60)" fill="#fff"/>
        <path id="Trazado_245461" data-name="Trazado 245461" d="M160,260h2.616v2.616H160Z" transform="translate(-142.558 -225.115)" fill="#fff"/>
        <path id="Trazado_245462" data-name="Trazado 245462" d="M60,160h2.616v2.616H60Z" transform="translate(-60 -142.558)" fill="#fff"/>
        <path id="Trazado_245463" data-name="Trazado 245463" d="M260,160h2.616v2.616H260Z" transform="translate(-225.115 -142.558)" fill="#fff"/>
        <path id="Trazado_245464" data-name="Trazado 245464" d="M0,0H2.616V2.616H0Z" transform="translate(69.499 71.372) rotate(-45)" fill="#fff"/>
        <path id="Trazado_245465" data-name="Trazado 245465" d="M0,0H2.616V2.616H0Z" transform="translate(65.8 67.672) rotate(-45)" fill="#fff"/>
      </g>
      <g id="Outline_14_" transform="translate(0 0)">
        <path id="Trazado_245466" data-name="Trazado 245466" d="M83.654,2.616a26.738,26.738,0,0,1,25.53,19.108l2.511-.736A29.434,29.434,0,0,0,101.323,5.946a29.223,29.223,0,0,0-35.383.035l1.588,2.079A26.355,26.355,0,0,1,83.654,2.616Z" transform="translate(-54.438 0)"/>
        <path id="Trazado_245467" data-name="Trazado 245467" d="M2.616,65.858a26.681,26.681,0,0,1,8.564-19.552L9.406,44.384a29.221,29.221,0,0,0,6.843,47.662L17.412,89.7a26.462,26.462,0,0,1-14.8-23.844Z" transform="translate(0 -36.642)"/>
        <path id="Trazado_245468" data-name="Trazado 245468" d="M53.983,30A23.983,23.983,0,1,0,77.967,53.983,24.011,24.011,0,0,0,53.983,30Zm0,45.35A21.367,21.367,0,1,1,75.35,53.983,21.391,21.391,0,0,1,53.983,75.35Z" transform="translate(-24.767 -24.767)"/>
        <path id="Trazado_245469" data-name="Trazado 245469" d="M90.729,117.511l17.854-8.927L117.51,90.73,99.656,99.657ZM111.66,96.58l-4.41,8.82-4.41-4.41Zm-6.26,10.67-8.82,4.41,4.41-8.82Z" transform="translate(-74.904 -74.905)"/>
        <path id="Trazado_245470" data-name="Trazado 245470" d="M175.485,186.924l-13.3-13.3-1.85,1.85,13.3,13.3a5.669,5.669,0,1,1-8.017,8.017l-22.509-22.509,8.017-8.017,7.358,7.358,1.85-1.85-12.908-12.908-2.467,2.467-3.2-3.2a29.055,29.055,0,0,0,5.454-16.979,29.449,29.449,0,0,0-.53-5.567l-2.569.5A26.625,26.625,0,0,1,118,167.752,26.486,26.486,0,0,1,108.475,166l-.937,2.443a29.219,29.219,0,0,0,27.437-3.526l3.2,3.2-2.467,2.467,28.059,28.059a8.285,8.285,0,0,0,11.717-11.717Zm-38.438-23.638a29.487,29.487,0,0,0,3.083-3.083l2.979,2.979-3.083,3.083Zm2.362,7.3,8.017-8.017,1.85,1.85-8.017,8.017Z" transform="translate(-88.781 -111.937)"/>
        <path id="Trazado_245471" data-name="Trazado 245471" d="M52,341h2.616v2.616H52Z" transform="translate(-42.93 -281.521)"/>
        <path id="Trazado_245472" data-name="Trazado 245472" d="M52,391h2.616v2.616H52Z" transform="translate(-42.93 -322.8)"/>
        <path id="Trazado_245473" data-name="Trazado 245473" d="M77,366h2.616v2.616H77Z" transform="translate(-63.569 -302.161)"/>
        <path id="Trazado_245474" data-name="Trazado 245474" d="M27,366h2.616v2.616H27Z" transform="translate(-22.291 -302.161)"/>
        <path id="Trazado_245475" data-name="Trazado 245475" d="M202,371h2.616v2.616H202Z" transform="translate(-166.766 -306.289)"/>
        <path id="Trazado_245476" data-name="Trazado 245476" d="M202,421h2.616v2.616H202Z" transform="translate(-166.766 -347.568)"/>
        <path id="Trazado_245477" data-name="Trazado 245477" d="M227,396h2.616v2.616H227Z" transform="translate(-187.406 -326.928)"/>
        <path id="Trazado_245478" data-name="Trazado 245478" d="M177,396h2.616v2.616H177Z" transform="translate(-146.127 -326.928)"/>
        <path id="Trazado_245479" data-name="Trazado 245479" d="M341,52h2.616v2.616H341Z" transform="translate(-281.521 -42.93)"/>
        <path id="Trazado_245480" data-name="Trazado 245480" d="M391,52h2.616v2.616H391Z" transform="translate(-322.8 -42.93)"/>
        <path id="Trazado_245481" data-name="Trazado 245481" d="M366,77h2.616v2.616H366Z" transform="translate(-302.161 -63.569)"/>
        <path id="Trazado_245482" data-name="Trazado 245482" d="M366,27h2.616v2.616H366Z" transform="translate(-302.161 -22.291)"/>
        <path id="Trazado_245483" data-name="Trazado 245483" d="M371,202h2.616v2.616H371Z" transform="translate(-306.289 -166.766)"/>
        <path id="Trazado_245484" data-name="Trazado 245484" d="M421,202h2.616v2.616H421Z" transform="translate(-347.568 -166.766)"/>
        <path id="Trazado_245485" data-name="Trazado 245485" d="M396,227h2.616v2.616H396Z" transform="translate(-326.928 -187.406)"/>
        <path id="Trazado_245486" data-name="Trazado 245486" d="M396,177h2.616v2.616H396Z" transform="translate(-326.928 -146.127)"/>
      </g>
    </g>
  </g>
</svg>
