<svg xmlns="http://www.w3.org/2000/svg" width="1030" height="1022" viewBox="0 0 1030 1022">
  <g id="Grupo_950136" data-name="Grupo 950136" transform="translate(-285.333 -516)">
    <line id="Línea_235" data-name="Línea 235" y2="219" transform="translate(799.833 582.5)" fill="none" stroke="#583ae2" stroke-width="3"/>
    <line id="Línea_236" data-name="Línea 236" y2="557" transform="translate(799.833 857.5)" fill="none" stroke="#583ae2" stroke-width="3"/>
    <line id="Línea_243" data-name="Línea 243" y2="77" transform="translate(437.833 947.5)" fill="none" stroke="#583ae2" stroke-width="3"/>
    <line id="Línea_242" data-name="Línea 242" x2="484" transform="translate(550.833 1037.5)" fill="none" stroke="#583ae2" stroke-width="3"/>
    <line id="Línea_247" data-name="Línea 247" x2="840" transform="translate(380.833 1414.5)" fill="none" stroke="#583ae2" stroke-width="3"/>
    <line id="Línea_244" data-name="Línea 244" x2="362" transform="translate(437.833 949)" fill="none" stroke="#583ae2" stroke-width="3"/>
    <g id="Grupo_949555" data-name="Grupo 949555" transform="translate(437.833 1070)">
      <line id="Línea_245" data-name="Línea 245" y1="77" fill="none" stroke="#583ae2" stroke-width="3"/>
      <line id="Línea_246" data-name="Línea 246" x2="362" transform="translate(0 75.5)" fill="none" stroke="#583ae2" stroke-width="3"/>
    </g>
    <g id="Grupo_949556" data-name="Grupo 949556" transform="translate(799.833 1070)">
      <line id="Línea_245-2" data-name="Línea 245" y1="77" transform="translate(362)" fill="none" stroke="#583ae2" stroke-width="3"/>
      <line id="Línea_246-2" data-name="Línea 246" x1="362" transform="translate(0 75.5)" fill="none" stroke="#583ae2" stroke-width="3"/>
    </g>
    <rect id="Rectángulo_34146" data-name="Rectángulo 34146" width="610" height="66" rx="33" transform="translate(495.333 516)" fill="#583ae2"/>
    <rect id="Rectángulo_34147" data-name="Rectángulo 34147" width="400" height="66" rx="20" transform="translate(600.333 643)" fill="#d5cef8"/>
    <rect id="Rectángulo_42178" data-name="Rectángulo 42178" width="400" height="66" rx="20" transform="translate(600.333 802)" fill="#d5cef8"/>
    <rect id="Rectángulo_42179" data-name="Rectángulo 42179" width="295" height="65" rx="20" transform="translate(652.333 1005)" fill="#ab9df1"/>
    <rect id="Rectángulo_42182" data-name="Rectángulo 42182" width="295" height="65" rx="20" transform="translate(652.333 1237)" fill="#ab9df1"/>
    <rect id="Rectángulo_42181" data-name="Rectángulo 42181" width="295" height="65" rx="20" transform="translate(1020.333 1005)" fill="#ab9df1"/>
    <rect id="Rectángulo_42180" data-name="Rectángulo 42180" width="295" height="65" rx="20" transform="translate(285.333 1005)" fill="#ab9df1"/>
    <path id="Trazado_635181" data-name="Trazado 635181" d="M-293.188-10.7V0h-4.238V-10.7h-3.916V-14h12.119v3.3Zm12.783,4.268a3.233,3.233,0,0,0-.635-.2,3.212,3.212,0,0,0-.664-.088q-2.061,0-2.061,2.383V0h-4.16V-10h4.16v1.758h.039a3.123,3.123,0,0,1,1.084-1.44A2.785,2.785,0,0,1-281-10.176a1.409,1.409,0,0,1,.6.117ZM-273.657,0V-1.523h-.039A3.272,3.272,0,0,1-276.743.244,2.917,2.917,0,0,1-278.96-.6a3.12,3.12,0,0,1-.8-2.246q0-2.949,3.623-3.418l2.48-.322a.946.946,0,0,0-.439-.8,2,2,0,0,0-1.182-.312,7.783,7.783,0,0,0-3.545.957V-9.443a9.484,9.484,0,0,1,2.031-.576,11.822,11.822,0,0,1,2.09-.225,5.247,5.247,0,0,1,3.7,1.089,4.853,4.853,0,0,1,1.147,3.638V0Zm-2.461-3.4a.922.922,0,0,0,.259.674.987.987,0,0,0,.737.264,1.311,1.311,0,0,0,1.06-.488,1.892,1.892,0,0,0,.405-1.25V-4.58l-1.406.2Q-276.118-4.209-276.118-3.4Zm15.176,3.262a4.053,4.053,0,0,1-.928.259,8.482,8.482,0,0,1-1.553.122,3.73,3.73,0,0,1-2.72-.957,3.632,3.632,0,0,1-.981-2.725V-7.119H-268.7V-10h1.572v-1.963l4.1-1.133V-10h2.08v2.881h-2.08v3q0,1.318,1.045,1.318a2.835,2.835,0,0,0,1.035-.215ZM-254.1,0V-1.523h-.039A3.272,3.272,0,0,1-257.183.244,2.917,2.917,0,0,1-259.4-.6a3.12,3.12,0,0,1-.8-2.246q0-2.949,3.623-3.418l2.48-.322a.946.946,0,0,0-.439-.8,2,2,0,0,0-1.182-.312,7.783,7.783,0,0,0-3.545.957V-9.443a9.484,9.484,0,0,1,2.031-.576,11.822,11.822,0,0,1,2.09-.225,5.247,5.247,0,0,1,3.7,1.089A4.853,4.853,0,0,1-250.3-5.518V0Zm-2.461-3.4a.922.922,0,0,0,.259.674.987.987,0,0,0,.737.264,1.311,1.311,0,0,0,1.06-.488A1.892,1.892,0,0,0-254.1-4.2V-4.58l-1.406.2Q-256.558-4.209-256.558-3.4Zm21.1,3.4V-5.762a1.838,1.838,0,0,0-.259-1.079.973.973,0,0,0-.845-.356,1.055,1.055,0,0,0-.9.435,1.989,1.989,0,0,0-.322,1.206V0h-4.16V-5.664q0-1.533-1.045-1.533a1.106,1.106,0,0,0-.957.444,2.148,2.148,0,0,0-.322,1.274V0h-4.16V-10h4.16v1.582h.039a3.224,3.224,0,0,1,.747-.854,4.385,4.385,0,0,1,1.157-.7,3.6,3.6,0,0,1,1.4-.269,3.535,3.535,0,0,1,1.792.42A3.256,3.256,0,0,1-237.915-8.5a3.564,3.564,0,0,1,1.406-1.294,4.191,4.191,0,0,1,1.953-.454,2.939,2.939,0,0,1,2.412,1.025,4.566,4.566,0,0,1,.84,2.959V0Zm10.439-12.7a1.787,1.787,0,0,1-.64,1.426,2.5,2.5,0,0,1-1.685.547A2.441,2.441,0,0,1-229-11.289a1.791,1.791,0,0,1-.649-1.406,1.734,1.734,0,0,1,.63-1.392,2.524,2.524,0,0,1,1.685-.532,2.548,2.548,0,0,1,1.685.532A1.723,1.723,0,0,1-225.015-12.7Zm-4.4,12.7V-10h4.16V0Zm9.746-3.818a1.405,1.405,0,0,0,.742,1.011,3.347,3.347,0,0,0,1.68.366A6.917,6.917,0,0,0-214.5-3V-.361a9.9,9.9,0,0,1-3.672.605,5.794,5.794,0,0,1-4.072-1.338A4.753,4.753,0,0,1-223.7-4.775a6.074,6.074,0,0,1,.64-2.842,4.6,4.6,0,0,1,1.895-1.929,5.6,5.6,0,0,1,2.769-.7,5.447,5.447,0,0,1,2.656.605,4.033,4.033,0,0,1,1.675,1.7,5.452,5.452,0,0,1,.571,2.559v1.563Zm2.5-2.178q0-1.729-1.24-1.729a1.049,1.049,0,0,0-.869.474A2.364,2.364,0,0,0-219.692-6Zm11.6,6V-5.459a2.427,2.427,0,0,0-.278-1.333,1.017,1.017,0,0,0-.9-.405.978.978,0,0,0-.84.42,1.792,1.792,0,0,0-.3,1.074V0h-4.16V-10h4.16v1.563h.039a3.53,3.53,0,0,1,1.338-1.333,3.655,3.655,0,0,1,1.826-.474q3.281,0,3.281,4.141V0ZM-192.5-.137a4.053,4.053,0,0,1-.928.259,8.482,8.482,0,0,1-1.553.122,3.73,3.73,0,0,1-2.72-.957,3.632,3.632,0,0,1-.981-2.725V-7.119h-1.572V-10h1.572v-1.963l4.1-1.133V-10h2.08v2.881h-2.08v3q0,1.318,1.045,1.318a2.835,2.835,0,0,0,1.035-.215Zm12.422-5.039A5.207,5.207,0,0,1-181.6-1.2,5.972,5.972,0,0,1-185.874.244a6,6,0,0,1-4.243-1.411,5.051,5.051,0,0,1-1.519-3.892,5.214,5.214,0,0,1,.713-2.764,4.636,4.636,0,0,1,2.031-1.8,7.012,7.012,0,0,1,3.037-.625,6.792,6.792,0,0,1,3.081.654,4.763,4.763,0,0,1,2,1.816A4.946,4.946,0,0,1-180.073-5.176Zm-4.219.02q0-2.041-1.562-2.041t-1.562,2.139q0,2.256,1.582,2.256Q-184.292-2.8-184.292-5.156ZM-166.284,0V-1.162h-.039a3.433,3.433,0,0,1-1.3,1.03A3.7,3.7,0,0,1-169.2.244a4.07,4.07,0,0,1-2.256-.63,3.825,3.825,0,0,1-1.46-1.763,6.784,6.784,0,0,1-.483-2.676,6.583,6.583,0,0,1,.576-2.822,4.51,4.51,0,0,1,1.621-1.914,4.188,4.188,0,0,1,2.344-.684,3.547,3.547,0,0,1,1.138.176,3.078,3.078,0,0,1,.908.474,1.414,1.414,0,0,1,.493.591h.039v-5.8h4.16V0Zm.088-5.3a2.194,2.194,0,0,0-.4-1.4,1.294,1.294,0,0,0-1.069-.5,1.283,1.283,0,0,0-1.1.62,2.881,2.881,0,0,0-.425,1.655q0,2.119,1.465,2.119a1.3,1.3,0,0,0,1.108-.571,2.812,2.812,0,0,0,.415-1.665Zm9.658,1.484a1.405,1.405,0,0,0,.742,1.011,3.347,3.347,0,0,0,1.68.366A6.917,6.917,0,0,0-151.362-3V-.361a9.9,9.9,0,0,1-3.672.605,5.794,5.794,0,0,1-4.072-1.338,4.753,4.753,0,0,1-1.455-3.682,6.074,6.074,0,0,1,.64-2.842,4.6,4.6,0,0,1,1.895-1.929,5.6,5.6,0,0,1,2.769-.7,5.447,5.447,0,0,1,2.656.605,4.033,4.033,0,0,1,1.675,1.7,5.452,5.452,0,0,1,.571,2.559v1.563Zm2.5-2.178q0-1.729-1.24-1.729a1.049,1.049,0,0,0-.869.474A2.364,2.364,0,0,0-156.558-6Zm10.674,6V-14.8h4.16V0Zm17.285-5.176A5.207,5.207,0,0,1-127.607-1.2,5.972,5.972,0,0,1-131.88.244a6,6,0,0,1-4.243-1.411,5.051,5.051,0,0,1-1.519-3.892,5.214,5.214,0,0,1,.713-2.764,4.636,4.636,0,0,1,2.031-1.8,7.012,7.012,0,0,1,3.037-.625,6.792,6.792,0,0,1,3.081.654,4.763,4.763,0,0,1,2,1.816A4.946,4.946,0,0,1-126.079-5.176Zm-4.219.02q0-2.041-1.562-2.041t-1.562,2.139q0,2.256,1.582,2.256Q-130.3-2.8-130.3-5.156Zm13.9,1.836A3.054,3.054,0,0,1-117.7-.688,6.082,6.082,0,0,1-121.3.244a12.546,12.546,0,0,1-1.665-.137,10.286,10.286,0,0,1-1.616-.332v-2.92a7.958,7.958,0,0,0,3.086.82q1.221,0,1.221-.635a.5.5,0,0,0-.283-.435,10.01,10.01,0,0,0-1.484-.571,4.192,4.192,0,0,1-1.934-1.113,2.647,2.647,0,0,1-.605-1.807,2.883,2.883,0,0,1,1.235-2.456,5.8,5.8,0,0,1,3.472-.9,11.035,11.035,0,0,1,2.773.381v2.8a8.387,8.387,0,0,0-1.348-.439,5.443,5.443,0,0,0-1.23-.176,1.339,1.339,0,0,0-.654.137.421.421,0,0,0-.244.381.531.531,0,0,0,.264.459,4.664,4.664,0,0,0,1.055.42,4.894,4.894,0,0,1,2.2,1.152A2.525,2.525,0,0,1-116.4-3.32Zm11.494-9.375a1.787,1.787,0,0,1-.64,1.426,2.5,2.5,0,0,1-1.685.547,2.441,2.441,0,0,1-1.665-.566,1.791,1.791,0,0,1-.649-1.406,1.734,1.734,0,0,1,.63-1.392,2.524,2.524,0,0,1,1.685-.532,2.548,2.548,0,0,1,1.685.532A1.723,1.723,0,0,1-104.907-12.7Zm-4.4,12.7V-10h4.16V0Zm12.646,0V-5.459a2.427,2.427,0,0,0-.278-1.333,1.017,1.017,0,0,0-.9-.405.978.978,0,0,0-.84.42,1.792,1.792,0,0,0-.3,1.074V0h-4.16V-10h4.16v1.563h.039a3.53,3.53,0,0,1,1.338-1.333,3.655,3.655,0,0,1,1.826-.474q3.281,0,3.281,4.141V0Zm14.277-.283A3.922,3.922,0,0,1-83.647.1,11.91,11.91,0,0,1-85.63.244,6.1,6.1,0,0,1-88.457-.4a4.667,4.667,0,0,1-1.929-1.792,4.975,4.975,0,0,1-.684-2.588,5.667,5.667,0,0,1,.728-2.944,4.743,4.743,0,0,1,2.075-1.875,7.119,7.119,0,0,1,3.125-.649,10.933,10.933,0,0,1,1.753.127,2.678,2.678,0,0,1,1,.293v3.242a2.889,2.889,0,0,0-.9-.43A3.609,3.609,0,0,0-84.37-7.2a2.639,2.639,0,0,0-1.851.581,2.114,2.114,0,0,0-.63,1.636,2.075,2.075,0,0,0,.62,1.606,2.419,2.419,0,0,0,1.7.571,4.244,4.244,0,0,0,2.139-.557ZM-76.323-12.7a1.787,1.787,0,0,1-.64,1.426,2.5,2.5,0,0,1-1.685.547,2.441,2.441,0,0,1-1.665-.566,1.791,1.791,0,0,1-.649-1.406,1.734,1.734,0,0,1,.63-1.392,2.524,2.524,0,0,1,1.685-.532,2.548,2.548,0,0,1,1.685.532A1.723,1.723,0,0,1-76.323-12.7ZM-80.728,0V-10h4.16V0Zm12.842,0V-1.162h-.039a3.433,3.433,0,0,1-1.3,1.03,3.7,3.7,0,0,1-1.582.376,4.07,4.07,0,0,1-2.256-.63,3.825,3.825,0,0,1-1.46-1.763A6.784,6.784,0,0,1-75-4.824a6.583,6.583,0,0,1,.576-2.822,4.51,4.51,0,0,1,1.621-1.914,4.188,4.188,0,0,1,2.344-.684,3.547,3.547,0,0,1,1.138.176,3.078,3.078,0,0,1,.908.474A1.414,1.414,0,0,1-67.925-9h.039v-5.8h4.16V0Zm.088-5.3a2.194,2.194,0,0,0-.4-1.4,1.294,1.294,0,0,0-1.069-.5,1.283,1.283,0,0,0-1.1.62,2.881,2.881,0,0,0-.425,1.655q0,2.119,1.465,2.119a1.3,1.3,0,0,0,1.108-.571A2.812,2.812,0,0,0-67.8-5.039Zm9.658,1.484A1.405,1.405,0,0,0-57.4-2.808a3.347,3.347,0,0,0,1.68.366A6.917,6.917,0,0,0-52.964-3V-.361a9.9,9.9,0,0,1-3.672.605,5.794,5.794,0,0,1-4.072-1.338,4.753,4.753,0,0,1-1.455-3.682,6.074,6.074,0,0,1,.64-2.842,4.6,4.6,0,0,1,1.895-1.929,5.6,5.6,0,0,1,2.769-.7,5.447,5.447,0,0,1,2.656.605,4.033,4.033,0,0,1,1.675,1.7,5.452,5.452,0,0,1,.571,2.559v1.563ZM-55.64-6q0-1.729-1.24-1.729a1.049,1.049,0,0,0-.869.474A2.364,2.364,0,0,0-58.159-6Zm11.6,6V-5.459a2.427,2.427,0,0,0-.278-1.333,1.017,1.017,0,0,0-.9-.405.978.978,0,0,0-.84.42,1.792,1.792,0,0,0-.3,1.074V0h-4.16V-10h4.16v1.563h.039a3.53,3.53,0,0,1,1.338-1.333,3.655,3.655,0,0,1,1.826-.474q3.281,0,3.281,4.141V0Zm13.076-.137a4.053,4.053,0,0,1-.928.259,8.482,8.482,0,0,1-1.553.122,3.73,3.73,0,0,1-2.72-.957,3.632,3.632,0,0,1-.981-2.725V-7.119h-1.572V-10h1.572v-1.963l4.1-1.133V-10h2.08v2.881h-2.08v3Q-33.042-2.8-32-2.8a2.835,2.835,0,0,0,1.035-.215Zm4.883-3.682a1.405,1.405,0,0,0,.742,1.011,3.347,3.347,0,0,0,1.68.366A6.917,6.917,0,0,0-20.9-3V-.361a9.9,9.9,0,0,1-3.672.605,5.794,5.794,0,0,1-4.072-1.338A4.753,4.753,0,0,1-30.1-4.775a6.074,6.074,0,0,1,.64-2.842,4.6,4.6,0,0,1,1.895-1.929,5.6,5.6,0,0,1,2.769-.7,5.447,5.447,0,0,1,2.656.605,4.033,4.033,0,0,1,1.675,1.7A5.452,5.452,0,0,1-19.9-5.381v1.563ZM-23.579-6q0-1.729-1.24-1.729a1.049,1.049,0,0,0-.869.474A2.364,2.364,0,0,0-26.1-6ZM-10.337-3.32A3.054,3.054,0,0,1-11.631-.688a6.082,6.082,0,0,1-3.608.933A12.546,12.546,0,0,1-16.9.107a10.286,10.286,0,0,1-1.616-.332v-2.92a7.958,7.958,0,0,0,3.086.82q1.221,0,1.221-.635a.5.5,0,0,0-.283-.435,10.01,10.01,0,0,0-1.484-.571,4.192,4.192,0,0,1-1.934-1.113,2.647,2.647,0,0,1-.605-1.807,2.883,2.883,0,0,1,1.235-2.456,5.8,5.8,0,0,1,3.472-.9,11.035,11.035,0,0,1,2.773.381v2.8A8.387,8.387,0,0,0-12.388-7.5a5.443,5.443,0,0,0-1.23-.176,1.339,1.339,0,0,0-.654.137.421.421,0,0,0-.244.381.531.531,0,0,0,.264.459,4.664,4.664,0,0,0,1.055.42A4.894,4.894,0,0,1-11-5.127,2.525,2.525,0,0,1-10.337-3.32ZM3.433,0V-1.162H3.394a3.433,3.433,0,0,1-1.3,1.03A3.7,3.7,0,0,1,.513.244a4.07,4.07,0,0,1-2.256-.63A3.825,3.825,0,0,1-3.2-2.148a6.784,6.784,0,0,1-.483-2.676A6.583,6.583,0,0,1-3.11-7.646,4.51,4.51,0,0,1-1.489-9.561a4.188,4.188,0,0,1,2.344-.684,3.547,3.547,0,0,1,1.138.176,3.078,3.078,0,0,1,.908.474A1.414,1.414,0,0,1,3.394-9h.039v-5.8h4.16V0Zm.088-5.3a2.194,2.194,0,0,0-.4-1.4,1.294,1.294,0,0,0-1.069-.5,1.283,1.283,0,0,0-1.1.62A2.881,2.881,0,0,0,.532-4.922Q.532-2.8,2-2.8a1.3,1.3,0,0,0,1.108-.571,2.812,2.812,0,0,0,.415-1.665Zm9.658,1.484a1.405,1.405,0,0,0,.742,1.011,3.347,3.347,0,0,0,1.68.366A6.917,6.917,0,0,0,18.354-3V-.361a9.9,9.9,0,0,1-3.672.605A5.794,5.794,0,0,1,10.61-1.094,4.753,4.753,0,0,1,9.155-4.775a6.074,6.074,0,0,1,.64-2.842,4.6,4.6,0,0,1,1.895-1.929,5.6,5.6,0,0,1,2.769-.7,5.447,5.447,0,0,1,2.656.605,4.033,4.033,0,0,1,1.675,1.7,5.452,5.452,0,0,1,.571,2.559v1.563ZM15.679-6q0-1.729-1.24-1.729a1.049,1.049,0,0,0-.869.474A2.364,2.364,0,0,0,13.159-6Zm18.8,2.676A3.054,3.054,0,0,1,33.184-.688a6.082,6.082,0,0,1-3.608.933A12.546,12.546,0,0,1,27.91.107a10.286,10.286,0,0,1-1.616-.332v-2.92a7.958,7.958,0,0,0,3.086.82q1.221,0,1.221-.635a.5.5,0,0,0-.283-.435,10.01,10.01,0,0,0-1.484-.571A4.192,4.192,0,0,1,26.9-5.078a2.647,2.647,0,0,1-.605-1.807,2.883,2.883,0,0,1,1.235-2.456,5.8,5.8,0,0,1,3.472-.9,11.035,11.035,0,0,1,2.773.381v2.8A8.387,8.387,0,0,0,32.427-7.5a5.443,5.443,0,0,0-1.23-.176,1.339,1.339,0,0,0-.654.137.421.421,0,0,0-.244.381.531.531,0,0,0,.264.459,4.664,4.664,0,0,0,1.055.42,4.894,4.894,0,0,1,2.2,1.152A2.525,2.525,0,0,1,34.478-3.32Zm5.117-.5a1.405,1.405,0,0,0,.742,1.011,3.347,3.347,0,0,0,1.68.366A6.917,6.917,0,0,0,44.771-3V-.361A9.9,9.9,0,0,1,41.1.244a5.794,5.794,0,0,1-4.072-1.338,4.753,4.753,0,0,1-1.455-3.682,6.074,6.074,0,0,1,.64-2.842,4.6,4.6,0,0,1,1.895-1.929,5.6,5.6,0,0,1,2.769-.7,5.447,5.447,0,0,1,2.656.605,4.033,4.033,0,0,1,1.675,1.7,5.452,5.452,0,0,1,.571,2.559v1.563ZM42.095-6q0-1.729-1.24-1.729a1.049,1.049,0,0,0-.869.474A2.364,2.364,0,0,0,39.575-6ZM58.052-1.4A5.685,5.685,0,0,1,56.24,3.091,7.736,7.736,0,0,1,50.952,4.7a11.033,11.033,0,0,1-1.816-.146,5.006,5.006,0,0,1-1.26-.332V.957a5.58,5.58,0,0,0,1.465.625,5.636,5.636,0,0,0,1.494.234,3.469,3.469,0,0,0,2.236-.674,2.177,2.177,0,0,0,.84-1.787V-1.26h-.039A3.232,3.232,0,0,1,52.637-.166a3.589,3.589,0,0,1-1.685.41A3.775,3.775,0,0,1,47.9-1.1,5.605,5.605,0,0,1,46.772-4.8a6.627,6.627,0,0,1,.586-2.861,4.465,4.465,0,0,1,1.631-1.909,4.188,4.188,0,0,1,2.3-.669,2.884,2.884,0,0,1,2.578,1.279h.039V-10h4.141ZM53.979-5.283a2.245,2.245,0,0,0-.4-1.4,1.256,1.256,0,0,0-1.05-.518,1.293,1.293,0,0,0-1.123.625,2.951,2.951,0,0,0-.42,1.67,2.89,2.89,0,0,0,.352,1.533,1.214,1.214,0,0,0,1.113.566,1.29,1.29,0,0,0,1.118-.581,2.676,2.676,0,0,0,.405-1.558ZM66.421,0V-1.543h-.039A5.473,5.473,0,0,1,65.449-.5a3.589,3.589,0,0,1-.937.537A3.315,3.315,0,0,1,63.3.244,3.025,3.025,0,0,1,60.8-.82a4.921,4.921,0,0,1-.859-3.145V-10H64.1v5.723Q64.1-2.8,65.2-2.8a1.08,1.08,0,0,0,.913-.4,1.825,1.825,0,0,0,.308-1.133V-10h4.16V0ZM80.093-6.436a3.233,3.233,0,0,0-.635-.2,3.212,3.212,0,0,0-.664-.088q-2.061,0-2.061,2.383V0h-4.16V-10h4.16v1.758h.039a3.123,3.123,0,0,1,1.084-1.44,2.785,2.785,0,0,1,1.641-.493,1.409,1.409,0,0,1,.6.117ZM85.7-12.7a1.787,1.787,0,0,1-.64,1.426,2.5,2.5,0,0,1-1.685.547,2.441,2.441,0,0,1-1.665-.566A1.791,1.791,0,0,1,81.06-12.7a1.734,1.734,0,0,1,.63-1.392,2.524,2.524,0,0,1,1.685-.532,2.548,2.548,0,0,1,1.685.532A1.723,1.723,0,0,1,85.7-12.7ZM81.294,0V-10h4.16V0ZM94.136,0V-1.162H94.1a3.433,3.433,0,0,1-1.3,1.03,3.7,3.7,0,0,1-1.582.376,4.07,4.07,0,0,1-2.256-.63A3.825,3.825,0,0,1,87.5-2.148a6.784,6.784,0,0,1-.483-2.676,6.583,6.583,0,0,1,.576-2.822,4.51,4.51,0,0,1,1.621-1.914,4.188,4.188,0,0,1,2.344-.684,3.547,3.547,0,0,1,1.138.176,3.078,3.078,0,0,1,.908.474A1.414,1.414,0,0,1,94.1-9h.039v-5.8H98.3V0Zm.088-5.3a2.194,2.194,0,0,0-.4-1.4,1.294,1.294,0,0,0-1.069-.5,1.283,1.283,0,0,0-1.1.62,2.881,2.881,0,0,0-.425,1.655Q91.235-2.8,92.7-2.8a1.3,1.3,0,0,0,1.108-.571,2.812,2.812,0,0,0,.415-1.665ZM105.845,0V-1.523h-.039A3.272,3.272,0,0,1,102.759.244a2.917,2.917,0,0,1-2.217-.84,3.12,3.12,0,0,1-.8-2.246q0-2.949,3.623-3.418l2.48-.322a.946.946,0,0,0-.439-.8,2,2,0,0,0-1.182-.312,7.783,7.783,0,0,0-3.545.957V-9.443a9.484,9.484,0,0,1,2.031-.576,11.822,11.822,0,0,1,2.09-.225,5.247,5.247,0,0,1,3.7,1.089,4.853,4.853,0,0,1,1.147,3.638V0Zm-2.461-3.4a.922.922,0,0,0,.259.674.987.987,0,0,0,.737.264,1.311,1.311,0,0,0,1.06-.488,1.892,1.892,0,0,0,.405-1.25V-4.58l-1.406.2Q103.384-4.209,103.384-3.4ZM118.2,0V-1.162h-.039a3.433,3.433,0,0,1-1.3,1.03,3.7,3.7,0,0,1-1.582.376,4.07,4.07,0,0,1-2.256-.63,3.825,3.825,0,0,1-1.46-1.763,6.784,6.784,0,0,1-.483-2.676,6.583,6.583,0,0,1,.576-2.822,4.51,4.51,0,0,1,1.621-1.914,4.188,4.188,0,0,1,2.344-.684,3.547,3.547,0,0,1,1.138.176,3.078,3.078,0,0,1,.908.474,1.414,1.414,0,0,1,.493.591h.039v-5.8h4.16V0Zm.088-5.3a2.194,2.194,0,0,0-.4-1.4,1.294,1.294,0,0,0-1.069-.5,1.283,1.283,0,0,0-1.1.62,2.881,2.881,0,0,0-.425,1.655q0,2.119,1.465,2.119a1.3,1.3,0,0,0,1.108-.571,2.812,2.812,0,0,0,.415-1.665ZM136.6,0V-1.162h-.039a3.433,3.433,0,0,1-1.3,1.03,3.7,3.7,0,0,1-1.582.376,4.07,4.07,0,0,1-2.256-.63,3.825,3.825,0,0,1-1.46-1.763,6.784,6.784,0,0,1-.483-2.676,6.583,6.583,0,0,1,.576-2.822,4.51,4.51,0,0,1,1.621-1.914,4.188,4.188,0,0,1,2.344-.684,3.547,3.547,0,0,1,1.138.176,3.078,3.078,0,0,1,.908.474,1.414,1.414,0,0,1,.493.591h.039v-5.8h4.16V0Zm.088-5.3a2.194,2.194,0,0,0-.4-1.4,1.294,1.294,0,0,0-1.069-.5,1.283,1.283,0,0,0-1.1.62,2.881,2.881,0,0,0-.425,1.655q0,2.119,1.465,2.119a1.3,1.3,0,0,0,1.108-.571,2.812,2.812,0,0,0,.415-1.665Zm9.658,1.484a1.405,1.405,0,0,0,.742,1.011,3.347,3.347,0,0,0,1.68.366A6.917,6.917,0,0,0,151.519-3V-.361a9.9,9.9,0,0,1-3.672.605,5.794,5.794,0,0,1-4.072-1.338,4.753,4.753,0,0,1-1.455-3.682,6.074,6.074,0,0,1,.64-2.842,4.6,4.6,0,0,1,1.895-1.929,5.6,5.6,0,0,1,2.769-.7,5.447,5.447,0,0,1,2.656.605,4.033,4.033,0,0,1,1.675,1.7,5.452,5.452,0,0,1,.571,2.559v1.563ZM148.843-6q0-1.729-1.24-1.729a1.049,1.049,0,0,0-.869.474A2.364,2.364,0,0,0,146.323-6Zm10.674,6V-14.8h4.16V0Zm11.709,0V-1.523h-.039A3.272,3.272,0,0,1,168.14.244a2.917,2.917,0,0,1-2.217-.84,3.12,3.12,0,0,1-.8-2.246q0-2.949,3.623-3.418l2.48-.322a.946.946,0,0,0-.439-.8A2,2,0,0,0,169.6-7.7a7.783,7.783,0,0,0-3.545.957V-9.443a9.484,9.484,0,0,1,2.031-.576,11.822,11.822,0,0,1,2.09-.225,5.247,5.247,0,0,1,3.7,1.089,4.853,4.853,0,0,1,1.147,3.638V0Zm-2.461-3.4a.922.922,0,0,0,.259.674.987.987,0,0,0,.737.264,1.311,1.311,0,0,0,1.06-.488,1.892,1.892,0,0,0,.405-1.25V-4.58l-1.406.2Q168.765-4.209,168.765-3.4Zm18.1-9.3a1.787,1.787,0,0,1-.64,1.426,2.5,2.5,0,0,1-1.685.547,2.441,2.441,0,0,1-1.665-.566,1.791,1.791,0,0,1-.649-1.406,1.734,1.734,0,0,1,.63-1.392,2.524,2.524,0,0,1,1.685-.532,2.548,2.548,0,0,1,1.685.532A1.723,1.723,0,0,1,186.86-12.7ZM182.456,0V-10h4.16V0ZM195.1,0V-5.459a2.427,2.427,0,0,0-.278-1.333,1.017,1.017,0,0,0-.9-.405.978.978,0,0,0-.84.42,1.792,1.792,0,0,0-.3,1.074V0h-4.16V-10h4.16v1.563h.039a3.53,3.53,0,0,1,1.338-1.333,3.655,3.655,0,0,1,1.826-.474q3.281,0,3.281,4.141V0Zm13.74-11.777a3.665,3.665,0,0,0-1.2-.225,1.338,1.338,0,0,0-1.025.356,1.355,1.355,0,0,0-.332.962V-10H208.6v2.881h-2.314V0h-4.16V-7.119h-1.68V-10h1.68v-.918a4.065,4.065,0,0,1,.566-2.153,3.778,3.778,0,0,1,1.646-1.45,6.025,6.025,0,0,1,2.622-.518,7.118,7.118,0,0,1,1.885.215Zm12.041,6.6A5.207,5.207,0,0,1,219.355-1.2,5.972,5.972,0,0,1,215.083.244a6,6,0,0,1-4.243-1.411,5.051,5.051,0,0,1-1.519-3.892,5.214,5.214,0,0,1,.713-2.764,4.636,4.636,0,0,1,2.031-1.8,7.012,7.012,0,0,1,3.037-.625,6.792,6.792,0,0,1,3.081.654,4.763,4.763,0,0,1,2,1.816A4.946,4.946,0,0,1,220.884-5.176Zm-4.219.02q0-2.041-1.562-2.041T213.54-5.059q0,2.256,1.582,2.256Q216.665-2.8,216.665-5.156Zm13.291-1.279a3.233,3.233,0,0,0-.635-.2,3.212,3.212,0,0,0-.664-.088q-2.061,0-2.061,2.383V0h-4.16V-10h4.16v1.758h.039a3.123,3.123,0,0,1,1.084-1.44,2.785,2.785,0,0,1,1.641-.493,1.409,1.409,0,0,1,.6.117ZM244.126,0V-5.762a1.838,1.838,0,0,0-.259-1.079.973.973,0,0,0-.845-.356,1.055,1.055,0,0,0-.9.435,1.989,1.989,0,0,0-.322,1.206V0h-4.16V-5.664q0-1.533-1.045-1.533a1.106,1.106,0,0,0-.957.444,2.148,2.148,0,0,0-.322,1.274V0h-4.16V-10h4.16v1.582h.039a3.224,3.224,0,0,1,.747-.854,4.385,4.385,0,0,1,1.157-.7,3.6,3.6,0,0,1,1.4-.269,3.535,3.535,0,0,1,1.792.42A3.256,3.256,0,0,1,241.665-8.5a3.564,3.564,0,0,1,1.406-1.294,4.191,4.191,0,0,1,1.953-.454,2.939,2.939,0,0,1,2.412,1.025,4.566,4.566,0,0,1,.84,2.959V0Zm11.582,0V-1.523h-.039A3.272,3.272,0,0,1,252.622.244a2.917,2.917,0,0,1-2.217-.84,3.12,3.12,0,0,1-.8-2.246q0-2.949,3.623-3.418l2.48-.322a.946.946,0,0,0-.439-.8,2,2,0,0,0-1.182-.312,7.783,7.783,0,0,0-3.545.957V-9.443a9.484,9.484,0,0,1,2.031-.576,11.822,11.822,0,0,1,2.09-.225,5.247,5.247,0,0,1,3.7,1.089,4.853,4.853,0,0,1,1.147,3.638V0Zm-2.461-3.4a.922.922,0,0,0,.259.674.987.987,0,0,0,.737.264,1.311,1.311,0,0,0,1.06-.488,1.892,1.892,0,0,0,.405-1.25V-4.58l-1.406.2Q253.247-4.209,253.247-3.4ZM269.624-.283a3.922,3.922,0,0,1-1.26.381,11.91,11.91,0,0,1-1.982.146,6.1,6.1,0,0,1-2.827-.64,4.667,4.667,0,0,1-1.929-1.792,4.976,4.976,0,0,1-.684-2.588,5.667,5.667,0,0,1,.728-2.944,4.743,4.743,0,0,1,2.075-1.875,7.119,7.119,0,0,1,3.125-.649,10.933,10.933,0,0,1,1.753.127,2.678,2.678,0,0,1,1,.293v3.242a2.889,2.889,0,0,0-.9-.43,3.609,3.609,0,0,0-1.084-.186,2.639,2.639,0,0,0-1.851.581,2.114,2.114,0,0,0-.63,1.636,2.075,2.075,0,0,0,.62,1.606,2.419,2.419,0,0,0,1.7.571,4.244,4.244,0,0,0,2.139-.557ZM275.688-12.7a1.787,1.787,0,0,1-.64,1.426,2.5,2.5,0,0,1-1.685.547,2.441,2.441,0,0,1-1.665-.566,1.791,1.791,0,0,1-.649-1.406,1.734,1.734,0,0,1,.63-1.392,2.524,2.524,0,0,1,1.685-.532,2.548,2.548,0,0,1,1.685.532A1.724,1.724,0,0,1,275.688-12.7ZM271.284,0V-10h4.16V0Zm17.285-5.176A5.207,5.207,0,0,1,287.041-1.2,5.972,5.972,0,0,1,282.769.244a6,6,0,0,1-4.243-1.411,5.051,5.051,0,0,1-1.519-3.892,5.214,5.214,0,0,1,.713-2.764,4.636,4.636,0,0,1,2.031-1.8,7.012,7.012,0,0,1,3.037-.625,6.792,6.792,0,0,1,3.081.654,4.763,4.763,0,0,1,2,1.816A4.946,4.946,0,0,1,288.569-5.176Zm-4.219.02q0-2.041-1.562-2.041t-1.562,2.139q0,2.256,1.582,2.256Q284.351-2.8,284.351-5.156Zm-1.045-6.426h-2.939l2.92-3.135h3.5ZM296.606,0V-5.459a2.427,2.427,0,0,0-.278-1.333,1.017,1.017,0,0,0-.9-.405.978.978,0,0,0-.84.42,1.792,1.792,0,0,0-.3,1.074V0h-4.16V-10h4.16v1.563h.039a3.53,3.53,0,0,1,1.338-1.333,3.655,3.655,0,0,1,1.826-.474q3.281,0,3.281,4.141V0Z" transform="translate(800.333 556)" fill="#fff"/>
    <path id="Trazado_635182" data-name="Trazado 635182" d="M-172.629-9.953a2.494,2.494,0,0,0-.914-.187q-1.188,0-1.187,1.289V-8h1.828v1.82h-1.828V0h-2.461V-6.18h-1.344V-8h1.344v-.992a2.88,2.88,0,0,1,.891-2.2,3.4,3.4,0,0,1,2.422-.836,4.253,4.253,0,0,1,1.25.156ZM-167.9.2a4.3,4.3,0,0,1-3.145-1.121,4.064,4.064,0,0,1-1.145-3.043A4.065,4.065,0,0,1-171-7.074,4.487,4.487,0,0,1-167.793-8.2a4.249,4.249,0,0,1,3.125,1.121,3.985,3.985,0,0,1,1.133,2.965A4.23,4.23,0,0,1-164.7-.961,4.348,4.348,0,0,1-167.9.2Zm.063-6.5a1.647,1.647,0,0,0-1.359.6,2.653,2.653,0,0,0-.484,1.7q0,2.3,1.859,2.3,1.773,0,1.773-2.367Q-166.051-6.3-167.84-6.3Zm11.125.531a2.142,2.142,0,0,0-1.039-.242,1.5,1.5,0,0,0-1.258.59,2.573,2.573,0,0,0-.453,1.605V0h-2.469V-8h2.469v1.484h.031a2.136,2.136,0,0,1,2.109-1.625,1.59,1.59,0,0,1,.609.094Zm6.445,5.68A3.649,3.649,0,0,1-151.918.2q-2.609,0-2.609-2.711V-6.18h-1.3V-8h1.3V-9.727l2.461-.7V-8h1.8v1.82h-1.8v3.234q0,1.25.992,1.25a1.673,1.673,0,0,0,.8-.227Zm8.047.094h-2.336V-1.148h-.031A2.607,2.607,0,0,1-146.973.2a2.492,2.492,0,0,1-1.832-.66,2.366,2.366,0,0,1-.668-1.762q0-2.328,2.758-2.687l2.172-.289q0-1.312-1.422-1.312a4.853,4.853,0,0,0-2.719.852V-7.523a6.116,6.116,0,0,1,1.41-.469,7.413,7.413,0,0,1,1.629-.2q3.422,0,3.422,3.414Zm-2.32-3.25v-.539L-146-3.6q-1.2.156-1.2,1.086a.9.9,0,0,0,.293.691,1.126,1.126,0,0,0,.793.27,1.462,1.462,0,0,0,1.133-.48A1.735,1.735,0,0,0-144.543-3.25ZM-137.8,0h-2.469V-11.844h2.469Zm9.266-3.3h-5.219q.125,1.742,2.2,1.742a4.286,4.286,0,0,0,2.32-.625V-.4A6.1,6.1,0,0,1-132.121.2a4.058,4.058,0,0,1-3.008-1.074,4.058,4.058,0,0,1-1.07-3,4.281,4.281,0,0,1,1.156-3.156A3.852,3.852,0,0,1-132.2-8.2a3.5,3.5,0,0,1,2.707,1.039,4,4,0,0,1,.957,2.82Zm-2.289-1.516q0-1.719-1.391-1.719a1.328,1.328,0,0,0-1.027.492,2.234,2.234,0,0,0-.527,1.227ZM-121-.289A4.881,4.881,0,0,1-123.418.2,4.083,4.083,0,0,1-126.4-.922,3.859,3.859,0,0,1-127.543-3.8,4.251,4.251,0,0,1-126.32-7.02a4.518,4.518,0,0,1,3.27-1.176A4.2,4.2,0,0,1-121-7.82v2.094A2.814,2.814,0,0,0-122.73-6.3a2.275,2.275,0,0,0-1.684.621,2.317,2.317,0,0,0-.621,1.715,2.28,2.28,0,0,0,.594,1.668,2.182,2.182,0,0,0,1.633.605,3.258,3.258,0,0,0,1.8-.578Zm8.8-3.008h-5.219q.125,1.742,2.2,1.742a4.286,4.286,0,0,0,2.32-.625V-.4A6.1,6.1,0,0,1-115.785.2a4.058,4.058,0,0,1-3.008-1.074,4.058,4.058,0,0,1-1.07-3,4.281,4.281,0,0,1,1.156-3.156A3.852,3.852,0,0,1-115.863-8.2a3.5,3.5,0,0,1,2.707,1.039,4,4,0,0,1,.957,2.82Zm-2.289-1.516q0-1.719-1.391-1.719a1.328,1.328,0,0,0-1.027.492,2.234,2.234,0,0,0-.527,1.227Zm8.977-.961a2.142,2.142,0,0,0-1.039-.242,1.5,1.5,0,0,0-1.258.59,2.573,2.573,0,0,0-.453,1.605V0h-2.469V-8h2.469v1.484h.031a2.136,2.136,0,0,1,2.109-1.625,1.59,1.59,0,0,1,.609.094ZM-97.48,0h-2.469V-11.844h2.469Zm8.734,0h-2.336V-1.148h-.031A2.607,2.607,0,0,1-93.5.2a2.492,2.492,0,0,1-1.832-.66A2.366,2.366,0,0,1-96-2.227q0-2.328,2.758-2.687l2.172-.289q0-1.312-1.422-1.312a4.853,4.853,0,0,0-2.719.852V-7.523a6.116,6.116,0,0,1,1.41-.469,7.413,7.413,0,0,1,1.629-.2q3.422,0,3.422,3.414Zm-2.32-3.25v-.539L-92.52-3.6q-1.2.156-1.2,1.086a.9.9,0,0,0,.293.691,1.126,1.126,0,0,0,.793.27,1.462,1.462,0,0,0,1.133-.48A1.735,1.735,0,0,0-91.066-3.25Zm3.75,3.039v-2a5.256,5.256,0,0,0,1.215.547,4.028,4.028,0,0,0,1.145.18,2.455,2.455,0,0,0,1.035-.18.581.581,0,0,0,.379-.547.506.506,0,0,0-.172-.391,1.6,1.6,0,0,0-.441-.273,5.009,5.009,0,0,0-.59-.211q-.32-.094-.617-.211a5.913,5.913,0,0,1-.84-.387,2.427,2.427,0,0,1-.609-.48,1.889,1.889,0,0,1-.375-.633,2.525,2.525,0,0,1-.129-.852A2.192,2.192,0,0,1-87.023-6.8a2.393,2.393,0,0,1,.781-.793,3.57,3.57,0,0,1,1.117-.453A5.825,5.825,0,0,1-83.816-8.2a7.261,7.261,0,0,1,1.078.082,8.047,8.047,0,0,1,1.078.238v1.906a3.9,3.9,0,0,0-1-.41,4.235,4.235,0,0,0-1.051-.137,2.328,2.328,0,0,0-.457.043,1.505,1.505,0,0,0-.379.125.7.7,0,0,0-.258.211.486.486,0,0,0-.094.293.541.541,0,0,0,.141.375,1.221,1.221,0,0,0,.367.27,3.625,3.625,0,0,0,.5.2q.277.09.551.184a7.161,7.161,0,0,1,.891.375,2.848,2.848,0,0,1,.684.477,1.872,1.872,0,0,1,.438.641,2.277,2.277,0,0,1,.152.875,2.282,2.282,0,0,1-.309,1.215,2.471,2.471,0,0,1-.82.82,3.72,3.72,0,0,1-1.18.461A6.54,6.54,0,0,1-84.871.2,7.149,7.149,0,0,1-87.316-.211Zm18.039-.078A4.881,4.881,0,0,1-71.691.2,4.083,4.083,0,0,1-74.676-.922,3.859,3.859,0,0,1-75.816-3.8,4.251,4.251,0,0,1-74.594-7.02,4.518,4.518,0,0,1-71.324-8.2a4.2,4.2,0,0,1,2.047.375v2.094A2.814,2.814,0,0,0-71-6.3a2.275,2.275,0,0,0-1.684.621,2.317,2.317,0,0,0-.621,1.715A2.28,2.28,0,0,0-72.715-2.3a2.182,2.182,0,0,0,1.633.605,3.258,3.258,0,0,0,1.8-.578ZM-61,0H-63.34V-1.148h-.031A2.607,2.607,0,0,1-65.754.2a2.492,2.492,0,0,1-1.832-.66,2.366,2.366,0,0,1-.668-1.762q0-2.328,2.758-2.687l2.172-.289q0-1.312-1.422-1.312a4.853,4.853,0,0,0-2.719.852V-7.523a6.116,6.116,0,0,1,1.41-.469,7.413,7.413,0,0,1,1.629-.2Q-61-8.2-61-4.781Zm-2.32-3.25v-.539l-1.453.188q-1.2.156-1.2,1.086a.9.9,0,0,0,.293.691,1.126,1.126,0,0,0,.793.27,1.462,1.462,0,0,0,1.133-.48A1.735,1.735,0,0,0-63.324-3.25Zm6.773,2.32h-.031V3.68h-2.469V-8h2.469v1.2h.031a2.9,2.9,0,0,1,2.57-1.4,2.892,2.892,0,0,1,2.4,1.066,4.54,4.54,0,0,1,.848,2.9,4.922,4.922,0,0,1-.988,3.211A3.222,3.222,0,0,1-54.348.2,2.491,2.491,0,0,1-56.551-.93Zm-.07-3.281v.641a2.037,2.037,0,0,0,.438,1.352,1.424,1.424,0,0,0,1.148.523,1.514,1.514,0,0,0,1.309-.652A3.15,3.15,0,0,0-53.262-4.2q0-2.109-1.641-2.109a1.541,1.541,0,0,0-1.238.574A2.29,2.29,0,0,0-56.621-4.211ZM-42.629,0h-2.336V-1.148H-45A2.607,2.607,0,0,1-47.379.2a2.492,2.492,0,0,1-1.832-.66,2.366,2.366,0,0,1-.668-1.762q0-2.328,2.758-2.687l2.172-.289q0-1.312-1.422-1.312a4.853,4.853,0,0,0-2.719.852V-7.523a6.116,6.116,0,0,1,1.41-.469,7.413,7.413,0,0,1,1.629-.2q3.422,0,3.422,3.414Zm-2.32-3.25v-.539L-46.4-3.6q-1.2.156-1.2,1.086a.9.9,0,0,0,.293.691,1.126,1.126,0,0,0,.793.27,1.462,1.462,0,0,0,1.133-.48A1.735,1.735,0,0,0-44.949-3.25ZM-34.613-.289A4.881,4.881,0,0,1-37.027.2,4.083,4.083,0,0,1-40.012-.922,3.859,3.859,0,0,1-41.152-3.8,4.251,4.251,0,0,1-39.93-7.02,4.518,4.518,0,0,1-36.66-8.2a4.2,4.2,0,0,1,2.047.375v2.094A2.814,2.814,0,0,0-36.34-6.3a2.275,2.275,0,0,0-1.684.621,2.317,2.317,0,0,0-.621,1.715A2.28,2.28,0,0,0-38.051-2.3a2.182,2.182,0,0,0,1.633.605,3.258,3.258,0,0,0,1.8-.578Zm2.867-8.977a1.442,1.442,0,0,1-1.023-.371,1.2,1.2,0,0,1-.4-.91,1.153,1.153,0,0,1,.4-.906,1.49,1.49,0,0,1,1.023-.352,1.486,1.486,0,0,1,1.027.352,1.158,1.158,0,0,1,.395.906,1.191,1.191,0,0,1-.395.922A1.466,1.466,0,0,1-31.746-9.266ZM-30.527,0H-33V-8h2.469Zm9.906,0H-23.09V-1.1h-.031A2.768,2.768,0,0,1-25.6.2,3.033,3.033,0,0,1-28.012-.863a4.382,4.382,0,0,1-.914-2.957A4.77,4.77,0,0,1-27.918-7a3.287,3.287,0,0,1,2.641-1.2,2.246,2.246,0,0,1,2.156,1.109h.031v-4.758h2.469Zm-2.422-3.891v-.6a1.893,1.893,0,0,0-.453-1.3,1.5,1.5,0,0,0-1.18-.516,1.487,1.487,0,0,0-1.281.645,2.993,2.993,0,0,0-.461,1.77,2.59,2.59,0,0,0,.445,1.625,1.479,1.479,0,0,0,1.234.57,1.485,1.485,0,0,0,1.223-.6A2.507,2.507,0,0,0-23.043-3.891ZM-11.887,0h-2.336V-1.148h-.031A2.607,2.607,0,0,1-16.637.2a2.492,2.492,0,0,1-1.832-.66,2.366,2.366,0,0,1-.668-1.762q0-2.328,2.758-2.687l2.172-.289q0-1.312-1.422-1.312a4.853,4.853,0,0,0-2.719.852V-7.523a6.116,6.116,0,0,1,1.41-.469,7.413,7.413,0,0,1,1.629-.2q3.422,0,3.422,3.414Zm-2.32-3.25v-.539L-15.66-3.6q-1.2.156-1.2,1.086a.9.9,0,0,0,.293.691,1.126,1.126,0,0,0,.793.27,1.462,1.462,0,0,0,1.133-.48A1.735,1.735,0,0,0-14.207-3.25ZM-2.105,0H-4.574V-1.1h-.031A2.768,2.768,0,0,1-7.082.2,3.033,3.033,0,0,1-9.5-.863,4.382,4.382,0,0,1-10.41-3.82,4.77,4.77,0,0,1-9.4-7,3.287,3.287,0,0,1-6.762-8.2,2.246,2.246,0,0,1-4.605-7.086h.031v-4.758h2.469ZM-4.527-3.891v-.6a1.893,1.893,0,0,0-.453-1.3A1.5,1.5,0,0,0-6.16-6.3a1.487,1.487,0,0,0-1.281.645A2.993,2.993,0,0,0-7.9-3.891a2.59,2.59,0,0,0,.445,1.625,1.479,1.479,0,0,0,1.234.57A1.485,1.485,0,0,0-5-2.3,2.507,2.507,0,0,0-4.527-3.891ZM7.16-3.3H1.941q.125,1.742,2.2,1.742a4.286,4.286,0,0,0,2.32-.625V-.4A6.1,6.1,0,0,1,3.574.2,4.058,4.058,0,0,1,.566-.879a4.058,4.058,0,0,1-1.07-3A4.281,4.281,0,0,1,.652-7.031,3.852,3.852,0,0,1,3.5-8.2,3.5,3.5,0,0,1,6.2-7.156a4,4,0,0,1,.957,2.82ZM4.871-4.812q0-1.719-1.391-1.719a1.328,1.328,0,0,0-1.027.492,2.234,2.234,0,0,0-.527,1.227Zm3.234,4.6v-2a5.256,5.256,0,0,0,1.215.547,4.028,4.028,0,0,0,1.145.18,2.455,2.455,0,0,0,1.035-.18.581.581,0,0,0,.379-.547.506.506,0,0,0-.172-.391,1.6,1.6,0,0,0-.441-.273,5.009,5.009,0,0,0-.59-.211q-.32-.094-.617-.211a5.913,5.913,0,0,1-.84-.387,2.427,2.427,0,0,1-.609-.48A1.889,1.889,0,0,1,8.234-4.8a2.525,2.525,0,0,1-.129-.852A2.192,2.192,0,0,1,8.4-6.8,2.393,2.393,0,0,1,9.18-7.6,3.57,3.57,0,0,1,10.3-8.051,5.825,5.825,0,0,1,11.605-8.2a7.261,7.261,0,0,1,1.078.082,8.047,8.047,0,0,1,1.078.238v1.906a3.9,3.9,0,0,0-1-.41,4.235,4.235,0,0,0-1.051-.137,2.328,2.328,0,0,0-.457.043,1.505,1.505,0,0,0-.379.125.7.7,0,0,0-.258.211.486.486,0,0,0-.094.293.541.541,0,0,0,.141.375,1.221,1.221,0,0,0,.367.27,3.625,3.625,0,0,0,.5.2q.277.09.551.184a7.161,7.161,0,0,1,.891.375,2.848,2.848,0,0,1,.684.477,1.872,1.872,0,0,1,.438.641,2.277,2.277,0,0,1,.152.875,2.282,2.282,0,0,1-.309,1.215,2.471,2.471,0,0,1-.82.82,3.72,3.72,0,0,1-1.18.461A6.54,6.54,0,0,1,10.551.2,7.149,7.149,0,0,1,8.105-.211ZM27.27-3.3H22.051q.125,1.742,2.2,1.742a4.286,4.286,0,0,0,2.32-.625V-.4A6.1,6.1,0,0,1,23.684.2,4.058,4.058,0,0,1,20.676-.879a4.058,4.058,0,0,1-1.07-3,4.281,4.281,0,0,1,1.156-3.156A3.852,3.852,0,0,1,23.605-8.2a3.5,3.5,0,0,1,2.707,1.039,4,4,0,0,1,.957,2.82ZM24.98-4.812q0-1.719-1.391-1.719a1.328,1.328,0,0,0-1.027.492,2.234,2.234,0,0,0-.527,1.227ZM36.465,0H34V-4.445Q34-6.3,32.676-6.3a1.318,1.318,0,0,0-1.055.492,1.875,1.875,0,0,0-.414,1.25V0H28.738V-8h2.469v1.266h.031A2.829,2.829,0,0,1,33.809-8.2q2.656,0,2.656,3.3ZM45.3,0H42.832V-11.844H45.3Zm8.734,0H51.7V-1.148h-.031A2.607,2.607,0,0,1,49.285.2a2.492,2.492,0,0,1-1.832-.66,2.366,2.366,0,0,1-.668-1.762q0-2.328,2.758-2.687L51.715-5.2q0-1.312-1.422-1.312a4.853,4.853,0,0,0-2.719.852V-7.523a6.116,6.116,0,0,1,1.41-.469,7.413,7.413,0,0,1,1.629-.2q3.422,0,3.422,3.414Zm-2.32-3.25v-.539L50.262-3.6q-1.2.156-1.2,1.086a.9.9,0,0,0,.293.691,1.126,1.126,0,0,0,.793.27,1.462,1.462,0,0,0,1.133-.48A1.735,1.735,0,0,0,51.715-3.25Zm3.75,3.039v-2a5.256,5.256,0,0,0,1.215.547,4.028,4.028,0,0,0,1.145.18,2.455,2.455,0,0,0,1.035-.18.581.581,0,0,0,.379-.547.506.506,0,0,0-.172-.391,1.6,1.6,0,0,0-.441-.273,5.009,5.009,0,0,0-.59-.211q-.32-.094-.617-.211a5.913,5.913,0,0,1-.84-.387,2.427,2.427,0,0,1-.609-.48,1.889,1.889,0,0,1-.375-.633,2.525,2.525,0,0,1-.129-.852A2.192,2.192,0,0,1,55.758-6.8a2.393,2.393,0,0,1,.781-.793,3.57,3.57,0,0,1,1.117-.453A5.825,5.825,0,0,1,58.965-8.2a7.261,7.261,0,0,1,1.078.082,8.047,8.047,0,0,1,1.078.238v1.906a3.9,3.9,0,0,0-1-.41,4.235,4.235,0,0,0-1.051-.137,2.328,2.328,0,0,0-.457.043,1.505,1.505,0,0,0-.379.125.7.7,0,0,0-.258.211.486.486,0,0,0-.094.293.541.541,0,0,0,.141.375,1.221,1.221,0,0,0,.367.27,3.625,3.625,0,0,0,.5.2q.277.09.551.184a7.161,7.161,0,0,1,.891.375,2.848,2.848,0,0,1,.684.477,1.871,1.871,0,0,1,.438.641,2.277,2.277,0,0,1,.152.875A2.282,2.282,0,0,1,61.3-1.23a2.471,2.471,0,0,1-.82.82A3.72,3.72,0,0,1,59.3.051,6.54,6.54,0,0,1,57.91.2,7.149,7.149,0,0,1,55.465-.211ZM71.254.2A4.3,4.3,0,0,1,68.109-.926a4.064,4.064,0,0,1-1.145-3.043,4.065,4.065,0,0,1,1.188-3.105A4.487,4.487,0,0,1,71.363-8.2a4.249,4.249,0,0,1,3.125,1.121,3.985,3.985,0,0,1,1.133,2.965A4.23,4.23,0,0,1,74.453-.961,4.348,4.348,0,0,1,71.254.2Zm.063-6.5a1.647,1.647,0,0,0-1.359.6A2.653,2.653,0,0,0,69.473-4q0,2.3,1.859,2.3,1.773,0,1.773-2.367Q73.105-6.3,71.316-6.3Zm11.125.531A2.142,2.142,0,0,0,81.4-6.016a1.5,1.5,0,0,0-1.258.59,2.573,2.573,0,0,0-.453,1.605V0H77.223V-8h2.469v1.484h.031a2.136,2.136,0,0,1,2.109-1.625,1.59,1.59,0,0,1,.609.094Zm8.93,4.859a4.526,4.526,0,0,1-1.289,3.449,5.224,5.224,0,0,1-3.734,1.223A5.919,5.919,0,0,1,83.785,3.3V1.219a4.907,4.907,0,0,0,2.492.719,2.684,2.684,0,0,0,1.938-.66A2.369,2.369,0,0,0,88.9-.516v-.633h-.031A2.757,2.757,0,0,1,86.379.2a3,3,0,0,1-2.43-1.078,4.372,4.372,0,0,1-.9-2.891,4.87,4.87,0,0,1,1-3.227,3.265,3.265,0,0,1,2.633-1.2A2.429,2.429,0,0,1,88.871-7.07H88.9V-8h2.469Zm-2.437-2.93v-.633a1.945,1.945,0,0,0-.449-1.293A1.453,1.453,0,0,0,87.316-6.3a1.51,1.51,0,0,0-1.289.641,3.012,3.012,0,0,0-.469,1.8A2.543,2.543,0,0,0,86-2.277a1.451,1.451,0,0,0,1.219.582,1.511,1.511,0,0,0,1.238-.59A2.418,2.418,0,0,0,88.934-3.844ZM100.09,0H97.754V-1.148h-.031A2.607,2.607,0,0,1,95.34.2a2.492,2.492,0,0,1-1.832-.66,2.366,2.366,0,0,1-.668-1.762q0-2.328,2.758-2.687L97.77-5.2q0-1.312-1.422-1.312a4.853,4.853,0,0,0-2.719.852V-7.523a6.116,6.116,0,0,1,1.41-.469,7.413,7.413,0,0,1,1.629-.2q3.422,0,3.422,3.414ZM97.77-3.25v-.539L96.316-3.6q-1.2.156-1.2,1.086a.9.9,0,0,0,.293.691,1.126,1.126,0,0,0,.793.27,1.462,1.462,0,0,0,1.133-.48A1.735,1.735,0,0,0,97.77-3.25Zm12,3.25h-2.461V-4.445q0-1.859-1.328-1.859a1.318,1.318,0,0,0-1.055.492,1.875,1.875,0,0,0-.414,1.25V0h-2.469V-8h2.469v1.266h.031a2.829,2.829,0,0,1,2.57-1.461q2.656,0,2.656,3.3Zm3.2-9.266a1.442,1.442,0,0,1-1.023-.371,1.2,1.2,0,0,1-.4-.91,1.153,1.153,0,0,1,.4-.906,1.49,1.49,0,0,1,1.023-.352,1.486,1.486,0,0,1,1.027.352,1.158,1.158,0,0,1,.395.906,1.191,1.191,0,0,1-.395.922A1.466,1.466,0,0,1,112.973-9.266ZM114.191,0h-2.469V-8h2.469Zm8.414,0h-7.18V-1.023l4.016-5.156h-3.617V-8h6.75v1.219l-3.8,4.961h3.836Zm7.984,0h-2.336V-1.148h-.031A2.607,2.607,0,0,1,125.84.2a2.492,2.492,0,0,1-1.832-.66,2.366,2.366,0,0,1-.668-1.762q0-2.328,2.758-2.687L128.27-5.2q0-1.312-1.422-1.312a4.853,4.853,0,0,0-2.719.852V-7.523a6.116,6.116,0,0,1,1.41-.469,7.413,7.413,0,0,1,1.629-.2q3.422,0,3.422,3.414Zm-2.32-3.25v-.539l-1.453.188q-1.2.156-1.2,1.086a.9.9,0,0,0,.293.691,1.126,1.126,0,0,0,.793.27,1.462,1.462,0,0,0,1.133-.48A1.735,1.735,0,0,0,128.27-3.25ZM138.605-.289A4.881,4.881,0,0,1,136.191.2a4.083,4.083,0,0,1-2.984-1.117A3.859,3.859,0,0,1,132.066-3.8a4.251,4.251,0,0,1,1.223-3.215,4.518,4.518,0,0,1,3.27-1.176,4.2,4.2,0,0,1,2.047.375v2.094a2.814,2.814,0,0,0-1.727-.578,2.275,2.275,0,0,0-1.684.621,2.317,2.317,0,0,0-.621,1.715,2.28,2.28,0,0,0,.594,1.668A2.182,2.182,0,0,0,136.8-1.7a3.258,3.258,0,0,0,1.8-.578Zm2.867-8.977a1.442,1.442,0,0,1-1.023-.371,1.2,1.2,0,0,1-.4-.91,1.153,1.153,0,0,1,.4-.906,1.49,1.49,0,0,1,1.023-.352,1.486,1.486,0,0,1,1.027.352,1.158,1.158,0,0,1,.395.906,1.191,1.191,0,0,1-.395.922A1.466,1.466,0,0,1,141.473-9.266ZM142.691,0h-2.469V-8h2.469Zm5.891.2a4.3,4.3,0,0,1-3.145-1.121,4.064,4.064,0,0,1-1.145-3.043,4.065,4.065,0,0,1,1.188-3.105A4.487,4.487,0,0,1,148.691-8.2a4.249,4.249,0,0,1,3.125,1.121,3.985,3.985,0,0,1,1.133,2.965,4.23,4.23,0,0,1-1.168,3.148A4.348,4.348,0,0,1,148.582.2Zm.063-6.5a1.647,1.647,0,0,0-1.359.6A2.653,2.653,0,0,0,146.8-4q0,2.3,1.859,2.3,1.773,0,1.773-2.367Q150.434-6.3,148.645-6.3ZM162.277,0h-2.461V-4.445q0-1.859-1.328-1.859a1.318,1.318,0,0,0-1.055.492,1.875,1.875,0,0,0-.414,1.25V0h-2.469V-8h2.469v1.266h.031a2.829,2.829,0,0,1,2.57-1.461q2.656,0,2.656,3.3Zm9.141-3.3H166.2q.125,1.742,2.2,1.742a4.286,4.286,0,0,0,2.32-.625V-.4A6.1,6.1,0,0,1,167.832.2a4.058,4.058,0,0,1-3.008-1.074,4.058,4.058,0,0,1-1.07-3,4.281,4.281,0,0,1,1.156-3.156A3.852,3.852,0,0,1,167.754-8.2a3.5,3.5,0,0,1,2.707,1.039,4,4,0,0,1,.957,2.82Zm-2.289-1.516q0-1.719-1.391-1.719a1.328,1.328,0,0,0-1.027.492,2.234,2.234,0,0,0-.527,1.227Zm3.234,4.6v-2a5.256,5.256,0,0,0,1.215.547,4.028,4.028,0,0,0,1.145.18,2.455,2.455,0,0,0,1.035-.18.581.581,0,0,0,.379-.547.506.506,0,0,0-.172-.391,1.6,1.6,0,0,0-.441-.273,5.009,5.009,0,0,0-.59-.211q-.32-.094-.617-.211a5.914,5.914,0,0,1-.84-.387,2.427,2.427,0,0,1-.609-.48,1.889,1.889,0,0,1-.375-.633,2.525,2.525,0,0,1-.129-.852,2.192,2.192,0,0,1,.293-1.156,2.393,2.393,0,0,1,.781-.793,3.57,3.57,0,0,1,1.117-.453,5.825,5.825,0,0,1,1.309-.145,7.261,7.261,0,0,1,1.078.082,8.047,8.047,0,0,1,1.078.238v1.906a3.9,3.9,0,0,0-1-.41,4.235,4.235,0,0,0-1.051-.137,2.328,2.328,0,0,0-.457.043,1.505,1.505,0,0,0-.379.125.7.7,0,0,0-.258.211.486.486,0,0,0-.094.293.541.541,0,0,0,.141.375,1.221,1.221,0,0,0,.367.27,3.625,3.625,0,0,0,.5.2q.277.09.551.184a7.161,7.161,0,0,1,.891.375,2.848,2.848,0,0,1,.684.477,1.871,1.871,0,0,1,.438.641,2.277,2.277,0,0,1,.152.875A2.282,2.282,0,0,1,178.2-1.23a2.471,2.471,0,0,1-.82.82,3.72,3.72,0,0,1-1.18.461A6.54,6.54,0,0,1,174.809.2,7.149,7.149,0,0,1,172.363-.211Z" transform="translate(800.333 682)" fill="#12263f"/>
    <path id="Trazado_635183" data-name="Trazado 635183" d="M-124.812,0h-2.531V-4.562h-4.641V0h-2.523V-11.2h2.523v4.469h4.641V-11.2h2.531Zm8.977,0h-2.336V-1.148h-.031A2.607,2.607,0,0,1-120.586.2a2.492,2.492,0,0,1-1.832-.66,2.366,2.366,0,0,1-.668-1.762q0-2.328,2.758-2.687l2.172-.289q0-1.312-1.422-1.312a4.853,4.853,0,0,0-2.719.852V-7.523a6.116,6.116,0,0,1,1.41-.469,7.413,7.413,0,0,1,1.629-.2q3.422,0,3.422,3.414Zm-2.32-3.25v-.539l-1.453.188q-1.2.156-1.2,1.086a.9.9,0,0,0,.293.691,1.126,1.126,0,0,0,.793.27,1.462,1.462,0,0,0,1.133-.48A1.735,1.735,0,0,0-118.156-3.25ZM-107.82-.289A4.881,4.881,0,0,1-110.234.2a4.083,4.083,0,0,1-2.984-1.117A3.859,3.859,0,0,1-114.359-3.8a4.251,4.251,0,0,1,1.223-3.215,4.518,4.518,0,0,1,3.27-1.176,4.2,4.2,0,0,1,2.047.375v2.094a2.814,2.814,0,0,0-1.727-.578,2.275,2.275,0,0,0-1.684.621,2.317,2.317,0,0,0-.621,1.715,2.28,2.28,0,0,0,.594,1.668,2.182,2.182,0,0,0,1.633.605,3.258,3.258,0,0,0,1.8-.578Zm8.8-3.008h-5.219q.125,1.742,2.2,1.742a4.286,4.286,0,0,0,2.32-.625V-.4A6.1,6.1,0,0,1-102.6.2a4.058,4.058,0,0,1-3.008-1.074,4.058,4.058,0,0,1-1.07-3,4.281,4.281,0,0,1,1.156-3.156A3.852,3.852,0,0,1-102.68-8.2a3.5,3.5,0,0,1,2.707,1.039,4,4,0,0,1,.957,2.82ZM-101.3-4.812q0-1.719-1.391-1.719a1.328,1.328,0,0,0-1.027.492,2.234,2.234,0,0,0-.527,1.227Zm8.977-.961a2.142,2.142,0,0,0-1.039-.242,1.5,1.5,0,0,0-1.258.59,2.573,2.573,0,0,0-.453,1.605V0h-2.469V-8h2.469v1.484h.031a2.136,2.136,0,0,1,2.109-1.625,1.59,1.59,0,0,1,.609.094Zm10.781-4.18a2.494,2.494,0,0,0-.914-.187q-1.187,0-1.187,1.289V-8h1.828v1.82h-1.828V0h-2.461V-6.18h-1.344V-8h1.344v-.992a2.88,2.88,0,0,1,.891-2.2,3.4,3.4,0,0,1,2.422-.836,4.253,4.253,0,0,1,1.25.156Zm6.133,4.18a2.142,2.142,0,0,0-1.039-.242,1.5,1.5,0,0,0-1.258.59,2.573,2.573,0,0,0-.453,1.605V0h-2.469V-8h2.469v1.484h.031a2.136,2.136,0,0,1,2.109-1.625,1.59,1.59,0,0,1,.609.094ZM-67.141-3.3h-5.219q.125,1.742,2.2,1.742a4.286,4.286,0,0,0,2.32-.625V-.4A6.1,6.1,0,0,1-70.727.2,4.058,4.058,0,0,1-73.734-.879a4.058,4.058,0,0,1-1.07-3,4.281,4.281,0,0,1,1.156-3.156A3.852,3.852,0,0,1-70.8-8.2,3.5,3.5,0,0,1-68.1-7.156a4,4,0,0,1,.957,2.82ZM-69.43-4.812q0-1.719-1.391-1.719a1.328,1.328,0,0,0-1.027.492,2.234,2.234,0,0,0-.527,1.227ZM-57.945,0h-2.461V-4.445q0-1.859-1.328-1.859a1.318,1.318,0,0,0-1.055.492,1.875,1.875,0,0,0-.414,1.25V0h-2.469V-8H-63.2v1.266h.031A2.829,2.829,0,0,1-60.6-8.2q2.656,0,2.656,3.3Zm6.789-.094A3.649,3.649,0,0,1-52.8.2q-2.609,0-2.609-2.711V-6.18h-1.3V-8h1.3V-9.727l2.461-.7V-8h1.8v1.82h-1.8v3.234q0,1.25.992,1.25a1.673,1.673,0,0,0,.8-.227Zm8.516-3.2h-5.219q.125,1.742,2.2,1.742a4.286,4.286,0,0,0,2.32-.625V-.4A6.1,6.1,0,0,1-46.227.2,4.058,4.058,0,0,1-49.234-.879a4.058,4.058,0,0,1-1.07-3,4.281,4.281,0,0,1,1.156-3.156A3.852,3.852,0,0,1-46.3-8.2,3.5,3.5,0,0,1-43.6-7.156a4,4,0,0,1,.957,2.82ZM-44.93-4.812q0-1.719-1.391-1.719a1.328,1.328,0,0,0-1.027.492,2.234,2.234,0,0,0-.527,1.227ZM-30.1,0h-2.336V-1.148h-.031A2.607,2.607,0,0,1-34.852.2a2.492,2.492,0,0,1-1.832-.66,2.366,2.366,0,0,1-.668-1.762q0-2.328,2.758-2.687l2.172-.289q0-1.312-1.422-1.312a4.853,4.853,0,0,0-2.719.852V-7.523a6.116,6.116,0,0,1,1.41-.469,7.413,7.413,0,0,1,1.629-.2q3.422,0,3.422,3.414Zm-2.32-3.25v-.539l-1.453.188q-1.2.156-1.2,1.086a.9.9,0,0,0,.293.691,1.126,1.126,0,0,0,.793.27,1.462,1.462,0,0,0,1.133-.48A1.735,1.735,0,0,0-32.422-3.25ZM-16.547-3.3h-5.219q.125,1.742,2.2,1.742a4.286,4.286,0,0,0,2.32-.625V-.4A6.1,6.1,0,0,1-20.133.2,4.058,4.058,0,0,1-23.141-.879a4.058,4.058,0,0,1-1.07-3,4.281,4.281,0,0,1,1.156-3.156A3.852,3.852,0,0,1-20.211-8.2,3.5,3.5,0,0,1-17.5-7.156a4,4,0,0,1,.957,2.82Zm-2.289-1.516q0-1.719-1.391-1.719a1.328,1.328,0,0,0-1.027.492,2.234,2.234,0,0,0-.527,1.227ZM-7.461-8l-2.977,8H-13.25l-2.836-8h2.641l1.391,4.93a7.2,7.2,0,0,1,.273,1.422h.031a8.069,8.069,0,0,1,.289-1.375L-10.039-8ZM.625-3.3H-4.594q.125,1.742,2.2,1.742A4.286,4.286,0,0,0-.078-2.18V-.4A6.1,6.1,0,0,1-2.961.2,4.058,4.058,0,0,1-5.969-.879a4.058,4.058,0,0,1-1.07-3A4.281,4.281,0,0,1-5.883-7.031,3.852,3.852,0,0,1-3.039-8.2,3.5,3.5,0,0,1-.332-7.156a4,4,0,0,1,.957,2.82ZM-1.664-4.812q0-1.719-1.391-1.719a1.328,1.328,0,0,0-1.027.492,2.234,2.234,0,0,0-.527,1.227ZM9.82,0H7.359V-4.445Q7.359-6.3,6.031-6.3a1.318,1.318,0,0,0-1.055.492,1.875,1.875,0,0,0-.414,1.25V0H2.094V-8H4.563v1.266h.031A2.829,2.829,0,0,1,7.164-8.2Q9.82-8.2,9.82-4.9Zm6.789-.094A3.649,3.649,0,0,1,14.961.2q-2.609,0-2.609-2.711V-6.18h-1.3V-8h1.3V-9.727l2.461-.7V-8h1.8v1.82h-1.8v3.234q0,1.25.992,1.25a1.673,1.673,0,0,0,.8-.227ZM21.75.2A4.3,4.3,0,0,1,18.605-.926a4.064,4.064,0,0,1-1.145-3.043,4.065,4.065,0,0,1,1.188-3.105A4.487,4.487,0,0,1,21.859-8.2a4.249,4.249,0,0,1,3.125,1.121,3.985,3.985,0,0,1,1.133,2.965A4.23,4.23,0,0,1,24.949-.961,4.348,4.348,0,0,1,21.75.2Zm.063-6.5a1.647,1.647,0,0,0-1.359.6A2.653,2.653,0,0,0,19.969-4q0,2.3,1.859,2.3Q23.6-1.7,23.6-4.062,23.6-6.3,21.813-6.3ZM27.2-.211v-2a5.256,5.256,0,0,0,1.215.547,4.028,4.028,0,0,0,1.145.18,2.455,2.455,0,0,0,1.035-.18.581.581,0,0,0,.379-.547A.506.506,0,0,0,30.8-2.6a1.6,1.6,0,0,0-.441-.273,5.009,5.009,0,0,0-.59-.211q-.32-.094-.617-.211a5.913,5.913,0,0,1-.84-.387,2.427,2.427,0,0,1-.609-.48,1.889,1.889,0,0,1-.375-.633,2.525,2.525,0,0,1-.129-.852A2.192,2.192,0,0,1,27.488-6.8,2.393,2.393,0,0,1,28.27-7.6a3.57,3.57,0,0,1,1.117-.453A5.825,5.825,0,0,1,30.7-8.2a7.261,7.261,0,0,1,1.078.082,8.047,8.047,0,0,1,1.078.238v1.906a3.9,3.9,0,0,0-1-.41A4.235,4.235,0,0,0,30.8-6.516a2.328,2.328,0,0,0-.457.043,1.505,1.505,0,0,0-.379.125.7.7,0,0,0-.258.211.486.486,0,0,0-.094.293.541.541,0,0,0,.141.375,1.221,1.221,0,0,0,.367.27,3.625,3.625,0,0,0,.5.2q.277.09.551.184a7.161,7.161,0,0,1,.891.375,2.848,2.848,0,0,1,.684.477,1.871,1.871,0,0,1,.438.641,2.277,2.277,0,0,1,.152.875,2.282,2.282,0,0,1-.309,1.215,2.471,2.471,0,0,1-.82.82,3.72,3.72,0,0,1-1.18.461A6.54,6.54,0,0,1,29.641.2,7.149,7.149,0,0,1,27.2-.211ZM47,0H44.531V-1.1H44.5A2.768,2.768,0,0,1,42.023.2,3.033,3.033,0,0,1,39.609-.863,4.382,4.382,0,0,1,38.7-3.82,4.77,4.77,0,0,1,39.7-7a3.287,3.287,0,0,1,2.641-1.2A2.246,2.246,0,0,1,44.5-7.086h.031v-4.758H47ZM44.578-3.891v-.6a1.893,1.893,0,0,0-.453-1.3,1.5,1.5,0,0,0-1.18-.516,1.487,1.487,0,0,0-1.281.645,2.993,2.993,0,0,0-.461,1.77,2.59,2.59,0,0,0,.445,1.625,1.479,1.479,0,0,0,1.234.57,1.485,1.485,0,0,0,1.223-.6A2.507,2.507,0,0,0,44.578-3.891ZM56.266-3.3H51.047q.125,1.742,2.2,1.742a4.286,4.286,0,0,0,2.32-.625V-.4A6.1,6.1,0,0,1,52.68.2,4.058,4.058,0,0,1,49.672-.879a4.058,4.058,0,0,1-1.07-3,4.281,4.281,0,0,1,1.156-3.156A3.852,3.852,0,0,1,52.6-8.2a3.5,3.5,0,0,1,2.707,1.039,4,4,0,0,1,.957,2.82ZM53.977-4.812q0-1.719-1.391-1.719a1.328,1.328,0,0,0-1.027.492,2.234,2.234,0,0,0-.527,1.227Zm7.648,4.6v-2a5.256,5.256,0,0,0,1.215.547,4.028,4.028,0,0,0,1.145.18,2.455,2.455,0,0,0,1.035-.18.581.581,0,0,0,.379-.547.506.506,0,0,0-.172-.391,1.6,1.6,0,0,0-.441-.273,5.009,5.009,0,0,0-.59-.211q-.32-.094-.617-.211a5.913,5.913,0,0,1-.84-.387,2.427,2.427,0,0,1-.609-.48,1.889,1.889,0,0,1-.375-.633,2.525,2.525,0,0,1-.129-.852A2.192,2.192,0,0,1,61.918-6.8,2.393,2.393,0,0,1,62.7-7.6a3.57,3.57,0,0,1,1.117-.453A5.825,5.825,0,0,1,65.125-8.2a7.261,7.261,0,0,1,1.078.082,8.047,8.047,0,0,1,1.078.238v1.906a3.9,3.9,0,0,0-1-.41,4.235,4.235,0,0,0-1.051-.137,2.328,2.328,0,0,0-.457.043,1.505,1.505,0,0,0-.379.125.7.7,0,0,0-.258.211.486.486,0,0,0-.094.293.541.541,0,0,0,.141.375,1.221,1.221,0,0,0,.367.27,3.625,3.625,0,0,0,.5.2q.277.09.551.184a7.161,7.161,0,0,1,.891.375,2.848,2.848,0,0,1,.684.477,1.872,1.872,0,0,1,.438.641,2.277,2.277,0,0,1,.152.875,2.282,2.282,0,0,1-.309,1.215,2.471,2.471,0,0,1-.82.82,3.72,3.72,0,0,1-1.18.461A6.54,6.54,0,0,1,64.07.2,7.149,7.149,0,0,1,61.625-.211ZM76.375-3.3H71.156q.125,1.742,2.2,1.742a4.286,4.286,0,0,0,2.32-.625V-.4A6.1,6.1,0,0,1,72.789.2,4.058,4.058,0,0,1,69.781-.879a4.058,4.058,0,0,1-1.07-3,4.281,4.281,0,0,1,1.156-3.156A3.852,3.852,0,0,1,72.711-8.2a3.5,3.5,0,0,1,2.707,1.039,4,4,0,0,1,.957,2.82ZM74.086-4.812q0-1.719-1.391-1.719a1.328,1.328,0,0,0-1.027.492,2.234,2.234,0,0,0-.527,1.227Zm11.6,3.9A4.526,4.526,0,0,1,84.4,2.535a5.224,5.224,0,0,1-3.734,1.223A5.919,5.919,0,0,1,78.1,3.3V1.219a4.907,4.907,0,0,0,2.492.719,2.684,2.684,0,0,0,1.938-.66,2.369,2.369,0,0,0,.688-1.793v-.633h-.031A2.757,2.757,0,0,1,80.7.2a3,3,0,0,1-2.43-1.078,4.372,4.372,0,0,1-.9-2.891,4.87,4.87,0,0,1,1-3.227A3.265,3.265,0,0,1,81-8.2,2.429,2.429,0,0,1,83.188-7.07h.031V-8h2.469ZM83.25-3.844v-.633A1.945,1.945,0,0,0,82.8-5.77,1.453,1.453,0,0,0,81.633-6.3a1.51,1.51,0,0,0-1.289.641,3.012,3.012,0,0,0-.469,1.8,2.543,2.543,0,0,0,.445,1.582,1.451,1.451,0,0,0,1.219.582,1.511,1.511,0,0,0,1.238-.59A2.418,2.418,0,0,0,83.25-3.844ZM95.352,0H92.891V-1.219h-.039A2.792,2.792,0,0,1,90.406.2q-2.781,0-2.781-3.367V-8h2.461v4.609q0,1.7,1.344,1.7a1.329,1.329,0,0,0,1.063-.465,1.874,1.874,0,0,0,.4-1.262V-8h2.461Zm7.3-5.773a2.142,2.142,0,0,0-1.039-.242,1.5,1.5,0,0,0-1.258.59A2.573,2.573,0,0,0,99.9-3.82V0H97.43V-8H99.9v1.484h.031a2.136,2.136,0,0,1,2.109-1.625,1.59,1.59,0,0,1,.609.094Zm2.461-3.492a1.442,1.442,0,0,1-1.023-.371,1.2,1.2,0,0,1-.4-.91,1.153,1.153,0,0,1,.4-.906,1.49,1.49,0,0,1,1.023-.352,1.486,1.486,0,0,1,1.027.352,1.158,1.158,0,0,1,.395.906,1.191,1.191,0,0,1-.395.922A1.466,1.466,0,0,1,105.109-9.266ZM106.328,0h-2.469V-8h2.469Zm9.906,0h-2.469V-1.1h-.031A2.768,2.768,0,0,1,111.258.2a3.033,3.033,0,0,1-2.414-1.059,4.382,4.382,0,0,1-.914-2.957A4.77,4.77,0,0,1,108.938-7a3.287,3.287,0,0,1,2.641-1.2,2.246,2.246,0,0,1,2.156,1.109h.031v-4.758h2.469Zm-2.422-3.891v-.6a1.893,1.893,0,0,0-.453-1.3,1.5,1.5,0,0,0-1.18-.516,1.487,1.487,0,0,0-1.281.645,2.993,2.993,0,0,0-.461,1.77,2.59,2.59,0,0,0,.445,1.625,1.479,1.479,0,0,0,1.234.57,1.485,1.485,0,0,0,1.223-.6A2.507,2.507,0,0,0,113.813-3.891ZM124.969,0h-2.336V-1.148H122.6A2.607,2.607,0,0,1,120.219.2a2.492,2.492,0,0,1-1.832-.66,2.366,2.366,0,0,1-.668-1.762q0-2.328,2.758-2.687l2.172-.289q0-1.312-1.422-1.312a4.853,4.853,0,0,0-2.719.852V-7.523a6.116,6.116,0,0,1,1.41-.469,7.413,7.413,0,0,1,1.629-.2q3.422,0,3.422,3.414Zm-2.32-3.25v-.539L121.2-3.6q-1.2.156-1.2,1.086a.9.9,0,0,0,.293.691,1.126,1.126,0,0,0,.793.27,1.462,1.462,0,0,0,1.133-.48A1.735,1.735,0,0,0,122.648-3.25ZM134.75,0h-2.469V-1.1h-.031A2.768,2.768,0,0,1,129.773.2a3.033,3.033,0,0,1-2.414-1.059,4.382,4.382,0,0,1-.914-2.957A4.77,4.77,0,0,1,127.453-7a3.287,3.287,0,0,1,2.641-1.2,2.246,2.246,0,0,1,2.156,1.109h.031v-4.758h2.469Zm-2.422-3.891v-.6a1.893,1.893,0,0,0-.453-1.3A1.5,1.5,0,0,0,130.7-6.3a1.487,1.487,0,0,0-1.281.645,2.993,2.993,0,0,0-.461,1.77,2.59,2.59,0,0,0,.445,1.625,1.479,1.479,0,0,0,1.234.57,1.485,1.485,0,0,0,1.223-.6A2.507,2.507,0,0,0,132.328-3.891Z" transform="translate(800.333 841)" fill="#12263f"/>
    <path id="Trazado_635185" data-name="Trazado 635185" d="M48.813,16.6a7.388,7.388,0,0,1-3.2.594,5.4,5.4,0,0,1-4.055-1.516,5.54,5.54,0,0,1-1.477-4.039,5.919,5.919,0,0,1,1.66-4.359,5.807,5.807,0,0,1,4.309-1.672,8.058,8.058,0,0,1,2.766.414v2.43a4.9,4.9,0,0,0-2.562-.672,3.4,3.4,0,0,0-2.547.992,3.682,3.682,0,0,0-.969,2.688,3.611,3.611,0,0,0,.914,2.59,3.229,3.229,0,0,0,2.461.965,5.249,5.249,0,0,0,2.7-.719Zm5.523.594a4.3,4.3,0,0,1-3.145-1.121,4.064,4.064,0,0,1-1.145-3.043,4.065,4.065,0,0,1,1.188-3.105A4.487,4.487,0,0,1,54.445,8.8,4.249,4.249,0,0,1,57.57,9.926,3.985,3.985,0,0,1,58.7,12.891a4.23,4.23,0,0,1-1.168,3.148A4.348,4.348,0,0,1,54.336,17.2Zm.063-6.5a1.647,1.647,0,0,0-1.359.6,2.653,2.653,0,0,0-.484,1.7q0,2.3,1.859,2.3,1.773,0,1.773-2.367Q56.188,10.7,54.4,10.7ZM68.031,17H65.57V12.555q0-1.859-1.328-1.859a1.318,1.318,0,0,0-1.055.492,1.875,1.875,0,0,0-.414,1.25V17H60.3V9h2.469v1.266H62.8A2.829,2.829,0,0,1,65.375,8.8q2.656,0,2.656,3.3Zm6.789-.094a3.649,3.649,0,0,1-1.648.289q-2.609,0-2.609-2.711V10.82h-1.3V9h1.3V7.273l2.461-.7V9h1.8v1.82h-1.8v3.234q0,1.25.992,1.25a1.673,1.673,0,0,0,.8-.227Zm6.609-5.68a2.141,2.141,0,0,0-1.039-.242,1.5,1.5,0,0,0-1.258.59,2.573,2.573,0,0,0-.453,1.605V17H76.211V9H78.68v1.484h.031A2.136,2.136,0,0,1,80.82,8.859a1.59,1.59,0,0,1,.609.094Zm4.9,5.969a4.3,4.3,0,0,1-3.145-1.121,4.064,4.064,0,0,1-1.145-3.043,4.065,4.065,0,0,1,1.188-3.105A4.487,4.487,0,0,1,86.438,8.8a4.249,4.249,0,0,1,3.125,1.121A3.985,3.985,0,0,1,90.7,12.891a4.23,4.23,0,0,1-1.168,3.148A4.348,4.348,0,0,1,86.328,17.2Zm.063-6.5a1.647,1.647,0,0,0-1.359.6,2.653,2.653,0,0,0-.484,1.7q0,2.3,1.859,2.3,1.773,0,1.773-2.367Q88.18,10.7,86.391,10.7ZM94.766,17H92.3V5.156h2.469Zm9.266-3.3H98.813q.125,1.742,2.2,1.742a4.286,4.286,0,0,0,2.32-.625V16.6a6.1,6.1,0,0,1-2.883.594,4.058,4.058,0,0,1-3.008-1.074,4.058,4.058,0,0,1-1.07-3,4.281,4.281,0,0,1,1.156-3.156A3.852,3.852,0,0,1,100.367,8.8a3.5,3.5,0,0,1,2.707,1.039,4,4,0,0,1,.957,2.82Zm-2.289-1.516q0-1.719-1.391-1.719a1.328,1.328,0,0,0-1.027.492,2.234,2.234,0,0,0-.527,1.227Zm3.234,4.6v-2a5.256,5.256,0,0,0,1.215.547,4.028,4.028,0,0,0,1.145.18,2.455,2.455,0,0,0,1.035-.18.581.581,0,0,0,.379-.547.506.506,0,0,0-.172-.391,1.6,1.6,0,0,0-.441-.273,5.009,5.009,0,0,0-.59-.211q-.32-.094-.617-.211a5.913,5.913,0,0,1-.84-.387,2.427,2.427,0,0,1-.609-.48,1.889,1.889,0,0,1-.375-.633,2.525,2.525,0,0,1-.129-.852,2.192,2.192,0,0,1,.293-1.156,2.393,2.393,0,0,1,.781-.793,3.57,3.57,0,0,1,1.117-.453,5.825,5.825,0,0,1,1.309-.145,7.261,7.261,0,0,1,1.078.082,8.047,8.047,0,0,1,1.078.238v1.906a3.9,3.9,0,0,0-1-.41,4.235,4.235,0,0,0-1.051-.137,2.328,2.328,0,0,0-.457.043,1.505,1.505,0,0,0-.379.125.7.7,0,0,0-.258.211.486.486,0,0,0-.094.293.541.541,0,0,0,.141.375,1.221,1.221,0,0,0,.367.27,3.625,3.625,0,0,0,.5.2q.277.09.551.184a7.161,7.161,0,0,1,.891.375,2.848,2.848,0,0,1,.684.477,1.872,1.872,0,0,1,.438.641,2.563,2.563,0,0,1-.156,2.09,2.471,2.471,0,0,1-.82.82,3.72,3.72,0,0,1-1.18.461,6.54,6.54,0,0,1-1.387.145A7.149,7.149,0,0,1,104.977,16.789Z" transform="translate(724.333 1028)" fill="#12263f"/>
    <path id="Trazado_635187" data-name="Trazado 635187" d="M32.109,17H29.586V5.8h2.523Zm10.133,0H39.773V15.9h-.031a2.768,2.768,0,0,1-2.477,1.3,3.033,3.033,0,0,1-2.414-1.059,4.382,4.382,0,0,1-.914-2.957A4.77,4.77,0,0,1,34.945,10a3.287,3.287,0,0,1,2.641-1.2,2.246,2.246,0,0,1,2.156,1.109h.031V5.156h2.469ZM39.82,13.109v-.6a1.893,1.893,0,0,0-.453-1.3,1.6,1.6,0,0,0-2.461.129,2.993,2.993,0,0,0-.461,1.77,2.59,2.59,0,0,0,.445,1.625,1.581,1.581,0,0,0,2.457-.031A2.507,2.507,0,0,0,39.82,13.109Zm11.688.594H46.289q.125,1.742,2.2,1.742a4.286,4.286,0,0,0,2.32-.625V16.6a6.1,6.1,0,0,1-2.883.594,4.058,4.058,0,0,1-3.008-1.074,4.058,4.058,0,0,1-1.07-3A4.281,4.281,0,0,1,45,9.969,3.852,3.852,0,0,1,47.844,8.8a3.5,3.5,0,0,1,2.707,1.039,4,4,0,0,1,.957,2.82Zm-2.289-1.516q0-1.719-1.391-1.719a1.328,1.328,0,0,0-1.027.492,2.234,2.234,0,0,0-.527,1.227ZM60.7,17H58.242V12.555q0-1.859-1.328-1.859a1.318,1.318,0,0,0-1.055.492,1.875,1.875,0,0,0-.414,1.25V17H52.977V9h2.469v1.266h.031A2.829,2.829,0,0,1,58.047,8.8q2.656,0,2.656,3.3Zm6.789-.094a3.649,3.649,0,0,1-1.648.289q-2.609,0-2.609-2.711V10.82h-1.3V9h1.3V7.273l2.461-.7V9h1.8v1.82H65.7v3.234q0,1.25.992,1.25a1.673,1.673,0,0,0,.8-.227Zm2.641-9.172a1.442,1.442,0,0,1-1.023-.371,1.2,1.2,0,0,1-.4-.91,1.153,1.153,0,0,1,.4-.906,1.671,1.671,0,0,1,2.051,0,1.158,1.158,0,0,1,.395.906,1.191,1.191,0,0,1-.395.922A1.466,1.466,0,0,1,70.133,7.734ZM71.352,17H68.883V9h2.469Zm7.3-9.953a2.494,2.494,0,0,0-.914-.187q-1.187,0-1.187,1.289V9h1.828v1.82H76.547V17H74.086V10.82H72.742V9h1.344V8.008a2.88,2.88,0,0,1,.891-2.2A3.4,3.4,0,0,1,77.4,4.969a4.253,4.253,0,0,1,1.25.156Zm2.164.688a1.442,1.442,0,0,1-1.023-.371,1.2,1.2,0,0,1-.4-.91,1.153,1.153,0,0,1,.4-.906,1.671,1.671,0,0,1,2.051,0,1.158,1.158,0,0,1,.395.906,1.191,1.191,0,0,1-.395.922A1.466,1.466,0,0,1,80.813,7.734ZM82.031,17H79.563V9h2.469Zm8.141-.289a4.881,4.881,0,0,1-2.414.484,4.083,4.083,0,0,1-2.984-1.117A3.859,3.859,0,0,1,83.633,13.2,4.251,4.251,0,0,1,84.855,9.98,4.518,4.518,0,0,1,88.125,8.8a4.2,4.2,0,0,1,2.047.375v2.094a2.814,2.814,0,0,0-1.727-.578,2.275,2.275,0,0,0-1.684.621,2.317,2.317,0,0,0-.621,1.715,2.28,2.28,0,0,0,.594,1.668,2.182,2.182,0,0,0,1.633.605,3.258,3.258,0,0,0,1.8-.578ZM98.445,17H96.109V15.852h-.031A2.607,2.607,0,0,1,93.7,17.2a2.492,2.492,0,0,1-1.832-.66,2.366,2.366,0,0,1-.668-1.762q0-2.328,2.758-2.687l2.172-.289q0-1.312-1.422-1.312a4.853,4.853,0,0,0-2.719.852V9.477a6.116,6.116,0,0,1,1.41-.469,7.413,7.413,0,0,1,1.629-.2q3.422,0,3.422,3.414Zm-2.32-3.25v-.539l-1.453.188q-1.2.156-1.2,1.086a.9.9,0,0,0,.293.691,1.126,1.126,0,0,0,.793.27,1.462,1.462,0,0,0,1.133-.48A1.735,1.735,0,0,0,96.125,13.75Zm9.492-2.523a2.141,2.141,0,0,0-1.039-.242,1.5,1.5,0,0,0-1.258.59,2.573,2.573,0,0,0-.453,1.605V17H100.4V9h2.469v1.484h.031a2.136,2.136,0,0,1,2.109-1.625,1.59,1.59,0,0,1,.609.094Zm6.813-3.492a1.442,1.442,0,0,1-1.023-.371,1.2,1.2,0,0,1-.4-.91,1.153,1.153,0,0,1,.4-.906,1.671,1.671,0,0,1,2.051,0,1.158,1.158,0,0,1,.395.906,1.191,1.191,0,0,1-.395.922A1.466,1.466,0,0,1,112.43,7.734ZM113.648,17H111.18V9h2.469Zm9.8,0h-2.461V12.555q0-1.859-1.328-1.859a1.318,1.318,0,0,0-1.055.492,1.875,1.875,0,0,0-.414,1.25V17h-2.469V9H118.2v1.266h.031A2.829,2.829,0,0,1,120.8,8.8q2.656,0,2.656,3.3Zm8.016-.289a4.881,4.881,0,0,1-2.414.484,4.083,4.083,0,0,1-2.984-1.117A3.859,3.859,0,0,1,124.93,13.2a4.251,4.251,0,0,1,1.223-3.215,4.518,4.518,0,0,1,3.27-1.176,4.2,4.2,0,0,1,2.047.375v2.094a2.814,2.814,0,0,0-1.727-.578,2.275,2.275,0,0,0-1.684.621,2.317,2.317,0,0,0-.621,1.715,2.28,2.28,0,0,0,.594,1.668,2.182,2.182,0,0,0,1.633.605,3.258,3.258,0,0,0,1.8-.578Zm2.867-8.977a1.442,1.442,0,0,1-1.023-.371,1.2,1.2,0,0,1-.4-.91,1.153,1.153,0,0,1,.4-.906,1.671,1.671,0,0,1,2.051,0,1.158,1.158,0,0,1,.395.906,1.191,1.191,0,0,1-.395.922A1.466,1.466,0,0,1,134.336,7.734ZM135.555,17h-2.469V9h2.469Zm9.906,0h-2.469V15.9h-.031a2.768,2.768,0,0,1-2.477,1.3,3.033,3.033,0,0,1-2.414-1.059,4.382,4.382,0,0,1-.914-2.957A4.77,4.77,0,0,1,138.164,10,3.287,3.287,0,0,1,140.8,8.8a2.246,2.246,0,0,1,2.156,1.109h.031V5.156h2.469Zm-2.422-3.891v-.6a1.893,1.893,0,0,0-.453-1.3,1.6,1.6,0,0,0-2.461.129,2.993,2.993,0,0,0-.461,1.77,2.59,2.59,0,0,0,.445,1.625,1.581,1.581,0,0,0,2.457-.031A2.507,2.507,0,0,0,143.039,13.109Zm11.688.594h-5.219q.125,1.742,2.2,1.742a4.286,4.286,0,0,0,2.32-.625V16.6a6.1,6.1,0,0,1-2.883.594,4.058,4.058,0,0,1-3.008-1.074,4.058,4.058,0,0,1-1.07-3,4.281,4.281,0,0,1,1.156-3.156A3.852,3.852,0,0,1,151.063,8.8a3.5,3.5,0,0,1,2.707,1.039,4,4,0,0,1,.957,2.82Zm-2.289-1.516q0-1.719-1.391-1.719a1.328,1.328,0,0,0-1.027.492,2.234,2.234,0,0,0-.527,1.227ZM163.922,17h-2.461V12.555q0-1.859-1.328-1.859a1.318,1.318,0,0,0-1.055.492,1.875,1.875,0,0,0-.414,1.25V17H156.2V9h2.469v1.266h.031a2.829,2.829,0,0,1,2.57-1.461q2.656,0,2.656,3.3Zm6.789-.094a3.649,3.649,0,0,1-1.648.289q-2.609,0-2.609-2.711V10.82h-1.3V9h1.3V7.273l2.461-.7V9h1.8v1.82h-1.8v3.234q0,1.25.992,1.25a1.673,1.673,0,0,0,.8-.227Zm8.516-3.2h-5.219q.125,1.742,2.2,1.742a4.286,4.286,0,0,0,2.32-.625V16.6a6.1,6.1,0,0,1-2.883.594,4.058,4.058,0,0,1-3.008-1.074,4.058,4.058,0,0,1-1.07-3,4.281,4.281,0,0,1,1.156-3.156A3.852,3.852,0,0,1,175.563,8.8a3.5,3.5,0,0,1,2.707,1.039,4,4,0,0,1,.957,2.82Zm-2.289-1.516q0-1.719-1.391-1.719a1.328,1.328,0,0,0-1.027.492,2.234,2.234,0,0,0-.527,1.227Zm3.234,4.6v-2a5.256,5.256,0,0,0,1.215.547,4.028,4.028,0,0,0,1.145.18,2.455,2.455,0,0,0,1.035-.18.581.581,0,0,0,.379-.547.506.506,0,0,0-.172-.391,1.6,1.6,0,0,0-.441-.273,5.009,5.009,0,0,0-.59-.211q-.32-.094-.617-.211a5.914,5.914,0,0,1-.84-.387,2.427,2.427,0,0,1-.609-.48,1.889,1.889,0,0,1-.375-.633,2.525,2.525,0,0,1-.129-.852,2.192,2.192,0,0,1,.293-1.156,2.393,2.393,0,0,1,.781-.793,3.57,3.57,0,0,1,1.117-.453,5.825,5.825,0,0,1,1.309-.145,7.261,7.261,0,0,1,1.078.082,8.047,8.047,0,0,1,1.078.238v1.906a3.9,3.9,0,0,0-1-.41,4.235,4.235,0,0,0-1.051-.137,2.328,2.328,0,0,0-.457.043,1.505,1.505,0,0,0-.379.125.7.7,0,0,0-.258.211.486.486,0,0,0-.094.293.541.541,0,0,0,.141.375,1.221,1.221,0,0,0,.367.27,3.625,3.625,0,0,0,.5.2q.277.09.551.184a7.161,7.161,0,0,1,.891.375,2.848,2.848,0,0,1,.684.477,1.871,1.871,0,0,1,.438.641A2.563,2.563,0,0,1,186,15.77a2.471,2.471,0,0,1-.82.82,3.72,3.72,0,0,1-1.18.461,6.54,6.54,0,0,1-1.387.145A7.149,7.149,0,0,1,180.172,16.789Z" transform="translate(692.333 1260)" fill="#12263f"/>
    <path id="Trazado_635186" data-name="Trazado 635186" d="M20.691,13.141V17H18.168V5.8h3.953q4.234,0,4.234,3.57a3.426,3.426,0,0,1-1.215,2.73,4.813,4.813,0,0,1-3.246,1.043Zm0-5.406v3.492h.992q2.016,0,2.016-1.766,0-1.727-2.016-1.727Zm12.281,3.492a2.142,2.142,0,0,0-1.039-.242,1.5,1.5,0,0,0-1.258.59,2.573,2.573,0,0,0-.453,1.605V17H27.754V9h2.469v1.484h.031a2.136,2.136,0,0,1,2.109-1.625,1.59,1.59,0,0,1,.609.094Zm4.9,5.969a4.3,4.3,0,0,1-3.145-1.121,4.064,4.064,0,0,1-1.145-3.043A4.065,4.065,0,0,1,34.77,9.926,4.487,4.487,0,0,1,37.98,8.8a4.249,4.249,0,0,1,3.125,1.121,3.985,3.985,0,0,1,1.133,2.965,4.23,4.23,0,0,1-1.168,3.148A4.348,4.348,0,0,1,37.871,17.2Zm.063-6.5a1.647,1.647,0,0,0-1.359.6A2.653,2.653,0,0,0,36.09,13q0,2.3,1.859,2.3,1.773,0,1.773-2.367Q39.723,10.7,37.934,10.7ZM49.9,16.711a4.881,4.881,0,0,1-2.414.484A4.083,4.083,0,0,1,44.5,16.078,3.859,3.859,0,0,1,43.363,13.2,4.251,4.251,0,0,1,44.586,9.98,4.518,4.518,0,0,1,47.855,8.8,4.2,4.2,0,0,1,49.9,9.18v2.094a2.814,2.814,0,0,0-1.727-.578,2.275,2.275,0,0,0-1.684.621,2.317,2.317,0,0,0-.621,1.715,2.28,2.28,0,0,0,.594,1.668A2.182,2.182,0,0,0,48.1,15.3a3.258,3.258,0,0,0,1.8-.578Zm8.8-3.008H53.488q.125,1.742,2.2,1.742A4.286,4.286,0,0,0,58,14.82V16.6a6.1,6.1,0,0,1-2.883.594,4.058,4.058,0,0,1-3.008-1.074,4.058,4.058,0,0,1-1.07-3A4.281,4.281,0,0,1,52.2,9.969,3.852,3.852,0,0,1,55.043,8.8,3.5,3.5,0,0,1,57.75,9.844a4,4,0,0,1,.957,2.82Zm-2.289-1.516q0-1.719-1.391-1.719A1.328,1.328,0,0,0,54,10.961a2.234,2.234,0,0,0-.527,1.227ZM68,17H65.535V15.9H65.5a2.768,2.768,0,0,1-2.477,1.3,3.033,3.033,0,0,1-2.414-1.059A4.382,4.382,0,0,1,59.7,13.18,4.77,4.77,0,0,1,60.707,10a3.287,3.287,0,0,1,2.641-1.2A2.246,2.246,0,0,1,65.5,9.914h.031V5.156H68Zm-2.422-3.891v-.6a1.893,1.893,0,0,0-.453-1.3,1.6,1.6,0,0,0-2.461.129,2.993,2.993,0,0,0-.461,1.77,2.59,2.59,0,0,0,.445,1.625,1.581,1.581,0,0,0,2.457-.031A2.507,2.507,0,0,0,65.582,13.109Zm5.75-5.375a1.442,1.442,0,0,1-1.023-.371,1.2,1.2,0,0,1-.4-.91,1.153,1.153,0,0,1,.4-.906,1.671,1.671,0,0,1,2.051,0,1.158,1.158,0,0,1,.395.906,1.191,1.191,0,0,1-.395.922A1.466,1.466,0,0,1,71.332,7.734ZM72.551,17H70.082V9h2.469Zm14.781,0H84.871V12.438q0-1.742-1.281-1.742a1.177,1.177,0,0,0-.992.523,2.151,2.151,0,0,0-.383,1.3V17H79.746V12.391q0-1.7-1.258-1.7a1.206,1.206,0,0,0-1.012.5,2.2,2.2,0,0,0-.379,1.359V17H74.629V9H77.1v1.25h.031A3.031,3.031,0,0,1,79.715,8.8a2.3,2.3,0,0,1,2.32,1.492A2.959,2.959,0,0,1,84.723,8.8q2.609,0,2.609,3.219Zm3.2-9.266a1.442,1.442,0,0,1-1.023-.371,1.2,1.2,0,0,1-.4-.91,1.153,1.153,0,0,1,.4-.906,1.671,1.671,0,0,1,2.051,0,1.158,1.158,0,0,1,.395.906,1.191,1.191,0,0,1-.395.922A1.466,1.466,0,0,1,90.535,7.734ZM91.754,17H89.285V9h2.469Zm9.266-3.3H95.8q.125,1.742,2.2,1.742a4.286,4.286,0,0,0,2.32-.625V16.6a6.1,6.1,0,0,1-2.883.594,4.058,4.058,0,0,1-3.008-1.074,4.058,4.058,0,0,1-1.07-3,4.281,4.281,0,0,1,1.156-3.156A3.852,3.852,0,0,1,97.355,8.8a3.5,3.5,0,0,1,2.707,1.039,4,4,0,0,1,.957,2.82ZM98.73,12.188q0-1.719-1.391-1.719a1.328,1.328,0,0,0-1.027.492,2.234,2.234,0,0,0-.527,1.227ZM110.215,17h-2.461V12.555q0-1.859-1.328-1.859a1.318,1.318,0,0,0-1.055.492,1.875,1.875,0,0,0-.414,1.25V17h-2.469V9h2.469v1.266h.031a2.829,2.829,0,0,1,2.57-1.461q2.656,0,2.656,3.3ZM117,16.906a3.649,3.649,0,0,1-1.648.289q-2.609,0-2.609-2.711V10.82h-1.3V9h1.3V7.273l2.461-.7V9H117v1.82h-1.8v3.234q0,1.25.992,1.25a1.673,1.673,0,0,0,.8-.227Zm5.141.289A4.3,4.3,0,0,1,119,16.074a4.064,4.064,0,0,1-1.145-3.043,4.065,4.065,0,0,1,1.188-3.105A4.487,4.487,0,0,1,122.254,8.8a4.249,4.249,0,0,1,3.125,1.121,3.985,3.985,0,0,1,1.133,2.965,4.23,4.23,0,0,1-1.168,3.148A4.348,4.348,0,0,1,122.145,17.2Zm.063-6.5a1.647,1.647,0,0,0-1.359.6,2.653,2.653,0,0,0-.484,1.7q0,2.3,1.859,2.3Q124,15.3,124,12.938,124,10.7,122.207,10.7Zm5.383,6.094v-2a5.256,5.256,0,0,0,1.215.547,4.028,4.028,0,0,0,1.145.18,2.455,2.455,0,0,0,1.035-.18.581.581,0,0,0,.379-.547.506.506,0,0,0-.172-.391,1.6,1.6,0,0,0-.441-.273,5.009,5.009,0,0,0-.59-.211q-.32-.094-.617-.211a5.914,5.914,0,0,1-.84-.387,2.427,2.427,0,0,1-.609-.48,1.889,1.889,0,0,1-.375-.633,2.525,2.525,0,0,1-.129-.852,2.192,2.192,0,0,1,.293-1.156,2.393,2.393,0,0,1,.781-.793,3.57,3.57,0,0,1,1.117-.453A5.825,5.825,0,0,1,131.09,8.8a7.261,7.261,0,0,1,1.078.082,8.047,8.047,0,0,1,1.078.238v1.906a3.9,3.9,0,0,0-1-.41,4.235,4.235,0,0,0-1.051-.137,2.328,2.328,0,0,0-.457.043,1.505,1.505,0,0,0-.379.125.7.7,0,0,0-.258.211.486.486,0,0,0-.094.293.541.541,0,0,0,.141.375,1.221,1.221,0,0,0,.367.27,3.625,3.625,0,0,0,.5.2q.277.09.551.184a7.161,7.161,0,0,1,.891.375,2.848,2.848,0,0,1,.684.477,1.871,1.871,0,0,1,.438.641,2.563,2.563,0,0,1-.156,2.09,2.471,2.471,0,0,1-.82.82,3.72,3.72,0,0,1-1.18.461,6.54,6.54,0,0,1-1.387.145A7.149,7.149,0,0,1,127.59,16.789Z" transform="translate(1092.333 1028)" fill="#12263f"/>
    <path id="Trazado_635184" data-name="Trazado 635184" d="M53.477,17h-2.75l-.8-2.492H45.945L45.156,17H42.422L46.5,5.8h2.992Zm-4.125-4.43L48.148,8.8A4.907,4.907,0,0,1,47.961,7.8H47.9a4.273,4.273,0,0,1-.2.977l-1.219,3.8ZM60.7,16.711a4.881,4.881,0,0,1-2.414.484A4.083,4.083,0,0,1,55.3,16.078,3.859,3.859,0,0,1,54.156,13.2,4.251,4.251,0,0,1,55.379,9.98,4.518,4.518,0,0,1,58.648,8.8,4.2,4.2,0,0,1,60.7,9.18v2.094a2.814,2.814,0,0,0-1.727-.578,2.275,2.275,0,0,0-1.684.621,2.317,2.317,0,0,0-.621,1.715,2.28,2.28,0,0,0,.594,1.668,2.182,2.182,0,0,0,1.633.605,3.258,3.258,0,0,0,1.8-.578Zm7.68,0a4.881,4.881,0,0,1-2.414.484,4.083,4.083,0,0,1-2.984-1.117A3.859,3.859,0,0,1,61.836,13.2,4.251,4.251,0,0,1,63.059,9.98,4.518,4.518,0,0,1,66.328,8.8a4.2,4.2,0,0,1,2.047.375v2.094a2.814,2.814,0,0,0-1.727-.578,2.275,2.275,0,0,0-1.684.621,2.317,2.317,0,0,0-.621,1.715,2.28,2.28,0,0,0,.594,1.668,2.182,2.182,0,0,0,1.633.605,3.258,3.258,0,0,0,1.8-.578Zm2.867-8.977a1.442,1.442,0,0,1-1.023-.371,1.2,1.2,0,0,1-.4-.91,1.153,1.153,0,0,1,.4-.906,1.671,1.671,0,0,1,2.051,0,1.158,1.158,0,0,1,.395.906,1.191,1.191,0,0,1-.395.922A1.466,1.466,0,0,1,71.242,7.734ZM72.461,17H69.992V9h2.469Zm5.891.2a4.3,4.3,0,0,1-3.145-1.121,4.064,4.064,0,0,1-1.145-3.043A4.065,4.065,0,0,1,75.25,9.926,4.487,4.487,0,0,1,78.461,8.8a4.249,4.249,0,0,1,3.125,1.121,3.985,3.985,0,0,1,1.133,2.965,4.23,4.23,0,0,1-1.168,3.148A4.348,4.348,0,0,1,78.352,17.2Zm.063-6.5a1.647,1.647,0,0,0-1.359.6A2.653,2.653,0,0,0,76.57,13q0,2.3,1.859,2.3,1.773,0,1.773-2.367Q80.2,10.7,78.414,10.7ZM92.047,17H89.586V12.555q0-1.859-1.328-1.859a1.318,1.318,0,0,0-1.055.492,1.875,1.875,0,0,0-.414,1.25V17H84.32V9h2.469v1.266h.031A2.829,2.829,0,0,1,89.391,8.8q2.656,0,2.656,3.3Zm9.141-3.3H95.969q.125,1.742,2.2,1.742a4.286,4.286,0,0,0,2.32-.625V16.6A6.1,6.1,0,0,1,97.6,17.2a4.058,4.058,0,0,1-3.008-1.074,4.058,4.058,0,0,1-1.07-3A4.281,4.281,0,0,1,94.68,9.969,3.852,3.852,0,0,1,97.523,8.8a3.5,3.5,0,0,1,2.707,1.039,4,4,0,0,1,.957,2.82ZM98.9,12.188q0-1.719-1.391-1.719a1.328,1.328,0,0,0-1.027.492,2.234,2.234,0,0,0-.527,1.227Zm3.234,4.6v-2a5.256,5.256,0,0,0,1.215.547,4.028,4.028,0,0,0,1.145.18,2.455,2.455,0,0,0,1.035-.18.581.581,0,0,0,.379-.547.506.506,0,0,0-.172-.391,1.6,1.6,0,0,0-.441-.273,5.009,5.009,0,0,0-.59-.211q-.32-.094-.617-.211a5.913,5.913,0,0,1-.84-.387,2.427,2.427,0,0,1-.609-.48,1.889,1.889,0,0,1-.375-.633,2.525,2.525,0,0,1-.129-.852,2.192,2.192,0,0,1,.293-1.156,2.393,2.393,0,0,1,.781-.793,3.57,3.57,0,0,1,1.117-.453,5.825,5.825,0,0,1,1.309-.145,7.261,7.261,0,0,1,1.078.082,8.047,8.047,0,0,1,1.078.238v1.906a3.9,3.9,0,0,0-1-.41,4.235,4.235,0,0,0-1.051-.137,2.328,2.328,0,0,0-.457.043,1.505,1.505,0,0,0-.379.125.7.7,0,0,0-.258.211.486.486,0,0,0-.094.293.541.541,0,0,0,.141.375,1.221,1.221,0,0,0,.367.27,3.625,3.625,0,0,0,.5.2q.277.09.551.184a7.161,7.161,0,0,1,.891.375,2.848,2.848,0,0,1,.684.477,1.872,1.872,0,0,1,.438.641,2.563,2.563,0,0,1-.156,2.09,2.471,2.471,0,0,1-.82.82,3.72,3.72,0,0,1-1.18.461,6.54,6.54,0,0,1-1.387.145A7.149,7.149,0,0,1,102.133,16.789Z" transform="translate(357.333 1028)" fill="#12263f"/>
    <g id="Grupo_81179" data-name="Grupo 81179" transform="translate(0 107)">
      <rect id="Rectángulo_34155" data-name="Rectángulo 34155" width="88" height="22" transform="translate(753.333 495)" fill="#fff"/>
      <text id="permite" transform="translate(797.333 510)" fill="#12263f" font-size="14" font-family="SegoeUI, Segoe UI"><tspan x="-23.967" y="0">permite</tspan></text>
    </g>
    <g id="Grupo_81180" data-name="Grupo 81180" transform="translate(0 244)">
      <rect id="Rectángulo_34155-2" data-name="Rectángulo 34155" width="88" height="22" transform="translate(753.333 495)" fill="#fff"/>
      <text id="para_" data-name="para " transform="translate(797.333 510)" fill="#12263f" font-size="14" font-family="SegoeUI, Segoe UI"><tspan x="-15.589" y="0">para </tspan></text>
    </g>
    <g id="Grupo_81181" data-name="Grupo 81181" transform="translate(0 413)">
      <rect id="Rectángulo_34155-3" data-name="Rectángulo 34155" width="88" height="22" transform="translate(753.333 495)" fill="#fff"/>
      <text id="Implementando" transform="translate(797.333 510)" fill="#12263f" font-size="14" font-family="SegoeUI, Segoe UI"><tspan x="-49.133" y="0">Implementando</tspan></text>
    </g>
    <g id="Grupo_949557" data-name="Grupo 949557" transform="translate(0 641)">
      <rect id="Rectángulo_34155-4" data-name="Rectángulo 34155" width="134" height="22" transform="translate(730.333 495)" fill="#fff"/>
      <text id="que_facilitan" data-name="que facilitan" transform="translate(797.333 510)" fill="#12263f" font-size="14" font-family="SegoeUI, Segoe UI"><tspan x="-37.628" y="0">que facilitan</tspan></text>
    </g>
    <g id="Grupo_949558" data-name="Grupo 949558" transform="translate(0 865)">
      <rect id="Rectángulo_34155-5" data-name="Rectángulo 34155" width="134" height="22" transform="translate(730.333 495)" fill="#fff"/>
      <text id="A_partir_de_fases_como" data-name="A partir de fases como" transform="translate(797.333 510)" fill="#12263f" font-size="14" font-family="SegoeUI, Segoe UI"><tspan x="-69.398" y="0">A partir de fases como</tspan></text>
    </g>
    <line id="Línea_248" data-name="Línea 248" y1="78" transform="translate(380.833 1413.5)" fill="none" stroke="#583ae2" stroke-width="3"/>
    <line id="Línea_249" data-name="Línea 249" y1="78" transform="translate(590.333 1413.5)" fill="none" stroke="#583ae2" stroke-width="3"/>
    <line id="Línea_250" data-name="Línea 250" y1="78" transform="translate(799.833 1413.5)" fill="none" stroke="#583ae2" stroke-width="3"/>
    <line id="Línea_251" data-name="Línea 251" y1="78" transform="translate(1010.333 1413.5)" fill="none" stroke="#583ae2" stroke-width="3"/>
    <line id="Línea_252" data-name="Línea 252" y1="78" transform="translate(1220.833 1413.5)" fill="none" stroke="#583ae2" stroke-width="3"/>
    <rect id="Rectángulo_42183" data-name="Rectángulo 42183" width="190" height="66" rx="20" transform="translate(285.333 1472)" fill="#e6e1fb"/>
    <rect id="Rectángulo_42184" data-name="Rectángulo 42184" width="190" height="66" rx="20" transform="translate(495.333 1472)" fill="#e6e1fb"/>
    <rect id="Rectángulo_42185" data-name="Rectángulo 42185" width="190" height="66" rx="20" transform="translate(705.333 1472)" fill="#e6e1fb"/>
    <rect id="Rectángulo_42186" data-name="Rectángulo 42186" width="190" height="66" rx="20" transform="translate(915.333 1472)" fill="#e6e1fb"/>
    <rect id="Rectángulo_42187" data-name="Rectángulo 42187" width="190" height="66" rx="20" transform="translate(1125.333 1472)" fill="#e6e1fb"/>
    <path id="Trazado_635188" data-name="Trazado 635188" d="M-36.035,0V-11.2h3.969q5.969,0,5.969,5.461a5.522,5.522,0,0,1-1.629,4.18A6.007,6.007,0,0,1-32.066,0Zm2.523-9.148v7.1h1.25a3.378,3.378,0,0,0,2.574-.984,3.735,3.735,0,0,0,.934-2.68,3.388,3.388,0,0,0-.926-2.52,3.529,3.529,0,0,0-2.6-.918ZM-17.293-3.3h-5.219q.125,1.742,2.2,1.742A4.286,4.286,0,0,0-18-2.18V-.4A6.1,6.1,0,0,1-20.879.2,4.058,4.058,0,0,1-23.887-.879a4.058,4.058,0,0,1-1.07-3A4.281,4.281,0,0,1-23.8-7.031,3.852,3.852,0,0,1-20.957-8.2,3.5,3.5,0,0,1-18.25-7.156a4,4,0,0,1,.957,2.82Zm-2.289-1.516q0-1.719-1.391-1.719A1.328,1.328,0,0,0-22-6.039a2.234,2.234,0,0,0-.527,1.227Zm8.594,4.719A3.649,3.649,0,0,1-12.637.2q-2.609,0-2.609-2.711V-6.18h-1.3V-8h1.3V-9.727l2.461-.7V-8h1.8v1.82h-1.8v3.234q0,1.25.992,1.25a1.673,1.673,0,0,0,.8-.227Zm8.516-3.2H-7.691q.125,1.742,2.2,1.742a4.286,4.286,0,0,0,2.32-.625V-.4A6.1,6.1,0,0,1-6.059.2,4.058,4.058,0,0,1-9.066-.879a4.058,4.058,0,0,1-1.07-3A4.281,4.281,0,0,1-8.98-7.031,3.852,3.852,0,0,1-6.137-8.2,3.5,3.5,0,0,1-3.43-7.156a4,4,0,0,1,.957,2.82ZM-4.762-4.812q0-1.719-1.391-1.719a1.328,1.328,0,0,0-1.027.492,2.234,2.234,0,0,0-.527,1.227ZM5.059-.289A4.881,4.881,0,0,1,2.645.2,4.083,4.083,0,0,1-.34-.922,3.859,3.859,0,0,1-1.48-3.8,4.251,4.251,0,0,1-.258-7.02,4.518,4.518,0,0,1,3.012-8.2a4.2,4.2,0,0,1,2.047.375v2.094A2.814,2.814,0,0,0,3.332-6.3a2.275,2.275,0,0,0-1.684.621,2.317,2.317,0,0,0-.621,1.715A2.28,2.28,0,0,0,1.621-2.3,2.182,2.182,0,0,0,3.254-1.7a3.258,3.258,0,0,0,1.8-.578Zm7.68,0A4.881,4.881,0,0,1,10.324.2,4.083,4.083,0,0,1,7.34-.922,3.859,3.859,0,0,1,6.2-3.8,4.251,4.251,0,0,1,7.422-7.02,4.518,4.518,0,0,1,10.691-8.2a4.2,4.2,0,0,1,2.047.375v2.094A2.814,2.814,0,0,0,11.012-6.3a2.275,2.275,0,0,0-1.684.621,2.317,2.317,0,0,0-.621,1.715A2.28,2.28,0,0,0,9.3-2.3a2.182,2.182,0,0,0,1.633.605,3.258,3.258,0,0,0,1.8-.578Zm2.867-8.977a1.442,1.442,0,0,1-1.023-.371,1.2,1.2,0,0,1-.4-.91,1.153,1.153,0,0,1,.4-.906,1.49,1.49,0,0,1,1.023-.352,1.486,1.486,0,0,1,1.027.352,1.158,1.158,0,0,1,.395.906,1.191,1.191,0,0,1-.395.922A1.466,1.466,0,0,1,15.605-9.266ZM16.824,0H14.355V-8h2.469Zm5.891.2A4.3,4.3,0,0,1,19.57-.926a4.064,4.064,0,0,1-1.145-3.043,4.065,4.065,0,0,1,1.188-3.105A4.487,4.487,0,0,1,22.824-8.2a4.249,4.249,0,0,1,3.125,1.121,3.985,3.985,0,0,1,1.133,2.965A4.23,4.23,0,0,1,25.914-.961,4.348,4.348,0,0,1,22.715.2Zm.063-6.5a1.647,1.647,0,0,0-1.359.6A2.653,2.653,0,0,0,20.934-4q0,2.3,1.859,2.3,1.773,0,1.773-2.367Q24.566-6.3,22.777-6.3Zm2.648-5.484L22.98-9.266H21.2l2.031-2.523ZM36.4,0H33.941V-4.445q0-1.859-1.328-1.859a1.318,1.318,0,0,0-1.055.492,1.875,1.875,0,0,0-.414,1.25V0H28.676V-8h2.469v1.266h.031A2.829,2.829,0,0,1,33.746-8.2Q36.4-8.2,36.4-4.9Z" transform="translate(380.333 1511)" fill="#12263f"/>
    <path id="Trazado_635189" data-name="Trazado 635189" d="M-32.035,0h-6.719V-11.2h6.461v2.055H-36.23v2.492h3.664v2.047H-36.23v2.563h4.2Zm9.172-8L-25.84,0h-2.812l-2.836-8h2.641l1.391,4.93a7.2,7.2,0,0,1,.273,1.422h.031a8.069,8.069,0,0,1,.289-1.375L-25.441-8Zm7.469,8H-17.73V-1.148h-.031A2.607,2.607,0,0,1-20.145.2a2.492,2.492,0,0,1-1.832-.66,2.366,2.366,0,0,1-.668-1.762q0-2.328,2.758-2.687l2.172-.289q0-1.312-1.422-1.312a4.853,4.853,0,0,0-2.719.852V-7.523a6.116,6.116,0,0,1,1.41-.469,7.413,7.413,0,0,1,1.629-.2q3.422,0,3.422,3.414Zm-2.32-3.25v-.539l-1.453.188q-1.2.156-1.2,1.086a.9.9,0,0,0,.293.691,1.126,1.126,0,0,0,.793.27,1.462,1.462,0,0,0,1.133-.48A1.735,1.735,0,0,0-17.715-3.25ZM-10.973,0h-2.469V-11.844h2.469Zm9.68,0H-3.754V-1.219h-.039A2.792,2.792,0,0,1-6.238.2Q-9.02.2-9.02-3.172V-8h2.461v4.609q0,1.7,1.344,1.7A1.329,1.329,0,0,0-4.152-2.16a1.874,1.874,0,0,0,.4-1.262V-8h2.461ZM7.441,0H5.105V-1.148H5.074A2.607,2.607,0,0,1,2.691.2,2.492,2.492,0,0,1,.859-.465,2.366,2.366,0,0,1,.191-2.227q0-2.328,2.758-2.687L5.121-5.2q0-1.312-1.422-1.312A4.853,4.853,0,0,0,.98-5.664V-7.523a6.116,6.116,0,0,1,1.41-.469A7.413,7.413,0,0,1,4.02-8.2q3.422,0,3.422,3.414ZM5.121-3.25v-.539L3.668-3.6q-1.2.156-1.2,1.086a.9.9,0,0,0,.293.691,1.126,1.126,0,0,0,.793.27,1.462,1.462,0,0,0,1.133-.48A1.735,1.735,0,0,0,5.121-3.25ZM15.457-.289A4.881,4.881,0,0,1,13.043.2,4.083,4.083,0,0,1,10.059-.922,3.859,3.859,0,0,1,8.918-3.8,4.251,4.251,0,0,1,10.141-7.02,4.518,4.518,0,0,1,13.41-8.2a4.2,4.2,0,0,1,2.047.375v2.094A2.814,2.814,0,0,0,13.73-6.3a2.275,2.275,0,0,0-1.684.621,2.317,2.317,0,0,0-.621,1.715A2.28,2.28,0,0,0,12.02-2.3a2.182,2.182,0,0,0,1.633.605,3.258,3.258,0,0,0,1.8-.578Zm2.867-8.977A1.442,1.442,0,0,1,17.3-9.637a1.2,1.2,0,0,1-.4-.91,1.153,1.153,0,0,1,.4-.906,1.49,1.49,0,0,1,1.023-.352,1.486,1.486,0,0,1,1.027.352,1.158,1.158,0,0,1,.395.906,1.191,1.191,0,0,1-.395.922A1.466,1.466,0,0,1,18.324-9.266ZM19.543,0H17.074V-8h2.469Zm5.891.2A4.3,4.3,0,0,1,22.289-.926a4.064,4.064,0,0,1-1.145-3.043,4.065,4.065,0,0,1,1.188-3.105A4.487,4.487,0,0,1,25.543-8.2a4.249,4.249,0,0,1,3.125,1.121A3.985,3.985,0,0,1,29.8-4.109,4.23,4.23,0,0,1,28.633-.961,4.348,4.348,0,0,1,25.434.2ZM25.5-6.3a1.647,1.647,0,0,0-1.359.6A2.653,2.653,0,0,0,23.652-4q0,2.3,1.859,2.3,1.773,0,1.773-2.367Q27.285-6.3,25.5-6.3Zm2.648-5.484L25.7-9.266H23.918l2.031-2.523ZM39.121,0H36.66V-4.445q0-1.859-1.328-1.859a1.318,1.318,0,0,0-1.055.492,1.875,1.875,0,0,0-.414,1.25V0H31.395V-8h2.469v1.266h.031A2.829,2.829,0,0,1,36.465-8.2q2.656,0,2.656,3.3Z" transform="translate(590.333 1511)" fill="#12263f"/>
    <path id="Trazado_635190" data-name="Trazado 635190" d="M-33.5-.4A7.388,7.388,0,0,1-36.7.2,5.4,5.4,0,0,1-40.758-1.32a5.54,5.54,0,0,1-1.477-4.039,5.919,5.919,0,0,1,1.66-4.359,5.807,5.807,0,0,1,4.309-1.672,8.058,8.058,0,0,1,2.766.414v2.43a4.9,4.9,0,0,0-2.562-.672,3.4,3.4,0,0,0-2.547.992,3.682,3.682,0,0,0-.969,2.688,3.611,3.611,0,0,0,.914,2.59,3.229,3.229,0,0,0,2.461.965A5.249,5.249,0,0,0-33.5-2.7ZM-27.977.2A4.3,4.3,0,0,1-31.121-.926a4.064,4.064,0,0,1-1.145-3.043,4.065,4.065,0,0,1,1.188-3.105A4.487,4.487,0,0,1-27.867-8.2a4.249,4.249,0,0,1,3.125,1.121,3.985,3.985,0,0,1,1.133,2.965A4.23,4.23,0,0,1-24.777-.961,4.348,4.348,0,0,1-27.977.2Zm.063-6.5a1.647,1.647,0,0,0-1.359.6A2.653,2.653,0,0,0-29.758-4q0,2.3,1.859,2.3,1.773,0,1.773-2.367Q-26.125-6.3-27.914-6.3ZM-14.281,0h-2.461V-4.445q0-1.859-1.328-1.859a1.318,1.318,0,0,0-1.055.492,1.875,1.875,0,0,0-.414,1.25V0h-2.469V-8h2.469v1.266h.031A2.829,2.829,0,0,1-16.937-8.2q2.656,0,2.656,3.3Zm6.789-.094A3.649,3.649,0,0,1-9.141.2Q-11.75.2-11.75-2.516V-6.18h-1.3V-8h1.3V-9.727l2.461-.7V-8h1.8v1.82h-1.8v3.234q0,1.25.992,1.25a1.673,1.673,0,0,0,.8-.227ZM1.023-3.3H-4.2Q-4.07-1.555-2-1.555A4.286,4.286,0,0,0,.32-2.18V-.4A6.1,6.1,0,0,1-2.562.2,4.058,4.058,0,0,1-5.57-.879a4.058,4.058,0,0,1-1.07-3A4.281,4.281,0,0,1-5.484-7.031,3.852,3.852,0,0,1-2.641-8.2,3.5,3.5,0,0,1,.066-7.156a4,4,0,0,1,.957,2.82ZM-1.266-4.812q0-1.719-1.391-1.719a1.328,1.328,0,0,0-1.027.492,2.234,2.234,0,0,0-.527,1.227ZM10.219,0H7.758V-4.445Q7.758-6.3,6.43-6.3a1.318,1.318,0,0,0-1.055.492,1.875,1.875,0,0,0-.414,1.25V0H2.492V-8H4.961v1.266h.031A2.829,2.829,0,0,1,7.563-8.2q2.656,0,2.656,3.3Zm8.016-.289A4.881,4.881,0,0,1,15.82.2,4.083,4.083,0,0,1,12.836-.922,3.859,3.859,0,0,1,11.7-3.8,4.251,4.251,0,0,1,12.918-7.02,4.518,4.518,0,0,1,16.188-8.2a4.2,4.2,0,0,1,2.047.375v2.094A2.814,2.814,0,0,0,16.508-6.3a2.275,2.275,0,0,0-1.684.621A2.317,2.317,0,0,0,14.2-3.969,2.28,2.28,0,0,0,14.8-2.3,2.182,2.182,0,0,0,16.43-1.7a3.258,3.258,0,0,0,1.8-.578ZM21.1-9.266a1.442,1.442,0,0,1-1.023-.371,1.2,1.2,0,0,1-.4-.91,1.153,1.153,0,0,1,.4-.906A1.49,1.49,0,0,1,21.1-11.8a1.486,1.486,0,0,1,1.027.352,1.158,1.158,0,0,1,.395.906,1.191,1.191,0,0,1-.395.922A1.466,1.466,0,0,1,21.1-9.266ZM22.32,0H19.852V-8H22.32Zm5.891.2A4.3,4.3,0,0,1,25.066-.926a4.064,4.064,0,0,1-1.145-3.043,4.065,4.065,0,0,1,1.188-3.105A4.487,4.487,0,0,1,28.32-8.2a4.249,4.249,0,0,1,3.125,1.121,3.985,3.985,0,0,1,1.133,2.965A4.23,4.23,0,0,1,31.41-.961,4.348,4.348,0,0,1,28.211.2Zm.063-6.5a1.647,1.647,0,0,0-1.359.6A2.653,2.653,0,0,0,26.43-4q0,2.3,1.859,2.3,1.773,0,1.773-2.367Q30.063-6.3,28.273-6.3Zm2.648-5.484L28.477-9.266H26.7l2.031-2.523ZM41.9,0H39.438V-4.445q0-1.859-1.328-1.859a1.318,1.318,0,0,0-1.055.492,1.875,1.875,0,0,0-.414,1.25V0H34.172V-8h2.469v1.266h.031A2.829,2.829,0,0,1,39.242-8.2Q41.9-8.2,41.9-4.9Z" transform="translate(800.333 1511)" fill="#12263f"/>
    <path id="Trazado_635191" data-name="Trazado 635191" d="M-39.969,0h-2.9l-1.742-2.883q-.2-.328-.375-.586a3.255,3.255,0,0,0-.363-.441,1.445,1.445,0,0,0-.383-.281.972.972,0,0,0-.434-.1h-.68V0h-2.523V-11.2h4q4.078,0,4.078,3.047a3.155,3.155,0,0,1-.18,1.082,3.006,3.006,0,0,1-.508.895,3.219,3.219,0,0,1-.793.688,4.089,4.089,0,0,1-1.035.453v.031a1.606,1.606,0,0,1,.484.254,3.468,3.468,0,0,1,.453.41,5.723,5.723,0,0,1,.418.5q.2.27.363.527Zm-6.875-9.312V-6.2h1.094a1.813,1.813,0,0,0,1.3-.469,1.564,1.564,0,0,0,.5-1.18q0-1.469-1.758-1.469ZM-32.375-3.3h-5.219q.125,1.742,2.2,1.742a4.286,4.286,0,0,0,2.32-.625V-.4A6.1,6.1,0,0,1-35.961.2,4.058,4.058,0,0,1-38.969-.879a4.058,4.058,0,0,1-1.07-3,4.281,4.281,0,0,1,1.156-3.156A3.852,3.852,0,0,1-36.039-8.2a3.5,3.5,0,0,1,2.707,1.039,4,4,0,0,1,.957,2.82Zm-2.289-1.516q0-1.719-1.391-1.719a1.328,1.328,0,0,0-1.027.492,2.234,2.234,0,0,0-.527,1.227Zm9.82,4.523A4.881,4.881,0,0,1-27.258.2,4.083,4.083,0,0,1-30.242-.922,3.859,3.859,0,0,1-31.383-3.8,4.251,4.251,0,0,1-30.16-7.02,4.518,4.518,0,0,1-26.891-8.2a4.2,4.2,0,0,1,2.047.375v2.094A2.814,2.814,0,0,0-26.57-6.3a2.275,2.275,0,0,0-1.684.621,2.317,2.317,0,0,0-.621,1.715A2.28,2.28,0,0,0-28.281-2.3a2.182,2.182,0,0,0,1.633.605,3.258,3.258,0,0,0,1.8-.578ZM-15.625,0h-2.461V-1.219h-.039A2.792,2.792,0,0,1-20.57.2q-2.781,0-2.781-3.367V-8h2.461v4.609q0,1.7,1.344,1.7a1.329,1.329,0,0,0,1.063-.465,1.874,1.874,0,0,0,.4-1.262V-8h2.461Zm4.578-.93h-.031V3.68h-2.469V-8h2.469v1.2h.031a2.9,2.9,0,0,1,2.57-1.4,2.892,2.892,0,0,1,2.4,1.066,4.54,4.54,0,0,1,.848,2.9,4.922,4.922,0,0,1-.988,3.211A3.222,3.222,0,0,1-8.844.2,2.491,2.491,0,0,1-11.047-.93Zm-.07-3.281v.641a2.037,2.037,0,0,0,.438,1.352A1.424,1.424,0,0,0-9.531-1.7a1.514,1.514,0,0,0,1.309-.652A3.15,3.15,0,0,0-7.758-4.2Q-7.758-6.3-9.4-6.3a1.541,1.541,0,0,0-1.238.574A2.29,2.29,0,0,0-11.117-4.211ZM3.563-3.3H-1.656q.125,1.742,2.2,1.742a4.286,4.286,0,0,0,2.32-.625V-.4A6.1,6.1,0,0,1-.023.2,4.058,4.058,0,0,1-3.031-.879a4.058,4.058,0,0,1-1.07-3A4.281,4.281,0,0,1-2.945-7.031,3.852,3.852,0,0,1-.1-8.2,3.5,3.5,0,0,1,2.605-7.156a4,4,0,0,1,.957,2.82ZM1.273-4.812q0-1.719-1.391-1.719a1.328,1.328,0,0,0-1.027.492,2.234,2.234,0,0,0-.527,1.227Zm8.977-.961a2.142,2.142,0,0,0-1.039-.242,1.5,1.5,0,0,0-1.258.59A2.573,2.573,0,0,0,7.5-3.82V0H5.031V-8H7.5v1.484h.031A2.136,2.136,0,0,1,9.641-8.141a1.59,1.59,0,0,1,.609.094ZM18.055,0H15.719V-1.148h-.031A2.607,2.607,0,0,1,13.3.2a2.492,2.492,0,0,1-1.832-.66A2.366,2.366,0,0,1,10.8-2.227q0-2.328,2.758-2.687L15.734-5.2q0-1.312-1.422-1.312a4.853,4.853,0,0,0-2.719.852V-7.523A6.116,6.116,0,0,1,13-7.992a7.413,7.413,0,0,1,1.629-.2q3.422,0,3.422,3.414Zm-2.32-3.25v-.539L14.281-3.6q-1.2.156-1.2,1.086a.9.9,0,0,0,.293.691,1.126,1.126,0,0,0,.793.27,1.462,1.462,0,0,0,1.133-.48A1.735,1.735,0,0,0,15.734-3.25ZM26.07-.289A4.881,4.881,0,0,1,23.656.2,4.083,4.083,0,0,1,20.672-.922,3.859,3.859,0,0,1,19.531-3.8,4.251,4.251,0,0,1,20.754-7.02,4.518,4.518,0,0,1,24.023-8.2a4.2,4.2,0,0,1,2.047.375v2.094A2.814,2.814,0,0,0,24.344-6.3a2.275,2.275,0,0,0-1.684.621,2.317,2.317,0,0,0-.621,1.715A2.28,2.28,0,0,0,22.633-2.3a2.182,2.182,0,0,0,1.633.605,3.258,3.258,0,0,0,1.8-.578Zm2.867-8.977a1.442,1.442,0,0,1-1.023-.371,1.2,1.2,0,0,1-.4-.91,1.153,1.153,0,0,1,.4-.906,1.49,1.49,0,0,1,1.023-.352,1.486,1.486,0,0,1,1.027.352,1.158,1.158,0,0,1,.395.906,1.191,1.191,0,0,1-.395.922A1.466,1.466,0,0,1,28.938-9.266ZM30.156,0H27.688V-8h2.469Zm5.891.2A4.3,4.3,0,0,1,32.9-.926a4.064,4.064,0,0,1-1.145-3.043,4.065,4.065,0,0,1,1.188-3.105A4.487,4.487,0,0,1,36.156-8.2a4.249,4.249,0,0,1,3.125,1.121,3.985,3.985,0,0,1,1.133,2.965A4.23,4.23,0,0,1,39.246-.961,4.348,4.348,0,0,1,36.047.2Zm.063-6.5a1.647,1.647,0,0,0-1.359.6A2.653,2.653,0,0,0,34.266-4q0,2.3,1.859,2.3Q37.9-1.7,37.9-4.062,37.9-6.3,36.109-6.3Zm2.648-5.484L36.313-9.266H34.531l2.031-2.523ZM49.734,0H47.273V-4.445q0-1.859-1.328-1.859a1.318,1.318,0,0,0-1.055.492,1.875,1.875,0,0,0-.414,1.25V0H42.008V-8h2.469v1.266h.031A2.829,2.829,0,0,1,47.078-8.2q2.656,0,2.656,3.3Z" transform="translate(1010.333 1511)" fill="#12263f"/>
    <path id="Trazado_635192" data-name="Trazado 635192" d="M-75.066,0h-2.492V-6.7q0-1.086.094-2.4h-.062a11.8,11.8,0,0,1-.352,1.484L-80.5,0h-2.062l-2.672-7.539A14.672,14.672,0,0,1-85.59-9.1h-.07q.1,1.656.1,2.906V0h-2.273V-11.2h3.7l2.289,6.641a9.35,9.35,0,0,1,.4,1.6h.047a16.127,16.127,0,0,1,.445-1.617l2.289-6.625h3.6Zm9.492-3.3h-5.219q.125,1.742,2.2,1.742a4.286,4.286,0,0,0,2.32-.625V-.4A6.1,6.1,0,0,1-69.16.2,4.058,4.058,0,0,1-72.168-.879a4.058,4.058,0,0,1-1.07-3,4.281,4.281,0,0,1,1.156-3.156A3.852,3.852,0,0,1-69.238-8.2a3.5,3.5,0,0,1,2.707,1.039,4,4,0,0,1,.957,2.82Zm-2.289-1.516q0-1.719-1.391-1.719a1.328,1.328,0,0,0-1.027.492,2.234,2.234,0,0,0-.527,1.227Zm5.008-4.453a1.442,1.442,0,0,1-1.023-.371,1.2,1.2,0,0,1-.4-.91,1.153,1.153,0,0,1,.4-.906,1.49,1.49,0,0,1,1.023-.352,1.486,1.486,0,0,1,1.027.352,1.158,1.158,0,0,1,.395.906,1.191,1.191,0,0,1-.395.922A1.466,1.466,0,0,1-62.855-9.266Zm1.219,9.125A4.349,4.349,0,0,1-62.5,2.7,3.041,3.041,0,0,1-65,3.758a3.457,3.457,0,0,1-1.18-.234V1.586a1.923,1.923,0,0,0,.914.289q1.164,0,1.164-1.828V-8h2.469ZM-55.746.2A4.3,4.3,0,0,1-58.891-.926a4.064,4.064,0,0,1-1.145-3.043,4.065,4.065,0,0,1,1.188-3.105A4.487,4.487,0,0,1-55.637-8.2a4.249,4.249,0,0,1,3.125,1.121,3.985,3.985,0,0,1,1.133,2.965A4.23,4.23,0,0,1-52.547-.961,4.348,4.348,0,0,1-55.746.2Zm.063-6.5a1.647,1.647,0,0,0-1.359.6A2.653,2.653,0,0,0-57.527-4q0,2.3,1.859,2.3,1.773,0,1.773-2.367Q-53.895-6.3-55.684-6.3Zm11.125.531A2.142,2.142,0,0,0-45.6-6.016a1.5,1.5,0,0,0-1.258.59,2.573,2.573,0,0,0-.453,1.605V0h-2.469V-8h2.469v1.484h.031a2.136,2.136,0,0,1,2.109-1.625,1.59,1.59,0,0,1,.609.094ZM-36.754,0H-39.09V-1.148h-.031A2.607,2.607,0,0,1-41.5.2a2.492,2.492,0,0,1-1.832-.66A2.366,2.366,0,0,1-44-2.227q0-2.328,2.758-2.687l2.172-.289q0-1.312-1.422-1.312a4.853,4.853,0,0,0-2.719.852V-7.523a6.116,6.116,0,0,1,1.41-.469,7.413,7.413,0,0,1,1.629-.2q3.422,0,3.422,3.414Zm-2.32-3.25v-.539l-1.453.188q-1.2.156-1.2,1.086a.9.9,0,0,0,.293.691,1.126,1.126,0,0,0,.793.27,1.462,1.462,0,0,0,1.133-.48A1.735,1.735,0,0,0-39.074-3.25ZM-22.1,0h-2.461V-4.562q0-1.742-1.281-1.742a1.177,1.177,0,0,0-.992.523,2.151,2.151,0,0,0-.383,1.3V0h-2.469V-4.609q0-1.7-1.258-1.7a1.206,1.206,0,0,0-1.012.5,2.2,2.2,0,0,0-.379,1.359V0H-34.8V-8h2.469v1.25h.031a2.952,2.952,0,0,1,1.074-1.043,2.952,2.952,0,0,1,1.512-.4A2.3,2.3,0,0,1-27.395-6.7,2.959,2.959,0,0,1-24.707-8.2q2.609,0,2.609,3.219Zm3.2-9.266a1.442,1.442,0,0,1-1.023-.371,1.2,1.2,0,0,1-.4-.91,1.153,1.153,0,0,1,.4-.906,1.49,1.49,0,0,1,1.023-.352,1.486,1.486,0,0,1,1.027.352,1.158,1.158,0,0,1,.395.906,1.191,1.191,0,0,1-.395.922A1.466,1.466,0,0,1-18.895-9.266ZM-17.676,0h-2.469V-8h2.469ZM-8.41-3.3h-5.219q.125,1.742,2.2,1.742a4.286,4.286,0,0,0,2.32-.625V-.4A6.1,6.1,0,0,1-12,.2,4.058,4.058,0,0,1-15-.879a4.058,4.058,0,0,1-1.07-3,4.281,4.281,0,0,1,1.156-3.156A3.852,3.852,0,0,1-12.074-8.2,3.5,3.5,0,0,1-9.367-7.156a4,4,0,0,1,.957,2.82ZM-10.7-4.812q0-1.719-1.391-1.719a1.328,1.328,0,0,0-1.027.492,2.234,2.234,0,0,0-.527,1.227ZM.785,0H-1.676V-4.445Q-1.676-6.3-3-6.3a1.318,1.318,0,0,0-1.055.492,1.875,1.875,0,0,0-.414,1.25V0H-6.941V-8h2.469v1.266h.031A2.829,2.829,0,0,1-1.871-8.2Q.785-8.2.785-4.9ZM7.574-.094A3.649,3.649,0,0,1,5.926.2Q3.316.2,3.316-2.516V-6.18H2.02V-8h1.3V-9.727l2.461-.7V-8h1.8v1.82h-1.8v3.234q0,1.25.992,1.25a1.673,1.673,0,0,0,.8-.227ZM12.715.2A4.3,4.3,0,0,1,9.57-.926,4.064,4.064,0,0,1,8.426-3.969,4.065,4.065,0,0,1,9.613-7.074,4.487,4.487,0,0,1,12.824-8.2a4.249,4.249,0,0,1,3.125,1.121,3.985,3.985,0,0,1,1.133,2.965A4.23,4.23,0,0,1,15.914-.961,4.348,4.348,0,0,1,12.715.2Zm.063-6.5a1.647,1.647,0,0,0-1.359.6A2.653,2.653,0,0,0,10.934-4q0,2.3,1.859,2.3,1.773,0,1.773-2.367Q14.566-6.3,12.777-6.3ZM29.16-.289A4.881,4.881,0,0,1,26.746.2,4.083,4.083,0,0,1,23.762-.922,3.859,3.859,0,0,1,22.621-3.8,4.251,4.251,0,0,1,23.844-7.02,4.518,4.518,0,0,1,27.113-8.2a4.2,4.2,0,0,1,2.047.375v2.094A2.814,2.814,0,0,0,27.434-6.3a2.275,2.275,0,0,0-1.684.621,2.317,2.317,0,0,0-.621,1.715A2.28,2.28,0,0,0,25.723-2.3a2.182,2.182,0,0,0,1.633.605,3.258,3.258,0,0,0,1.8-.578ZM34.59.2A4.3,4.3,0,0,1,31.445-.926,4.064,4.064,0,0,1,30.3-3.969a4.065,4.065,0,0,1,1.188-3.105A4.487,4.487,0,0,1,34.7-8.2a4.249,4.249,0,0,1,3.125,1.121,3.985,3.985,0,0,1,1.133,2.965A4.23,4.23,0,0,1,37.789-.961,4.348,4.348,0,0,1,34.59.2Zm.063-6.5a1.647,1.647,0,0,0-1.359.6A2.653,2.653,0,0,0,32.809-4q0,2.3,1.859,2.3,1.773,0,1.773-2.367Q36.441-6.3,34.652-6.3ZM48.285,0H45.824V-4.445Q45.824-6.3,44.5-6.3a1.318,1.318,0,0,0-1.055.492,1.875,1.875,0,0,0-.414,1.25V0H40.559V-8h2.469v1.266h.031A2.829,2.829,0,0,1,45.629-8.2q2.656,0,2.656,3.3Zm6.789-.094A3.649,3.649,0,0,1,53.426.2q-2.609,0-2.609-2.711V-6.18h-1.3V-8h1.3V-9.727l2.461-.7V-8h1.8v1.82h-1.8v3.234q0,1.25.992,1.25a1.673,1.673,0,0,0,.8-.227Zm2.641-9.172a1.442,1.442,0,0,1-1.023-.371,1.2,1.2,0,0,1-.4-.91,1.153,1.153,0,0,1,.4-.906,1.49,1.49,0,0,1,1.023-.352,1.486,1.486,0,0,1,1.027.352,1.158,1.158,0,0,1,.395.906,1.191,1.191,0,0,1-.395.922A1.466,1.466,0,0,1,57.715-9.266ZM58.934,0H56.465V-8h2.469Zm9.8,0H66.277V-4.445q0-1.859-1.328-1.859a1.318,1.318,0,0,0-1.055.492,1.875,1.875,0,0,0-.414,1.25V0H61.012V-8H63.48v1.266h.031A2.829,2.829,0,0,1,66.082-8.2q2.656,0,2.656,3.3Zm9.555,0H75.832V-1.219h-.039A2.792,2.792,0,0,1,73.348.2q-2.781,0-2.781-3.367V-8h2.461v4.609q0,1.7,1.344,1.7a1.329,1.329,0,0,0,1.063-.465,1.874,1.874,0,0,0,.4-1.262V-8h2.461Zm5.891.2A4.3,4.3,0,0,1,81.039-.926a4.064,4.064,0,0,1-1.145-3.043,4.065,4.065,0,0,1,1.188-3.105A4.487,4.487,0,0,1,84.293-8.2a4.249,4.249,0,0,1,3.125,1.121,3.985,3.985,0,0,1,1.133,2.965A4.23,4.23,0,0,1,87.383-.961,4.348,4.348,0,0,1,84.184.2Zm.063-6.5a1.647,1.647,0,0,0-1.359.6A2.653,2.653,0,0,0,82.4-4q0,2.3,1.859,2.3,1.773,0,1.773-2.367Q86.035-6.3,84.246-6.3Z" transform="translate(1220.333 1511)" fill="#12263f"/>
  </g>
</svg>
